<svg xmlns="http://www.w3.org/2000/svg" fill="none" viewBox="1 1.26 63 61.48">
<path d="M32.5907 37.1635C37.5113 32.2428 37.5113 24.265 32.5907 19.3444C27.6701 14.4238 19.6922 14.4238 14.7716 19.3444C9.851 24.265 9.851 32.2428 14.7716 37.1635C19.6922 42.0841 27.6701 42.0841 32.5907 37.1635Z" fill="#EDEBF2"/>
<path fill-rule="evenodd" clip-rule="evenodd" d="M23.6812 55.0116H48.2352V49.6991C48.2352 49.6991 43.1327 46.3658 32.9275 39.6992C32.9275 39.6992 29.8454 43.1948 23.6812 50.1861V55.0116Z" fill="#EBB894"/>
<path fill-rule="evenodd" clip-rule="evenodd" d="M26.9849 55.0116H48.2351V49.6991C48.2351 49.6991 43.1326 46.3658 32.9275 39.6992L30.7085 42.216L26.9849 48.5906V55.0116Z" fill="#F6CCAF"/>
<path fill-rule="evenodd" clip-rule="evenodd" d="M26.9849 6.56978C26.2118 8.43416 25.6224 10.3329 25.2063 12.2452C33.3719 13.0135 39.7618 19.8868 39.7618 28.2535C39.7618 33.6957 37.0579 38.5058 32.9207 41.4155C35.2218 43.9833 37.9587 46.2283 41.0914 48.0292C47.899 51.3938 57.3677 49.0268 57.0674 46.7885C57.0674 46.7885 56.8326 43.7593 56.3632 37.7003C60.2514 37.0285 62.5017 35.9743 63.1139 34.5374C63.3322 34.0248 63.286 33.4843 62.9842 33.0164C60.8312 29.6803 59.1618 28.2913 59.2189 24.1963C59.2828 19.6165 58.011 15.0969 55.5315 11.2032C52.5667 6.40916 47.6624 3.14303 42.0961 2.25478C36.5297 1.36653 31.2942 2.93691 26.9847 6.57003L26.9849 6.56978Z" fill="#FFDEC7"/>
<path fill-rule="evenodd" clip-rule="evenodd" d="M25.2718 25.6036C25.1097 25.2763 25.0284 24.9192 25.0284 24.5622C25.0284 23.9621 25.2574 23.3618 25.7154 22.9038C26.1734 22.4458 26.7736 22.2168 27.3737 22.2168C27.9738 22.2168 28.5741 22.4458 29.0319 22.9038C29.4899 23.3618 29.7189 23.962 29.7189 24.5622C29.7189 25.1625 29.4899 25.7625 29.0319 26.2205C28.5739 26.6785 27.9737 26.9075 27.3737 26.9075C27.0166 26.9075 26.6594 26.8263 26.3322 26.6641L14.1268 38.8695L13.0663 37.809L25.2718 25.6036ZM16.0501 40.0238L17.1106 41.0843L25.4484 32.7465L27.1857 33.212C27.2203 33.7618 27.4477 34.3017 27.8681 34.722C28.3261 35.18 28.9262 35.409 29.5263 35.409C30.1264 35.409 30.7267 35.18 31.1846 34.722C31.6426 34.264 31.8716 33.6638 31.8716 33.0637C31.8716 32.4636 31.6426 31.8635 31.1846 31.4055C30.7266 30.9475 30.1264 30.7185 29.5263 30.7185C28.9262 30.7185 28.3261 30.9475 27.8681 31.4055C27.7561 31.5175 27.6578 31.638 27.5732 31.765L25.4552 31.1975C25.1957 31.1135 24.8994 31.1745 24.6933 31.3806L16.0501 40.0238ZM28.6811 33.0638C28.6811 33.2802 28.7636 33.4966 28.9286 33.6616C29.0936 33.8266 29.3099 33.9091 29.5263 33.9091C29.7427 33.9091 29.9591 33.8266 30.1241 33.6616C30.2889 33.4966 30.3716 33.2802 30.3716 33.0638C30.3716 32.8475 30.2891 32.6311 30.1241 32.4661C29.9591 32.3011 29.7427 32.2186 29.5263 32.2186C29.3099 32.2186 29.0934 32.3011 28.9286 32.4661C28.7637 32.6311 28.6811 32.8475 28.6811 33.0638ZM10.8516 34.8253L11.9121 35.8858L20.5553 27.2426C20.7614 27.0365 20.8224 26.7402 20.7384 26.4807L20.1709 24.3628C20.2978 24.2782 20.4184 24.18 20.5304 24.068C20.9883 23.61 21.2174 23.0097 21.2174 22.4097C21.2174 21.8097 20.9884 21.2095 20.5304 20.7515C20.0724 20.2935 19.4723 20.0645 18.8722 20.0645C18.2721 20.0645 17.6718 20.2935 17.2139 20.7515C16.7559 21.2093 16.5269 21.8096 16.5269 22.4097C16.5269 23.0098 16.7559 23.61 17.2139 24.068C17.6342 24.4882 18.1742 24.7157 18.7241 24.7503L19.1896 26.4876L10.8517 34.8255L10.8516 34.8253ZM18.2743 23.0073C18.4393 23.1723 18.6557 23.2548 18.8721 23.2548C19.0884 23.2548 19.3048 23.1723 19.4698 23.0073C19.6347 22.8423 19.7172 22.626 19.7172 22.4096C19.7172 22.1932 19.6347 21.9768 19.4698 21.812C19.3049 21.647 19.0884 21.5645 18.8721 21.5645C18.6557 21.5645 18.4392 21.647 18.2743 21.812C18.1093 21.977 18.0268 22.1933 18.0268 22.4097C18.0268 22.6261 18.1093 22.8425 18.2743 23.0075V23.0073ZM26.5286 24.5621C26.5286 24.7785 26.6111 24.9948 26.7761 25.1598C26.9411 25.3248 27.1574 25.4073 27.3738 25.4073C27.5902 25.4073 27.8066 25.3248 27.9716 25.1598C28.1366 24.9948 28.2191 24.7785 28.2191 24.5621C28.2191 24.3457 28.1366 24.1292 27.9716 23.9643C27.8066 23.7993 27.5902 23.7168 27.3738 23.7168C27.1574 23.7168 26.9409 23.7993 26.7761 23.9643C26.6111 24.1293 26.5286 24.3457 26.5286 24.5621Z" fill="#3A90E0"/>
<path fill-rule="evenodd" clip-rule="evenodd" d="M29.3355 10.6432C30.3059 10.9545 31.241 11.3443 32.1341 11.8042L34.4184 11.1921L36.6745 10.5875C38.4579 11.9013 40.035 13.4786 41.349 15.262L40.7444 17.518L40.1326 19.8012C40.5928 20.6947 40.9825 21.6306 41.294 22.6013L43.3391 23.7821L45.3646 24.9516C45.5275 26.0292 45.6123 27.1322 45.6123 28.2553C45.6123 29.3785 45.5274 30.4816 45.3646 31.5591L43.3391 32.7285L41.2934 33.9097C40.982 34.8801 40.5922 35.8152 40.1324 36.7083L40.7445 38.9926L41.3491 41.2487C40.0353 43.0322 38.458 44.6092 36.6746 45.9232L34.4186 45.3186L32.1354 44.7068C31.2419 45.167 30.306 45.5567 29.3353 45.8682L28.1545 47.9133L26.985 49.9388C25.9074 50.1017 24.8044 50.1865 23.6812 50.1865C22.5581 50.1865 21.455 50.1016 20.3775 49.9388L19.2081 47.9133L18.0269 45.8676C17.0565 45.5562 16.1214 45.1665 15.2282 44.7066L12.944 45.3187L10.6879 45.9233C8.90438 44.6095 7.32737 43.0322 6.01337 41.2488L6.618 38.9928L7.22975 36.7096C6.76963 35.8161 6.37988 34.8802 6.06838 33.9095L4.02325 32.7287L1.99762 31.5592C1.83475 30.4816 1.75 29.3786 1.75 28.2555C1.75 27.1323 1.83487 26.0292 1.99762 24.9517L4.02325 23.7823L6.06862 22.6013C6.38013 21.6306 6.7695 20.6948 7.22975 19.8013L6.618 17.5182L6.01337 15.2621C7.32725 13.4786 8.9045 11.9016 10.6879 10.5876L12.9439 11.1922L15.2273 11.804C16.1206 11.344 17.0562 10.9546 18.0269 10.6432L19.208 8.59747L20.3775 6.57184C21.4551 6.40897 22.5581 6.32422 23.6812 6.32422C24.8044 6.32422 25.9075 6.40909 26.985 6.57184L28.1544 8.59747L29.3355 10.6432ZM23.6812 15.6113C16.6981 15.6113 11.0371 21.2723 11.0371 28.2555C11.0371 35.2386 16.6981 40.8996 23.6812 40.8996C30.6644 40.8996 36.3254 35.2386 36.3254 28.2555C36.3254 21.2723 30.6644 15.6113 23.6812 15.6113Z" fill="#FFCC66"/>
<path fill-rule="evenodd" clip-rule="evenodd" d="M29.335 45.8685L28.1543 47.9136L26.9848 49.9391C25.9071 50.102 24.8041 50.1868 23.681 50.1868C22.5579 50.1868 21.4548 50.1019 20.3773 49.9391L19.2079 47.9136L18.0266 45.8679C17.0563 45.5565 16.1211 45.1668 15.228 44.7069L12.9438 45.319L10.6876 45.9236C8.90413 44.6098 7.32713 43.0325 6.01313 41.2491L6.61776 38.9931L7.22951 36.7099C6.76938 35.8164 6.37963 34.8805 6.06813 33.9098L4.02301 32.729L1.99738 31.5595C1.83451 30.4819 1.74976 29.3789 1.74976 28.2558C1.74976 27.1326 1.83463 26.0295 1.99738 24.952L4.02301 23.7826L6.06838 22.6016C6.37988 21.6309 6.76926 20.6951 7.22951 19.8016L6.61776 17.5185L6.01313 15.2624C7.32701 13.4789 8.90426 11.9019 10.6876 10.5879L12.9436 11.1925L15.227 11.8043C8.21463 16.9923 5.63588 26.2888 8.97351 34.3478C12.3111 42.4068 20.7078 47.1578 29.3349 45.8685H29.335Z" fill="#FFBA55"/>
<path d="M48.2351 55.0117H23.6811C22.1122 55.0117 20.8403 56.2836 20.8403 57.8525V59.1475C20.8403 60.7164 22.1122 61.9882 23.6811 61.9882H48.2351C49.804 61.9882 51.0758 60.7164 51.0758 59.1475V57.8525C51.0758 56.2836 49.804 55.0117 48.2351 55.0117Z" fill="#6FABE6"/>
<path fill-rule="evenodd" clip-rule="evenodd" d="M23.6811 55.0117H48.2352C49.7976 55.0117 51.076 56.29 51.076 57.8525V59.1476C51.076 59.249 51.0705 59.349 51.06 59.4477H20.8563C20.8458 59.3491 20.8403 59.249 20.8403 59.1476V57.8525C20.8403 56.2901 22.1186 55.0117 23.6811 55.0117Z" fill="#82BCF4"/>
<path fill-rule="evenodd" clip-rule="evenodd" d="M18.2744 23.0088C17.9459 22.6792 17.9456 22.143 18.2742 21.8135C18.6045 21.4836 19.1406 21.4838 19.4705 21.8135C19.6305 21.973 19.718 22.1853 19.718 22.4111C19.7182 22.6367 19.6305 22.8491 19.4705 23.0088C19.1406 23.3382 18.6042 23.3383 18.2744 23.0088ZM26.5296 24.5636C26.5296 24.3378 26.6169 24.1256 26.7769 23.9658C26.9369 23.8062 27.1481 23.7183 27.3744 23.7183C27.6007 23.7182 27.8131 23.8063 27.9719 23.966C28.1322 24.1255 28.2194 24.3378 28.2194 24.5636C28.2194 24.7893 28.1319 25.0017 27.9719 25.1613C27.8134 25.3207 27.6006 25.4088 27.3744 25.4088C27.1485 25.4088 26.9369 25.321 26.7769 25.1613C26.6174 25.0015 26.5294 24.7893 26.5296 24.5636ZM28.6824 33.0652C28.6824 32.8393 28.7692 32.6273 28.9294 32.4676C29.0895 32.3078 29.3006 32.2201 29.5267 32.2201C29.7532 32.2201 29.9642 32.308 30.1242 32.4677C30.2842 32.6273 30.3717 32.8396 30.3717 33.0653C30.372 33.2911 30.2842 33.5033 30.1242 33.6631C29.9647 33.8226 29.753 33.9106 29.5267 33.9106C29.301 33.9103 29.0892 33.8227 28.9294 33.6631C28.7695 33.5031 28.6819 33.2911 28.6819 33.0653H28.6822L28.6824 33.0652ZM23.6822 40.1501L23.6819 40.1503C30.2406 40.1503 35.5759 34.8146 35.5757 28.2562C35.5757 21.6977 30.2411 16.3621 23.6819 16.3621C17.1231 16.3621 11.7882 21.6976 11.7881 28.2562C11.7881 29.9156 12.1297 31.4961 12.7474 32.9325L19.1896 26.4896L18.7219 24.7481C18.1731 24.7131 17.6331 24.4882 17.2144 24.0695C16.2994 23.1551 16.2994 21.667 17.2144 20.7528C18.1294 19.8383 19.617 19.8383 20.5306 20.7528C20.9744 21.1958 21.2185 21.7847 21.2181 22.4112C21.2181 23.0377 20.9744 23.6266 20.5306 24.0696C20.4194 24.1812 20.2992 24.2788 20.1722 24.3632L20.7506 26.5198C20.8194 26.7786 20.746 27.0547 20.5559 27.2441L13.4631 34.3368C13.8417 34.97 14.2772 35.5651 14.7621 36.1152L25.2744 25.6038C25.1156 25.2842 25.0295 24.9307 25.0294 24.5637C25.0294 23.9373 25.2736 23.3482 25.7156 22.9055C26.1594 22.4625 26.7485 22.2183 27.3744 22.2185C28.0006 22.2185 28.5896 22.4622 29.0331 22.9055C29.4756 23.3483 29.7196 23.9371 29.7195 24.5637C29.7195 25.1902 29.4761 25.779 29.0331 26.2221C28.5895 26.6651 28.0006 26.9087 27.3744 26.909C27.0069 26.909 26.6545 26.8227 26.3345 26.6645L15.8231 37.1761C16.3731 37.6615 16.9684 38.0965 17.6022 38.4747L24.6944 31.3823C24.8831 31.193 25.1594 31.119 25.4182 31.1881L27.5744 31.7658C27.6594 31.6383 27.7582 31.518 27.8681 31.4072C28.3119 30.9643 28.9011 30.7201 29.5269 30.7203C30.1532 30.7203 30.7422 30.9642 31.1856 31.4073C31.6281 31.8502 31.8724 32.4391 31.8719 33.0656C31.8719 33.6921 31.6281 34.2807 31.1856 34.724C30.7419 35.1668 30.1534 35.4108 29.5269 35.4108C28.9007 35.4108 28.3122 35.1667 27.8681 34.724C27.4619 34.3167 27.2244 33.7852 27.1895 33.2155L25.4485 32.7492L19.0056 39.1921C20.4419 39.8087 22.0235 40.1506 23.6822 40.1506V40.1501ZM37.0759 28.256C37.0759 20.8703 31.0669 14.862 23.6817 14.862C16.2971 14.8617 10.288 20.8706 10.288 28.2561C10.2885 35.6413 16.2967 41.6502 23.6817 41.6502C31.0672 41.65 37.0755 35.6416 37.0759 28.256ZM62.4244 34.2457C62.5455 33.9612 62.5224 33.6852 62.3542 33.4255C61.943 32.7877 61.5547 32.2281 61.1767 31.6873C59.6366 29.4751 58.4204 27.7278 58.4692 24.1883C58.5317 19.7237 57.2982 15.3736 54.8991 11.6085C52.0416 6.98783 47.3346 3.85246 41.9791 2.99783C36.904 2.18821 32.0695 3.48546 27.9542 6.75021L29.843 10.0211C30.6517 10.2946 31.448 10.625 32.2169 11.0061L36.4805 9.86383C36.7005 9.80471 36.9369 9.84908 37.1204 9.98446C38.9667 11.3448 40.5931 12.971 41.9529 14.818C42.0892 15.0016 42.1331 15.2365 42.0742 15.4567L40.9317 19.7196C41.313 20.4883 41.6434 21.2853 41.9167 22.0956L45.7405 24.303C45.938 24.4171 46.0731 24.6148 46.1067 24.8403C46.2767 25.9641 46.3632 27.1131 46.363 28.2562C46.363 29.3983 46.2772 30.5475 46.1067 31.672C46.073 31.8976 45.938 32.0955 45.7406 32.2093L41.9167 34.417C41.643 35.2263 41.3131 36.0228 40.9317 36.7915L42.0742 41.0555C42.1329 41.2757 42.0894 41.5106 41.9529 41.6945C40.593 43.5405 38.9669 45.1666 37.1204 46.5278C36.9367 46.6633 36.7017 46.7075 36.4806 46.6485L32.218 45.5062C31.4504 45.8872 30.6531 46.2176 29.842 46.4918L27.6354 50.3147C27.5204 50.5122 27.3231 50.647 27.0979 50.6813C26.2191 50.8141 25.3256 50.8947 24.4319 50.9243V54.2627H47.4854V50.4125C45.0329 50.25 42.7041 49.6655 40.7604 48.7042C40.3879 48.5207 40.237 48.0707 40.4191 47.6996C40.6027 47.3283 41.0531 47.1758 41.4241 47.3595C46.7529 49.9931 53.8032 48.8863 55.8652 47.4062C56.2652 47.1186 56.3295 46.9263 56.324 46.8908C56.3227 46.877 56.3215 46.8631 56.3204 46.849L55.6165 37.7608C55.5865 37.375 55.8551 37.0297 56.2365 36.9638C60.724 36.1886 62.0792 35.0578 62.4241 34.246L62.4244 34.2457ZM50.3272 57.8532V59.1483C50.3272 60.3012 49.388 61.2391 48.2355 61.2391H23.6822C22.5297 61.239 21.5906 60.3012 21.5906 59.1485L21.5909 57.8532C21.5909 56.7003 22.5294 55.7626 23.6819 55.7626L48.2359 55.7623C49.3885 55.7623 50.3269 56.7005 50.3269 57.8533H50.3272V57.8532ZM18.6771 45.493L20.8455 49.2483C22.7192 49.499 24.6469 49.4988 26.5184 49.2483L28.6869 45.4938C28.7792 45.3325 28.9299 45.2116 29.1069 45.1547C30.0269 44.8593 30.9307 44.4843 31.7931 44.0407C31.9581 43.9553 32.1496 43.9347 32.3307 43.9828L36.5169 45.1051C38.0294 43.9508 39.3782 42.603 40.5309 41.0912L39.4081 36.9028C39.3606 36.7228 39.3811 36.531 39.4669 36.3655C39.9106 35.5027 40.2856 34.5993 40.5794 33.681C40.6369 33.5036 40.7581 33.3537 40.9195 33.2606L44.6742 31.0925C44.7992 30.1557 44.8631 29.203 44.863 28.2558C44.863 27.3078 44.7995 26.3553 44.6746 25.4191L40.9192 23.2513C40.758 23.1582 40.637 23.0085 40.5805 22.8311C40.2855 21.9111 39.9109 21.0071 39.4667 20.145C39.3805 19.9792 39.3607 19.7876 39.4097 19.6076L40.5306 15.4206C39.3767 13.9081 38.0294 12.5603 36.5169 11.4066L32.3294 12.5291C32.1481 12.5772 31.9572 12.5567 31.7919 12.4715C30.9281 12.027 30.0245 11.6522 29.1069 11.3578C28.9294 11.3008 28.7796 11.18 28.6874 11.0185L26.5181 7.26333C24.6456 7.01283 22.717 7.01258 20.8456 7.26333L18.6769 11.0187C18.5844 11.1801 18.4347 11.301 18.2569 11.358C17.3369 11.6531 16.4334 12.0277 15.5706 12.4713C15.4056 12.5567 15.2145 12.5771 15.0345 12.529L10.847 11.407C9.33449 12.5613 7.98586 13.9088 6.83324 15.4205L7.95436 19.6077C8.00311 19.7878 7.98349 19.9792 7.89686 20.1452C7.45436 21.0056 7.07961 21.9092 6.78311 22.8311C6.72686 23.0083 6.60599 23.1582 6.44449 23.2513L2.68949 25.4193C2.56449 26.3561 2.50086 27.3083 2.50074 28.256C2.50074 29.2032 2.56449 30.1557 2.68999 31.0926L6.44449 33.2603C6.60574 33.3535 6.72586 33.5032 6.78324 33.6808C7.07836 34.6013 7.45374 35.5051 7.89699 36.3666C7.98199 36.5325 8.00324 36.724 7.95486 36.904L6.83324 41.0913C7.98699 42.6038 9.33461 43.9516 10.8472 45.105L15.0344 43.9827C15.2144 43.9345 15.4074 43.955 15.572 44.0403C16.4357 44.4848 17.3385 44.8595 18.257 45.154C18.4345 45.211 18.5845 45.3317 18.6772 45.4931L18.6771 45.493ZM63.6159 32.6117C63.1895 31.952 62.7919 31.3816 62.4081 30.83C60.9147 28.6838 59.9269 27.2662 59.9694 24.209C60.0361 19.451 58.7206 14.8152 56.1706 10.811C53.0887 5.82746 48.0017 2.43983 42.2157 1.51633C36.6046 0.620957 31.2706 2.09733 26.7644 5.78358C24.6184 5.49221 22.4032 5.50783 20.2656 5.83071C20.0407 5.86483 19.8431 5.99971 19.7281 6.19733L17.5207 10.0206C16.7107 10.2945 15.9131 10.6251 15.1457 11.0058L10.8832 9.86333C10.6622 9.80433 10.427 9.84871 10.2431 9.98408C8.39586 11.3452 6.76936 12.9716 5.41061 14.8175C5.27449 15.0008 5.23061 15.2362 5.28936 15.4565L6.43211 19.7188C6.05236 20.4863 5.72061 21.2835 5.44686 22.0952L1.62324 24.3023C1.42586 24.4166 1.29049 24.6143 1.25674 24.84C1.08724 25.9642 1.00049 27.1136 1.00049 28.2557C1.00049 29.3978 1.08674 30.547 1.25674 31.6715C1.29086 31.897 1.42561 32.095 1.62311 32.209L5.44599 34.4158C5.72099 35.227 6.05049 36.0241 6.43186 36.7925L5.28961 41.0547C5.23061 41.275 5.27424 41.5105 5.41061 41.6941C6.77074 43.541 8.39686 45.1672 10.2431 46.5275C10.427 46.6626 10.6619 46.7071 10.8819 46.6481L15.147 45.5052C15.916 45.8866 16.712 46.2172 17.5207 46.4907L19.7285 50.314C19.8432 50.5113 20.0406 50.6466 20.2656 50.6807C21.1449 50.8135 22.0381 50.8943 22.9319 50.9237V54.3415C21.3107 54.6873 20.0906 56.1302 20.0906 57.853V59.148C20.0906 61.1277 21.7019 62.7387 23.6819 62.7387H48.2359C50.2159 62.7387 51.8267 61.128 51.8267 59.1481V57.8528C51.8269 56.1302 50.6067 54.6876 48.9855 54.3417L48.9857 50.4588C49.2984 50.4575 49.6117 50.4505 49.9255 50.4353C52.7606 50.2998 55.3717 49.6058 56.7394 48.6243C57.727 47.9158 57.8719 47.1995 57.8142 46.7152L57.1644 38.3185C60.9444 37.5861 63.1192 36.4435 63.8044 34.8333C64.1197 34.0952 64.0505 33.2856 63.6157 32.6116L63.6159 32.6117Z" fill="black"/>
</svg>