<svg xmlns="http://www.w3.org/2000/svg" fill="none" viewBox="1.97 5.5 61.07 53.01">
<path d="M61.8102 31.5669C61.8102 30.4263 61.2711 29.3487 60.3824 28.6753C60.5353 27.5527 60.1578 26.4302 59.3316 25.6489C58.5504 24.8496 57.419 24.4727 56.2965 24.6074C55.6232 23.7275 54.5631 23.1797 53.4138 23.1797C52.2556 23.1797 51.2048 23.7095 50.531 24.6074C49.4172 24.4727 48.2859 24.8501 47.5047 25.6314C46.6785 26.4307 46.301 27.5532 46.4539 28.6757C45.5647 29.3491 45.0261 30.4267 45.0261 31.5674C45.0261 32.708 45.5652 33.7764 46.4539 34.4501C46.3191 35.4916 46.6336 36.5512 47.3611 37.3417C47.406 37.3955 47.4597 37.4584 47.5139 37.5121C47.7293 37.7099 47.9451 37.8803 48.2053 38.0512C48.906 38.4643 49.7317 38.6347 50.5403 38.5361C50.9715 39.1108 51.5818 39.5419 52.2645 39.7573C52.6058 39.8832 52.9827 39.9457 53.4139 39.9457H53.4227C53.8538 39.9457 54.2127 39.892 54.5364 39.7753C55.2371 39.5507 55.8567 39.1108 56.2967 38.5273C56.4495 38.5541 56.6019 38.5629 56.7547 38.5629C57.4192 38.5629 58.0657 38.3832 58.6497 38.0331C58.8924 37.8715 59.1077 37.7099 59.2962 37.5302C59.3592 37.4765 59.4309 37.4042 59.5027 37.3056C60.2034 36.5243 60.5174 35.4828 60.3826 34.459C61.2806 33.7847 61.8104 32.7338 61.8104 31.5668L61.8102 31.5669ZM57.6705 31.5669C57.6705 33.9107 55.7668 35.8144 53.4137 35.8144C51.0699 35.8144 49.1662 33.9107 49.1662 31.5669C49.1662 29.2319 51.0699 27.3282 53.4137 27.3282C55.7667 27.3282 57.6705 29.2319 57.6705 31.5669Z" fill="#F90002"/>
<path d="M53.4138 29.1211C52.0667 29.1211 50.9622 30.2168 50.9622 31.5635C50.9622 32.9195 52.0666 34.0151 53.4138 34.0151C54.7698 34.0151 55.8743 32.9194 55.8743 31.5635C55.8743 30.2168 54.7698 29.1211 53.4138 29.1211Z" fill="#F90002"/>
<path d="M49.7765 40.3487C50.4947 41.0044 51.3571 41.4351 52.2642 41.624L49.3096 47.7124C49.166 48.0269 48.8516 48.2241 48.5015 48.2241H48.4566C48.0884 48.1973 47.774 47.9639 47.6573 47.6226L46.9659 45.6382L44.9815 46.3296C44.6402 46.4463 44.2632 46.3477 44.0205 46.0781C43.7779 45.8086 43.7242 45.4136 43.877 45.0903L46.7325 39.1992C47.5762 39.8633 48.6358 40.2857 49.7765 40.3487Z" fill="#79DA7C"/>
<path d="M62.8064 46.0781C62.5637 46.3476 62.1868 46.4463 61.8455 46.3296L59.8611 45.6382L59.1785 47.6225C59.0618 47.9639 58.7473 48.1973 58.3792 48.2241H58.3255C57.9842 48.2241 57.6697 48.0264 57.5174 47.7124L54.5627 41.6148C55.4607 41.4263 56.323 41.0039 57.0505 40.3486C58.1911 40.2856 59.2419 39.8638 60.0949 39.1992L62.9415 45.0903C63.1026 45.4136 63.0489 45.8086 62.8062 46.0781L62.8064 46.0781Z" fill="#79DA7C"/>
<path d="M20.2913 53.6587H48.0038V50.2422L20.2913 50.2427V53.6587ZM40.3963 51.0522H42.3523V52.8481H40.3963V51.0522ZM35.5784 51.0522H37.5349V52.8481H35.5784V51.0522ZM30.761 51.0522H32.717V52.8481H30.761V51.0522ZM25.9426 51.0522H27.8986V52.8481H25.9426V51.0522Z" fill="#FDC475"/>
<path d="M53.4138 21.3823C53.719 21.3823 54.0153 21.4091 54.3117 21.4633V12.4741C54.3117 8.63083 51.1867 5.49658 47.3342 5.49658L11.7092 5.49609C11.7903 5.55908 11.8709 5.63086 11.9519 5.71143C13.1824 6.95948 13.8919 8.55806 13.9637 10.2734C13.9817 10.3813 13.9817 10.4888 13.9817 10.5967V57.6079C13.9817 58.1016 14.3767 58.5059 14.8797 58.5059H53.4134C53.9163 58.5059 54.3114 58.1016 54.3114 57.6079L54.3109 45.2065L53.4129 43.3564L50.9257 48.4932C50.6952 49.0039 50.2909 49.4146 49.7987 49.6826V54.5571C49.7987 55.0532 49.3969 55.4551 48.9008 55.4551L19.3933 55.4556C18.8972 55.4556 18.4953 55.0537 18.4953 54.5576V49.3452C18.4953 48.8491 18.8972 48.4473 19.3933 48.4473H46.0633C46.0271 48.3682 45.9886 48.2901 45.9598 48.2061L45.8611 47.9277L45.5735 48.0264C45.2771 48.125 44.99 48.1699 44.6936 48.1699C43.9305 48.1699 43.1941 47.8467 42.6819 47.2808C41.9544 46.4727 41.7839 45.3051 42.2507 44.3261L45.43 37.7616C44.9539 36.9985 44.6756 36.1181 44.6307 35.202C43.7415 34.2142 43.2298 32.912 43.2298 31.5648C43.2298 30.2176 43.7415 28.9154 44.6307 27.9275C44.6937 26.5715 45.2591 25.3054 46.2562 24.3358C47.1722 23.4285 48.4383 22.8719 49.7587 22.7914C50.746 21.8851 52.0302 21.3823 53.4134 21.3823L53.4138 21.3823ZM30.76 43.1585H19.1535V41.3627H30.76L30.7595 43.1585H30.76ZM30.76 38.6747H19.1535V36.8788H30.76L30.7595 38.6747H30.76ZM41.3738 34.1913H19.1538V32.3954H41.3738V34.1913ZM41.3738 29.7079H19.1538V27.912H41.3738V29.7079ZM41.3738 25.2245H19.1538V23.4287H41.3738V25.2245ZM48.9007 20.7402H19.1532V18.9443H48.9007V20.7402ZM48.9007 16.2568H19.1532V14.4609H48.9007V16.2568ZM48.9007 11.7734H19.1532V9.97753H48.9007V11.7734Z" fill="#FFDA45"/>
<path d="M12.1851 10.5967V22.8545C12.1851 23.3574 11.7808 23.7524 11.2872 23.7524H2.86328C2.36963 23.7524 1.96533 23.3574 1.96533 22.8545V10.5967C1.96533 7.84872 4.21046 5.55859 6.95846 5.49609H7.07516C8.43991 5.49609 9.71528 6.02588 10.685 6.98685C11.646 7.95657 12.1851 9.24072 12.1851 10.5967Z" fill="#FDC475"/>
</svg>