<svg xmlns="http://www.w3.org/2000/svg" fill="none" viewBox="2 1.5 61.01 61.01">
<path d="M37.9714 22.3454L35.4524 23.2409V59.6496L37.9714 60.5549C45.2506 63.156 53.2064 63.156 60.4851 60.5549L63.0041 59.6496V23.2409L60.4851 22.3454C53.2059 19.7443 45.2501 19.7443 37.9714 22.3454ZM59.0689 56.6966L57.2681 57.4149C52.1075 59.4794 46.3501 59.4794 41.1894 57.4149L39.3886 56.6966V25.2079H44.3085V29.1439H54.1489V25.2079H59.0688L59.0689 56.6966Z" fill="#FFB1AF"/>
<path d="M43.324 34.0664H55.1321V36.0342H43.324V34.0664Z" fill="#BD6163"/>
<path d="M42.3401 39.9688H51.1961V41.9365H42.3401V39.9688Z" fill="#BD6163"/>
<path d="M46.2764 45.875H55.1324V47.8428H46.2764V45.875Z" fill="#BD6163"/>
<path d="M41.3564 51.7812H48.2446V53.749H41.3564V51.7812Z" fill="#BD6163"/>
<path d="M19.1964 8.42384L15.772 1.49609L12.3477 8.42384L4.70166 9.53566L10.2417 14.9278L8.93304 22.5538L15.7719 18.9527L22.6103 22.5538L21.3017 14.9278L26.8417 9.53566L19.1964 8.42384Z" fill="#FBCC04"/>
<path d="M28.9276 27.8283L19.7079 32.3644C19.6283 32.4039 19.5404 32.424 19.452 32.4235H13.1835C11.6704 32.3888 10.2445 33.1315 9.40512 34.3917L2.11362 44.3991C2.01109 44.5368 1.97495 44.7131 2.01499 44.8801C2.05454 45.0471 2.16635 45.1882 2.32017 45.2648L3.85529 46.0226C4.09016 46.133 4.36994 46.0773 4.54425 45.8849L9.61163 40.2468V40.2463C9.77618 40.0872 10.0189 40.0393 10.2313 40.1243C10.4437 40.2097 10.5867 40.4114 10.5955 40.6399V44.9993L8.17514 61.8355C8.14926 62.004 8.19858 62.1754 8.31039 62.3043C8.4222 62.4332 8.5848 62.5064 8.7557 62.5045H12.6917C12.9705 62.5045 13.2103 62.3062 13.2625 62.0323L15.1516 52.7828V52.7823C15.2029 52.5079 15.4426 52.3082 15.7224 52.3082C16.0017 52.3082 16.242 52.5079 16.2932 52.7823L18.1824 62.0318V62.0323C18.2322 62.2955 18.4558 62.4908 18.7234 62.5045H22.6594C22.8303 62.5064 22.9929 62.4332 23.1047 62.3043C23.2165 62.1754 23.2663 62.004 23.2399 61.8355L20.8391 44.9993V37.7078C20.8366 37.5364 20.9128 37.3733 21.0456 37.2649L29.5476 30.0915C29.6828 29.9851 29.7595 29.821 29.7541 29.6486V28.3498C29.7527 28.152 29.6506 27.9689 29.4836 27.8629C29.3161 27.7575 29.1067 27.7443 28.9275 27.8283L28.9276 27.8283Z" fill="#0E16AA"/>
<path d="M19.2852 28.0639C19.2852 30.0039 17.7124 31.5767 15.7724 31.5767C13.832 31.5767 12.2593 30.0039 12.2593 28.0639C12.2593 26.1235 13.832 24.5508 15.7724 24.5508C17.7124 24.5508 19.2852 26.1235 19.2852 28.0639Z" fill="#0E16AA"/>
<path d="M57.1002 9.36809C57.1002 7.28022 56.2706 5.27822 54.7946 3.80172C53.3181 2.32559 51.3156 1.49609 49.2282 1.49609C47.1403 1.49609 45.1378 2.32568 43.6618 3.80172C42.1853 5.27822 41.3562 7.28022 41.3562 9.36809C41.3562 11.456 42.1853 13.4585 43.6618 14.9345C45.138 16.4106 47.1403 17.2401 49.2282 17.2401C51.3156 17.2401 53.3181 16.4105 54.7946 14.9345C56.2707 13.4583 57.1002 11.456 57.1002 9.36809ZM48.2437 14.288C47.9341 14.288 47.6426 14.1425 47.4566 13.8944L44.5045 9.95842L46.0787 8.77776L48.2437 11.661L53.2227 5.02863H53.2232C53.4693 5.25861 53.6964 5.50911 53.9019 5.77668C54.1051 6.04671 54.2862 6.33332 54.4429 6.63264L49.0313 13.8944C48.8453 14.1424 48.5538 14.288 48.2437 14.288Z" fill="#5BF135"/>
</svg>