<svg xmlns="http://www.w3.org/2000/svg" fill="none" viewBox="2.98 2.48 59.04 59.04">
<path d="M46.1261 46.9902C45.8214 46.2548 45.1037 45.7753 44.3078 45.7753H40.3718V43.8076C40.3718 42.7207 39.4904 41.8398 38.404 41.8398H26.5959C25.509 41.8398 24.6281 42.7212 24.6281 43.8076V45.7753H20.6921C19.8962 45.7753 19.1785 46.2548 18.8743 46.9902C18.5696 47.726 18.738 48.5717 19.301 49.1352L31.1091 60.9433C31.4929 61.3271 31.9964 61.5195 32.5003 61.5195C33.0037 61.5195 33.5071 61.3271 33.8919 60.9428L45.7 49.1347C46.2625 48.5717 46.431 47.726 46.1263 46.9902L46.1261 46.9902Z" fill="#356AEF"/>
<path d="M12.5636 2.48061H8.8835C5.63637 2.48061 2.97925 5.13786 2.97925 8.38486V12.065C3.60914 12.2417 4.2585 12.3208 4.9475 12.3208C9.29662 12.3208 12.8196 8.79784 12.8196 4.44872C12.8196 3.75976 12.7405 3.11034 12.5638 2.48047L12.5636 2.48061Z" fill="#55C982"/>
<path d="M4.94749 28.0626C4.25852 28.0626 3.60911 28.1412 2.97974 28.318L2.97925 31.9986C2.97925 35.2457 5.6365 37.9024 8.883 37.9024H12.5631C12.7404 37.273 12.8195 36.6236 12.8195 35.9346C12.8195 31.585 9.29647 28.0625 4.94735 28.0625L4.94749 28.0626Z" fill="#55C982"/>
<path d="M12.5636 2.48061H8.8835C5.63637 2.48061 2.97925 5.13786 2.97925 8.38486V12.065C3.60914 12.2417 4.2585 12.3208 4.9475 12.3208C9.29662 12.3208 12.8196 8.79784 12.8196 4.44872C12.8196 3.75976 12.7405 3.11034 12.5638 2.48047L12.5636 2.48061Z" fill="#55C982"/>
<path d="M56.1162 2.48047H52.436C52.2593 3.11036 52.1802 3.75972 52.1802 4.44872C52.1802 8.79784 55.7032 12.3208 60.0523 12.3208C60.7413 12.3208 61.3907 12.2422 62.0201 12.0655L62.0205 8.38484C62.0205 5.13772 59.3633 2.48059 56.1163 2.48059L56.1162 2.48047Z" fill="#55C982"/>
<path d="M60.0513 28.0625C55.7022 28.0625 52.1792 31.5855 52.1792 35.9346C52.1792 36.6236 52.2578 37.273 52.4346 37.9024H56.1152C59.3623 37.9024 62.019 35.2451 62.019 31.9986V28.3185C61.3901 28.1413 60.7402 28.0626 60.0512 28.0626L60.0513 28.0625Z" fill="#55C982"/>
<path d="M4.94749 28.0626C4.25852 28.0626 3.60911 28.1412 2.97974 28.318L2.97925 31.9986C2.97925 35.2457 5.6365 37.9024 8.883 37.9024H12.5631C12.7404 37.273 12.8195 36.6236 12.8195 35.9346C12.8195 31.585 9.29647 28.0625 4.94735 28.0625L4.94749 28.0626Z" fill="#55C982"/>
<path d="M12.5636 2.48061H8.8835C5.63637 2.48061 2.97925 5.13786 2.97925 8.38486V12.065C3.60914 12.2417 4.2585 12.3208 4.9475 12.3208C9.29662 12.3208 12.8196 8.79784 12.8196 4.44872C12.8196 3.75976 12.7405 3.11034 12.5638 2.48047L12.5636 2.48061Z" fill="#55C982"/>
<path d="M60.0513 28.0625C55.7022 28.0625 52.1792 31.5855 52.1792 35.9346C52.1792 36.6236 52.2578 37.273 52.4346 37.9024H56.1152C59.3623 37.9024 62.019 35.2451 62.019 31.9986V28.3185C61.3901 28.1413 60.7402 28.0626 60.0512 28.0626L60.0513 28.0625Z" fill="#55C982"/>
<path d="M60.0512 16.2568C53.5371 16.2568 48.2431 10.9628 48.2431 4.44871C48.2431 3.77976 48.3017 3.11033 48.4199 2.48096L16.5786 2.48047C16.6968 3.11036 16.7554 3.77984 16.7554 4.44872C16.7554 10.9628 11.4614 16.2568 4.94725 16.2568C4.2783 16.2568 3.60888 16.1982 2.979 16.0801V24.3057C3.60889 24.1875 4.27838 24.1289 4.94725 24.1289C11.4614 24.1289 16.7554 29.4229 16.7554 35.9371C16.7554 36.606 16.6968 37.2754 16.5786 37.9048H48.4199C48.3012 37.2754 48.2426 36.6054 48.2426 35.9371C48.2426 29.4229 53.5366 24.1289 60.0507 24.1289C60.7197 24.1289 61.3891 24.1875 62.0185 24.3057L62.019 16.0801C61.3896 16.1982 60.7196 16.2568 60.0507 16.2568L60.0512 16.2568ZM32.5 29.0493C27.6191 29.0493 23.644 25.0737 23.644 20.1933C23.644 15.3125 27.6196 11.3373 32.5 11.3373C37.3809 11.3373 41.356 15.313 41.356 20.1933C41.356 25.0737 37.3804 29.0493 32.5 29.0493Z" fill="#55C982"/>
<path d="M60.0513 28.0625C55.7022 28.0625 52.1792 31.5855 52.1792 35.9346C52.1792 36.6236 52.2578 37.273 52.4346 37.9024H56.1152C59.3623 37.9024 62.019 35.2451 62.019 31.9986V28.3185C61.3901 28.1413 60.7402 28.0626 60.0512 28.0626L60.0513 28.0625Z" fill="#55C982"/>
<path d="M4.94749 28.0626C4.25852 28.0626 3.60911 28.1412 2.97974 28.318L2.97925 31.9986C2.97925 35.2457 5.6365 37.9024 8.883 37.9024H12.5631C12.7404 37.273 12.8195 36.6236 12.8195 35.9346C12.8195 31.585 9.29647 28.0625 4.94735 28.0625L4.94749 28.0626Z" fill="#55C982"/>
<path d="M60.0513 28.0625C55.7022 28.0625 52.1792 31.5855 52.1792 35.9346C52.1792 36.6236 52.2578 37.273 52.4346 37.9024H56.1152C59.3623 37.9024 62.019 35.2451 62.019 31.9986V28.3185C61.3901 28.1413 60.7402 28.0626 60.0512 28.0626L60.0513 28.0625Z" fill="#55C982"/>
<path d="M12.5636 2.48061H8.8835C5.63637 2.48061 2.97925 5.13786 2.97925 8.38486V12.065C3.60914 12.2417 4.2585 12.3208 4.9475 12.3208C9.29662 12.3208 12.8196 8.79784 12.8196 4.44872C12.8196 3.75976 12.7405 3.11034 12.5638 2.48047L12.5636 2.48061Z" fill="#55C982"/>
<path d="M4.94749 28.0626C4.25852 28.0626 3.60911 28.1412 2.97974 28.318L2.97925 31.9986C2.97925 35.2457 5.6365 37.9024 8.883 37.9024H12.5631C12.7404 37.273 12.8195 36.6236 12.8195 35.9346C12.8195 31.585 9.29647 28.0625 4.94735 28.0625L4.94749 28.0626Z" fill="#55C982"/>
<path d="M12.5636 2.48061H8.8835C5.63637 2.48061 2.97925 5.13786 2.97925 8.38486V12.065C3.60914 12.2417 4.2585 12.3208 4.9475 12.3208C9.29662 12.3208 12.8196 8.79784 12.8196 4.44872C12.8196 3.75976 12.7405 3.11034 12.5638 2.48047L12.5636 2.48061Z" fill="#55C982"/>
<path d="M4.94749 28.0626C4.25852 28.0626 3.60911 28.1412 2.97974 28.318L2.97925 31.9986C2.97925 35.2457 5.6365 37.9024 8.883 37.9024H12.5631C12.7404 37.273 12.8195 36.6236 12.8195 35.9346C12.8195 31.585 9.29647 28.0625 4.94735 28.0625L4.94749 28.0626Z" fill="#55C982"/>
</svg>