<svg xmlns="http://www.w3.org/2000/svg" fill="none" viewBox="2.98 2.48 59.04 59.04">
<path d="M60.6424 28.4561C59.7576 27.5723 58.5574 27.0767 57.3069 27.0782C56.0647 27.0714 54.8714 27.5601 53.9905 28.4361L46.9847 34.9307C47.8059 36.086 48.2464 37.4688 48.2439 38.8863C48.242 40.7125 47.5159 42.4635 46.2244 43.755C44.9334 45.046 43.1824 45.7726 41.3563 45.7745H31.5159C30.9724 45.7745 30.532 45.334 30.532 44.7906C30.532 44.2471 30.9724 43.8062 31.5159 43.8062H41.3563C43.114 43.8062 44.7382 42.8687 45.617 41.3462C46.4959 39.8242 46.4959 37.9487 45.617 36.4263C44.7381 34.9043 43.1142 33.9663 41.3563 33.9663H21.8138C18.9413 33.957 16.1839 35.0982 14.1585 37.1348L11.826 39.4668C11.871 39.5039 11.9139 39.543 11.954 39.585L24.914 52.545C24.9559 52.585 24.995 52.628 25.0321 52.6729L25.16 52.545C25.7128 51.9908 26.4633 51.6793 27.246 51.6788H43.2173C46.6875 51.6758 49.9468 50.0113 51.9844 47.2018L61.0963 34.6068C61.7682 33.6966 62.0919 32.576 62.0089 31.448C61.9259 30.3196 61.4415 29.2585 60.6436 28.4568L60.6424 28.4561Z" fill="#F9C4A6"/>
<path d="M23.5249 53.9348C24.0786 54.4885 24.3897 55.2391 24.3897 56.0222C24.3897 56.8049 24.0786 57.556 23.5249 58.1096L20.4038 61.2302C20.2192 61.4148 19.9692 61.5188 19.708 61.5188C19.4472 61.5188 19.1968 61.4148 19.0127 61.2302L3.26892 45.4865C2.88464 45.1027 2.88464 44.4796 3.26892 44.0953L6.39004 40.9742C6.94327 40.4205 7.69429 40.1099 8.47692 40.1099C9.26012 40.1099 10.011 40.4205 10.5643 40.9742L23.5249 53.9348Z" fill="#F9C4A6"/>
<path d="M30.5322 31.9986C30.5322 31.4551 30.9726 31.0142 31.516 31.0142C32.0595 31.0142 32.5004 31.4551 32.5004 31.9986H36.4364C36.4345 31.4771 36.2269 30.9771 35.8583 30.6085C35.4892 30.2398 34.9896 30.0318 34.4682 30.0303C33.1805 30.0328 31.9735 29.4044 31.2377 28.3477C30.5013 27.2911 30.3295 25.9415 30.7777 24.7345C31.2259 23.5269 32.2372 22.6163 33.4842 22.296V21.1744C33.4842 20.6309 33.9246 20.1905 34.4681 20.1905C35.0116 20.1905 35.452 20.6309 35.452 21.1744V22.296C36.2948 22.5137 37.0419 23.0045 37.576 23.692C38.1102 24.379 38.4012 25.2242 38.4041 26.0943C38.4041 26.6378 37.9637 27.0782 37.4202 27.0782C36.8768 27.0782 36.4363 26.6378 36.4363 26.0943C36.4363 25.5724 36.2288 25.0719 35.8597 24.7027C35.4905 24.3336 34.99 24.1265 34.468 24.1265C33.9461 24.1265 33.4456 24.3336 33.0764 24.7027C32.7073 25.0718 32.5002 25.5723 32.5002 26.0943C32.5002 26.6163 32.7073 27.1168 33.0764 27.486C33.4456 27.8551 33.946 28.0626 34.468 28.0626C35.512 28.0621 36.5134 28.4767 37.2518 29.215C37.9902 29.9533 38.4046 30.9547 38.4041 31.9987H41.3563C42.9114 31.9977 44.4208 32.5251 45.6365 33.4943L49.72 29.7156V29.7058C48.3524 23.9002 44.5144 19.5311 42.0745 17.2386H26.862C24.0676 19.8661 19.423 25.2288 18.7931 32.3523C19.7829 32.115 20.7965 31.9959 21.8141 31.9983L30.5322 31.9986Z" fill="#397C38"/>
<path fill-rule="evenodd" clip-rule="evenodd" d="M26.5962 15.2711H42.3399C42.8834 15.2711 43.3238 14.8302 43.3238 14.2867C43.3238 13.7432 42.8834 13.3028 42.3399 13.3028H26.5962C26.0527 13.3028 25.6123 13.7432 25.6123 14.2867C25.6123 14.8302 26.0527 15.2711 26.5962 15.2711Z" fill="#397C38"/>
<path d="M41.7202 11.3348C42.7739 9.91196 43.3369 8.18496 43.3242 6.41446C43.3242 3.30508 41.3954 2.47846 40.372 2.47846C39.6411 2.46235 38.9268 2.69477 38.3451 3.13812C37.8046 3.57073 37.036 3.57073 36.495 3.13812C35.914 2.69476 35.1991 2.46235 34.4681 2.47846C33.7299 2.47455 33.0086 2.69818 32.4018 3.11811C32.1054 3.34516 31.7416 3.46626 31.3686 3.46283C31.0717 3.48432 30.7792 3.38129 30.5619 3.17718C30.0077 2.7016 29.2943 2.45208 28.5644 2.47846C27.541 2.47846 25.6123 3.30512 25.6123 6.41446C25.5996 8.18496 26.1626 9.91196 27.2163 11.3348H41.7202Z" fill="#397C38"/>
</svg>