<svg xmlns="http://www.w3.org/2000/svg" xmlns:xlink="http://www.w3.org/1999/xlink" zoomAndPan="magnify" preserveAspectRatio="xMidYMid meet" version="1.2" viewBox="0 0 89.74 89.74"><defs><clipPath id="161f241499"><path d="M 0 0 L 89.738281 0 L 89.738281 89.738281 L 0 89.738281 Z M 0 0 "/></clipPath><clipPath id="220d13d85d"><path d="M 18 0 L 71.738281 0 C 81.679688 0 89.738281 8.058594 89.738281 18 L 89.738281 71.738281 C 89.738281 81.679688 81.679688 89.738281 71.738281 89.738281 L 18 89.738281 C 8.058594 89.738281 0 81.679688 0 71.738281 L 0 18 C 0 8.058594 8.058594 0 18 0 Z M 18 0 "/></clipPath><linearGradient x1="128" gradientTransform="matrix(0.350543,0,0,0.350543,0.0000005,0.000002)" y1="0.000000000000243238" x2="128" gradientUnits="userSpaceOnUse" y2="255.999992" id="ea3b5a55da"><stop style="stop-color:#000000;stop-opacity:1;" offset="0"/><stop style="stop-color:#010100;stop-opacity:1;" offset="0.00390625"/><stop style="stop-color:#020200;stop-opacity:1;" offset="0.0078125"/><stop style="stop-color:#030200;stop-opacity:1;" offset="0.0117188"/><stop style="stop-color:#040300;stop-opacity:1;" offset="0.015625"/><stop style="stop-color:#050400;stop-opacity:1;" offset="0.0195312"/><stop style="stop-color:#060500;stop-opacity:1;" offset="0.0234375"/><stop style="stop-color:#070600;stop-opacity:1;" offset="0.0273438"/><stop style="stop-color:#080600;stop-opacity:1;" offset="0.03125"/><stop style="stop-color:#090700;stop-opacity:1;" offset="0.0351562"/><stop style="stop-color:#0a0800;stop-opacity:1;" offset="0.0390625"/><stop style="stop-color:#0b0900;stop-opacity:1;" offset="0.0429688"/><stop style="stop-color:#0c0a00;stop-opacity:1;" offset="0.046875"/><stop style="stop-color:#0d0a00;stop-opacity:1;" offset="0.0507812"/><stop style="stop-color:#0e0b00;stop-opacity:1;" offset="0.0546875"/><stop style="stop-color:#0f0c00;stop-opacity:1;" offset="0.0585938"/><stop style="stop-color:#100d00;stop-opacity:1;" offset="0.0625"/><stop style="stop-color:#110e00;stop-opacity:1;" offset="0.0664063"/><stop style="stop-color:#120e00;stop-opacity:1;" offset="0.0703125"/><stop style="stop-color:#130f00;stop-opacity:1;" offset="0.0742188"/><stop style="stop-color:#141000;stop-opacity:1;" offset="0.078125"/><stop style="stop-color:#151100;stop-opacity:1;" offset="0.0820313"/><stop style="stop-color:#161200;stop-opacity:1;" offset="0.0859375"/><stop style="stop-color:#171200;stop-opacity:1;" offset="0.0898438"/><stop style="stop-color:#181300;stop-opacity:1;" offset="0.09375"/><stop style="stop-color:#191400;stop-opacity:1;" offset="0.0976563"/><stop style="stop-color:#191500;stop-opacity:1;" offset="0.101563"/><stop style="stop-color:#1a1600;stop-opacity:1;" offset="0.105469"/><stop style="stop-color:#1b1600;stop-opacity:1;" offset="0.109375"/><stop style="stop-color:#1c1700;stop-opacity:1;" offset="0.113281"/><stop style="stop-color:#1d1800;stop-opacity:1;" offset="0.117188"/><stop style="stop-color:#1e1900;stop-opacity:1;" offset="0.121094"/><stop style="stop-color:#1f1901;stop-opacity:1;" offset="0.125"/><stop style="stop-color:#201a01;stop-opacity:1;" offset="0.128906"/><stop style="stop-color:#211b01;stop-opacity:1;" offset="0.132813"/><stop style="stop-color:#221c01;stop-opacity:1;" offset="0.136719"/><stop style="stop-color:#231d01;stop-opacity:1;" offset="0.140625"/><stop style="stop-color:#241d01;stop-opacity:1;" offset="0.144531"/><stop style="stop-color:#251e01;stop-opacity:1;" offset="0.148438"/><stop style="stop-color:#261f01;stop-opacity:1;" offset="0.152344"/><stop style="stop-color:#272001;stop-opacity:1;" offset="0.15625"/><stop style="stop-color:#282101;stop-opacity:1;" offset="0.160156"/><stop style="stop-color:#292101;stop-opacity:1;" offset="0.164063"/><stop style="stop-color:#2a2201;stop-opacity:1;" offset="0.167969"/><stop style="stop-color:#2b2301;stop-opacity:1;" offset="0.171875"/><stop style="stop-color:#2c2401;stop-opacity:1;" offset="0.175781"/><stop style="stop-color:#2d2501;stop-opacity:1;" offset="0.179688"/><stop style="stop-color:#2e2501;stop-opacity:1;" offset="0.183594"/><stop style="stop-color:#2f2601;stop-opacity:1;" offset="0.1875"/><stop style="stop-color:#302701;stop-opacity:1;" offset="0.191406"/><stop style="stop-color:#312801;stop-opacity:1;" offset="0.195313"/><stop style="stop-color:#322901;stop-opacity:1;" offset="0.199219"/><stop style="stop-color:#332901;stop-opacity:1;" offset="0.203125"/><stop style="stop-color:#342a01;stop-opacity:1;" offset="0.207031"/><stop style="stop-color:#352b01;stop-opacity:1;" offset="0.210938"/><stop style="stop-color:#362c01;stop-opacity:1;" offset="0.214844"/><stop style="stop-color:#372d01;stop-opacity:1;" offset="0.21875"/><stop style="stop-color:#382d01;stop-opacity:1;" offset="0.222656"/><stop style="stop-color:#392e01;stop-opacity:1;" offset="0.226563"/><stop style="stop-color:#3a2f01;stop-opacity:1;" offset="0.230469"/><stop style="stop-color:#3b3001;stop-opacity:1;" offset="0.234375"/><stop style="stop-color:#3c3101;stop-opacity:1;" offset="0.238281"/><stop style="stop-color:#3d3101;stop-opacity:1;" offset="0.242188"/><stop style="stop-color:#3e3201;stop-opacity:1;" offset="0.246094"/><stop style="stop-color:#3f3301;stop-opacity:1;" offset="0.25"/><stop style="stop-color:#403401;stop-opacity:1;" offset="0.253906"/><stop style="stop-color:#413501;stop-opacity:1;" offset="0.257812"/><stop style="stop-color:#423501;stop-opacity:1;" offset="0.261719"/><stop style="stop-color:#433601;stop-opacity:1;" offset="0.265625"/><stop style="stop-color:#443701;stop-opacity:1;" offset="0.269531"/><stop style="stop-color:#453801;stop-opacity:1;" offset="0.273438"/><stop style="stop-color:#463901;stop-opacity:1;" offset="0.277344"/><stop style="stop-color:#473901;stop-opacity:1;" offset="0.28125"/><stop style="stop-color:#483a01;stop-opacity:1;" offset="0.285156"/><stop style="stop-color:#493b01;stop-opacity:1;" offset="0.289062"/><stop style="stop-color:#4a3c01;stop-opacity:1;" offset="0.292969"/><stop style="stop-color:#4a3d01;stop-opacity:1;" offset="0.296875"/><stop style="stop-color:#4b3d01;stop-opacity:1;" offset="0.300781"/><stop style="stop-color:#4c3e01;stop-opacity:1;" offset="0.304688"/><stop style="stop-color:#4d3f01;stop-opacity:1;" offset="0.308594"/><stop style="stop-color:#4e4001;stop-opacity:1;" offset="0.3125"/><stop style="stop-color:#4f4101;stop-opacity:1;" offset="0.316406"/><stop style="stop-color:#504101;stop-opacity:1;" offset="0.320312"/><stop style="stop-color:#514201;stop-opacity:1;" offset="0.324219"/><stop style="stop-color:#524301;stop-opacity:1;" offset="0.328125"/><stop style="stop-color:#534401;stop-opacity:1;" offset="0.332031"/><stop style="stop-color:#544501;stop-opacity:1;" offset="0.335938"/><stop style="stop-color:#554501;stop-opacity:1;" offset="0.339844"/><stop style="stop-color:#564601;stop-opacity:1;" offset="0.34375"/><stop style="stop-color:#574701;stop-opacity:1;" offset="0.347656"/><stop style="stop-color:#584801;stop-opacity:1;" offset="0.351562"/><stop style="stop-color:#594901;stop-opacity:1;" offset="0.355469"/><stop style="stop-color:#5a4901;stop-opacity:1;" offset="0.359375"/><stop style="stop-color:#5b4a01;stop-opacity:1;" offset="0.363281"/><stop style="stop-color:#5c4b01;stop-opacity:1;" offset="0.367188"/><stop style="stop-color:#5d4c02;stop-opacity:1;" offset="0.371094"/><stop style="stop-color:#5e4c02;stop-opacity:1;" offset="0.375"/><stop style="stop-color:#5f4d02;stop-opacity:1;" offset="0.378906"/><stop style="stop-color:#604e02;stop-opacity:1;" offset="0.382812"/><stop style="stop-color:#614f02;stop-opacity:1;" offset="0.386719"/><stop style="stop-color:#625002;stop-opacity:1;" offset="0.390625"/><stop style="stop-color:#635002;stop-opacity:1;" offset="0.394531"/><stop style="stop-color:#645102;stop-opacity:1;" offset="0.398438"/><stop style="stop-color:#655202;stop-opacity:1;" offset="0.402344"/><stop style="stop-color:#665302;stop-opacity:1;" offset="0.40625"/><stop style="stop-color:#675402;stop-opacity:1;" offset="0.410156"/><stop style="stop-color:#685402;stop-opacity:1;" offset="0.414062"/><stop style="stop-color:#695502;stop-opacity:1;" offset="0.417969"/><stop style="stop-color:#6a5602;stop-opacity:1;" offset="0.421875"/><stop style="stop-color:#6b5702;stop-opacity:1;" offset="0.425781"/><stop style="stop-color:#6c5802;stop-opacity:1;" offset="0.429688"/><stop style="stop-color:#6d5802;stop-opacity:1;" offset="0.433594"/><stop style="stop-color:#6e5902;stop-opacity:1;" offset="0.4375"/><stop style="stop-color:#6f5a02;stop-opacity:1;" offset="0.441406"/><stop style="stop-color:#705b02;stop-opacity:1;" offset="0.445312"/><stop style="stop-color:#715c02;stop-opacity:1;" offset="0.449219"/><stop style="stop-color:#725c02;stop-opacity:1;" offset="0.453125"/><stop style="stop-color:#735d02;stop-opacity:1;" offset="0.457031"/><stop style="stop-color:#745e02;stop-opacity:1;" offset="0.460938"/><stop style="stop-color:#755f02;stop-opacity:1;" offset="0.464844"/><stop style="stop-color:#766002;stop-opacity:1;" offset="0.46875"/><stop style="stop-color:#776002;stop-opacity:1;" offset="0.472656"/><stop style="stop-color:#786102;stop-opacity:1;" offset="0.476562"/><stop style="stop-color:#796202;stop-opacity:1;" offset="0.480469"/><stop style="stop-color:#7a6302;stop-opacity:1;" offset="0.484375"/><stop style="stop-color:#7b6402;stop-opacity:1;" offset="0.488281"/><stop style="stop-color:#7b6402;stop-opacity:1;" offset="0.492188"/><stop style="stop-color:#7c6502;stop-opacity:1;" offset="0.496094"/><stop style="stop-color:#7d6602;stop-opacity:1;" offset="0.5"/><stop style="stop-color:#7e6702;stop-opacity:1;" offset="0.503906"/><stop style="stop-color:#7f6802;stop-opacity:1;" offset="0.507812"/><stop style="stop-color:#806802;stop-opacity:1;" offset="0.511719"/><stop style="stop-color:#816902;stop-opacity:1;" offset="0.515625"/><stop style="stop-color:#826a02;stop-opacity:1;" offset="0.519531"/><stop style="stop-color:#836b02;stop-opacity:1;" offset="0.523437"/><stop style="stop-color:#846c02;stop-opacity:1;" offset="0.527344"/><stop style="stop-color:#856c02;stop-opacity:1;" offset="0.53125"/><stop style="stop-color:#866d02;stop-opacity:1;" offset="0.535156"/><stop style="stop-color:#876e02;stop-opacity:1;" offset="0.539062"/><stop style="stop-color:#886f02;stop-opacity:1;" offset="0.542969"/><stop style="stop-color:#897002;stop-opacity:1;" offset="0.546875"/><stop style="stop-color:#8a7002;stop-opacity:1;" offset="0.550781"/><stop style="stop-color:#8b7102;stop-opacity:1;" offset="0.554687"/><stop style="stop-color:#8c7202;stop-opacity:1;" offset="0.558594"/><stop style="stop-color:#8d7302;stop-opacity:1;" offset="0.5625"/><stop style="stop-color:#8e7402;stop-opacity:1;" offset="0.566406"/><stop style="stop-color:#8f7402;stop-opacity:1;" offset="0.570312"/><stop style="stop-color:#907502;stop-opacity:1;" offset="0.574219"/><stop style="stop-color:#917602;stop-opacity:1;" offset="0.578125"/><stop style="stop-color:#927702;stop-opacity:1;" offset="0.582031"/><stop style="stop-color:#937802;stop-opacity:1;" offset="0.585937"/><stop style="stop-color:#947802;stop-opacity:1;" offset="0.589844"/><stop style="stop-color:#957902;stop-opacity:1;" offset="0.59375"/><stop style="stop-color:#967a02;stop-opacity:1;" offset="0.597656"/><stop style="stop-color:#977b02;stop-opacity:1;" offset="0.601562"/><stop style="stop-color:#987c02;stop-opacity:1;" offset="0.605469"/><stop style="stop-color:#997c02;stop-opacity:1;" offset="0.609375"/><stop style="stop-color:#9a7d02;stop-opacity:1;" offset="0.613281"/><stop style="stop-color:#9b7e03;stop-opacity:1;" offset="0.617187"/><stop style="stop-color:#9c7f03;stop-opacity:1;" offset="0.621094"/><stop style="stop-color:#9d7f03;stop-opacity:1;" offset="0.625"/><stop style="stop-color:#9e8003;stop-opacity:1;" offset="0.628906"/><stop style="stop-color:#9f8103;stop-opacity:1;" offset="0.632812"/><stop style="stop-color:#a08203;stop-opacity:1;" offset="0.636719"/><stop style="stop-color:#a18303;stop-opacity:1;" offset="0.640625"/><stop style="stop-color:#a28303;stop-opacity:1;" offset="0.644531"/><stop style="stop-color:#a38403;stop-opacity:1;" offset="0.648437"/><stop style="stop-color:#a48503;stop-opacity:1;" offset="0.652344"/><stop style="stop-color:#a58603;stop-opacity:1;" offset="0.65625"/><stop style="stop-color:#a68703;stop-opacity:1;" offset="0.660156"/><stop style="stop-color:#a78703;stop-opacity:1;" offset="0.664062"/><stop style="stop-color:#a88803;stop-opacity:1;" offset="0.667969"/><stop style="stop-color:#a98903;stop-opacity:1;" offset="0.671875"/><stop style="stop-color:#aa8a03;stop-opacity:1;" offset="0.675781"/><stop style="stop-color:#ab8b03;stop-opacity:1;" offset="0.679687"/><stop style="stop-color:#ac8b03;stop-opacity:1;" offset="0.683594"/><stop style="stop-color:#ad8c03;stop-opacity:1;" offset="0.6875"/><stop style="stop-color:#ad8d03;stop-opacity:1;" offset="0.691406"/><stop style="stop-color:#ae8e03;stop-opacity:1;" offset="0.695312"/><stop style="stop-color:#af8f03;stop-opacity:1;" offset="0.699219"/><stop style="stop-color:#b08f03;stop-opacity:1;" offset="0.703125"/><stop style="stop-color:#b19003;stop-opacity:1;" offset="0.707031"/><stop style="stop-color:#b29103;stop-opacity:1;" offset="0.710937"/><stop style="stop-color:#b39203;stop-opacity:1;" offset="0.714844"/><stop style="stop-color:#b49303;stop-opacity:1;" offset="0.71875"/><stop style="stop-color:#b59303;stop-opacity:1;" offset="0.722656"/><stop style="stop-color:#b69403;stop-opacity:1;" offset="0.726562"/><stop style="stop-color:#b79503;stop-opacity:1;" offset="0.730469"/><stop style="stop-color:#b89603;stop-opacity:1;" offset="0.734375"/><stop style="stop-color:#b99703;stop-opacity:1;" offset="0.738281"/><stop style="stop-color:#ba9703;stop-opacity:1;" offset="0.742187"/><stop style="stop-color:#bb9803;stop-opacity:1;" offset="0.746094"/><stop style="stop-color:#bc9903;stop-opacity:1;" offset="0.75"/><stop style="stop-color:#bd9a03;stop-opacity:1;" offset="0.753906"/><stop style="stop-color:#be9b03;stop-opacity:1;" offset="0.757812"/><stop style="stop-color:#bf9b03;stop-opacity:1;" offset="0.761719"/><stop style="stop-color:#c09c03;stop-opacity:1;" offset="0.765625"/><stop style="stop-color:#c19d03;stop-opacity:1;" offset="0.769531"/><stop style="stop-color:#c29e03;stop-opacity:1;" offset="0.773438"/><stop style="stop-color:#c39f03;stop-opacity:1;" offset="0.777344"/><stop style="stop-color:#c49f03;stop-opacity:1;" offset="0.78125"/><stop style="stop-color:#c5a003;stop-opacity:1;" offset="0.785156"/><stop style="stop-color:#c6a103;stop-opacity:1;" offset="0.789062"/><stop style="stop-color:#c7a203;stop-opacity:1;" offset="0.792969"/><stop style="stop-color:#c8a303;stop-opacity:1;" offset="0.796875"/><stop style="stop-color:#c9a303;stop-opacity:1;" offset="0.800781"/><stop style="stop-color:#caa403;stop-opacity:1;" offset="0.804688"/><stop style="stop-color:#cba503;stop-opacity:1;" offset="0.808594"/><stop style="stop-color:#cca603;stop-opacity:1;" offset="0.8125"/><stop style="stop-color:#cda703;stop-opacity:1;" offset="0.816406"/><stop style="stop-color:#cea703;stop-opacity:1;" offset="0.820312"/><stop style="stop-color:#cfa803;stop-opacity:1;" offset="0.824219"/><stop style="stop-color:#d0a903;stop-opacity:1;" offset="0.828125"/><stop style="stop-color:#d1aa03;stop-opacity:1;" offset="0.832031"/><stop style="stop-color:#d2ab03;stop-opacity:1;" offset="0.835938"/><stop style="stop-color:#d3ab03;stop-opacity:1;" offset="0.839844"/><stop style="stop-color:#d4ac03;stop-opacity:1;" offset="0.84375"/><stop style="stop-color:#d5ad03;stop-opacity:1;" offset="0.847656"/><stop style="stop-color:#d6ae03;stop-opacity:1;" offset="0.851562"/><stop style="stop-color:#d7af03;stop-opacity:1;" offset="0.855469"/><stop style="stop-color:#d8af04;stop-opacity:1;" offset="0.859375"/><stop style="stop-color:#d9b004;stop-opacity:1;" offset="0.863281"/><stop style="stop-color:#dab104;stop-opacity:1;" offset="0.867188"/><stop style="stop-color:#dbb204;stop-opacity:1;" offset="0.871094"/><stop style="stop-color:#dcb204;stop-opacity:1;" offset="0.875"/><stop style="stop-color:#ddb304;stop-opacity:1;" offset="0.878906"/><stop style="stop-color:#deb404;stop-opacity:1;" offset="0.882812"/><stop style="stop-color:#deb504;stop-opacity:1;" offset="0.886719"/><stop style="stop-color:#dfb604;stop-opacity:1;" offset="0.890625"/><stop style="stop-color:#e0b604;stop-opacity:1;" offset="0.894531"/><stop style="stop-color:#e1b704;stop-opacity:1;" offset="0.898438"/><stop style="stop-color:#e2b804;stop-opacity:1;" offset="0.902344"/><stop style="stop-color:#e3b904;stop-opacity:1;" offset="0.90625"/><stop style="stop-color:#e4ba04;stop-opacity:1;" offset="0.910156"/><stop style="stop-color:#e5ba04;stop-opacity:1;" offset="0.914062"/><stop style="stop-color:#e6bb04;stop-opacity:1;" offset="0.917969"/><stop style="stop-color:#e7bc04;stop-opacity:1;" offset="0.921875"/><stop style="stop-color:#e8bd04;stop-opacity:1;" offset="0.925781"/><stop style="stop-color:#e9be04;stop-opacity:1;" offset="0.929688"/><stop style="stop-color:#eabe04;stop-opacity:1;" offset="0.933594"/><stop style="stop-color:#ebbf04;stop-opacity:1;" offset="0.9375"/><stop style="stop-color:#ecc004;stop-opacity:1;" offset="0.941406"/><stop style="stop-color:#edc104;stop-opacity:1;" offset="0.945312"/><stop style="stop-color:#eec204;stop-opacity:1;" offset="0.949219"/><stop style="stop-color:#efc204;stop-opacity:1;" offset="0.953125"/><stop style="stop-color:#f0c304;stop-opacity:1;" offset="0.957031"/><stop style="stop-color:#f1c404;stop-opacity:1;" offset="0.960938"/><stop style="stop-color:#f2c504;stop-opacity:1;" offset="0.964844"/><stop style="stop-color:#f3c604;stop-opacity:1;" offset="0.96875"/><stop style="stop-color:#f4c604;stop-opacity:1;" offset="0.972656"/><stop style="stop-color:#f5c704;stop-opacity:1;" offset="0.976562"/><stop style="stop-color:#f6c804;stop-opacity:1;" offset="0.980469"/><stop style="stop-color:#f7c904;stop-opacity:1;" offset="0.984375"/><stop style="stop-color:#f8ca04;stop-opacity:1;" offset="0.988281"/><stop style="stop-color:#f9ca04;stop-opacity:1;" offset="0.992188"/><stop style="stop-color:#facb04;stop-opacity:1;" offset="0.996094"/><stop style="stop-color:#fbcc04;stop-opacity:1;" offset="1"/></linearGradient><clipPath id="9f1b3da078"><path d="M 12 18.003906 L 74 18.003906 L 74 77.253906 L 12 77.253906 Z M 12 18.003906 "/></clipPath></defs><g id="9599bf77c6"><g clip-rule="nonzero" clip-path="url(#161f241499)"><g clip-rule="nonzero" clip-path="url(#220d13d85d)"><path style=" stroke:none;fill-rule:nonzero;fill:url(#linear0);" d="M 0 0 L 0 89.738281 L 89.738281 89.738281 L 89.738281 0 Z M 0 0 "/></g></g><g clip-rule="nonzero" clip-path="url(#9f1b3da078)"><path style=" stroke:none;fill-rule:nonzero;fill:#000;fill-opacity:1;" d="M 60.636719 48.851562 C 57.480469 48.851562 54.917969 51.425781 54.917969 54.582031 C 55.074219 61.625 65.117188 62.363281 66.296875 55.441406 C 66.867188 52.019531 64.105469 48.828125 60.636719 48.851562 Z M 64.996094 55.058594 C 64.269531 60.492188 56.382812 60.085938 56.253906 54.582031 C 56.539062 48.457031 65.390625 48.960938 64.996094 55.058594 Z M 72.195312 57.609375 C 72.875 57.550781 73.410156 56.976562 73.410156 56.296875 L 73.410156 52.84375 C 73.410156 52.164062 72.898438 51.605469 72.21875 51.519531 L 69.976562 51.292969 C 69.859375 50.949219 69.714844 50.601562 69.550781 50.28125 L 70.96875 48.554688 C 71.40625 48.03125 71.371094 47.253906 70.882812 46.765625 L 68.441406 44.335938 C 67.882812 43.765625 67.011719 43.859375 66.476562 44.40625 L 66.476562 25.058594 C 66.476562 21.175781 63.304688 18.003906 59.421875 18.003906 C 59.410156 18.003906 55.429688 18.003906 55.417969 18.003906 C 55.417969 18.003906 16.746094 18.003906 16.746094 18.003906 C 11.277344 18.195312 11.253906 26.082031 16.746094 26.285156 L 19.507812 26.285156 L 19.507812 70.203125 C 19.507812 74.085938 22.679688 77.253906 26.5625 77.253906 L 30.578125 77.253906 C 30.578125 77.253906 69.261719 77.253906 69.261719 77.253906 C 74.742188 77.066406 74.742188 69.164062 69.261719 68.976562 C 69.261719 68.976562 66.476562 68.976562 66.476562 68.976562 L 66.476562 64.746094 C 67.011719 65.292969 67.894531 65.390625 68.441406 64.816406 C 68.441406 64.816406 70.882812 62.375 70.882812 62.375 C 71.359375 61.886719 71.394531 61.113281 70.96875 60.597656 L 69.539062 58.859375 C 69.703125 58.527344 69.847656 58.15625 69.964844 57.835938 Z M 16.757812 24.941406 C 13.0625 24.820312 13.0625 19.472656 16.757812 19.351562 L 52.378906 19.351562 C 50.9375 20.863281 50.9375 23.449219 52.378906 24.941406 Z M 30.589844 75.921875 C 30.589844 75.921875 26.574219 75.921875 26.574219 75.921875 C 23.429688 75.921875 20.867188 73.359375 20.867188 70.214844 L 20.867188 26.285156 L 55.441406 26.285156 C 56.324219 26.285156 56.324219 24.941406 55.441406 24.941406 C 53.894531 24.941406 52.644531 23.664062 52.644531 22.140625 C 52.644531 20.792969 53.609375 19.660156 54.871094 19.398438 C 55.097656 19.304688 59.078125 19.351562 59.433594 19.339844 C 62.578125 19.339844 65.140625 21.902344 65.140625 25.046875 L 65.140625 45.46875 L 64.925781 45.648438 C 64.59375 45.480469 64.246094 45.347656 63.914062 45.230469 L 63.6875 42.976562 C 63.605469 42.3125 63.042969 41.808594 62.363281 41.808594 L 58.921875 41.808594 C 58.253906 41.808594 57.671875 42.3125 57.597656 42.988281 L 57.359375 45.230469 C 57.027344 45.347656 56.683594 45.492188 56.347656 45.648438 L 54.609375 44.230469 C 54.074219 43.789062 53.296875 43.835938 52.832031 44.324219 L 50.378906 46.753906 C 49.914062 47.21875 49.867188 48.007812 50.285156 48.53125 L 51.703125 50.269531 C 51.546875 50.589844 51.402344 50.9375 51.285156 51.28125 L 49.03125 51.507812 C 48.367188 51.59375 47.863281 52.152344 47.863281 52.832031 L 47.863281 56.285156 C 47.863281 56.941406 48.390625 57.539062 49.054688 57.597656 L 51.296875 57.835938 C 51.402344 58.144531 51.558594 58.527344 51.726562 58.859375 L 50.296875 60.625 C 49.878906 61.148438 49.925781 61.921875 50.390625 62.386719 L 52.820312 64.804688 C 53.285156 65.304688 54.074219 65.351562 54.609375 64.914062 L 56.347656 63.496094 C 56.667969 63.648438 57.015625 63.792969 57.359375 63.921875 L 57.597656 66.164062 C 57.671875 66.84375 58.230469 67.355469 58.921875 67.355469 L 62.363281 67.355469 C 63.03125 67.355469 63.605469 66.855469 63.6875 66.164062 L 63.914062 63.921875 C 64.269531 63.792969 64.605469 63.648438 64.925781 63.496094 L 65.140625 63.671875 L 65.140625 69 L 30.589844 69 C 30.207031 69 29.910156 69.308594 29.921875 69.679688 C 29.921875 70.046875 30.21875 70.34375 30.589844 70.34375 C 31.328125 70.34375 31.996094 70.644531 32.496094 71.109375 C 34.34375 72.726562 33.078125 75.96875 30.589844 75.921875 Z M 69.261719 70.332031 C 72.957031 70.453125 72.957031 75.800781 69.261719 75.921875 C 69.261719 75.921875 33.640625 75.921875 33.640625 75.921875 C 35.082031 74.421875 35.070312 71.800781 33.640625 70.332031 C 35.273438 70.332031 68.824219 70.332031 69.261719 70.332031 Z M 68.238281 59.382812 C 68.238281 59.382812 69.941406 61.433594 69.941406 61.433594 L 67.535156 63.863281 L 65.425781 62.171875 C 65.210938 62.003906 64.914062 61.96875 64.6875 62.101562 C 64.210938 62.363281 63.675781 62.589844 63.078125 62.78125 C 62.828125 62.863281 62.640625 63.089844 62.613281 63.351562 L 62.363281 65.996094 L 58.945312 66.019531 L 58.671875 63.351562 C 58.648438 63.089844 58.457031 62.863281 58.207031 62.78125 C 57.636719 62.601562 57.085938 62.375 56.597656 62.101562 C 56.359375 61.980469 56.0625 62.003906 55.859375 62.171875 L 53.808594 63.863281 C 53.476562 63.53125 51.664062 61.730469 51.367188 61.457031 L 53.070312 59.382812 C 53.429688 58.980469 53.058594 58.503906 52.894531 58.121094 C 52.535156 57.539062 52.65625 56.679688 51.914062 56.546875 C 51.914062 56.546875 49.257812 56.296875 49.257812 56.296875 L 49.234375 52.855469 L 51.914062 52.582031 C 52.191406 52.558594 52.417969 52.367188 52.488281 52.105469 C 52.65625 51.53125 52.882812 50.996094 53.144531 50.507812 C 53.273438 50.269531 53.25 49.972656 53.070312 49.757812 L 51.367188 47.695312 L 53.785156 45.265625 L 55.871094 46.957031 C 56.085938 47.125 56.371094 47.160156 56.609375 47.027344 C 57.144531 46.742188 57.683594 46.527344 58.207031 46.375 C 58.46875 46.300781 58.660156 46.074219 58.695312 45.800781 L 58.957031 43.144531 L 62.375 43.121094 L 62.652344 45.800781 C 62.675781 46.074219 62.867188 46.300781 63.140625 46.386719 C 63.675781 46.539062 64.210938 46.753906 64.722656 47.039062 C 65.273438 47.386719 65.867188 46.589844 66.273438 46.324219 C 66.285156 46.300781 67.523438 45.300781 67.535156 45.289062 L 69.964844 47.695312 L 68.238281 49.78125 C 68.070312 49.996094 68.035156 50.28125 68.167969 50.53125 C 68.441406 51.03125 68.667969 51.566406 68.835938 52.128906 C 68.917969 52.390625 69.144531 52.570312 69.40625 52.605469 L 72.0625 52.878906 L 72.074219 56.285156 L 69.40625 56.558594 C 68.679688 56.679688 68.75 57.5625 68.429688 58.097656 C 68.25 58.492188 67.882812 58.980469 68.238281 59.382812 Z M 24.523438 45.109375 L 41.96875 45.109375 C 42.335938 45.109375 42.632812 44.8125 42.632812 44.445312 L 42.632812 39.464844 C 42.632812 39.09375 42.335938 38.796875 41.96875 38.796875 L 24.523438 38.796875 C 24.15625 38.796875 23.859375 39.09375 23.859375 39.464844 L 23.859375 44.445312 C 23.859375 44.800781 24.15625 45.109375 24.523438 45.109375 Z M 25.203125 40.128906 L 41.300781 40.128906 L 41.300781 43.765625 L 25.203125 43.765625 Z M 24.523438 49.4375 C 24.523438 49.4375 34.210938 49.4375 34.210938 49.4375 C 35.09375 49.4375 35.09375 50.78125 34.210938 50.78125 C 34.210938 50.78125 24.523438 50.78125 24.523438 50.78125 C 23.644531 50.769531 23.65625 49.4375 24.523438 49.4375 Z M 42.859375 55.535156 C 42.859375 55.535156 24.535156 55.535156 24.535156 55.535156 C 23.65625 55.535156 23.667969 54.191406 24.535156 54.191406 L 42.859375 54.191406 C 43.742188 54.203125 43.730469 55.535156 42.859375 55.535156 Z M 42.859375 58.957031 C 43.742188 58.957031 43.730469 60.300781 42.859375 60.300781 C 42.859375 60.300781 24.535156 60.300781 24.535156 60.300781 C 23.65625 60.300781 23.667969 58.957031 24.535156 58.957031 Z M 42.859375 65.066406 C 42.859375 65.066406 24.535156 65.066406 24.535156 65.066406 C 23.65625 65.066406 23.667969 63.722656 24.535156 63.722656 L 42.859375 63.722656 C 43.742188 63.722656 43.730469 65.054688 42.859375 65.066406 Z M 35.9375 35.089844 L 39.203125 35.089844 C 39.574219 35.089844 39.871094 34.792969 39.871094 34.421875 L 39.871094 29.144531 C 39.871094 28.777344 39.574219 28.476562 39.203125 28.476562 L 35.9375 28.476562 C 35.570312 28.476562 35.273438 28.777344 35.273438 29.144531 L 35.273438 34.421875 C 35.257812 34.792969 35.570312 35.089844 35.9375 35.089844 Z M 36.605469 29.8125 L 38.523438 29.8125 L 38.523438 33.746094 L 36.605469 33.746094 Z M 52.320312 34.421875 L 52.320312 29.144531 C 52.320312 28.777344 52.617188 28.476562 52.988281 28.476562 C 52.988281 28.476562 56.253906 28.476562 56.253906 28.476562 C 57.132812 28.476562 57.132812 29.824219 56.253906 29.824219 L 53.65625 29.824219 L 53.65625 33.757812 C 53.65625 33.757812 56.253906 33.757812 56.253906 33.757812 C 57.132812 33.757812 57.132812 35.089844 56.253906 35.101562 L 52.988281 35.101562 C 52.617188 35.089844 52.320312 34.792969 52.320312 34.421875 Z M 40.953125 34.421875 C 40.953125 34.421875 40.953125 33.21875 40.953125 33.21875 C 40.953125 32.339844 42.300781 32.339844 42.300781 33.21875 L 42.300781 33.757812 L 44.21875 33.757812 L 44.21875 29.144531 C 44.21875 28.265625 45.566406 28.265625 45.566406 29.144531 C 45.566406 29.144531 45.566406 34.421875 45.566406 34.421875 C 45.566406 34.792969 45.269531 35.089844 44.898438 35.089844 L 41.632812 35.089844 C 41.253906 35.089844 40.953125 34.792969 40.953125 34.421875 Z M 46.636719 34.421875 L 46.636719 29.144531 C 46.636719 28.777344 46.9375 28.476562 47.304688 28.476562 C 47.304688 28.476562 50.570312 28.476562 50.570312 28.476562 C 51.453125 28.476562 51.453125 29.824219 50.570312 29.824219 L 47.972656 29.824219 L 47.972656 31.125 L 50.570312 31.125 C 50.9375 31.125 51.238281 31.421875 51.238281 31.789062 C 51.238281 32.160156 50.9375 32.457031 50.570312 32.457031 L 47.972656 32.457031 L 47.972656 33.757812 C 47.972656 33.757812 50.570312 33.757812 50.570312 33.757812 C 51.453125 33.757812 51.453125 35.089844 50.570312 35.101562 L 47.316406 35.101562 C 46.949219 35.089844 46.636719 34.792969 46.636719 34.421875 Z M 58.492188 28.464844 C 58.492188 28.464844 61.757812 28.464844 61.757812 28.464844 C 62.640625 28.464844 62.640625 29.8125 61.757812 29.8125 L 60.792969 29.8125 L 60.792969 34.421875 C 60.792969 34.792969 60.496094 35.089844 60.125 35.089844 C 59.753906 35.089844 59.457031 34.792969 59.457031 34.421875 L 59.457031 29.8125 L 58.492188 29.8125 C 57.609375 29.8125 57.609375 28.476562 58.492188 28.464844 Z M 24.917969 34.421875 L 24.917969 32.457031 L 27.515625 32.457031 C 27.886719 32.457031 28.183594 32.160156 28.183594 31.789062 L 28.183594 29.144531 C 28.183594 28.777344 27.886719 28.476562 27.515625 28.476562 L 24.25 28.476562 C 23.882812 28.476562 23.582031 28.777344 23.582031 29.144531 L 23.582031 34.421875 C 23.582031 35.292969 24.917969 35.304688 24.917969 34.421875 Z M 24.917969 29.8125 L 26.835938 29.8125 L 26.835938 31.113281 L 24.917969 31.113281 Z M 30.242188 35.089844 C 30.613281 35.089844 30.910156 34.792969 30.910156 34.421875 L 30.910156 33.089844 L 33.066406 34.9375 C 33.199219 35.042969 33.351562 35.101562 33.507812 35.101562 C 34.105469 35.125 34.425781 34.304688 33.949219 33.921875 C 33.949219 33.921875 32.246094 32.46875 32.246094 32.46875 L 33.507812 32.46875 C 33.878906 32.46875 34.175781 32.171875 34.175781 31.800781 L 34.175781 29.15625 C 34.175781 28.789062 33.878906 28.492188 33.507812 28.492188 L 30.242188 28.492188 C 29.875 28.492188 29.578125 28.789062 29.578125 29.15625 L 29.578125 34.433594 C 29.578125 34.792969 29.875 35.089844 30.242188 35.089844 Z M 30.921875 29.8125 L 32.839844 29.8125 L 32.839844 31.113281 L 30.921875 31.113281 Z M 30.921875 29.8125 "/></g></g></svg>