<svg xmlns="http://www.w3.org/2000/svg" xmlns:xlink="http://www.w3.org/1999/xlink" zoomAndPan="magnify" preserveAspectRatio="xMidYMid meet" version="1.2" viewBox="0 0 89.74 89.74"><defs><clipPath id="18669c0641"><path d="M 0 0 L 89.738281 0 L 89.738281 89.738281 L 0 89.738281 Z M 0 0 "/></clipPath><clipPath id="820603c78a"><path d="M 18 0 L 71.738281 0 C 81.679688 0 89.738281 8.058594 89.738281 18 L 89.738281 71.738281 C 89.738281 81.679688 81.679688 89.738281 71.738281 89.738281 L 18 89.738281 C 8.058594 89.738281 0 81.679688 0 71.738281 L 0 18 C 0 8.058594 8.058594 0 18 0 Z M 18 0 "/></clipPath><linearGradient x1="128" gradientTransform="matrix(0.350543,0,0,0.350543,0.0000005,0.000002)" y1="0.000000000000121619" x2="128" gradientUnits="userSpaceOnUse" y2="255.999992" id="af8aa332bc"><stop style="stop-color:#000000;stop-opacity:1;" offset="0"/><stop style="stop-color:#010100;stop-opacity:1;" offset="0.00390625"/><stop style="stop-color:#020200;stop-opacity:1;" offset="0.0078125"/><stop style="stop-color:#030200;stop-opacity:1;" offset="0.0117187"/><stop style="stop-color:#040300;stop-opacity:1;" offset="0.015625"/><stop style="stop-color:#050400;stop-opacity:1;" offset="0.0195312"/><stop style="stop-color:#060500;stop-opacity:1;" offset="0.0234375"/><stop style="stop-color:#070600;stop-opacity:1;" offset="0.0273437"/><stop style="stop-color:#080600;stop-opacity:1;" offset="0.03125"/><stop style="stop-color:#090700;stop-opacity:1;" offset="0.0351562"/><stop style="stop-color:#0a0800;stop-opacity:1;" offset="0.0390625"/><stop style="stop-color:#0b0900;stop-opacity:1;" offset="0.0429687"/><stop style="stop-color:#0c0a00;stop-opacity:1;" offset="0.046875"/><stop style="stop-color:#0d0a00;stop-opacity:1;" offset="0.0507813"/><stop style="stop-color:#0e0b00;stop-opacity:1;" offset="0.0546875"/><stop style="stop-color:#0f0c00;stop-opacity:1;" offset="0.0585938"/><stop style="stop-color:#100d00;stop-opacity:1;" offset="0.0625"/><stop style="stop-color:#110e00;stop-opacity:1;" offset="0.0664062"/><stop style="stop-color:#120e00;stop-opacity:1;" offset="0.0703125"/><stop style="stop-color:#130f00;stop-opacity:1;" offset="0.0742188"/><stop style="stop-color:#141000;stop-opacity:1;" offset="0.078125"/><stop style="stop-color:#151100;stop-opacity:1;" offset="0.0820312"/><stop style="stop-color:#161200;stop-opacity:1;" offset="0.0859375"/><stop style="stop-color:#171200;stop-opacity:1;" offset="0.0898438"/><stop style="stop-color:#181300;stop-opacity:1;" offset="0.09375"/><stop style="stop-color:#191400;stop-opacity:1;" offset="0.0976562"/><stop style="stop-color:#191500;stop-opacity:1;" offset="0.101563"/><stop style="stop-color:#1a1600;stop-opacity:1;" offset="0.105469"/><stop style="stop-color:#1b1600;stop-opacity:1;" offset="0.109375"/><stop style="stop-color:#1c1700;stop-opacity:1;" offset="0.113281"/><stop style="stop-color:#1d1800;stop-opacity:1;" offset="0.117188"/><stop style="stop-color:#1e1900;stop-opacity:1;" offset="0.121094"/><stop style="stop-color:#1f1901;stop-opacity:1;" offset="0.125"/><stop style="stop-color:#201a01;stop-opacity:1;" offset="0.128906"/><stop style="stop-color:#211b01;stop-opacity:1;" offset="0.132812"/><stop style="stop-color:#221c01;stop-opacity:1;" offset="0.136719"/><stop style="stop-color:#231d01;stop-opacity:1;" offset="0.140625"/><stop style="stop-color:#241d01;stop-opacity:1;" offset="0.144531"/><stop style="stop-color:#251e01;stop-opacity:1;" offset="0.148438"/><stop style="stop-color:#261f01;stop-opacity:1;" offset="0.152344"/><stop style="stop-color:#272001;stop-opacity:1;" offset="0.15625"/><stop style="stop-color:#282101;stop-opacity:1;" offset="0.160156"/><stop style="stop-color:#292101;stop-opacity:1;" offset="0.164062"/><stop style="stop-color:#2a2201;stop-opacity:1;" offset="0.167969"/><stop style="stop-color:#2b2301;stop-opacity:1;" offset="0.171875"/><stop style="stop-color:#2c2401;stop-opacity:1;" offset="0.175781"/><stop style="stop-color:#2d2501;stop-opacity:1;" offset="0.179688"/><stop style="stop-color:#2e2501;stop-opacity:1;" offset="0.183594"/><stop style="stop-color:#2f2601;stop-opacity:1;" offset="0.1875"/><stop style="stop-color:#302701;stop-opacity:1;" offset="0.191406"/><stop style="stop-color:#312801;stop-opacity:1;" offset="0.195312"/><stop style="stop-color:#322901;stop-opacity:1;" offset="0.199219"/><stop style="stop-color:#332901;stop-opacity:1;" offset="0.203125"/><stop style="stop-color:#342a01;stop-opacity:1;" offset="0.207031"/><stop style="stop-color:#352b01;stop-opacity:1;" offset="0.210938"/><stop style="stop-color:#362c01;stop-opacity:1;" offset="0.214844"/><stop style="stop-color:#372d01;stop-opacity:1;" offset="0.21875"/><stop style="stop-color:#382d01;stop-opacity:1;" offset="0.222656"/><stop style="stop-color:#392e01;stop-opacity:1;" offset="0.226562"/><stop style="stop-color:#3a2f01;stop-opacity:1;" offset="0.230469"/><stop style="stop-color:#3b3001;stop-opacity:1;" offset="0.234375"/><stop style="stop-color:#3c3101;stop-opacity:1;" offset="0.238281"/><stop style="stop-color:#3d3101;stop-opacity:1;" offset="0.242188"/><stop style="stop-color:#3e3201;stop-opacity:1;" offset="0.246094"/><stop style="stop-color:#3f3301;stop-opacity:1;" offset="0.25"/><stop style="stop-color:#403401;stop-opacity:1;" offset="0.253906"/><stop style="stop-color:#413501;stop-opacity:1;" offset="0.257812"/><stop style="stop-color:#423501;stop-opacity:1;" offset="0.261719"/><stop style="stop-color:#433601;stop-opacity:1;" offset="0.265625"/><stop style="stop-color:#443701;stop-opacity:1;" offset="0.269531"/><stop style="stop-color:#453801;stop-opacity:1;" offset="0.273438"/><stop style="stop-color:#463901;stop-opacity:1;" offset="0.277344"/><stop style="stop-color:#473901;stop-opacity:1;" offset="0.28125"/><stop style="stop-color:#483a01;stop-opacity:1;" offset="0.285156"/><stop style="stop-color:#493b01;stop-opacity:1;" offset="0.289062"/><stop style="stop-color:#4a3c01;stop-opacity:1;" offset="0.292969"/><stop style="stop-color:#4a3d01;stop-opacity:1;" offset="0.296875"/><stop style="stop-color:#4b3d01;stop-opacity:1;" offset="0.300781"/><stop style="stop-color:#4c3e01;stop-opacity:1;" offset="0.304688"/><stop style="stop-color:#4d3f01;stop-opacity:1;" offset="0.308594"/><stop style="stop-color:#4e4001;stop-opacity:1;" offset="0.3125"/><stop style="stop-color:#4f4101;stop-opacity:1;" offset="0.316406"/><stop style="stop-color:#504101;stop-opacity:1;" offset="0.320312"/><stop style="stop-color:#514201;stop-opacity:1;" offset="0.324219"/><stop style="stop-color:#524301;stop-opacity:1;" offset="0.328125"/><stop style="stop-color:#534401;stop-opacity:1;" offset="0.332031"/><stop style="stop-color:#544501;stop-opacity:1;" offset="0.335938"/><stop style="stop-color:#554501;stop-opacity:1;" offset="0.339844"/><stop style="stop-color:#564601;stop-opacity:1;" offset="0.34375"/><stop style="stop-color:#574701;stop-opacity:1;" offset="0.347656"/><stop style="stop-color:#584801;stop-opacity:1;" offset="0.351562"/><stop style="stop-color:#594901;stop-opacity:1;" offset="0.355469"/><stop style="stop-color:#5a4901;stop-opacity:1;" offset="0.359375"/><stop style="stop-color:#5b4a01;stop-opacity:1;" offset="0.363281"/><stop style="stop-color:#5c4b01;stop-opacity:1;" offset="0.367188"/><stop style="stop-color:#5d4c02;stop-opacity:1;" offset="0.371094"/><stop style="stop-color:#5e4c02;stop-opacity:1;" offset="0.375"/><stop style="stop-color:#5f4d02;stop-opacity:1;" offset="0.378906"/><stop style="stop-color:#604e02;stop-opacity:1;" offset="0.382812"/><stop style="stop-color:#614f02;stop-opacity:1;" offset="0.386719"/><stop style="stop-color:#625002;stop-opacity:1;" offset="0.390625"/><stop style="stop-color:#635002;stop-opacity:1;" offset="0.394531"/><stop style="stop-color:#645102;stop-opacity:1;" offset="0.398437"/><stop style="stop-color:#655202;stop-opacity:1;" offset="0.402344"/><stop style="stop-color:#665302;stop-opacity:1;" offset="0.40625"/><stop style="stop-color:#675402;stop-opacity:1;" offset="0.410156"/><stop style="stop-color:#685402;stop-opacity:1;" offset="0.414062"/><stop style="stop-color:#695502;stop-opacity:1;" offset="0.417969"/><stop style="stop-color:#6a5602;stop-opacity:1;" offset="0.421875"/><stop style="stop-color:#6b5702;stop-opacity:1;" offset="0.425781"/><stop style="stop-color:#6c5802;stop-opacity:1;" offset="0.429687"/><stop style="stop-color:#6d5802;stop-opacity:1;" offset="0.433594"/><stop style="stop-color:#6e5902;stop-opacity:1;" offset="0.4375"/><stop style="stop-color:#6f5a02;stop-opacity:1;" offset="0.441406"/><stop style="stop-color:#705b02;stop-opacity:1;" offset="0.445312"/><stop style="stop-color:#715c02;stop-opacity:1;" offset="0.449219"/><stop style="stop-color:#725c02;stop-opacity:1;" offset="0.453125"/><stop style="stop-color:#735d02;stop-opacity:1;" offset="0.457031"/><stop style="stop-color:#745e02;stop-opacity:1;" offset="0.460937"/><stop style="stop-color:#755f02;stop-opacity:1;" offset="0.464844"/><stop style="stop-color:#766002;stop-opacity:1;" offset="0.46875"/><stop style="stop-color:#776002;stop-opacity:1;" offset="0.472656"/><stop style="stop-color:#786102;stop-opacity:1;" offset="0.476562"/><stop style="stop-color:#796202;stop-opacity:1;" offset="0.480469"/><stop style="stop-color:#7a6302;stop-opacity:1;" offset="0.484375"/><stop style="stop-color:#7b6402;stop-opacity:1;" offset="0.488281"/><stop style="stop-color:#7b6402;stop-opacity:1;" offset="0.492187"/><stop style="stop-color:#7c6502;stop-opacity:1;" offset="0.496094"/><stop style="stop-color:#7d6602;stop-opacity:1;" offset="0.5"/><stop style="stop-color:#7e6702;stop-opacity:1;" offset="0.503906"/><stop style="stop-color:#7f6802;stop-opacity:1;" offset="0.507812"/><stop style="stop-color:#806802;stop-opacity:1;" offset="0.511719"/><stop style="stop-color:#816902;stop-opacity:1;" offset="0.515625"/><stop style="stop-color:#826a02;stop-opacity:1;" offset="0.519531"/><stop style="stop-color:#836b02;stop-opacity:1;" offset="0.523438"/><stop style="stop-color:#846c02;stop-opacity:1;" offset="0.527344"/><stop style="stop-color:#856c02;stop-opacity:1;" offset="0.53125"/><stop style="stop-color:#866d02;stop-opacity:1;" offset="0.535156"/><stop style="stop-color:#876e02;stop-opacity:1;" offset="0.539062"/><stop style="stop-color:#886f02;stop-opacity:1;" offset="0.542969"/><stop style="stop-color:#897002;stop-opacity:1;" offset="0.546875"/><stop style="stop-color:#8a7002;stop-opacity:1;" offset="0.550781"/><stop style="stop-color:#8b7102;stop-opacity:1;" offset="0.554688"/><stop style="stop-color:#8c7202;stop-opacity:1;" offset="0.558594"/><stop style="stop-color:#8d7302;stop-opacity:1;" offset="0.5625"/><stop style="stop-color:#8e7402;stop-opacity:1;" offset="0.566406"/><stop style="stop-color:#8f7402;stop-opacity:1;" offset="0.570312"/><stop style="stop-color:#907502;stop-opacity:1;" offset="0.574219"/><stop style="stop-color:#917602;stop-opacity:1;" offset="0.578125"/><stop style="stop-color:#927702;stop-opacity:1;" offset="0.582031"/><stop style="stop-color:#937802;stop-opacity:1;" offset="0.585937"/><stop style="stop-color:#947802;stop-opacity:1;" offset="0.589844"/><stop style="stop-color:#957902;stop-opacity:1;" offset="0.59375"/><stop style="stop-color:#967a02;stop-opacity:1;" offset="0.597656"/><stop style="stop-color:#977b02;stop-opacity:1;" offset="0.601562"/><stop style="stop-color:#987c02;stop-opacity:1;" offset="0.605469"/><stop style="stop-color:#997c02;stop-opacity:1;" offset="0.609375"/><stop style="stop-color:#9a7d02;stop-opacity:1;" offset="0.613281"/><stop style="stop-color:#9b7e03;stop-opacity:1;" offset="0.617187"/><stop style="stop-color:#9c7f03;stop-opacity:1;" offset="0.621094"/><stop style="stop-color:#9d7f03;stop-opacity:1;" offset="0.625"/><stop style="stop-color:#9e8003;stop-opacity:1;" offset="0.628906"/><stop style="stop-color:#9f8103;stop-opacity:1;" offset="0.632812"/><stop style="stop-color:#a08203;stop-opacity:1;" offset="0.636719"/><stop style="stop-color:#a18303;stop-opacity:1;" offset="0.640625"/><stop style="stop-color:#a28303;stop-opacity:1;" offset="0.644531"/><stop style="stop-color:#a38403;stop-opacity:1;" offset="0.648437"/><stop style="stop-color:#a48503;stop-opacity:1;" offset="0.652344"/><stop style="stop-color:#a58603;stop-opacity:1;" offset="0.65625"/><stop style="stop-color:#a68703;stop-opacity:1;" offset="0.660156"/><stop style="stop-color:#a78703;stop-opacity:1;" offset="0.664062"/><stop style="stop-color:#a88803;stop-opacity:1;" offset="0.667969"/><stop style="stop-color:#a98903;stop-opacity:1;" offset="0.671875"/><stop style="stop-color:#aa8a03;stop-opacity:1;" offset="0.675781"/><stop style="stop-color:#ab8b03;stop-opacity:1;" offset="0.679687"/><stop style="stop-color:#ac8b03;stop-opacity:1;" offset="0.683594"/><stop style="stop-color:#ad8c03;stop-opacity:1;" offset="0.6875"/><stop style="stop-color:#ad8d03;stop-opacity:1;" offset="0.691406"/><stop style="stop-color:#ae8e03;stop-opacity:1;" offset="0.695312"/><stop style="stop-color:#af8f03;stop-opacity:1;" offset="0.699219"/><stop style="stop-color:#b08f03;stop-opacity:1;" offset="0.703125"/><stop style="stop-color:#b19003;stop-opacity:1;" offset="0.707031"/><stop style="stop-color:#b29103;stop-opacity:1;" offset="0.710938"/><stop style="stop-color:#b39203;stop-opacity:1;" offset="0.714844"/><stop style="stop-color:#b49303;stop-opacity:1;" offset="0.71875"/><stop style="stop-color:#b59303;stop-opacity:1;" offset="0.722656"/><stop style="stop-color:#b69403;stop-opacity:1;" offset="0.726562"/><stop style="stop-color:#b79503;stop-opacity:1;" offset="0.730469"/><stop style="stop-color:#b89603;stop-opacity:1;" offset="0.734375"/><stop style="stop-color:#b99703;stop-opacity:1;" offset="0.738281"/><stop style="stop-color:#ba9703;stop-opacity:1;" offset="0.742188"/><stop style="stop-color:#bb9803;stop-opacity:1;" offset="0.746094"/><stop style="stop-color:#bc9903;stop-opacity:1;" offset="0.75"/><stop style="stop-color:#bd9a03;stop-opacity:1;" offset="0.753906"/><stop style="stop-color:#be9b03;stop-opacity:1;" offset="0.757812"/><stop style="stop-color:#bf9b03;stop-opacity:1;" offset="0.761719"/><stop style="stop-color:#c09c03;stop-opacity:1;" offset="0.765625"/><stop style="stop-color:#c19d03;stop-opacity:1;" offset="0.769531"/><stop style="stop-color:#c29e03;stop-opacity:1;" offset="0.773438"/><stop style="stop-color:#c39f03;stop-opacity:1;" offset="0.777344"/><stop style="stop-color:#c49f03;stop-opacity:1;" offset="0.78125"/><stop style="stop-color:#c5a003;stop-opacity:1;" offset="0.785156"/><stop style="stop-color:#c6a103;stop-opacity:1;" offset="0.789062"/><stop style="stop-color:#c7a203;stop-opacity:1;" offset="0.792969"/><stop style="stop-color:#c8a303;stop-opacity:1;" offset="0.796875"/><stop style="stop-color:#c9a303;stop-opacity:1;" offset="0.800781"/><stop style="stop-color:#caa403;stop-opacity:1;" offset="0.804688"/><stop style="stop-color:#cba503;stop-opacity:1;" offset="0.808594"/><stop style="stop-color:#cca603;stop-opacity:1;" offset="0.8125"/><stop style="stop-color:#cda703;stop-opacity:1;" offset="0.816406"/><stop style="stop-color:#cea703;stop-opacity:1;" offset="0.820313"/><stop style="stop-color:#cfa803;stop-opacity:1;" offset="0.824219"/><stop style="stop-color:#d0a903;stop-opacity:1;" offset="0.828125"/><stop style="stop-color:#d1aa03;stop-opacity:1;" offset="0.832031"/><stop style="stop-color:#d2ab03;stop-opacity:1;" offset="0.835938"/><stop style="stop-color:#d3ab03;stop-opacity:1;" offset="0.839844"/><stop style="stop-color:#d4ac03;stop-opacity:1;" offset="0.84375"/><stop style="stop-color:#d5ad03;stop-opacity:1;" offset="0.847656"/><stop style="stop-color:#d6ae03;stop-opacity:1;" offset="0.851563"/><stop style="stop-color:#d7af03;stop-opacity:1;" offset="0.855469"/><stop style="stop-color:#d8af04;stop-opacity:1;" offset="0.859375"/><stop style="stop-color:#d9b004;stop-opacity:1;" offset="0.863281"/><stop style="stop-color:#dab104;stop-opacity:1;" offset="0.867188"/><stop style="stop-color:#dbb204;stop-opacity:1;" offset="0.871094"/><stop style="stop-color:#dcb204;stop-opacity:1;" offset="0.875"/><stop style="stop-color:#ddb304;stop-opacity:1;" offset="0.878906"/><stop style="stop-color:#deb404;stop-opacity:1;" offset="0.882813"/><stop style="stop-color:#deb504;stop-opacity:1;" offset="0.886719"/><stop style="stop-color:#dfb604;stop-opacity:1;" offset="0.890625"/><stop style="stop-color:#e0b604;stop-opacity:1;" offset="0.894531"/><stop style="stop-color:#e1b704;stop-opacity:1;" offset="0.898438"/><stop style="stop-color:#e2b804;stop-opacity:1;" offset="0.902344"/><stop style="stop-color:#e3b904;stop-opacity:1;" offset="0.90625"/><stop style="stop-color:#e4ba04;stop-opacity:1;" offset="0.910156"/><stop style="stop-color:#e5ba04;stop-opacity:1;" offset="0.914063"/><stop style="stop-color:#e6bb04;stop-opacity:1;" offset="0.917969"/><stop style="stop-color:#e7bc04;stop-opacity:1;" offset="0.921875"/><stop style="stop-color:#e8bd04;stop-opacity:1;" offset="0.925781"/><stop style="stop-color:#e9be04;stop-opacity:1;" offset="0.929688"/><stop style="stop-color:#eabe04;stop-opacity:1;" offset="0.933594"/><stop style="stop-color:#ebbf04;stop-opacity:1;" offset="0.9375"/><stop style="stop-color:#ecc004;stop-opacity:1;" offset="0.941406"/><stop style="stop-color:#edc104;stop-opacity:1;" offset="0.945312"/><stop style="stop-color:#eec204;stop-opacity:1;" offset="0.949219"/><stop style="stop-color:#efc204;stop-opacity:1;" offset="0.953125"/><stop style="stop-color:#f0c304;stop-opacity:1;" offset="0.957031"/><stop style="stop-color:#f1c404;stop-opacity:1;" offset="0.960938"/><stop style="stop-color:#f2c504;stop-opacity:1;" offset="0.964844"/><stop style="stop-color:#f3c604;stop-opacity:1;" offset="0.96875"/><stop style="stop-color:#f4c604;stop-opacity:1;" offset="0.972656"/><stop style="stop-color:#f5c704;stop-opacity:1;" offset="0.976562"/><stop style="stop-color:#f6c804;stop-opacity:1;" offset="0.980469"/><stop style="stop-color:#f7c904;stop-opacity:1;" offset="0.984375"/><stop style="stop-color:#f8ca04;stop-opacity:1;" offset="0.988281"/><stop style="stop-color:#f9ca04;stop-opacity:1;" offset="0.992188"/><stop style="stop-color:#facb04;stop-opacity:1;" offset="0.996094"/><stop style="stop-color:#fbcc04;stop-opacity:1;" offset="1"/></linearGradient><clipPath id="384abbc05e"><path d="M 45 42 L 69 42 L 69 74.953125 L 45 74.953125 Z M 45 42 "/></clipPath><clipPath id="cd4a22f7d4"><path d="M 14.03125 20.203125 L 74 20.203125 L 74 63 L 14.03125 63 Z M 14.03125 20.203125 "/></clipPath></defs><g id="4e979a969b"><g clip-rule="nonzero" clip-path="url(#18669c0641)"><g clip-rule="nonzero" clip-path="url(#820603c78a)"><path style=" stroke:none;fill-rule:nonzero;fill:url(#linear0);" d="M 0 0 L 0 89.738281 L 89.738281 89.738281 L 89.738281 0 Z M 0 0 "/></g></g><g clip-rule="nonzero" clip-path="url(#384abbc05e)"><path style=" stroke:none;fill-rule:nonzero;fill:#000;fill-opacity:1;" d="M 45.839844 71.800781 C 46.070312 72.03125 46.441406 72.167969 46.765625 72.078125 L 50.984375 71.011719 L 53.582031 74.535156 C 53.765625 74.765625 54.042969 74.90625 54.324219 74.90625 C 54.367188 74.90625 54.414062 74.90625 54.460938 74.90625 C 54.785156 74.859375 55.0625 74.625 55.203125 74.300781 L 56.222656 71.335938 L 55.25 68.507812 L 54.042969 72.03125 L 52.144531 69.386719 C 51.957031 69.15625 51.679688 69.015625 51.402344 69.015625 C 51.308594 69.015625 51.261719 69.015625 51.171875 69.0625 L 48.0625 69.851562 L 50.84375 61.878906 C 50.9375 61.925781 51.078125 61.972656 51.125 62.0625 C 51.355469 62.25 51.585938 62.527344 51.867188 62.851562 C 52.328125 63.453125 52.886719 64.148438 53.765625 64.429688 C 54.460938 64.660156 55.15625 64.519531 55.804688 64.382812 L 59.28125 74.347656 C 59.375 74.671875 59.699219 74.90625 60.023438 74.953125 C 60.070312 74.953125 60.117188 74.953125 60.164062 74.953125 C 60.441406 74.953125 60.71875 74.8125 60.90625 74.582031 L 63.5 71.058594 L 67.71875 72.125 C 68.042969 72.214844 68.414062 72.125 68.648438 71.84375 C 68.878906 71.566406 68.972656 71.242188 68.832031 70.917969 L 66.050781 62.898438 L 66.003906 62.804688 L 65.449219 61.136719 C 65.820312 60.949219 66.191406 60.671875 66.515625 60.253906 C 67.023438 59.558594 67.070312 58.679688 67.117188 57.9375 C 67.117188 57.519531 67.164062 57.101562 67.257812 56.824219 C 67.347656 56.546875 67.535156 56.222656 67.765625 55.898438 C 68.183594 55.25 68.695312 54.507812 68.695312 53.625 C 68.695312 52.746094 68.230469 51.957031 67.765625 51.355469 C 67.535156 51.03125 67.347656 50.707031 67.257812 50.425781 C 67.164062 50.148438 67.164062 49.730469 67.117188 49.316406 C 67.070312 48.574219 67.023438 47.691406 66.515625 46.996094 C 66.003906 46.253906 65.171875 45.976562 64.476562 45.699219 C 64.105469 45.558594 63.734375 45.421875 63.457031 45.234375 C 63.222656 45.050781 62.992188 44.773438 62.714844 44.445312 C 62.25 43.84375 61.695312 43.148438 60.8125 42.871094 C 59.976562 42.59375 59.144531 42.824219 58.449219 43.011719 C 58.03125 43.101562 57.660156 43.242188 57.335938 43.242188 C 57.011719 43.242188 56.640625 43.148438 56.222656 43.011719 C 55.480469 42.824219 54.648438 42.59375 53.859375 42.871094 C 52.976562 43.148438 52.46875 43.84375 51.957031 44.445312 C 51.679688 44.773438 51.449219 45.097656 51.214844 45.234375 C 50.984375 45.421875 50.613281 45.558594 50.195312 45.699219 C 49.5 45.976562 48.667969 46.253906 48.15625 46.996094 C 47.648438 47.691406 47.601562 48.574219 47.554688 49.316406 C 47.554688 49.730469 47.507812 50.148438 47.414062 50.425781 C 47.320312 50.707031 47.136719 51.03125 46.90625 51.355469 C 46.488281 52.003906 45.976562 52.746094 45.976562 53.625 C 45.976562 54.507812 46.441406 55.296875 46.90625 55.898438 C 47.136719 56.222656 47.320312 56.546875 47.414062 56.824219 C 47.507812 57.101562 47.507812 57.519531 47.554688 57.9375 C 47.601562 58.679688 47.648438 59.558594 48.15625 60.253906 C 48.433594 60.625 48.804688 60.90625 49.222656 61.136719 L 48.667969 62.757812 L 48.433594 62.851562 L 45.652344 70.871094 C 45.5625 71.195312 45.605469 71.519531 45.839844 71.800781 Z M 66.421875 69.851562 L 63.316406 69.0625 C 62.945312 68.972656 62.574219 69.109375 62.34375 69.433594 L 60.441406 72.078125 L 57.660156 64.148438 C 57.890625 64.195312 58.125 64.242188 58.355469 64.335938 C 58.867188 64.472656 59.375 64.613281 59.933594 64.613281 C 60.210938 64.613281 60.488281 64.566406 60.765625 64.472656 C 61.648438 64.195312 62.15625 63.5 62.667969 62.898438 C 62.945312 62.574219 63.175781 62.25 63.410156 62.109375 C 63.5 62.0625 63.59375 61.972656 63.6875 61.925781 Z M 49.039062 56.222656 C 48.851562 55.710938 48.574219 55.25 48.296875 54.832031 C 47.972656 54.367188 47.691406 53.90625 47.691406 53.578125 C 47.691406 53.253906 47.972656 52.792969 48.296875 52.328125 C 48.574219 51.910156 48.851562 51.449219 49.039062 50.9375 C 49.222656 50.425781 49.222656 49.871094 49.269531 49.359375 C 49.316406 48.804688 49.316406 48.292969 49.5 48.015625 C 49.6875 47.738281 50.195312 47.554688 50.707031 47.367188 C 51.214844 47.183594 51.679688 46.996094 52.144531 46.671875 C 52.605469 46.347656 52.929688 45.929688 53.257812 45.511719 C 53.582031 45.097656 53.953125 44.679688 54.277344 44.539062 C 54.601562 44.445312 55.109375 44.585938 55.621094 44.726562 C 56.128906 44.863281 56.6875 45.003906 57.242188 45.003906 C 57.800781 45.003906 58.355469 44.863281 58.867188 44.726562 C 59.375 44.585938 59.886719 44.445312 60.210938 44.539062 C 60.535156 44.632812 60.859375 45.050781 61.230469 45.511719 C 61.554688 45.929688 61.878906 46.347656 62.34375 46.671875 C 62.804688 46.996094 63.316406 47.183594 63.78125 47.367188 C 64.289062 47.554688 64.800781 47.738281 64.984375 48.015625 C 65.171875 48.292969 65.214844 48.804688 65.214844 49.359375 C 65.261719 49.871094 65.261719 50.425781 65.449219 50.984375 C 65.632812 51.492188 65.914062 51.957031 66.191406 52.375 C 66.515625 52.839844 66.792969 53.300781 66.792969 53.625 C 66.792969 53.949219 66.515625 54.414062 66.191406 54.878906 C 65.914062 55.296875 65.632812 55.757812 65.449219 56.269531 C 65.261719 56.777344 65.261719 57.335938 65.214844 57.84375 C 65.171875 58.402344 65.171875 58.910156 64.984375 59.1875 C 64.800781 59.46875 64.289062 59.652344 63.78125 59.839844 C 63.269531 60.023438 62.804688 60.210938 62.34375 60.535156 C 61.878906 60.859375 61.554688 61.277344 61.230469 61.691406 C 60.90625 62.109375 60.535156 62.527344 60.210938 62.667969 C 59.886719 62.757812 59.375 62.621094 58.867188 62.480469 C 58.355469 62.339844 57.800781 62.203125 57.242188 62.203125 C 56.6875 62.203125 56.128906 62.339844 55.621094 62.480469 C 55.109375 62.621094 54.601562 62.757812 54.277344 62.667969 C 53.953125 62.574219 53.628906 62.15625 53.257812 61.691406 C 52.933594 61.277344 52.605469 60.859375 52.144531 60.535156 C 51.679688 60.210938 51.171875 60.023438 50.707031 59.839844 C 50.195312 59.652344 49.6875 59.46875 49.5 59.1875 C 49.316406 58.910156 49.269531 58.402344 49.269531 57.84375 C 49.222656 57.289062 49.222656 56.777344 49.039062 56.222656 Z M 49.039062 56.222656 "/></g><path style=" stroke:none;fill-rule:nonzero;fill:#000;fill-opacity:1;" d="M 57.195312 60.070312 C 60.765625 60.070312 63.6875 57.148438 63.6875 53.578125 C 63.6875 50.011719 60.765625 47.089844 57.195312 47.089844 C 53.628906 47.089844 50.707031 50.011719 50.707031 53.578125 C 50.707031 57.148438 53.628906 60.070312 57.195312 60.070312 Z M 57.195312 48.945312 C 59.746094 48.945312 61.832031 51.03125 61.832031 53.578125 C 61.832031 56.128906 59.746094 58.214844 57.195312 58.214844 C 54.648438 58.214844 52.5625 56.128906 52.5625 53.578125 C 52.5625 51.03125 54.648438 48.945312 57.195312 48.945312 Z M 57.195312 48.945312 "/><path style=" stroke:none;fill-rule:nonzero;fill:#000;fill-opacity:1;" d="M 31.699219 31.328125 C 31.1875 31.328125 30.773438 31.746094 30.773438 32.253906 C 30.773438 32.765625 31.1875 33.183594 31.699219 33.183594 L 55.804688 33.183594 C 56.316406 33.183594 56.734375 32.765625 56.734375 32.253906 C 56.734375 31.746094 56.316406 31.328125 55.804688 31.328125 Z M 31.699219 31.328125 "/><path style=" stroke:none;fill-rule:nonzero;fill:#000;fill-opacity:1;" d="M 55.574219 36.890625 C 55.574219 36.378906 55.15625 35.964844 54.648438 35.964844 L 32.859375 35.964844 C 32.347656 35.964844 31.929688 36.378906 31.929688 36.890625 C 31.929688 37.402344 32.347656 37.816406 32.859375 37.816406 L 54.648438 37.816406 C 55.15625 37.816406 55.574219 37.402344 55.574219 36.890625 Z M 55.574219 36.890625 "/><path style=" stroke:none;fill-rule:nonzero;fill:#000;fill-opacity:1;" d="M 20.574219 29.9375 C 22.382812 29.9375 23.816406 28.5 23.816406 26.691406 C 23.816406 24.882812 22.382812 23.445312 20.574219 23.445312 C 18.765625 23.445312 17.328125 24.882812 17.328125 26.691406 C 17.328125 28.5 18.765625 29.9375 20.574219 29.9375 Z M 20.574219 25.300781 C 21.359375 25.300781 21.964844 25.902344 21.964844 26.691406 C 21.964844 27.480469 21.359375 28.082031 20.574219 28.082031 C 19.785156 28.082031 19.183594 27.480469 19.183594 26.691406 C 19.183594 25.902344 19.785156 25.300781 20.574219 25.300781 Z M 20.574219 25.300781 "/><path style=" stroke:none;fill-rule:nonzero;fill:#000;fill-opacity:1;" d="M 20.574219 59.144531 C 22.382812 59.144531 23.816406 57.707031 23.816406 55.898438 C 23.816406 54.089844 22.382812 52.652344 20.574219 52.652344 C 18.765625 52.652344 17.328125 54.089844 17.328125 55.898438 C 17.328125 57.707031 18.765625 59.144531 20.574219 59.144531 Z M 20.574219 54.507812 C 21.359375 54.507812 21.964844 55.109375 21.964844 55.898438 C 21.964844 56.6875 21.359375 57.289062 20.574219 57.289062 C 19.785156 57.289062 19.183594 56.6875 19.183594 55.898438 C 19.183594 55.109375 19.785156 54.507812 20.574219 54.507812 Z M 20.574219 54.507812 "/><path style=" stroke:none;fill-rule:nonzero;fill:#000;fill-opacity:1;" d="M 70.175781 26.691406 C 70.175781 24.882812 68.738281 23.445312 66.933594 23.445312 C 65.125 23.445312 63.6875 24.882812 63.6875 26.691406 C 63.6875 28.5 65.125 29.9375 66.933594 29.9375 C 68.738281 29.9375 70.175781 28.5 70.175781 26.691406 Z M 65.542969 26.691406 C 65.542969 25.902344 66.144531 25.300781 66.933594 25.300781 C 67.71875 25.300781 68.324219 25.902344 68.324219 26.691406 C 68.324219 27.480469 67.71875 28.082031 66.933594 28.082031 C 66.144531 28.082031 65.542969 27.480469 65.542969 26.691406 Z M 65.542969 26.691406 "/><g clip-rule="nonzero" clip-path="url(#cd4a22f7d4)"><path style=" stroke:none;fill-rule:nonzero;fill:#000;fill-opacity:1;" d="M 70.640625 20.203125 L 16.863281 20.203125 C 15.335938 20.203125 14.082031 21.453125 14.082031 22.984375 L 14.082031 60.070312 C 14.082031 61.601562 15.335938 62.851562 16.863281 62.851562 L 46.488281 62.851562 L 46.859375 61.738281 C 46.71875 61.601562 46.582031 61.460938 46.488281 61.320312 C 46.394531 61.230469 46.347656 61.089844 46.300781 60.996094 L 16.863281 60.996094 C 16.355469 60.996094 15.9375 60.578125 15.9375 60.070312 L 15.9375 22.984375 C 15.9375 22.472656 16.355469 22.054688 16.863281 22.054688 L 70.640625 22.054688 C 71.152344 22.054688 71.566406 22.472656 71.566406 22.984375 L 71.566406 60.070312 C 71.566406 60.578125 71.152344 60.996094 70.640625 60.996094 L 68.089844 60.996094 C 68.042969 61.136719 67.953125 61.230469 67.859375 61.367188 C 67.765625 61.507812 67.628906 61.644531 67.488281 61.785156 L 67.859375 62.898438 L 70.59375 62.898438 C 72.125 62.898438 73.375 61.644531 73.375 60.117188 L 73.375 22.984375 C 73.421875 21.453125 72.171875 20.203125 70.640625 20.203125 Z M 70.640625 20.203125 "/></g><path style=" stroke:none;fill-rule:nonzero;fill:#000;fill-opacity:1;" d="M 25.671875 55.621094 C 25.671875 55.621094 25.671875 55.664062 25.671875 55.664062 C 25.671875 55.664062 25.671875 55.710938 25.671875 55.710938 C 25.671875 55.757812 25.671875 55.757812 25.671875 55.804688 C 25.671875 55.851562 25.671875 55.851562 25.671875 55.898438 C 25.671875 55.945312 25.671875 55.945312 25.71875 55.992188 C 25.71875 56.035156 25.71875 56.035156 25.765625 56.082031 C 25.765625 56.128906 25.8125 56.128906 25.8125 56.175781 C 25.8125 56.222656 25.859375 56.222656 25.859375 56.269531 C 25.859375 56.316406 25.90625 56.316406 25.90625 56.363281 C 25.90625 56.363281 25.949219 56.40625 25.949219 56.40625 C 25.949219 56.40625 25.996094 56.453125 26.042969 56.453125 C 26.042969 56.453125 26.089844 56.5 26.136719 56.5 C 26.183594 56.5 26.183594 56.546875 26.230469 56.546875 C 26.273438 56.546875 26.273438 56.59375 26.320312 56.59375 C 26.367188 56.59375 26.367188 56.59375 26.414062 56.640625 C 26.460938 56.640625 26.460938 56.640625 26.507812 56.640625 C 26.507812 56.640625 26.554688 56.640625 26.554688 56.640625 C 26.601562 56.640625 26.644531 56.640625 26.644531 56.640625 L 45.191406 56.640625 C 45.097656 56.5 45.050781 56.363281 44.957031 56.222656 C 44.679688 55.757812 44.402344 55.296875 44.214844 54.785156 L 27.480469 54.785156 C 27.15625 51.816406 24.882812 49.5 21.964844 49.082031 L 21.964844 33.554688 C 24.882812 33.136719 27.15625 30.769531 27.480469 27.851562 L 60.023438 27.851562 C 60.347656 30.816406 62.621094 33.136719 65.542969 33.554688 L 65.542969 44.214844 C 65.585938 44.214844 65.585938 44.261719 65.632812 44.261719 C 66.238281 44.539062 66.886719 44.816406 67.394531 45.28125 L 67.394531 32.71875 C 67.394531 32.207031 66.976562 31.792969 66.46875 31.792969 C 63.917969 31.792969 61.832031 29.703125 61.832031 27.15625 C 61.832031 27.109375 61.832031 27.0625 61.832031 27.015625 C 61.832031 27.015625 61.832031 26.96875 61.832031 26.96875 C 61.832031 26.96875 61.832031 26.921875 61.832031 26.921875 C 61.832031 26.921875 61.832031 26.878906 61.832031 26.878906 C 61.832031 26.832031 61.832031 26.832031 61.832031 26.785156 C 61.832031 26.738281 61.832031 26.738281 61.832031 26.691406 C 61.832031 26.644531 61.832031 26.644531 61.785156 26.597656 C 61.785156 26.550781 61.785156 26.550781 61.738281 26.507812 C 61.738281 26.460938 61.695312 26.460938 61.695312 26.414062 C 61.695312 26.367188 61.648438 26.367188 61.648438 26.320312 C 61.648438 26.273438 61.601562 26.273438 61.601562 26.226562 C 61.601562 26.226562 61.554688 26.183594 61.554688 26.183594 C 61.554688 26.183594 61.507812 26.136719 61.460938 26.136719 C 61.460938 26.136719 61.414062 26.089844 61.367188 26.089844 C 61.324219 26.089844 61.324219 26.042969 61.277344 26.042969 C 61.230469 26.042969 61.230469 25.996094 61.183594 25.996094 C 61.136719 25.996094 61.136719 25.996094 61.089844 25.949219 C 61.042969 25.949219 61.042969 25.949219 61 25.949219 C 61 25.949219 60.953125 25.949219 60.953125 25.949219 C 60.953125 25.949219 60.90625 25.949219 60.90625 25.949219 C 60.90625 25.949219 60.859375 25.949219 60.859375 25.949219 L 26.601562 25.949219 C 26.601562 25.949219 26.554688 25.949219 26.554688 25.949219 C 26.554688 25.949219 26.507812 25.949219 26.507812 25.949219 C 26.507812 25.949219 26.460938 25.949219 26.460938 25.949219 C 26.414062 25.949219 26.414062 25.949219 26.367188 25.949219 C 26.320312 25.949219 26.320312 25.949219 26.273438 25.996094 C 26.230469 25.996094 26.230469 26.042969 26.183594 26.042969 C 26.136719 26.042969 26.136719 26.089844 26.089844 26.089844 C 26.042969 26.089844 26.042969 26.136719 25.996094 26.136719 C 25.949219 26.136719 25.949219 26.183594 25.90625 26.183594 C 25.90625 26.183594 25.859375 26.226562 25.859375 26.226562 C 25.859375 26.226562 25.8125 26.273438 25.8125 26.320312 C 25.8125 26.367188 25.765625 26.367188 25.765625 26.414062 C 25.765625 26.460938 25.71875 26.460938 25.71875 26.507812 C 25.71875 26.550781 25.71875 26.550781 25.671875 26.597656 C 25.671875 26.644531 25.671875 26.644531 25.625 26.691406 C 25.625 26.738281 25.625 26.738281 25.625 26.785156 C 25.625 26.832031 25.625 26.832031 25.625 26.878906 C 25.625 26.878906 25.625 26.921875 25.625 26.921875 C 25.625 26.921875 25.625 26.96875 25.625 26.96875 C 25.625 26.96875 25.625 27.015625 25.625 27.015625 C 25.625 27.0625 25.625 27.109375 25.625 27.15625 C 25.625 29.703125 23.539062 31.792969 20.992188 31.792969 C 20.480469 31.792969 20.0625 32.207031 20.0625 32.71875 L 20.0625 49.871094 C 20.0625 50.382812 20.480469 50.796875 20.992188 50.796875 C 23.539062 50.796875 25.625 52.882812 25.625 55.433594 C 25.625 55.480469 25.625 55.527344 25.625 55.574219 C 25.671875 55.574219 25.671875 55.574219 25.671875 55.621094 Z M 25.671875 55.621094 "/></g></svg>