<svg xmlns="http://www.w3.org/2000/svg" xmlns:xlink="http://www.w3.org/1999/xlink" zoomAndPan="magnify" preserveAspectRatio="xMidYMid meet" version="1.2" viewBox="0 0 89.74 89.74"><defs><clipPath id="aaf4008fac"><path d="M 0 0 L 89.738281 0 L 89.738281 89.738281 L 0 89.738281 Z M 0 0 "/></clipPath><clipPath id="f1053a5e46"><path d="M 18 0 L 71.738281 0 C 81.679688 0 89.738281 8.058594 89.738281 18 L 89.738281 71.738281 C 89.738281 81.679688 81.679688 89.738281 71.738281 89.738281 L 18 89.738281 C 8.058594 89.738281 0 81.679688 0 71.738281 L 0 18 C 0 8.058594 8.058594 0 18 0 Z M 18 0 "/></clipPath><linearGradient x1="128" gradientTransform="matrix(0.350543,0,0,0.350543,0.0000005,0.000002)" y1="0" x2="128" gradientUnits="userSpaceOnUse" y2="255.999992" id="35fb9cd74a"><stop style="stop-color:#000000;stop-opacity:1;" offset="0"/><stop style="stop-color:#010100;stop-opacity:1;" offset="0.00390625"/><stop style="stop-color:#020200;stop-opacity:1;" offset="0.0078125"/><stop style="stop-color:#030200;stop-opacity:1;" offset="0.0117188"/><stop style="stop-color:#040300;stop-opacity:1;" offset="0.015625"/><stop style="stop-color:#050400;stop-opacity:1;" offset="0.0195313"/><stop style="stop-color:#060500;stop-opacity:1;" offset="0.0234375"/><stop style="stop-color:#070600;stop-opacity:1;" offset="0.0273438"/><stop style="stop-color:#080600;stop-opacity:1;" offset="0.03125"/><stop style="stop-color:#090700;stop-opacity:1;" offset="0.0351563"/><stop style="stop-color:#0a0800;stop-opacity:1;" offset="0.0390625"/><stop style="stop-color:#0b0900;stop-opacity:1;" offset="0.0429688"/><stop style="stop-color:#0c0a00;stop-opacity:1;" offset="0.046875"/><stop style="stop-color:#0d0a00;stop-opacity:1;" offset="0.0507812"/><stop style="stop-color:#0e0b00;stop-opacity:1;" offset="0.0546875"/><stop style="stop-color:#0f0c00;stop-opacity:1;" offset="0.0585938"/><stop style="stop-color:#100d00;stop-opacity:1;" offset="0.0625"/><stop style="stop-color:#110e00;stop-opacity:1;" offset="0.0664062"/><stop style="stop-color:#120e00;stop-opacity:1;" offset="0.0703125"/><stop style="stop-color:#130f00;stop-opacity:1;" offset="0.0742188"/><stop style="stop-color:#141000;stop-opacity:1;" offset="0.078125"/><stop style="stop-color:#151100;stop-opacity:1;" offset="0.0820313"/><stop style="stop-color:#161200;stop-opacity:1;" offset="0.0859375"/><stop style="stop-color:#171200;stop-opacity:1;" offset="0.0898438"/><stop style="stop-color:#181300;stop-opacity:1;" offset="0.09375"/><stop style="stop-color:#191400;stop-opacity:1;" offset="0.0976562"/><stop style="stop-color:#191500;stop-opacity:1;" offset="0.101562"/><stop style="stop-color:#1a1600;stop-opacity:1;" offset="0.105469"/><stop style="stop-color:#1b1600;stop-opacity:1;" offset="0.109375"/><stop style="stop-color:#1c1700;stop-opacity:1;" offset="0.113281"/><stop style="stop-color:#1d1800;stop-opacity:1;" offset="0.117188"/><stop style="stop-color:#1e1900;stop-opacity:1;" offset="0.121094"/><stop style="stop-color:#1f1901;stop-opacity:1;" offset="0.125"/><stop style="stop-color:#201a01;stop-opacity:1;" offset="0.128906"/><stop style="stop-color:#211b01;stop-opacity:1;" offset="0.132812"/><stop style="stop-color:#221c01;stop-opacity:1;" offset="0.136719"/><stop style="stop-color:#231d01;stop-opacity:1;" offset="0.140625"/><stop style="stop-color:#241d01;stop-opacity:1;" offset="0.144531"/><stop style="stop-color:#251e01;stop-opacity:1;" offset="0.148438"/><stop style="stop-color:#261f01;stop-opacity:1;" offset="0.152344"/><stop style="stop-color:#272001;stop-opacity:1;" offset="0.15625"/><stop style="stop-color:#282101;stop-opacity:1;" offset="0.160156"/><stop style="stop-color:#292101;stop-opacity:1;" offset="0.164063"/><stop style="stop-color:#2a2201;stop-opacity:1;" offset="0.167969"/><stop style="stop-color:#2b2301;stop-opacity:1;" offset="0.171875"/><stop style="stop-color:#2c2401;stop-opacity:1;" offset="0.175781"/><stop style="stop-color:#2d2501;stop-opacity:1;" offset="0.179688"/><stop style="stop-color:#2e2501;stop-opacity:1;" offset="0.183594"/><stop style="stop-color:#2f2601;stop-opacity:1;" offset="0.1875"/><stop style="stop-color:#302701;stop-opacity:1;" offset="0.191406"/><stop style="stop-color:#312801;stop-opacity:1;" offset="0.195312"/><stop style="stop-color:#322901;stop-opacity:1;" offset="0.199219"/><stop style="stop-color:#332901;stop-opacity:1;" offset="0.203125"/><stop style="stop-color:#342a01;stop-opacity:1;" offset="0.207031"/><stop style="stop-color:#352b01;stop-opacity:1;" offset="0.210938"/><stop style="stop-color:#362c01;stop-opacity:1;" offset="0.214844"/><stop style="stop-color:#372d01;stop-opacity:1;" offset="0.21875"/><stop style="stop-color:#382d01;stop-opacity:1;" offset="0.222656"/><stop style="stop-color:#392e01;stop-opacity:1;" offset="0.226562"/><stop style="stop-color:#3a2f01;stop-opacity:1;" offset="0.230469"/><stop style="stop-color:#3b3001;stop-opacity:1;" offset="0.234375"/><stop style="stop-color:#3c3101;stop-opacity:1;" offset="0.238281"/><stop style="stop-color:#3d3101;stop-opacity:1;" offset="0.242188"/><stop style="stop-color:#3e3201;stop-opacity:1;" offset="0.246094"/><stop style="stop-color:#3f3301;stop-opacity:1;" offset="0.25"/><stop style="stop-color:#403401;stop-opacity:1;" offset="0.253906"/><stop style="stop-color:#413501;stop-opacity:1;" offset="0.257812"/><stop style="stop-color:#423501;stop-opacity:1;" offset="0.261719"/><stop style="stop-color:#433601;stop-opacity:1;" offset="0.265625"/><stop style="stop-color:#443701;stop-opacity:1;" offset="0.269531"/><stop style="stop-color:#453801;stop-opacity:1;" offset="0.273438"/><stop style="stop-color:#463901;stop-opacity:1;" offset="0.277344"/><stop style="stop-color:#473901;stop-opacity:1;" offset="0.28125"/><stop style="stop-color:#483a01;stop-opacity:1;" offset="0.285156"/><stop style="stop-color:#493b01;stop-opacity:1;" offset="0.289063"/><stop style="stop-color:#4a3c01;stop-opacity:1;" offset="0.292969"/><stop style="stop-color:#4a3d01;stop-opacity:1;" offset="0.296875"/><stop style="stop-color:#4b3d01;stop-opacity:1;" offset="0.300781"/><stop style="stop-color:#4c3e01;stop-opacity:1;" offset="0.304688"/><stop style="stop-color:#4d3f01;stop-opacity:1;" offset="0.308594"/><stop style="stop-color:#4e4001;stop-opacity:1;" offset="0.3125"/><stop style="stop-color:#4f4101;stop-opacity:1;" offset="0.316406"/><stop style="stop-color:#504101;stop-opacity:1;" offset="0.320313"/><stop style="stop-color:#514201;stop-opacity:1;" offset="0.324219"/><stop style="stop-color:#524301;stop-opacity:1;" offset="0.328125"/><stop style="stop-color:#534401;stop-opacity:1;" offset="0.332031"/><stop style="stop-color:#544501;stop-opacity:1;" offset="0.335938"/><stop style="stop-color:#554501;stop-opacity:1;" offset="0.339844"/><stop style="stop-color:#564601;stop-opacity:1;" offset="0.34375"/><stop style="stop-color:#574701;stop-opacity:1;" offset="0.347656"/><stop style="stop-color:#584801;stop-opacity:1;" offset="0.351563"/><stop style="stop-color:#594901;stop-opacity:1;" offset="0.355469"/><stop style="stop-color:#5a4901;stop-opacity:1;" offset="0.359375"/><stop style="stop-color:#5b4a01;stop-opacity:1;" offset="0.363281"/><stop style="stop-color:#5c4b01;stop-opacity:1;" offset="0.367188"/><stop style="stop-color:#5d4c02;stop-opacity:1;" offset="0.371094"/><stop style="stop-color:#5e4c02;stop-opacity:1;" offset="0.375"/><stop style="stop-color:#5f4d02;stop-opacity:1;" offset="0.378906"/><stop style="stop-color:#604e02;stop-opacity:1;" offset="0.382813"/><stop style="stop-color:#614f02;stop-opacity:1;" offset="0.386719"/><stop style="stop-color:#625002;stop-opacity:1;" offset="0.390625"/><stop style="stop-color:#635002;stop-opacity:1;" offset="0.394531"/><stop style="stop-color:#645102;stop-opacity:1;" offset="0.398438"/><stop style="stop-color:#655202;stop-opacity:1;" offset="0.402344"/><stop style="stop-color:#665302;stop-opacity:1;" offset="0.40625"/><stop style="stop-color:#675402;stop-opacity:1;" offset="0.410156"/><stop style="stop-color:#685402;stop-opacity:1;" offset="0.414063"/><stop style="stop-color:#695502;stop-opacity:1;" offset="0.417969"/><stop style="stop-color:#6a5602;stop-opacity:1;" offset="0.421875"/><stop style="stop-color:#6b5702;stop-opacity:1;" offset="0.425781"/><stop style="stop-color:#6c5802;stop-opacity:1;" offset="0.429688"/><stop style="stop-color:#6d5802;stop-opacity:1;" offset="0.433594"/><stop style="stop-color:#6e5902;stop-opacity:1;" offset="0.4375"/><stop style="stop-color:#6f5a02;stop-opacity:1;" offset="0.441406"/><stop style="stop-color:#705b02;stop-opacity:1;" offset="0.445313"/><stop style="stop-color:#715c02;stop-opacity:1;" offset="0.449219"/><stop style="stop-color:#725c02;stop-opacity:1;" offset="0.453125"/><stop style="stop-color:#735d02;stop-opacity:1;" offset="0.457031"/><stop style="stop-color:#745e02;stop-opacity:1;" offset="0.460938"/><stop style="stop-color:#755f02;stop-opacity:1;" offset="0.464844"/><stop style="stop-color:#766002;stop-opacity:1;" offset="0.46875"/><stop style="stop-color:#776002;stop-opacity:1;" offset="0.472656"/><stop style="stop-color:#786102;stop-opacity:1;" offset="0.476563"/><stop style="stop-color:#796202;stop-opacity:1;" offset="0.480469"/><stop style="stop-color:#7a6302;stop-opacity:1;" offset="0.484375"/><stop style="stop-color:#7b6402;stop-opacity:1;" offset="0.488281"/><stop style="stop-color:#7b6402;stop-opacity:1;" offset="0.492188"/><stop style="stop-color:#7c6502;stop-opacity:1;" offset="0.496094"/><stop style="stop-color:#7d6602;stop-opacity:1;" offset="0.5"/><stop style="stop-color:#7e6702;stop-opacity:1;" offset="0.503906"/><stop style="stop-color:#7f6802;stop-opacity:1;" offset="0.507812"/><stop style="stop-color:#806802;stop-opacity:1;" offset="0.511719"/><stop style="stop-color:#816902;stop-opacity:1;" offset="0.515625"/><stop style="stop-color:#826a02;stop-opacity:1;" offset="0.519531"/><stop style="stop-color:#836b02;stop-opacity:1;" offset="0.523438"/><stop style="stop-color:#846c02;stop-opacity:1;" offset="0.527344"/><stop style="stop-color:#856c02;stop-opacity:1;" offset="0.53125"/><stop style="stop-color:#866d02;stop-opacity:1;" offset="0.535156"/><stop style="stop-color:#876e02;stop-opacity:1;" offset="0.539062"/><stop style="stop-color:#886f02;stop-opacity:1;" offset="0.542969"/><stop style="stop-color:#897002;stop-opacity:1;" offset="0.546875"/><stop style="stop-color:#8a7002;stop-opacity:1;" offset="0.550781"/><stop style="stop-color:#8b7102;stop-opacity:1;" offset="0.554688"/><stop style="stop-color:#8c7202;stop-opacity:1;" offset="0.558594"/><stop style="stop-color:#8d7302;stop-opacity:1;" offset="0.5625"/><stop style="stop-color:#8e7402;stop-opacity:1;" offset="0.566406"/><stop style="stop-color:#8f7402;stop-opacity:1;" offset="0.570313"/><stop style="stop-color:#907502;stop-opacity:1;" offset="0.574219"/><stop style="stop-color:#917602;stop-opacity:1;" offset="0.578125"/><stop style="stop-color:#927702;stop-opacity:1;" offset="0.582031"/><stop style="stop-color:#937802;stop-opacity:1;" offset="0.585938"/><stop style="stop-color:#947802;stop-opacity:1;" offset="0.589844"/><stop style="stop-color:#957902;stop-opacity:1;" offset="0.59375"/><stop style="stop-color:#967a02;stop-opacity:1;" offset="0.597656"/><stop style="stop-color:#977b02;stop-opacity:1;" offset="0.601563"/><stop style="stop-color:#987c02;stop-opacity:1;" offset="0.605469"/><stop style="stop-color:#997c02;stop-opacity:1;" offset="0.609375"/><stop style="stop-color:#9a7d02;stop-opacity:1;" offset="0.613281"/><stop style="stop-color:#9b7e03;stop-opacity:1;" offset="0.617188"/><stop style="stop-color:#9c7f03;stop-opacity:1;" offset="0.621094"/><stop style="stop-color:#9d7f03;stop-opacity:1;" offset="0.625"/><stop style="stop-color:#9e8003;stop-opacity:1;" offset="0.628906"/><stop style="stop-color:#9f8103;stop-opacity:1;" offset="0.632813"/><stop style="stop-color:#a08203;stop-opacity:1;" offset="0.636719"/><stop style="stop-color:#a18303;stop-opacity:1;" offset="0.640625"/><stop style="stop-color:#a28303;stop-opacity:1;" offset="0.644531"/><stop style="stop-color:#a38403;stop-opacity:1;" offset="0.648438"/><stop style="stop-color:#a48503;stop-opacity:1;" offset="0.652344"/><stop style="stop-color:#a58603;stop-opacity:1;" offset="0.65625"/><stop style="stop-color:#a68703;stop-opacity:1;" offset="0.660156"/><stop style="stop-color:#a78703;stop-opacity:1;" offset="0.664063"/><stop style="stop-color:#a88803;stop-opacity:1;" offset="0.667969"/><stop style="stop-color:#a98903;stop-opacity:1;" offset="0.671875"/><stop style="stop-color:#aa8a03;stop-opacity:1;" offset="0.675781"/><stop style="stop-color:#ab8b03;stop-opacity:1;" offset="0.679688"/><stop style="stop-color:#ac8b03;stop-opacity:1;" offset="0.683594"/><stop style="stop-color:#ad8c03;stop-opacity:1;" offset="0.6875"/><stop style="stop-color:#ad8d03;stop-opacity:1;" offset="0.691406"/><stop style="stop-color:#ae8e03;stop-opacity:1;" offset="0.695313"/><stop style="stop-color:#af8f03;stop-opacity:1;" offset="0.699219"/><stop style="stop-color:#b08f03;stop-opacity:1;" offset="0.703125"/><stop style="stop-color:#b19003;stop-opacity:1;" offset="0.707031"/><stop style="stop-color:#b29103;stop-opacity:1;" offset="0.710938"/><stop style="stop-color:#b39203;stop-opacity:1;" offset="0.714844"/><stop style="stop-color:#b49303;stop-opacity:1;" offset="0.71875"/><stop style="stop-color:#b59303;stop-opacity:1;" offset="0.722656"/><stop style="stop-color:#b69403;stop-opacity:1;" offset="0.726563"/><stop style="stop-color:#b79503;stop-opacity:1;" offset="0.730469"/><stop style="stop-color:#b89603;stop-opacity:1;" offset="0.734375"/><stop style="stop-color:#b99703;stop-opacity:1;" offset="0.738281"/><stop style="stop-color:#ba9703;stop-opacity:1;" offset="0.742188"/><stop style="stop-color:#bb9803;stop-opacity:1;" offset="0.746094"/><stop style="stop-color:#bc9903;stop-opacity:1;" offset="0.75"/><stop style="stop-color:#bd9a03;stop-opacity:1;" offset="0.753906"/><stop style="stop-color:#be9b03;stop-opacity:1;" offset="0.757813"/><stop style="stop-color:#bf9b03;stop-opacity:1;" offset="0.761719"/><stop style="stop-color:#c09c03;stop-opacity:1;" offset="0.765625"/><stop style="stop-color:#c19d03;stop-opacity:1;" offset="0.769531"/><stop style="stop-color:#c29e03;stop-opacity:1;" offset="0.773438"/><stop style="stop-color:#c39f03;stop-opacity:1;" offset="0.777344"/><stop style="stop-color:#c49f03;stop-opacity:1;" offset="0.78125"/><stop style="stop-color:#c5a003;stop-opacity:1;" offset="0.785156"/><stop style="stop-color:#c6a103;stop-opacity:1;" offset="0.789063"/><stop style="stop-color:#c7a203;stop-opacity:1;" offset="0.792969"/><stop style="stop-color:#c8a303;stop-opacity:1;" offset="0.796875"/><stop style="stop-color:#c9a303;stop-opacity:1;" offset="0.800781"/><stop style="stop-color:#caa403;stop-opacity:1;" offset="0.804688"/><stop style="stop-color:#cba503;stop-opacity:1;" offset="0.808594"/><stop style="stop-color:#cca603;stop-opacity:1;" offset="0.8125"/><stop style="stop-color:#cda703;stop-opacity:1;" offset="0.816406"/><stop style="stop-color:#cea703;stop-opacity:1;" offset="0.820313"/><stop style="stop-color:#cfa803;stop-opacity:1;" offset="0.824219"/><stop style="stop-color:#d0a903;stop-opacity:1;" offset="0.828125"/><stop style="stop-color:#d1aa03;stop-opacity:1;" offset="0.832031"/><stop style="stop-color:#d2ab03;stop-opacity:1;" offset="0.835938"/><stop style="stop-color:#d3ab03;stop-opacity:1;" offset="0.839844"/><stop style="stop-color:#d4ac03;stop-opacity:1;" offset="0.84375"/><stop style="stop-color:#d5ad03;stop-opacity:1;" offset="0.847656"/><stop style="stop-color:#d6ae03;stop-opacity:1;" offset="0.851563"/><stop style="stop-color:#d7af03;stop-opacity:1;" offset="0.855469"/><stop style="stop-color:#d8af04;stop-opacity:1;" offset="0.859375"/><stop style="stop-color:#d9b004;stop-opacity:1;" offset="0.863281"/><stop style="stop-color:#dab104;stop-opacity:1;" offset="0.867188"/><stop style="stop-color:#dbb204;stop-opacity:1;" offset="0.871094"/><stop style="stop-color:#dcb204;stop-opacity:1;" offset="0.875"/><stop style="stop-color:#ddb304;stop-opacity:1;" offset="0.878906"/><stop style="stop-color:#deb404;stop-opacity:1;" offset="0.882812"/><stop style="stop-color:#deb504;stop-opacity:1;" offset="0.886719"/><stop style="stop-color:#dfb604;stop-opacity:1;" offset="0.890625"/><stop style="stop-color:#e0b604;stop-opacity:1;" offset="0.894531"/><stop style="stop-color:#e1b704;stop-opacity:1;" offset="0.898438"/><stop style="stop-color:#e2b804;stop-opacity:1;" offset="0.902344"/><stop style="stop-color:#e3b904;stop-opacity:1;" offset="0.90625"/><stop style="stop-color:#e4ba04;stop-opacity:1;" offset="0.910156"/><stop style="stop-color:#e5ba04;stop-opacity:1;" offset="0.914062"/><stop style="stop-color:#e6bb04;stop-opacity:1;" offset="0.917969"/><stop style="stop-color:#e7bc04;stop-opacity:1;" offset="0.921875"/><stop style="stop-color:#e8bd04;stop-opacity:1;" offset="0.925781"/><stop style="stop-color:#e9be04;stop-opacity:1;" offset="0.929688"/><stop style="stop-color:#eabe04;stop-opacity:1;" offset="0.933594"/><stop style="stop-color:#ebbf04;stop-opacity:1;" offset="0.9375"/><stop style="stop-color:#ecc004;stop-opacity:1;" offset="0.941406"/><stop style="stop-color:#edc104;stop-opacity:1;" offset="0.945312"/><stop style="stop-color:#eec204;stop-opacity:1;" offset="0.949219"/><stop style="stop-color:#efc204;stop-opacity:1;" offset="0.953125"/><stop style="stop-color:#f0c304;stop-opacity:1;" offset="0.957031"/><stop style="stop-color:#f1c404;stop-opacity:1;" offset="0.960938"/><stop style="stop-color:#f2c504;stop-opacity:1;" offset="0.964844"/><stop style="stop-color:#f3c604;stop-opacity:1;" offset="0.96875"/><stop style="stop-color:#f4c604;stop-opacity:1;" offset="0.972656"/><stop style="stop-color:#f5c704;stop-opacity:1;" offset="0.976562"/><stop style="stop-color:#f6c804;stop-opacity:1;" offset="0.980469"/><stop style="stop-color:#f7c904;stop-opacity:1;" offset="0.984375"/><stop style="stop-color:#f8ca04;stop-opacity:1;" offset="0.988281"/><stop style="stop-color:#f9ca04;stop-opacity:1;" offset="0.992188"/><stop style="stop-color:#facb04;stop-opacity:1;" offset="0.996094"/><stop style="stop-color:#fbcc04;stop-opacity:1;" offset="1"/></linearGradient><clipPath id="e57b51c84d"><path d="M 65 30 L 75.671875 30 L 75.671875 51 L 65 51 Z M 65 30 "/></clipPath><clipPath id="c899e7148e"><path d="M 14.171875 30 L 25 30 L 25 51 L 14.171875 51 Z M 14.171875 30 "/></clipPath><clipPath id="8e33f91d74"><path d="M 43 14.171875 L 46 14.171875 L 46 21 L 43 21 Z M 43 14.171875 "/></clipPath><clipPath id="931611f5ab"><path d="M 43 69 L 46 69 L 46 75.671875 L 43 75.671875 Z M 43 69 "/></clipPath></defs><g id="c548696eaf"><g clip-rule="nonzero" clip-path="url(#aaf4008fac)"><g clip-rule="nonzero" clip-path="url(#f1053a5e46)"><path style=" stroke:none;fill-rule:nonzero;fill:url(#linear0);" d="M 0 0 L 0 89.738281 L 89.738281 89.738281 L 89.738281 0 Z M 0 0 "/></g></g><path style=" stroke:none;fill-rule:nonzero;fill:#000;fill-opacity:1;" d="M 45.636719 36.914062 Z M 62.132812 54.671875 C 61.390625 54.671875 60.644531 54.429688 60.015625 53.941406 L 54.347656 49.546875 C 53.914062 49.210938 53.835938 48.59375 54.171875 48.160156 C 54.507812 47.726562 55.128906 47.648438 55.558594 47.980469 L 61.226562 52.375 C 61.824219 52.839844 62.683594 52.777344 63.203125 52.246094 C 63.539062 51.898438 63.6875 51.496094 63.660156 51.070312 C 63.636719 50.648438 63.433594 50.257812 63.09375 49.992188 L 61.75 48.941406 C 59.601562 47.25 55.480469 44.023438 51.847656 41.289062 C 51.820312 41.269531 51.792969 41.25 51.765625 41.230469 C 47.382812 37.925781 46.101562 37.132812 45.726562 36.953125 C 44.871094 37.050781 43.746094 38.117188 42.746094 39.058594 C 41.429688 40.304688 40.070312 41.589844 38.550781 41.589844 C 35.808594 41.589844 34.25 39.617188 34.183594 39.53125 C 33.890625 39.15625 33.910156 38.625 34.222656 38.265625 C 34.746094 37.675781 35.515625 36.566406 36.261719 35.488281 C 37.726562 33.367188 38.671875 32.042969 39.425781 31.546875 C 40.277344 30.976562 42.34375 30.113281 44.636719 29.566406 C 46.128906 29.207031 47.539062 29.023438 48.824219 29.023438 C 51.109375 29.023438 54.546875 30.382812 57.582031 31.578125 C 59.25 32.238281 61.140625 32.984375 61.695312 32.984375 L 66.960938 32.984375 C 67.507812 32.984375 67.953125 33.429688 67.953125 33.972656 C 67.953125 34.519531 67.507812 34.964844 66.960938 34.964844 L 61.695312 34.964844 C 60.804688 34.964844 59.351562 34.40625 56.851562 33.421875 C 54.128906 32.34375 50.734375 31.003906 48.824219 31.003906 C 47.710938 31.003906 46.421875 31.175781 45.097656 31.492188 C 42.925781 32.007812 41.117188 32.796875 40.523438 33.191406 C 40.027344 33.523438 38.789062 35.308594 37.886719 36.617188 C 37.328125 37.425781 36.785156 38.207031 36.304688 38.839844 C 36.78125 39.199219 37.542969 39.609375 38.550781 39.609375 C 39.28125 39.609375 40.398438 38.554688 41.382812 37.621094 C 42.769531 36.3125 44.199219 34.964844 45.855469 34.964844 C 46.308594 34.964844 46.738281 34.964844 52.878906 39.589844 C 52.910156 39.609375 52.9375 39.628906 52.964844 39.648438 C 56.628906 42.40625 60.804688 45.675781 62.972656 47.382812 L 64.324219 48.4375 C 65.105469 49.066406 65.578125 49.976562 65.632812 50.949219 C 65.703125 51.917969 65.351562 52.886719 64.65625 53.585938 C 63.960938 54.308594 63.050781 54.671875 62.132812 54.671875 "/><path style=" stroke:none;fill-rule:nonzero;fill:#000;fill-opacity:1;" d="M 58.355469 58.351562 C 57.585938 58.351562 56.816406 58.097656 56.179688 57.589844 L 50.800781 53.246094 C 50.378906 52.902344 50.308594 52.277344 50.652344 51.851562 C 51 51.429688 51.621094 51.363281 52.046875 51.707031 L 57.425781 56.046875 C 58.003906 56.507812 58.832031 56.472656 59.371094 55.976562 L 59.574219 55.78125 C 59.894531 55.484375 60.066406 55.0625 60.046875 54.628906 C 60.023438 54.191406 59.816406 53.792969 59.472656 53.523438 L 59.324219 53.410156 C 58.890625 53.074219 58.808594 52.457031 59.144531 52.023438 C 59.480469 51.585938 60.097656 51.507812 60.53125 51.839844 L 60.683594 51.957031 C 61.492188 52.582031 61.976562 53.523438 62.023438 54.535156 C 62.070312 55.554688 61.671875 56.53125 60.929688 57.230469 L 60.726562 57.417969 C 60.0625 58.035156 59.207031 58.351562 58.355469 58.351562 "/><path style=" stroke:none;fill-rule:nonzero;fill:#000;fill-opacity:1;" d="M 53.578125 61.347656 C 52.78125 61.347656 51.980469 61.066406 51.332031 60.507812 L 46.140625 56.074219 C 45.722656 55.71875 45.675781 55.09375 46.027344 54.679688 C 46.382812 54.261719 47.011719 54.214844 47.425781 54.566406 L 52.613281 59.003906 C 53.179688 59.484375 53.992188 59.484375 54.550781 58.996094 L 54.878906 58.714844 C 55.203125 58.433594 55.382812 58.027344 55.375 57.601562 C 55.367188 57.175781 55.175781 56.773438 54.84375 56.503906 C 54.417969 56.160156 54.347656 55.539062 54.691406 55.113281 C 55.035156 54.6875 55.660156 54.617188 56.082031 54.964844 C 56.875 55.601562 57.335938 56.546875 57.355469 57.570312 C 57.371094 58.582031 56.941406 59.550781 56.171875 60.214844 L 55.847656 60.496094 C 55.191406 61.0625 54.386719 61.347656 53.578125 61.347656 "/><path style=" stroke:none;fill-rule:nonzero;fill:#000;fill-opacity:1;" d="M 49.25 63.671875 C 48.566406 63.671875 47.878906 63.46875 47.285156 63.066406 L 44.164062 60.917969 C 43.714844 60.609375 43.601562 59.988281 43.910156 59.542969 C 44.21875 59.089844 44.835938 58.976562 45.285156 59.285156 L 48.40625 61.4375 C 48.953125 61.808594 49.6875 61.777344 50.195312 61.359375 C 50.464844 61.132812 50.625 60.804688 50.628906 60.453125 C 50.628906 60.113281 50.472656 59.785156 50.210938 59.558594 L 49.929688 59.316406 C 49.515625 58.960938 49.46875 58.339844 49.828125 57.925781 C 50.183594 57.507812 50.808594 57.460938 51.21875 57.816406 L 51.496094 58.050781 C 52.199219 58.65625 52.605469 59.539062 52.605469 60.46875 C 52.589844 61.417969 52.175781 62.292969 51.449219 62.886719 C 50.820312 63.410156 50.035156 63.671875 49.25 63.671875 "/><path style=" stroke:none;fill-rule:nonzero;fill:#000;fill-opacity:1;" d="M 52.371094 41.429688 L 52.359375 41.429688 C 51.808594 41.429688 51.371094 40.984375 51.371094 40.441406 C 51.371094 39.890625 51.808594 39.449219 52.359375 39.449219 C 52.90625 39.449219 53.355469 39.890625 53.355469 40.441406 C 53.355469 40.984375 52.917969 41.429688 52.371094 41.429688 "/><path style=" stroke:none;fill-rule:nonzero;fill:#000;fill-opacity:1;" d="M 27.578125 54.671875 C 26.671875 54.671875 25.769531 54.3125 25.101562 53.621094 C 24.378906 52.886719 24.027344 51.917969 24.097656 50.9375 C 24.152344 49.972656 24.621094 49.066406 25.394531 48.445312 L 27.117188 47.097656 C 27.304688 46.945312 27.535156 46.855469 27.765625 46.855469 C 28.3125 46.855469 28.757812 47.296875 28.757812 47.847656 C 28.757812 48.179688 28.589844 48.476562 28.332031 48.660156 L 26.625 50 C 26.296875 50.257812 26.097656 50.648438 26.074219 51.058594 C 26.042969 51.496094 26.1875 51.898438 26.484375 52.199219 C 27.011719 52.746094 27.777344 52.835938 28.367188 52.460938 C 28.753906 52.15625 29.3125 52.183594 29.671875 52.542969 C 30.058594 52.929688 30.058594 53.554688 29.671875 53.941406 C 29.640625 53.976562 29.589844 54.019531 29.542969 54.054688 C 29.523438 54.066406 29.503906 54.082031 29.484375 54.097656 C 28.902344 54.484375 28.238281 54.671875 27.578125 54.671875 "/><path style=" stroke:none;fill-rule:nonzero;fill:#000;fill-opacity:1;" d="M 28.933594 54.257812 C 28.683594 54.257812 28.429688 54.164062 28.234375 53.972656 C 27.847656 53.582031 27.847656 52.957031 28.234375 52.570312 C 28.269531 52.535156 28.320312 52.496094 28.367188 52.460938 L 30.074219 51.113281 C 30.40625 50.855469 30.605469 50.464844 30.628906 50.054688 C 30.660156 49.617188 30.511719 49.214844 30.21875 48.914062 C 29.6875 48.367188 28.914062 48.28125 28.332031 48.660156 C 28.039062 48.886719 27.625 48.9375 27.269531 48.75 C 26.78125 48.496094 26.59375 47.902344 26.851562 47.417969 C 26.933594 47.253906 27.0625 47.121094 27.21875 47.023438 L 27.21875 47.019531 C 28.597656 46.097656 30.4375 46.296875 31.597656 47.496094 C 32.320312 48.230469 32.675781 49.195312 32.605469 50.179688 C 32.550781 51.140625 32.078125 52.050781 31.304688 52.667969 L 29.585938 54.019531 C 29.570312 54.03125 29.558594 54.042969 29.546875 54.050781 C 29.363281 54.1875 29.152344 54.257812 28.933594 54.257812 "/><path style=" stroke:none;fill-rule:nonzero;fill:#000;fill-opacity:1;" d="M 28.035156 34.964844 L 22.765625 34.964844 C 22.21875 34.964844 21.777344 34.519531 21.777344 33.972656 C 21.777344 33.429688 22.21875 32.984375 22.765625 32.984375 L 28.035156 32.984375 C 28.585938 32.984375 30.476562 32.238281 32.148438 31.578125 C 35.179688 30.382812 38.617188 29.023438 40.90625 29.023438 C 42.1875 29.023438 43.601562 29.207031 45.097656 29.566406 C 45.625 29.691406 45.957031 30.230469 45.828125 30.761719 C 45.699219 31.289062 45.160156 31.617188 44.632812 31.492188 C 43.304688 31.175781 42.019531 31.003906 40.90625 31.003906 C 38.992188 31.003906 35.601562 32.34375 32.875 33.421875 C 30.378906 34.40625 28.921875 34.964844 28.035156 34.964844 "/><path style=" stroke:none;fill-rule:nonzero;fill:#000;fill-opacity:1;" d="M 34.789062 54.09375 Z M 31.371094 58.347656 C 30.511719 58.347656 29.660156 58.03125 29 57.417969 L 28.796875 57.226562 C 28.054688 56.535156 27.652344 55.550781 27.710938 54.53125 C 27.75 53.65625 28.117188 52.828125 28.75 52.214844 L 29.160156 51.867188 C 29.582031 51.515625 30.207031 51.574219 30.554688 51.992188 C 30.90625 52.410156 30.847656 53.035156 30.433594 53.382812 L 30.074219 53.683594 C 29.863281 53.894531 29.703125 54.25 29.683594 54.632812 C 29.660156 55.070312 29.832031 55.484375 30.152344 55.78125 L 30.359375 55.980469 C 30.890625 56.472656 31.726562 56.503906 32.304688 56.042969 L 34.628906 54.164062 C 34.636719 54.15625 34.667969 54.132812 34.699219 54.117188 C 34.707031 54.105469 34.722656 54.09375 34.734375 54.082031 L 34.882812 53.972656 C 35.210938 53.621094 35.753906 53.550781 36.164062 53.824219 C 36.617188 54.132812 36.734375 54.75 36.425781 55.203125 C 36.378906 55.273438 36.273438 55.386719 36.210938 55.441406 C 36.191406 55.457031 36.144531 55.503906 36.121094 55.519531 L 35.964844 55.636719 C 35.9375 55.65625 35.914062 55.675781 35.890625 55.6875 L 33.546875 57.585938 C 32.910156 58.09375 32.140625 58.347656 31.371094 58.347656 "/><path style=" stroke:none;fill-rule:nonzero;fill:#000;fill-opacity:1;" d="M 34.789062 54.089844 C 34.789062 54.09375 34.789062 54.09375 34.789062 54.09375 C 34.789062 54.09375 34.789062 54.09375 34.789062 54.089844 Z M 35.289062 55.882812 C 34.96875 55.882812 34.660156 55.738281 34.46875 55.46875 C 34.164062 55.023438 34.238281 54.4375 34.679688 54.125 C 34.6875 54.121094 34.761719 54.066406 34.773438 54.058594 L 34.832031 54.019531 C 34.84375 54.007812 34.859375 53.996094 34.875 53.984375 C 34.886719 53.96875 34.902344 53.953125 34.914062 53.9375 C 35.1875 53.675781 35.355469 53.308594 35.371094 52.9375 C 35.394531 52.496094 35.226562 52.082031 34.898438 51.773438 L 34.699219 51.582031 C 34.167969 51.082031 33.324219 51.054688 32.753906 51.515625 L 30.074219 53.683594 C 29.65625 54.035156 29.03125 53.980469 28.679688 53.558594 C 28.328125 53.140625 28.386719 52.515625 28.804688 52.164062 L 29.160156 51.867188 L 31.511719 49.972656 C 32.847656 48.898438 34.804688 48.972656 36.054688 50.144531 L 36.261719 50.332031 C 37.007812 51.035156 37.40625 52.023438 37.351562 53.035156 C 37.308594 53.90625 36.9375 54.730469 36.300781 55.347656 C 36.269531 55.386719 36.238281 55.417969 36.210938 55.441406 C 36.195312 55.457031 36.144531 55.5 36.125 55.515625 L 35.871094 55.707031 C 35.691406 55.824219 35.488281 55.882812 35.289062 55.882812 "/><path style=" stroke:none;fill-rule:nonzero;fill:#000;fill-opacity:1;" d="M 36.148438 61.34375 C 35.34375 61.34375 34.539062 61.058594 33.882812 60.492188 L 33.5625 60.226562 C 32.785156 59.550781 32.359375 58.582031 32.371094 57.574219 C 32.398438 56.539062 32.863281 55.597656 33.648438 54.964844 C 34.078125 54.617188 34.699219 54.6875 35.042969 55.113281 C 35.386719 55.539062 35.316406 56.164062 34.890625 56.503906 C 34.5625 56.777344 34.359375 57.179688 34.347656 57.617188 C 34.34375 58.027344 34.527344 58.4375 34.851562 58.722656 L 35.167969 58.988281 C 35.738281 59.480469 36.550781 59.480469 37.113281 59 L 39.546875 56.921875 C 39.597656 56.878906 39.648438 56.839844 39.691406 56.796875 C 40.078125 56.410156 40.703125 56.410156 41.089844 56.796875 C 41.476562 57.1875 41.476562 57.8125 41.089844 58.199219 C 41.011719 58.277344 40.921875 58.355469 40.832031 58.429688 L 38.398438 60.507812 C 37.746094 61.066406 36.949219 61.34375 36.148438 61.34375 "/><path style=" stroke:none;fill-rule:nonzero;fill:#000;fill-opacity:1;" d="M 40.191406 58.667969 C 39.910156 58.667969 39.632812 58.546875 39.433594 58.316406 C 39.082031 57.898438 39.132812 57.273438 39.550781 56.917969 C 39.597656 56.878906 39.648438 56.839844 39.691406 56.796875 C 39.945312 56.539062 40.097656 56.179688 40.105469 55.808594 C 40.109375 55.386719 39.921875 54.976562 39.609375 54.707031 L 39.273438 54.414062 C 38.726562 53.9375 37.894531 53.9375 37.339844 54.410156 L 34.914062 56.484375 C 34.5 56.84375 33.875 56.796875 33.519531 56.382812 C 33.160156 55.964844 33.210938 55.339844 33.625 54.984375 L 36.050781 52.90625 C 37.351562 51.800781 39.296875 51.804688 40.574219 52.921875 L 40.90625 53.207031 C 41.667969 53.859375 42.097656 54.820312 42.085938 55.839844 C 42.070312 56.722656 41.703125 57.582031 41.089844 58.199219 C 41.011719 58.277344 40.921875 58.355469 40.832031 58.429688 C 40.644531 58.585938 40.417969 58.667969 40.191406 58.667969 "/><path style=" stroke:none;fill-rule:nonzero;fill:#000;fill-opacity:1;" d="M 40.480469 63.671875 C 39.691406 63.671875 38.90625 63.40625 38.273438 62.882812 C 37.554688 62.292969 37.136719 61.421875 37.121094 60.480469 C 37.121094 59.539062 37.527344 58.65625 38.230469 58.050781 L 38.511719 57.816406 C 38.925781 57.460938 39.550781 57.507812 39.902344 57.925781 C 40.257812 58.339844 40.210938 58.960938 39.796875 59.316406 L 39.519531 59.558594 C 39.253906 59.785156 39.101562 60.117188 39.101562 60.46875 C 39.105469 60.804688 39.265625 61.132812 39.53125 61.355469 C 40.046875 61.777344 40.78125 61.804688 41.324219 61.433594 L 43.53125 59.914062 C 43.976562 59.597656 44.59375 59.710938 44.90625 60.164062 C 45.214844 60.613281 45.105469 61.226562 44.65625 61.539062 L 42.449219 63.066406 C 41.855469 63.46875 41.164062 63.671875 40.480469 63.671875 "/><path style=" stroke:none;fill-rule:nonzero;fill:#000;fill-opacity:1;" d="M 44.089844 61.714844 C 43.8125 61.714844 43.535156 61.597656 43.339844 61.367188 C 42.984375 60.953125 43.03125 60.328125 43.449219 59.972656 L 43.722656 59.734375 C 43.992188 59.507812 44.140625 59.175781 44.140625 58.8125 C 44.136719 58.480469 43.980469 58.15625 43.710938 57.9375 C 43.203125 57.515625 42.46875 57.484375 41.921875 57.859375 L 39.714844 59.382812 C 39.265625 59.6875 38.644531 59.574219 38.335938 59.128906 C 38.027344 58.679688 38.140625 58.0625 38.589844 57.753906 L 40.796875 56.226562 C 42.074219 55.355469 43.785156 55.429688 44.96875 56.40625 C 45.6875 56.996094 46.105469 57.867188 46.121094 58.796875 C 46.121094 59.75 45.714844 60.636719 45.015625 61.238281 L 44.738281 61.476562 C 44.546875 61.636719 44.320312 61.714844 44.089844 61.714844 "/><path style=" stroke:none;fill-rule:nonzero;fill:#000;fill-opacity:1;" d="M 27.367188 49.152344 C 27.160156 49.152344 26.945312 49.082031 26.765625 48.945312 C 26.171875 48.492188 25.070312 48.003906 21.375 47.875 C 20.828125 47.855469 20.398438 47.394531 20.421875 46.847656 C 20.441406 46.304688 20.917969 45.867188 21.445312 45.894531 C 24.875 46.015625 26.765625 46.445312 27.976562 47.378906 C 28.410156 47.710938 28.492188 48.332031 28.152344 48.765625 C 27.960938 49.019531 27.667969 49.152344 27.367188 49.152344 "/><path style=" stroke:none;fill-rule:nonzero;fill:#000;fill-opacity:1;" d="M 62.359375 49.152344 C 62.0625 49.152344 61.769531 49.019531 61.574219 48.765625 C 61.238281 48.332031 61.320312 47.710938 61.753906 47.378906 C 62.964844 46.445312 64.855469 46.015625 68.285156 45.894531 C 68.824219 45.871094 69.285156 46.304688 69.308594 46.847656 C 69.328125 47.394531 68.898438 47.855469 68.355469 47.875 C 64.65625 48.003906 63.554688 48.492188 62.964844 48.945312 C 62.78125 49.082031 62.570312 49.152344 62.359375 49.152344 "/><g clip-rule="nonzero" clip-path="url(#e57b51c84d)"><path style=" stroke:none;fill-rule:nonzero;fill:#000;fill-opacity:1;" d="M 74.566406 50.804688 L 68.625 50.804688 C 68.117188 50.804688 67.695312 50.421875 67.644531 49.917969 L 65.664062 31.109375 C 65.632812 30.828125 65.722656 30.550781 65.910156 30.34375 C 66.097656 30.132812 66.367188 30.015625 66.644531 30.015625 L 74.566406 30.015625 C 75.109375 30.015625 75.554688 30.457031 75.554688 31.003906 C 75.554688 31.550781 75.109375 31.992188 74.566406 31.992188 L 67.742188 31.992188 L 69.519531 48.824219 L 74.566406 48.824219 C 75.109375 48.824219 75.554688 49.269531 75.554688 49.816406 C 75.554688 50.359375 75.109375 50.804688 74.566406 50.804688 "/></g><g clip-rule="nonzero" clip-path="url(#c899e7148e)"><path style=" stroke:none;fill-rule:nonzero;fill:#000;fill-opacity:1;" d="M 21.105469 50.804688 L 15.164062 50.804688 C 14.617188 50.804688 14.171875 50.359375 14.171875 49.816406 C 14.171875 49.269531 14.617188 48.824219 15.164062 48.824219 L 20.214844 48.824219 L 21.984375 31.992188 L 15.164062 31.992188 C 14.617188 31.992188 14.171875 31.550781 14.171875 31.003906 C 14.171875 30.457031 14.617188 30.015625 15.164062 30.015625 L 23.082031 30.015625 C 23.363281 30.015625 23.632812 30.132812 23.820312 30.34375 C 24.007812 30.550781 24.097656 30.828125 24.066406 31.109375 L 22.085938 49.917969 C 22.035156 50.421875 21.609375 50.804688 21.105469 50.804688 "/></g><g clip-rule="nonzero" clip-path="url(#8e33f91d74)"><path style=" stroke:none;fill-rule:nonzero;fill:#000;fill-opacity:1;" d="M 44.863281 20.113281 C 44.320312 20.113281 43.875 19.667969 43.875 19.125 L 43.875 15.164062 C 43.875 14.617188 44.320312 14.171875 44.863281 14.171875 C 45.410156 14.171875 45.855469 14.617188 45.855469 15.164062 L 45.855469 19.125 C 45.855469 19.667969 45.410156 20.113281 44.863281 20.113281 "/></g><g clip-rule="nonzero" clip-path="url(#931611f5ab)"><path style=" stroke:none;fill-rule:nonzero;fill:#000;fill-opacity:1;" d="M 44.863281 75.554688 C 44.320312 75.554688 43.875 75.109375 43.875 74.566406 L 43.875 70.605469 C 43.875 70.058594 44.320312 69.617188 44.863281 69.617188 C 45.410156 69.617188 45.855469 70.058594 45.855469 70.605469 L 45.855469 74.566406 C 45.855469 75.109375 45.410156 75.554688 44.863281 75.554688 "/></g><path style=" stroke:none;fill-rule:nonzero;fill:#000;fill-opacity:1;" d="M 57.734375 23.5625 C 57.566406 23.5625 57.394531 23.519531 57.238281 23.429688 C 56.769531 23.15625 56.601562 22.550781 56.875 22.078125 L 58.855469 18.648438 C 59.132812 18.171875 59.738281 18.007812 60.210938 18.285156 C 60.683594 18.558594 60.847656 19.164062 60.574219 19.636719 L 58.59375 23.066406 C 58.40625 23.386719 58.074219 23.5625 57.734375 23.5625 "/><path style=" stroke:none;fill-rule:nonzero;fill:#000;fill-opacity:1;" d="M 30.015625 71.578125 C 29.84375 71.578125 29.671875 71.535156 29.519531 71.445312 C 29.046875 71.171875 28.878906 70.566406 29.15625 70.089844 L 31.136719 66.660156 C 31.410156 66.1875 32.015625 66.027344 32.488281 66.296875 C 32.960938 66.570312 33.128906 67.179688 32.851562 67.652344 L 30.871094 71.082031 C 30.6875 71.398438 30.355469 71.578125 30.015625 71.578125 "/><path style=" stroke:none;fill-rule:nonzero;fill:#000;fill-opacity:1;" d="M 59.714844 71.578125 C 59.375 71.578125 59.042969 71.398438 58.855469 71.082031 L 56.875 67.652344 C 56.601562 67.179688 56.769531 66.570312 57.238281 66.296875 C 57.710938 66.027344 58.320312 66.1875 58.59375 66.660156 L 60.574219 70.089844 C 60.847656 70.566406 60.683594 71.171875 60.210938 71.445312 C 60.054688 71.535156 59.886719 71.578125 59.714844 71.578125 "/><path style=" stroke:none;fill-rule:nonzero;fill:#000;fill-opacity:1;" d="M 31.992188 23.5625 C 31.652344 23.5625 31.320312 23.386719 31.136719 23.066406 L 29.15625 19.636719 C 28.878906 19.164062 29.046875 18.558594 29.519531 18.285156 C 29.992188 18.007812 30.597656 18.171875 30.871094 18.648438 L 32.851562 22.078125 C 33.128906 22.550781 32.960938 23.15625 32.488281 23.429688 C 32.335938 23.519531 32.164062 23.5625 31.992188 23.5625 "/></g></svg>