<svg xmlns="http://www.w3.org/2000/svg" xmlns:xlink="http://www.w3.org/1999/xlink" zoomAndPan="magnify" preserveAspectRatio="xMidYMid meet" version="1.2" viewBox="0 0 89.74 89.74"><defs><clipPath id="bd3a015094"><path d="M 0 0 L 89.738281 0 L 89.738281 89.738281 L 0 89.738281 Z M 0 0 "/></clipPath><clipPath id="620229d99b"><path d="M 18 0 L 71.738281 0 C 81.679688 0 89.738281 8.058594 89.738281 18 L 89.738281 71.738281 C 89.738281 81.679688 81.679688 89.738281 71.738281 89.738281 L 18 89.738281 C 8.058594 89.738281 0 81.679688 0 71.738281 L 0 18 C 0 8.058594 8.058594 0 18 0 Z M 18 0 "/></clipPath><linearGradient x1="128" gradientTransform="matrix(0.350543,0,0,0.350543,0.0000005,0.000002)" y1="0.000000000000243238" x2="128" gradientUnits="userSpaceOnUse" y2="255.999992" id="da1707b3e5"><stop style="stop-color:#000000;stop-opacity:1;" offset="0"/><stop style="stop-color:#010100;stop-opacity:1;" offset="0.00390625"/><stop style="stop-color:#020200;stop-opacity:1;" offset="0.0078125"/><stop style="stop-color:#030200;stop-opacity:1;" offset="0.0117188"/><stop style="stop-color:#040300;stop-opacity:1;" offset="0.015625"/><stop style="stop-color:#050400;stop-opacity:1;" offset="0.0195312"/><stop style="stop-color:#060500;stop-opacity:1;" offset="0.0234375"/><stop style="stop-color:#070600;stop-opacity:1;" offset="0.0273438"/><stop style="stop-color:#080600;stop-opacity:1;" offset="0.03125"/><stop style="stop-color:#090700;stop-opacity:1;" offset="0.0351562"/><stop style="stop-color:#0a0800;stop-opacity:1;" offset="0.0390625"/><stop style="stop-color:#0b0900;stop-opacity:1;" offset="0.0429688"/><stop style="stop-color:#0c0a00;stop-opacity:1;" offset="0.046875"/><stop style="stop-color:#0d0a00;stop-opacity:1;" offset="0.0507812"/><stop style="stop-color:#0e0b00;stop-opacity:1;" offset="0.0546875"/><stop style="stop-color:#0f0c00;stop-opacity:1;" offset="0.0585938"/><stop style="stop-color:#100d00;stop-opacity:1;" offset="0.0625"/><stop style="stop-color:#110e00;stop-opacity:1;" offset="0.0664063"/><stop style="stop-color:#120e00;stop-opacity:1;" offset="0.0703125"/><stop style="stop-color:#130f00;stop-opacity:1;" offset="0.0742188"/><stop style="stop-color:#141000;stop-opacity:1;" offset="0.078125"/><stop style="stop-color:#151100;stop-opacity:1;" offset="0.0820313"/><stop style="stop-color:#161200;stop-opacity:1;" offset="0.0859375"/><stop style="stop-color:#171200;stop-opacity:1;" offset="0.0898438"/><stop style="stop-color:#181300;stop-opacity:1;" offset="0.09375"/><stop style="stop-color:#191400;stop-opacity:1;" offset="0.0976563"/><stop style="stop-color:#191500;stop-opacity:1;" offset="0.101563"/><stop style="stop-color:#1a1600;stop-opacity:1;" offset="0.105469"/><stop style="stop-color:#1b1600;stop-opacity:1;" offset="0.109375"/><stop style="stop-color:#1c1700;stop-opacity:1;" offset="0.113281"/><stop style="stop-color:#1d1800;stop-opacity:1;" offset="0.117188"/><stop style="stop-color:#1e1900;stop-opacity:1;" offset="0.121094"/><stop style="stop-color:#1f1901;stop-opacity:1;" offset="0.125"/><stop style="stop-color:#201a01;stop-opacity:1;" offset="0.128906"/><stop style="stop-color:#211b01;stop-opacity:1;" offset="0.132813"/><stop style="stop-color:#221c01;stop-opacity:1;" offset="0.136719"/><stop style="stop-color:#231d01;stop-opacity:1;" offset="0.140625"/><stop style="stop-color:#241d01;stop-opacity:1;" offset="0.144531"/><stop style="stop-color:#251e01;stop-opacity:1;" offset="0.148438"/><stop style="stop-color:#261f01;stop-opacity:1;" offset="0.152344"/><stop style="stop-color:#272001;stop-opacity:1;" offset="0.15625"/><stop style="stop-color:#282101;stop-opacity:1;" offset="0.160156"/><stop style="stop-color:#292101;stop-opacity:1;" offset="0.164063"/><stop style="stop-color:#2a2201;stop-opacity:1;" offset="0.167969"/><stop style="stop-color:#2b2301;stop-opacity:1;" offset="0.171875"/><stop style="stop-color:#2c2401;stop-opacity:1;" offset="0.175781"/><stop style="stop-color:#2d2501;stop-opacity:1;" offset="0.179688"/><stop style="stop-color:#2e2501;stop-opacity:1;" offset="0.183594"/><stop style="stop-color:#2f2601;stop-opacity:1;" offset="0.1875"/><stop style="stop-color:#302701;stop-opacity:1;" offset="0.191406"/><stop style="stop-color:#312801;stop-opacity:1;" offset="0.195313"/><stop style="stop-color:#322901;stop-opacity:1;" offset="0.199219"/><stop style="stop-color:#332901;stop-opacity:1;" offset="0.203125"/><stop style="stop-color:#342a01;stop-opacity:1;" offset="0.207031"/><stop style="stop-color:#352b01;stop-opacity:1;" offset="0.210938"/><stop style="stop-color:#362c01;stop-opacity:1;" offset="0.214844"/><stop style="stop-color:#372d01;stop-opacity:1;" offset="0.21875"/><stop style="stop-color:#382d01;stop-opacity:1;" offset="0.222656"/><stop style="stop-color:#392e01;stop-opacity:1;" offset="0.226563"/><stop style="stop-color:#3a2f01;stop-opacity:1;" offset="0.230469"/><stop style="stop-color:#3b3001;stop-opacity:1;" offset="0.234375"/><stop style="stop-color:#3c3101;stop-opacity:1;" offset="0.238281"/><stop style="stop-color:#3d3101;stop-opacity:1;" offset="0.242188"/><stop style="stop-color:#3e3201;stop-opacity:1;" offset="0.246094"/><stop style="stop-color:#3f3301;stop-opacity:1;" offset="0.25"/><stop style="stop-color:#403401;stop-opacity:1;" offset="0.253906"/><stop style="stop-color:#413501;stop-opacity:1;" offset="0.257812"/><stop style="stop-color:#423501;stop-opacity:1;" offset="0.261719"/><stop style="stop-color:#433601;stop-opacity:1;" offset="0.265625"/><stop style="stop-color:#443701;stop-opacity:1;" offset="0.269531"/><stop style="stop-color:#453801;stop-opacity:1;" offset="0.273438"/><stop style="stop-color:#463901;stop-opacity:1;" offset="0.277344"/><stop style="stop-color:#473901;stop-opacity:1;" offset="0.28125"/><stop style="stop-color:#483a01;stop-opacity:1;" offset="0.285156"/><stop style="stop-color:#493b01;stop-opacity:1;" offset="0.289062"/><stop style="stop-color:#4a3c01;stop-opacity:1;" offset="0.292969"/><stop style="stop-color:#4a3d01;stop-opacity:1;" offset="0.296875"/><stop style="stop-color:#4b3d01;stop-opacity:1;" offset="0.300781"/><stop style="stop-color:#4c3e01;stop-opacity:1;" offset="0.304688"/><stop style="stop-color:#4d3f01;stop-opacity:1;" offset="0.308594"/><stop style="stop-color:#4e4001;stop-opacity:1;" offset="0.3125"/><stop style="stop-color:#4f4101;stop-opacity:1;" offset="0.316406"/><stop style="stop-color:#504101;stop-opacity:1;" offset="0.320312"/><stop style="stop-color:#514201;stop-opacity:1;" offset="0.324219"/><stop style="stop-color:#524301;stop-opacity:1;" offset="0.328125"/><stop style="stop-color:#534401;stop-opacity:1;" offset="0.332031"/><stop style="stop-color:#544501;stop-opacity:1;" offset="0.335938"/><stop style="stop-color:#554501;stop-opacity:1;" offset="0.339844"/><stop style="stop-color:#564601;stop-opacity:1;" offset="0.34375"/><stop style="stop-color:#574701;stop-opacity:1;" offset="0.347656"/><stop style="stop-color:#584801;stop-opacity:1;" offset="0.351562"/><stop style="stop-color:#594901;stop-opacity:1;" offset="0.355469"/><stop style="stop-color:#5a4901;stop-opacity:1;" offset="0.359375"/><stop style="stop-color:#5b4a01;stop-opacity:1;" offset="0.363281"/><stop style="stop-color:#5c4b01;stop-opacity:1;" offset="0.367188"/><stop style="stop-color:#5d4c02;stop-opacity:1;" offset="0.371094"/><stop style="stop-color:#5e4c02;stop-opacity:1;" offset="0.375"/><stop style="stop-color:#5f4d02;stop-opacity:1;" offset="0.378906"/><stop style="stop-color:#604e02;stop-opacity:1;" offset="0.382812"/><stop style="stop-color:#614f02;stop-opacity:1;" offset="0.386719"/><stop style="stop-color:#625002;stop-opacity:1;" offset="0.390625"/><stop style="stop-color:#635002;stop-opacity:1;" offset="0.394531"/><stop style="stop-color:#645102;stop-opacity:1;" offset="0.398438"/><stop style="stop-color:#655202;stop-opacity:1;" offset="0.402344"/><stop style="stop-color:#665302;stop-opacity:1;" offset="0.40625"/><stop style="stop-color:#675402;stop-opacity:1;" offset="0.410156"/><stop style="stop-color:#685402;stop-opacity:1;" offset="0.414062"/><stop style="stop-color:#695502;stop-opacity:1;" offset="0.417969"/><stop style="stop-color:#6a5602;stop-opacity:1;" offset="0.421875"/><stop style="stop-color:#6b5702;stop-opacity:1;" offset="0.425781"/><stop style="stop-color:#6c5802;stop-opacity:1;" offset="0.429688"/><stop style="stop-color:#6d5802;stop-opacity:1;" offset="0.433594"/><stop style="stop-color:#6e5902;stop-opacity:1;" offset="0.4375"/><stop style="stop-color:#6f5a02;stop-opacity:1;" offset="0.441406"/><stop style="stop-color:#705b02;stop-opacity:1;" offset="0.445312"/><stop style="stop-color:#715c02;stop-opacity:1;" offset="0.449219"/><stop style="stop-color:#725c02;stop-opacity:1;" offset="0.453125"/><stop style="stop-color:#735d02;stop-opacity:1;" offset="0.457031"/><stop style="stop-color:#745e02;stop-opacity:1;" offset="0.460938"/><stop style="stop-color:#755f02;stop-opacity:1;" offset="0.464844"/><stop style="stop-color:#766002;stop-opacity:1;" offset="0.46875"/><stop style="stop-color:#776002;stop-opacity:1;" offset="0.472656"/><stop style="stop-color:#786102;stop-opacity:1;" offset="0.476562"/><stop style="stop-color:#796202;stop-opacity:1;" offset="0.480469"/><stop style="stop-color:#7a6302;stop-opacity:1;" offset="0.484375"/><stop style="stop-color:#7b6402;stop-opacity:1;" offset="0.488281"/><stop style="stop-color:#7b6402;stop-opacity:1;" offset="0.492188"/><stop style="stop-color:#7c6502;stop-opacity:1;" offset="0.496094"/><stop style="stop-color:#7d6602;stop-opacity:1;" offset="0.5"/><stop style="stop-color:#7e6702;stop-opacity:1;" offset="0.503906"/><stop style="stop-color:#7f6802;stop-opacity:1;" offset="0.507812"/><stop style="stop-color:#806802;stop-opacity:1;" offset="0.511719"/><stop style="stop-color:#816902;stop-opacity:1;" offset="0.515625"/><stop style="stop-color:#826a02;stop-opacity:1;" offset="0.519531"/><stop style="stop-color:#836b02;stop-opacity:1;" offset="0.523437"/><stop style="stop-color:#846c02;stop-opacity:1;" offset="0.527344"/><stop style="stop-color:#856c02;stop-opacity:1;" offset="0.53125"/><stop style="stop-color:#866d02;stop-opacity:1;" offset="0.535156"/><stop style="stop-color:#876e02;stop-opacity:1;" offset="0.539062"/><stop style="stop-color:#886f02;stop-opacity:1;" offset="0.542969"/><stop style="stop-color:#897002;stop-opacity:1;" offset="0.546875"/><stop style="stop-color:#8a7002;stop-opacity:1;" offset="0.550781"/><stop style="stop-color:#8b7102;stop-opacity:1;" offset="0.554687"/><stop style="stop-color:#8c7202;stop-opacity:1;" offset="0.558594"/><stop style="stop-color:#8d7302;stop-opacity:1;" offset="0.5625"/><stop style="stop-color:#8e7402;stop-opacity:1;" offset="0.566406"/><stop style="stop-color:#8f7402;stop-opacity:1;" offset="0.570312"/><stop style="stop-color:#907502;stop-opacity:1;" offset="0.574219"/><stop style="stop-color:#917602;stop-opacity:1;" offset="0.578125"/><stop style="stop-color:#927702;stop-opacity:1;" offset="0.582031"/><stop style="stop-color:#937802;stop-opacity:1;" offset="0.585937"/><stop style="stop-color:#947802;stop-opacity:1;" offset="0.589844"/><stop style="stop-color:#957902;stop-opacity:1;" offset="0.59375"/><stop style="stop-color:#967a02;stop-opacity:1;" offset="0.597656"/><stop style="stop-color:#977b02;stop-opacity:1;" offset="0.601562"/><stop style="stop-color:#987c02;stop-opacity:1;" offset="0.605469"/><stop style="stop-color:#997c02;stop-opacity:1;" offset="0.609375"/><stop style="stop-color:#9a7d02;stop-opacity:1;" offset="0.613281"/><stop style="stop-color:#9b7e03;stop-opacity:1;" offset="0.617187"/><stop style="stop-color:#9c7f03;stop-opacity:1;" offset="0.621094"/><stop style="stop-color:#9d7f03;stop-opacity:1;" offset="0.625"/><stop style="stop-color:#9e8003;stop-opacity:1;" offset="0.628906"/><stop style="stop-color:#9f8103;stop-opacity:1;" offset="0.632812"/><stop style="stop-color:#a08203;stop-opacity:1;" offset="0.636719"/><stop style="stop-color:#a18303;stop-opacity:1;" offset="0.640625"/><stop style="stop-color:#a28303;stop-opacity:1;" offset="0.644531"/><stop style="stop-color:#a38403;stop-opacity:1;" offset="0.648437"/><stop style="stop-color:#a48503;stop-opacity:1;" offset="0.652344"/><stop style="stop-color:#a58603;stop-opacity:1;" offset="0.65625"/><stop style="stop-color:#a68703;stop-opacity:1;" offset="0.660156"/><stop style="stop-color:#a78703;stop-opacity:1;" offset="0.664062"/><stop style="stop-color:#a88803;stop-opacity:1;" offset="0.667969"/><stop style="stop-color:#a98903;stop-opacity:1;" offset="0.671875"/><stop style="stop-color:#aa8a03;stop-opacity:1;" offset="0.675781"/><stop style="stop-color:#ab8b03;stop-opacity:1;" offset="0.679687"/><stop style="stop-color:#ac8b03;stop-opacity:1;" offset="0.683594"/><stop style="stop-color:#ad8c03;stop-opacity:1;" offset="0.6875"/><stop style="stop-color:#ad8d03;stop-opacity:1;" offset="0.691406"/><stop style="stop-color:#ae8e03;stop-opacity:1;" offset="0.695312"/><stop style="stop-color:#af8f03;stop-opacity:1;" offset="0.699219"/><stop style="stop-color:#b08f03;stop-opacity:1;" offset="0.703125"/><stop style="stop-color:#b19003;stop-opacity:1;" offset="0.707031"/><stop style="stop-color:#b29103;stop-opacity:1;" offset="0.710937"/><stop style="stop-color:#b39203;stop-opacity:1;" offset="0.714844"/><stop style="stop-color:#b49303;stop-opacity:1;" offset="0.71875"/><stop style="stop-color:#b59303;stop-opacity:1;" offset="0.722656"/><stop style="stop-color:#b69403;stop-opacity:1;" offset="0.726562"/><stop style="stop-color:#b79503;stop-opacity:1;" offset="0.730469"/><stop style="stop-color:#b89603;stop-opacity:1;" offset="0.734375"/><stop style="stop-color:#b99703;stop-opacity:1;" offset="0.738281"/><stop style="stop-color:#ba9703;stop-opacity:1;" offset="0.742187"/><stop style="stop-color:#bb9803;stop-opacity:1;" offset="0.746094"/><stop style="stop-color:#bc9903;stop-opacity:1;" offset="0.75"/><stop style="stop-color:#bd9a03;stop-opacity:1;" offset="0.753906"/><stop style="stop-color:#be9b03;stop-opacity:1;" offset="0.757812"/><stop style="stop-color:#bf9b03;stop-opacity:1;" offset="0.761719"/><stop style="stop-color:#c09c03;stop-opacity:1;" offset="0.765625"/><stop style="stop-color:#c19d03;stop-opacity:1;" offset="0.769531"/><stop style="stop-color:#c29e03;stop-opacity:1;" offset="0.773438"/><stop style="stop-color:#c39f03;stop-opacity:1;" offset="0.777344"/><stop style="stop-color:#c49f03;stop-opacity:1;" offset="0.78125"/><stop style="stop-color:#c5a003;stop-opacity:1;" offset="0.785156"/><stop style="stop-color:#c6a103;stop-opacity:1;" offset="0.789062"/><stop style="stop-color:#c7a203;stop-opacity:1;" offset="0.792969"/><stop style="stop-color:#c8a303;stop-opacity:1;" offset="0.796875"/><stop style="stop-color:#c9a303;stop-opacity:1;" offset="0.800781"/><stop style="stop-color:#caa403;stop-opacity:1;" offset="0.804688"/><stop style="stop-color:#cba503;stop-opacity:1;" offset="0.808594"/><stop style="stop-color:#cca603;stop-opacity:1;" offset="0.8125"/><stop style="stop-color:#cda703;stop-opacity:1;" offset="0.816406"/><stop style="stop-color:#cea703;stop-opacity:1;" offset="0.820312"/><stop style="stop-color:#cfa803;stop-opacity:1;" offset="0.824219"/><stop style="stop-color:#d0a903;stop-opacity:1;" offset="0.828125"/><stop style="stop-color:#d1aa03;stop-opacity:1;" offset="0.832031"/><stop style="stop-color:#d2ab03;stop-opacity:1;" offset="0.835938"/><stop style="stop-color:#d3ab03;stop-opacity:1;" offset="0.839844"/><stop style="stop-color:#d4ac03;stop-opacity:1;" offset="0.84375"/><stop style="stop-color:#d5ad03;stop-opacity:1;" offset="0.847656"/><stop style="stop-color:#d6ae03;stop-opacity:1;" offset="0.851562"/><stop style="stop-color:#d7af03;stop-opacity:1;" offset="0.855469"/><stop style="stop-color:#d8af04;stop-opacity:1;" offset="0.859375"/><stop style="stop-color:#d9b004;stop-opacity:1;" offset="0.863281"/><stop style="stop-color:#dab104;stop-opacity:1;" offset="0.867188"/><stop style="stop-color:#dbb204;stop-opacity:1;" offset="0.871094"/><stop style="stop-color:#dcb204;stop-opacity:1;" offset="0.875"/><stop style="stop-color:#ddb304;stop-opacity:1;" offset="0.878906"/><stop style="stop-color:#deb404;stop-opacity:1;" offset="0.882812"/><stop style="stop-color:#deb504;stop-opacity:1;" offset="0.886719"/><stop style="stop-color:#dfb604;stop-opacity:1;" offset="0.890625"/><stop style="stop-color:#e0b604;stop-opacity:1;" offset="0.894531"/><stop style="stop-color:#e1b704;stop-opacity:1;" offset="0.898438"/><stop style="stop-color:#e2b804;stop-opacity:1;" offset="0.902344"/><stop style="stop-color:#e3b904;stop-opacity:1;" offset="0.90625"/><stop style="stop-color:#e4ba04;stop-opacity:1;" offset="0.910156"/><stop style="stop-color:#e5ba04;stop-opacity:1;" offset="0.914062"/><stop style="stop-color:#e6bb04;stop-opacity:1;" offset="0.917969"/><stop style="stop-color:#e7bc04;stop-opacity:1;" offset="0.921875"/><stop style="stop-color:#e8bd04;stop-opacity:1;" offset="0.925781"/><stop style="stop-color:#e9be04;stop-opacity:1;" offset="0.929688"/><stop style="stop-color:#eabe04;stop-opacity:1;" offset="0.933594"/><stop style="stop-color:#ebbf04;stop-opacity:1;" offset="0.9375"/><stop style="stop-color:#ecc004;stop-opacity:1;" offset="0.941406"/><stop style="stop-color:#edc104;stop-opacity:1;" offset="0.945312"/><stop style="stop-color:#eec204;stop-opacity:1;" offset="0.949219"/><stop style="stop-color:#efc204;stop-opacity:1;" offset="0.953125"/><stop style="stop-color:#f0c304;stop-opacity:1;" offset="0.957031"/><stop style="stop-color:#f1c404;stop-opacity:1;" offset="0.960938"/><stop style="stop-color:#f2c504;stop-opacity:1;" offset="0.964844"/><stop style="stop-color:#f3c604;stop-opacity:1;" offset="0.96875"/><stop style="stop-color:#f4c604;stop-opacity:1;" offset="0.972656"/><stop style="stop-color:#f5c704;stop-opacity:1;" offset="0.976562"/><stop style="stop-color:#f6c804;stop-opacity:1;" offset="0.980469"/><stop style="stop-color:#f7c904;stop-opacity:1;" offset="0.984375"/><stop style="stop-color:#f8ca04;stop-opacity:1;" offset="0.988281"/><stop style="stop-color:#f9ca04;stop-opacity:1;" offset="0.992188"/><stop style="stop-color:#facb04;stop-opacity:1;" offset="0.996094"/><stop style="stop-color:#fbcc04;stop-opacity:1;" offset="1"/></linearGradient><clipPath id="06532b513a"><path d="M 16.808594 64 L 39 64 L 39 81.703125 L 16.808594 81.703125 Z M 16.808594 64 "/></clipPath><clipPath id="142831e4e5"><path d="M 32 8.203125 L 73 8.203125 L 73 55 L 32 55 Z M 32 8.203125 "/></clipPath></defs><g id="dcae931ff7"><g clip-rule="nonzero" clip-path="url(#bd3a015094)"><g clip-rule="nonzero" clip-path="url(#620229d99b)"><path style=" stroke:none;fill-rule:nonzero;fill:url(#linear0);" d="M 0 0 L 0 89.738281 L 89.738281 89.738281 L 89.738281 0 Z M 0 0 "/></g></g><g clip-rule="nonzero" clip-path="url(#06532b513a)"><path style=" stroke:none;fill-rule:nonzero;fill:#000;fill-opacity:1;" d="M 37.769531 81.53125 L 17.851562 81.53125 C 17.714844 81.53125 17.582031 81.503906 17.453125 81.449219 C 17.328125 81.398438 17.214844 81.324219 17.121094 81.226562 C 17.023438 81.128906 16.949219 81.019531 16.894531 80.890625 C 16.84375 80.765625 16.816406 80.632812 16.816406 80.496094 L 16.816406 74.652344 C 16.816406 68.878906 21.511719 64.179688 27.285156 64.179688 L 28.335938 64.179688 C 34.109375 64.179688 38.804688 68.878906 38.804688 74.652344 L 38.804688 80.496094 C 38.804688 80.632812 38.777344 80.765625 38.726562 80.890625 C 38.671875 81.019531 38.597656 81.128906 38.5 81.226562 C 38.40625 81.324219 38.292969 81.398438 38.167969 81.449219 C 38.039062 81.503906 37.90625 81.53125 37.769531 81.53125 Z M 18.882812 79.460938 L 36.738281 79.460938 L 36.738281 74.652344 C 36.738281 74.097656 36.683594 73.554688 36.574219 73.011719 C 36.464844 72.472656 36.304688 71.945312 36.09375 71.4375 C 35.882812 70.925781 35.625 70.445312 35.320312 69.984375 C 35.011719 69.527344 34.664062 69.101562 34.273438 68.710938 C 33.882812 68.324219 33.460938 67.972656 33 67.667969 C 32.542969 67.359375 32.058594 67.101562 31.550781 66.890625 C 31.039062 66.679688 30.515625 66.519531 29.972656 66.410156 C 29.433594 66.304688 28.886719 66.25 28.335938 66.25 L 27.285156 66.25 C 26.734375 66.25 26.1875 66.304688 25.648438 66.410156 C 25.105469 66.519531 24.582031 66.679688 24.070312 66.890625 C 23.5625 67.101562 23.078125 67.359375 22.621094 67.667969 C 22.160156 67.972656 21.738281 68.324219 21.347656 68.710938 C 20.957031 69.101562 20.609375 69.527344 20.300781 69.984375 C 19.996094 70.445312 19.738281 70.925781 19.527344 71.4375 C 19.316406 71.945312 19.15625 72.472656 19.046875 73.011719 C 18.9375 73.554688 18.882812 74.097656 18.882812 74.652344 Z M 18.882812 79.460938 "/></g><path style=" stroke:none;fill-rule:nonzero;fill:#000;fill-opacity:1;" d="M 27.816406 62.96875 C 27.402344 62.96875 26.992188 62.929688 26.585938 62.847656 C 26.179688 62.765625 25.785156 62.648438 25.402344 62.488281 C 25.015625 62.328125 24.652344 62.136719 24.308594 61.90625 C 23.964844 61.675781 23.644531 61.414062 23.351562 61.121094 C 23.058594 60.824219 22.796875 60.507812 22.566406 60.160156 C 22.335938 59.816406 22.140625 59.453125 21.980469 59.070312 C 21.824219 58.6875 21.703125 58.292969 21.621094 57.886719 C 21.542969 57.476562 21.5 57.066406 21.5 56.652344 C 21.5 56.238281 21.542969 55.828125 21.621094 55.421875 C 21.703125 55.011719 21.824219 54.617188 21.980469 54.234375 C 22.140625 53.851562 22.335938 53.488281 22.566406 53.144531 C 22.796875 52.796875 23.058594 52.480469 23.351562 52.1875 C 23.644531 51.894531 23.964844 51.628906 24.308594 51.398438 C 24.652344 51.171875 25.015625 50.976562 25.402344 50.816406 C 25.785156 50.65625 26.179688 50.539062 26.585938 50.457031 C 26.992188 50.375 27.402344 50.335938 27.816406 50.335938 C 28.234375 50.335938 28.644531 50.375 29.050781 50.457031 C 29.457031 50.539062 29.851562 50.65625 30.234375 50.816406 C 30.617188 50.976562 30.984375 51.171875 31.328125 51.398438 C 31.671875 51.628906 31.992188 51.894531 32.285156 52.1875 C 32.578125 52.480469 32.839844 52.796875 33.070312 53.144531 C 33.300781 53.488281 33.496094 53.851562 33.652344 54.234375 C 33.8125 54.617188 33.933594 55.011719 34.011719 55.421875 C 34.09375 55.828125 34.132812 56.238281 34.132812 56.652344 C 34.132812 57.066406 34.09375 57.476562 34.011719 57.882812 C 33.929688 58.292969 33.8125 58.6875 33.652344 59.070312 C 33.492188 59.453125 33.296875 59.816406 33.066406 60.160156 C 32.835938 60.503906 32.574219 60.824219 32.28125 61.117188 C 31.988281 61.410156 31.671875 61.671875 31.324219 61.902344 C 30.980469 62.132812 30.617188 62.328125 30.234375 62.488281 C 29.851562 62.644531 29.457031 62.765625 29.050781 62.847656 C 28.644531 62.929688 28.234375 62.96875 27.816406 62.96875 Z M 27.816406 52.402344 C 27.539062 52.402344 27.261719 52.429688 26.988281 52.484375 C 26.714844 52.539062 26.449219 52.621094 26.191406 52.726562 C 25.933594 52.832031 25.6875 52.964844 25.457031 53.121094 C 25.226562 53.273438 25.011719 53.449219 24.8125 53.648438 C 24.617188 53.84375 24.441406 54.058594 24.285156 54.292969 C 24.128906 54.523438 24 54.769531 23.890625 55.027344 C 23.785156 55.285156 23.703125 55.550781 23.648438 55.824219 C 23.59375 56.097656 23.570312 56.375 23.570312 56.652344 C 23.570312 56.933594 23.59375 57.207031 23.648438 57.480469 C 23.703125 57.753906 23.785156 58.019531 23.890625 58.277344 C 24 58.535156 24.128906 58.78125 24.285156 59.011719 C 24.441406 59.246094 24.617188 59.460938 24.8125 59.65625 C 25.011719 59.855469 25.226562 60.03125 25.457031 60.1875 C 25.6875 60.339844 25.933594 60.472656 26.191406 60.578125 C 26.449219 60.683594 26.714844 60.765625 26.988281 60.820312 C 27.261719 60.875 27.539062 60.902344 27.816406 60.902344 C 28.097656 60.902344 28.375 60.875 28.648438 60.820312 C 28.921875 60.765625 29.1875 60.683594 29.445312 60.578125 C 29.703125 60.472656 29.945312 60.339844 30.179688 60.1875 C 30.410156 60.03125 30.625 59.855469 30.824219 59.65625 C 31.019531 59.460938 31.195312 59.246094 31.351562 59.011719 C 31.507812 58.78125 31.636719 58.535156 31.742188 58.277344 C 31.851562 58.019531 31.929688 57.753906 31.984375 57.480469 C 32.039062 57.207031 32.066406 56.933594 32.066406 56.652344 C 32.066406 56.375 32.039062 56.097656 31.984375 55.824219 C 31.929688 55.550781 31.847656 55.285156 31.742188 55.027344 C 31.636719 54.769531 31.503906 54.523438 31.351562 54.292969 C 31.195312 54.0625 31.019531 53.847656 30.820312 53.648438 C 30.625 53.453125 30.410156 53.277344 30.175781 53.121094 C 29.945312 52.964844 29.699219 52.835938 29.441406 52.726562 C 29.1875 52.621094 28.921875 52.539062 28.648438 52.484375 C 28.371094 52.429688 28.097656 52.402344 27.816406 52.402344 Z M 27.816406 52.402344 "/><g clip-rule="nonzero" clip-path="url(#142831e4e5)"><path style=" stroke:none;fill-rule:nonzero;fill:#000;fill-opacity:1;" d="M 44.355469 54.554688 C 44.183594 54.554688 44.019531 54.515625 43.867188 54.433594 C 43.71875 54.351562 43.59375 54.242188 43.496094 54.097656 C 43.402344 53.957031 43.34375 53.800781 43.324219 53.628906 C 43.308594 53.457031 43.332031 53.292969 43.394531 53.132812 L 45.851562 47.042969 L 40.472656 47.042969 C 39.960938 47.042969 39.453125 46.992188 38.953125 46.890625 C 38.449219 46.792969 37.964844 46.644531 37.492188 46.449219 C 37.019531 46.25 36.570312 46.011719 36.144531 45.726562 C 35.71875 45.441406 35.324219 45.117188 34.960938 44.757812 C 34.601562 44.394531 34.277344 44 33.992188 43.574219 C 33.707031 43.152344 33.46875 42.703125 33.273438 42.230469 C 33.074219 41.757812 32.929688 41.269531 32.828125 40.765625 C 32.726562 40.265625 32.675781 39.757812 32.675781 39.246094 L 32.675781 16 C 32.675781 15.488281 32.726562 14.984375 32.828125 14.480469 C 32.929688 13.980469 33.074219 13.492188 33.273438 13.019531 C 33.46875 12.546875 33.707031 12.097656 33.992188 11.671875 C 34.277344 11.246094 34.601562 10.851562 34.960938 10.492188 C 35.324219 10.128906 35.71875 9.804688 36.144531 9.519531 C 36.570312 9.238281 37.019531 8.996094 37.492188 8.800781 C 37.964844 8.605469 38.449219 8.457031 38.953125 8.355469 C 39.453125 8.253906 39.960938 8.207031 40.472656 8.203125 L 65.125 8.203125 C 65.636719 8.207031 66.144531 8.253906 66.644531 8.355469 C 67.148438 8.457031 67.636719 8.605469 68.109375 8.800781 C 68.582031 8.996094 69.03125 9.238281 69.453125 9.519531 C 69.878906 9.804688 70.273438 10.128906 70.636719 10.492188 C 70.996094 10.851562 71.320312 11.246094 71.605469 11.671875 C 71.890625 12.097656 72.128906 12.546875 72.328125 13.019531 C 72.523438 13.492188 72.671875 13.980469 72.769531 14.480469 C 72.871094 14.984375 72.921875 15.488281 72.921875 16 L 72.921875 39.246094 C 72.921875 39.757812 72.871094 40.265625 72.769531 40.765625 C 72.671875 41.269531 72.523438 41.753906 72.328125 42.226562 C 72.128906 42.703125 71.890625 43.148438 71.605469 43.574219 C 71.320312 44 70.996094 44.394531 70.636719 44.757812 C 70.273438 45.117188 69.878906 45.441406 69.453125 45.726562 C 69.03125 46.011719 68.582031 46.25 68.109375 46.445312 C 67.636719 46.644531 67.148438 46.792969 66.644531 46.890625 C 66.144531 46.992188 65.636719 47.042969 65.125 47.042969 L 55.667969 47.042969 L 44.9375 54.375 C 44.761719 54.492188 44.566406 54.554688 44.355469 54.554688 Z M 40.472656 10.273438 C 40.097656 10.273438 39.726562 10.308594 39.355469 10.382812 C 38.988281 10.457031 38.628906 10.566406 38.28125 10.710938 C 37.933594 10.855469 37.605469 11.03125 37.292969 11.238281 C 36.980469 11.449219 36.691406 11.6875 36.421875 11.953125 C 36.15625 12.21875 35.921875 12.507812 35.710938 12.820312 C 35.503906 13.132812 35.324219 13.460938 35.179688 13.808594 C 35.039062 14.15625 34.929688 14.515625 34.855469 14.882812 C 34.78125 15.253906 34.742188 15.625 34.742188 16 L 34.742188 39.246094 C 34.742188 39.621094 34.78125 39.996094 34.855469 40.363281 C 34.929688 40.730469 35.039062 41.089844 35.179688 41.4375 C 35.324219 41.785156 35.503906 42.113281 35.710938 42.425781 C 35.921875 42.742188 36.15625 43.03125 36.421875 43.296875 C 36.691406 43.5625 36.980469 43.800781 37.292969 44.007812 C 37.605469 44.21875 37.933594 44.394531 38.28125 44.539062 C 38.628906 44.683594 38.988281 44.789062 39.355469 44.863281 C 39.726562 44.9375 40.097656 44.976562 40.472656 44.976562 L 47.382812 44.976562 C 47.554688 44.976562 47.71875 45.015625 47.871094 45.097656 C 48.023438 45.175781 48.144531 45.289062 48.242188 45.429688 C 48.335938 45.574219 48.394531 45.730469 48.414062 45.902344 C 48.429688 46.070312 48.40625 46.238281 48.34375 46.394531 L 46.589844 50.742188 L 54.765625 45.15625 C 54.941406 45.035156 55.132812 44.976562 55.347656 44.976562 L 65.125 44.976562 C 65.5 44.976562 65.875 44.9375 66.242188 44.863281 C 66.613281 44.789062 66.96875 44.683594 67.316406 44.539062 C 67.664062 44.394531 67.996094 44.21875 68.308594 44.007812 C 68.621094 43.800781 68.910156 43.5625 69.175781 43.296875 C 69.441406 43.03125 69.679688 42.742188 69.886719 42.425781 C 70.097656 42.113281 70.273438 41.785156 70.417969 41.4375 C 70.5625 41.089844 70.671875 40.730469 70.742188 40.363281 C 70.816406 39.996094 70.855469 39.621094 70.855469 39.246094 L 70.855469 16 C 70.855469 15.625 70.816406 15.253906 70.742188 14.882812 C 70.671875 14.515625 70.5625 14.15625 70.417969 13.808594 C 70.273438 13.460938 70.097656 13.132812 69.886719 12.820312 C 69.679688 12.507812 69.441406 12.21875 69.175781 11.953125 C 68.910156 11.6875 68.621094 11.449219 68.308594 11.238281 C 67.996094 11.03125 67.664062 10.855469 67.316406 10.710938 C 66.96875 10.566406 66.613281 10.457031 66.242188 10.382812 C 65.875 10.308594 65.5 10.273438 65.125 10.273438 Z M 40.472656 10.273438 "/></g><path style=" stroke:none;fill-rule:nonzero;fill:#000;fill-opacity:1;" d="M 58.5625 14.355469 C 57.605469 13.402344 55.851562 12.269531 52.925781 12.269531 C 51.324219 12.269531 49.621094 12.628906 48.253906 13.253906 C 47.925781 13.40625 47.632812 13.609375 47.371094 13.863281 C 47.113281 14.113281 46.902344 14.402344 46.738281 14.726562 C 46.578125 15.050781 46.476562 15.394531 46.429688 15.753906 C 46.386719 16.113281 46.402344 16.46875 46.480469 16.824219 C 46.558594 17.179688 46.691406 17.507812 46.882812 17.816406 C 47.074219 18.125 47.308594 18.394531 47.59375 18.621094 C 47.875 18.847656 48.1875 19.023438 48.527344 19.144531 C 48.871094 19.265625 49.222656 19.324219 49.585938 19.324219 C 50.003906 19.324219 50.402344 19.246094 50.789062 19.085938 C 51.277344 18.886719 51.789062 18.785156 52.316406 18.777344 C 52.839844 18.789062 53.144531 18.90625 53.257812 19.011719 C 53.382812 19.128906 53.398438 19.398438 53.398438 19.546875 C 53.398438 20.304688 52.90625 21.167969 51.582031 22.726562 L 51.570312 22.742188 C 49.664062 25.03125 48.792969 27.527344 49.054688 29.964844 L 49.058594 30.027344 C 49.085938 30.390625 49.179688 30.734375 49.339844 31.0625 C 49.496094 31.390625 49.710938 31.679688 49.976562 31.929688 C 50.246094 32.175781 50.546875 32.367188 50.886719 32.5 C 51.226562 32.632812 51.578125 32.699219 51.945312 32.699219 L 52.894531 32.699219 C 53.285156 32.699219 53.664062 32.621094 54.027344 32.46875 C 54.386719 32.3125 54.707031 32.09375 54.976562 31.8125 C 55.25 31.527344 55.457031 31.203125 55.597656 30.835938 C 55.738281 30.46875 55.800781 30.085938 55.785156 29.695312 C 55.785156 29.679688 55.785156 29.664062 55.78125 29.652344 C 55.726562 28.671875 55.941406 27.722656 57.175781 26.257812 L 57.179688 26.253906 C 58.660156 24.496094 60.503906 22.308594 60.503906 19.183594 C 60.503906 17.316406 59.8125 15.601562 58.5625 14.355469 Z M 55.597656 24.925781 C 54.148438 26.640625 53.621094 28.089844 53.71875 29.773438 C 53.726562 30.007812 53.652344 30.207031 53.488281 30.378906 C 53.324219 30.546875 53.128906 30.628906 52.894531 30.628906 L 51.941406 30.628906 C 51.726562 30.628906 51.539062 30.558594 51.382812 30.410156 C 51.222656 30.265625 51.136719 30.082031 51.121094 29.867188 L 51.113281 29.773438 C 50.914062 27.992188 51.507812 26.046875 53.15625 24.066406 C 54.640625 22.316406 55.464844 21.03125 55.464844 19.546875 C 55.464844 17.863281 54.410156 16.742188 52.332031 16.710938 C 51.527344 16.714844 50.75 16.871094 50.003906 17.175781 C 49.867188 17.230469 49.730469 17.257812 49.585938 17.257812 C 49.324219 17.257812 49.09375 17.175781 48.890625 17.011719 C 48.6875 16.847656 48.554688 16.636719 48.5 16.382812 C 48.445312 16.128906 48.472656 15.882812 48.589844 15.648438 C 48.703125 15.414062 48.882812 15.242188 49.117188 15.132812 C 50.195312 14.640625 51.597656 14.335938 52.925781 14.335938 C 56.71875 14.335938 58.433594 16.675781 58.433594 19.183594 C 58.433594 21.425781 57.183594 23.042969 55.597656 24.921875 Z M 55.597656 24.925781 "/><path style=" stroke:none;fill-rule:nonzero;fill:#000;fill-opacity:1;" d="M 52.433594 34.152344 C 50.125 34.152344 48.386719 35.9375 48.386719 38.300781 C 48.375 39.398438 48.738281 40.355469 49.480469 41.164062 C 49.859375 41.566406 50.300781 41.878906 50.808594 42.09375 C 51.316406 42.3125 51.847656 42.417969 52.398438 42.410156 C 54.707031 42.410156 56.445312 40.644531 56.445312 38.300781 C 56.445312 35.9375 54.71875 34.152344 52.433594 34.152344 Z M 52.398438 40.34375 C 51.246094 40.34375 50.453125 39.453125 50.453125 38.300781 C 50.453125 37.078125 51.277344 36.222656 52.433594 36.222656 C 53.585938 36.222656 54.378906 37.078125 54.378906 38.300781 C 54.378906 39.453125 53.621094 40.34375 52.398438 40.34375 Z M 52.398438 40.34375 "/></g></svg>