<svg xmlns="http://www.w3.org/2000/svg" xmlns:xlink="http://www.w3.org/1999/xlink" zoomAndPan="magnify" preserveAspectRatio="xMidYMid meet" version="1.2" viewBox="0 0 89.74 89.74"><defs><clipPath id="db3b6fe61c"><path d="M 0 0 L 89.738281 0 L 89.738281 89.738281 L 0 89.738281 Z M 0 0 "/></clipPath><clipPath id="05e39a712b"><path d="M 18 0 L 71.738281 0 C 81.679688 0 89.738281 8.058594 89.738281 18 L 89.738281 71.738281 C 89.738281 81.679688 81.679688 89.738281 71.738281 89.738281 L 18 89.738281 C 8.058594 89.738281 0 81.679688 0 71.738281 L 0 18 C 0 8.058594 8.058594 0 18 0 Z M 18 0 "/></clipPath><linearGradient x1="128" gradientTransform="matrix(0.350543,0,0,0.350543,0.0000005,0.000002)" y1="0.000000000000243238" x2="128" gradientUnits="userSpaceOnUse" y2="255.999992" id="7739a9ab0c"><stop style="stop-color:#000000;stop-opacity:1;" offset="0"/><stop style="stop-color:#010100;stop-opacity:1;" offset="0.00390625"/><stop style="stop-color:#020200;stop-opacity:1;" offset="0.0078125"/><stop style="stop-color:#030200;stop-opacity:1;" offset="0.0117188"/><stop style="stop-color:#040300;stop-opacity:1;" offset="0.015625"/><stop style="stop-color:#050400;stop-opacity:1;" offset="0.0195312"/><stop style="stop-color:#060500;stop-opacity:1;" offset="0.0234375"/><stop style="stop-color:#070600;stop-opacity:1;" offset="0.0273438"/><stop style="stop-color:#080600;stop-opacity:1;" offset="0.03125"/><stop style="stop-color:#090700;stop-opacity:1;" offset="0.0351562"/><stop style="stop-color:#0a0800;stop-opacity:1;" offset="0.0390625"/><stop style="stop-color:#0b0900;stop-opacity:1;" offset="0.0429688"/><stop style="stop-color:#0c0a00;stop-opacity:1;" offset="0.046875"/><stop style="stop-color:#0d0a00;stop-opacity:1;" offset="0.0507812"/><stop style="stop-color:#0e0b00;stop-opacity:1;" offset="0.0546875"/><stop style="stop-color:#0f0c00;stop-opacity:1;" offset="0.0585938"/><stop style="stop-color:#100d00;stop-opacity:1;" offset="0.0625"/><stop style="stop-color:#110e00;stop-opacity:1;" offset="0.0664063"/><stop style="stop-color:#120e00;stop-opacity:1;" offset="0.0703125"/><stop style="stop-color:#130f00;stop-opacity:1;" offset="0.0742188"/><stop style="stop-color:#141000;stop-opacity:1;" offset="0.078125"/><stop style="stop-color:#151100;stop-opacity:1;" offset="0.0820313"/><stop style="stop-color:#161200;stop-opacity:1;" offset="0.0859375"/><stop style="stop-color:#171200;stop-opacity:1;" offset="0.0898438"/><stop style="stop-color:#181300;stop-opacity:1;" offset="0.09375"/><stop style="stop-color:#191400;stop-opacity:1;" offset="0.0976563"/><stop style="stop-color:#191500;stop-opacity:1;" offset="0.101563"/><stop style="stop-color:#1a1600;stop-opacity:1;" offset="0.105469"/><stop style="stop-color:#1b1600;stop-opacity:1;" offset="0.109375"/><stop style="stop-color:#1c1700;stop-opacity:1;" offset="0.113281"/><stop style="stop-color:#1d1800;stop-opacity:1;" offset="0.117188"/><stop style="stop-color:#1e1900;stop-opacity:1;" offset="0.121094"/><stop style="stop-color:#1f1901;stop-opacity:1;" offset="0.125"/><stop style="stop-color:#201a01;stop-opacity:1;" offset="0.128906"/><stop style="stop-color:#211b01;stop-opacity:1;" offset="0.132813"/><stop style="stop-color:#221c01;stop-opacity:1;" offset="0.136719"/><stop style="stop-color:#231d01;stop-opacity:1;" offset="0.140625"/><stop style="stop-color:#241d01;stop-opacity:1;" offset="0.144531"/><stop style="stop-color:#251e01;stop-opacity:1;" offset="0.148438"/><stop style="stop-color:#261f01;stop-opacity:1;" offset="0.152344"/><stop style="stop-color:#272001;stop-opacity:1;" offset="0.15625"/><stop style="stop-color:#282101;stop-opacity:1;" offset="0.160156"/><stop style="stop-color:#292101;stop-opacity:1;" offset="0.164063"/><stop style="stop-color:#2a2201;stop-opacity:1;" offset="0.167969"/><stop style="stop-color:#2b2301;stop-opacity:1;" offset="0.171875"/><stop style="stop-color:#2c2401;stop-opacity:1;" offset="0.175781"/><stop style="stop-color:#2d2501;stop-opacity:1;" offset="0.179688"/><stop style="stop-color:#2e2501;stop-opacity:1;" offset="0.183594"/><stop style="stop-color:#2f2601;stop-opacity:1;" offset="0.1875"/><stop style="stop-color:#302701;stop-opacity:1;" offset="0.191406"/><stop style="stop-color:#312801;stop-opacity:1;" offset="0.195313"/><stop style="stop-color:#322901;stop-opacity:1;" offset="0.199219"/><stop style="stop-color:#332901;stop-opacity:1;" offset="0.203125"/><stop style="stop-color:#342a01;stop-opacity:1;" offset="0.207031"/><stop style="stop-color:#352b01;stop-opacity:1;" offset="0.210938"/><stop style="stop-color:#362c01;stop-opacity:1;" offset="0.214844"/><stop style="stop-color:#372d01;stop-opacity:1;" offset="0.21875"/><stop style="stop-color:#382d01;stop-opacity:1;" offset="0.222656"/><stop style="stop-color:#392e01;stop-opacity:1;" offset="0.226563"/><stop style="stop-color:#3a2f01;stop-opacity:1;" offset="0.230469"/><stop style="stop-color:#3b3001;stop-opacity:1;" offset="0.234375"/><stop style="stop-color:#3c3101;stop-opacity:1;" offset="0.238281"/><stop style="stop-color:#3d3101;stop-opacity:1;" offset="0.242188"/><stop style="stop-color:#3e3201;stop-opacity:1;" offset="0.246094"/><stop style="stop-color:#3f3301;stop-opacity:1;" offset="0.25"/><stop style="stop-color:#403401;stop-opacity:1;" offset="0.253906"/><stop style="stop-color:#413501;stop-opacity:1;" offset="0.257812"/><stop style="stop-color:#423501;stop-opacity:1;" offset="0.261719"/><stop style="stop-color:#433601;stop-opacity:1;" offset="0.265625"/><stop style="stop-color:#443701;stop-opacity:1;" offset="0.269531"/><stop style="stop-color:#453801;stop-opacity:1;" offset="0.273438"/><stop style="stop-color:#463901;stop-opacity:1;" offset="0.277344"/><stop style="stop-color:#473901;stop-opacity:1;" offset="0.28125"/><stop style="stop-color:#483a01;stop-opacity:1;" offset="0.285156"/><stop style="stop-color:#493b01;stop-opacity:1;" offset="0.289062"/><stop style="stop-color:#4a3c01;stop-opacity:1;" offset="0.292969"/><stop style="stop-color:#4a3d01;stop-opacity:1;" offset="0.296875"/><stop style="stop-color:#4b3d01;stop-opacity:1;" offset="0.300781"/><stop style="stop-color:#4c3e01;stop-opacity:1;" offset="0.304688"/><stop style="stop-color:#4d3f01;stop-opacity:1;" offset="0.308594"/><stop style="stop-color:#4e4001;stop-opacity:1;" offset="0.3125"/><stop style="stop-color:#4f4101;stop-opacity:1;" offset="0.316406"/><stop style="stop-color:#504101;stop-opacity:1;" offset="0.320312"/><stop style="stop-color:#514201;stop-opacity:1;" offset="0.324219"/><stop style="stop-color:#524301;stop-opacity:1;" offset="0.328125"/><stop style="stop-color:#534401;stop-opacity:1;" offset="0.332031"/><stop style="stop-color:#544501;stop-opacity:1;" offset="0.335938"/><stop style="stop-color:#554501;stop-opacity:1;" offset="0.339844"/><stop style="stop-color:#564601;stop-opacity:1;" offset="0.34375"/><stop style="stop-color:#574701;stop-opacity:1;" offset="0.347656"/><stop style="stop-color:#584801;stop-opacity:1;" offset="0.351562"/><stop style="stop-color:#594901;stop-opacity:1;" offset="0.355469"/><stop style="stop-color:#5a4901;stop-opacity:1;" offset="0.359375"/><stop style="stop-color:#5b4a01;stop-opacity:1;" offset="0.363281"/><stop style="stop-color:#5c4b01;stop-opacity:1;" offset="0.367188"/><stop style="stop-color:#5d4c02;stop-opacity:1;" offset="0.371094"/><stop style="stop-color:#5e4c02;stop-opacity:1;" offset="0.375"/><stop style="stop-color:#5f4d02;stop-opacity:1;" offset="0.378906"/><stop style="stop-color:#604e02;stop-opacity:1;" offset="0.382812"/><stop style="stop-color:#614f02;stop-opacity:1;" offset="0.386719"/><stop style="stop-color:#625002;stop-opacity:1;" offset="0.390625"/><stop style="stop-color:#635002;stop-opacity:1;" offset="0.394531"/><stop style="stop-color:#645102;stop-opacity:1;" offset="0.398438"/><stop style="stop-color:#655202;stop-opacity:1;" offset="0.402344"/><stop style="stop-color:#665302;stop-opacity:1;" offset="0.40625"/><stop style="stop-color:#675402;stop-opacity:1;" offset="0.410156"/><stop style="stop-color:#685402;stop-opacity:1;" offset="0.414062"/><stop style="stop-color:#695502;stop-opacity:1;" offset="0.417969"/><stop style="stop-color:#6a5602;stop-opacity:1;" offset="0.421875"/><stop style="stop-color:#6b5702;stop-opacity:1;" offset="0.425781"/><stop style="stop-color:#6c5802;stop-opacity:1;" offset="0.429688"/><stop style="stop-color:#6d5802;stop-opacity:1;" offset="0.433594"/><stop style="stop-color:#6e5902;stop-opacity:1;" offset="0.4375"/><stop style="stop-color:#6f5a02;stop-opacity:1;" offset="0.441406"/><stop style="stop-color:#705b02;stop-opacity:1;" offset="0.445312"/><stop style="stop-color:#715c02;stop-opacity:1;" offset="0.449219"/><stop style="stop-color:#725c02;stop-opacity:1;" offset="0.453125"/><stop style="stop-color:#735d02;stop-opacity:1;" offset="0.457031"/><stop style="stop-color:#745e02;stop-opacity:1;" offset="0.460938"/><stop style="stop-color:#755f02;stop-opacity:1;" offset="0.464844"/><stop style="stop-color:#766002;stop-opacity:1;" offset="0.46875"/><stop style="stop-color:#776002;stop-opacity:1;" offset="0.472656"/><stop style="stop-color:#786102;stop-opacity:1;" offset="0.476562"/><stop style="stop-color:#796202;stop-opacity:1;" offset="0.480469"/><stop style="stop-color:#7a6302;stop-opacity:1;" offset="0.484375"/><stop style="stop-color:#7b6402;stop-opacity:1;" offset="0.488281"/><stop style="stop-color:#7b6402;stop-opacity:1;" offset="0.492188"/><stop style="stop-color:#7c6502;stop-opacity:1;" offset="0.496094"/><stop style="stop-color:#7d6602;stop-opacity:1;" offset="0.5"/><stop style="stop-color:#7e6702;stop-opacity:1;" offset="0.503906"/><stop style="stop-color:#7f6802;stop-opacity:1;" offset="0.507812"/><stop style="stop-color:#806802;stop-opacity:1;" offset="0.511719"/><stop style="stop-color:#816902;stop-opacity:1;" offset="0.515625"/><stop style="stop-color:#826a02;stop-opacity:1;" offset="0.519531"/><stop style="stop-color:#836b02;stop-opacity:1;" offset="0.523437"/><stop style="stop-color:#846c02;stop-opacity:1;" offset="0.527344"/><stop style="stop-color:#856c02;stop-opacity:1;" offset="0.53125"/><stop style="stop-color:#866d02;stop-opacity:1;" offset="0.535156"/><stop style="stop-color:#876e02;stop-opacity:1;" offset="0.539062"/><stop style="stop-color:#886f02;stop-opacity:1;" offset="0.542969"/><stop style="stop-color:#897002;stop-opacity:1;" offset="0.546875"/><stop style="stop-color:#8a7002;stop-opacity:1;" offset="0.550781"/><stop style="stop-color:#8b7102;stop-opacity:1;" offset="0.554687"/><stop style="stop-color:#8c7202;stop-opacity:1;" offset="0.558594"/><stop style="stop-color:#8d7302;stop-opacity:1;" offset="0.5625"/><stop style="stop-color:#8e7402;stop-opacity:1;" offset="0.566406"/><stop style="stop-color:#8f7402;stop-opacity:1;" offset="0.570312"/><stop style="stop-color:#907502;stop-opacity:1;" offset="0.574219"/><stop style="stop-color:#917602;stop-opacity:1;" offset="0.578125"/><stop style="stop-color:#927702;stop-opacity:1;" offset="0.582031"/><stop style="stop-color:#937802;stop-opacity:1;" offset="0.585937"/><stop style="stop-color:#947802;stop-opacity:1;" offset="0.589844"/><stop style="stop-color:#957902;stop-opacity:1;" offset="0.59375"/><stop style="stop-color:#967a02;stop-opacity:1;" offset="0.597656"/><stop style="stop-color:#977b02;stop-opacity:1;" offset="0.601562"/><stop style="stop-color:#987c02;stop-opacity:1;" offset="0.605469"/><stop style="stop-color:#997c02;stop-opacity:1;" offset="0.609375"/><stop style="stop-color:#9a7d02;stop-opacity:1;" offset="0.613281"/><stop style="stop-color:#9b7e03;stop-opacity:1;" offset="0.617187"/><stop style="stop-color:#9c7f03;stop-opacity:1;" offset="0.621094"/><stop style="stop-color:#9d7f03;stop-opacity:1;" offset="0.625"/><stop style="stop-color:#9e8003;stop-opacity:1;" offset="0.628906"/><stop style="stop-color:#9f8103;stop-opacity:1;" offset="0.632812"/><stop style="stop-color:#a08203;stop-opacity:1;" offset="0.636719"/><stop style="stop-color:#a18303;stop-opacity:1;" offset="0.640625"/><stop style="stop-color:#a28303;stop-opacity:1;" offset="0.644531"/><stop style="stop-color:#a38403;stop-opacity:1;" offset="0.648437"/><stop style="stop-color:#a48503;stop-opacity:1;" offset="0.652344"/><stop style="stop-color:#a58603;stop-opacity:1;" offset="0.65625"/><stop style="stop-color:#a68703;stop-opacity:1;" offset="0.660156"/><stop style="stop-color:#a78703;stop-opacity:1;" offset="0.664062"/><stop style="stop-color:#a88803;stop-opacity:1;" offset="0.667969"/><stop style="stop-color:#a98903;stop-opacity:1;" offset="0.671875"/><stop style="stop-color:#aa8a03;stop-opacity:1;" offset="0.675781"/><stop style="stop-color:#ab8b03;stop-opacity:1;" offset="0.679687"/><stop style="stop-color:#ac8b03;stop-opacity:1;" offset="0.683594"/><stop style="stop-color:#ad8c03;stop-opacity:1;" offset="0.6875"/><stop style="stop-color:#ad8d03;stop-opacity:1;" offset="0.691406"/><stop style="stop-color:#ae8e03;stop-opacity:1;" offset="0.695312"/><stop style="stop-color:#af8f03;stop-opacity:1;" offset="0.699219"/><stop style="stop-color:#b08f03;stop-opacity:1;" offset="0.703125"/><stop style="stop-color:#b19003;stop-opacity:1;" offset="0.707031"/><stop style="stop-color:#b29103;stop-opacity:1;" offset="0.710937"/><stop style="stop-color:#b39203;stop-opacity:1;" offset="0.714844"/><stop style="stop-color:#b49303;stop-opacity:1;" offset="0.71875"/><stop style="stop-color:#b59303;stop-opacity:1;" offset="0.722656"/><stop style="stop-color:#b69403;stop-opacity:1;" offset="0.726562"/><stop style="stop-color:#b79503;stop-opacity:1;" offset="0.730469"/><stop style="stop-color:#b89603;stop-opacity:1;" offset="0.734375"/><stop style="stop-color:#b99703;stop-opacity:1;" offset="0.738281"/><stop style="stop-color:#ba9703;stop-opacity:1;" offset="0.742187"/><stop style="stop-color:#bb9803;stop-opacity:1;" offset="0.746094"/><stop style="stop-color:#bc9903;stop-opacity:1;" offset="0.75"/><stop style="stop-color:#bd9a03;stop-opacity:1;" offset="0.753906"/><stop style="stop-color:#be9b03;stop-opacity:1;" offset="0.757812"/><stop style="stop-color:#bf9b03;stop-opacity:1;" offset="0.761719"/><stop style="stop-color:#c09c03;stop-opacity:1;" offset="0.765625"/><stop style="stop-color:#c19d03;stop-opacity:1;" offset="0.769531"/><stop style="stop-color:#c29e03;stop-opacity:1;" offset="0.773438"/><stop style="stop-color:#c39f03;stop-opacity:1;" offset="0.777344"/><stop style="stop-color:#c49f03;stop-opacity:1;" offset="0.78125"/><stop style="stop-color:#c5a003;stop-opacity:1;" offset="0.785156"/><stop style="stop-color:#c6a103;stop-opacity:1;" offset="0.789062"/><stop style="stop-color:#c7a203;stop-opacity:1;" offset="0.792969"/><stop style="stop-color:#c8a303;stop-opacity:1;" offset="0.796875"/><stop style="stop-color:#c9a303;stop-opacity:1;" offset="0.800781"/><stop style="stop-color:#caa403;stop-opacity:1;" offset="0.804688"/><stop style="stop-color:#cba503;stop-opacity:1;" offset="0.808594"/><stop style="stop-color:#cca603;stop-opacity:1;" offset="0.8125"/><stop style="stop-color:#cda703;stop-opacity:1;" offset="0.816406"/><stop style="stop-color:#cea703;stop-opacity:1;" offset="0.820312"/><stop style="stop-color:#cfa803;stop-opacity:1;" offset="0.824219"/><stop style="stop-color:#d0a903;stop-opacity:1;" offset="0.828125"/><stop style="stop-color:#d1aa03;stop-opacity:1;" offset="0.832031"/><stop style="stop-color:#d2ab03;stop-opacity:1;" offset="0.835938"/><stop style="stop-color:#d3ab03;stop-opacity:1;" offset="0.839844"/><stop style="stop-color:#d4ac03;stop-opacity:1;" offset="0.84375"/><stop style="stop-color:#d5ad03;stop-opacity:1;" offset="0.847656"/><stop style="stop-color:#d6ae03;stop-opacity:1;" offset="0.851562"/><stop style="stop-color:#d7af03;stop-opacity:1;" offset="0.855469"/><stop style="stop-color:#d8af04;stop-opacity:1;" offset="0.859375"/><stop style="stop-color:#d9b004;stop-opacity:1;" offset="0.863281"/><stop style="stop-color:#dab104;stop-opacity:1;" offset="0.867188"/><stop style="stop-color:#dbb204;stop-opacity:1;" offset="0.871094"/><stop style="stop-color:#dcb204;stop-opacity:1;" offset="0.875"/><stop style="stop-color:#ddb304;stop-opacity:1;" offset="0.878906"/><stop style="stop-color:#deb404;stop-opacity:1;" offset="0.882812"/><stop style="stop-color:#deb504;stop-opacity:1;" offset="0.886719"/><stop style="stop-color:#dfb604;stop-opacity:1;" offset="0.890625"/><stop style="stop-color:#e0b604;stop-opacity:1;" offset="0.894531"/><stop style="stop-color:#e1b704;stop-opacity:1;" offset="0.898438"/><stop style="stop-color:#e2b804;stop-opacity:1;" offset="0.902344"/><stop style="stop-color:#e3b904;stop-opacity:1;" offset="0.90625"/><stop style="stop-color:#e4ba04;stop-opacity:1;" offset="0.910156"/><stop style="stop-color:#e5ba04;stop-opacity:1;" offset="0.914062"/><stop style="stop-color:#e6bb04;stop-opacity:1;" offset="0.917969"/><stop style="stop-color:#e7bc04;stop-opacity:1;" offset="0.921875"/><stop style="stop-color:#e8bd04;stop-opacity:1;" offset="0.925781"/><stop style="stop-color:#e9be04;stop-opacity:1;" offset="0.929688"/><stop style="stop-color:#eabe04;stop-opacity:1;" offset="0.933594"/><stop style="stop-color:#ebbf04;stop-opacity:1;" offset="0.9375"/><stop style="stop-color:#ecc004;stop-opacity:1;" offset="0.941406"/><stop style="stop-color:#edc104;stop-opacity:1;" offset="0.945312"/><stop style="stop-color:#eec204;stop-opacity:1;" offset="0.949219"/><stop style="stop-color:#efc204;stop-opacity:1;" offset="0.953125"/><stop style="stop-color:#f0c304;stop-opacity:1;" offset="0.957031"/><stop style="stop-color:#f1c404;stop-opacity:1;" offset="0.960938"/><stop style="stop-color:#f2c504;stop-opacity:1;" offset="0.964844"/><stop style="stop-color:#f3c604;stop-opacity:1;" offset="0.96875"/><stop style="stop-color:#f4c604;stop-opacity:1;" offset="0.972656"/><stop style="stop-color:#f5c704;stop-opacity:1;" offset="0.976562"/><stop style="stop-color:#f6c804;stop-opacity:1;" offset="0.980469"/><stop style="stop-color:#f7c904;stop-opacity:1;" offset="0.984375"/><stop style="stop-color:#f8ca04;stop-opacity:1;" offset="0.988281"/><stop style="stop-color:#f9ca04;stop-opacity:1;" offset="0.992188"/><stop style="stop-color:#facb04;stop-opacity:1;" offset="0.996094"/><stop style="stop-color:#fbcc04;stop-opacity:1;" offset="1"/></linearGradient><clipPath id="d81122f6b0"><path d="M 51 39 L 69.273438 39 L 69.273438 72.6875 L 51 72.6875 Z M 51 39 "/></clipPath><clipPath id="74b1d3aa2d"><path d="M 19 35 L 43 35 L 43 72.6875 L 19 72.6875 Z M 19 35 "/></clipPath><clipPath id="46aeee87ee"><path d="M 44 35 L 67 35 L 67 72.6875 L 44 72.6875 Z M 44 35 "/></clipPath><clipPath id="514978914d"><path d="M 18 22.4375 L 31 22.4375 L 31 35 L 18 35 Z M 18 22.4375 "/></clipPath><clipPath id="a10ca0e28e"><path d="M 16.773438 39 L 35 39 L 35 72.6875 L 16.773438 72.6875 Z M 16.773438 39 "/></clipPath><clipPath id="c1d290653f"><path d="M 55 22.4375 L 68 22.4375 L 68 35 L 55 35 Z M 55 22.4375 "/></clipPath></defs><g id="c510ddec92"><g clip-rule="nonzero" clip-path="url(#db3b6fe61c)"><g clip-rule="nonzero" clip-path="url(#05e39a712b)"><path style=" stroke:none;fill-rule:nonzero;fill:url(#linear0);" d="M 0 0 L 0 89.738281 L 89.738281 89.738281 L 89.738281 0 Z M 0 0 "/></g></g><g clip-rule="nonzero" clip-path="url(#d81122f6b0)"><path style=" stroke:none;fill-rule:nonzero;fill:#000;fill-opacity:1;" d="M 68.25 39.710938 C 68.675781 39.714844 69.019531 40.070312 69.011719 40.5 L 69.011719 55.390625 C 69.011719 58.3125 67.34375 60.355469 65.113281 60.628906 L 64.835938 60.660156 L 68.957031 71.460938 C 69.109375 71.859375 68.910156 72.3125 68.511719 72.464844 C 68.109375 72.617188 67.660156 72.417969 67.503906 72.015625 L 63.25 60.855469 L 57.128906 61.601562 L 53.1875 72.015625 C 53.046875 72.429688 52.59375 72.644531 52.183594 72.488281 C 51.773438 72.332031 51.570312 71.867188 51.742188 71.464844 L 55.847656 60.613281 C 55.949219 60.34375 56.191406 60.152344 56.476562 60.117188 L 64.925781 59.089844 C 66.375 58.910156 67.460938 57.773438 67.460938 55.390625 L 67.460938 40.5 C 67.453125 40.0625 67.808594 39.703125 68.25 39.710938 Z M 68.25 39.710938 "/></g><g clip-rule="nonzero" clip-path="url(#74b1d3aa2d)"><path style=" stroke:none;fill-rule:nonzero;fill:#000;fill-opacity:1;" d="M 40.386719 38.859375 L 41.144531 39.757812 C 39.683594 40.960938 38.492188 42.375 37.8125 44.121094 C 37.417969 43.960938 36.96875 43.902344 36.492188 43.988281 C 37.105469 41.960938 38.746094 39.953125 40.386719 38.859375 Z M 23.441406 37.035156 C 24.507812 37.035156 25.257812 37.765625 25.871094 39.042969 L 29.347656 46.304688 C 29.496094 46.621094 29.839844 46.800781 30.183594 46.738281 L 36.726562 45.515625 C 37.390625 45.390625 37.632812 45.714844 37.703125 46.070312 C 37.777344 46.429688 37.722656 46.84375 36.800781 47.074219 L 29.09375 49.003906 C 28.667969 49.070312 28.269531 48.867188 28.085938 48.484375 L 24.96875 42.609375 C 24.5625 41.839844 23.808594 42.253906 24.121094 43.015625 L 26.34375 48.445312 L 26.34375 52.648438 C 26.347656 53.035156 26.636719 53.363281 27.019531 53.414062 L 34.132812 54.332031 C 34.820312 54.421875 35.394531 54.890625 35.628906 55.539062 L 40.25 68.507812 C 40.480469 69.144531 40.40625 69.613281 40.191406 69.996094 C 39.980469 70.382812 39.59375 70.691406 39.144531 70.855469 C 38.691406 71.015625 38.191406 71.019531 37.78125 70.855469 C 37.375 70.691406 37.015625 70.382812 36.792969 69.742188 L 32.710938 58.285156 C 32.609375 58.011719 32.371094 57.8125 32.078125 57.773438 L 22.765625 56.566406 C 21.84375 56.449219 21.160156 55.679688 21.160156 54.746094 L 21.160156 38.867188 C 21.160156 38.300781 21.316406 37.878906 21.628906 37.578125 C 21.941406 37.277344 22.480469 37.03125 23.441406 37.035156 Z M 23.441406 35.480469 C 22.203125 35.480469 21.214844 35.820312 20.550781 36.460938 C 19.886719 37.101562 19.609375 37.992188 19.609375 38.867188 L 19.609375 54.746094 C 19.609375 56.445312 20.878906 57.886719 22.5625 58.109375 L 31.40625 59.253906 L 35.332031 70.269531 C 35.691406 71.269531 36.390625 71.972656 37.195312 72.300781 C 38.003906 72.621094 38.882812 72.601562 39.660156 72.324219 C 40.441406 72.046875 41.136719 71.503906 41.554688 70.742188 C 41.972656 69.980469 42.070312 68.996094 41.71875 67.988281 L 37.089844 55.027344 C 36.664062 53.828125 35.597656 52.964844 34.335938 52.800781 L 27.894531 51.964844 L 27.894531 49.914062 C 28.183594 50.421875 28.914062 50.648438 29.402344 50.527344 L 37.175781 48.582031 C 38.691406 48.203125 39.453125 46.886719 39.226562 45.761719 C 39.191406 45.59375 39.132812 45.4375 39.0625 45.28125 C 39.644531 43.277344 40.863281 41.714844 42.652344 40.433594 C 43.019531 40.167969 43.085938 39.648438 42.792969 39.304688 L 41.070312 37.265625 C 40.917969 37.085938 40.6875 36.984375 40.457031 36.996094 C 40.335938 36.996094 40.21875 37.027344 40.109375 37.085938 C 37.6875 38.398438 35.460938 41.203125 34.824219 44.160156 C 34.820312 44.207031 34.8125 44.25 34.8125 44.296875 L 30.488281 45.101562 L 27.277344 38.398438 C 26.511719 36.808594 25.234375 35.484375 23.441406 35.480469 Z M 23.441406 35.480469 "/></g><g clip-rule="nonzero" clip-path="url(#46aeee87ee)"><path style=" stroke:none;fill-rule:nonzero;fill:#000;fill-opacity:1;" d="M 62.261719 37.035156 C 63.222656 37.035156 63.878906 37.289062 64.277344 37.621094 C 64.675781 37.953125 64.851562 38.359375 64.851562 38.867188 L 64.851562 54.746094 C 64.855469 55.679688 64.179688 56.449219 63.253906 56.566406 L 53.945312 57.773438 C 53.652344 57.8125 53.40625 58.007812 53.3125 58.285156 L 49.226562 69.746094 C 49 70.386719 48.648438 70.691406 48.238281 70.855469 C 47.828125 71.023438 47.332031 71.019531 46.878906 70.855469 C 46.425781 70.695312 46.039062 70.386719 45.824219 69.996094 C 45.609375 69.613281 45.535156 69.144531 45.765625 68.507812 L 50.390625 55.546875 C 50.515625 55.203125 50.527344 54.984375 50.839844 54.808594 C 51.265625 54.988281 51.960938 54.824219 52.265625 54.730469 L 61.09375 51.910156 C 62.042969 51.609375 62.757812 50.773438 62.824219 49.78125 L 63.347656 41.960938 C 63.402344 41.121094 62.574219 40.917969 62.433594 41.867188 L 61.28125 49.605469 C 61.207031 50.078125 60.921875 50.335938 60.621094 50.433594 L 51.792969 53.246094 C 51.433594 53.363281 51.316406 53.417969 50.933594 53.226562 C 50.808594 53.164062 50.628906 52.949219 50.535156 52.664062 C 50.453125 52.398438 50.453125 52.097656 50.554688 51.925781 C 50.734375 51.609375 51.007812 51.519531 51.230469 51.449219 L 58.664062 49.070312 C 59.152344 48.914062 59.507812 48.46875 59.554688 47.960938 L 60.355469 39.171875 C 60.4375 38.3125 60.660156 37.78125 60.933594 37.488281 C 61.207031 37.191406 61.566406 37.03125 62.257812 37.03125 Z M 62.261719 35.480469 C 61.28125 35.480469 60.394531 35.785156 59.796875 36.429688 C 59.191406 37.082031 58.914062 37.972656 58.816406 39.035156 L 58.023438 47.648438 L 50.761719 49.96875 C 49.972656 50.191406 49.402344 50.710938 49.144531 51.273438 C 48.867188 51.867188 48.839844 52.683594 48.980469 53.132812 C 49.125 53.582031 49.265625 53.851562 49.519531 54.035156 C 49.246094 54.324219 49.105469 54.53125 48.929688 55.019531 L 44.300781 67.988281 C 43.945312 68.992188 44.046875 69.980469 44.464844 70.742188 C 44.882812 71.503906 45.578125 72.046875 46.355469 72.324219 C 47.132812 72.601562 48.011719 72.621094 48.820312 72.300781 C 49.625 71.972656 50.332031 71.269531 50.691406 70.269531 L 54.609375 59.25 L 63.460938 58.105469 C 65.140625 57.886719 66.410156 56.441406 66.402344 54.742188 L 66.402344 38.863281 C 66.402344 37.9375 66 37.039062 65.265625 36.425781 C 64.53125 35.816406 63.496094 35.480469 62.261719 35.480469 Z M 62.261719 35.480469 "/></g><g clip-rule="nonzero" clip-path="url(#514978914d)"><path style=" stroke:none;fill-rule:evenodd;fill:#000;fill-opacity:1;" d="M 25.882812 24.433594 C 26.917969 24.84375 27.789062 25.652344 28.269531 26.765625 C 29.222656 28.976562 28.214844 31.527344 26.003906 32.484375 C 23.777344 33.441406 21.226562 32.429688 20.269531 30.207031 C 19.3125 27.992188 20.320312 25.445312 22.546875 24.484375 C 23.65625 24.007812 24.847656 24.023438 25.882812 24.433594 Z M 26.445312 23 C 25.039062 22.441406 23.421875 22.417969 21.929688 23.0625 C 18.933594 24.351562 17.554688 27.839844 18.84375 30.824219 C 20.132812 33.8125 23.625 35.203125 26.617188 33.910156 C 29.605469 32.625 30.984375 29.128906 29.695312 26.144531 C 29.046875 24.652344 27.851562 23.558594 26.445312 23 Z M 26.445312 23 "/></g><g clip-rule="nonzero" clip-path="url(#a10ca0e28e)"><path style=" stroke:none;fill-rule:nonzero;fill:#000;fill-opacity:1;" d="M 17.628906 39.710938 C 17.203125 39.714844 16.859375 40.070312 16.867188 40.5 L 16.867188 55.390625 C 16.867188 58.3125 18.535156 60.355469 20.769531 60.628906 L 21.042969 60.660156 L 16.925781 71.460938 C 16.765625 71.859375 16.96875 72.3125 17.371094 72.464844 C 17.769531 72.617188 18.222656 72.417969 18.375 72.015625 L 22.628906 60.855469 L 28.75 61.601562 L 32.691406 72.015625 C 32.832031 72.429688 33.289062 72.644531 33.699219 72.488281 C 34.109375 72.332031 34.308594 71.867188 34.136719 71.464844 L 30.03125 60.613281 C 29.933594 60.34375 29.691406 60.152344 29.410156 60.117188 L 20.957031 59.089844 C 19.503906 58.910156 18.421875 57.773438 18.421875 55.390625 L 18.421875 40.5 C 18.429688 40.0625 18.066406 39.703125 17.628906 39.710938 Z M 17.628906 39.710938 "/></g><g clip-rule="nonzero" clip-path="url(#c1d290653f)"><path style=" stroke:none;fill-rule:evenodd;fill:#000;fill-opacity:1;" d="M 63.359375 24.433594 C 64.390625 24.84375 65.265625 25.652344 65.746094 26.765625 C 66.703125 28.976562 65.691406 31.527344 63.476562 32.484375 C 61.253906 33.441406 58.703125 32.429688 57.746094 30.207031 C 56.789062 27.992188 57.796875 25.445312 60.023438 24.484375 C 61.128906 24.007812 62.324219 24.023438 63.359375 24.433594 Z M 63.925781 23 C 62.519531 22.441406 60.902344 22.417969 59.410156 23.0625 C 56.421875 24.351562 55.03125 27.839844 56.320312 30.824219 C 57.609375 33.8125 61.105469 35.203125 64.09375 33.910156 C 67.082031 32.625 68.460938 29.128906 67.167969 26.144531 C 66.527344 24.652344 65.335938 23.558594 63.925781 23 Z M 63.925781 23 "/></g></g></svg>