<svg xmlns="http://www.w3.org/2000/svg" xmlns:xlink="http://www.w3.org/1999/xlink" zoomAndPan="magnify" preserveAspectRatio="xMidYMid meet" version="1.2" viewBox="0 0 89.74 89.74"><defs><clipPath id="70e66fd7d2"><path d="M 0 0 L 89.738281 0 L 89.738281 89.738281 L 0 89.738281 Z M 0 0 "/></clipPath><clipPath id="5041005ee8"><path d="M 18 0 L 71.738281 0 C 81.679688 0 89.738281 8.058594 89.738281 18 L 89.738281 71.738281 C 89.738281 81.679688 81.679688 89.738281 71.738281 89.738281 L 18 89.738281 C 8.058594 89.738281 0 81.679688 0 71.738281 L 0 18 C 0 8.058594 8.058594 0 18 0 Z M 18 0 "/></clipPath><linearGradient x1="128" gradientTransform="matrix(0.350543,0,0,0.350543,0.0000005,0.000002)" y1="0.000000000000182428" x2="128" gradientUnits="userSpaceOnUse" y2="255.999992" id="4eda6d5432"><stop style="stop-color:#000000;stop-opacity:1;" offset="0"/><stop style="stop-color:#010100;stop-opacity:1;" offset="0.00390625"/><stop style="stop-color:#020200;stop-opacity:1;" offset="0.0078125"/><stop style="stop-color:#030200;stop-opacity:1;" offset="0.0117187"/><stop style="stop-color:#040300;stop-opacity:1;" offset="0.015625"/><stop style="stop-color:#050400;stop-opacity:1;" offset="0.0195312"/><stop style="stop-color:#060500;stop-opacity:1;" offset="0.0234375"/><stop style="stop-color:#070600;stop-opacity:1;" offset="0.0273437"/><stop style="stop-color:#080600;stop-opacity:1;" offset="0.03125"/><stop style="stop-color:#090700;stop-opacity:1;" offset="0.0351562"/><stop style="stop-color:#0a0800;stop-opacity:1;" offset="0.0390625"/><stop style="stop-color:#0b0900;stop-opacity:1;" offset="0.0429688"/><stop style="stop-color:#0c0a00;stop-opacity:1;" offset="0.046875"/><stop style="stop-color:#0d0a00;stop-opacity:1;" offset="0.0507812"/><stop style="stop-color:#0e0b00;stop-opacity:1;" offset="0.0546875"/><stop style="stop-color:#0f0c00;stop-opacity:1;" offset="0.0585937"/><stop style="stop-color:#100d00;stop-opacity:1;" offset="0.0625"/><stop style="stop-color:#110e00;stop-opacity:1;" offset="0.0664062"/><stop style="stop-color:#120e00;stop-opacity:1;" offset="0.0703125"/><stop style="stop-color:#130f00;stop-opacity:1;" offset="0.0742188"/><stop style="stop-color:#141000;stop-opacity:1;" offset="0.078125"/><stop style="stop-color:#151100;stop-opacity:1;" offset="0.0820312"/><stop style="stop-color:#161200;stop-opacity:1;" offset="0.0859375"/><stop style="stop-color:#171200;stop-opacity:1;" offset="0.0898438"/><stop style="stop-color:#181300;stop-opacity:1;" offset="0.09375"/><stop style="stop-color:#191400;stop-opacity:1;" offset="0.0976562"/><stop style="stop-color:#191500;stop-opacity:1;" offset="0.101562"/><stop style="stop-color:#1a1600;stop-opacity:1;" offset="0.105469"/><stop style="stop-color:#1b1600;stop-opacity:1;" offset="0.109375"/><stop style="stop-color:#1c1700;stop-opacity:1;" offset="0.113281"/><stop style="stop-color:#1d1800;stop-opacity:1;" offset="0.117187"/><stop style="stop-color:#1e1900;stop-opacity:1;" offset="0.121094"/><stop style="stop-color:#1f1901;stop-opacity:1;" offset="0.125"/><stop style="stop-color:#201a01;stop-opacity:1;" offset="0.128906"/><stop style="stop-color:#211b01;stop-opacity:1;" offset="0.132812"/><stop style="stop-color:#221c01;stop-opacity:1;" offset="0.136719"/><stop style="stop-color:#231d01;stop-opacity:1;" offset="0.140625"/><stop style="stop-color:#241d01;stop-opacity:1;" offset="0.144531"/><stop style="stop-color:#251e01;stop-opacity:1;" offset="0.148438"/><stop style="stop-color:#261f01;stop-opacity:1;" offset="0.152344"/><stop style="stop-color:#272001;stop-opacity:1;" offset="0.15625"/><stop style="stop-color:#282101;stop-opacity:1;" offset="0.160156"/><stop style="stop-color:#292101;stop-opacity:1;" offset="0.164062"/><stop style="stop-color:#2a2201;stop-opacity:1;" offset="0.167969"/><stop style="stop-color:#2b2301;stop-opacity:1;" offset="0.171875"/><stop style="stop-color:#2c2401;stop-opacity:1;" offset="0.175781"/><stop style="stop-color:#2d2501;stop-opacity:1;" offset="0.179688"/><stop style="stop-color:#2e2501;stop-opacity:1;" offset="0.183594"/><stop style="stop-color:#2f2601;stop-opacity:1;" offset="0.1875"/><stop style="stop-color:#302701;stop-opacity:1;" offset="0.191406"/><stop style="stop-color:#312801;stop-opacity:1;" offset="0.195312"/><stop style="stop-color:#322901;stop-opacity:1;" offset="0.199219"/><stop style="stop-color:#332901;stop-opacity:1;" offset="0.203125"/><stop style="stop-color:#342a01;stop-opacity:1;" offset="0.207031"/><stop style="stop-color:#352b01;stop-opacity:1;" offset="0.210937"/><stop style="stop-color:#362c01;stop-opacity:1;" offset="0.214844"/><stop style="stop-color:#372d01;stop-opacity:1;" offset="0.21875"/><stop style="stop-color:#382d01;stop-opacity:1;" offset="0.222656"/><stop style="stop-color:#392e01;stop-opacity:1;" offset="0.226562"/><stop style="stop-color:#3a2f01;stop-opacity:1;" offset="0.230469"/><stop style="stop-color:#3b3001;stop-opacity:1;" offset="0.234375"/><stop style="stop-color:#3c3101;stop-opacity:1;" offset="0.238281"/><stop style="stop-color:#3d3101;stop-opacity:1;" offset="0.242187"/><stop style="stop-color:#3e3201;stop-opacity:1;" offset="0.246094"/><stop style="stop-color:#3f3301;stop-opacity:1;" offset="0.25"/><stop style="stop-color:#403401;stop-opacity:1;" offset="0.253906"/><stop style="stop-color:#413501;stop-opacity:1;" offset="0.257812"/><stop style="stop-color:#423501;stop-opacity:1;" offset="0.261719"/><stop style="stop-color:#433601;stop-opacity:1;" offset="0.265625"/><stop style="stop-color:#443701;stop-opacity:1;" offset="0.269531"/><stop style="stop-color:#453801;stop-opacity:1;" offset="0.273437"/><stop style="stop-color:#463901;stop-opacity:1;" offset="0.277344"/><stop style="stop-color:#473901;stop-opacity:1;" offset="0.28125"/><stop style="stop-color:#483a01;stop-opacity:1;" offset="0.285156"/><stop style="stop-color:#493b01;stop-opacity:1;" offset="0.289062"/><stop style="stop-color:#4a3c01;stop-opacity:1;" offset="0.292969"/><stop style="stop-color:#4a3d01;stop-opacity:1;" offset="0.296875"/><stop style="stop-color:#4b3d01;stop-opacity:1;" offset="0.300781"/><stop style="stop-color:#4c3e01;stop-opacity:1;" offset="0.304687"/><stop style="stop-color:#4d3f01;stop-opacity:1;" offset="0.308594"/><stop style="stop-color:#4e4001;stop-opacity:1;" offset="0.3125"/><stop style="stop-color:#4f4101;stop-opacity:1;" offset="0.316406"/><stop style="stop-color:#504101;stop-opacity:1;" offset="0.320312"/><stop style="stop-color:#514201;stop-opacity:1;" offset="0.324219"/><stop style="stop-color:#524301;stop-opacity:1;" offset="0.328125"/><stop style="stop-color:#534401;stop-opacity:1;" offset="0.332031"/><stop style="stop-color:#544501;stop-opacity:1;" offset="0.335937"/><stop style="stop-color:#554501;stop-opacity:1;" offset="0.339844"/><stop style="stop-color:#564601;stop-opacity:1;" offset="0.34375"/><stop style="stop-color:#574701;stop-opacity:1;" offset="0.347656"/><stop style="stop-color:#584801;stop-opacity:1;" offset="0.351562"/><stop style="stop-color:#594901;stop-opacity:1;" offset="0.355469"/><stop style="stop-color:#5a4901;stop-opacity:1;" offset="0.359375"/><stop style="stop-color:#5b4a01;stop-opacity:1;" offset="0.363281"/><stop style="stop-color:#5c4b01;stop-opacity:1;" offset="0.367187"/><stop style="stop-color:#5d4c02;stop-opacity:1;" offset="0.371094"/><stop style="stop-color:#5e4c02;stop-opacity:1;" offset="0.375"/><stop style="stop-color:#5f4d02;stop-opacity:1;" offset="0.378906"/><stop style="stop-color:#604e02;stop-opacity:1;" offset="0.382812"/><stop style="stop-color:#614f02;stop-opacity:1;" offset="0.386719"/><stop style="stop-color:#625002;stop-opacity:1;" offset="0.390625"/><stop style="stop-color:#635002;stop-opacity:1;" offset="0.394531"/><stop style="stop-color:#645102;stop-opacity:1;" offset="0.398437"/><stop style="stop-color:#655202;stop-opacity:1;" offset="0.402344"/><stop style="stop-color:#665302;stop-opacity:1;" offset="0.40625"/><stop style="stop-color:#675402;stop-opacity:1;" offset="0.410156"/><stop style="stop-color:#685402;stop-opacity:1;" offset="0.414062"/><stop style="stop-color:#695502;stop-opacity:1;" offset="0.417969"/><stop style="stop-color:#6a5602;stop-opacity:1;" offset="0.421875"/><stop style="stop-color:#6b5702;stop-opacity:1;" offset="0.425781"/><stop style="stop-color:#6c5802;stop-opacity:1;" offset="0.429687"/><stop style="stop-color:#6d5802;stop-opacity:1;" offset="0.433594"/><stop style="stop-color:#6e5902;stop-opacity:1;" offset="0.4375"/><stop style="stop-color:#6f5a02;stop-opacity:1;" offset="0.441406"/><stop style="stop-color:#705b02;stop-opacity:1;" offset="0.445312"/><stop style="stop-color:#715c02;stop-opacity:1;" offset="0.449219"/><stop style="stop-color:#725c02;stop-opacity:1;" offset="0.453125"/><stop style="stop-color:#735d02;stop-opacity:1;" offset="0.457031"/><stop style="stop-color:#745e02;stop-opacity:1;" offset="0.460937"/><stop style="stop-color:#755f02;stop-opacity:1;" offset="0.464844"/><stop style="stop-color:#766002;stop-opacity:1;" offset="0.46875"/><stop style="stop-color:#776002;stop-opacity:1;" offset="0.472656"/><stop style="stop-color:#786102;stop-opacity:1;" offset="0.476562"/><stop style="stop-color:#796202;stop-opacity:1;" offset="0.480469"/><stop style="stop-color:#7a6302;stop-opacity:1;" offset="0.484375"/><stop style="stop-color:#7b6402;stop-opacity:1;" offset="0.488281"/><stop style="stop-color:#7b6402;stop-opacity:1;" offset="0.492187"/><stop style="stop-color:#7c6502;stop-opacity:1;" offset="0.496094"/><stop style="stop-color:#7d6602;stop-opacity:1;" offset="0.5"/><stop style="stop-color:#7e6702;stop-opacity:1;" offset="0.503906"/><stop style="stop-color:#7f6802;stop-opacity:1;" offset="0.507812"/><stop style="stop-color:#806802;stop-opacity:1;" offset="0.511719"/><stop style="stop-color:#816902;stop-opacity:1;" offset="0.515625"/><stop style="stop-color:#826a02;stop-opacity:1;" offset="0.519531"/><stop style="stop-color:#836b02;stop-opacity:1;" offset="0.523438"/><stop style="stop-color:#846c02;stop-opacity:1;" offset="0.527344"/><stop style="stop-color:#856c02;stop-opacity:1;" offset="0.53125"/><stop style="stop-color:#866d02;stop-opacity:1;" offset="0.535156"/><stop style="stop-color:#876e02;stop-opacity:1;" offset="0.539062"/><stop style="stop-color:#886f02;stop-opacity:1;" offset="0.542969"/><stop style="stop-color:#897002;stop-opacity:1;" offset="0.546875"/><stop style="stop-color:#8a7002;stop-opacity:1;" offset="0.550781"/><stop style="stop-color:#8b7102;stop-opacity:1;" offset="0.554688"/><stop style="stop-color:#8c7202;stop-opacity:1;" offset="0.558594"/><stop style="stop-color:#8d7302;stop-opacity:1;" offset="0.5625"/><stop style="stop-color:#8e7402;stop-opacity:1;" offset="0.566406"/><stop style="stop-color:#8f7402;stop-opacity:1;" offset="0.570313"/><stop style="stop-color:#907502;stop-opacity:1;" offset="0.574219"/><stop style="stop-color:#917602;stop-opacity:1;" offset="0.578125"/><stop style="stop-color:#927702;stop-opacity:1;" offset="0.582031"/><stop style="stop-color:#937802;stop-opacity:1;" offset="0.585938"/><stop style="stop-color:#947802;stop-opacity:1;" offset="0.589844"/><stop style="stop-color:#957902;stop-opacity:1;" offset="0.59375"/><stop style="stop-color:#967a02;stop-opacity:1;" offset="0.597656"/><stop style="stop-color:#977b02;stop-opacity:1;" offset="0.601563"/><stop style="stop-color:#987c02;stop-opacity:1;" offset="0.605469"/><stop style="stop-color:#997c02;stop-opacity:1;" offset="0.609375"/><stop style="stop-color:#9a7d02;stop-opacity:1;" offset="0.613281"/><stop style="stop-color:#9b7e03;stop-opacity:1;" offset="0.617188"/><stop style="stop-color:#9c7f03;stop-opacity:1;" offset="0.621094"/><stop style="stop-color:#9d7f03;stop-opacity:1;" offset="0.625"/><stop style="stop-color:#9e8003;stop-opacity:1;" offset="0.628906"/><stop style="stop-color:#9f8103;stop-opacity:1;" offset="0.632813"/><stop style="stop-color:#a08203;stop-opacity:1;" offset="0.636719"/><stop style="stop-color:#a18303;stop-opacity:1;" offset="0.640625"/><stop style="stop-color:#a28303;stop-opacity:1;" offset="0.644531"/><stop style="stop-color:#a38403;stop-opacity:1;" offset="0.648438"/><stop style="stop-color:#a48503;stop-opacity:1;" offset="0.652344"/><stop style="stop-color:#a58603;stop-opacity:1;" offset="0.65625"/><stop style="stop-color:#a68703;stop-opacity:1;" offset="0.660156"/><stop style="stop-color:#a78703;stop-opacity:1;" offset="0.664063"/><stop style="stop-color:#a88803;stop-opacity:1;" offset="0.667969"/><stop style="stop-color:#a98903;stop-opacity:1;" offset="0.671875"/><stop style="stop-color:#aa8a03;stop-opacity:1;" offset="0.675781"/><stop style="stop-color:#ab8b03;stop-opacity:1;" offset="0.679688"/><stop style="stop-color:#ac8b03;stop-opacity:1;" offset="0.683594"/><stop style="stop-color:#ad8c03;stop-opacity:1;" offset="0.6875"/><stop style="stop-color:#ad8d03;stop-opacity:1;" offset="0.691406"/><stop style="stop-color:#ae8e03;stop-opacity:1;" offset="0.695313"/><stop style="stop-color:#af8f03;stop-opacity:1;" offset="0.699219"/><stop style="stop-color:#b08f03;stop-opacity:1;" offset="0.703125"/><stop style="stop-color:#b19003;stop-opacity:1;" offset="0.707031"/><stop style="stop-color:#b29103;stop-opacity:1;" offset="0.710938"/><stop style="stop-color:#b39203;stop-opacity:1;" offset="0.714844"/><stop style="stop-color:#b49303;stop-opacity:1;" offset="0.71875"/><stop style="stop-color:#b59303;stop-opacity:1;" offset="0.722656"/><stop style="stop-color:#b69403;stop-opacity:1;" offset="0.726563"/><stop style="stop-color:#b79503;stop-opacity:1;" offset="0.730469"/><stop style="stop-color:#b89603;stop-opacity:1;" offset="0.734375"/><stop style="stop-color:#b99703;stop-opacity:1;" offset="0.738281"/><stop style="stop-color:#ba9703;stop-opacity:1;" offset="0.742188"/><stop style="stop-color:#bb9803;stop-opacity:1;" offset="0.746094"/><stop style="stop-color:#bc9903;stop-opacity:1;" offset="0.75"/><stop style="stop-color:#bd9a03;stop-opacity:1;" offset="0.753906"/><stop style="stop-color:#be9b03;stop-opacity:1;" offset="0.757813"/><stop style="stop-color:#bf9b03;stop-opacity:1;" offset="0.761719"/><stop style="stop-color:#c09c03;stop-opacity:1;" offset="0.765625"/><stop style="stop-color:#c19d03;stop-opacity:1;" offset="0.769531"/><stop style="stop-color:#c29e03;stop-opacity:1;" offset="0.773438"/><stop style="stop-color:#c39f03;stop-opacity:1;" offset="0.777344"/><stop style="stop-color:#c49f03;stop-opacity:1;" offset="0.78125"/><stop style="stop-color:#c5a003;stop-opacity:1;" offset="0.785156"/><stop style="stop-color:#c6a103;stop-opacity:1;" offset="0.789063"/><stop style="stop-color:#c7a203;stop-opacity:1;" offset="0.792969"/><stop style="stop-color:#c8a303;stop-opacity:1;" offset="0.796875"/><stop style="stop-color:#c9a303;stop-opacity:1;" offset="0.800781"/><stop style="stop-color:#caa403;stop-opacity:1;" offset="0.804688"/><stop style="stop-color:#cba503;stop-opacity:1;" offset="0.808594"/><stop style="stop-color:#cca603;stop-opacity:1;" offset="0.8125"/><stop style="stop-color:#cda703;stop-opacity:1;" offset="0.816406"/><stop style="stop-color:#cea703;stop-opacity:1;" offset="0.820313"/><stop style="stop-color:#cfa803;stop-opacity:1;" offset="0.824219"/><stop style="stop-color:#d0a903;stop-opacity:1;" offset="0.828125"/><stop style="stop-color:#d1aa03;stop-opacity:1;" offset="0.832031"/><stop style="stop-color:#d2ab03;stop-opacity:1;" offset="0.835938"/><stop style="stop-color:#d3ab03;stop-opacity:1;" offset="0.839844"/><stop style="stop-color:#d4ac03;stop-opacity:1;" offset="0.84375"/><stop style="stop-color:#d5ad03;stop-opacity:1;" offset="0.847656"/><stop style="stop-color:#d6ae03;stop-opacity:1;" offset="0.851563"/><stop style="stop-color:#d7af03;stop-opacity:1;" offset="0.855469"/><stop style="stop-color:#d8af04;stop-opacity:1;" offset="0.859375"/><stop style="stop-color:#d9b004;stop-opacity:1;" offset="0.863281"/><stop style="stop-color:#dab104;stop-opacity:1;" offset="0.867188"/><stop style="stop-color:#dbb204;stop-opacity:1;" offset="0.871094"/><stop style="stop-color:#dcb204;stop-opacity:1;" offset="0.875"/><stop style="stop-color:#ddb304;stop-opacity:1;" offset="0.878906"/><stop style="stop-color:#deb404;stop-opacity:1;" offset="0.882812"/><stop style="stop-color:#deb504;stop-opacity:1;" offset="0.886719"/><stop style="stop-color:#dfb604;stop-opacity:1;" offset="0.890625"/><stop style="stop-color:#e0b604;stop-opacity:1;" offset="0.894531"/><stop style="stop-color:#e1b704;stop-opacity:1;" offset="0.898438"/><stop style="stop-color:#e2b804;stop-opacity:1;" offset="0.902344"/><stop style="stop-color:#e3b904;stop-opacity:1;" offset="0.90625"/><stop style="stop-color:#e4ba04;stop-opacity:1;" offset="0.910156"/><stop style="stop-color:#e5ba04;stop-opacity:1;" offset="0.914062"/><stop style="stop-color:#e6bb04;stop-opacity:1;" offset="0.917969"/><stop style="stop-color:#e7bc04;stop-opacity:1;" offset="0.921875"/><stop style="stop-color:#e8bd04;stop-opacity:1;" offset="0.925781"/><stop style="stop-color:#e9be04;stop-opacity:1;" offset="0.929688"/><stop style="stop-color:#eabe04;stop-opacity:1;" offset="0.933594"/><stop style="stop-color:#ebbf04;stop-opacity:1;" offset="0.9375"/><stop style="stop-color:#ecc004;stop-opacity:1;" offset="0.941406"/><stop style="stop-color:#edc104;stop-opacity:1;" offset="0.945312"/><stop style="stop-color:#eec204;stop-opacity:1;" offset="0.949219"/><stop style="stop-color:#efc204;stop-opacity:1;" offset="0.953125"/><stop style="stop-color:#f0c304;stop-opacity:1;" offset="0.957031"/><stop style="stop-color:#f1c404;stop-opacity:1;" offset="0.960938"/><stop style="stop-color:#f2c504;stop-opacity:1;" offset="0.964844"/><stop style="stop-color:#f3c604;stop-opacity:1;" offset="0.96875"/><stop style="stop-color:#f4c604;stop-opacity:1;" offset="0.972656"/><stop style="stop-color:#f5c704;stop-opacity:1;" offset="0.976562"/><stop style="stop-color:#f6c804;stop-opacity:1;" offset="0.980469"/><stop style="stop-color:#f7c904;stop-opacity:1;" offset="0.984375"/><stop style="stop-color:#f8ca04;stop-opacity:1;" offset="0.988281"/><stop style="stop-color:#f9ca04;stop-opacity:1;" offset="0.992188"/><stop style="stop-color:#facb04;stop-opacity:1;" offset="0.996094"/><stop style="stop-color:#fbcc04;stop-opacity:1;" offset="1"/></linearGradient><clipPath id="803a35339d"><path d="M 15 25 L 74.945312 25 L 74.945312 72.664062 L 15 72.664062 Z M 15 25 "/></clipPath><clipPath id="e6b213e5a0"><path d="M 50 17.164062 L 60 17.164062 L 60 27 L 50 27 Z M 50 17.164062 "/></clipPath></defs><g id="1576189901"><g clip-rule="nonzero" clip-path="url(#70e66fd7d2)"><g clip-rule="nonzero" clip-path="url(#5041005ee8)"><path style=" stroke:none;fill-rule:nonzero;fill:url(#linear0);" d="M 0 0 L 0 89.738281 L 89.738281 89.738281 L 89.738281 0 Z M 0 0 "/></g></g><path style=" stroke:none;fill-rule:nonzero;fill:#000;fill-opacity:1;" d="M 29.769531 37.765625 C 32.253906 37.765625 34.277344 35.742188 34.277344 33.257812 C 34.277344 30.769531 32.253906 28.746094 29.769531 28.746094 C 27.28125 28.746094 25.257812 30.769531 25.257812 33.257812 C 25.257812 35.742188 27.28125 37.765625 29.769531 37.765625 Z M 29.769531 30.585938 C 31.242188 30.585938 32.4375 31.785156 32.4375 33.257812 C 32.4375 34.730469 31.242188 35.925781 29.769531 35.925781 C 28.296875 35.925781 27.097656 34.730469 27.097656 33.257812 C 27.097656 31.785156 28.296875 30.585938 29.769531 30.585938 Z M 29.769531 30.585938 "/><g clip-rule="nonzero" clip-path="url(#803a35339d)"><path style=" stroke:none;fill-rule:nonzero;fill:#000;fill-opacity:1;" d="M 73.402344 52.773438 L 70.824219 52.773438 C 66.683594 46.144531 66.867188 46.511719 66.683594 46.144531 L 64.75 40.898438 C 65.394531 39.792969 65.484375 38.503906 65.117188 37.308594 L 63.367188 31.875 L 66.683594 33.808594 C 66.773438 33.902344 68.707031 36.664062 69.628906 38.042969 C 70.273438 38.964844 71.378906 39.332031 72.390625 39.054688 C 74.046875 38.59375 74.78125 36.753906 73.863281 35.28125 C 71.101562 30.863281 71.285156 30.863281 70.640625 30.496094 C 65.023438 27.457031 63.09375 24.511719 59.777344 25.800781 C 54.714844 27.734375 49.285156 29.023438 48.179688 33.992188 L 47.257812 38.410156 L 43.300781 40.988281 C 43.117188 41.082031 43.023438 41.265625 42.839844 41.355469 C 42.65625 41.355469 42.472656 41.355469 42.289062 41.449219 L 40.171875 42.1875 C 39.527344 42.460938 38.699219 42.277344 38.144531 41.816406 L 35.199219 39.425781 C 33.449219 37.949219 32.070312 38.59375 25.808594 38.042969 C 24.519531 37.949219 23.140625 38.503906 22.3125 39.515625 L 16.972656 45.777344 C 16.789062 45.960938 16.605469 46.234375 16.605469 46.605469 L 15.40625 51.390625 C 14.945312 53.046875 16.234375 54.613281 17.984375 54.519531 C 19.089844 54.519531 20.011719 53.785156 20.285156 52.773438 L 21.941406 47.800781 L 24.519531 45.039062 L 24.519531 50.746094 C 24.519531 51.390625 24.703125 52.035156 24.980469 52.585938 L 23.140625 69.15625 C 23.140625 69.617188 23.140625 69.984375 23.324219 70.355469 L 19.734375 70.355469 C 19.183594 70.355469 18.8125 70.722656 18.8125 71.273438 C 18.8125 71.828125 19.183594 72.195312 19.734375 72.195312 L 32.988281 72.195312 C 33.542969 72.195312 33.910156 71.828125 33.910156 71.273438 L 33.910156 63.265625 L 47.074219 63.265625 C 47.625 63.265625 47.996094 62.898438 47.996094 62.34375 L 47.996094 54.707031 L 73.402344 54.613281 C 73.953125 54.613281 74.324219 54.152344 74.324219 53.691406 C 74.324219 53.230469 73.953125 52.773438 73.402344 52.773438 Z M 58.121094 52.128906 L 56.464844 46.972656 C 56.371094 46.695312 56.464844 46.328125 56.832031 46.144531 L 59.960938 44.304688 L 61.621094 48.167969 C 61.710938 48.351562 61.804688 48.539062 61.894531 48.722656 L 64.472656 52.773438 L 58.027344 52.773438 C 58.214844 52.585938 58.214844 52.402344 58.121094 52.128906 Z M 68.707031 52.773438 L 66.683594 52.773438 L 63.550781 47.800781 C 63.460938 47.707031 63.460938 47.617188 63.367188 47.433594 L 61.617188 43.289062 L 63.183594 42.460938 C 63.277344 42.460938 63.277344 42.371094 63.367188 42.277344 L 65.023438 46.695312 C 65.300781 47.523438 65.394531 47.617188 68.707031 52.773438 Z M 48.457031 39.792969 C 48.824219 39.515625 49.101562 39.148438 49.191406 38.6875 L 50.113281 34.269531 C 50.941406 30.308594 55.726562 29.390625 60.515625 27.457031 C 62.449219 26.71875 63.277344 28.378906 69.71875 32.058594 C 69.902344 32.242188 69.996094 32.519531 72.390625 36.292969 C 72.664062 36.753906 72.390625 37.214844 72.019531 37.308594 C 71.746094 37.398438 71.46875 37.308594 71.285156 37.03125 C 68.15625 32.613281 68.339844 32.613281 67.785156 32.335938 L 62.355469 29.113281 C 61.988281 28.929688 61.617188 28.929688 61.34375 29.207031 C 61.066406 29.480469 60.882812 29.851562 61.066406 30.21875 L 63.460938 37.949219 C 63.828125 39.148438 63.277344 40.34375 62.261719 40.988281 L 55.910156 44.488281 C 54.808594 45.039062 54.347656 46.328125 54.714844 47.523438 L 56.371094 52.679688 C 56.371094 52.773438 56.464844 52.863281 56.464844 52.863281 L 54.4375 52.863281 L 52.414062 46.511719 C 51.953125 45.222656 52.414062 43.660156 53.703125 42.921875 L 57.476562 40.621094 C 57.84375 40.4375 58.027344 39.976562 57.84375 39.515625 L 55.453125 32.425781 C 55.359375 32.058594 54.992188 31.875 54.621094 31.785156 C 54.253906 31.785156 53.886719 31.96875 53.703125 32.242188 L 49.101562 41.171875 C 47.257812 42 46.152344 42.554688 45.417969 42.921875 C 45.324219 42.554688 45.140625 42.1875 44.957031 41.910156 Z M 20.5625 46.511719 C 20.378906 46.695312 20.195312 46.972656 20.101562 47.25 L 18.628906 52.035156 C 18.539062 52.3125 18.261719 52.496094 17.984375 52.496094 C 17.523438 52.496094 17.15625 52.128906 17.25 51.667969 L 18.539062 46.878906 L 23.875 40.621094 C 24.335938 40.066406 25.164062 39.699219 25.902344 39.792969 C 32.34375 40.253906 33.175781 39.882812 34.1875 40.710938 L 37.132812 43.105469 C 38.144531 43.933594 39.617188 44.210938 40.90625 43.75 L 43.023438 43.015625 C 43.300781 42.921875 43.667969 43.105469 43.667969 43.382812 C 43.667969 43.660156 43.578125 43.84375 43.300781 43.933594 L 40.261719 45.039062 C 39.15625 45.40625 37.960938 45.222656 37.039062 44.578125 L 33.726562 42.277344 C 33.449219 42.09375 33.082031 42.09375 32.804688 42.1875 C 32.53125 42.371094 32.34375 42.644531 32.34375 43.015625 L 32.070312 50.5625 C 32.070312 51.023438 32.34375 51.390625 32.804688 51.484375 L 37.132812 52.585938 C 38.511719 52.957031 39.433594 54.246094 39.433594 55.71875 L 39.433594 61.609375 L 37.5 61.609375 L 37.5 57.375 C 37.5 56.179688 36.671875 55.164062 35.476562 54.890625 L 28.386719 53.324219 C 27.191406 53.046875 26.363281 52.035156 26.363281 50.839844 L 26.363281 42.738281 C 26.363281 42.371094 26.085938 42 25.808594 41.910156 C 25.441406 41.816406 25.074219 41.910156 24.796875 42.1875 Z M 27.925781 54.980469 L 29.125 55.257812 L 26.914062 69.527344 C 26.820312 69.984375 26.363281 70.355469 25.902344 70.355469 C 25.347656 70.355469 24.980469 69.800781 24.980469 69.34375 L 26.546875 54.429688 C 27.007812 54.707031 27.464844 54.890625 27.925781 54.980469 Z M 32.988281 61.515625 C 32.4375 61.515625 32.070312 61.886719 32.070312 62.4375 L 32.070312 70.445312 L 28.480469 70.445312 C 28.570312 70.261719 28.570312 70.078125 28.664062 69.894531 L 30.871094 55.71875 L 35.015625 56.636719 C 35.382812 56.730469 35.566406 57.007812 35.566406 57.375 L 35.566406 61.609375 L 32.988281 61.609375 Z M 47.074219 52.863281 C 46.523438 52.863281 46.152344 53.230469 46.152344 53.785156 L 46.152344 61.425781 L 41.183594 61.425781 L 41.183594 55.625 C 41.273438 53.324219 39.800781 51.207031 37.5 50.65625 L 33.910156 49.734375 L 34.003906 44.671875 L 35.84375 45.960938 C 37.222656 46.972656 39.066406 47.25 40.722656 46.695312 L 43.851562 45.589844 C 44.21875 45.5 44.589844 45.222656 44.863281 44.945312 C 45.878906 44.855469 46.523438 44.117188 49.835938 42.738281 C 50.203125 42.554688 50.480469 42.277344 50.664062 41.910156 L 54.347656 34.914062 L 55.820312 39.238281 L 52.691406 41.355469 C 50.757812 42.554688 49.929688 45.039062 50.664062 47.15625 L 52.503906 52.863281 Z M 47.074219 52.863281 "/></g><g clip-rule="nonzero" clip-path="url(#e6b213e5a0)"><path style=" stroke:none;fill-rule:nonzero;fill:#000;fill-opacity:1;" d="M 58.859375 24.417969 C 59.410156 23.3125 59.5 22.117188 59.132812 21.011719 C 58.398438 18.621094 55.910156 17.332031 53.519531 18.066406 C 51.125 18.804688 49.835938 21.382812 50.574219 23.683594 C 51.769531 27.546875 57.015625 28.007812 58.859375 24.417969 Z M 54.070312 19.816406 C 55.453125 19.355469 56.925781 20.183594 57.382812 21.566406 C 57.570312 22.210938 57.570312 22.945312 57.199219 23.589844 C 56.097656 25.707031 53.058594 25.429688 52.320312 23.128906 C 51.953125 21.75 52.691406 20.277344 54.070312 19.816406 Z M 54.070312 19.816406 "/></g></g></svg>