<svg xmlns="http://www.w3.org/2000/svg" fill="none" viewBox="1.94 1.98 66.13 66.04">
<path d="M29 43H41.7683V58.8033H29V43Z" fill="#0E16AA"/>
<path d="M11.7905 49.9043H26.0339V59.1216H11.7905V49.9043Z" fill="#0E16AA"/>
<path d="M44.5728 32.0508H58.8161V59.1211H44.5728V32.0508Z" fill="#0E16AA"/>
<path d="M17.7541 30.328C18.9242 30.5411 20.0292 29.7608 20.2396 28.61L21.8183 19.9678L23.4494 18.2199V28.4594L22.2173 36.827L17.5694 44.5746C17.0338 45.6256 17.4519 46.9122 18.5035 47.4479C19.5513 47.9836 20.8411 47.5675 21.3768 46.5138L26.1838 38.4549C26.2895 38.2483 26.3606 38.0256 26.3937 37.7964L27.6188 29.4731H33.384L37.5512 29.6291L34.3809 38.2622C33.974 39.3698 34.5422 40.5976 35.6498 41.0046C36.7569 41.4105 37.9836 40.8466 38.3923 39.7352L42.5761 28.3399C43.0739 26.985 42.1062 25.5229 40.6503 25.4683L34.8137 25.2499V16.1965L39.1133 17.7954C39.9192 18.0955 40.8324 17.883 41.4227 17.248L48.5443 9.59175C49.3481 8.72818 49.2995 7.37595 48.4349 6.57273C47.5723 5.7679 46.2196 5.81757 45.4158 6.68221L39.2657 13.2938C38.9111 13.1619 33.1256 10.9562 32.7469 10.9562H25.5142C23.9559 10.9562 23.6562 11.7327 18.2654 17.5106C17.9866 17.8097 17.7992 18.1825 17.726 18.5846L16.0347 27.8431C15.8242 29.003 16.5938 30.116 17.7543 30.3281L17.7541 30.328Z" fill="#FF746A"/>
<path d="M68.0625 62.7695L62.809 57.516V60.7225L9.32734 60.7219V11.0329H12.4447L7.19057 5.7793L1.93701 11.0329H5.05434V64.8166H62.8084V68.0231L68.0625 62.7695Z" fill="#761212"/>
<path d="M33.2007 6.31127C33.2007 8.70385 31.261 10.6436 28.8684 10.6436C26.4753 10.6436 24.5356 8.70385 24.5356 6.31127C24.5356 3.91815 26.4754 1.97852 28.8684 1.97852C31.261 1.97852 33.2007 3.91828 33.2007 6.31127Z" fill="#FF746A"/>
</svg>