<svg xmlns="http://www.w3.org/2000/svg" fill="none" viewBox="1.25 2.83 67.71 63.65">
<path d="M66.0641 24.5969V45.6051H62.0688C62.8955 44.8472 63.3778 43.7454 63.3778 42.5054V27.4896C63.3778 25.0788 61.4493 23.1504 59.0386 23.1504C56.6278 23.1504 54.6994 25.0788 54.6994 27.4896V40.2322L42.0257 39.2677C41.1301 39.1988 40.235 39.5432 39.6149 40.0944C38.926 40.7144 38.5815 41.5406 38.5815 42.4362V63.0999C38.5815 64.8906 40.0278 66.3374 41.819 66.3374C43.6098 66.3374 45.0565 64.8912 45.0565 63.0999L45.056 46.0183L47.3979 46.2249V66.1312H50.2908V48.4972H66.0641V66.0615H68.957V24.5947L66.0641 24.5969Z" fill="#AD6D24"/>
<path d="M18.8823 32.5195H51.4624V36.1014H18.8823V32.5195Z" fill="#AD6D24"/>
<path d="M61.1751 16.2638C61.1751 19.2694 58.7387 21.7053 55.7335 21.7053C52.7283 21.7053 50.292 19.2696 50.292 16.2638C50.292 13.2587 52.7283 10.8223 55.7335 10.8223C58.7387 10.8223 61.1751 13.2586 61.1751 16.2638Z" fill="#AD6D24"/>
<path d="M28.2489 39.3377L15.4374 39.82V27.4212C15.4374 25.0105 13.509 23.082 11.0982 23.082C8.68743 23.082 6.75901 25.0105 6.75901 27.4212V42.5068C6.75901 43.6779 7.24126 44.7797 8.06799 45.6064H4.14101V24.5982H1.24805V66.0637H4.14101V48.4994H19.9143V66.0637H22.8072V46.0193L25.1491 45.9504V63.2399C25.1491 65.0306 26.5953 66.4774 28.3866 66.4774C30.1773 66.4774 31.6241 65.0312 31.6241 63.2399V42.5762C31.6241 41.6806 31.2796 40.8544 30.6596 40.2344C29.9706 39.6143 29.0756 39.2699 28.2488 39.3387L28.2489 39.3377Z" fill="#AD6D24"/>
<path d="M19.9143 16.2638C19.9143 19.2694 17.478 21.7053 14.4728 21.7053C11.4676 21.7053 9.03125 19.2696 9.03125 16.2638C9.03125 13.2587 11.4676 10.8223 14.4728 10.8223C17.478 10.8223 19.9143 13.2586 19.9143 16.2638Z" fill="#AD6D24"/>
<path d="M35.1382 2.83203C28.9388 2.83203 23.8418 7.92904 23.8418 14.1284C23.8418 20.3278 28.9388 25.4248 35.1382 25.4248C41.3376 25.4248 46.4346 20.3278 46.4346 14.1284C46.4346 7.92904 41.4059 2.83203 35.1382 2.83203ZM35.1382 22.4635C30.5923 22.4635 26.8726 18.7438 26.8726 14.1979C26.8726 9.65197 30.5923 5.93226 35.1382 5.93226C39.6841 5.93226 43.4038 9.65197 43.4038 14.1979C43.4038 18.7438 39.753 22.4635 35.1382 22.4635Z" fill="#3DD21F"/>
<path d="M34.0364 18.1242C33.623 18.1242 33.2786 17.9864 33.003 17.7108L30.2478 14.9557C29.6967 14.4045 29.6967 13.5094 30.2478 12.9583C30.799 12.4072 31.694 12.4072 32.2451 12.9583L34.0359 14.7491L38.1001 10.6848C38.6513 10.1337 39.5463 10.1337 40.0975 10.6848C40.6486 11.236 40.6486 12.131 40.0975 12.6822L35.001 17.7108C34.7254 17.9864 34.3808 18.1242 34.0364 18.1242Z" fill="#3DD21F"/>
</svg>