<svg xmlns="http://www.w3.org/2000/svg" fill="none" viewBox="1.72 23.17 56.82 36.41">
<path fill-rule="evenodd" clip-rule="evenodd" d="M56.2203 23.4029L56.452 29.8965C57.1479 30.5923 57.1479 31.52 56.6838 32.2159V33.1436L58.5391 41.0289C58.075 42.4207 53.9008 42.6525 52.9731 41.0289L54.3649 33.1436V32.2159C53.6691 31.52 53.6691 30.5924 54.3649 29.8965V24.0982L56.2202 23.4023L56.2203 23.4029Z" fill="black"/>
<path fill-rule="evenodd" clip-rule="evenodd" d="M4.26992 36.8547L15.6341 34.7676L32.1005 41.7253L50.8857 36.3911H51.3498C52.2774 36.6229 52.5092 40.1018 50.8857 41.2612L48.5662 42.653H52.9727C53.9004 44.5082 53.9004 46.3637 52.9727 47.9872L31.6364 56.5685L28.6216 56.1044C28.6216 55.8726 28.6216 55.4085 28.8534 55.1767L31.4045 55.6408C33.2598 54.7132 33.0281 50.5385 31.8686 50.5385L1.95046 46.3638V44.2766L4.26989 44.5084L4.03811 42.6531C13.0829 44.5084 22.1274 46.1319 31.1727 47.7555C32.5645 47.2914 33.028 44.7407 31.6368 43.349L3.80631 38.7107L4.2704 36.8554L4.26992 36.8547ZM22.824 55.1764L1.71875 52.1616V51.0022L23.0551 54.2493C23.0551 54.481 23.0551 54.9451 22.8233 55.1769L22.824 55.1764Z" fill="#F01515"/>
<path fill-rule="evenodd" clip-rule="evenodd" d="M24.448 52.1621L28.3904 52.6262C27.6945 55.641 27.9263 56.8009 27.9263 59.584L25.3751 57.9604L22.3604 58.8881C23.288 56.5686 23.9839 54.4816 24.4475 52.1622L24.448 52.1621Z" fill="black"/>
<mask id="mask0_705_1402" style="mask-type:luminance" maskUnits="userSpaceOnUse" x="0" y="10" width="70" height="20">
<path d="M0.559082 10.3906H69.4394V29.5312H0.559082V10.3906Z" fill="white"/>
</mask>
<g mask="url(#mask0_705_1402)">
<path fill-rule="evenodd" clip-rule="evenodd" d="M69.4394 18.5331C58.7711 15.982 47.8706 13.1989 37.2024 10.416C24.9106 12.2713 12.8515 13.8948 0.559082 15.7502C23.2872 25.4909 16.7931 22.708 32.1001 29.433C39.2896 27.3459 46.7112 25.2583 53.8999 23.1712L36.5052 18.5329C35.5775 18.7647 32.0987 18.7647 32.0987 17.837C32.0987 17.1411 33.4905 16.6776 35.1135 16.6776C35.5776 16.6776 39.0559 17.1416 37.8964 18.0694L56.2181 22.4758L69.4376 18.5334L69.4394 18.5331Z" fill="black"/>
</g>
<path fill-rule="evenodd" clip-rule="evenodd" d="M15.1704 33.3767L32.1003 40.5662L52.2772 34.7679V24.5637L32.1003 30.5937L15.1704 23.1719V33.3767Z" fill="black"/>
</svg>