<svg xmlns="http://www.w3.org/2000/svg" fill="none" viewBox="2.65 2.65 64.71 64.71">
<path d="M3.99338 21.5179H16.1202C19.0944 21.5179 21.5158 19.1072 21.5158 16.1223L21.5163 3.99495C21.5163 3.45234 21.1927 2.96154 20.6816 2.75327C20.1806 2.54446 19.5964 2.65927 19.2102 3.04539L3.03367 19.222C2.65769 19.6081 2.54288 20.1817 2.75169 20.6933C2.9605 21.1943 3.45078 21.5179 3.99338 21.5179Z" fill="#FFDE57"/>
<path d="M65.7767 29.8449C63.7413 27.8095 60.1829 27.8095 58.1476 29.8449L56.2378 31.7547L63.8668 39.3837L65.7767 37.4739C66.7994 36.4512 67.3526 35.1048 67.3526 33.6645C67.3526 32.2141 66.7892 30.8575 65.7767 29.8449Z" fill="#FF2828"/>
<path d="M34.3217 61.2904C34.8643 61.8121 35.4907 61.6765 35.6055 61.645L42.4938 59.9231L35.6996 53.1289L33.9778 60.0172C33.8523 60.4765 33.9777 60.9667 34.3217 61.2904Z" fill="#FF2828"/>
<path d="M37.1763 50.8184L54.3345 33.6602L61.9576 41.2833L44.7994 58.4415L37.1763 50.8184Z" fill="#FF2828"/>
<path d="M43.881 62.3538L36.252 64.2636C34.5719 64.733 33.163 63.9506 32.4116 63.1992C31.4097 62.1973 31.0027 60.726 31.3472 59.3588L33.257 51.7404C33.4343 51.0306 33.7996 50.3839 34.3214 49.8616L51.1761 32.996V8.04209C51.1761 5.05725 48.7653 2.64648 45.7805 2.64648H23.9793C24.1256 3.07426 24.2191 3.52341 24.2191 3.99285V16.1197C24.2191 20.5865 20.5977 24.2079 16.1308 24.2079H3.99334C3.5239 24.2079 3.07475 24.1246 2.64697 23.9682V61.9459C2.64697 64.9414 5.05773 67.3521 8.04258 67.3521H45.7906C48.7648 67.3521 51.1862 64.9414 51.1862 61.9565L51.1868 55.872L45.7704 61.2884C45.2379 61.8102 44.5906 62.1755 43.8815 62.3528L43.881 62.3538ZM30.9606 8.04225H44.4445V24.2188H30.9606V8.04225ZM8.04241 29.6042H40.3955C41.1363 29.6042 41.7419 30.2093 41.7419 30.9505C41.7419 31.6913 41.1368 32.2969 40.3955 32.2969H8.04241C7.30167 32.2969 6.69605 31.6918 6.69605 30.9505C6.69658 30.2093 7.291 29.6042 8.04241 29.6042ZM8.04241 36.3456H40.3955C41.1363 36.3456 41.7419 36.9507 41.7419 37.692C41.7419 38.4327 41.1368 39.0384 40.3955 39.0384H8.04241C7.30167 39.0384 6.69605 38.4333 6.69605 37.692C6.69658 36.9513 7.291 36.3456 8.04241 36.3456ZM21.5162 52.5222H8.04241C7.30167 52.5222 6.69605 51.9171 6.69605 51.1758C6.69605 50.4351 7.30114 49.8295 8.04241 49.8295H21.5263C22.267 49.8295 22.8727 50.4345 22.8727 51.1758C22.8727 51.9171 22.2676 52.5222 21.5162 52.5222ZM21.5162 45.7803H8.04241C7.30167 45.7803 6.69605 45.1752 6.69605 44.434C6.69605 43.6932 7.30114 43.0876 8.04241 43.0876H21.5263C22.267 43.0876 22.8727 43.6927 22.8727 44.434C22.8727 45.1854 22.2676 45.7803 21.5162 45.7803Z" fill="#FFDE57"/>
</svg>