<svg xmlns="http://www.w3.org/2000/svg" fill="none" viewBox="2.76 2.21 65.99 65.99">
<path d="M55.3193 9.9285L54.9749 8.34393C54.9749 8.27504 54.906 8.13725 54.7682 8.13725C54.6993 8.06836 54.5615 8.06836 54.4237 8.06836L52.4953 8.41282C52.2886 8.48172 52.082 8.6195 52.1509 8.82618C52.2198 9.03285 52.4264 9.17064 52.702 9.10175L53.5976 8.96396L50.6357 12.6148L45.952 11.0996C45.7453 11.0308 45.6076 11.0996 45.4698 11.2374L41.4744 15.3017C41.3367 15.4395 41.3367 15.715 41.5433 15.8528C41.6122 15.9217 41.75 15.9217 41.8878 15.9217C42.0256 15.9217 42.0945 15.8528 42.1634 15.7839L45.952 11.9264L50.6357 13.4415C50.8424 13.5104 51.0491 13.4415 51.1179 13.3037L54.3554 9.37731L54.4932 10.1351C54.5621 10.3418 54.7688 10.4796 54.9755 10.4107H55.0444C55.2505 10.3413 55.3882 10.1352 55.3193 9.9285Z" fill="#50E838"/>
<path d="M56.1465 23.9793V13.7847C56.1465 13.578 55.9398 13.3713 55.6642 13.3713H53.4602C53.1846 13.3713 52.9779 13.578 52.9779 13.7847V23.9793H51.8756V18.2622C51.8756 18.0555 51.669 17.8489 51.3934 17.8489H49.1893C48.9138 17.8489 48.7071 18.0555 48.7071 18.2622L48.7076 23.9793H47.7431V16.0576C47.7431 15.851 47.5364 15.6443 47.2609 15.6443H45.0568C44.7813 15.6443 44.5746 15.851 44.5746 16.0576V23.9793H43.6101V20.5352C43.6101 20.3285 43.4034 20.1218 43.1278 20.1218H41.1994C40.9238 20.1218 40.7172 20.3285 40.7172 20.5352V23.9793H39.546L39.5465 10.7539H38.6509V24.8059H57.3171L57.3176 23.9797L56.1465 23.9793ZM42.8528 20.9485V23.9793H41.8194V20.9485H42.8528ZM45.6079 23.9793V16.402H46.9169V23.9787L45.6079 23.9793ZM51.0494 18.675V23.9793H49.7405V18.6066H51.0494V18.675ZM53.9424 23.9793V14.198H55.2514L55.2509 23.9793H53.9424Z" fill="#50E838"/>
<path d="M47.3295 60.5545C47.3295 60.3478 46.0205 43.5412 25.0129 43.5412C3.8666 43.4729 2.76465 60.4861 2.76465 60.6926V65.6518C2.76465 67.0296 3.86694 68.2004 5.24432 68.2004H44.8504C46.2282 68.2004 47.33 67.0292 47.33 65.6518L47.3295 60.5545Z" fill="#FF612D"/>
<path d="M54.5617 2.21307H40.7859C33.6915 2.21307 27.7677 7.58571 26.8037 14.5429C27.4927 14.6807 28.1127 14.8874 28.7321 15.0941C29.49 8.96358 34.587 4.21097 40.7863 4.21097H54.4938C61.1754 4.21097 66.6169 9.79032 66.6169 16.6097C66.6169 23.4291 61.1754 29.0085 54.4938 29.0085H50.2924L42.4401 34.9322V29.0085H40.8561C39.6849 29.0085 38.5831 28.8018 37.5497 28.5262V28.9396C37.5497 29.4907 37.4808 30.0419 37.4808 30.5925C38.4453 30.8681 39.4781 31.0059 40.5116 31.0059V38.9958L51.0501 31.0059H54.632C62.4154 31.0059 68.7523 24.531 68.7523 16.6094C68.6829 8.61885 62.3458 2.21289 54.5623 2.21289L54.5617 2.21307Z" fill="#88DDE6"/>
<path d="M24.5301 41.337C30.6606 41.337 35.6198 35.7576 35.6198 28.8695C35.6198 21.9817 30.5917 16.4023 24.5301 16.4023C18.3996 16.4023 13.4404 21.9817 13.4404 28.8699C13.4404 35.7576 18.4002 41.337 24.5301 41.337Z" fill="#FF612D"/>
</svg>