<svg width="652" height="574" viewBox="0 0 652 574" fill="none" xmlns="http://www.w3.org/2000/svg">
<path d="M151.31 177L88 210.923L154.998 236.099L218 204.032L151.31 177Z" fill="#1B4750"/>
<path d="M154.998 236.099L88 210.923V574H154.998V236.099Z" fill="#689697"/>
<path d="M218 204.032L154.998 236.099V574H218V204.032Z" fill="#427279"/>
<path d="M90.3423 111.42V108.03L98.8438 94.6364H101.767V99.3295H100.037L94.6776 107.811V107.97H106.759V111.42H90.3423ZM100.116 115V110.386L100.196 108.885V94.6364H104.233V115H100.116ZM117.332 115.447C115.621 115.441 114.15 115.02 112.917 114.185C111.69 113.349 110.746 112.14 110.083 110.555C109.427 108.971 109.102 107.065 109.108 104.838C109.108 102.617 109.437 100.725 110.093 99.1605C110.756 97.5961 111.7 96.4062 112.927 95.5909C114.16 94.7689 115.628 94.358 117.332 94.358C119.035 94.358 120.5 94.7689 121.726 95.5909C122.959 96.4129 123.907 97.6061 124.57 99.1705C125.233 100.728 125.561 102.617 125.555 104.838C125.555 107.072 125.223 108.981 124.56 110.565C123.904 112.15 122.963 113.359 121.736 114.195C120.51 115.03 119.042 115.447 117.332 115.447ZM117.332 111.878C118.498 111.878 119.43 111.291 120.126 110.118C120.822 108.945 121.166 107.185 121.16 104.838C121.16 103.294 121.001 102.008 120.682 100.98C120.371 99.9527 119.927 99.1804 119.35 98.6634C118.78 98.1463 118.107 97.8878 117.332 97.8878C116.171 97.8878 115.243 98.4678 114.547 99.6278C113.851 100.788 113.5 102.525 113.493 104.838C113.493 106.402 113.649 107.708 113.961 108.756C114.279 109.796 114.726 110.579 115.303 111.102C115.88 111.619 116.556 111.878 117.332 111.878ZM134.664 115V94.6364H138.97V111.45H147.7V115H134.664ZM150.271 115V94.6364H158.305C159.85 94.6364 161.165 94.9313 162.253 95.5213C163.34 96.1046 164.168 96.9167 164.738 97.9574C165.315 98.9915 165.603 100.185 165.603 101.537C165.603 102.889 165.312 104.082 164.728 105.116C164.145 106.151 163.3 106.956 162.193 107.533C161.092 108.109 159.76 108.398 158.196 108.398H153.075V104.947H157.5C158.328 104.947 159.011 104.805 159.548 104.52C160.092 104.228 160.496 103.827 160.761 103.317C161.033 102.8 161.169 102.206 161.169 101.537C161.169 100.861 161.033 100.271 160.761 99.767C160.496 99.2566 160.092 98.8622 159.548 98.5838C159.004 98.2988 158.315 98.1562 157.48 98.1562H154.576V115H150.271ZM169.278 115H164.665L171.694 94.6364H177.243L184.263 115H179.649L174.548 99.2898H174.389L169.278 115ZM168.99 106.996H179.888V110.357H168.99V106.996Z" fill="#3E3E3E"/>
<path d="M90.2912 143V129.909H92.6626V135.451H98.7287V129.909H101.107V143H98.7287V137.439H92.6626V143H90.2912ZM103.583 143V133.182H105.897V143H103.583ZM104.747 131.788C104.38 131.788 104.065 131.667 103.801 131.424C103.537 131.177 103.404 130.881 103.404 130.536C103.404 130.186 103.537 129.89 103.801 129.647C104.065 129.4 104.38 129.276 104.747 129.276C105.118 129.276 105.433 129.4 105.693 129.647C105.957 129.89 106.089 130.186 106.089 130.536C106.089 130.881 105.957 131.177 105.693 131.424C105.433 131.667 105.118 131.788 104.747 131.788ZM112.547 146.886C111.716 146.886 111.002 146.773 110.405 146.548C109.809 146.326 109.329 146.028 108.967 145.653C108.605 145.278 108.354 144.862 108.213 144.406L110.297 143.901C110.39 144.093 110.527 144.283 110.706 144.47C110.885 144.662 111.126 144.82 111.428 144.943C111.735 145.071 112.121 145.135 112.585 145.135C113.241 145.135 113.785 144.975 114.215 144.656C114.645 144.34 114.861 143.82 114.861 143.096V141.236H114.746C114.626 141.474 114.452 141.719 114.221 141.971C113.996 142.222 113.695 142.433 113.32 142.604C112.949 142.774 112.483 142.859 111.92 142.859C111.166 142.859 110.482 142.683 109.868 142.329C109.259 141.971 108.773 141.438 108.411 140.731C108.053 140.019 107.874 139.129 107.874 138.059C107.874 136.981 108.053 136.071 108.411 135.33C108.773 134.584 109.261 134.019 109.875 133.636C110.488 133.248 111.172 133.054 111.927 133.054C112.502 133.054 112.975 133.152 113.346 133.348C113.721 133.54 114.019 133.772 114.241 134.045C114.462 134.313 114.631 134.567 114.746 134.805H114.873V133.182H117.155V143.16C117.155 143.999 116.955 144.694 116.555 145.244C116.154 145.793 115.606 146.205 114.912 146.477C114.217 146.75 113.429 146.886 112.547 146.886ZM112.566 141.044C113.056 141.044 113.474 140.925 113.819 140.686C114.164 140.447 114.426 140.104 114.605 139.657C114.784 139.21 114.873 138.673 114.873 138.046C114.873 137.428 114.784 136.887 114.605 136.423C114.43 135.958 114.17 135.598 113.825 135.342C113.484 135.082 113.064 134.952 112.566 134.952C112.05 134.952 111.62 135.087 111.275 135.355C110.93 135.624 110.67 135.992 110.495 136.461C110.32 136.925 110.233 137.454 110.233 138.046C110.233 138.647 110.32 139.173 110.495 139.625C110.674 140.072 110.936 140.422 111.281 140.673C111.631 140.92 112.059 141.044 112.566 141.044ZM121.841 137.247V143H119.527V129.909H121.79V134.85H121.905C122.135 134.296 122.491 133.859 122.972 133.54C123.458 133.216 124.076 133.054 124.826 133.054C125.508 133.054 126.102 133.197 126.609 133.482C127.116 133.768 127.508 134.185 127.785 134.735C128.067 135.285 128.207 135.956 128.207 136.749V143H125.893V137.107C125.893 136.446 125.723 135.933 125.382 135.566C125.045 135.195 124.572 135.01 123.963 135.01C123.554 135.01 123.187 135.099 122.863 135.278C122.544 135.453 122.292 135.707 122.109 136.039C121.93 136.371 121.841 136.774 121.841 137.247ZM134.912 143.192C133.928 143.192 133.078 142.987 132.362 142.578C131.65 142.165 131.103 141.581 130.719 140.827C130.336 140.068 130.144 139.175 130.144 138.148C130.144 137.138 130.336 136.252 130.719 135.489C131.107 134.722 131.648 134.126 132.343 133.7C133.037 133.269 133.854 133.054 134.791 133.054C135.396 133.054 135.967 133.152 136.504 133.348C137.045 133.54 137.523 133.838 137.936 134.243C138.354 134.648 138.682 135.163 138.92 135.79C139.159 136.412 139.278 137.153 139.278 138.014V138.724H131.231V137.164H137.06C137.056 136.721 136.96 136.327 136.773 135.982C136.585 135.632 136.323 135.357 135.986 135.157C135.654 134.957 135.266 134.857 134.823 134.857C134.35 134.857 133.934 134.972 133.577 135.202C133.219 135.428 132.939 135.726 132.739 136.097C132.543 136.463 132.443 136.866 132.439 137.305V138.666C132.439 139.237 132.543 139.727 132.752 140.136C132.961 140.541 133.253 140.852 133.628 141.07C134.003 141.283 134.442 141.389 134.944 141.389C135.281 141.389 135.586 141.342 135.858 141.249C136.131 141.151 136.368 141.008 136.568 140.82C136.768 140.633 136.92 140.401 137.022 140.124L139.182 140.366C139.046 140.937 138.786 141.436 138.403 141.862C138.023 142.284 137.537 142.612 136.945 142.847C136.353 143.077 135.675 143.192 134.912 143.192ZM148.996 135.777L146.886 136.007C146.827 135.794 146.722 135.594 146.573 135.406C146.428 135.219 146.232 135.067 145.985 134.952C145.738 134.837 145.435 134.78 145.077 134.78C144.596 134.78 144.191 134.884 143.863 135.093C143.539 135.302 143.379 135.572 143.384 135.905C143.379 136.19 143.484 136.423 143.697 136.602C143.914 136.781 144.272 136.928 144.771 137.043L146.445 137.401C147.374 137.601 148.065 137.918 148.516 138.353C148.972 138.788 149.202 139.357 149.207 140.06C149.202 140.678 149.021 141.223 148.663 141.696C148.31 142.165 147.817 142.531 147.187 142.795C146.556 143.06 145.832 143.192 145.013 143.192C143.812 143.192 142.844 142.94 142.112 142.438C141.379 141.93 140.942 141.225 140.801 140.322L143.058 140.104C143.16 140.548 143.377 140.882 143.71 141.108C144.042 141.334 144.474 141.447 145.007 141.447C145.557 141.447 145.998 141.334 146.33 141.108C146.667 140.882 146.835 140.603 146.835 140.271C146.835 139.989 146.727 139.757 146.509 139.574C146.296 139.391 145.964 139.25 145.512 139.152L143.837 138.8C142.896 138.604 142.199 138.274 141.747 137.81C141.295 137.341 141.072 136.749 141.076 136.033C141.072 135.428 141.236 134.903 141.568 134.46C141.905 134.013 142.371 133.668 142.968 133.425C143.569 133.178 144.261 133.054 145.045 133.054C146.196 133.054 147.102 133.299 147.762 133.789C148.427 134.279 148.838 134.942 148.996 135.777ZM156.017 133.182V134.972H150.373V133.182H156.017ZM151.767 130.83H154.081V140.047C154.081 140.358 154.127 140.597 154.221 140.763C154.319 140.925 154.447 141.036 154.605 141.095C154.762 141.155 154.937 141.185 155.129 141.185C155.274 141.185 155.406 141.174 155.525 141.153C155.649 141.131 155.743 141.112 155.806 141.095L156.196 142.904C156.073 142.947 155.896 142.994 155.666 143.045C155.44 143.096 155.163 143.126 154.835 143.134C154.255 143.151 153.733 143.064 153.269 142.872C152.804 142.676 152.436 142.374 152.163 141.964C151.895 141.555 151.762 141.044 151.767 140.43V130.83ZM169.634 133.508C169.574 132.95 169.323 132.515 168.88 132.204C168.441 131.893 167.87 131.737 167.167 131.737C166.672 131.737 166.248 131.812 165.895 131.961C165.541 132.11 165.27 132.312 165.083 132.568C164.895 132.824 164.8 133.116 164.795 133.444C164.795 133.717 164.857 133.953 164.981 134.153C165.108 134.354 165.281 134.524 165.498 134.665C165.716 134.801 165.956 134.916 166.221 135.01C166.485 135.104 166.751 135.183 167.02 135.246L168.247 135.553C168.741 135.668 169.216 135.824 169.672 136.02C170.133 136.216 170.544 136.463 170.906 136.761C171.273 137.06 171.562 137.42 171.775 137.842C171.988 138.263 172.095 138.758 172.095 139.325C172.095 140.092 171.899 140.767 171.507 141.351C171.115 141.93 170.548 142.384 169.807 142.712C169.069 143.036 168.177 143.198 167.128 143.198C166.11 143.198 165.226 143.04 164.476 142.725C163.73 142.41 163.146 141.95 162.724 141.344C162.307 140.739 162.081 140.002 162.047 139.133H164.38C164.414 139.589 164.555 139.968 164.802 140.271C165.049 140.573 165.371 140.799 165.767 140.948C166.167 141.097 166.615 141.172 167.109 141.172C167.625 141.172 168.077 141.095 168.464 140.942C168.856 140.784 169.163 140.567 169.385 140.29C169.606 140.009 169.719 139.68 169.724 139.305C169.719 138.964 169.619 138.683 169.423 138.462C169.227 138.236 168.952 138.048 168.599 137.899C168.249 137.746 167.84 137.609 167.371 137.49L165.882 137.107C164.804 136.83 163.952 136.41 163.325 135.847C162.703 135.281 162.392 134.528 162.392 133.591C162.392 132.82 162.601 132.144 163.018 131.565C163.44 130.985 164.013 130.536 164.738 130.216C165.462 129.892 166.282 129.73 167.199 129.73C168.128 129.73 168.942 129.892 169.64 130.216C170.344 130.536 170.895 130.981 171.296 131.552C171.697 132.119 171.903 132.771 171.916 133.508H169.634ZM176.932 143.198C176.31 143.198 175.75 143.087 175.251 142.866C174.757 142.64 174.365 142.308 174.075 141.869C173.789 141.43 173.647 140.888 173.647 140.245C173.647 139.691 173.749 139.233 173.953 138.871C174.158 138.509 174.437 138.219 174.791 138.001C175.145 137.784 175.543 137.62 175.986 137.509C176.434 137.394 176.896 137.311 177.373 137.26C177.949 137.2 178.415 137.147 178.773 137.1C179.131 137.049 179.391 136.972 179.553 136.87C179.719 136.763 179.802 136.599 179.802 136.378V136.339C179.802 135.858 179.659 135.485 179.374 135.221C179.088 134.957 178.677 134.825 178.14 134.825C177.574 134.825 177.124 134.948 176.792 135.195C176.463 135.442 176.242 135.734 176.127 136.071L173.966 135.764C174.137 135.168 174.418 134.669 174.81 134.268C175.202 133.864 175.681 133.561 176.248 133.361C176.815 133.156 177.441 133.054 178.127 133.054C178.6 133.054 179.071 133.109 179.54 133.22C180.009 133.331 180.437 133.514 180.825 133.77C181.213 134.021 181.524 134.364 181.758 134.799C181.997 135.234 182.116 135.777 182.116 136.429V143H179.892V141.651H179.815C179.674 141.924 179.476 142.18 179.221 142.418C178.969 142.653 178.652 142.842 178.268 142.987C177.889 143.128 177.444 143.198 176.932 143.198ZM177.533 141.498C177.998 141.498 178.4 141.406 178.741 141.223C179.082 141.036 179.344 140.788 179.527 140.482C179.715 140.175 179.809 139.84 179.809 139.478V138.321C179.736 138.381 179.613 138.436 179.438 138.487C179.267 138.538 179.076 138.583 178.863 138.621C178.65 138.66 178.439 138.694 178.23 138.724C178.021 138.754 177.84 138.779 177.686 138.8C177.341 138.847 177.032 138.924 176.76 139.031C176.487 139.137 176.272 139.286 176.114 139.478C175.956 139.665 175.877 139.908 175.877 140.207C175.877 140.633 176.033 140.955 176.344 141.172C176.655 141.389 177.051 141.498 177.533 141.498ZM186.757 129.909V143H184.443V129.909H186.757ZM191.961 143.198C191.339 143.198 190.779 143.087 190.28 142.866C189.786 142.64 189.394 142.308 189.104 141.869C188.819 141.43 188.676 140.888 188.676 140.245C188.676 139.691 188.778 139.233 188.983 138.871C189.187 138.509 189.466 138.219 189.82 138.001C190.174 137.784 190.572 137.62 191.015 137.509C191.463 137.394 191.925 137.311 192.403 137.26C192.978 137.2 193.444 137.147 193.802 137.1C194.16 137.049 194.42 136.972 194.582 136.87C194.748 136.763 194.831 136.599 194.831 136.378V136.339C194.831 135.858 194.689 135.485 194.403 135.221C194.118 134.957 193.706 134.825 193.17 134.825C192.603 134.825 192.153 134.948 191.821 135.195C191.493 135.442 191.271 135.734 191.156 136.071L188.996 135.764C189.166 135.168 189.447 134.669 189.839 134.268C190.231 133.864 190.711 133.561 191.278 133.361C191.844 133.156 192.471 133.054 193.157 133.054C193.63 133.054 194.101 133.109 194.569 133.22C195.038 133.331 195.466 133.514 195.854 133.77C196.242 134.021 196.553 134.364 196.787 134.799C197.026 135.234 197.145 135.777 197.145 136.429V143H194.921V141.651H194.844C194.704 141.924 194.506 142.18 194.25 142.418C193.998 142.653 193.681 142.842 193.297 142.987C192.918 143.128 192.473 143.198 191.961 143.198ZM192.562 141.498C193.027 141.498 193.43 141.406 193.77 141.223C194.111 141.036 194.373 140.788 194.557 140.482C194.744 140.175 194.838 139.84 194.838 139.478V138.321C194.765 138.381 194.642 138.436 194.467 138.487C194.297 138.538 194.105 138.583 193.892 138.621C193.679 138.66 193.468 138.694 193.259 138.724C193.05 138.754 192.869 138.779 192.716 138.8C192.371 138.847 192.062 138.924 191.789 139.031C191.516 139.137 191.301 139.286 191.143 139.478C190.986 139.665 190.907 139.908 190.907 140.207C190.907 140.633 191.062 140.955 191.373 141.172C191.684 141.389 192.081 141.498 192.562 141.498ZM199.472 143V133.182H201.716V134.818H201.818C201.997 134.251 202.304 133.815 202.738 133.508C203.177 133.197 203.678 133.041 204.241 133.041C204.368 133.041 204.511 133.048 204.669 133.06C204.831 133.069 204.965 133.084 205.072 133.105V135.234C204.974 135.2 204.818 135.17 204.605 135.144C204.396 135.114 204.194 135.099 203.998 135.099C203.576 135.099 203.197 135.191 202.86 135.374C202.528 135.553 202.265 135.803 202.074 136.122C201.882 136.442 201.786 136.81 201.786 137.228V143H199.472ZM208.346 146.682C208.031 146.682 207.739 146.656 207.47 146.605C207.206 146.558 206.995 146.503 206.837 146.439L207.374 144.636C207.711 144.734 208.011 144.781 208.276 144.777C208.54 144.773 208.772 144.69 208.972 144.528C209.177 144.37 209.349 144.106 209.49 143.735L209.688 143.205L206.128 133.182H208.582L210.845 140.597H210.947L213.217 133.182H215.678L211.746 144.189C211.563 144.709 211.32 145.154 211.018 145.525C210.715 145.9 210.344 146.185 209.906 146.381C209.471 146.582 208.951 146.682 208.346 146.682Z" fill="#454444"/>
<path d="M304.247 180.278C302.716 180.278 301.354 180.03 300.161 179.533C298.974 179.029 298.043 178.343 297.366 177.474C296.69 176.606 296.352 175.622 296.352 174.521C296.352 173.673 296.545 172.894 296.929 172.185C297.32 171.469 297.85 170.875 298.52 170.405C299.189 169.928 299.938 169.623 300.767 169.49V169.351C299.68 169.132 298.798 168.605 298.122 167.77C297.446 166.928 297.108 165.95 297.108 164.837C297.108 163.783 297.416 162.845 298.033 162.023C298.649 161.194 299.494 160.545 300.568 160.074C301.649 159.597 302.875 159.358 304.247 159.358C305.619 159.358 306.842 159.597 307.916 160.074C308.997 160.551 309.845 161.204 310.462 162.033C311.078 162.855 311.39 163.789 311.396 164.837C311.39 165.957 311.045 166.935 310.362 167.77C309.679 168.605 308.804 169.132 307.737 169.351V169.49C308.553 169.623 309.292 169.928 309.955 170.405C310.624 170.875 311.154 171.469 311.545 172.185C311.943 172.894 312.145 173.673 312.152 174.521C312.145 175.622 311.804 176.606 311.128 177.474C310.452 178.343 309.517 179.029 308.324 179.533C307.137 180.03 305.778 180.278 304.247 180.278ZM304.247 177.116C304.93 177.116 305.527 176.994 306.037 176.749C306.547 176.497 306.945 176.152 307.23 175.714C307.522 175.27 307.668 174.76 307.668 174.183C307.668 173.593 307.518 173.073 307.22 172.622C306.922 172.165 306.518 171.807 306.007 171.548C305.497 171.283 304.91 171.151 304.247 171.151C303.591 171.151 303.004 171.283 302.487 171.548C301.97 171.807 301.563 172.165 301.264 172.622C300.973 173.073 300.827 173.593 300.827 174.183C300.827 174.76 300.969 175.27 301.254 175.714C301.539 176.152 301.94 176.497 302.457 176.749C302.974 176.994 303.571 177.116 304.247 177.116ZM304.247 168.018C304.817 168.018 305.324 167.902 305.768 167.67C306.213 167.438 306.561 167.117 306.812 166.706C307.064 166.295 307.19 165.821 307.19 165.284C307.19 164.754 307.064 164.29 306.812 163.892C306.561 163.488 306.216 163.173 305.778 162.947C305.341 162.715 304.83 162.599 304.247 162.599C303.67 162.599 303.16 162.715 302.716 162.947C302.272 163.173 301.924 163.488 301.672 163.892C301.427 164.29 301.304 164.754 301.304 165.284C301.304 165.821 301.43 166.295 301.682 166.706C301.934 167.117 302.282 167.438 302.726 167.67C303.17 167.902 303.677 168.018 304.247 168.018ZM321.202 180V159.636H325.507V176.45H334.238V180H321.202ZM336.809 180V159.636H344.843C346.387 159.636 347.703 159.931 348.79 160.521C349.877 161.105 350.706 161.917 351.276 162.957C351.853 163.991 352.141 165.185 352.141 166.537C352.141 167.889 351.85 169.082 351.266 170.116C350.683 171.151 349.838 171.956 348.731 172.533C347.63 173.109 346.298 173.398 344.734 173.398H339.613V169.947H344.037C344.866 169.947 345.549 169.805 346.086 169.52C346.629 169.228 347.034 168.827 347.299 168.317C347.571 167.8 347.707 167.206 347.707 166.537C347.707 165.861 347.571 165.271 347.299 164.767C347.034 164.257 346.629 163.862 346.086 163.584C345.542 163.299 344.853 163.156 344.018 163.156H341.114V180H336.809ZM355.816 180H351.202L358.232 159.636H363.781L370.8 180H366.187L361.086 164.29H360.927L355.816 180ZM355.528 171.996H366.425V175.357H355.528V171.996Z" fill="#3E3E3E"/>
<path d="M307.989 201.455C307.989 202.865 307.724 204.073 307.196 205.079C306.672 206.08 305.956 206.847 305.048 207.38C304.145 207.913 303.12 208.179 301.974 208.179C300.827 208.179 299.8 207.913 298.893 207.38C297.989 206.843 297.273 206.074 296.745 205.072C296.221 204.067 295.959 202.861 295.959 201.455C295.959 200.044 296.221 198.838 296.745 197.837C297.273 196.831 297.989 196.062 298.893 195.529C299.8 194.996 300.827 194.73 301.974 194.73C303.12 194.73 304.145 194.996 305.048 195.529C305.956 196.062 306.672 196.831 307.196 197.837C307.724 198.838 307.989 200.044 307.989 201.455ZM305.604 201.455C305.604 200.462 305.449 199.624 305.138 198.942C304.831 198.256 304.405 197.739 303.859 197.389C303.314 197.036 302.685 196.859 301.974 196.859C301.262 196.859 300.634 197.036 300.088 197.389C299.543 197.739 299.114 198.256 298.803 198.942C298.496 199.624 298.343 200.462 298.343 201.455C298.343 202.447 298.496 203.287 298.803 203.973C299.114 204.655 299.543 205.173 300.088 205.526C300.634 205.876 301.262 206.05 301.974 206.05C302.685 206.05 303.314 205.876 303.859 205.526C304.405 205.173 304.831 204.655 305.138 203.973C305.449 203.287 305.604 202.447 305.604 201.455ZM316.386 203.871V198.182H318.7V208H316.456V206.255H316.354C316.133 206.805 315.768 207.254 315.261 207.604C314.758 207.953 314.138 208.128 313.401 208.128C312.758 208.128 312.189 207.985 311.694 207.7C311.204 207.41 310.821 206.99 310.544 206.44C310.267 205.886 310.128 205.217 310.128 204.433V198.182H312.442V204.075C312.442 204.697 312.613 205.192 312.954 205.558C313.295 205.925 313.742 206.108 314.296 206.108C314.637 206.108 314.967 206.025 315.287 205.859C315.606 205.692 315.868 205.445 316.073 205.117C316.282 204.785 316.386 204.369 316.386 203.871ZM321.08 208V198.182H323.323V199.818H323.425C323.604 199.251 323.911 198.815 324.346 198.508C324.785 198.197 325.286 198.041 325.848 198.041C325.976 198.041 326.119 198.048 326.276 198.06C326.438 198.069 326.572 198.084 326.679 198.105V200.234C326.581 200.2 326.425 200.17 326.212 200.144C326.004 200.114 325.801 200.099 325.605 200.099C325.183 200.099 324.804 200.191 324.467 200.374C324.135 200.553 323.873 200.803 323.681 201.122C323.489 201.442 323.393 201.81 323.393 202.228V208H321.08ZM334.464 208H331.933L336.542 194.909H339.469L344.085 208H341.553L338.057 197.594H337.955L334.464 208ZM334.548 202.867H341.451V204.772H334.548V202.867ZM353.246 198.182L349.749 208H347.193L343.696 198.182H346.164L348.42 205.475H348.522L350.785 198.182H353.246ZM358.86 208.192C357.875 208.192 357.025 207.987 356.309 207.578C355.598 207.165 355.05 206.581 354.667 205.827C354.283 205.068 354.091 204.175 354.091 203.148C354.091 202.138 354.283 201.252 354.667 200.489C355.054 199.722 355.596 199.126 356.29 198.7C356.985 198.269 357.801 198.054 358.738 198.054C359.343 198.054 359.914 198.152 360.451 198.348C360.993 198.54 361.47 198.838 361.883 199.243C362.301 199.648 362.629 200.163 362.868 200.79C363.106 201.412 363.225 202.153 363.225 203.014V203.724H355.178V202.164H361.007C361.003 201.721 360.907 201.327 360.72 200.982C360.532 200.632 360.27 200.357 359.934 200.157C359.601 199.957 359.213 199.857 358.77 199.857C358.297 199.857 357.882 199.972 357.524 200.202C357.166 200.428 356.887 200.726 356.686 201.097C356.49 201.463 356.39 201.866 356.386 202.305V203.666C356.386 204.237 356.49 204.727 356.699 205.136C356.908 205.541 357.2 205.852 357.575 206.07C357.95 206.283 358.389 206.389 358.892 206.389C359.228 206.389 359.533 206.342 359.806 206.249C360.078 206.151 360.315 206.008 360.515 205.82C360.716 205.633 360.867 205.401 360.969 205.124L363.13 205.366C362.993 205.937 362.733 206.436 362.35 206.862C361.971 207.284 361.485 207.612 360.892 207.847C360.3 208.077 359.623 208.192 358.86 208.192ZM365.183 208V198.182H367.427V199.818H367.529C367.708 199.251 368.015 198.815 368.449 198.508C368.888 198.197 369.389 198.041 369.952 198.041C370.079 198.041 370.222 198.048 370.38 198.06C370.542 198.069 370.676 198.084 370.782 198.105V200.234C370.684 200.2 370.529 200.17 370.316 200.144C370.107 200.114 369.905 200.099 369.709 200.099C369.287 200.099 368.907 200.191 368.571 200.374C368.238 200.553 367.976 200.803 367.785 201.122C367.593 201.442 367.497 201.81 367.497 202.228V208H365.183ZM374.969 208.198C374.347 208.198 373.787 208.087 373.288 207.866C372.794 207.64 372.402 207.308 372.112 206.869C371.827 206.43 371.684 205.888 371.684 205.245C371.684 204.691 371.786 204.233 371.991 203.871C372.195 203.509 372.474 203.219 372.828 203.001C373.182 202.784 373.58 202.62 374.023 202.509C374.471 202.394 374.933 202.311 375.41 202.26C375.986 202.2 376.452 202.147 376.81 202.1C377.168 202.049 377.428 201.972 377.59 201.87C377.756 201.763 377.839 201.599 377.839 201.378V201.339C377.839 200.858 377.697 200.485 377.411 200.221C377.126 199.957 376.714 199.825 376.177 199.825C375.611 199.825 375.161 199.948 374.829 200.195C374.501 200.442 374.279 200.734 374.164 201.071L372.003 200.764C372.174 200.168 372.455 199.669 372.847 199.268C373.239 198.864 373.719 198.561 374.285 198.361C374.852 198.156 375.479 198.054 376.165 198.054C376.638 198.054 377.108 198.109 377.577 198.22C378.046 198.331 378.474 198.514 378.862 198.77C379.25 199.021 379.561 199.364 379.795 199.799C380.034 200.234 380.153 200.777 380.153 201.429V208H377.929V206.651H377.852C377.711 206.924 377.513 207.18 377.258 207.418C377.006 207.653 376.689 207.842 376.305 207.987C375.926 208.128 375.481 208.198 374.969 208.198ZM375.57 206.498C376.035 206.498 376.437 206.406 376.778 206.223C377.119 206.036 377.381 205.788 377.564 205.482C377.752 205.175 377.846 204.84 377.846 204.478V203.321C377.773 203.381 377.65 203.436 377.475 203.487C377.305 203.538 377.113 203.583 376.9 203.621C376.687 203.66 376.476 203.694 376.267 203.724C376.058 203.754 375.877 203.779 375.724 203.8C375.378 203.847 375.069 203.924 374.797 204.031C374.524 204.137 374.309 204.286 374.151 204.478C373.993 204.665 373.915 204.908 373.915 205.207C373.915 205.633 374.07 205.955 374.381 206.172C374.692 206.389 375.089 206.498 375.57 206.498ZM386.75 211.886C385.919 211.886 385.205 211.773 384.608 211.548C384.012 211.326 383.532 211.028 383.17 210.653C382.808 210.278 382.557 209.862 382.416 209.406L384.5 208.901C384.594 209.093 384.73 209.283 384.909 209.47C385.088 209.662 385.329 209.82 385.631 209.943C385.938 210.071 386.324 210.135 386.788 210.135C387.444 210.135 387.988 209.975 388.418 209.656C388.849 209.34 389.064 208.82 389.064 208.096V206.236H388.949C388.829 206.474 388.655 206.719 388.425 206.971C388.199 207.222 387.898 207.433 387.523 207.604C387.153 207.774 386.686 207.859 386.123 207.859C385.369 207.859 384.685 207.683 384.072 207.329C383.462 206.971 382.976 206.438 382.614 205.731C382.256 205.019 382.077 204.129 382.077 203.059C382.077 201.981 382.256 201.071 382.614 200.33C382.976 199.584 383.464 199.019 384.078 198.636C384.692 198.248 385.376 198.054 386.13 198.054C386.705 198.054 387.178 198.152 387.549 198.348C387.924 198.54 388.222 198.772 388.444 199.045C388.665 199.313 388.834 199.567 388.949 199.805H389.077V198.182H391.358V208.16C391.358 208.999 391.158 209.694 390.758 210.244C390.357 210.793 389.809 211.205 389.115 211.477C388.42 211.75 387.632 211.886 386.75 211.886ZM386.769 206.044C387.259 206.044 387.677 205.925 388.022 205.686C388.367 205.447 388.629 205.104 388.808 204.657C388.987 204.21 389.077 203.673 389.077 203.046C389.077 202.428 388.987 201.887 388.808 201.423C388.633 200.958 388.373 200.598 388.028 200.342C387.687 200.082 387.268 199.952 386.769 199.952C386.253 199.952 385.823 200.087 385.478 200.355C385.133 200.624 384.873 200.992 384.698 201.461C384.523 201.925 384.436 202.454 384.436 203.046C384.436 203.647 384.523 204.173 384.698 204.625C384.877 205.072 385.139 205.422 385.484 205.673C385.834 205.92 386.262 206.044 386.769 206.044ZM398.077 208.192C397.092 208.192 396.242 207.987 395.526 207.578C394.814 207.165 394.267 206.581 393.883 205.827C393.5 205.068 393.308 204.175 393.308 203.148C393.308 202.138 393.5 201.252 393.883 200.489C394.271 199.722 394.812 199.126 395.507 198.7C396.202 198.269 397.018 198.054 397.955 198.054C398.56 198.054 399.131 198.152 399.668 198.348C400.209 198.54 400.687 198.838 401.1 199.243C401.518 199.648 401.846 200.163 402.084 200.79C402.323 201.412 402.442 202.153 402.442 203.014V203.724H394.395V202.164H400.224C400.22 201.721 400.124 201.327 399.937 200.982C399.749 200.632 399.487 200.357 399.15 200.157C398.818 199.957 398.43 199.857 397.987 199.857C397.514 199.857 397.099 199.972 396.741 200.202C396.383 200.428 396.104 200.726 395.903 201.097C395.707 201.463 395.607 201.866 395.603 202.305V203.666C395.603 204.237 395.707 204.727 395.916 205.136C396.125 205.541 396.417 205.852 396.792 206.07C397.167 206.283 397.606 206.389 398.108 206.389C398.445 206.389 398.75 206.342 399.023 206.249C399.295 206.151 399.532 206.008 399.732 205.82C399.932 205.633 400.084 205.401 400.186 205.124L402.346 205.366C402.21 205.937 401.95 206.436 401.567 206.862C401.187 207.284 400.702 207.612 400.109 207.847C399.517 208.077 398.839 208.192 398.077 208.192Z" fill="#454444"/>
<path d="M500.088 269.278C498.683 269.278 497.43 269.02 496.33 268.503C495.236 267.986 494.367 267.273 493.724 266.365C493.081 265.457 492.747 264.416 492.72 263.243H496.896C496.943 264.032 497.274 264.671 497.891 265.162C498.507 265.652 499.24 265.898 500.088 265.898C500.764 265.898 501.361 265.749 501.878 265.45C502.402 265.145 502.809 264.724 503.101 264.188C503.399 263.644 503.548 263.021 503.548 262.318C503.548 261.602 503.396 260.973 503.091 260.429C502.793 259.885 502.378 259.461 501.848 259.156C501.318 258.851 500.711 258.696 500.028 258.689C499.432 258.689 498.852 258.812 498.288 259.057C497.732 259.302 497.297 259.637 496.986 260.061L493.158 259.375L494.122 248.636H506.571V252.156H497.672L497.145 257.257H497.264C497.622 256.753 498.162 256.336 498.885 256.004C499.607 255.673 500.416 255.507 501.311 255.507C502.537 255.507 503.631 255.795 504.592 256.372C505.554 256.949 506.312 257.741 506.869 258.749C507.426 259.75 507.701 260.903 507.695 262.209C507.701 263.581 507.383 264.801 506.74 265.868C506.104 266.929 505.212 267.764 504.065 268.374C502.925 268.977 501.599 269.278 500.088 269.278ZM516.737 269V248.636H521.043V265.45H529.773V269H516.737ZM532.344 269V248.636H540.378C541.923 248.636 543.238 248.931 544.325 249.521C545.413 250.105 546.241 250.917 546.811 251.957C547.388 252.991 547.676 254.185 547.676 255.537C547.676 256.889 547.385 258.082 546.801 259.116C546.218 260.151 545.373 260.956 544.266 261.533C543.165 262.109 541.833 262.398 540.269 262.398H535.148V258.947H539.573C540.401 258.947 541.084 258.805 541.621 258.52C542.164 258.228 542.569 257.827 542.834 257.317C543.106 256.8 543.242 256.206 543.242 255.537C543.242 254.861 543.106 254.271 542.834 253.767C542.569 253.257 542.164 252.862 541.621 252.584C541.077 252.299 540.388 252.156 539.553 252.156H536.649V269H532.344ZM551.351 269H546.738L553.767 248.636H559.316L566.336 269H561.722L556.621 253.29H556.462L551.351 269ZM551.063 260.996H561.961V264.357H551.063V260.996Z" fill="#3E3E3E"/>
<path d="M494.663 283.909V297H492.291V283.909H494.663ZM499.442 291.247V297H497.128V287.182H499.34V288.85H499.455C499.681 288.3 500.041 287.864 500.535 287.54C501.034 287.216 501.65 287.054 502.383 287.054C503.06 287.054 503.65 287.199 504.153 287.489C504.66 287.778 505.052 288.198 505.329 288.748C505.611 289.298 505.749 289.964 505.745 290.749V297H503.431V291.107C503.431 290.45 503.26 289.937 502.92 289.566C502.583 289.195 502.116 289.01 501.52 289.01C501.115 289.01 500.755 289.099 500.439 289.278C500.128 289.453 499.883 289.707 499.704 290.039C499.53 290.371 499.442 290.774 499.442 291.247ZM511.741 297.173C510.969 297.173 510.279 296.974 509.67 296.578C509.06 296.182 508.579 295.607 508.225 294.852C507.871 294.098 507.694 293.182 507.694 292.104C507.694 291.013 507.873 290.092 508.231 289.342C508.594 288.588 509.081 288.019 509.695 287.636C510.309 287.248 510.993 287.054 511.747 287.054C512.322 287.054 512.795 287.152 513.166 287.348C513.537 287.54 513.831 287.772 514.048 288.045C514.265 288.313 514.434 288.567 514.553 288.805H514.649V283.909H516.969V297H514.694V295.453H514.553C514.434 295.692 514.261 295.945 514.035 296.214C513.809 296.478 513.511 296.704 513.14 296.891C512.77 297.079 512.303 297.173 511.741 297.173ZM512.386 295.274C512.876 295.274 513.294 295.142 513.639 294.878C513.984 294.609 514.246 294.237 514.425 293.759C514.604 293.282 514.694 292.726 514.694 292.091C514.694 291.456 514.604 290.904 514.425 290.435C514.251 289.967 513.991 289.602 513.645 289.342C513.305 289.082 512.885 288.952 512.386 288.952C511.871 288.952 511.44 289.087 511.095 289.355C510.75 289.624 510.49 289.994 510.315 290.467C510.14 290.94 510.053 291.482 510.053 292.091C510.053 292.705 510.14 293.252 510.315 293.734C510.494 294.211 510.756 294.588 511.101 294.865C511.451 295.138 511.879 295.274 512.386 295.274ZM525.693 292.871V287.182H528.007V297H525.763V295.255H525.661C525.439 295.805 525.075 296.254 524.568 296.604C524.065 296.953 523.445 297.128 522.708 297.128C522.064 297.128 521.495 296.985 521.001 296.7C520.511 296.41 520.127 295.99 519.85 295.44C519.574 294.886 519.435 294.217 519.435 293.433V287.182H521.749V293.075C521.749 293.697 521.919 294.192 522.26 294.558C522.601 294.925 523.049 295.108 523.603 295.108C523.944 295.108 524.274 295.025 524.593 294.859C524.913 294.692 525.175 294.445 525.38 294.117C525.588 293.785 525.693 293.369 525.693 292.871ZM538.146 289.777L536.037 290.007C535.977 289.794 535.873 289.594 535.724 289.406C535.579 289.219 535.383 289.067 535.135 288.952C534.888 288.837 534.586 288.78 534.228 288.78C533.746 288.78 533.341 288.884 533.013 289.093C532.689 289.302 532.53 289.572 532.534 289.905C532.53 290.19 532.634 290.423 532.847 290.602C533.064 290.781 533.422 290.928 533.921 291.043L535.596 291.401C536.525 291.601 537.215 291.918 537.667 292.353C538.123 292.788 538.353 293.357 538.357 294.06C538.353 294.678 538.172 295.223 537.814 295.696C537.46 296.165 536.968 296.531 536.337 296.795C535.706 297.06 534.982 297.192 534.164 297.192C532.962 297.192 531.995 296.94 531.262 296.438C530.529 295.93 530.092 295.225 529.952 294.322L532.208 294.104C532.31 294.548 532.528 294.882 532.86 295.108C533.192 295.334 533.625 295.447 534.157 295.447C534.707 295.447 535.148 295.334 535.481 295.108C535.817 294.882 535.986 294.603 535.986 294.271C535.986 293.989 535.877 293.757 535.66 293.574C535.447 293.391 535.114 293.25 534.662 293.152L532.988 292.8C532.046 292.604 531.349 292.274 530.898 291.81C530.446 291.341 530.222 290.749 530.226 290.033C530.222 289.428 530.386 288.903 530.719 288.46C531.055 288.013 531.522 287.668 532.118 287.425C532.719 287.178 533.412 287.054 534.196 287.054C535.346 287.054 536.252 287.299 536.912 287.789C537.577 288.279 537.988 288.942 538.146 289.777ZM545.168 287.182V288.972H539.524V287.182H545.168ZM540.917 284.83H543.231V294.047C543.231 294.358 543.278 294.597 543.372 294.763C543.47 294.925 543.597 295.036 543.755 295.095C543.913 295.155 544.088 295.185 544.279 295.185C544.424 295.185 544.556 295.174 544.676 295.153C544.799 295.131 544.893 295.112 544.957 295.095L545.347 296.904C545.223 296.947 545.046 296.994 544.816 297.045C544.59 297.096 544.313 297.126 543.985 297.134C543.406 297.151 542.884 297.064 542.419 296.872C541.955 296.676 541.586 296.374 541.313 295.964C541.045 295.555 540.913 295.044 540.917 294.43V284.83ZM547.103 297V287.182H549.347V288.818H549.449C549.628 288.251 549.935 287.815 550.369 287.508C550.808 287.197 551.309 287.041 551.871 287.041C551.999 287.041 552.142 287.048 552.3 287.06C552.462 287.069 552.596 287.084 552.702 287.105V289.234C552.604 289.2 552.449 289.17 552.236 289.144C552.027 289.114 551.825 289.099 551.629 289.099C551.207 289.099 550.827 289.191 550.491 289.374C550.158 289.553 549.896 289.803 549.705 290.122C549.513 290.442 549.417 290.81 549.417 291.228V297H547.103ZM555.977 300.682C555.661 300.682 555.369 300.656 555.101 300.605C554.837 300.558 554.626 300.503 554.468 300.439L555.005 298.636C555.342 298.734 555.642 298.781 555.906 298.777C556.171 298.773 556.403 298.69 556.603 298.528C556.808 298.37 556.98 298.106 557.121 297.735L557.319 297.205L553.759 287.182H556.213L558.476 294.597H558.578L560.847 287.182H563.308L559.377 298.189C559.194 298.709 558.951 299.154 558.649 299.525C558.346 299.9 557.975 300.185 557.536 300.381C557.102 300.582 556.582 300.682 555.977 300.682ZM571.158 297H568.627L573.235 283.909H576.163L580.778 297H578.247L574.75 286.594H574.648L571.158 297ZM571.241 291.867H578.144V293.772H571.241V291.867ZM589.939 287.182L586.443 297H583.886L580.39 287.182H582.857L585.113 294.475H585.216L587.478 287.182H589.939ZM595.476 300.886C594.645 300.886 593.932 300.773 593.335 300.548C592.738 300.326 592.259 300.028 591.897 299.653C591.535 299.278 591.283 298.862 591.143 298.406L593.226 297.901C593.32 298.093 593.456 298.283 593.635 298.47C593.814 298.662 594.055 298.82 594.358 298.943C594.665 299.071 595.05 299.135 595.515 299.135C596.171 299.135 596.714 298.975 597.145 298.656C597.575 298.34 597.79 297.82 597.79 297.096V295.236H597.675C597.556 295.474 597.381 295.719 597.151 295.971C596.925 296.222 596.625 296.433 596.25 296.604C595.879 296.774 595.412 296.859 594.85 296.859C594.096 296.859 593.412 296.683 592.798 296.329C592.189 295.971 591.703 295.438 591.341 294.731C590.983 294.019 590.804 293.129 590.804 292.059C590.804 290.981 590.983 290.071 591.341 289.33C591.703 288.584 592.191 288.019 592.805 287.636C593.418 287.248 594.102 287.054 594.856 287.054C595.432 287.054 595.905 287.152 596.275 287.348C596.65 287.54 596.949 287.772 597.17 288.045C597.392 288.313 597.56 288.567 597.675 288.805H597.803V287.182H600.085V297.16C600.085 297.999 599.885 298.694 599.484 299.244C599.084 299.793 598.536 300.205 597.841 300.477C597.147 300.75 596.358 300.886 595.476 300.886ZM595.496 295.044C595.986 295.044 596.403 294.925 596.748 294.686C597.094 294.447 597.356 294.104 597.535 293.657C597.714 293.21 597.803 292.673 597.803 292.046C597.803 291.428 597.714 290.887 597.535 290.423C597.36 289.958 597.1 289.598 596.755 289.342C596.414 289.082 595.994 288.952 595.496 288.952C594.98 288.952 594.55 289.087 594.204 289.355C593.859 289.624 593.599 289.992 593.425 290.461C593.25 290.925 593.162 291.454 593.162 292.046C593.162 292.647 593.25 293.173 593.425 293.625C593.604 294.072 593.866 294.422 594.211 294.673C594.56 294.92 594.988 295.044 595.496 295.044Z" fill="#454444"/>
<path d="M347.31 242L284 270.368L350.998 291.423L414 264.606L347.31 242Z" fill="#516A9B"/>
<path d="M350.998 291.423L284 270.368V574H350.998V291.423Z" fill="#A8AFCC"/>
<path d="M414 264.606L350.998 291.423V574H414V264.606Z" fill="#7C8BAE"/>
<path d="M543.31 331L480 351.764L546.998 367.174L610 347.546L543.31 331Z" fill="#7B3B29"/>
<path d="M546.998 367.174L480 351.764V574H546.998V367.174Z" fill="#CD947A"/>
<path d="M610 347.546L546.998 367.174V574H610V347.546Z" fill="#B96A4F"/>
</svg>
