<svg xmlns="http://www.w3.org/2000/svg" fill="none" viewBox="0 0 100 100">
<rect width="100" height="100" rx="50" fill="#FFF3C3"/>
<g clip-path="url(#clip0_706_1531)">
<path d="M56.5 58L53.5 61C53.5 64.6 56.5 67.5 59.5 68.5C63 70 67.4 69 69.5 67.5C71.6 66 73 64 73.5 60C73.8138 57.4897 71.8333 54 70.5 52.5L66.5 54C66.8735 54.1503 67.7209 54.773 68.5 57.5C69.5 61 67.4043 63.3971 66.5 64C65.5 64.6667 62 65 60 64.5C57.2884 63.8221 56.1667 59.3333 56.5 58Z" fill="#EABE00"/>
<path d="M57.5001 57.4987C57.1668 58.832 57.1001 61.8987 59.5001 63.4987C61.9001 65.0987 64.8334 64.1654 66.0001 63.4987C67.1668 62.6654 69.2001 60.2987 68.0001 57.4987C66.8001 54.6987 65.5001 54.332 65.0001 54.4987L57.5001 57.4987Z" fill="#EABE00"/>
<path d="M24 41.5C24.5 44.8333 26.7 51.7 31.5 52.5C37.5 53.5 50.5 60 50 65C53.5 57.5 61.5 54 68.5 52.5C74.1 51.3 75.8333 44.6667 76 41.5L69.5 46C70.6667 48.1667 68.4 52.6 50 53C43.1667 52.6157 29.8 50.6778 31 46L24 41.5Z" fill="#EABE00"/>
<path d="M32 40V48C35.5 49.5 44 52.4 50 52C57.5 51.5 67.5 50.5 68.5 48V40L50 45.5L32 40Z" fill="#EABE00"/>
<path d="M18.5 47.5H17.5V49H20.5V47.5H19.5V35.5L50 44.5L82.5 34.5L50 25L17.5 34.5L18.5 35V47.5Z" fill="#EABE00"/>
<path d="M42.9998 58L46.533 61C46.533 64.6 42.533 67.8333 40.533 69C37.533 70 33.0998 69 30.9998 67.5C28.8998 66 27.033 64 26.533 60C26.2205 57.5 28.1997 54 29.533 52.5L34.033 54C33.6595 54.1503 31.9599 56.0723 31.4998 57.5C30.533 60.5 32.533 63.2169 34.033 64C35.033 64.6667 37.4761 65.8588 40.533 64C42.9998 62.5 43.3331 59.3333 42.9998 58Z" fill="#EABE00"/>
<path d="M42.5334 57.4987C42.8667 58.832 42.9334 61.8987 40.5334 63.4987C38.1334 65.0987 35.2001 64.1654 34.0334 63.4987C32.8667 62.6654 30.8334 60.2987 32.0334 57.4987C33.2334 54.6987 34.5334 54.332 35.0334 54.4987L42.5334 57.4987Z" fill="#EABE00"/>
<path d="M50 66.5L47 69L50 75L53 69L50 66.5Z" fill="#EABE00"/>
</g>
<defs>
<clipPath id="clip0_706_1531">
<rect width="65" height="50" fill="white" transform="translate(17.5 25)"/>
</clipPath>
</defs>
</svg>