<svg width="443" height="340" viewBox="0 0 443 340" fill="none" xmlns="http://www.w3.org/2000/svg">
<path d="M265.8 224.4L245.354 244.8C245.354 269.28 265.8 289 286.246 295.8C310.1 306 340.088 299.2 354.4 289C368.712 278.8 378.254 265.2 381.662 238C383.8 220.93 370.303 197.2 361.215 187L333.954 197.2C336.499 198.222 342.274 202.456 347.585 221C354.4 244.8 340.117 261.101 333.954 265.2C327.138 269.733 303.285 272 289.654 268.6C271.173 263.99 263.528 233.467 265.8 224.4Z" fill="white"/>
<path d="M272.615 221C270.344 230.067 269.889 250.92 286.246 261.8C302.603 272.68 322.595 266.333 330.546 261.8C338.497 256.133 352.355 240.04 344.177 221C335.998 201.96 327.138 199.467 323.731 200.6L272.615 221Z" fill="white"/>
<path d="M44.3 112.2C47.7077 134.867 62.7015 181.56 95.4154 187C136.308 193.8 224.908 238 221.5 272C245.354 221 299.877 197.2 347.585 187C385.751 178.84 397.564 133.733 398.7 112.2L354.4 142.8C362.351 157.533 346.903 187.68 221.5 190.4C174.928 187.787 83.8292 174.609 92.0077 142.8L44.3 112.2Z" fill="white"/>
<path d="M98.8231 102V156.4C122.677 166.6 180.608 186.32 221.5 183.6C272.615 180.2 340.769 173.4 347.585 156.4V102L221.5 139.4L98.8231 102Z" fill="white"/>
<path d="M6.81538 153H0V163.2H20.4462V153H13.6308V71.4L221.5 132.6L443 64.6L221.5 0L0 64.6L6.81538 68V153Z" fill="white"/>
<path d="M173.792 224.4L197.872 244.8C197.872 269.28 170.611 291.267 156.98 299.2C136.534 306 106.32 299.2 92.0077 289C77.6954 278.8 64.9724 265.2 61.5648 238C59.4349 221 72.9237 197.2 82.0109 187L112.68 197.2C110.135 198.222 98.5511 211.292 95.4154 221C88.8263 241.4 102.457 259.875 112.68 265.2C119.496 269.733 136.146 277.84 156.98 265.2C173.792 255 176.064 233.467 173.792 224.4Z" fill="white"/>
<path d="M170.611 221C172.883 230.067 173.337 250.92 156.98 261.8C140.623 272.68 120.631 266.333 112.68 261.8C104.729 256.133 90.8709 240.04 99.0494 221C107.228 201.96 116.088 199.467 119.496 200.6L170.611 221Z" fill="white"/>
<path d="M221.5 282.2L201.054 299.2L221.5 340L241.946 299.2L221.5 282.2Z" fill="white"/>
</svg>
