<svg width="65" height="50" viewBox="0 0 65 50" fill="none" xmlns="http://www.w3.org/2000/svg">
<path d="M39 33L36 36C36 39.6 39 42.5 42 43.5C45.5 45 49.9 44 52 42.5C54.1 41 55.5 39 56 35C56.3138 32.4897 54.3333 29 53 27.5L49 29C49.3735 29.1503 50.2209 29.773 51 32.5C52 36 49.9043 38.3971 49 39C48 39.6667 44.5 40 42.5 39.5C39.7884 38.8221 38.6667 34.3333 39 33Z" fill="#2C2B2A"/>
<path d="M40 32.5C39.6667 33.8333 39.6 36.9 42 38.5C44.4 40.1 47.3333 39.1667 48.5 38.5C49.6667 37.6667 51.7 35.3 50.5 32.5C49.3 29.7 48 29.3333 47.5 29.5L40 32.5Z" fill="#2C2B2A"/>
<path d="M6.5 16.5C7 19.8333 9.2 26.7 14 27.5C20 28.5 33 35 32.5 40C36 32.5 44 29 51 27.5C56.6 26.3 58.3333 19.6667 58.5 16.5L52 21C53.1667 23.1667 50.9 27.6 32.5 28C25.6667 27.6157 12.3 25.6778 13.5 21L6.5 16.5Z" fill="#2C2B2A"/>
<path d="M14.5 15V23C18 24.5 26.5 27.4 32.5 27C40 26.5 50 25.5 51 23V15L32.5 20.5L14.5 15Z" fill="#2C2B2A"/>
<path d="M1 22.5H0V24H3V22.5H2V10.5L32.5 19.5L65 9.5L32.5 0L0 9.5L1 10V22.5Z" fill="#2C2B2A"/>
<path d="M25.5 33L29.0332 36C29.0332 39.6 25.0332 42.8333 23.0332 44C20.0332 45 15.6 44 13.5 42.5C11.4 41 9.5332 39 9.0332 35C8.7207 32.5 10.6999 29 12.0332 27.5L16.5332 29C16.1597 29.1503 14.4601 31.0723 14 32.5C13.0332 35.5 15.0332 38.2169 16.5332 39C17.5332 39.6667 19.9763 40.8588 23.0332 39C25.5 37.5 25.8333 34.3333 25.5 33Z" fill="#2C2B2A"/>
<path d="M25.0332 32.5C25.3665 33.8333 25.4332 36.9 23.0332 38.5C20.6332 40.1 17.6999 39.1667 16.5332 38.5C15.3665 37.6667 13.3332 35.3 14.5332 32.5C15.7332 29.7 17.0332 29.3333 17.5332 29.5L25.0332 32.5Z" fill="#2C2B2A"/>
<path d="M32.5 41.5L29.5 44L32.5 50L35.5 44L32.5 41.5Z" fill="#2C2B2A"/>
</svg>
