<svg width="423" height="423" viewBox="0 0 423 423" fill="none" xmlns="http://www.w3.org/2000/svg">
<path d="M211.292 288.125C222.048 304.26 236.455 317.514 253.55 326.542L211.292 368.8L169.033 326.542C186.129 317.514 200.727 304.26 211.292 288.125ZM307.333 195.925C297.145 195.925 287.373 199.972 280.169 207.177C272.964 214.382 268.917 224.153 268.917 234.342C268.917 244.53 272.964 254.302 280.169 261.506C287.373 268.711 297.145 272.758 307.333 272.758C317.522 272.758 327.293 268.711 334.498 261.506C341.703 254.302 345.75 244.53 345.75 234.342C345.75 224.153 341.703 214.382 334.498 207.177C327.293 199.972 317.522 195.925 307.333 195.925ZM115.25 195.925C105.061 195.925 95.2898 199.972 88.0853 207.177C80.8808 214.382 76.8333 224.153 76.8333 234.342C76.8333 244.53 80.8808 254.302 88.0853 261.506C95.2898 268.711 105.061 272.758 115.25 272.758C125.439 272.758 135.21 268.711 142.415 261.506C149.619 254.302 153.667 244.53 153.667 234.342C153.667 224.153 149.619 214.382 142.415 207.177C135.21 199.972 125.439 195.925 115.25 195.925ZM307.333 147.904C327.711 147.904 347.254 155.999 361.663 170.408C376.072 184.817 384.167 204.36 384.167 224.737C384.167 245.115 376.072 264.658 361.663 279.067C347.254 293.476 327.711 301.571 307.333 301.571C286.956 301.571 267.413 293.476 253.004 279.067C238.595 264.658 230.5 245.115 230.5 224.737C230.5 204.36 238.595 184.817 253.004 170.408C267.413 155.999 286.956 147.904 307.333 147.904ZM115.25 147.904C135.627 147.904 155.17 155.999 169.579 170.408C183.988 184.817 192.083 204.36 192.083 224.737C192.083 245.115 183.988 264.658 169.579 279.067C155.17 293.476 135.627 301.571 115.25 301.571C94.8725 301.571 75.3297 293.476 60.9206 279.067C46.5116 264.658 38.4167 245.115 38.4167 224.737C38.4167 204.36 46.5116 184.817 60.9206 170.408C75.3297 155.999 94.8725 147.904 115.25 147.904ZM23.8183 0C57.625 71.0708 33.2304 124.086 10.5646 176.717C3.64958 192.083 0 208.026 0 224.737C0 255.304 12.1424 284.618 33.7559 306.232C55.3695 327.845 84.6838 339.987 115.25 339.987C119.284 339.795 123.317 339.603 127.351 339.027L184.208 395.884L211.292 422.583L238.375 395.884L295.232 339.027C299.266 339.603 303.3 339.795 307.333 339.987C337.9 339.987 367.214 327.845 388.827 306.232C410.441 284.618 422.583 255.304 422.583 224.737C422.583 208.026 418.934 192.083 412.019 176.717C389.353 124.086 364.958 71.0708 398.765 0C348.055 39.5692 275.832 70.8787 211.292 71.0708C146.752 70.8787 74.5283 39.5692 23.8183 0Z" fill="#2C2B2A"/>
</svg>
