<svg xmlns="http://www.w3.org/2000/svg" fill="none" viewBox="1.28 1.78 61.44 61.44">
<path d="M1.28003 11.7793C1.28003 6.25646 5.75718 1.7793 11.28 1.7793H52.72C58.2429 1.7793 62.72 6.25645 62.72 11.7793V53.2193C62.72 58.7421 58.2429 63.2193 52.72 63.2193H11.28C5.75719 63.2193 1.28003 58.7421 1.28003 53.2193V11.7793Z" fill="#F39E00"/>
<path d="M62.7199 36.9352L42.4594 16.6748C42.3387 16.5644 42.1814 16.5028 42.0178 16.502H37.3458C37.077 16.502 36.8402 16.662 36.7442 16.918L36.533 17.494L35.5346 16.502H28.4626L29.3906 18.9724L27.0738 16.662C26.9586 16.566 26.8114 16.502 26.6514 16.502H21.973C21.8699 16.5022 21.7683 16.5275 21.6771 16.5755C21.5858 16.6236 21.5076 16.6931 21.4491 16.778C21.3906 16.863 21.3535 16.9608 21.3411 17.0632C21.3287 17.1656 21.3413 17.2695 21.3778 17.366L24.9106 26.8252L25.8386 27.7468C22.7538 29.7692 20.7058 33.2508 20.7058 37.206C20.7058 40.4444 22.0818 43.3564 24.2706 45.4172L24.245 45.4108L42.0594 63.2194H62.7199V36.9352Z" fill="#C05600" fill-opacity="0.5"/>
<path d="M33.4708 22.0296L35.5367 16.5H28.4628L30.5294 22.0296H33.4708ZM39.0868 26.8251L42.619 17.3646C42.6555 17.2678 42.6679 17.1636 42.6552 17.0609C42.6425 16.9582 42.605 16.8602 42.546 16.7752C42.487 16.6902 42.4083 16.6208 42.3165 16.573C42.2248 16.5251 42.1228 16.5003 42.0193 16.5006H37.3473C37.2168 16.5005 37.0895 16.5403 36.9823 16.6147C36.8751 16.689 36.7932 16.7944 36.7476 16.9166L33.8113 24.7752C35.7035 25.0463 37.5083 25.7471 39.0868 26.8251ZM24.9134 26.8251C26.4919 25.7471 28.2967 25.0456 30.1889 24.7746L27.2513 16.9173C27.2058 16.7951 27.124 16.6898 27.0169 16.6155C26.9098 16.5411 26.7826 16.5013 26.6523 16.5013H21.9739C21.8706 16.5014 21.7688 16.5264 21.6773 16.5744C21.5858 16.6223 21.5073 16.6917 21.4484 16.7766C21.3895 16.8615 21.3521 16.9594 21.3393 17.0619C21.3265 17.1644 21.3387 17.2685 21.3748 17.3653L24.9134 26.8251ZM32.0001 25.9086C25.7729 25.9086 20.7041 30.9774 20.7041 37.2046C20.7041 43.4318 25.7729 48.5006 32.0001 48.5006C38.2273 48.5006 43.2961 43.4318 43.2961 37.2046C43.2961 30.9774 38.2273 25.9086 32.0001 25.9086ZM38.7521 36.2894L35.1873 38.8814L36.5505 43.0734C36.6337 43.3358 36.5441 43.6302 36.3201 43.7902C36.2101 43.8694 36.078 43.912 35.9425 43.912C35.807 43.912 35.6749 43.8694 35.5649 43.7902L32.0001 41.1982L28.4289 43.7902C28.2049 43.9566 27.9041 43.9566 27.6801 43.7902C27.4561 43.6302 27.3601 43.3358 27.4433 43.0734L28.8065 38.8814L25.2417 36.2894C25.1319 36.2102 25.0502 36.0978 25.0088 35.9689C24.9673 35.8399 24.9682 35.7011 25.0113 35.5726C25.0523 35.4438 25.1334 35.3314 25.2428 35.252C25.3522 35.1725 25.4841 35.1301 25.6193 35.131H30.0289L31.3921 30.939C31.4331 30.8102 31.5142 30.6978 31.6236 30.6184C31.733 30.5389 31.8649 30.4965 32.0001 30.4974C32.2753 30.4974 32.5185 30.6766 32.6081 30.939L33.9713 35.131H38.3809C38.6561 35.131 38.8993 35.3102 38.9889 35.5726C39.0721 35.835 38.9825 36.1294 38.7521 36.2894Z" fill="white"/>
</svg>