<svg xmlns="http://www.w3.org/2000/svg" fill="none" viewBox="0 0 80 80">
<rect width="80" height="80" rx="7" fill="#FFF3C3"/>
<path d="M62.3408 45.3182C61.6628 42.9562 60.3298 40.8358 58.4864 39.1883C56.3069 37.2391 53.5416 36.0809 50.6394 35.8914V21.495C50.6394 19.7206 49.1961 18.2773 47.4222 18.2773H20.6566C18.8823 18.2773 17.4395 19.7211 17.4395 21.495V58.5051C17.4395 60.2795 18.8827 61.7227 20.6566 61.7227H47.0238C47.9173 61.9136 48.8388 62.0111 49.7745 62.0111C53.8184 62.0111 57.5698 60.1842 60.0673 56.999C61.3907 55.313 62.2843 53.309 62.6527 51.2047C62.7832 50.4599 62.8487 49.6964 62.8487 48.9365C62.8487 47.7037 62.6775 46.4861 62.341 45.3179L62.3408 45.3182ZM23.7216 24.3264C23.7216 24.1671 23.8507 24.0381 24.01 24.0381H44.0702C44.2295 24.0381 44.3586 24.1672 44.3586 24.3264V31.7066C44.3586 31.8659 44.2295 31.995 44.0702 31.995H24.01C23.8507 31.995 23.7216 31.8659 23.7216 31.7066V24.3264ZM44.3584 36.16V37.0353C44.2613 37.0792 44.1652 37.1241 44.07 37.1708C43.9729 37.2175 43.8768 37.266 43.7816 37.3154C43.6932 37.3603 43.6063 37.407 43.5193 37.4546C43.3792 37.5301 43.2387 37.6102 43.1009 37.6926C42.5136 38.0419 41.9519 38.4388 41.4305 38.8718C41.4264 38.8754 41.4218 38.8786 41.4177 38.8823C41.4154 38.8841 41.4131 38.886 41.4113 38.8883C41.1851 39.0769 40.9663 39.2719 40.7553 39.4728C40.6555 39.5676 40.5575 39.6637 40.4619 39.7612C40.368 39.8564 40.276 39.9521 40.1858 40.0496H40.0989C39.9391 40.0496 39.8105 39.9205 39.8105 39.7612V36.16C39.8105 36.0007 39.9391 35.8716 40.0989 35.8716H44.0705C44.2293 35.8716 44.3584 36.0012 44.3584 36.16ZM28.2697 55.8698C28.2697 56.0296 28.141 56.1582 27.9813 56.1582H24.0097C23.8504 56.1582 23.7213 56.0296 23.7213 55.8698V52.2699C23.7213 52.1102 23.8504 51.9815 24.0097 51.9815H27.9813C28.1411 51.9815 28.2697 52.1102 28.2697 52.2699V55.8698ZM28.2697 47.815C28.2697 47.9743 28.141 48.1034 27.9813 48.1034H24.0097C23.8504 48.1034 23.7213 47.9743 23.7213 47.815L23.7218 44.2147C23.7218 44.0554 23.8509 43.9263 24.0102 43.9263H27.9818C28.1415 43.9263 28.2701 44.0554 28.2701 44.2147L28.2697 47.815ZM28.2697 39.7607C28.2697 39.92 28.141 40.0491 27.9813 40.0491H24.0097C23.8504 40.0491 23.7213 39.92 23.7213 39.7607L23.7218 36.1599C23.7218 36.0006 23.8509 35.8715 24.0102 35.8715H27.9818C28.1415 35.8715 28.2701 36.0006 28.2701 36.1599L28.2697 39.7607ZM36.314 55.8693C36.314 56.0291 36.1849 56.1577 36.0256 56.1577H32.054C31.8943 56.1577 31.7656 56.0291 31.7656 55.8693V52.2695C31.7656 52.1097 31.8943 51.9811 32.054 51.9811H36.0256C36.1849 51.9811 36.314 52.1097 36.314 52.2695V55.8693ZM36.314 47.8146C36.314 47.9739 36.1849 48.103 36.0256 48.103H32.054C31.8943 48.103 31.7656 47.9739 31.7656 47.8146L31.7661 44.2142C31.7661 44.0549 31.8947 43.9258 32.0545 43.9258H36.0261C36.1854 43.9258 36.3145 44.0549 36.3145 44.2142L36.314 47.8146ZM36.314 39.7603C36.314 39.9196 36.1849 40.0487 36.0256 40.0487H32.054C31.8943 40.0487 31.7656 39.9196 31.7656 39.7603L31.7661 36.1595C31.7661 36.0002 31.8947 35.8711 32.0545 35.8711H36.0261C36.1854 35.8711 36.3145 36.0002 36.3145 36.1595L36.314 39.7603ZM60.3808 50.8071C60.0782 52.5383 59.3426 54.1877 58.2532 55.576C56.1955 58.2 53.1051 59.7045 49.7749 59.7045C43.8372 59.7045 39.0069 54.8732 39.0069 48.9361C39.0069 45.7317 40.4196 42.7169 42.8818 40.6629C42.8877 40.6583 42.8928 40.6542 42.8978 40.6496C42.8992 40.6482 42.9001 40.6477 42.9006 40.6468C43.3309 40.2898 43.795 39.9625 44.2802 39.6732C44.3919 39.6068 44.5063 39.5418 44.6222 39.4791C46.191 38.6217 47.973 38.1685 49.7743 38.1685C49.8256 38.1685 49.875 38.1685 49.9313 38.1698C52.5246 38.2069 55.0167 39.1783 56.9489 40.9067C58.4682 42.2649 59.5659 44.0103 60.1244 45.9559C60.4018 46.9176 60.5423 47.9207 60.5423 48.9369C60.5428 49.5636 60.4888 50.193 60.3808 50.8069L60.3808 50.8071Z" fill="#EABE00"/>
<path d="M54.5129 51.503C54.5129 53.4787 52.9249 55.1001 50.9286 55.2155V56.4469H48.6223V55.2146C46.7404 55.0997 45.2454 53.5685 45.2454 51.7035H47.5517C47.5517 52.3719 48.1344 52.9162 48.8508 52.9162H50.7006C51.5315 52.9162 52.2071 52.2827 52.2071 51.503C52.2071 51.1336 52.056 50.7839 51.7804 50.5188C51.4943 50.2428 51.1112 50.0904 50.7006 50.0904H48.8508C46.7483 50.0904 45.0381 48.4219 45.0381 46.3711C45.0381 45.37 45.44 44.4311 46.1697 43.7271C46.8334 43.0867 47.6967 42.7118 48.6224 42.6591V41.4277H50.9287V42.6601C52.8106 42.775 54.3055 44.3062 54.3055 46.1711H51.9993C51.9993 45.5023 51.417 44.9585 50.7001 44.9585H48.8503C48.4402 44.9585 48.0566 45.1109 47.7705 45.3869C47.4954 45.652 47.3438 46.0022 47.3438 46.3711C47.3438 47.1507 48.0195 47.7843 48.8503 47.7843H50.7001C51.7108 47.7843 52.6635 48.1661 53.3817 48.8591C54.1109 49.5632 54.5129 50.5024 54.5129 51.503Z" fill="#EABE00"/>
</svg>