<svg xmlns="http://www.w3.org/2000/svg" fill="none" viewBox="0 0 100 100">
<rect width="100" height="100" rx="50" fill="#FFF3C3"/>
<path d="M28.9217 38.858H30.7019H30.7014C30.9628 39.8793 31.3684 40.858 31.9058 41.7644L30.6465 43.0237C30.3219 43.3487 30.1393 43.7895 30.1393 44.2487C30.1393 44.7083 30.3219 45.1486 30.6465 45.4736L32.1223 46.9495C32.4473 47.2745 32.8877 47.4567 33.3473 47.4567C33.8064 47.4567 34.2468 47.2745 34.5718 46.9495L35.8316 45.6897C36.7379 46.2271 37.7166 46.6327 38.737 46.8945V48.6747C38.737 49.1339 38.9196 49.5747 39.2446 49.8997C39.5696 50.2242 40.01 50.4069 40.4696 50.4069H42.5552C43.0148 50.4069 43.4556 50.2247 43.7806 49.8997C44.1056 49.5747 44.2883 49.1343 44.2883 48.6747V46.8945C45.3086 46.6327 46.2869 46.2276 47.1932 45.6902L48.453 46.9495C48.778 47.2745 49.2188 47.4567 49.6784 47.4567C50.138 47.4567 50.5784 47.2745 50.9034 46.9495L52.3778 45.4736H52.3783C52.7033 45.1491 52.8864 44.7082 52.8864 44.2487C52.8864 43.7891 52.7033 43.3482 52.3783 43.0237L51.119 41.7644C51.6564 40.858 52.062 39.8793 52.3233 38.858H54.1045C54.5636 38.858 55.004 38.6758 55.329 38.3508C55.6535 38.0263 55.8362 37.5859 55.8362 37.1263V35.0403C55.8362 34.5807 55.654 34.1403 55.329 33.8153C55.0044 33.4903 54.564 33.3077 54.1045 33.3072H52.3233C52.062 32.2864 51.6564 31.3078 51.119 30.4008L52.3783 29.1415C52.7033 28.8175 52.8864 28.3766 52.8864 27.9171C52.8864 27.4575 52.7033 27.0171 52.3783 26.6926L50.9038 25.2172H50.9034C50.5788 24.8922 50.138 24.7095 49.6784 24.7095C49.2188 24.7095 48.778 24.8922 48.453 25.2172L47.1932 26.4765C46.2869 25.9391 45.3091 25.533 44.2883 25.2717V23.4915C44.2883 23.0319 44.1056 22.5915 43.7806 22.2665C43.4556 21.942 43.0148 21.7598 42.5552 21.7598H40.4696C40.01 21.7598 39.5696 21.942 39.2446 22.267C38.9196 22.5915 38.737 23.0323 38.737 23.4915V25.2717C37.7166 25.5335 36.7379 25.9391 35.8316 26.4765L34.5718 25.2172C34.2472 24.8922 33.8064 24.7095 33.3468 24.7095C32.8877 24.7095 32.4469 24.8922 32.1223 25.2172L30.6465 26.6926C30.3219 27.0171 30.1393 27.4579 30.1393 27.917C30.1393 28.3766 30.3219 28.817 30.6465 29.1415L31.9058 30.4013V30.4018C31.3684 31.3081 30.9628 32.2864 30.7014 33.3072H28.9216C28.462 33.3072 28.0212 33.4898 27.6962 33.8148C27.3716 34.1399 27.189 34.5807 27.189 35.0403V37.1268V37.1263C27.189 37.5859 27.3716 38.0263 27.6966 38.3513C28.0212 38.6759 28.462 38.8585 28.9216 38.858L28.9217 38.858ZM35.0424 34.0199C35.1578 33.6569 35.3038 33.3045 35.4796 32.9666C36.1268 31.716 37.1459 30.6971 38.3965 30.0492C38.7343 29.8739 39.0863 29.7279 39.4493 29.613C40.792 29.1864 42.2335 29.1864 43.5761 29.6125C43.9391 29.7274 44.2911 29.8735 44.6285 30.0492C46.1121 30.8155 47.2611 32.1014 47.8567 33.661C48.4522 35.2205 48.4522 36.9454 47.8567 38.505C47.2611 40.0647 46.1121 41.3505 44.6285 42.1167C44.2907 42.2921 43.9382 42.4381 43.5756 42.5535C42.0472 43.0405 40.396 42.9709 38.9143 42.3571C37.4321 41.7428 36.2158 40.6245 35.4796 39.199C35.3038 38.8616 35.1578 38.5091 35.0425 38.1466C34.6167 36.804 34.6167 35.3624 35.0425 34.0198L35.0424 34.0199Z" fill="#EABE00"/>
<path d="M57.1215 46.5388C56.769 47.133 56.503 47.7748 56.3318 48.444H55.165C54.5374 48.444 54.0288 48.9526 54.0288 49.5802V50.948C54.0288 51.2492 54.1487 51.5381 54.3616 51.7509C54.5749 51.9638 54.8638 52.0833 55.165 52.0833H56.3318C56.503 52.753 56.769 53.3944 57.1215 53.989L56.2957 54.8148V54.8143C55.8525 55.2579 55.8525 55.9771 56.2957 56.4206L57.2634 57.3883C57.7069 57.8314 58.4256 57.8314 58.8692 57.3883L59.6954 56.5621C60.2896 56.9145 60.931 57.1805 61.6002 57.3522V58.5195C61.6002 58.8207 61.7197 59.1095 61.933 59.3224C62.1459 59.5352 62.4347 59.6552 62.7359 59.6552H64.1033C64.4049 59.6552 64.6938 59.5357 64.9066 59.3224C65.12 59.1095 65.2394 58.8207 65.2394 58.5195V57.3522C65.9087 57.1805 66.5501 56.9145 67.1442 56.5625L67.9705 57.3883C68.414 57.8314 69.1332 57.8314 69.5768 57.3883L70.5435 56.4206C70.7569 56.2078 70.8768 55.9189 70.8768 55.6177C70.8768 55.316 70.7569 55.0272 70.5435 54.8143L69.7177 53.9885L69.7182 53.989C70.0702 53.3943 70.3362 52.753 70.5074 52.0833H71.6756C72.3023 52.0833 72.8109 51.5752 72.8109 50.948V49.5802C72.8109 48.9531 72.3027 48.4445 71.6756 48.444H70.5074C70.3362 47.7748 70.0702 47.1329 69.7182 46.5388L70.544 45.713H70.5435C70.7569 45.5001 70.8768 45.2113 70.8768 44.9101C70.8768 44.6089 70.7569 44.32 70.5435 44.1071L69.5768 43.1399C69.3639 42.927 69.0751 42.8071 68.7734 42.8071C68.4722 42.8071 68.1833 42.927 67.9705 43.1399L67.1442 43.9657C66.55 43.6132 65.9087 43.3473 65.2394 43.1756V42.0083C65.2394 41.7071 65.1199 41.4182 64.9066 41.2054C64.6938 40.9925 64.4049 40.873 64.1033 40.873H62.7359C62.4347 40.873 62.1458 40.9925 61.933 41.2054C61.7197 41.4182 61.6002 41.7071 61.6002 42.0083V43.1756C60.931 43.3473 60.2896 43.6132 59.6954 43.9657L58.8692 43.1399C58.6563 42.927 58.3675 42.8071 58.0662 42.8071C57.765 42.8071 57.4762 42.927 57.2633 43.1399L56.2956 44.1071C55.8525 44.5507 55.8525 45.2694 56.2956 45.713L57.1215 46.5388ZM59.1777 48.9114C59.2533 48.6733 59.3494 48.4422 59.4643 48.2206C59.8891 47.4008 60.557 46.7324 61.3768 46.3081C61.5984 46.1932 61.8291 46.0971 62.0671 46.022C62.9474 45.7423 63.8922 45.7423 64.7725 46.0216C65.0105 46.0971 65.2413 46.1928 65.4628 46.3081C66.4351 46.8103 67.1886 47.6534 67.5791 48.6761C67.9696 49.6988 67.9696 50.829 67.5791 51.8517C67.1886 52.8743 66.4351 53.7175 65.4628 54.2197C65.2413 54.3346 65.0101 54.4307 64.7725 54.5062C63.7705 54.8258 62.6879 54.78 61.716 54.3771C60.7446 53.9748 59.9467 53.2414 59.4643 52.3067C59.3494 52.0856 59.2532 51.8544 59.1777 51.6168C58.8985 50.7365 58.8985 49.7917 59.1777 48.9114Z" fill="#EABE00"/>
<path d="M78.0173 61.7217C77.5266 60.813 76.3656 60.4386 75.3407 60.5658C74.3236 60.7627 73.3567 61.1618 72.4966 61.7386C66.569 65.1705 60.4509 68.7099 53.654 69.5655C51.7273 69.8081 49.4165 69.6534 48.3563 68.0251C50.0385 67.5517 51.8202 67.6414 53.5601 67.4844C55.301 67.3279 57.1358 66.8536 58.2925 65.5431C59.4493 64.2334 59.5353 61.8942 58.0861 60.9174C57.0671 60.2307 55.7185 60.412 54.5054 60.6015L54.505 60.602C53.2809 60.8322 52.0353 60.927 50.7907 60.8849C49.4284 60.7265 48.0793 60.4697 46.7537 60.1167C42.5446 59.2191 38.1926 59.3834 33.9017 59.8187L33.9022 58.016C33.9017 57.4035 33.6587 56.8163 33.2256 56.3831C32.7926 55.9506 32.2053 55.707 31.5932 55.707H24.0502C23.4377 55.707 22.8509 55.9506 22.4178 56.3831C21.9847 56.8162 21.7412 57.4035 21.7412 58.016V75.9305C21.7412 76.543 21.9843 77.1303 22.4173 77.5634C22.8504 77.9964 23.4377 78.2395 24.0502 78.2395H31.5932C32.2053 78.2395 32.7925 77.9964 33.2256 77.5634C33.6587 77.1303 33.9022 76.543 33.9022 75.9305V75.1518C33.9814 74.8589 34.0107 74.5549 33.9887 74.2523L33.926 73.3798C41.6279 76.7375 50.3909 78.3891 58.444 76.0331C63.0592 74.6818 67.2069 72.0967 71.1764 69.3817C72.6783 68.355 74.1633 67.3053 75.6488 66.2552C76.4471 65.7603 77.1493 65.1245 77.7211 64.3792C78.0017 64.0025 78.1775 63.5576 78.2292 63.0907C78.2809 62.6233 78.2077 62.1509 78.0163 61.7219L78.0173 61.7217ZM27.7579 75.8721C27.0415 75.8721 26.3548 75.5878 25.8486 75.0815C25.3418 74.5752 25.0576 73.8886 25.0576 73.1722C25.0576 72.4562 25.3418 71.7691 25.8481 71.2628C26.3549 70.7566 27.0416 70.4723 27.7575 70.4723C28.4739 70.4723 29.1605 70.7566 29.6668 71.2633C30.1731 71.7696 30.4573 72.4563 30.4573 73.1726C30.4573 73.8886 30.1731 74.5753 29.6668 75.0815C29.1605 75.5878 28.4738 75.8721 27.7579 75.8721Z" fill="#EABE00"/>
</svg>