<svg xmlns="http://www.w3.org/2000/svg" fill="none" viewBox="0 0 80 80">
<rect width="80" height="80" rx="7" fill="#FFF3C3"/>
<path d="M55.5717 55.7746V64.7047L63.4869 56.1623C62.4358 56.393 61.3688 56.5413 60.2949 56.605C58.6855 56.5903 57.0896 56.3098 55.5717 55.7746ZM48.5606 39.6497L39.9999 36.4393L31.4392 39.6497L39.9999 41.845L48.5606 39.6497ZM39.9999 45.5352C39.8525 45.553 39.7042 45.553 39.5568 45.5352L32.6199 43.6904V49.982V49.9815C34.9888 50.8073 37.4932 51.1767 40 51.0701C42.5049 51.2005 45.0112 50.843 47.3801 50.0186V43.6905L40.4427 45.5352C40.2958 45.5531 40.147 45.5531 40.0001 45.5352L39.9999 45.5352ZM56.6054 14.1699H23.3956C20.9493 14.1699 18.6029 15.1418 16.8725 16.8717C15.1426 18.6021 14.1707 20.9485 14.1707 23.3948V25.24H65.8305V23.3948C65.8305 20.9485 64.8587 18.6021 63.1287 16.8717C61.3983 15.1418 59.0524 14.1699 56.6056 14.1699H56.6054ZM25.2401 23.3948C24.581 23.3948 23.9717 23.0432 23.6421 22.4724C23.3125 21.9016 23.3125 21.1985 23.6421 20.6276C23.9716 20.0568 24.5809 19.7048 25.2401 19.7048C25.8994 19.7048 26.5081 20.0568 26.8378 20.6276C27.1674 21.1985 27.1673 21.9016 26.8378 22.4724C26.5082 23.0432 25.8993 23.3948 25.2401 23.3948ZM54.7597 23.3948C54.1005 23.3948 53.4917 23.0432 53.1621 22.4724C52.8325 21.9016 52.8325 21.1985 53.1621 20.6276C53.4916 20.0568 54.1005 19.7048 54.7597 19.7048C55.4189 19.7048 56.0281 20.0568 56.3578 20.6276C56.6874 21.1985 56.6873 21.9016 56.3578 22.4724C56.0282 23.0432 55.4189 23.3948 54.7597 23.3948ZM14.1694 56.6046C14.1694 59.0513 15.1413 61.3973 16.8712 63.1277C18.6016 64.8576 20.948 65.8295 23.3943 65.8295H51.8814V52.9142C51.8759 52.4629 52.0366 52.0257 52.3319 51.6847C52.6276 51.3437 53.0377 51.1226 53.485 51.064C53.9322 51.0049 54.3859 51.1116 54.7594 51.3643C56.4481 52.3311 58.3497 52.8639 60.2946 52.9143C62.1595 52.6973 64.0089 52.3586 65.8294 51.8994V28.9295H14.1696L14.1694 56.6046ZM24.5936 38.3022L39.3534 32.7675V32.767C39.7713 32.6192 40.2272 32.6192 40.6448 32.767L55.4045 38.3018V38.3022C55.9131 38.4794 56.3187 38.8694 56.5151 39.3707C56.7115 39.8719 56.6794 40.434 56.4267 40.9097C56.1745 41.3848 55.7268 41.7263 55.2018 41.8444L51.0686 42.8222V51.0693C51.0718 51.56 50.8791 52.0311 50.5339 52.3795C50.1279 52.7672 47.748 54.7594 39.999 54.7594C32.25 54.7594 29.87 52.7668 29.4641 52.3795C29.1185 52.0311 28.9262 51.5601 28.9289 51.0693V42.8222L24.7957 41.8444C24.2803 41.719 23.8431 41.378 23.5969 40.9078C23.3506 40.4377 23.319 39.8843 23.5095 39.3885C23.7004 38.8932 24.095 38.5041 24.593 38.3205L24.5936 38.3022Z" fill="#EABE00"/>
</svg>