<svg width="681" height="436" viewBox="0 0 681 436" fill="none" xmlns="http://www.w3.org/2000/svg">
<line x1="96" y1="117.25" x2="681" y2="117.25" stroke="#454444"/>
<line x1="96" y1="210.9" x2="681" y2="210.9" stroke="#454444"/>
<line x1="96" y1="322.031" x2="681" y2="322.031" stroke="#454444"/>
<path d="M681 435.223V24.0996L484.179 162.42V435.223H681Z" fill="#B96A4F"/>
<path d="M287.358 300.741V435.223H484.179V162.42L287.358 300.741Z" fill="#516A9B"/>
<path d="M96 435.223H287.358V300.741L96 435.223Z" fill="#FFD966"/>
<line x1="96.1214" y1="398.003" x2="660.949" y2="0.877691" stroke="#454444" stroke-linecap="round" stroke-dasharray="20 20"/>
<path d="M290.51 50.6364V71H286.205V54.723H286.085L281.422 57.6463V53.8281L286.463 50.6364H290.51ZM303.054 71.4474C301.344 71.4408 299.872 71.0199 298.639 70.1847C297.413 69.3494 296.468 68.1397 295.806 66.5554C295.149 64.9711 294.825 63.0653 294.831 60.8381C294.831 58.6174 295.159 56.7249 295.816 55.1605C296.478 53.5961 297.423 52.4062 298.649 51.5909C299.882 50.7689 301.351 50.358 303.054 50.358C304.758 50.358 306.223 50.7689 307.449 51.5909C308.682 52.4129 309.63 53.6061 310.293 55.1705C310.956 56.7282 311.284 58.6174 311.277 60.8381C311.277 63.072 310.946 64.9811 310.283 66.5653C309.627 68.1496 308.685 69.3594 307.459 70.1946C306.233 71.0298 304.764 71.4474 303.054 71.4474ZM303.054 67.8778C304.221 67.8778 305.152 67.2912 305.848 66.1179C306.544 64.9446 306.889 63.1847 306.882 60.8381C306.882 59.2936 306.723 58.0076 306.405 56.9801C306.093 55.9527 305.649 55.1804 305.073 54.6634C304.503 54.1463 303.83 53.8878 303.054 53.8878C301.894 53.8878 300.966 54.4678 300.27 55.6278C299.574 56.7879 299.223 58.5246 299.216 60.8381C299.216 62.4025 299.372 63.7083 299.683 64.7557C300.002 65.7964 300.449 66.5786 301.026 67.1023C301.602 67.6193 302.279 67.8778 303.054 67.8778ZM322.052 71.4474C320.341 71.4408 318.87 71.0199 317.637 70.1847C316.41 69.3494 315.466 68.1397 314.803 66.5554C314.147 64.9711 313.822 63.0653 313.828 60.8381C313.828 58.6174 314.157 56.7249 314.813 55.1605C315.476 53.5961 316.42 52.4062 317.647 51.5909C318.88 50.7689 320.348 50.358 322.052 50.358C323.755 50.358 325.22 50.7689 326.446 51.5909C327.679 52.4129 328.627 53.6061 329.29 55.1705C329.953 56.7282 330.281 58.6174 330.275 60.8381C330.275 63.072 329.943 64.9811 329.28 66.5653C328.624 68.1496 327.683 69.3594 326.456 70.1946C325.23 71.0298 323.762 71.4474 322.052 71.4474ZM322.052 67.8778C323.218 67.8778 324.15 67.2912 324.846 66.1179C325.542 64.9446 325.886 63.1847 325.88 60.8381C325.88 59.2936 325.721 58.0076 325.402 56.9801C325.091 55.9527 324.647 55.1804 324.07 54.6634C323.5 54.1463 322.827 53.8878 322.052 53.8878C320.891 53.8878 319.963 54.4678 319.267 55.6278C318.571 56.7879 318.22 58.5246 318.213 60.8381C318.213 62.4025 318.369 63.7083 318.681 64.7557C318.999 65.7964 319.446 66.5786 320.023 67.1023C320.6 67.6193 321.276 67.8778 322.052 67.8778ZM344.211 67.1818V66.108C344.211 65.2926 344.383 64.5436 344.728 63.8608C345.079 63.1714 345.586 62.6212 346.249 62.2102C346.919 61.7926 347.734 61.5838 348.695 61.5838C349.67 61.5838 350.488 61.7893 351.151 62.2003C351.821 62.6113 352.324 63.1615 352.662 63.8509C353.007 64.5336 353.18 65.286 353.18 66.108V67.1818C353.18 67.9972 353.007 68.7495 352.662 69.4389C352.318 70.1217 351.811 70.6686 351.141 71.0795C350.472 71.4972 349.656 71.706 348.695 71.706C347.721 71.706 346.902 71.4972 346.239 71.0795C345.576 70.6686 345.073 70.1217 344.728 69.4389C344.383 68.7495 344.211 67.9972 344.211 67.1818ZM347.104 66.108V67.1818C347.104 67.6525 347.217 68.0966 347.442 68.5142C347.674 68.9318 348.092 69.1406 348.695 69.1406C349.298 69.1406 349.709 68.9351 349.928 68.5241C350.153 68.1132 350.266 67.6657 350.266 67.1818V66.108C350.266 65.6241 350.16 65.1733 349.948 64.7557C349.736 64.3381 349.318 64.1293 348.695 64.1293C348.099 64.1293 347.684 64.3381 347.452 64.7557C347.22 65.1733 347.104 65.6241 347.104 66.108ZM333.76 55.5284V54.4545C333.76 53.6326 333.936 52.8802 334.287 52.1974C334.639 51.508 335.146 50.9579 335.809 50.5469C336.478 50.1359 337.287 49.9304 338.235 49.9304C339.216 49.9304 340.038 50.1359 340.701 50.5469C341.364 50.9579 341.868 51.508 342.212 52.1974C342.557 52.8802 342.729 53.6326 342.729 54.4545V55.5284C342.729 56.3504 342.554 57.1027 342.202 57.7855C341.858 58.4683 341.35 59.0152 340.681 59.4261C340.018 59.8305 339.203 60.0327 338.235 60.0327C337.267 60.0327 336.448 59.8272 335.779 59.4162C335.116 58.9986 334.612 58.4517 334.268 57.7756C333.93 57.0928 333.76 56.3437 333.76 55.5284ZM336.674 54.4545V55.5284C336.674 56.0123 336.787 56.4598 337.012 56.8707C337.244 57.2817 337.652 57.4872 338.235 57.4872C338.845 57.4872 339.259 57.2817 339.478 56.8707C339.703 56.4598 339.816 56.0123 339.816 55.5284V54.4545C339.816 53.9706 339.71 53.5199 339.498 53.1023C339.286 52.6847 338.865 52.4759 338.235 52.4759C337.645 52.4759 337.237 52.688 337.012 53.1122C336.787 53.5365 336.674 53.9839 336.674 54.4545ZM335.073 71L349.073 50.6364H351.678L337.678 71H335.073ZM363.167 71V50.6364H371.201C372.745 50.6364 374.061 50.9313 375.148 51.5213C376.235 52.1046 377.064 52.9167 377.634 53.9574C378.211 54.9915 378.499 56.1847 378.499 57.5369C378.499 58.8892 378.207 60.0824 377.624 61.1165C377.041 62.1506 376.196 62.956 375.089 63.5327C373.988 64.1094 372.656 64.3977 371.091 64.3977H365.971V60.9474H370.395C371.224 60.9474 371.907 60.8049 372.444 60.5199C372.987 60.2282 373.392 59.8272 373.657 59.3168C373.929 58.7997 374.064 58.2064 374.064 57.5369C374.064 56.8608 373.929 56.2708 373.657 55.767C373.392 55.2566 372.987 54.8622 372.444 54.5838C371.9 54.2988 371.211 54.1562 370.376 54.1562H367.472V71H363.167ZM385.172 50.6364V71H380.936V50.6364H385.172ZM392.64 71.2884C391.666 71.2884 390.797 71.1193 390.035 70.7812C389.273 70.4366 388.669 69.9295 388.225 69.2599C387.788 68.5838 387.569 67.742 387.569 66.7344C387.569 65.8859 387.725 65.1733 388.036 64.5966C388.348 64.0199 388.772 63.5559 389.309 63.2045C389.846 62.8532 390.456 62.5881 391.139 62.4091C391.828 62.2301 392.551 62.1042 393.306 62.0312C394.195 61.9384 394.911 61.8523 395.454 61.7727C395.998 61.6866 396.392 61.5606 396.637 61.3949C396.883 61.2292 397.005 60.9839 397.005 60.6591V60.5994C397.005 59.9697 396.806 59.4825 396.409 59.1378C396.018 58.7931 395.461 58.6207 394.738 58.6207C393.976 58.6207 393.369 58.7898 392.919 59.1278C392.468 59.4593 392.169 59.8769 392.024 60.3807L388.106 60.0625C388.305 59.1345 388.696 58.3324 389.279 57.6562C389.863 56.9735 390.615 56.4498 391.536 56.0852C392.464 55.714 393.538 55.5284 394.758 55.5284C395.607 55.5284 396.419 55.6278 397.194 55.8267C397.976 56.0256 398.669 56.3338 399.272 56.7514C399.882 57.169 400.363 57.706 400.714 58.3622C401.065 59.0118 401.241 59.7907 401.241 60.6989V71H397.224V68.8821H397.105C396.859 69.3594 396.531 69.7803 396.12 70.1449C395.709 70.5028 395.215 70.7846 394.639 70.9901C394.062 71.1889 393.396 71.2884 392.64 71.2884ZM393.853 68.3651C394.476 68.3651 395.027 68.2424 395.504 67.9972C395.981 67.7453 396.356 67.4072 396.627 66.983C396.899 66.5587 397.035 66.0781 397.035 65.5412V63.9205C396.902 64.0066 396.72 64.0862 396.488 64.1591C396.263 64.2254 396.008 64.2884 395.723 64.348C395.437 64.401 395.152 64.4508 394.867 64.4972C394.582 64.5369 394.324 64.5734 394.092 64.6065C393.595 64.6795 393.161 64.7955 392.789 64.9545C392.418 65.1136 392.13 65.3291 391.924 65.6009C391.719 65.866 391.616 66.1974 391.616 66.5952C391.616 67.1719 391.825 67.6127 392.242 67.9176C392.667 68.2159 393.204 68.3651 393.853 68.3651ZM411.148 71.2983C409.583 71.2983 408.238 70.9669 407.111 70.304C405.991 69.6345 405.129 68.7064 404.526 67.5199C403.929 66.3333 403.631 64.9678 403.631 63.4233C403.631 61.8589 403.932 60.4867 404.536 59.3068C405.145 58.1203 406.01 57.1955 407.131 56.5327C408.251 55.8632 409.583 55.5284 411.128 55.5284C412.46 55.5284 413.627 55.7704 414.628 56.2543C415.629 56.7382 416.421 57.4176 417.004 58.2926C417.588 59.1676 417.909 60.1951 417.969 61.375H413.972C413.859 60.6127 413.561 59.9995 413.077 59.5355C412.599 59.0649 411.973 58.8295 411.198 58.8295C410.541 58.8295 409.968 59.0085 409.477 59.3665C408.993 59.7178 408.616 60.2315 408.344 60.9077C408.072 61.5838 407.936 62.4025 407.936 63.3636C407.936 64.3381 408.069 65.1667 408.334 65.8494C408.606 66.5322 408.987 67.0526 409.477 67.4105C409.968 67.7685 410.541 67.9474 411.198 67.9474C411.681 67.9474 412.116 67.848 412.5 67.6491C412.891 67.4503 413.213 67.1619 413.465 66.7841C413.723 66.3996 413.892 65.9389 413.972 65.402H417.969C417.903 66.5687 417.584 67.5961 417.014 68.4844C416.451 69.366 415.672 70.0554 414.678 70.5526C413.683 71.0497 412.507 71.2983 411.148 71.2983ZM427.361 71.2983C425.79 71.2983 424.438 70.9801 423.304 70.3438C422.177 69.7008 421.309 68.7926 420.699 67.6193C420.089 66.4394 419.784 65.044 419.784 63.4332C419.784 61.8622 420.089 60.4834 420.699 59.2969C421.309 58.1103 422.167 57.1856 423.274 56.5227C424.388 55.8598 425.694 55.5284 427.192 55.5284C428.2 55.5284 429.138 55.6908 430.006 56.0156C430.881 56.3338 431.643 56.8144 432.293 57.4574C432.949 58.1004 433.46 58.9091 433.824 59.8835C434.189 60.8513 434.371 61.9848 434.371 63.2841V64.4474H421.475V61.8224H430.384C430.384 61.2126 430.251 60.6723 429.986 60.2017C429.721 59.7311 429.353 59.3632 428.882 59.098C428.418 58.8262 427.878 58.6903 427.262 58.6903C426.619 58.6903 426.049 58.8395 425.551 59.1378C425.061 59.4295 424.676 59.8239 424.398 60.321C424.12 60.8116 423.977 61.3584 423.97 61.9616V64.4574C423.97 65.2131 424.11 65.866 424.388 66.4162C424.673 66.9664 425.074 67.3906 425.591 67.6889C426.108 67.9872 426.721 68.1364 427.431 68.1364C427.901 68.1364 428.332 68.0701 428.723 67.9375C429.114 67.8049 429.449 67.6061 429.728 67.3409C430.006 67.0758 430.218 66.7509 430.364 66.3665L434.281 66.625C434.083 67.5663 433.675 68.3883 433.058 69.0909C432.449 69.7869 431.66 70.3305 430.692 70.7216C429.731 71.1061 428.621 71.2983 427.361 71.2983ZM436.855 71V55.7273H440.892V58.4219H441.071C441.389 57.527 441.92 56.821 442.662 56.304C443.404 55.7869 444.293 55.5284 445.327 55.5284C446.374 55.5284 447.266 55.7902 448.001 56.3139C448.737 56.831 449.228 57.5336 449.473 58.4219H449.632C449.944 57.5469 450.507 56.8475 451.323 56.3239C452.144 55.7936 453.116 55.5284 454.236 55.5284C455.661 55.5284 456.818 55.9825 457.706 56.8906C458.601 57.7921 459.048 59.0715 459.048 60.7287V71H454.823V61.5639C454.823 60.7154 454.597 60.0791 454.146 59.6548C453.696 59.2306 453.132 59.0185 452.456 59.0185C451.687 59.0185 451.087 59.2637 450.656 59.7543C450.225 60.2382 450.01 60.8778 450.01 61.6733V71H445.903V61.4744C445.903 60.7254 445.688 60.1288 445.257 59.6847C444.833 59.2405 444.273 59.0185 443.577 59.0185C443.106 59.0185 442.682 59.1378 442.304 59.3764C441.933 59.6084 441.638 59.9366 441.419 60.3608C441.2 60.7784 441.091 61.2689 441.091 61.8324V71H436.855ZM469.074 71.2983C467.503 71.2983 466.151 70.9801 465.018 70.3438C463.891 69.7008 463.022 68.7926 462.413 67.6193C461.803 66.4394 461.498 65.044 461.498 63.4332C461.498 61.8622 461.803 60.4834 462.413 59.2969C463.022 58.1103 463.881 57.1856 464.988 56.5227C466.101 55.8598 467.407 55.5284 468.905 55.5284C469.913 55.5284 470.851 55.6908 471.719 56.0156C472.594 56.3338 473.357 56.8144 474.006 57.4574C474.663 58.1004 475.173 58.9091 475.538 59.8835C475.902 60.8513 476.084 61.9848 476.084 63.2841V64.4474H463.188V61.8224H472.097C472.097 61.2126 471.965 60.6723 471.699 60.2017C471.434 59.7311 471.066 59.3632 470.596 59.098C470.132 58.8262 469.592 58.6903 468.975 58.6903C468.332 58.6903 467.762 58.8395 467.265 59.1378C466.774 59.4295 466.39 59.8239 466.111 60.321C465.833 60.8116 465.69 61.3584 465.684 61.9616V64.4574C465.684 65.2131 465.823 65.866 466.101 66.4162C466.386 66.9664 466.788 67.3906 467.305 67.6889C467.822 67.9872 468.435 68.1364 469.144 68.1364C469.615 68.1364 470.046 68.0701 470.437 67.9375C470.828 67.8049 471.163 67.6061 471.441 67.3409C471.719 67.0758 471.931 66.7509 472.077 66.3665L475.995 66.625C475.796 67.5663 475.388 68.3883 474.772 69.0909C474.162 69.7869 473.373 70.3305 472.405 70.7216C471.444 71.1061 470.334 71.2983 469.074 71.2983ZM482.804 62.1705V71H478.569V55.7273H482.606V58.4219H482.785C483.123 57.5336 483.689 56.831 484.485 56.3139C485.28 55.7902 486.245 55.5284 487.378 55.5284C488.439 55.5284 489.364 55.7604 490.152 56.2244C490.941 56.6884 491.554 57.3513 491.992 58.2131C492.429 59.0682 492.648 60.089 492.648 61.2756V71H488.412V62.0312C488.419 61.0966 488.18 60.3674 487.696 59.8438C487.213 59.3134 486.546 59.0483 485.698 59.0483C485.128 59.0483 484.624 59.1709 484.187 59.4162C483.756 59.6615 483.418 60.0194 483.172 60.4901C482.934 60.9541 482.811 61.5142 482.804 62.1705ZM503.83 55.7273V58.9091H494.633V55.7273H503.83ZM496.721 52.0682H500.957V66.3068C500.957 66.6979 501.016 67.0028 501.136 67.2216C501.255 67.4337 501.421 67.5829 501.633 67.669C501.851 67.7552 502.103 67.7983 502.388 67.7983C502.587 67.7983 502.786 67.7817 502.985 67.7486C503.184 67.7088 503.336 67.679 503.442 67.6591L504.109 70.8111C503.896 70.8774 503.598 70.9536 503.214 71.0398C502.829 71.1326 502.362 71.1889 501.812 71.2088C500.791 71.2486 499.896 71.1127 499.127 70.8011C498.365 70.4896 497.771 70.0057 497.347 69.3494C496.923 68.6932 496.714 67.8646 496.721 66.8636V52.0682Z" fill="#3E3E3E"/>
<path d="M158.247 177.278C156.716 177.278 155.354 177.03 154.161 176.533C152.974 176.029 152.043 175.343 151.366 174.474C150.69 173.606 150.352 172.622 150.352 171.521C150.352 170.673 150.545 169.894 150.929 169.185C151.32 168.469 151.85 167.875 152.52 167.405C153.189 166.928 153.938 166.623 154.767 166.49V166.351C153.68 166.132 152.798 165.605 152.122 164.77C151.446 163.928 151.108 162.95 151.108 161.837C151.108 160.783 151.416 159.845 152.033 159.023C152.649 158.194 153.494 157.545 154.568 157.074C155.649 156.597 156.875 156.358 158.247 156.358C159.619 156.358 160.842 156.597 161.916 157.074C162.997 157.551 163.845 158.204 164.462 159.033C165.078 159.855 165.39 160.789 165.396 161.837C165.39 162.957 165.045 163.935 164.362 164.77C163.679 165.605 162.804 166.132 161.737 166.351V166.49C162.553 166.623 163.292 166.928 163.955 167.405C164.624 167.875 165.154 168.469 165.545 169.185C165.943 169.894 166.145 170.673 166.152 171.521C166.145 172.622 165.804 173.606 165.128 174.474C164.452 175.343 163.517 176.029 162.324 176.533C161.137 177.03 159.778 177.278 158.247 177.278ZM158.247 174.116C158.93 174.116 159.527 173.994 160.037 173.749C160.547 173.497 160.945 173.152 161.23 172.714C161.522 172.27 161.668 171.76 161.668 171.183C161.668 170.593 161.518 170.073 161.22 169.622C160.922 169.165 160.518 168.807 160.007 168.548C159.497 168.283 158.91 168.151 158.247 168.151C157.591 168.151 157.004 168.283 156.487 168.548C155.97 168.807 155.563 169.165 155.264 169.622C154.973 170.073 154.827 170.593 154.827 171.183C154.827 171.76 154.969 172.27 155.254 172.714C155.539 173.152 155.94 173.497 156.457 173.749C156.974 173.994 157.571 174.116 158.247 174.116ZM158.247 165.018C158.817 165.018 159.324 164.902 159.768 164.67C160.213 164.438 160.561 164.117 160.812 163.706C161.064 163.295 161.19 162.821 161.19 162.284C161.19 161.754 161.064 161.29 160.812 160.892C160.561 160.488 160.216 160.173 159.778 159.947C159.341 159.715 158.83 159.599 158.247 159.599C157.67 159.599 157.16 159.715 156.716 159.947C156.272 160.173 155.924 160.488 155.672 160.892C155.427 161.29 155.304 161.754 155.304 162.284C155.304 162.821 155.43 163.295 155.682 163.706C155.934 164.117 156.282 164.438 156.726 164.67C157.17 164.902 157.677 165.018 158.247 165.018ZM176.409 177.278C174.924 177.278 173.602 177.023 172.442 176.513C171.289 175.996 170.377 175.286 169.708 174.385C169.045 173.477 168.703 172.429 168.683 171.243H173.019C173.045 171.74 173.208 172.178 173.506 172.555C173.811 172.927 174.215 173.215 174.719 173.42C175.223 173.626 175.789 173.729 176.419 173.729C177.075 173.729 177.655 173.613 178.159 173.381C178.663 173.149 179.057 172.827 179.343 172.416C179.628 172.005 179.77 171.531 179.77 170.994C179.77 170.451 179.618 169.97 179.313 169.553C179.014 169.128 178.584 168.797 178.02 168.558C177.463 168.32 176.8 168.2 176.031 168.2H174.132V165.038H176.031C176.681 165.038 177.254 164.926 177.752 164.7C178.255 164.475 178.646 164.163 178.925 163.766C179.203 163.361 179.343 162.891 179.343 162.354C179.343 161.843 179.22 161.396 178.975 161.011C178.736 160.62 178.398 160.315 177.96 160.097C177.53 159.878 177.026 159.768 176.449 159.768C175.866 159.768 175.332 159.875 174.848 160.087C174.364 160.292 173.977 160.587 173.685 160.972C173.393 161.356 173.237 161.807 173.218 162.324H169.091C169.111 161.151 169.446 160.116 170.095 159.222C170.745 158.327 171.62 157.627 172.72 157.124C173.827 156.613 175.077 156.358 176.469 156.358C177.874 156.358 179.104 156.613 180.158 157.124C181.212 157.634 182.03 158.323 182.614 159.192C183.204 160.054 183.495 161.021 183.489 162.095C183.495 163.235 183.141 164.187 182.425 164.949C181.716 165.711 180.791 166.195 179.651 166.401V166.56C181.149 166.752 182.289 167.272 183.071 168.121C183.86 168.963 184.251 170.017 184.245 171.283C184.251 172.443 183.916 173.473 183.24 174.375C182.571 175.277 181.646 175.986 180.466 176.503C179.286 177.02 177.934 177.278 176.409 177.278ZM198.206 173.182V172.108C198.206 171.293 198.378 170.544 198.723 169.861C199.074 169.171 199.581 168.621 200.244 168.21C200.913 167.793 201.729 167.584 202.69 167.584C203.664 167.584 204.483 167.789 205.146 168.2C205.815 168.611 206.319 169.161 206.657 169.851C207.002 170.534 207.174 171.286 207.174 172.108V173.182C207.174 173.997 207.002 174.75 206.657 175.439C206.313 176.122 205.806 176.669 205.136 177.08C204.467 177.497 203.651 177.706 202.69 177.706C201.716 177.706 200.897 177.497 200.234 177.08C199.571 176.669 199.067 176.122 198.723 175.439C198.378 174.75 198.206 173.997 198.206 173.182ZM201.099 172.108V173.182C201.099 173.652 201.212 174.097 201.437 174.514C201.669 174.932 202.087 175.141 202.69 175.141C203.293 175.141 203.704 174.935 203.923 174.524C204.148 174.113 204.261 173.666 204.261 173.182V172.108C204.261 171.624 204.155 171.173 203.943 170.756C203.731 170.338 203.313 170.129 202.69 170.129C202.093 170.129 201.679 170.338 201.447 170.756C201.215 171.173 201.099 171.624 201.099 172.108ZM187.755 161.528V160.455C187.755 159.633 187.931 158.88 188.282 158.197C188.634 157.508 189.141 156.958 189.804 156.547C190.473 156.136 191.282 155.93 192.23 155.93C193.211 155.93 194.033 156.136 194.696 156.547C195.359 156.958 195.862 157.508 196.207 158.197C196.552 158.88 196.724 159.633 196.724 160.455V161.528C196.724 162.35 196.548 163.103 196.197 163.786C195.852 164.468 195.345 165.015 194.676 165.426C194.013 165.83 193.198 166.033 192.23 166.033C191.262 166.033 190.443 165.827 189.774 165.416C189.111 164.999 188.607 164.452 188.262 163.776C187.924 163.093 187.755 162.344 187.755 161.528ZM190.669 160.455V161.528C190.669 162.012 190.781 162.46 191.007 162.871C191.239 163.282 191.646 163.487 192.23 163.487C192.84 163.487 193.254 163.282 193.473 162.871C193.698 162.46 193.811 162.012 193.811 161.528V160.455C193.811 159.971 193.705 159.52 193.493 159.102C193.28 158.685 192.86 158.476 192.23 158.476C191.64 158.476 191.232 158.688 191.007 159.112C190.781 159.536 190.669 159.984 190.669 160.455ZM189.068 177L203.068 156.636H205.673L191.673 177H189.068ZM217.162 177V156.636H225.196C226.74 156.636 228.056 156.931 229.143 157.521C230.23 158.105 231.059 158.917 231.629 159.957C232.206 160.991 232.494 162.185 232.494 163.537C232.494 164.889 232.202 166.082 231.619 167.116C231.036 168.151 230.19 168.956 229.083 169.533C227.983 170.109 226.651 170.398 225.086 170.398H219.966V166.947H224.39C225.219 166.947 225.902 166.805 226.439 166.52C226.982 166.228 227.387 165.827 227.652 165.317C227.923 164.8 228.059 164.206 228.059 163.537C228.059 162.861 227.923 162.271 227.652 161.767C227.387 161.257 226.982 160.862 226.439 160.584C225.895 160.299 225.206 160.156 224.37 160.156H221.467V177H217.162ZM239.167 156.636V177H234.931V156.636H239.167ZM246.635 177.288C245.661 177.288 244.792 177.119 244.03 176.781C243.268 176.437 242.664 175.929 242.22 175.26C241.783 174.584 241.564 173.742 241.564 172.734C241.564 171.886 241.72 171.173 242.031 170.597C242.343 170.02 242.767 169.556 243.304 169.205C243.841 168.853 244.451 168.588 245.134 168.409C245.823 168.23 246.545 168.104 247.301 168.031C248.189 167.938 248.905 167.852 249.449 167.773C249.992 167.687 250.387 167.561 250.632 167.395C250.877 167.229 251 166.984 251 166.659V166.599C251 165.97 250.801 165.482 250.403 165.138C250.012 164.793 249.456 164.621 248.733 164.621C247.971 164.621 247.364 164.79 246.913 165.128C246.463 165.459 246.164 165.877 246.019 166.381L242.101 166.062C242.3 165.134 242.691 164.332 243.274 163.656C243.858 162.973 244.61 162.45 245.531 162.085C246.459 161.714 247.533 161.528 248.753 161.528C249.601 161.528 250.413 161.628 251.189 161.827C251.971 162.026 252.664 162.334 253.267 162.751C253.877 163.169 254.358 163.706 254.709 164.362C255.06 165.012 255.236 165.791 255.236 166.699V177H251.219V174.882H251.099C250.854 175.359 250.526 175.78 250.115 176.145C249.704 176.503 249.21 176.785 248.634 176.99C248.057 177.189 247.391 177.288 246.635 177.288ZM247.848 174.365C248.471 174.365 249.021 174.242 249.499 173.997C249.976 173.745 250.35 173.407 250.622 172.983C250.894 172.559 251.03 172.078 251.03 171.541V169.92C250.897 170.007 250.715 170.086 250.483 170.159C250.258 170.225 250.002 170.288 249.717 170.348C249.432 170.401 249.147 170.451 248.862 170.497C248.577 170.537 248.319 170.573 248.087 170.607C247.59 170.679 247.155 170.795 246.784 170.955C246.413 171.114 246.125 171.329 245.919 171.601C245.714 171.866 245.611 172.197 245.611 172.595C245.611 173.172 245.82 173.613 246.237 173.918C246.662 174.216 247.198 174.365 247.848 174.365ZM265.143 177.298C263.578 177.298 262.233 176.967 261.106 176.304C259.985 175.634 259.124 174.706 258.52 173.52C257.924 172.333 257.626 170.968 257.626 169.423C257.626 167.859 257.927 166.487 258.53 165.307C259.14 164.12 260.005 163.196 261.126 162.533C262.246 161.863 263.578 161.528 265.123 161.528C266.455 161.528 267.622 161.77 268.623 162.254C269.624 162.738 270.416 163.418 270.999 164.293C271.582 165.168 271.904 166.195 271.964 167.375H267.966C267.854 166.613 267.556 166 267.072 165.536C266.594 165.065 265.968 164.83 265.192 164.83C264.536 164.83 263.963 165.009 263.472 165.366C262.988 165.718 262.61 166.232 262.339 166.908C262.067 167.584 261.931 168.402 261.931 169.364C261.931 170.338 262.064 171.167 262.329 171.849C262.6 172.532 262.982 173.053 263.472 173.411C263.963 173.768 264.536 173.947 265.192 173.947C265.676 173.947 266.11 173.848 266.495 173.649C266.886 173.45 267.207 173.162 267.459 172.784C267.718 172.4 267.887 171.939 267.966 171.402H271.964C271.897 172.569 271.579 173.596 271.009 174.484C270.446 175.366 269.667 176.055 268.672 176.553C267.678 177.05 266.502 177.298 265.143 177.298ZM281.356 177.298C279.785 177.298 278.433 176.98 277.299 176.344C276.172 175.701 275.304 174.793 274.694 173.619C274.084 172.439 273.779 171.044 273.779 169.433C273.779 167.862 274.084 166.483 274.694 165.297C275.304 164.11 276.162 163.186 277.269 162.523C278.383 161.86 279.689 161.528 281.187 161.528C282.194 161.528 283.132 161.691 284.001 162.016C284.876 162.334 285.638 162.814 286.288 163.457C286.944 164.1 287.454 164.909 287.819 165.884C288.184 166.851 288.366 167.985 288.366 169.284V170.447H275.47V167.822H284.379C284.379 167.213 284.246 166.672 283.981 166.202C283.716 165.731 283.348 165.363 282.877 165.098C282.413 164.826 281.873 164.69 281.256 164.69C280.613 164.69 280.043 164.839 279.546 165.138C279.056 165.429 278.671 165.824 278.393 166.321C278.114 166.812 277.972 167.358 277.965 167.962V170.457C277.965 171.213 278.104 171.866 278.383 172.416C278.668 172.966 279.069 173.391 279.586 173.689C280.103 173.987 280.716 174.136 281.425 174.136C281.896 174.136 282.327 174.07 282.718 173.938C283.109 173.805 283.444 173.606 283.722 173.341C284.001 173.076 284.213 172.751 284.359 172.366L288.276 172.625C288.077 173.566 287.67 174.388 287.053 175.091C286.443 175.787 285.655 176.33 284.687 176.722C283.726 177.106 282.615 177.298 281.356 177.298ZM290.85 177V161.727H294.887V164.422H295.066C295.384 163.527 295.914 162.821 296.657 162.304C297.399 161.787 298.288 161.528 299.322 161.528C300.369 161.528 301.261 161.79 301.996 162.314C302.732 162.831 303.223 163.534 303.468 164.422H303.627C303.939 163.547 304.502 162.848 305.317 162.324C306.139 161.794 307.11 161.528 308.231 161.528C309.656 161.528 310.813 161.982 311.701 162.891C312.596 163.792 313.043 165.071 313.043 166.729V177H308.817V167.564C308.817 166.715 308.592 166.079 308.141 165.655C307.69 165.231 307.127 165.018 306.451 165.018C305.682 165.018 305.082 165.264 304.651 165.754C304.22 166.238 304.005 166.878 304.005 167.673V177H299.898V167.474C299.898 166.725 299.683 166.129 299.252 165.685C298.828 165.241 298.268 165.018 297.572 165.018C297.101 165.018 296.677 165.138 296.299 165.376C295.928 165.608 295.633 165.937 295.414 166.361C295.195 166.778 295.086 167.269 295.086 167.832V177H290.85ZM323.069 177.298C321.498 177.298 320.146 176.98 319.012 176.344C317.886 175.701 317.017 174.793 316.407 173.619C315.798 172.439 315.493 171.044 315.493 169.433C315.493 167.862 315.798 166.483 316.407 165.297C317.017 164.11 317.876 163.186 318.983 162.523C320.096 161.86 321.402 161.528 322.9 161.528C323.908 161.528 324.846 161.691 325.714 162.016C326.589 162.334 327.352 162.814 328.001 163.457C328.657 164.1 329.168 164.909 329.532 165.884C329.897 166.851 330.079 167.985 330.079 169.284V170.447H317.183V167.822H326.092C326.092 167.213 325.959 166.672 325.694 166.202C325.429 165.731 325.061 165.363 324.591 165.098C324.127 164.826 323.586 164.69 322.97 164.69C322.327 164.69 321.757 164.839 321.26 165.138C320.769 165.429 320.385 165.824 320.106 166.321C319.828 166.812 319.685 167.358 319.679 167.962V170.457C319.679 171.213 319.818 171.866 320.096 172.416C320.381 172.966 320.782 173.391 321.299 173.689C321.816 173.987 322.43 174.136 323.139 174.136C323.61 174.136 324.04 174.07 324.432 173.938C324.823 173.805 325.157 173.606 325.436 173.341C325.714 173.076 325.926 172.751 326.072 172.366L329.99 172.625C329.791 173.566 329.383 174.388 328.767 175.091C328.157 175.787 327.368 176.33 326.4 176.722C325.439 177.106 324.329 177.298 323.069 177.298ZM336.799 168.17V177H332.563V161.727H336.6V164.422H336.779C337.117 163.534 337.684 162.831 338.48 162.314C339.275 161.79 340.24 161.528 341.373 161.528C342.434 161.528 343.358 161.76 344.147 162.224C344.936 162.688 345.549 163.351 345.987 164.213C346.424 165.068 346.643 166.089 346.643 167.276V177H342.407V168.031C342.414 167.097 342.175 166.367 341.691 165.844C341.207 165.313 340.541 165.048 339.693 165.048C339.123 165.048 338.619 165.171 338.181 165.416C337.75 165.661 337.412 166.019 337.167 166.49C336.929 166.954 336.806 167.514 336.799 168.17ZM357.825 161.727V164.909H348.628V161.727H357.825ZM350.716 158.068H354.951V172.307C354.951 172.698 355.011 173.003 355.13 173.222C355.25 173.434 355.415 173.583 355.628 173.669C355.846 173.755 356.098 173.798 356.383 173.798C356.582 173.798 356.781 173.782 356.98 173.749C357.179 173.709 357.331 173.679 357.437 173.659L358.103 176.811C357.891 176.877 357.593 176.954 357.209 177.04C356.824 177.133 356.357 177.189 355.807 177.209C354.786 177.249 353.891 177.113 353.122 176.801C352.36 176.49 351.766 176.006 351.342 175.349C350.918 174.693 350.709 173.865 350.716 172.864V158.068Z" fill="#3E3E3E"/>
<path d="M6.07528 262.636V283H1.76989V262.636H6.07528ZM13.4938 274.17V283H9.258V267.727H13.2949V270.422H13.4739C13.812 269.534 14.3787 268.831 15.1742 268.314C15.9696 267.79 16.9341 267.528 18.0677 267.528C19.1283 267.528 20.053 267.76 20.8418 268.224C21.6306 268.688 22.2438 269.351 22.6813 270.213C23.1188 271.068 23.3375 272.089 23.3375 273.276V283H19.1017V274.031C19.1084 273.097 18.8697 272.367 18.3858 271.844C17.9019 271.313 17.2357 271.048 16.3873 271.048C15.8172 271.048 15.3134 271.171 14.8759 271.416C14.445 271.661 14.107 272.019 13.8617 272.49C13.6231 272.954 13.5004 273.514 13.4938 274.17ZM34.5195 267.727V270.909H25.3221V267.727H34.5195ZM27.4102 264.068H31.646V278.307C31.646 278.698 31.7056 279.003 31.8249 279.222C31.9443 279.434 32.11 279.583 32.3221 279.669C32.5409 279.755 32.7927 279.798 33.0778 279.798C33.2766 279.798 33.4755 279.782 33.6744 279.749C33.8732 279.709 34.0257 279.679 34.1318 279.659L34.798 282.811C34.5858 282.877 34.2875 282.954 33.9031 283.04C33.5186 283.133 33.0513 283.189 32.5011 283.209C31.4802 283.249 30.5854 283.113 29.8164 282.801C29.0541 282.49 28.4608 282.006 28.0366 281.349C27.6123 280.693 27.4035 279.865 27.4102 278.864V264.068ZM43.7949 283.298C42.2239 283.298 40.8716 282.98 39.7381 282.344C38.6112 281.701 37.7429 280.793 37.133 279.619C36.5232 278.439 36.2182 277.044 36.2182 275.433C36.2182 273.862 36.5232 272.483 37.133 271.297C37.7429 270.11 38.6013 269.186 39.7083 268.523C40.8219 267.86 42.1278 267.528 43.6259 267.528C44.6335 267.528 45.5715 267.691 46.4398 268.016C47.3148 268.334 48.0771 268.814 48.7268 269.457C49.383 270.1 49.8934 270.909 50.258 271.884C50.6226 272.851 50.8049 273.985 50.8049 275.284V276.447H37.9086V273.822H46.8177C46.8177 273.213 46.6851 272.672 46.4199 272.202C46.1548 271.731 45.7869 271.363 45.3162 271.098C44.8522 270.826 44.312 270.69 43.6955 270.69C43.0525 270.69 42.4824 270.839 41.9853 271.138C41.4948 271.429 41.1103 271.824 40.8319 272.321C40.5535 272.812 40.4109 273.358 40.4043 273.962V276.457C40.4043 277.213 40.5435 277.866 40.8219 278.416C41.107 278.966 41.508 279.391 42.0251 279.689C42.5421 279.987 43.1553 280.136 43.8645 280.136C44.3352 280.136 44.7661 280.07 45.1572 279.938C45.5483 279.805 45.883 279.606 46.1614 279.341C46.4398 279.076 46.652 278.751 46.7978 278.366L50.7154 278.625C50.5165 279.566 50.1089 280.388 49.4924 281.091C48.8825 281.787 48.0937 282.33 47.1259 282.722C46.1647 283.106 45.0544 283.298 43.7949 283.298ZM53.2891 283V267.727H57.3956V270.392H57.5547C57.8331 269.444 58.3005 268.728 58.9567 268.244C59.613 267.754 60.3686 267.509 61.2238 267.509C61.4359 267.509 61.6646 267.522 61.9098 267.548C62.1551 267.575 62.3705 267.611 62.5561 267.658V271.416C62.3573 271.357 62.0822 271.304 61.7309 271.257C61.3795 271.211 61.058 271.188 60.7664 271.188C60.1433 271.188 59.5864 271.323 59.0959 271.595C58.612 271.86 58.2275 272.232 57.9425 272.709C57.6641 273.186 57.5249 273.736 57.5249 274.359V283H53.2891ZM79.1696 267.727L73.8301 283H69.0574L63.7179 267.727H68.1923L71.3642 278.655H71.5233L74.6852 267.727H79.1696ZM81.0572 283V267.727H85.293V283H81.0572ZM83.1851 265.759C82.5553 265.759 82.0151 265.55 81.5643 265.132C81.1202 264.708 80.8981 264.201 80.8981 263.611C80.8981 263.027 81.1202 262.527 81.5643 262.109C82.0151 261.685 82.5553 261.473 83.1851 261.473C83.8148 261.473 84.3517 261.685 84.7959 262.109C85.2466 262.527 85.472 263.027 85.472 263.611C85.472 264.201 85.2466 264.708 84.7959 265.132C84.3517 265.55 83.8148 265.759 83.1851 265.759ZM95.3664 283.298C93.7953 283.298 92.4431 282.98 91.3095 282.344C90.1826 281.701 89.3143 280.793 88.7044 279.619C88.0946 278.439 87.7896 277.044 87.7896 275.433C87.7896 273.862 88.0946 272.483 88.7044 271.297C89.3143 270.11 90.1727 269.186 91.2797 268.523C92.3933 267.86 93.6992 267.528 95.1973 267.528C96.2049 267.528 97.1429 267.691 98.0112 268.016C98.8862 268.334 99.6485 268.814 100.298 269.457C100.954 270.1 101.465 270.909 101.829 271.884C102.194 272.851 102.376 273.985 102.376 275.284V276.447H89.48V273.822H98.3891C98.3891 273.213 98.2565 272.672 97.9914 272.202C97.7262 271.731 97.3583 271.363 96.8877 271.098C96.4236 270.826 95.8834 270.69 95.2669 270.69C94.6239 270.69 94.0539 270.839 93.5567 271.138C93.0662 271.429 92.6817 271.824 92.4033 272.321C92.1249 272.812 91.9824 273.358 91.9757 273.962V276.457C91.9757 277.213 92.1149 277.866 92.3933 278.416C92.6784 278.966 93.0794 279.391 93.5965 279.689C94.1135 279.987 94.7267 280.136 95.436 280.136C95.9066 280.136 96.3375 280.07 96.7286 279.938C97.1197 279.805 97.4544 279.606 97.7328 279.341C98.0112 279.076 98.2234 278.751 98.3692 278.366L102.287 278.625C102.088 279.566 101.68 280.388 101.064 281.091C100.454 281.787 99.6651 282.33 98.6973 282.722C97.7361 283.106 96.6258 283.298 95.3664 283.298ZM107.764 283L103.608 267.727H107.893L110.26 277.989H110.399L112.865 267.727H117.071L119.576 277.929H119.706L122.032 267.727H126.308L122.162 283H117.677L115.052 273.395H114.863L112.238 283H107.764ZM134.568 283V262.636H142.602C144.146 262.636 145.462 262.931 146.549 263.521C147.636 264.105 148.465 264.917 149.035 265.957C149.612 266.991 149.9 268.185 149.9 269.537C149.9 270.889 149.608 272.082 149.025 273.116C148.442 274.151 147.596 274.956 146.489 275.533C145.389 276.109 144.057 276.398 142.492 276.398H137.372V272.947H141.796C142.625 272.947 143.308 272.805 143.845 272.52C144.388 272.228 144.792 271.827 145.058 271.317C145.329 270.8 145.465 270.206 145.465 269.537C145.465 268.861 145.329 268.271 145.058 267.767C144.792 267.257 144.388 266.862 143.845 266.584C143.301 266.299 142.612 266.156 141.776 266.156H138.873V283H134.568ZM152.337 283V267.727H156.443V270.392H156.603C156.881 269.444 157.348 268.728 158.005 268.244C158.661 267.754 159.416 267.509 160.272 267.509C160.484 267.509 160.712 267.522 160.958 267.548C161.203 267.575 161.418 267.611 161.604 267.658V271.416C161.405 271.357 161.13 271.304 160.779 271.257C160.427 271.211 160.106 271.188 159.814 271.188C159.191 271.188 158.634 271.323 158.144 271.595C157.66 271.86 157.275 272.232 156.99 272.709C156.712 273.186 156.573 273.736 156.573 274.359V283H152.337ZM169.763 283.298C168.192 283.298 166.84 282.98 165.706 282.344C164.58 281.701 163.711 280.793 163.101 279.619C162.491 278.439 162.187 277.044 162.187 275.433C162.187 273.862 162.491 272.483 163.101 271.297C163.711 270.11 164.57 269.186 165.677 268.523C166.79 267.86 168.096 267.528 169.594 267.528C170.602 267.528 171.54 267.691 172.408 268.016C173.283 268.334 174.045 268.814 174.695 269.457C175.351 270.1 175.862 270.909 176.226 271.884C176.591 272.851 176.773 273.985 176.773 275.284V276.447H163.877V273.822H172.786C172.786 273.213 172.653 272.672 172.388 272.202C172.123 271.731 171.755 271.363 171.285 271.098C170.821 270.826 170.28 270.69 169.664 270.69C169.021 270.69 168.451 270.839 167.954 271.138C167.463 271.429 167.079 271.824 166.8 272.321C166.522 272.812 166.379 273.358 166.373 273.962V276.457C166.373 277.213 166.512 277.866 166.79 278.416C167.075 278.966 167.476 279.391 167.993 279.689C168.51 279.987 169.124 280.136 169.833 280.136C170.303 280.136 170.734 280.07 171.125 279.938C171.517 279.805 171.851 279.606 172.13 279.341C172.408 279.076 172.62 278.751 172.766 278.366L176.684 278.625C176.485 279.566 176.077 280.388 175.461 281.091C174.851 281.787 174.062 282.33 173.094 282.722C172.133 283.106 171.023 283.298 169.763 283.298ZM179.257 288.727V267.727H183.434V270.293H183.622C183.808 269.882 184.077 269.464 184.428 269.04C184.786 268.609 185.25 268.251 185.82 267.966C186.397 267.674 187.112 267.528 187.968 267.528C189.081 267.528 190.109 267.82 191.05 268.403C191.991 268.98 192.744 269.852 193.307 271.018C193.871 272.179 194.152 273.634 194.152 275.384C194.152 277.087 193.877 278.526 193.327 279.699C192.783 280.866 192.041 281.75 191.1 282.354C190.165 282.95 189.118 283.249 187.958 283.249C187.136 283.249 186.436 283.113 185.86 282.841C185.29 282.569 184.822 282.228 184.458 281.817C184.093 281.399 183.815 280.978 183.622 280.554H183.493V288.727H179.257ZM183.404 275.364C183.404 276.272 183.53 277.064 183.782 277.74C184.033 278.416 184.398 278.943 184.875 279.321C185.353 279.692 185.933 279.878 186.615 279.878C187.305 279.878 187.888 279.689 188.365 279.311C188.843 278.927 189.204 278.396 189.449 277.72C189.701 277.037 189.827 276.252 189.827 275.364C189.827 274.482 189.704 273.706 189.459 273.037C189.214 272.367 188.853 271.844 188.375 271.466C187.898 271.088 187.311 270.899 186.615 270.899C185.926 270.899 185.343 271.081 184.865 271.446C184.395 271.811 184.033 272.328 183.782 272.997C183.53 273.667 183.404 274.455 183.404 275.364Z" fill="#3E3E3E"/>
</svg>
