<svg width="18" height="18" viewBox="0 0 18 18" fill="none" xmlns="http://www.w3.org/2000/svg">
<path d="M9 12C8.5875 12 8.2345 11.8533 7.941 11.5598C7.6475 11.2663 7.5005 10.913 7.5 10.5C7.4995 10.087 7.6465 9.734 7.941 9.441C8.2355 9.148 8.5885 9.001 9 9C9.4115 8.999 9.76475 9.146 10.0598 9.441C10.3548 9.736 10.5015 10.089 10.5 10.5C10.4985 10.911 10.3518 11.2643 10.0598 11.5598C9.76775 11.8553 9.4145 12.002 9 12ZM5.53125 5.25H12.4688L13.9688 2.25H4.03125L5.53125 5.25ZM6.3 15.75H11.7C12.825 15.75 13.7812 15.3595 14.5687 14.5785C15.3562 13.7975 15.75 12.838 15.75 11.7C15.75 11.225 15.6687 10.7625 15.5062 10.3125C15.3437 9.8625 15.1125 9.45625 14.8125 9.09375L12.8625 6.75H5.1375L3.1875 9.09375C2.8875 9.45625 2.65625 9.8625 2.49375 10.3125C2.33125 10.7625 2.25 11.225 2.25 11.7C2.25 12.8375 2.64075 13.797 3.42225 14.5785C4.20375 15.36 5.163 15.7505 6.3 15.75Z" fill="#3e3e3e"/>
</svg>
