<svg xmlns="http://www.w3.org/2000/svg" fill="none" viewBox="0 0 100 100">
<rect width="100" height="100" rx="50" fill="#FFF3C3"/>
<g clip-path="url(#clip0_706_1524)">
<mask id="mask0_706_1524" style="mask-type:luminance" maskUnits="userSpaceOnUse" x="10" y="34" width="80" height="32">
<path d="M90 34H10V66H90V34Z" fill="white"/>
</mask>
<g mask="url(#mask0_706_1524)">
<path d="M10 63.7734H25.5546V65.9937H10V63.7734Z" fill="#EABE00"/>
<path d="M10 59.5117H25.5546V61.7398H10V59.5117Z" fill="#EABE00"/>
<path d="M14.4375 55.2617H21.1094V57.4899H14.4375V55.2617Z" fill="#EABE00"/>
<path d="M14.4375 51.0117H21.1094V53.2399H14.4375V51.0117Z" fill="#EABE00"/>
<path d="M14.4375 46.7617H21.1094V48.9899H14.4375V46.7617Z" fill="#EABE00"/>
<path d="M14.4375 42.5H21.1094V44.7282H14.4375V42.5Z" fill="#EABE00"/>
<path d="M25.5546 38.25H10V40.4782H25.5546V38.25Z" fill="#EABE00"/>
<path d="M25.5546 34H10V36.2282H25.5546V34Z" fill="#EABE00"/>
<path d="M27.7734 61.7399H51.6958C52.0999 61.0525 52.4009 60.3019 52.5833 59.5117H27.7734V61.7399Z" fill="#EABE00"/>
<path d="M49.8336 51.0117H32.2188V53.2399H51.6958C51.1886 52.3865 50.5626 51.6359 49.8336 51.0117Z" fill="#EABE00"/>
<path d="M32.2188 46.7617V48.9899H49.8336C50.5785 48.3657 51.2044 47.615 51.6958 46.7617H32.2188Z" fill="#EABE00"/>
<path d="M51.6958 38.25H27.7734V40.4782H52.5833C52.3773 39.688 52.0762 38.9375 51.6958 38.25Z" fill="#EABE00"/>
<path d="M44.3424 34H27.7734V36.2282H50.0555C48.5658 34.8533 46.5453 34 44.3424 34Z" fill="#EABE00"/>
<path d="M38.8828 42.5H32.2188V44.7282H38.8828V42.5Z" fill="#EABE00"/>
<path d="M45.5547 44.7282H52.5277C52.7258 44.0171 52.8289 43.2665 52.8289 42.5H45.5547V44.7282Z" fill="#EABE00"/>
<path d="M32.2188 55.2617H38.8828V57.4899H32.2188V55.2617Z" fill="#EABE00"/>
<path d="M45.5547 55.2617V57.4899H52.8289C52.8289 56.7235 52.7258 55.9729 52.5277 55.2617H45.5547Z" fill="#EABE00"/>
<path d="M27.7734 65.9779L44.3424 66.0016C46.5611 66.0016 48.5658 65.1483 50.0634 63.7734H27.7734V65.9779Z" fill="#EABE00"/>
<path d="M54.4453 63.7734H65.5546V65.9937H54.4453V63.7734Z" fill="#EABE00"/>
<path d="M54.4453 59.5117H65.5546V61.7398H54.4453V59.5117Z" fill="#EABE00"/>
<path d="M58.8828 55.2617H65.5547V57.4899H58.8828V55.2617Z" fill="#EABE00"/>
<path d="M58.8828 51.0117H65.5547V53.2399H58.8828V51.0117Z" fill="#EABE00"/>
<path d="M68.645 38.25H54.4453V40.4782H69.4136L68.645 38.25Z" fill="#EABE00"/>
<path d="M67.1711 34H54.4453V36.2282H67.9397L67.1711 34Z" fill="#EABE00"/>
<path d="M78.8828 63.7734H90.0002V65.9937H78.8828V63.7734Z" fill="#EABE00"/>
<path d="M78.8828 59.5117H90.0002V61.7398H78.8828V59.5117Z" fill="#EABE00"/>
<path d="M78.8828 55.2617H85.5546V57.4899H78.8828V55.2617Z" fill="#EABE00"/>
<path d="M78.8828 51.0117H85.5546V53.2399H78.8828V51.0117Z" fill="#EABE00"/>
<path d="M78.8827 48.9899H85.5545V46.7617H78.8827H72.8448L72.2188 48.5633L71.5928 46.7617H65.5547H58.8828V48.9899H65.5547V46.9435L66.26 48.9899H78.178L78.8827 46.9435V48.9899Z" fill="#EABE00"/>
<path d="M85.5542 42.5H74.3184L73.5498 44.7282H85.5542V42.5Z" fill="#EABE00"/>
<path d="M77.2741 34L76.5059 36.2282H90.0001V34H77.2741Z" fill="#EABE00"/>
<path d="M72.2189 65.9779L72.9875 63.7734H71.4502L72.2189 65.9779Z" fill="#EABE00"/>
<path d="M70.7449 61.7398H73.6926L74.485 59.5117H69.9604L70.7449 61.7398Z" fill="#EABE00"/>
<path d="M69.2474 57.4899H75.1903L75.9748 55.2617H68.4629L69.2474 57.4899Z" fill="#EABE00"/>
<path d="M67.7574 53.2399H76.6875L77.4485 51.0117H66.9888L67.7574 53.2399Z" fill="#EABE00"/>
<path d="M58.8828 44.7282H70.8876L70.119 42.5H58.8828V44.7282Z" fill="#EABE00"/>
<path d="M75.0317 40.4782H90.0001V38.25H75.7925L75.0317 40.4782Z" fill="#EABE00"/>
</g>
</g>
<defs>
<clipPath id="clip0_706_1524">
<rect width="80" height="32" fill="white" transform="translate(10 34)"/>
</clipPath>
</defs>
</svg>