<svg xmlns="http://www.w3.org/2000/svg" fill="none" viewBox="0 0 80 80">
<rect width="80" height="80" rx="7" fill="#FFF3C3"/>
<path d="M18.9217 28.858H20.7019H20.7014C20.9628 29.8793 21.3684 30.858 21.9058 31.7644L20.6465 33.0237C20.3219 33.3487 20.1393 33.7895 20.1393 34.2487C20.1393 34.7083 20.3219 35.1486 20.6465 35.4736L22.1223 36.9495C22.4473 37.2745 22.8877 37.4567 23.3473 37.4567C23.8064 37.4567 24.2468 37.2745 24.5718 36.9495L25.8316 35.6897C26.7379 36.2271 27.7166 36.6327 28.737 36.8945V38.6747C28.737 39.1339 28.9196 39.5747 29.2446 39.8997C29.5696 40.2242 30.01 40.4069 30.4696 40.4069H32.5552C33.0148 40.4069 33.4556 40.2247 33.7806 39.8997C34.1056 39.5747 34.2883 39.1343 34.2883 38.6747V36.8945C35.3086 36.6327 36.2869 36.2276 37.1932 35.6902L38.453 36.9495C38.778 37.2745 39.2188 37.4567 39.6784 37.4567C40.138 37.4567 40.5784 37.2745 40.9034 36.9495L42.3778 35.4736H42.3783C42.7033 35.1491 42.8864 34.7082 42.8864 34.2487C42.8864 33.7891 42.7033 33.3482 42.3783 33.0237L41.119 31.7644C41.6564 30.858 42.062 29.8793 42.3233 28.858H44.1045C44.5636 28.858 45.004 28.6758 45.329 28.3508C45.6535 28.0263 45.8362 27.5859 45.8362 27.1263V25.0403C45.8362 24.5807 45.654 24.1403 45.329 23.8153C45.0044 23.4903 44.564 23.3077 44.1045 23.3072H42.3233C42.062 22.2864 41.6564 21.3078 41.119 20.4008L42.3783 19.1415C42.7033 18.8175 42.8864 18.3766 42.8864 17.9171C42.8864 17.4575 42.7033 17.0171 42.3783 16.6926L40.9038 15.2172H40.9034C40.5788 14.8922 40.138 14.7095 39.6784 14.7095C39.2188 14.7095 38.778 14.8922 38.453 15.2172L37.1932 16.4765C36.2869 15.9391 35.3091 15.533 34.2883 15.2717V13.4915C34.2883 13.0319 34.1056 12.5915 33.7806 12.2665C33.4556 11.942 33.0148 11.7598 32.5552 11.7598H30.4696C30.01 11.7598 29.5696 11.942 29.2446 12.267C28.9196 12.5915 28.737 13.0323 28.737 13.4915V15.2717C27.7166 15.5335 26.7379 15.9391 25.8316 16.4765L24.5718 15.2172C24.2472 14.8922 23.8064 14.7095 23.3468 14.7095C22.8877 14.7095 22.4469 14.8922 22.1223 15.2172L20.6465 16.6926C20.3219 17.0171 20.1393 17.4579 20.1393 17.917C20.1393 18.3766 20.3219 18.817 20.6465 19.1415L21.9058 20.4013V20.4018C21.3684 21.3081 20.9628 22.2864 20.7014 23.3072H18.9216C18.462 23.3072 18.0212 23.4898 17.6962 23.8148C17.3716 24.1399 17.189 24.5807 17.189 25.0403V27.1268V27.1263C17.189 27.5859 17.3716 28.0263 17.6966 28.3513C18.0212 28.6759 18.462 28.8585 18.9216 28.858L18.9217 28.858ZM25.0424 24.0199C25.1578 23.6569 25.3038 23.3045 25.4796 22.9666C26.1268 21.716 27.1459 20.6971 28.3965 20.0492C28.7343 19.8739 29.0863 19.7279 29.4493 19.613C30.792 19.1864 32.2335 19.1864 33.5761 19.6125C33.9391 19.7274 34.2911 19.8735 34.6285 20.0492C36.1121 20.8155 37.2611 22.1014 37.8567 23.661C38.4522 25.2205 38.4522 26.9454 37.8567 28.505C37.2611 30.0647 36.1121 31.3505 34.6285 32.1167C34.2907 32.2921 33.9382 32.4381 33.5756 32.5535C32.0472 33.0405 30.396 32.9709 28.9143 32.3571C27.4321 31.7428 26.2158 30.6245 25.4796 29.199C25.3038 28.8616 25.1578 28.5091 25.0425 28.1466C24.6167 26.804 24.6167 25.3624 25.0425 24.0198L25.0424 24.0199Z" fill="#EABE00"/>
<path d="M47.1215 36.5388C46.769 37.133 46.503 37.7748 46.3318 38.444H45.165C44.5374 38.444 44.0288 38.9526 44.0288 39.5802V40.948C44.0288 41.2492 44.1487 41.5381 44.3616 41.7509C44.5749 41.9638 44.8638 42.0833 45.165 42.0833H46.3318C46.503 42.753 46.769 43.3944 47.1215 43.989L46.2957 44.8148V44.8143C45.8525 45.2579 45.8525 45.9771 46.2957 46.4206L47.2634 47.3883C47.7069 47.8314 48.4256 47.8314 48.8692 47.3883L49.6954 46.5621C50.2896 46.9145 50.931 47.1805 51.6002 47.3522V48.5195C51.6002 48.8207 51.7197 49.1095 51.933 49.3224C52.1459 49.5352 52.4347 49.6552 52.7359 49.6552H54.1033C54.4049 49.6552 54.6938 49.5357 54.9066 49.3224C55.12 49.1095 55.2394 48.8207 55.2394 48.5195V47.3522C55.9087 47.1805 56.5501 46.9145 57.1442 46.5625L57.9705 47.3883C58.414 47.8314 59.1332 47.8314 59.5768 47.3883L60.5435 46.4206C60.7569 46.2078 60.8768 45.9189 60.8768 45.6177C60.8768 45.316 60.7569 45.0272 60.5435 44.8143L59.7177 43.9885L59.7182 43.989C60.0702 43.3943 60.3362 42.753 60.5074 42.0833H61.6756C62.3023 42.0833 62.8109 41.5752 62.8109 40.948V39.5802C62.8109 38.9531 62.3027 38.4445 61.6756 38.444H60.5074C60.3362 37.7748 60.0702 37.1329 59.7182 36.5388L60.544 35.713H60.5435C60.7569 35.5001 60.8768 35.2113 60.8768 34.9101C60.8768 34.6089 60.7569 34.32 60.5435 34.1071L59.5768 33.1399C59.3639 32.927 59.0751 32.8071 58.7734 32.8071C58.4722 32.8071 58.1833 32.927 57.9705 33.1399L57.1442 33.9657C56.55 33.6132 55.9087 33.3473 55.2394 33.1756V32.0083C55.2394 31.7071 55.1199 31.4182 54.9066 31.2054C54.6938 30.9925 54.4049 30.873 54.1033 30.873H52.7359C52.4347 30.873 52.1458 30.9925 51.933 31.2054C51.7197 31.4182 51.6002 31.7071 51.6002 32.0083V33.1756C50.931 33.3473 50.2896 33.6132 49.6954 33.9657L48.8692 33.1399C48.6563 32.927 48.3675 32.8071 48.0662 32.8071C47.765 32.8071 47.4762 32.927 47.2633 33.1399L46.2956 34.1071C45.8525 34.5507 45.8525 35.2694 46.2956 35.713L47.1215 36.5388ZM49.1777 38.9114C49.2533 38.6733 49.3494 38.4422 49.4643 38.2206C49.8891 37.4008 50.557 36.7324 51.3768 36.3081C51.5984 36.1932 51.8291 36.0971 52.0671 36.022C52.9474 35.7423 53.8922 35.7423 54.7725 36.0216C55.0105 36.0971 55.2413 36.1928 55.4628 36.3081C56.4351 36.8103 57.1886 37.6534 57.5791 38.6761C57.9696 39.6988 57.9696 40.829 57.5791 41.8517C57.1886 42.8743 56.4351 43.7175 55.4628 44.2197C55.2413 44.3346 55.0101 44.4307 54.7725 44.5062C53.7705 44.8258 52.6879 44.78 51.716 44.3771C50.7446 43.9748 49.9467 43.2414 49.4643 42.3067C49.3494 42.0856 49.2532 41.8544 49.1777 41.6168C48.8985 40.7365 48.8985 39.7917 49.1777 38.9114Z" fill="#EABE00"/>
<path d="M68.0173 51.7217C67.5266 50.813 66.3656 50.4386 65.3407 50.5658C64.3236 50.7627 63.3567 51.1618 62.4966 51.7386C56.569 55.1705 50.4509 58.7099 43.654 59.5655C41.7273 59.8081 39.4165 59.6534 38.3563 58.0251C40.0385 57.5517 41.8202 57.6414 43.5601 57.4844C45.301 57.3279 47.1358 56.8536 48.2925 55.5431C49.4493 54.2334 49.5353 51.8942 48.0861 50.9174C47.0671 50.2307 45.7185 50.412 44.5054 50.6015L44.505 50.602C43.2809 50.8322 42.0353 50.927 40.7907 50.8849C39.4284 50.7265 38.0793 50.4697 36.7537 50.1167C32.5446 49.2191 28.1926 49.3834 23.9017 49.8187L23.9022 48.016C23.9017 47.4035 23.6587 46.8163 23.2256 46.3831C22.7926 45.9506 22.2053 45.707 21.5932 45.707H14.0502C13.4377 45.707 12.8509 45.9506 12.4178 46.3831C11.9847 46.8162 11.7412 47.4035 11.7412 48.016V65.9305C11.7412 66.543 11.9843 67.1303 12.4173 67.5634C12.8504 67.9964 13.4377 68.2395 14.0502 68.2395H21.5932C22.2053 68.2395 22.7925 67.9964 23.2256 67.5634C23.6587 67.1303 23.9022 66.543 23.9022 65.9305V65.1518C23.9814 64.8589 24.0107 64.5549 23.9887 64.2523L23.926 63.3798C31.6279 66.7375 40.3909 68.3891 48.444 66.0331C53.0592 64.6818 57.2069 62.0967 61.1764 59.3817C62.6783 58.355 64.1633 57.3053 65.6488 56.2552C66.4471 55.7603 67.1493 55.1245 67.7211 54.3792C68.0017 54.0025 68.1775 53.5576 68.2292 53.0907C68.2809 52.6233 68.2077 52.1509 68.0163 51.7219L68.0173 51.7217ZM17.7579 65.8721C17.0415 65.8721 16.3548 65.5878 15.8486 65.0815C15.3418 64.5752 15.0576 63.8886 15.0576 63.1722C15.0576 62.4562 15.3418 61.7691 15.8481 61.2628C16.3549 60.7566 17.0416 60.4723 17.7575 60.4723C18.4739 60.4723 19.1605 60.7566 19.6668 61.2633C20.1731 61.7696 20.4573 62.4563 20.4573 63.1726C20.4573 63.8886 20.1731 64.5753 19.6668 65.0815C19.1605 65.5878 18.4738 65.8721 17.7579 65.8721Z" fill="#EABE00"/>
</svg>