<svg width="652" height="574" viewBox="0 0 652 574" fill="none" xmlns="http://www.w3.org/2000/svg">
<rect x="195" y="195" width="75" height="44" rx="10" fill="white" fill-opacity="0.5"/>
<path d="M217.211 225.219C216.044 225.219 215.005 225.018 214.094 224.617C213.188 224.211 212.471 223.654 211.945 222.945C211.424 222.232 211.156 221.409 211.141 220.477H214.547C214.568 220.867 214.695 221.211 214.93 221.508C215.169 221.799 215.487 222.026 215.883 222.188C216.279 222.349 216.724 222.43 217.219 222.43C217.734 222.43 218.19 222.339 218.586 222.156C218.982 221.974 219.292 221.721 219.516 221.398C219.74 221.076 219.852 220.703 219.852 220.281C219.852 219.854 219.732 219.477 219.492 219.148C219.258 218.815 218.919 218.555 218.477 218.367C218.039 218.18 217.518 218.086 216.914 218.086H215.422V215.602H216.914C217.424 215.602 217.875 215.513 218.266 215.336C218.661 215.159 218.969 214.914 219.188 214.602C219.406 214.284 219.516 213.914 219.516 213.492C219.516 213.091 219.419 212.74 219.227 212.437C219.039 212.13 218.773 211.891 218.43 211.719C218.091 211.547 217.695 211.461 217.242 211.461C216.784 211.461 216.365 211.544 215.984 211.711C215.604 211.872 215.299 212.104 215.07 212.406C214.841 212.708 214.719 213.062 214.703 213.469H211.461C211.477 212.547 211.74 211.734 212.25 211.031C212.76 210.328 213.448 209.779 214.313 209.383C215.182 208.982 216.164 208.781 217.258 208.781C218.362 208.781 219.328 208.982 220.156 209.383C220.984 209.784 221.628 210.326 222.086 211.008C222.549 211.685 222.779 212.445 222.773 213.289C222.779 214.185 222.5 214.932 221.937 215.531C221.38 216.13 220.654 216.51 219.758 216.672V216.797C220.935 216.948 221.831 217.357 222.445 218.023C223.065 218.685 223.372 219.513 223.367 220.508C223.372 221.419 223.109 222.229 222.578 222.938C222.052 223.646 221.326 224.203 220.398 224.609C219.471 225.016 218.409 225.219 217.211 225.219ZM226.652 225L233.284 211.875V211.766H225.558V209H236.784V211.805L230.144 225H226.652ZM248.081 222V221.156C248.081 220.516 248.216 219.927 248.487 219.391C248.763 218.849 249.161 218.417 249.682 218.094C250.208 217.766 250.849 217.602 251.604 217.602C252.37 217.602 253.013 217.763 253.534 218.086C254.06 218.409 254.456 218.841 254.721 219.383C254.992 219.919 255.128 220.51 255.128 221.156V222C255.128 222.641 254.992 223.232 254.721 223.773C254.45 224.31 254.052 224.74 253.526 225.063C253 225.391 252.359 225.555 251.604 225.555C250.838 225.555 250.195 225.391 249.674 225.063C249.154 224.74 248.758 224.31 248.487 223.773C248.216 223.232 248.081 222.641 248.081 222ZM250.354 221.156V222C250.354 222.37 250.443 222.719 250.62 223.047C250.802 223.375 251.13 223.539 251.604 223.539C252.078 223.539 252.401 223.378 252.573 223.055C252.75 222.732 252.838 222.38 252.838 222V221.156C252.838 220.776 252.755 220.422 252.588 220.094C252.422 219.766 252.094 219.602 251.604 219.602C251.135 219.602 250.81 219.766 250.628 220.094C250.445 220.422 250.354 220.776 250.354 221.156ZM239.87 212.844V212C239.87 211.354 240.008 210.763 240.284 210.227C240.56 209.685 240.958 209.253 241.479 208.93C242.005 208.607 242.641 208.445 243.385 208.445C244.156 208.445 244.802 208.607 245.323 208.93C245.844 209.253 246.239 209.685 246.51 210.227C246.781 210.763 246.917 211.354 246.917 212V212.844C246.917 213.49 246.779 214.081 246.503 214.617C246.232 215.154 245.833 215.583 245.307 215.906C244.786 216.224 244.146 216.383 243.385 216.383C242.625 216.383 241.982 216.221 241.456 215.898C240.935 215.57 240.539 215.141 240.268 214.609C240.003 214.073 239.87 213.484 239.87 212.844ZM242.159 212V212.844C242.159 213.224 242.247 213.576 242.424 213.898C242.607 214.221 242.927 214.383 243.385 214.383C243.864 214.383 244.19 214.221 244.362 213.898C244.539 213.576 244.628 213.224 244.628 212.844V212C244.628 211.62 244.544 211.266 244.378 210.937C244.211 210.609 243.88 210.445 243.385 210.445C242.922 210.445 242.601 210.612 242.424 210.945C242.247 211.279 242.159 211.63 242.159 212ZM240.901 225L251.901 209H253.948L242.948 225H240.901Z" fill="black"/>
<rect x="395" y="195" width="75" height="44" rx="10" fill="white" fill-opacity="0.5"/>
<path d="M417.211 225.219C416.044 225.219 415.005 225.018 414.094 224.617C413.188 224.211 412.471 223.654 411.945 222.945C411.424 222.232 411.156 221.409 411.141 220.477H414.547C414.568 220.867 414.695 221.211 414.93 221.508C415.169 221.799 415.487 222.026 415.883 222.188C416.279 222.349 416.724 222.43 417.219 222.43C417.734 222.43 418.19 222.339 418.586 222.156C418.982 221.974 419.292 221.721 419.516 221.398C419.74 221.076 419.852 220.703 419.852 220.281C419.852 219.854 419.732 219.477 419.492 219.148C419.258 218.815 418.919 218.555 418.477 218.367C418.039 218.18 417.518 218.086 416.914 218.086H415.422V215.602H416.914C417.424 215.602 417.875 215.513 418.266 215.336C418.661 215.159 418.969 214.914 419.188 214.602C419.406 214.284 419.516 213.914 419.516 213.492C419.516 213.091 419.419 212.74 419.227 212.437C419.039 212.13 418.773 211.891 418.43 211.719C418.091 211.547 417.695 211.461 417.242 211.461C416.784 211.461 416.365 211.544 415.984 211.711C415.604 211.872 415.299 212.104 415.07 212.406C414.841 212.708 414.719 213.062 414.703 213.469H411.461C411.477 212.547 411.74 211.734 412.25 211.031C412.76 210.328 413.448 209.779 414.313 209.383C415.182 208.982 416.164 208.781 417.258 208.781C418.362 208.781 419.328 208.982 420.156 209.383C420.984 209.784 421.628 210.326 422.086 211.008C422.549 211.685 422.779 212.445 422.773 213.289C422.779 214.185 422.5 214.932 421.937 215.531C421.38 216.13 420.654 216.51 419.758 216.672V216.797C420.935 216.948 421.831 217.357 422.445 218.023C423.065 218.685 423.372 219.513 423.367 220.508C423.372 221.419 423.109 222.229 422.578 222.938C422.052 223.646 421.326 224.203 420.398 224.609C419.471 225.016 418.409 225.219 417.211 225.219ZM431.933 225.219C430.766 225.219 429.727 225.018 428.816 224.617C427.909 224.211 427.193 223.654 426.667 222.945C426.146 222.232 425.878 221.409 425.863 220.477H429.269C429.29 220.867 429.417 221.211 429.652 221.508C429.891 221.799 430.209 222.026 430.605 222.188C431.001 222.349 431.446 222.43 431.941 222.43C432.456 222.43 432.912 222.339 433.308 222.156C433.704 221.974 434.014 221.721 434.238 221.398C434.462 221.076 434.574 220.703 434.574 220.281C434.574 219.854 434.454 219.477 434.214 219.148C433.98 218.815 433.641 218.555 433.199 218.367C432.761 218.18 432.24 218.086 431.636 218.086H430.144V215.602H431.636C432.146 215.602 432.597 215.513 432.988 215.336C433.383 215.159 433.691 214.914 433.909 214.602C434.128 214.284 434.238 213.914 434.238 213.492C434.238 213.091 434.141 212.74 433.949 212.437C433.761 212.13 433.495 211.891 433.152 211.719C432.813 211.547 432.417 211.461 431.964 211.461C431.506 211.461 431.087 211.544 430.706 211.711C430.326 211.872 430.021 212.104 429.792 212.406C429.563 212.708 429.441 213.062 429.425 213.469H426.183C426.199 212.547 426.462 211.734 426.972 211.031C427.482 210.328 428.17 209.779 429.034 209.383C429.904 208.982 430.886 208.781 431.98 208.781C433.084 208.781 434.05 208.982 434.878 209.383C435.706 209.784 436.35 210.326 436.808 211.008C437.271 211.685 437.501 212.445 437.495 213.289C437.501 214.185 437.222 214.932 436.659 215.531C436.102 216.13 435.376 216.51 434.48 216.672V216.797C435.657 216.948 436.553 217.357 437.167 218.023C437.787 218.685 438.094 219.513 438.089 220.508C438.094 221.419 437.831 222.229 437.3 222.938C436.774 223.646 436.047 224.203 435.12 224.609C434.193 225.016 433.131 225.219 431.933 225.219ZM449.499 222V221.156C449.499 220.516 449.634 219.927 449.905 219.391C450.181 218.849 450.579 218.417 451.1 218.094C451.626 217.766 452.267 217.602 453.022 217.602C453.788 217.602 454.431 217.763 454.952 218.086C455.478 218.409 455.874 218.841 456.139 219.383C456.41 219.919 456.545 220.51 456.545 221.156V222C456.545 222.641 456.41 223.232 456.139 223.773C455.868 224.31 455.47 224.74 454.944 225.063C454.418 225.391 453.777 225.555 453.022 225.555C452.256 225.555 451.613 225.391 451.092 225.063C450.572 224.74 450.176 224.31 449.905 223.773C449.634 223.232 449.499 222.641 449.499 222ZM451.772 221.156V222C451.772 222.37 451.861 222.719 452.038 223.047C452.22 223.375 452.548 223.539 453.022 223.539C453.496 223.539 453.819 223.378 453.991 223.055C454.168 222.732 454.256 222.38 454.256 222V221.156C454.256 220.776 454.173 220.422 454.006 220.094C453.84 219.766 453.512 219.602 453.022 219.602C452.553 219.602 452.228 219.766 452.045 220.094C451.863 220.422 451.772 220.776 451.772 221.156ZM441.288 212.844V212C441.288 211.354 441.426 210.763 441.702 210.227C441.978 209.685 442.376 209.253 442.897 208.93C443.423 208.607 444.058 208.445 444.803 208.445C445.574 208.445 446.22 208.607 446.741 208.93C447.262 209.253 447.657 209.685 447.928 210.227C448.199 210.763 448.335 211.354 448.335 212V212.844C448.335 213.49 448.197 214.081 447.92 214.617C447.65 215.154 447.251 215.583 446.725 215.906C446.204 216.224 445.564 216.383 444.803 216.383C444.043 216.383 443.4 216.221 442.874 215.898C442.353 215.57 441.957 215.141 441.686 214.609C441.42 214.073 441.288 213.484 441.288 212.844ZM443.577 212V212.844C443.577 213.224 443.665 213.576 443.842 213.898C444.025 214.221 444.345 214.383 444.803 214.383C445.282 214.383 445.608 214.221 445.78 213.898C445.957 213.576 446.045 213.224 446.045 212.844V212C446.045 211.62 445.962 211.266 445.795 210.937C445.629 210.609 445.298 210.445 444.803 210.445C444.34 210.445 444.019 210.612 443.842 210.945C443.665 211.279 443.577 211.63 443.577 212ZM442.319 225L453.319 209H455.366L444.366 225H442.319Z" fill="black"/>
<rect x="270" y="384" width="75" height="44" rx="10" fill="white" fill-opacity="0.5"/>
<path d="M292.211 414.219C291.044 414.219 290.005 414.018 289.094 413.617C288.188 413.211 287.471 412.654 286.945 411.945C286.424 411.232 286.156 410.409 286.141 409.477H289.547C289.568 409.867 289.695 410.211 289.93 410.508C290.169 410.799 290.487 411.026 290.883 411.188C291.279 411.349 291.724 411.43 292.219 411.43C292.734 411.43 293.19 411.339 293.586 411.156C293.982 410.974 294.292 410.721 294.516 410.398C294.74 410.076 294.852 409.703 294.852 409.281C294.852 408.854 294.732 408.477 294.492 408.148C294.258 407.815 293.919 407.555 293.477 407.367C293.039 407.18 292.518 407.086 291.914 407.086H290.422V404.602H291.914C292.424 404.602 292.875 404.513 293.266 404.336C293.661 404.159 293.969 403.914 294.188 403.602C294.406 403.284 294.516 402.914 294.516 402.492C294.516 402.091 294.419 401.74 294.227 401.437C294.039 401.13 293.773 400.891 293.43 400.719C293.091 400.547 292.695 400.461 292.242 400.461C291.784 400.461 291.365 400.544 290.984 400.711C290.604 400.872 290.299 401.104 290.07 401.406C289.841 401.708 289.719 402.062 289.703 402.469H286.461C286.477 401.547 286.74 400.734 287.25 400.031C287.76 399.328 288.448 398.779 289.313 398.383C290.182 397.982 291.164 397.781 292.258 397.781C293.362 397.781 294.328 397.982 295.156 398.383C295.984 398.784 296.628 399.326 297.086 400.008C297.549 400.685 297.779 401.445 297.773 402.289C297.779 403.185 297.5 403.932 296.937 404.531C296.38 405.13 295.654 405.51 294.758 405.672V405.797C295.935 405.948 296.831 406.357 297.445 407.023C298.065 407.685 298.372 408.513 298.367 409.508C298.372 410.419 298.109 411.229 297.578 411.938C297.052 412.646 296.326 413.203 295.398 413.609C294.471 414.016 293.409 414.219 292.211 414.219ZM307.292 414.352C305.949 414.346 304.792 414.016 303.824 413.359C302.86 412.703 302.118 411.753 301.597 410.508C301.081 409.263 300.826 407.766 300.831 406.016C300.831 404.271 301.089 402.784 301.605 401.555C302.126 400.326 302.868 399.391 303.831 398.75C304.8 398.104 305.954 397.781 307.292 397.781C308.631 397.781 309.782 398.104 310.745 398.75C311.714 399.396 312.459 400.333 312.98 401.562C313.501 402.786 313.758 404.271 313.753 406.016C313.753 407.771 313.493 409.271 312.972 410.516C312.456 411.76 311.717 412.711 310.753 413.367C309.79 414.023 308.636 414.352 307.292 414.352ZM307.292 411.547C308.209 411.547 308.941 411.086 309.488 410.164C310.034 409.242 310.305 407.859 310.3 406.016C310.3 404.802 310.175 403.792 309.925 402.984C309.68 402.177 309.331 401.57 308.878 401.164C308.43 400.758 307.902 400.555 307.292 400.555C306.381 400.555 305.652 401.01 305.105 401.922C304.558 402.833 304.282 404.198 304.277 406.016C304.277 407.245 304.399 408.271 304.644 409.094C304.894 409.911 305.245 410.526 305.699 410.937C306.152 411.344 306.683 411.547 307.292 411.547ZM325.143 411V410.156C325.143 409.516 325.279 408.927 325.549 408.391C325.825 407.849 326.224 407.417 326.745 407.094C327.271 406.766 327.911 406.602 328.667 406.602C329.432 406.602 330.075 406.763 330.596 407.086C331.122 407.409 331.518 407.841 331.784 408.383C332.055 408.919 332.19 409.51 332.19 410.156V411C332.19 411.641 332.055 412.232 331.784 412.773C331.513 413.31 331.114 413.74 330.588 414.063C330.062 414.391 329.422 414.555 328.667 414.555C327.901 414.555 327.258 414.391 326.737 414.063C326.216 413.74 325.82 413.31 325.549 412.773C325.279 412.232 325.143 411.641 325.143 411ZM327.417 410.156V411C327.417 411.37 327.505 411.719 327.682 412.047C327.864 412.375 328.193 412.539 328.667 412.539C329.141 412.539 329.463 412.378 329.635 412.055C329.812 411.732 329.901 411.38 329.901 411V410.156C329.901 409.776 329.818 409.422 329.651 409.094C329.484 408.766 329.156 408.602 328.667 408.602C328.198 408.602 327.872 408.766 327.69 409.094C327.508 409.422 327.417 409.776 327.417 410.156ZM316.932 401.844V401C316.932 400.354 317.07 399.763 317.346 399.227C317.622 398.685 318.021 398.253 318.542 397.93C319.068 397.607 319.703 397.445 320.448 397.445C321.219 397.445 321.864 397.607 322.385 397.93C322.906 398.253 323.302 398.685 323.573 399.227C323.844 399.763 323.979 400.354 323.979 401V401.844C323.979 402.49 323.841 403.081 323.565 403.617C323.294 404.154 322.896 404.583 322.37 404.906C321.849 405.224 321.208 405.383 320.448 405.383C319.687 405.383 319.044 405.221 318.518 404.898C317.997 404.57 317.601 404.141 317.331 403.609C317.065 403.073 316.932 402.484 316.932 401.844ZM319.221 401V401.844C319.221 402.224 319.31 402.576 319.487 402.898C319.669 403.221 319.989 403.383 320.448 403.383C320.927 403.383 321.253 403.221 321.424 402.898C321.601 402.576 321.69 402.224 321.69 401.844V401C321.69 400.62 321.607 400.266 321.44 399.937C321.273 399.609 320.943 399.445 320.448 399.445C319.984 399.445 319.664 399.612 319.487 399.945C319.31 400.279 319.221 400.63 319.221 401ZM317.963 414L328.963 398H331.01L320.01 414H317.963Z" fill="black"/>
<path d="M51.0227 107.727H57.0909L63.5 123.364H63.7727L70.1818 107.727H76.25V131H71.4773V115.852H71.2841L65.2614 130.886H62.0114L55.9886 115.795H55.7955V131H51.0227V107.727ZM99.4499 107.727V131H95.1999L85.0749 116.352H84.9044V131H79.984V107.727H84.3022L94.3476 122.364H94.5522V107.727H99.4499ZM123.729 115.875H118.752C118.661 115.231 118.476 114.659 118.195 114.159C117.915 113.652 117.555 113.22 117.116 112.864C116.676 112.508 116.169 112.235 115.593 112.045C115.025 111.856 114.407 111.761 113.741 111.761C112.536 111.761 111.487 112.061 110.593 112.659C109.699 113.25 109.006 114.114 108.513 115.25C108.021 116.379 107.775 117.75 107.775 119.364C107.775 121.023 108.021 122.417 108.513 123.545C109.013 124.674 109.71 125.527 110.604 126.102C111.498 126.678 112.532 126.966 113.707 126.966C114.366 126.966 114.976 126.879 115.536 126.705C116.104 126.53 116.608 126.277 117.048 125.943C117.487 125.602 117.851 125.189 118.138 124.705C118.434 124.22 118.638 123.667 118.752 123.045L123.729 123.068C123.601 124.136 123.279 125.167 122.763 126.159C122.256 127.144 121.57 128.027 120.707 128.807C119.851 129.58 118.828 130.193 117.638 130.648C116.457 131.095 115.119 131.318 113.627 131.318C111.551 131.318 109.695 130.848 108.059 129.909C106.43 128.97 105.142 127.61 104.195 125.83C103.256 124.049 102.786 121.894 102.786 119.364C102.786 116.826 103.263 114.667 104.218 112.886C105.173 111.106 106.468 109.75 108.104 108.818C109.741 107.879 111.582 107.409 113.627 107.409C114.976 107.409 116.226 107.598 117.377 107.977C118.536 108.356 119.563 108.909 120.457 109.636C121.351 110.356 122.078 111.239 122.638 112.284C123.207 113.33 123.57 114.527 123.729 115.875ZM130.904 107.727V110.182C130.904 110.879 130.767 111.591 130.495 112.318C130.229 113.038 129.873 113.72 129.426 114.364C128.979 115 128.491 115.542 127.96 115.989L125.824 114.727C126.203 114.129 126.536 113.466 126.824 112.739C127.12 112.011 127.267 111.167 127.267 110.205V107.727H130.904ZM146.143 118.523L141.711 118.795C141.636 118.417 141.473 118.076 141.223 117.773C140.973 117.462 140.643 117.216 140.234 117.034C139.833 116.845 139.352 116.75 138.791 116.75C138.041 116.75 137.408 116.909 136.893 117.227C136.378 117.538 136.121 117.955 136.121 118.477C136.121 118.894 136.287 119.246 136.621 119.534C136.954 119.822 137.526 120.053 138.336 120.227L141.496 120.864C143.193 121.212 144.458 121.773 145.291 122.545C146.124 123.318 146.541 124.333 146.541 125.591C146.541 126.735 146.204 127.739 145.53 128.602C144.863 129.466 143.946 130.14 142.78 130.625C141.621 131.102 140.283 131.341 138.768 131.341C136.458 131.341 134.617 130.86 133.246 129.898C131.882 128.928 131.083 127.61 130.848 125.943L135.609 125.693C135.753 126.398 136.102 126.936 136.655 127.307C137.208 127.67 137.916 127.852 138.78 127.852C139.628 127.852 140.31 127.689 140.825 127.364C141.348 127.03 141.613 126.602 141.621 126.08C141.613 125.64 141.427 125.28 141.064 125C140.7 124.712 140.14 124.492 139.382 124.341L136.359 123.739C134.655 123.398 133.386 122.807 132.552 121.966C131.727 121.125 131.314 120.053 131.314 118.75C131.314 117.629 131.617 116.663 132.223 115.852C132.836 115.042 133.696 114.417 134.802 113.977C135.916 113.538 137.219 113.318 138.711 113.318C140.916 113.318 142.651 113.784 143.916 114.716C145.189 115.648 145.931 116.917 146.143 118.523Z" fill="#3E3E3E"/>
<path d="M510.648 114.42C510.557 113.504 510.167 112.792 509.477 112.284C508.788 111.777 507.852 111.523 506.67 111.523C505.867 111.523 505.189 111.636 504.636 111.864C504.083 112.083 503.659 112.39 503.364 112.784C503.076 113.178 502.932 113.625 502.932 114.125C502.917 114.542 503.004 114.905 503.193 115.216C503.39 115.527 503.659 115.795 504 116.023C504.341 116.242 504.735 116.436 505.182 116.602C505.629 116.761 506.106 116.898 506.614 117.011L508.705 117.511C509.72 117.739 510.652 118.042 511.5 118.42C512.348 118.799 513.083 119.265 513.705 119.818C514.326 120.371 514.807 121.023 515.148 121.773C515.496 122.523 515.674 123.383 515.682 124.352C515.674 125.777 515.311 127.011 514.591 128.057C513.879 129.095 512.848 129.902 511.5 130.477C510.159 131.045 508.542 131.33 506.648 131.33C504.769 131.33 503.133 131.042 501.739 130.466C500.352 129.89 499.269 129.038 498.489 127.909C497.716 126.773 497.311 125.367 497.273 123.693H502.034C502.087 124.473 502.311 125.125 502.705 125.648C503.106 126.163 503.64 126.553 504.307 126.818C504.981 127.076 505.742 127.205 506.591 127.205C507.424 127.205 508.148 127.083 508.761 126.841C509.383 126.598 509.864 126.261 510.205 125.83C510.545 125.398 510.716 124.902 510.716 124.341C510.716 123.818 510.561 123.379 510.25 123.023C509.947 122.667 509.5 122.364 508.909 122.114C508.326 121.864 507.61 121.636 506.761 121.432L504.227 120.795C502.265 120.318 500.716 119.572 499.58 118.557C498.443 117.542 497.879 116.174 497.886 114.455C497.879 113.045 498.254 111.814 499.011 110.761C499.777 109.708 500.826 108.886 502.159 108.295C503.492 107.705 505.008 107.409 506.705 107.409C508.432 107.409 509.939 107.705 511.227 108.295C512.523 108.886 513.53 109.708 514.25 110.761C514.97 111.814 515.341 113.034 515.364 114.42H510.648ZM527.865 113.545V117.182H517.353V113.545H527.865ZM519.74 109.364H524.581V125.636C524.581 126.083 524.649 126.432 524.785 126.682C524.921 126.924 525.111 127.095 525.353 127.193C525.603 127.292 525.891 127.341 526.217 127.341C526.444 127.341 526.671 127.322 526.899 127.284C527.126 127.239 527.3 127.205 527.421 127.182L528.183 130.784C527.94 130.86 527.6 130.947 527.16 131.045C526.721 131.152 526.187 131.216 525.558 131.239C524.391 131.284 523.368 131.129 522.49 130.773C521.618 130.417 520.94 129.864 520.456 129.114C519.971 128.364 519.732 127.417 519.74 126.273V109.364ZM535.675 131.33C534.562 131.33 533.569 131.136 532.698 130.75C531.827 130.356 531.137 129.777 530.63 129.011C530.13 128.239 529.88 127.277 529.88 126.125C529.88 125.155 530.058 124.341 530.414 123.682C530.77 123.023 531.255 122.492 531.869 122.091C532.482 121.689 533.179 121.386 533.959 121.182C534.747 120.977 535.573 120.833 536.437 120.75C537.452 120.644 538.27 120.545 538.891 120.455C539.512 120.356 539.963 120.212 540.244 120.023C540.524 119.833 540.664 119.553 540.664 119.182V119.114C540.664 118.394 540.437 117.837 539.982 117.443C539.535 117.049 538.899 116.852 538.073 116.852C537.202 116.852 536.509 117.045 535.994 117.432C535.478 117.811 535.137 118.288 534.971 118.864L530.494 118.5C530.721 117.439 531.168 116.523 531.834 115.75C532.501 114.97 533.361 114.371 534.414 113.955C535.475 113.53 536.702 113.318 538.096 113.318C539.065 113.318 539.994 113.432 540.88 113.659C541.774 113.886 542.565 114.239 543.255 114.716C543.952 115.193 544.501 115.807 544.903 116.557C545.304 117.299 545.505 118.189 545.505 119.227V131H540.914V128.58H540.778C540.497 129.125 540.122 129.606 539.653 130.023C539.183 130.432 538.619 130.754 537.959 130.989C537.3 131.216 536.539 131.33 535.675 131.33ZM537.062 127.989C537.774 127.989 538.403 127.848 538.948 127.568C539.494 127.28 539.922 126.894 540.232 126.409C540.543 125.924 540.698 125.375 540.698 124.761V122.909C540.547 123.008 540.338 123.098 540.073 123.182C539.815 123.258 539.524 123.33 539.198 123.398C538.872 123.458 538.547 123.515 538.221 123.568C537.895 123.614 537.6 123.655 537.334 123.693C536.766 123.777 536.27 123.909 535.846 124.091C535.422 124.273 535.092 124.519 534.857 124.83C534.622 125.133 534.505 125.511 534.505 125.966C534.505 126.625 534.744 127.129 535.221 127.477C535.706 127.818 536.319 127.989 537.062 127.989ZM548.941 131V113.545H553.634V116.591H553.816C554.134 115.508 554.668 114.689 555.418 114.136C556.168 113.576 557.031 113.295 558.009 113.295C558.251 113.295 558.513 113.311 558.793 113.341C559.073 113.371 559.319 113.413 559.531 113.466V117.761C559.304 117.693 558.99 117.633 558.588 117.58C558.187 117.527 557.819 117.5 557.486 117.5C556.774 117.5 556.138 117.655 555.577 117.966C555.024 118.269 554.585 118.693 554.259 119.239C553.941 119.784 553.781 120.413 553.781 121.125V131H548.941ZM571.873 113.545V117.182H561.362V113.545H571.873ZM563.748 109.364H568.589V125.636C568.589 126.083 568.658 126.432 568.794 126.682C568.93 126.924 569.12 127.095 569.362 127.193C569.612 127.292 569.9 127.341 570.226 127.341C570.453 127.341 570.68 127.322 570.908 127.284C571.135 127.239 571.309 127.205 571.43 127.182L572.192 130.784C571.949 130.86 571.608 130.947 571.169 131.045C570.729 131.152 570.195 131.216 569.567 131.239C568.4 131.284 567.377 131.129 566.498 130.773C565.627 130.417 564.949 129.864 564.464 129.114C563.979 128.364 563.741 127.417 563.748 126.273V109.364ZM585.9 123.568V113.545H590.741V131H586.093V127.83H585.911C585.517 128.852 584.862 129.674 583.945 130.295C583.036 130.917 581.927 131.227 580.616 131.227C579.449 131.227 578.423 130.962 577.536 130.432C576.65 129.902 575.957 129.148 575.457 128.17C574.964 127.193 574.714 126.023 574.707 124.659V113.545H579.548V123.795C579.555 124.826 579.832 125.64 580.377 126.239C580.923 126.837 581.654 127.136 582.57 127.136C583.154 127.136 583.699 127.004 584.207 126.739C584.714 126.466 585.123 126.064 585.434 125.534C585.752 125.004 585.908 124.348 585.9 123.568ZM594.293 137.545V113.545H599.066V116.477H599.282C599.494 116.008 599.801 115.53 600.202 115.045C600.611 114.553 601.142 114.144 601.793 113.818C602.452 113.485 603.27 113.318 604.248 113.318C605.52 113.318 606.695 113.652 607.77 114.318C608.846 114.977 609.706 115.973 610.35 117.307C610.994 118.633 611.316 120.295 611.316 122.295C611.316 124.242 611.001 125.886 610.373 127.227C609.751 128.561 608.903 129.572 607.827 130.261C606.759 130.943 605.562 131.284 604.236 131.284C603.297 131.284 602.498 131.129 601.839 130.818C601.187 130.508 600.653 130.117 600.236 129.648C599.82 129.17 599.501 128.689 599.282 128.205H599.134V137.545H594.293ZM599.032 122.273C599.032 123.311 599.176 124.216 599.464 124.989C599.751 125.761 600.168 126.364 600.714 126.795C601.259 127.22 601.922 127.432 602.702 127.432C603.49 127.432 604.157 127.216 604.702 126.784C605.248 126.345 605.66 125.739 605.941 124.966C606.229 124.186 606.373 123.288 606.373 122.273C606.373 121.265 606.232 120.379 605.952 119.614C605.672 118.848 605.259 118.25 604.714 117.818C604.168 117.386 603.498 117.17 602.702 117.17C601.914 117.17 601.248 117.379 600.702 117.795C600.164 118.212 599.751 118.803 599.464 119.568C599.176 120.333 599.032 121.235 599.032 122.273ZM628.746 118.523L624.314 118.795C624.238 118.417 624.075 118.076 623.825 117.773C623.575 117.462 623.246 117.216 622.837 117.034C622.435 116.845 621.954 116.75 621.394 116.75C620.644 116.75 620.011 116.909 619.496 117.227C618.981 117.538 618.723 117.955 618.723 118.477C618.723 118.894 618.89 119.246 619.223 119.534C619.556 119.822 620.128 120.053 620.939 120.227L624.098 120.864C625.795 121.212 627.06 121.773 627.894 122.545C628.727 123.318 629.144 124.333 629.144 125.591C629.144 126.735 628.806 127.739 628.132 128.602C627.465 129.466 626.549 130.14 625.382 130.625C624.223 131.102 622.886 131.341 621.371 131.341C619.06 131.341 617.219 130.86 615.848 129.898C614.484 128.928 613.685 127.61 613.45 125.943L618.212 125.693C618.356 126.398 618.704 126.936 619.257 127.307C619.81 127.67 620.519 127.852 621.382 127.852C622.231 127.852 622.912 127.689 623.428 127.364C623.95 127.03 624.215 126.602 624.223 126.08C624.215 125.64 624.03 125.28 623.666 125C623.303 124.712 622.742 124.492 621.984 124.341L618.962 123.739C617.257 123.398 615.988 122.807 615.155 121.966C614.329 121.125 613.916 120.053 613.916 118.75C613.916 117.629 614.219 116.663 614.825 115.852C615.439 115.042 616.299 114.417 617.405 113.977C618.519 113.538 619.822 113.318 621.314 113.318C623.519 113.318 625.253 113.784 626.519 114.716C627.791 115.648 628.534 116.917 628.746 118.523Z" fill="#3E3E3E"/>
<path d="M272.398 525.727H277.318V540.841C277.318 542.538 276.913 544.023 276.102 545.295C275.299 546.568 274.174 547.561 272.727 548.273C271.28 548.977 269.595 549.33 267.67 549.33C265.739 549.33 264.049 548.977 262.602 548.273C261.155 547.561 260.03 546.568 259.227 545.295C258.424 544.023 258.023 542.538 258.023 540.841V525.727H262.943V540.42C262.943 541.307 263.136 542.095 263.523 542.784C263.917 543.473 264.47 544.015 265.182 544.409C265.894 544.803 266.723 545 267.67 545C268.625 545 269.455 544.803 270.159 544.409C270.871 544.015 271.42 543.473 271.807 542.784C272.201 542.095 272.398 541.307 272.398 540.42V525.727ZM285.796 538.909V549H280.956V531.545H285.569V534.625H285.774C286.16 533.61 286.808 532.807 287.717 532.216C288.626 531.617 289.728 531.318 291.024 531.318C292.236 531.318 293.293 531.583 294.194 532.114C295.096 532.644 295.796 533.402 296.296 534.386C296.796 535.364 297.046 536.53 297.046 537.886V549H292.206V538.75C292.213 537.682 291.94 536.848 291.387 536.25C290.834 535.644 290.073 535.341 289.103 535.341C288.452 535.341 287.876 535.481 287.376 535.761C286.884 536.042 286.497 536.451 286.217 536.989C285.944 537.519 285.804 538.159 285.796 538.909ZM300.542 549V531.545H305.383V549H300.542ZM302.974 529.295C302.254 529.295 301.637 529.057 301.121 528.58C300.614 528.095 300.36 527.515 300.36 526.841C300.36 526.174 300.614 525.602 301.121 525.125C301.637 524.64 302.254 524.398 302.974 524.398C303.693 524.398 304.307 524.64 304.815 525.125C305.33 525.602 305.587 526.174 305.587 526.841C305.587 527.515 305.33 528.095 304.815 528.58C304.307 529.057 303.693 529.295 302.974 529.295ZM316.827 549.341C315.039 549.341 313.501 548.962 312.213 548.205C310.933 547.439 309.948 546.379 309.259 545.023C308.577 543.667 308.236 542.106 308.236 540.341C308.236 538.553 308.581 536.985 309.27 535.636C309.967 534.28 310.956 533.223 312.236 532.466C313.516 531.701 315.039 531.318 316.804 531.318C318.327 531.318 319.66 531.595 320.804 532.148C321.948 532.701 322.853 533.477 323.52 534.477C324.187 535.477 324.554 536.652 324.622 538H320.054C319.925 537.129 319.585 536.428 319.031 535.898C318.486 535.36 317.77 535.091 316.884 535.091C316.134 535.091 315.478 535.295 314.918 535.705C314.365 536.106 313.933 536.693 313.622 537.466C313.312 538.239 313.156 539.174 313.156 540.273C313.156 541.386 313.308 542.333 313.611 543.114C313.922 543.894 314.357 544.489 314.918 544.898C315.478 545.307 316.134 545.511 316.884 545.511C317.437 545.511 317.933 545.398 318.372 545.17C318.819 544.943 319.187 544.614 319.475 544.182C319.77 543.742 319.963 543.216 320.054 542.602H324.622C324.547 543.936 324.183 545.11 323.531 546.125C322.888 547.133 321.997 547.92 320.861 548.489C319.725 549.057 318.38 549.341 316.827 549.341ZM335.288 549.341C333.523 549.341 331.997 548.966 330.709 548.216C329.428 547.458 328.44 546.405 327.743 545.057C327.046 543.701 326.697 542.129 326.697 540.341C326.697 538.538 327.046 536.962 327.743 535.614C328.44 534.258 329.428 533.205 330.709 532.455C331.997 531.697 333.523 531.318 335.288 531.318C337.053 531.318 338.576 531.697 339.856 532.455C341.144 533.205 342.137 534.258 342.834 535.614C343.531 536.962 343.879 538.538 343.879 540.341C343.879 542.129 343.531 543.701 342.834 545.057C342.137 546.405 341.144 547.458 339.856 548.216C338.576 548.966 337.053 549.341 335.288 549.341ZM335.311 545.591C336.114 545.591 336.784 545.364 337.322 544.909C337.86 544.447 338.265 543.818 338.538 543.023C338.818 542.227 338.959 541.322 338.959 540.307C338.959 539.292 338.818 538.386 338.538 537.591C338.265 536.795 337.86 536.167 337.322 535.705C336.784 535.242 336.114 535.011 335.311 535.011C334.5 535.011 333.818 535.242 333.265 535.705C332.72 536.167 332.307 536.795 332.027 537.591C331.754 538.386 331.618 539.292 331.618 540.307C331.618 541.322 331.754 542.227 332.027 543.023C332.307 543.818 332.72 544.447 333.265 544.909C333.818 545.364 334.5 545.591 335.311 545.591ZM346.707 549V531.545H351.4V534.591H351.582C351.9 533.508 352.434 532.689 353.184 532.136C353.934 531.576 354.798 531.295 355.775 531.295C356.017 531.295 356.279 531.311 356.559 531.341C356.839 531.371 357.086 531.413 357.298 531.466V535.761C357.07 535.693 356.756 535.633 356.355 535.58C355.953 535.527 355.586 535.5 355.252 535.5C354.54 535.5 353.904 535.655 353.343 535.966C352.79 536.269 352.351 536.693 352.025 537.239C351.707 537.784 351.548 538.413 351.548 539.125V549H346.707ZM364.321 538.909V549H359.481V531.545H364.094V534.625H364.299C364.685 533.61 365.333 532.807 366.242 532.216C367.151 531.617 368.253 531.318 369.549 531.318C370.761 531.318 371.818 531.583 372.719 532.114C373.621 532.644 374.321 533.402 374.821 534.386C375.321 535.364 375.571 536.53 375.571 537.886V549H370.731V538.75C370.738 537.682 370.465 536.848 369.912 536.25C369.359 535.644 368.598 535.341 367.628 535.341C366.977 535.341 366.401 535.481 365.901 535.761C365.409 536.042 365.022 536.451 364.742 536.989C364.469 537.519 364.329 538.159 364.321 538.909ZM393.59 536.523L389.158 536.795C389.082 536.417 388.919 536.076 388.669 535.773C388.419 535.462 388.09 535.216 387.68 535.034C387.279 534.845 386.798 534.75 386.237 534.75C385.487 534.75 384.855 534.909 384.34 535.227C383.824 535.538 383.567 535.955 383.567 536.477C383.567 536.894 383.733 537.246 384.067 537.534C384.4 537.822 384.972 538.053 385.783 538.227L388.942 538.864C390.639 539.212 391.904 539.773 392.737 540.545C393.571 541.318 393.987 542.333 393.987 543.591C393.987 544.735 393.65 545.739 392.976 546.602C392.309 547.466 391.393 548.14 390.226 548.625C389.067 549.102 387.73 549.341 386.215 549.341C383.904 549.341 382.063 548.86 380.692 547.898C379.328 546.928 378.529 545.61 378.294 543.943L383.055 543.693C383.199 544.398 383.548 544.936 384.101 545.307C384.654 545.67 385.362 545.852 386.226 545.852C387.074 545.852 387.756 545.689 388.271 545.364C388.794 545.03 389.059 544.602 389.067 544.08C389.059 543.64 388.874 543.28 388.51 543C388.146 542.712 387.586 542.492 386.828 542.341L383.805 541.739C382.101 541.398 380.832 540.807 379.999 539.966C379.173 539.125 378.76 538.053 378.76 536.75C378.76 535.629 379.063 534.663 379.669 533.852C380.283 533.042 381.143 532.417 382.249 531.977C383.362 531.538 384.665 531.318 386.158 531.318C388.362 531.318 390.097 531.784 391.362 532.716C392.635 533.648 393.377 534.917 393.59 536.523Z" fill="#3E3E3E"/>
<path d="M120.667 158C120.667 160.946 123.054 163.333 126 163.333C128.946 163.333 131.333 160.946 131.333 158C131.333 155.054 128.946 152.667 126 152.667C123.054 152.667 120.667 155.054 120.667 158ZM210 159C210.552 159 211 158.552 211 158C211 157.448 210.552 157 210 157V159ZM126 159H210V157H126V159Z" fill="#454444"/>
<path d="M531.333 158C531.333 160.946 528.946 163.333 526 163.333C523.054 163.333 520.667 160.946 520.667 158C520.667 155.054 523.054 152.667 526 152.667C528.946 152.667 531.333 155.054 531.333 158ZM442 159C441.448 159 441 158.552 441 158C441 157.448 441.448 157 442 157V159ZM526 159H442V157H526V159Z" fill="#454444"/>
<path d="M326 518.333C328.946 518.333 331.333 515.946 331.333 513C331.333 510.054 328.946 507.667 326 507.667C323.054 507.667 320.667 510.054 320.667 513C320.667 515.946 323.054 518.333 326 518.333ZM327 477C327 476.448 326.552 476 326 476C325.448 476 325 476.448 325 477L327 477ZM327 513L327 477L325 477L325 513L327 513Z" fill="#454444"/>
</svg>
