<svg width="66" height="66" viewBox="0 0 66 66" fill="none" xmlns="http://www.w3.org/2000/svg">
<g clip-path="url(#clip0_663_13398)">
<path d="M53.0598 53.1805C52.5098 53.1805 52.0598 53.6306 52.0598 54.1805V59.5905C52.0572 60.5118 51.6894 61.3943 51.037 62.0448C50.3847 62.6953 49.501 63.0606 48.5798 63.0605C47.6498 63.0605 46.7898 62.7006 46.1298 62.0406C45.8048 61.7231 45.547 61.3434 45.3718 60.9242C45.1965 60.5051 45.1074 60.0549 45.1098 59.6005V55.1205C45.1098 54.5705 44.6598 54.1205 44.1098 54.1205H9.46982V21.0605C9.46982 20.5105 9.01982 20.0605 8.46982 20.0605C7.91982 20.0605 7.46982 20.5105 7.46982 21.0605V54.1205H1.56982C1.01982 54.1205 0.569824 54.5705 0.569824 55.1205V59.7105C0.569824 62.6605 2.96982 65.0605 5.91982 65.0605H48.5798C51.5998 65.0605 54.0598 62.6105 54.0598 59.5905V54.1805C54.0598 53.6306 53.6098 53.1805 53.0598 53.1805ZM5.91982 63.0605C5.03135 63.0605 4.17926 62.7076 3.55102 62.0794C2.92277 61.4511 2.56982 60.599 2.56982 59.7105V56.1205H43.1198V59.6005C43.1198 60.8905 43.5598 62.1005 44.3598 63.0705H5.91982V63.0605Z" fill="#FF746A"/>
<path d="M50.5901 6.38969H25.8501V4.18969C25.8501 2.38969 24.3901 0.929688 22.6001 0.929688H4.65014C3.78553 0.929688 2.95634 1.27315 2.34497 1.88452C1.7336 2.49589 1.39014 3.32508 1.39014 4.18969V14.5097C1.39014 16.2997 2.85014 17.7597 4.65014 17.7597H14.4901L19.5801 22.3997C19.7701 22.5697 20.0101 22.6597 20.2501 22.6597C20.3901 22.6597 20.5201 22.6297 20.6501 22.5697C21.0101 22.4097 21.2501 22.0497 21.2501 21.6597V17.7597H22.5901C24.3801 17.7597 25.8401 16.2997 25.8401 14.5097V8.38969H50.5901C51.4001 8.38969 52.0501 9.04969 52.0501 9.84969V49.1797C52.0501 49.7297 52.5001 50.1797 53.0501 50.1797C53.6001 50.1797 54.0501 49.7297 54.0501 49.1797V9.85969C54.0511 9.40458 53.9623 8.95376 53.7888 8.533C53.6154 8.11224 53.3607 7.72978 53.0394 7.40751C52.718 7.08524 52.3363 6.82947 51.9161 6.65482C51.4958 6.48018 51.0452 6.39008 50.5901 6.38969ZM23.8501 14.5197C23.8501 15.2097 23.2901 15.7697 22.6001 15.7697H20.2601C19.7101 15.7697 19.2601 16.2197 19.2601 16.7697V19.4097L15.5501 16.0297C15.3683 15.8605 15.1285 15.7675 14.8801 15.7697H4.65014C3.96014 15.7697 3.39014 15.2097 3.39014 14.5197V4.18969C3.39014 3.49969 3.95014 2.92969 4.65014 2.92969H22.6001C23.2901 2.92969 23.8501 3.48969 23.8501 4.18969V14.5197ZM15.6101 50.6697H45.9101C46.4601 50.6697 46.9101 50.2197 46.9101 49.6697C46.9101 49.1197 46.4601 48.6697 45.9101 48.6697H15.6101C15.0601 48.6697 14.6101 49.1197 14.6101 49.6697C14.6101 50.2197 15.0601 50.6697 15.6101 50.6697Z" fill="#FF746A"/>
<path d="M14.6102 39.3502C14.6102 39.9002 15.0602 40.3502 15.6102 40.3502H45.9102C46.4602 40.3502 46.9102 39.9002 46.9102 39.3502C46.9102 38.8002 46.4602 38.3502 45.9102 38.3502H15.6102C15.0602 38.3502 14.6102 38.7902 14.6102 39.3502ZM15.6102 45.5102H45.9102C46.4602 45.5102 46.9102 45.0602 46.9102 44.5102C46.9102 43.9602 46.4602 43.5102 45.9102 43.5102H15.6102C15.0602 43.5102 14.6102 43.9602 14.6102 44.5102C14.6102 45.0602 15.0602 45.5102 15.6102 45.5102ZM20.3202 34.1802C20.3202 34.7302 20.7702 35.1802 21.3202 35.1802H40.2102C40.7602 35.1802 41.2102 34.7302 41.2102 34.1802C41.2102 33.6302 40.7602 33.1802 40.2102 33.1802H21.3202C20.7702 33.1802 20.3202 33.6302 20.3202 34.1802ZM22.6802 28.5902C22.6802 29.1402 23.1302 29.5902 23.6802 29.5902H37.8502C38.4002 29.5902 38.8502 29.1402 38.8502 28.5902C38.8502 25.2602 36.8202 22.3902 33.9302 21.1502C34.6902 20.3602 35.1702 19.2802 35.1702 18.1002C35.1702 15.6702 33.1902 13.6902 30.7602 13.6902C28.3302 13.6902 26.3502 15.6702 26.3502 18.1002C26.3502 19.2902 26.8302 20.3602 27.5902 21.1502C24.7102 22.3902 22.6802 25.2602 22.6802 28.5902ZM28.3602 18.1102C28.3602 16.7802 29.4402 15.7002 30.7702 15.7002C32.1002 15.7002 33.1802 16.7802 33.1802 18.1102C33.1802 19.4402 32.1002 20.5202 30.7702 20.5202C30.1322 20.5166 29.5213 20.2615 29.0702 19.8103C28.619 19.3591 28.3639 18.7483 28.3602 18.1102ZM30.7702 22.5102C33.7802 22.5102 36.2902 24.7102 36.7702 27.5902H24.7702C25.0066 26.17 25.7395 24.8799 26.8383 23.9495C27.9371 23.0192 29.3305 22.5092 30.7702 22.5102ZM65.4302 20.1602C65.4302 18.7502 64.2802 17.6002 62.8802 17.6002H59.1702C57.7602 17.6002 56.6202 18.7502 56.6202 20.1602V54.6902C56.6202 54.7002 56.6302 54.7102 56.6302 54.7202C56.6302 54.8202 56.6502 54.9302 56.6802 55.0302L60.0902 64.4102C60.2302 64.8102 60.6102 65.0702 61.0302 65.0702C61.4502 65.0702 61.8302 64.8102 61.9702 64.4102L65.3802 55.0302C65.4202 54.9302 65.4302 54.8302 65.4302 54.7202C65.4302 54.7102 65.4402 54.7002 65.4402 54.6902L65.4302 20.1602ZM61.5102 59.8002L61.0202 61.1402L60.1302 58.7002L59.0402 55.6902H63.0002L61.5102 59.8002ZM58.6102 53.6902V26.0202H63.4302V53.6902H58.6102ZM58.6102 20.1602C58.6102 19.8502 58.8602 19.6002 59.1602 19.6002H62.8702C63.1802 19.6002 63.4202 19.8502 63.4202 20.1602V24.0202H58.6002V20.1602H58.6102ZM16.6202 6.22023L12.2802 10.5602L10.6102 8.89023C10.5176 8.79765 10.4077 8.72421 10.2868 8.67411C10.1658 8.624 10.0362 8.59821 9.90522 8.59821C9.77429 8.59821 9.64464 8.624 9.52368 8.67411C9.40272 8.72421 9.29281 8.79765 9.20022 8.89023C9.10764 8.98282 9.0342 9.09273 8.9841 9.21369C8.93399 9.33466 8.9082 9.4643 8.9082 9.59523C8.9082 9.72617 8.93399 9.85581 8.9841 9.97678C9.0342 10.0977 9.10764 10.2077 9.20022 10.3002L11.5802 12.6802C11.7802 12.8802 12.0302 12.9702 12.2902 12.9702C12.5502 12.9702 12.8002 12.8702 13.0002 12.6802L18.0502 7.63023C18.4402 7.24023 18.4402 6.61023 18.0502 6.22023C17.6602 5.83023 17.0202 5.83023 16.6202 6.22023Z" fill="#FF746A"/>
</g>
<defs>
<clipPath id="clip0_663_13398">
<rect width="66" height="66" fill="white"/>
</clipPath>
</defs>
</svg>
