<svg width="78" height="78" viewBox="0 0 78 78" fill="none" xmlns="http://www.w3.org/2000/svg">
<g clip-path="url(#clip0_298_15013)">
<path fill-rule="evenodd" clip-rule="evenodd" d="M34.7267 16.7142C33.7491 18.4093 32.3423 19.8171 30.6478 20.7959C28.9534 21.7747 27.031 22.29 25.0742 22.29C23.1174 22.29 21.1951 21.7747 19.5006 20.7959C17.8062 19.8171 16.3994 18.4093 15.4217 16.7142H5.57143C4.09379 16.7142 2.67668 16.1272 1.63183 15.0824C0.586989 14.0375 2.90573e-07 12.6204 2.90573e-07 11.1428C2.90573e-07 9.66517 0.586989 8.24805 1.63183 7.2032C2.67668 6.15836 4.09379 5.57137 5.57143 5.57137H15.4217C16.3994 3.87627 17.8062 2.46851 19.5006 1.48972C21.1951 0.510922 23.1174 -0.00439453 25.0742 -0.00439453C27.031 -0.00439453 28.9534 0.510922 30.6478 1.48972C32.3423 2.46851 33.7491 3.87627 34.7267 5.57137H59.8929C64.6952 5.57137 69.3008 7.47908 72.6965 10.8748C76.0923 14.2706 78 18.8762 78 23.6785C78 28.4808 76.0923 33.0864 72.6965 36.4822C69.3008 39.8779 64.6952 41.7857 59.8929 41.7857H57.0124C56.0352 43.4821 54.6282 44.8911 52.9332 45.8707C51.2381 46.8504 49.3149 47.3663 47.3571 47.3663C45.3994 47.3663 43.4762 46.8504 41.7811 45.8707C40.0861 44.8911 38.6791 43.4821 37.7019 41.7857H19.5C17.2835 41.7857 15.1579 42.6661 13.5906 44.2334C12.0233 45.8007 11.1429 47.9263 11.1429 50.1428C11.1429 52.3593 12.0233 54.4849 13.5906 56.0522C15.1579 57.6195 17.2835 58.4999 19.5 58.4999H20.9931C21.9712 56.8061 23.3778 55.3996 25.0717 54.4217C26.7655 53.4438 28.687 52.929 30.6429 52.929C32.5987 52.929 34.5202 53.4438 36.214 54.4217C37.9079 55.3996 39.3145 56.8061 40.2926 58.4999H61.2857V52.9285C61.2847 52.3768 61.4476 51.8373 61.7536 51.3782C62.0596 50.9192 62.4951 50.5614 63.0047 50.3501C63.5143 50.1389 64.0752 50.0837 64.6163 50.1916C65.1573 50.2995 65.6541 50.5656 66.0437 50.9562L77.1866 62.0991C77.7088 62.6215 78.0022 63.3299 78.0022 64.0686C78.0022 64.8073 77.7088 65.5157 77.1866 66.0381L66.0437 77.1809C65.6544 77.5712 65.1581 77.8372 64.6176 77.9453C64.0771 78.0534 63.5167 77.9987 63.0073 77.7881C62.4979 77.5775 62.0624 77.2206 61.7559 76.7624C61.4495 76.3042 61.2858 75.7654 61.2857 75.2142V69.6428H40.2981C39.3209 71.3392 37.9139 72.7482 36.2189 73.7279C34.5239 74.7076 32.6006 75.2234 30.6429 75.2234C28.6851 75.2234 26.7619 74.7076 25.0668 73.7279C23.3718 72.7482 21.9648 71.3392 20.9876 69.6428H19.5C16.9392 69.6428 14.4035 69.1384 12.0377 68.1585C9.67182 67.1785 7.52216 65.7421 5.71142 63.9314C3.90068 62.1206 2.46432 59.971 1.48435 57.6051C0.504382 55.2393 0 52.7036 0 50.1428C0 47.582 0.504382 45.0463 1.48435 42.6805C2.46432 40.3146 3.90068 38.165 5.71142 36.3542C7.52216 34.5435 9.67182 33.1071 12.0377 32.1271C14.4035 31.1472 16.9392 30.6428 19.5 30.6428H37.7074C38.6855 28.949 40.0921 27.5425 41.786 26.5646C43.4798 25.5867 45.4013 25.0719 47.3571 25.0719C49.313 25.0719 51.2345 25.5867 52.9283 26.5646C54.6222 27.5425 56.0288 28.949 57.0069 30.6428H59.8929C61.7399 30.6428 63.5113 29.9091 64.8174 28.603C66.1234 27.297 66.8571 25.5256 66.8571 23.6785C66.8571 21.8315 66.1234 20.0601 64.8174 18.754C63.5113 17.448 61.7399 16.7142 59.8929 16.7142H34.7267Z" fill="url(#paint0_linear_298_15013)"/>
</g>
<defs>
<linearGradient id="paint0_linear_298_15013" x1="39.0853" y1="-0.00439441" x2="39.0853" y2="77.9994" gradientUnits="userSpaceOnUse">
<stop stop-color="#FFC800" stop-opacity="0.2"/>
<stop offset="1" stop-color="#FFFEFE"/>
</linearGradient>
<clipPath id="clip0_298_15013">
<rect width="78" height="78" fill="white"/>
</clipPath>
</defs>
</svg>
