<svg width="18" height="18" viewBox="0 0 18 18" fill="none" xmlns="http://www.w3.org/2000/svg">
<path d="M2.25 14.25H3V4.77003C3.00002 4.53388 3.07435 4.30373 3.21246 4.11218C3.35057 3.92063 3.54545 3.7774 3.7695 3.70278L9.7695 1.70328C9.93859 1.64696 10.1186 1.63162 10.2948 1.65852C10.471 1.68543 10.6383 1.75381 10.7829 1.85803C10.9274 1.96225 11.0452 2.09933 11.1264 2.25798C11.2076 2.41663 11.25 2.5923 11.25 2.77053V14.25H12V7.49253C12 7.43707 12.0124 7.38231 12.0361 7.33219C12.0599 7.28207 12.0944 7.23784 12.1373 7.20269C12.1802 7.16754 12.2304 7.14234 12.2842 7.12891C12.338 7.11548 12.3941 7.11416 12.4485 7.12503L14.0955 7.45503C14.3504 7.50598 14.5799 7.64366 14.7448 7.84465C14.9096 8.04565 14.9998 8.29755 15 8.55753V14.25H15.75C15.9489 14.25 16.1397 14.329 16.2803 14.4697C16.421 14.6103 16.5 14.8011 16.5 15C16.5 15.1989 16.421 15.3897 16.2803 15.5304C16.1397 15.671 15.9489 15.75 15.75 15.75H2.25C2.05109 15.75 1.86032 15.671 1.71967 15.5304C1.57902 15.3897 1.5 15.1989 1.5 15C1.5 14.8011 1.57902 14.6103 1.71967 14.4697C1.86032 14.329 2.05109 14.25 2.25 14.25Z" fill="white"/>
</svg>
