<svg width="577" height="458" viewBox="0 0 577 458" fill="none" xmlns="http://www.w3.org/2000/svg">
<path d="M94.7518 273L48 288.808L97.4752 300.54L144 285.597L94.7518 273Z" fill="#7B3B29"/>
<path d="M97.4752 300.54L48 288.808V458H97.4752V300.54Z" fill="#CD947A"/>
<path d="M144 285.597L97.4752 300.54V458H144V285.597Z" fill="#B96A4F"/>
<path d="M471.544 108L417 137.907L474.721 160.103L529 131.832L471.544 108Z" fill="#1B4750"/>
<path d="M474.721 160.103L417 137.907V458H474.721V160.103Z" fill="#689697"/>
<path d="M529 131.832L474.721 160.103V458H529V131.832Z" fill="#427279"/>
<path d="M279.135 196L228 218.387L282.113 235.003L333 213.84L279.135 196Z" fill="#516A9B"/>
<path d="M282.113 235.003L228 218.387V458H282.113V235.003Z" fill="#A8AFCC"/>
<path d="M333 213.84L282.113 235.003V458H333V213.84Z" fill="#7C8BAE"/>
<path d="M32.8864 46V42.4545L41.1705 34.7841C41.875 34.1023 42.4659 33.4886 42.9432 32.9432C43.428 32.3977 43.7955 31.8636 44.0455 31.3409C44.2955 30.8106 44.4205 30.2386 44.4205 29.625C44.4205 28.9432 44.2652 28.3561 43.9545 27.8636C43.6439 27.3636 43.2197 26.9811 42.6818 26.7159C42.1439 26.4432 41.5341 26.3068 40.8523 26.3068C40.1402 26.3068 39.5189 26.4508 38.9886 26.7386C38.4583 27.0265 38.0492 27.4394 37.7614 27.9773C37.4735 28.5152 37.3295 29.1553 37.3295 29.8977H32.6591C32.6591 28.375 33.0038 27.053 33.6932 25.9318C34.3826 24.8106 35.3485 23.9432 36.5909 23.3295C37.8333 22.7159 39.2652 22.4091 40.8864 22.4091C42.553 22.4091 44.0038 22.7045 45.2386 23.2955C46.4811 23.8788 47.447 24.6894 48.1364 25.7273C48.8258 26.7652 49.1705 27.9545 49.1705 29.2955C49.1705 30.1742 48.9962 31.0417 48.6477 31.8977C48.3068 32.7538 47.697 33.7045 46.8182 34.75C45.9394 35.7879 44.7008 37.0341 43.1023 38.4886L39.7045 41.8182V41.9773H49.4773V46H32.8864ZM61.8476 46.5114C59.8931 46.5038 58.2113 46.0227 56.8022 45.0682C55.4006 44.1136 54.3211 42.7311 53.5635 40.9205C52.8135 39.1098 52.4423 36.9318 52.4499 34.3864C52.4499 31.8485 52.8249 29.6856 53.5749 27.8977C54.3325 26.1098 55.412 24.75 56.8135 23.8182C58.2226 22.8788 59.9006 22.4091 61.8476 22.4091C63.7946 22.4091 65.4688 22.8788 66.8703 23.8182C68.2794 24.7576 69.3628 26.1212 70.1203 27.9091C70.8779 29.6894 71.2529 31.8485 71.2453 34.3864C71.2453 36.9394 70.8666 39.1212 70.109 40.9318C69.359 42.7424 68.2832 44.125 66.8817 45.0795C65.4802 46.0341 63.8022 46.5114 61.8476 46.5114ZM61.8476 42.4318C63.1809 42.4318 64.2453 41.7614 65.0408 40.4205C65.8363 39.0795 66.2302 37.0682 66.2226 34.3864C66.2226 32.6212 66.0408 31.1515 65.6772 29.9773C65.3211 28.803 64.8135 27.9205 64.1544 27.3295C63.5029 26.7386 62.734 26.4432 61.8476 26.4432C60.5219 26.4432 59.4613 27.1061 58.6658 28.4318C57.8703 29.7576 57.4688 31.7424 57.4613 34.3864C57.4613 36.1742 57.6393 37.6667 57.9953 38.8636C58.359 40.053 58.8703 40.947 59.5294 41.5455C60.1885 42.1364 60.9613 42.4318 61.8476 42.4318ZM83.5589 46.5114C81.6043 46.5038 79.9225 46.0227 78.5134 45.0682C77.1119 44.1136 76.0323 42.7311 75.2748 40.9205C74.5248 39.1098 74.1536 36.9318 74.1611 34.3864C74.1611 31.8485 74.5361 29.6856 75.2861 27.8977C76.0437 26.1098 77.1233 24.75 78.5248 23.8182C79.9339 22.8788 81.6119 22.4091 83.5589 22.4091C85.5058 22.4091 87.1801 22.8788 88.5816 23.8182C89.9907 24.7576 91.074 26.1212 91.8316 27.9091C92.5892 29.6894 92.9642 31.8485 92.9566 34.3864C92.9566 36.9394 92.5778 39.1212 91.8202 40.9318C91.0702 42.7424 89.9945 44.125 88.593 45.0795C87.1914 46.0341 85.5134 46.5114 83.5589 46.5114ZM83.5589 42.4318C84.8922 42.4318 85.9566 41.7614 86.752 40.4205C87.5475 39.0795 87.9414 37.0682 87.9339 34.3864C87.9339 32.6212 87.752 31.1515 87.3884 29.9773C87.0323 28.803 86.5248 27.9205 85.8657 27.3295C85.2142 26.7386 84.4452 26.4432 83.5589 26.4432C82.2331 26.4432 81.1725 27.1061 80.377 28.4318C79.5816 29.7576 79.1801 31.7424 79.1725 34.3864C79.1725 36.1742 79.3505 37.6667 79.7066 38.8636C80.0702 40.053 80.5816 40.947 81.2407 41.5455C81.8998 42.1364 82.6725 42.4318 83.5589 42.4318ZM105.27 46.5114C103.316 46.5038 101.634 46.0227 100.225 45.0682C98.8231 44.1136 97.7436 42.7311 96.986 40.9205C96.236 39.1098 95.8648 36.9318 95.8724 34.3864C95.8724 31.8485 96.2474 29.6856 96.9974 27.8977C97.755 26.1098 98.8345 24.75 100.236 23.8182C101.645 22.8788 103.323 22.4091 105.27 22.4091C107.217 22.4091 108.891 22.8788 110.293 23.8182C111.702 24.7576 112.785 26.1212 113.543 27.9091C114.3 29.6894 114.675 31.8485 114.668 34.3864C114.668 36.9394 114.289 39.1212 113.531 40.9318C112.781 42.7424 111.706 44.125 110.304 45.0795C108.903 46.0341 107.225 46.5114 105.27 46.5114ZM105.27 42.4318C106.603 42.4318 107.668 41.7614 108.463 40.4205C109.259 39.0795 109.653 37.0682 109.645 34.3864C109.645 32.6212 109.463 31.1515 109.1 29.9773C108.744 28.803 108.236 27.9205 107.577 27.3295C106.925 26.7386 106.156 26.4432 105.27 26.4432C103.944 26.4432 102.884 27.1061 102.088 28.4318C101.293 29.7576 100.891 31.7424 100.884 34.3864C100.884 36.1742 101.062 37.6667 101.418 38.8636C101.781 40.053 102.293 40.947 102.952 41.5455C103.611 42.1364 104.384 42.4318 105.27 42.4318ZM124.811 42.4545V26.3636H128.879V42.4545H124.811ZM118.8 36.4432V32.375H134.89V36.4432H118.8Z" fill="#3E3E3E"/>
<path d="M39.4055 63.5078C39.3459 62.9496 39.0945 62.5149 38.6513 62.2038C38.2124 61.8928 37.6413 61.7372 36.9382 61.7372C36.4439 61.7372 36.0199 61.8118 35.6662 61.9609C35.3125 62.1101 35.0419 62.3125 34.8544 62.5682C34.6669 62.8239 34.571 63.1158 34.5668 63.4439C34.5668 63.7166 34.6286 63.9531 34.7521 64.1534C34.88 64.3537 35.0526 64.5241 35.2699 64.6648C35.4872 64.8011 35.728 64.9162 35.9922 65.0099C36.2564 65.1037 36.5227 65.1825 36.7912 65.2464L38.0185 65.5533C38.5128 65.6683 38.9879 65.8239 39.4439 66.0199C39.9041 66.2159 40.3153 66.4631 40.6776 66.7614C41.044 67.0597 41.3338 67.4197 41.5469 67.8416C41.7599 68.2635 41.8665 68.7578 41.8665 69.3246C41.8665 70.0916 41.6705 70.767 41.2784 71.3509C40.8864 71.9304 40.3196 72.3842 39.5781 72.7124C38.8409 73.0362 37.9482 73.1982 36.8999 73.1982C35.8814 73.1982 34.9972 73.0405 34.2472 72.7251C33.5014 72.4098 32.9176 71.9496 32.4957 71.3445C32.0781 70.7393 31.8523 70.0021 31.8182 69.1328H34.1513C34.1854 69.5888 34.326 69.968 34.5732 70.2706C34.8203 70.5732 35.142 70.799 35.5384 70.9482C35.9389 71.0973 36.3864 71.1719 36.8807 71.1719C37.3963 71.1719 37.848 71.0952 38.2358 70.9418C38.6278 70.7841 38.9347 70.5668 39.1562 70.2898C39.3778 70.0085 39.4908 69.6804 39.495 69.3054C39.4908 68.9645 39.3906 68.6832 39.1946 68.4616C38.9986 68.2358 38.7237 68.0483 38.37 67.8991C38.0206 67.7457 37.6115 67.6094 37.1428 67.4901L35.6534 67.1065C34.5753 66.8295 33.723 66.4098 33.0966 65.8473C32.4744 65.2805 32.1634 64.5284 32.1634 63.5909C32.1634 62.8196 32.3722 62.1442 32.7898 61.5646C33.2116 60.9851 33.7848 60.5355 34.5092 60.2159C35.2337 59.892 36.054 59.7301 36.9702 59.7301C37.8991 59.7301 38.7131 59.892 39.4119 60.2159C40.1151 60.5355 40.6669 60.9808 41.0675 61.5518C41.468 62.1186 41.6747 62.7706 41.6875 63.5078H39.4055ZM48.7811 63.1818V64.9716H43.1369V63.1818H48.7811ZM44.5304 60.8295H46.8443V70.0469C46.8443 70.358 46.8912 70.5966 46.9849 70.7628C47.0829 70.9247 47.2108 71.0355 47.3684 71.0952C47.5261 71.1548 47.7008 71.1847 47.8926 71.1847C48.0375 71.1847 48.1696 71.174 48.2889 71.1527C48.4125 71.1314 48.5062 71.1122 48.5701 71.0952L48.9601 72.9041C48.8365 72.9467 48.6596 72.9936 48.4295 73.0447C48.2037 73.0959 47.9267 73.1257 47.5985 73.1342C47.019 73.1513 46.497 73.0639 46.0325 72.8722C45.568 72.6761 45.1994 72.3736 44.9267 71.9645C44.6582 71.5554 44.5261 71.044 44.5304 70.4304V60.8295ZM56.9741 68.8707V63.1818H59.288V73H57.0444V71.255H56.9421C56.7205 71.8047 56.3562 72.2543 55.8491 72.6037C55.3462 72.9531 54.7262 73.1278 53.989 73.1278C53.3455 73.1278 52.7766 72.9851 52.2823 72.6996C51.7923 72.4098 51.4087 71.9901 51.1317 71.4403C50.8548 70.8864 50.7163 70.2173 50.7163 69.4332V63.1818H53.0302V69.0753C53.0302 69.6974 53.2006 70.1918 53.5415 70.5582C53.8825 70.9247 54.3299 71.108 54.8839 71.108C55.2248 71.108 55.555 71.0249 55.8746 70.8587C56.1942 70.6925 56.4563 70.4453 56.6609 70.1172C56.8697 69.7848 56.9741 69.3693 56.9741 68.8707ZM65.3109 73.1726C64.5396 73.1726 63.8493 72.9744 63.2399 72.5781C62.6305 72.1818 62.149 71.6065 61.7953 70.8523C61.4416 70.098 61.2647 69.1818 61.2647 68.1037C61.2647 67.0128 61.4437 66.0923 61.8017 65.3423C62.1639 64.5881 62.6518 64.0192 63.2654 63.6357C63.8791 63.2479 64.563 63.054 65.3173 63.054C65.8926 63.054 66.3656 63.152 66.7363 63.348C67.1071 63.5398 67.4011 63.772 67.6184 64.0447C67.8358 64.3132 68.0041 64.5668 68.1234 64.8054H68.2193V59.9091H70.5396V73H68.264V71.4531H68.1234C68.0041 71.6918 67.8315 71.9453 67.6056 72.2138C67.3798 72.478 67.0815 72.7038 66.7108 72.8913C66.34 73.0788 65.8734 73.1726 65.3109 73.1726ZM65.9565 71.2741C66.4466 71.2741 66.8642 71.142 67.2093 70.8778C67.5545 70.6094 67.8166 70.2365 67.9956 69.7592C68.1745 69.282 68.264 68.7259 68.264 68.0909C68.264 67.456 68.1745 66.9041 67.9956 66.4354C67.8208 65.9666 67.5609 65.6023 67.2157 65.3423C66.8748 65.0824 66.4551 64.9524 65.9565 64.9524C65.4409 64.9524 65.0105 65.0866 64.6653 65.3551C64.3201 65.6236 64.0602 65.9943 63.8855 66.4673C63.7108 66.9403 63.6234 67.4815 63.6234 68.0909C63.6234 68.7045 63.7108 69.2521 63.8855 69.7337C64.0645 70.2109 64.3265 70.5881 64.6717 70.8651C65.0211 71.1378 65.4494 71.2741 65.9565 71.2741ZM77.3519 73.1918C76.3675 73.1918 75.5174 72.9872 74.8015 72.5781C74.0898 72.1648 73.5423 71.581 73.1587 70.8267C72.7752 70.0682 72.5835 69.1754 72.5835 68.1484C72.5835 67.1385 72.7752 66.2521 73.1587 65.4893C73.5465 64.7223 74.0877 64.1257 74.7823 63.6996C75.4769 63.2692 76.293 63.054 77.2305 63.054C77.8356 63.054 78.4066 63.152 78.9435 63.348C79.4847 63.5398 79.962 63.8381 80.3754 64.2429C80.793 64.6477 81.1211 65.1634 81.3597 65.7898C81.5984 66.4119 81.7177 67.1534 81.7177 68.0142V68.7237H73.6701V67.1641H79.4996C79.4954 66.7209 79.3995 66.3267 79.212 65.9815C79.0245 65.6321 78.7624 65.3572 78.4258 65.157C78.0934 64.9567 77.7056 64.8565 77.2624 64.8565C76.7894 64.8565 76.3739 64.9716 76.016 65.2017C75.658 65.4276 75.3789 65.7259 75.1786 66.0966C74.9826 66.4631 74.8825 66.8658 74.8782 67.3047V68.6662C74.8782 69.2372 74.9826 69.7273 75.1914 70.1364C75.4002 70.5412 75.6921 70.8523 76.0671 71.0696C76.4421 71.2827 76.881 71.3892 77.3839 71.3892C77.7205 71.3892 78.0252 71.3423 78.2979 71.2486C78.5707 71.1506 78.8072 71.0078 79.0075 70.8203C79.2077 70.6328 79.359 70.4006 79.4613 70.1236L81.6218 70.3665C81.4854 70.9375 81.2255 71.4361 80.842 71.8622C80.4627 72.2841 79.9769 72.6122 79.3846 72.8466C78.7923 73.0767 78.1147 73.1918 77.3519 73.1918ZM85.9892 67.2472V73H83.6752V63.1818H85.8869V64.8501H86.002C86.2278 64.3004 86.5879 63.8636 87.0822 63.5398C87.5808 63.2159 88.1966 63.054 88.9295 63.054C89.6071 63.054 90.1973 63.1989 90.7001 63.4886C91.2072 63.7784 91.5993 64.1982 91.8762 64.7479C92.1575 65.2976 92.296 65.9645 92.2917 66.7486V73H89.9778V67.1065C89.9778 66.4503 89.8074 65.9368 89.4664 65.5661C89.1298 65.1953 88.6632 65.0099 88.0666 65.0099C87.6618 65.0099 87.3017 65.0994 86.9863 65.2784C86.6752 65.4531 86.4302 65.7067 86.2512 66.0391C86.0765 66.3714 85.9892 66.7741 85.9892 67.2472ZM99.5467 63.1818V64.9716H93.9025V63.1818H99.5467ZM95.296 60.8295H97.6099V70.0469C97.6099 70.358 97.6568 70.5966 97.7505 70.7628C97.8485 70.9247 97.9764 71.0355 98.1341 71.0952C98.2917 71.1548 98.4664 71.1847 98.6582 71.1847C98.8031 71.1847 98.9352 71.174 99.0545 71.1527C99.1781 71.1314 99.2718 71.1122 99.3358 71.0952L99.7257 72.9041C99.6021 72.9467 99.4252 72.9936 99.1951 73.0447C98.9693 73.0959 98.6923 73.1257 98.3642 73.1342C97.7846 73.1513 97.2626 73.0639 96.7981 72.8722C96.3336 72.6761 95.965 72.3736 95.6923 71.9645C95.4238 71.5554 95.2917 71.044 95.296 70.4304V60.8295ZM109.101 65.777L106.992 66.0071C106.932 65.794 106.828 65.5938 106.679 65.4062C106.534 65.2188 106.338 65.0675 106.091 64.9524C105.843 64.8374 105.541 64.7798 105.183 64.7798C104.701 64.7798 104.297 64.8842 103.968 65.093C103.645 65.3018 103.485 65.5724 103.489 65.9048C103.485 66.1903 103.589 66.4226 103.802 66.6016C104.02 66.7805 104.377 66.9276 104.876 67.0426L106.551 67.4006C107.48 67.6009 108.17 67.9183 108.622 68.353C109.078 68.7876 109.308 69.3565 109.312 70.0597C109.308 70.6776 109.127 71.223 108.769 71.696C108.415 72.1648 107.923 72.5312 107.292 72.7955C106.662 73.0597 105.937 73.1918 105.119 73.1918C103.917 73.1918 102.95 72.9403 102.217 72.4375C101.484 71.9304 101.047 71.2251 100.907 70.3217L103.163 70.1044C103.265 70.5476 103.483 70.8821 103.815 71.108C104.147 71.3338 104.58 71.4467 105.113 71.4467C105.662 71.4467 106.103 71.3338 106.436 71.108C106.772 70.8821 106.941 70.603 106.941 70.2706C106.941 69.9893 106.832 69.7571 106.615 69.5739C106.402 69.3906 106.069 69.25 105.618 69.152L103.943 68.8004C103.001 68.6044 102.304 68.2741 101.853 67.8097C101.401 67.3409 101.177 66.7486 101.181 66.0327C101.177 65.4276 101.341 64.9034 101.674 64.4602C102.01 64.0128 102.477 63.6676 103.074 63.4247C103.674 63.1776 104.367 63.054 105.151 63.054C106.301 63.054 107.207 63.299 107.868 63.7891C108.532 64.2791 108.944 64.9418 109.101 65.777ZM115.787 73V59.9091H120.696C121.702 59.9091 122.546 60.0966 123.228 60.4716C123.914 60.8466 124.431 61.3622 124.781 62.0185C125.135 62.6705 125.311 63.4119 125.311 64.2429C125.311 65.0824 125.135 65.8281 124.781 66.4801C124.427 67.1321 123.905 67.6456 123.215 68.0206C122.525 68.3913 121.674 68.5767 120.664 68.5767H117.411V66.6271H120.345C120.933 66.6271 121.414 66.5249 121.789 66.3203C122.164 66.1158 122.441 65.8345 122.62 65.4766C122.804 65.1186 122.895 64.7074 122.895 64.2429C122.895 63.7784 122.804 63.3693 122.62 63.0156C122.441 62.6619 122.162 62.3871 121.783 62.1911C121.408 61.9908 120.924 61.8906 120.332 61.8906H118.159V73H115.787ZM129.583 59.9091V73H127.269V59.9091H129.583ZM134.788 73.1982C134.165 73.1982 133.605 73.0874 133.107 72.8658C132.612 72.6399 132.22 72.3075 131.93 71.8686C131.645 71.4297 131.502 70.8885 131.502 70.245C131.502 69.6911 131.604 69.233 131.809 68.8707C132.013 68.5085 132.293 68.2188 132.646 68.0014C133 67.7841 133.398 67.62 133.842 67.5092C134.289 67.3942 134.751 67.3111 135.229 67.2599C135.804 67.2003 136.271 67.147 136.629 67.1001C136.987 67.049 137.246 66.9723 137.408 66.87C137.575 66.7635 137.658 66.5994 137.658 66.3778V66.3395C137.658 65.858 137.515 65.4851 137.229 65.2209C136.944 64.9567 136.533 64.8246 135.996 64.8246C135.429 64.8246 134.979 64.9482 134.647 65.1953C134.319 65.4425 134.097 65.7344 133.982 66.071L131.822 65.7642C131.992 65.1676 132.273 64.669 132.665 64.2685C133.058 63.8636 133.537 63.5611 134.104 63.3608C134.67 63.1562 135.297 63.054 135.983 63.054C136.456 63.054 136.927 63.1094 137.396 63.2202C137.864 63.331 138.293 63.5142 138.68 63.7699C139.068 64.0213 139.379 64.3643 139.614 64.799C139.852 65.2337 139.972 65.777 139.972 66.429V73H137.747V71.6513H137.67C137.53 71.924 137.332 72.1797 137.076 72.4183C136.825 72.6527 136.507 72.8423 136.124 72.9872C135.744 73.1278 135.299 73.1982 134.788 73.1982ZM135.388 71.4979C135.853 71.4979 136.256 71.4062 136.597 71.223C136.938 71.0355 137.2 70.7884 137.383 70.4815C137.57 70.1747 137.664 69.8402 137.664 69.478V68.321C137.592 68.3807 137.468 68.4361 137.293 68.4872C137.123 68.5384 136.931 68.5831 136.718 68.6214C136.505 68.6598 136.294 68.6939 136.085 68.7237C135.876 68.7536 135.695 68.7791 135.542 68.8004C135.197 68.8473 134.888 68.924 134.615 69.0305C134.342 69.1371 134.127 69.2862 133.969 69.478C133.812 69.6655 133.733 69.9084 133.733 70.2067C133.733 70.6328 133.888 70.9545 134.2 71.1719C134.511 71.3892 134.907 71.4979 135.388 71.4979ZM146.581 73.1918C145.601 73.1918 144.759 72.9766 144.056 72.5462C143.357 72.1158 142.818 71.5213 142.439 70.7628C142.064 70 141.876 69.1222 141.876 68.1293C141.876 67.1321 142.068 66.2521 142.452 65.4893C142.835 64.7223 143.376 64.1257 144.075 63.6996C144.778 63.2692 145.609 63.054 146.568 63.054C147.365 63.054 148.07 63.201 148.684 63.495C149.302 63.7848 149.794 64.196 150.161 64.7287C150.527 65.2571 150.736 65.875 150.787 66.5824H148.575C148.486 66.1094 148.273 65.7152 147.936 65.3999C147.604 65.0803 147.158 64.9205 146.6 64.9205C146.127 64.9205 145.712 65.0483 145.354 65.304C144.996 65.5554 144.717 65.9176 144.516 66.3906C144.32 66.8636 144.222 67.4304 144.222 68.0909C144.222 68.7599 144.32 69.3352 144.516 69.8168C144.712 70.294 144.987 70.6626 145.341 70.9226C145.699 71.1783 146.119 71.3061 146.6 71.3061C146.941 71.3061 147.246 71.2422 147.514 71.1143C147.787 70.9822 148.015 70.7926 148.198 70.5455C148.381 70.2983 148.507 69.9979 148.575 69.6442H150.787C150.732 70.3388 150.527 70.9545 150.173 71.4915C149.82 72.0241 149.338 72.4418 148.729 72.7443C148.119 73.0426 147.403 73.1918 146.581 73.1918ZM157.034 73.1918C156.049 73.1918 155.199 72.9872 154.483 72.5781C153.771 72.1648 153.224 71.581 152.84 70.8267C152.457 70.0682 152.265 69.1754 152.265 68.1484C152.265 67.1385 152.457 66.2521 152.84 65.4893C153.228 64.7223 153.769 64.1257 154.464 63.6996C155.159 63.2692 155.975 63.054 156.912 63.054C157.517 63.054 158.088 63.152 158.625 63.348C159.166 63.5398 159.644 63.8381 160.057 64.2429C160.475 64.6477 160.803 65.1634 161.041 65.7898C161.28 66.4119 161.399 67.1534 161.399 68.0142V68.7237H153.352V67.1641H159.181C159.177 66.7209 159.081 66.3267 158.894 65.9815C158.706 65.6321 158.444 65.3572 158.107 65.157C157.775 64.9567 157.387 64.8565 156.944 64.8565C156.471 64.8565 156.056 64.9716 155.698 65.2017C155.34 65.4276 155.061 65.7259 154.86 66.0966C154.664 66.4631 154.564 66.8658 154.56 67.3047V68.6662C154.56 69.2372 154.664 69.7273 154.873 70.1364C155.082 70.5412 155.374 70.8523 155.749 71.0696C156.124 71.2827 156.563 71.3892 157.066 71.3892C157.402 71.3892 157.707 71.3423 157.98 71.2486C158.252 71.1506 158.489 71.0078 158.689 70.8203C158.889 70.6328 159.041 70.4006 159.143 70.1236L161.303 70.3665C161.167 70.9375 160.907 71.4361 160.524 71.8622C160.144 72.2841 159.659 72.6122 159.066 72.8466C158.474 73.0767 157.796 73.1918 157.034 73.1918ZM167 73.1726C166.229 73.1726 165.539 72.9744 164.929 72.5781C164.32 72.1818 163.838 71.6065 163.485 70.8523C163.131 70.098 162.954 69.1818 162.954 68.1037C162.954 67.0128 163.133 66.0923 163.491 65.3423C163.853 64.5881 164.341 64.0192 164.955 63.6357C165.569 63.2479 166.252 63.054 167.007 63.054C167.582 63.054 168.055 63.152 168.426 63.348C168.797 63.5398 169.091 63.772 169.308 64.0447C169.525 64.3132 169.694 64.5668 169.813 64.8054H169.909V59.9091H172.229V73H169.953V71.4531H169.813C169.694 71.6918 169.521 71.9453 169.295 72.2138C169.069 72.478 168.771 72.7038 168.4 72.8913C168.029 73.0788 167.563 73.1726 167 73.1726ZM167.646 71.2741C168.136 71.2741 168.554 71.142 168.899 70.8778C169.244 70.6094 169.506 70.2365 169.685 69.7592C169.864 69.282 169.953 68.7259 169.953 68.0909C169.953 67.456 169.864 66.9041 169.685 66.4354C169.51 65.9666 169.25 65.6023 168.905 65.3423C168.564 65.0824 168.145 64.9524 167.646 64.9524C167.13 64.9524 166.7 65.0866 166.355 65.3551C166.01 65.6236 165.75 65.9943 165.575 66.4673C165.4 66.9403 165.313 67.4815 165.313 68.0909C165.313 68.7045 165.4 69.2521 165.575 69.7337C165.754 70.2109 166.016 70.5881 166.361 70.8651C166.711 71.1378 167.139 71.2741 167.646 71.2741Z" fill="#454444"/>
<path d="M52.4652 232.229C51.3108 232.229 50.2817 232.016 49.3778 231.592C48.4794 231.167 47.7661 230.582 47.2379 229.836C46.7098 229.09 46.4348 228.235 46.413 227.271H49.8434C49.8815 227.919 50.1538 228.444 50.6602 228.847C51.1665 229.25 51.7682 229.452 52.4652 229.452C53.0206 229.452 53.5107 229.329 53.9354 229.084C54.3655 228.834 54.7004 228.488 54.94 228.047C55.185 227.6 55.3075 227.089 55.3075 226.511C55.3075 225.923 55.1823 225.406 54.9318 224.96C54.6868 224.513 54.3465 224.165 53.9109 223.914C53.4753 223.664 52.977 223.536 52.4162 223.53C51.9261 223.53 51.4497 223.631 50.9869 223.832C50.5295 224.034 50.1728 224.309 49.9169 224.657L46.7724 224.094L47.5646 215.273H57.7905V218.164H50.4805L50.0476 222.354H50.1456C50.4396 221.94 50.8834 221.597 51.4769 221.325C52.0704 221.053 52.7347 220.917 53.4698 220.917C54.4772 220.917 55.3756 221.153 56.1651 221.627C56.9547 222.101 57.5781 222.752 58.0355 223.579C58.4929 224.401 58.7189 225.349 58.7134 226.422C58.7189 227.549 58.4575 228.551 57.9293 229.427C57.4066 230.298 56.6742 230.984 55.7322 231.485C54.7957 231.981 53.7067 232.229 52.4652 232.229ZM66.1413 232V215.273H69.6779V229.084H76.849V232H66.1413ZM82.4732 232.237C81.6728 232.237 80.9594 232.098 80.3333 231.82C79.7071 231.537 79.2116 231.121 78.8468 230.571C78.4874 230.015 78.3077 229.324 78.3077 228.496C78.3077 227.799 78.4357 227.214 78.6916 226.74C78.9475 226.266 79.296 225.885 79.737 225.597C80.1781 225.308 80.679 225.09 81.2399 224.943C81.8062 224.796 82.3997 224.693 83.0204 224.633C83.75 224.557 84.3381 224.486 84.7846 224.42C85.2311 224.35 85.5551 224.246 85.7566 224.11C85.958 223.974 86.0588 223.772 86.0588 223.506V223.457C86.0588 222.939 85.8954 222.539 85.5687 222.256C85.2474 221.973 84.7901 221.831 84.1965 221.831C83.5704 221.831 83.0721 221.97 82.7019 222.248C82.3316 222.52 82.0866 222.863 81.9668 223.277L78.7487 223.016C78.9121 222.253 79.2334 221.594 79.7125 221.039C80.1917 220.478 80.8097 220.048 81.5666 219.749C82.3289 219.444 83.211 219.291 84.2129 219.291C84.9098 219.291 85.5769 219.373 86.2139 219.536C86.8565 219.7 87.4255 219.953 87.921 220.296C88.4219 220.639 88.8167 221.08 89.1053 221.619C89.3939 222.153 89.5382 222.792 89.5382 223.538V232H86.2384V230.26H86.1404C85.939 230.652 85.6694 230.998 85.3318 231.298C84.9942 231.592 84.5886 231.823 84.1149 231.992C83.6411 232.155 83.0939 232.237 82.4732 232.237ZM83.4696 229.836C83.9815 229.836 84.4334 229.735 84.8254 229.533C85.2175 229.326 85.5251 229.049 85.7484 228.7C85.9716 228.352 86.0833 227.957 86.0833 227.516V226.185C85.9744 226.255 85.8246 226.321 85.634 226.381C85.4489 226.435 85.2393 226.487 85.0051 226.536C84.771 226.579 84.5369 226.62 84.3027 226.658C84.0686 226.691 83.8562 226.721 83.6656 226.748C83.2573 226.808 82.9006 226.903 82.5957 227.034C82.2908 227.165 82.0539 227.342 81.8851 227.565C81.7163 227.783 81.6319 228.055 81.6319 228.382C81.6319 228.855 81.8034 229.218 82.1465 229.468C82.495 229.713 82.936 229.836 83.4696 229.836ZM95.1603 228.39L95.1684 224.216H95.6748L99.6933 219.455H103.687L98.2885 225.76H97.4635L95.1603 228.39ZM92.0076 232V215.273H95.487V232H92.0076ZM99.8485 232L96.1567 226.536L98.4763 224.077L103.924 232H99.8485ZM108.644 224.747V232H105.164V215.273H108.546V221.668H108.693C108.976 220.927 109.433 220.348 110.065 219.928C110.696 219.504 111.489 219.291 112.442 219.291C113.313 219.291 114.072 219.482 114.72 219.863C115.374 220.239 115.88 220.78 116.24 221.488C116.604 222.191 116.784 223.032 116.779 224.012V232H113.299V224.633C113.305 223.86 113.109 223.258 112.711 222.828C112.319 222.398 111.769 222.183 111.061 222.183C110.588 222.183 110.168 222.283 109.803 222.485C109.444 222.686 109.161 222.98 108.954 223.367C108.753 223.748 108.649 224.208 108.644 224.747ZM129.725 223.032L126.54 223.228C126.485 222.956 126.368 222.711 126.188 222.493C126.009 222.27 125.772 222.093 125.478 221.962C125.189 221.826 124.844 221.758 124.441 221.758C123.902 221.758 123.447 221.872 123.077 222.101C122.706 222.324 122.521 222.624 122.521 222.999C122.521 223.299 122.641 223.552 122.881 223.759C123.12 223.966 123.531 224.132 124.114 224.257L126.384 224.714C127.604 224.965 128.513 225.368 129.112 225.923C129.711 226.479 130.011 227.208 130.011 228.112C130.011 228.934 129.769 229.656 129.284 230.277C128.805 230.897 128.146 231.382 127.307 231.73C126.474 232.074 125.513 232.245 124.424 232.245C122.763 232.245 121.44 231.899 120.455 231.208C119.475 230.511 118.9 229.563 118.731 228.365L122.154 228.186C122.257 228.692 122.508 229.079 122.905 229.346C123.303 229.607 123.812 229.738 124.432 229.738C125.042 229.738 125.532 229.621 125.903 229.386C126.278 229.147 126.469 228.839 126.474 228.463C126.469 228.148 126.335 227.889 126.074 227.688C125.813 227.481 125.41 227.323 124.865 227.214L122.693 226.781C121.468 226.536 120.556 226.111 119.957 225.507C119.363 224.902 119.066 224.132 119.066 223.195C119.066 222.389 119.284 221.695 119.72 221.113C120.161 220.53 120.779 220.081 121.574 219.765C122.374 219.449 123.311 219.291 124.383 219.291C125.968 219.291 127.215 219.626 128.124 220.296C129.039 220.966 129.573 221.878 129.725 223.032Z" fill="#3E3E3E"/>
<path d="M46.076 254V243.091H48.0522V252.343H52.8569V254H46.076ZM58.0558 254.16C57.2567 254.16 56.5643 253.984 55.9783 253.632C55.3924 253.281 54.9379 252.789 54.6147 252.157C54.2951 251.525 54.1353 250.786 54.1353 249.941C54.1353 249.096 54.2951 248.355 54.6147 247.72C54.9379 247.084 55.3924 246.591 55.9783 246.239C56.5643 245.887 57.2567 245.712 58.0558 245.712C58.8548 245.712 59.5472 245.887 60.1332 246.239C60.7191 246.591 61.1719 247.084 61.4915 247.72C61.8146 248.355 61.9762 249.096 61.9762 249.941C61.9762 250.786 61.8146 251.525 61.4915 252.157C61.1719 252.789 60.7191 253.281 60.1332 253.632C59.5472 253.984 58.8548 254.16 58.0558 254.16ZM58.0664 252.615C58.4996 252.615 58.8619 252.496 59.1531 252.258C59.4442 252.017 59.6609 251.694 59.8029 251.289C59.9485 250.884 60.0213 250.433 60.0213 249.936C60.0213 249.435 59.9485 248.982 59.8029 248.577C59.6609 248.169 59.4442 247.844 59.1531 247.603C58.8619 247.361 58.4996 247.24 58.0664 247.24C57.6225 247.24 57.2532 247.361 56.9585 247.603C56.6673 247.844 56.4489 248.169 56.3033 248.577C56.1612 248.982 56.0902 249.435 56.0902 249.936C56.0902 250.433 56.1612 250.884 56.3033 251.289C56.4489 251.694 56.6673 252.017 56.9585 252.258C57.2532 252.496 57.6225 252.615 58.0664 252.615ZM65.067 254L62.7552 245.818H64.7208L66.159 251.571H66.2336L67.7037 245.818H69.648L71.1182 251.539H71.1981L72.615 245.818H74.5858L72.2687 254H70.2606L68.7265 248.471H68.6146L67.0805 254H65.067ZM79.32 254.16C78.4996 254.16 77.7912 253.989 77.1946 253.648C76.6016 253.304 76.1452 252.817 75.8256 252.189C75.506 251.557 75.3462 250.813 75.3462 249.957C75.3462 249.115 75.506 248.377 75.8256 247.741C76.1488 247.102 76.5998 246.605 77.1786 246.25C77.7575 245.891 78.4375 245.712 79.2188 245.712C79.723 245.712 80.1989 245.793 80.6463 245.957C81.0973 246.116 81.495 246.365 81.8395 246.702C82.1875 247.04 82.4609 247.469 82.6598 247.991C82.8587 248.51 82.9581 249.128 82.9581 249.845V250.436H76.2518V249.137H81.1097C81.1062 248.767 81.0263 248.439 80.87 248.151C80.7138 247.86 80.4954 247.631 80.2148 247.464C79.9379 247.297 79.6147 247.214 79.2454 247.214C78.8512 247.214 78.505 247.31 78.2067 247.501C77.9084 247.69 77.6758 247.938 77.5089 248.247C77.3455 248.553 77.2621 248.888 77.2585 249.254V250.388C77.2585 250.864 77.3455 251.273 77.5195 251.614C77.6935 251.951 77.9368 252.21 78.2493 252.391C78.5618 252.569 78.9276 252.658 79.3466 252.658C79.6271 252.658 79.881 252.619 80.1083 252.54C80.3356 252.459 80.5327 252.34 80.6996 252.184C80.8665 252.027 80.9925 251.834 81.0778 251.603L82.8782 251.805C82.7646 252.281 82.5479 252.697 82.2283 253.052C81.9123 253.403 81.5075 253.677 81.0138 253.872C80.5202 254.064 79.9556 254.16 79.32 254.16ZM91.056 247.981L89.2982 248.173C89.2485 247.995 89.1615 247.828 89.0372 247.672C88.9165 247.516 88.7531 247.39 88.5471 247.294C88.3412 247.198 88.089 247.15 87.7907 247.15C87.3895 247.15 87.0521 247.237 86.7787 247.411C86.5088 247.585 86.3756 247.81 86.3792 248.087C86.3756 248.325 86.4626 248.519 86.6402 248.668C86.8213 248.817 87.1196 248.94 87.5351 249.036L88.9307 249.334C89.7048 249.501 90.2801 249.765 90.6565 250.127C91.0365 250.49 91.2282 250.964 91.2318 251.55C91.2282 252.065 91.0773 252.519 90.779 252.913C90.4843 253.304 90.0741 253.609 89.5486 253.83C89.023 254.05 88.4193 254.16 87.7375 254.16C86.7361 254.16 85.93 253.95 85.3192 253.531C84.7084 253.109 84.3444 252.521 84.2272 251.768L86.1075 251.587C86.1927 251.956 86.3738 252.235 86.6508 252.423C86.9278 252.612 87.2883 252.706 87.7322 252.706C88.1903 252.706 88.5578 252.612 88.8348 252.423C89.1153 252.235 89.2556 252.002 89.2556 251.725C89.2556 251.491 89.165 251.298 88.9839 251.145C88.8064 250.992 88.5294 250.875 88.153 250.793L86.7574 250.5C85.9726 250.337 85.392 250.062 85.0155 249.675C84.6391 249.284 84.4527 248.79 84.4562 248.194C84.4527 247.69 84.5894 247.253 84.8664 246.884C85.1469 246.511 85.5358 246.223 86.0329 246.021C86.5336 245.815 87.1107 245.712 87.7641 245.712C88.7229 245.712 89.4775 245.916 90.028 246.324C90.5819 246.733 90.9246 247.285 91.056 247.981ZM96.9074 245.818V247.31H92.2039V245.818H96.9074ZM93.3651 243.858H95.2934V251.539C95.2934 251.798 95.3325 251.997 95.4106 252.136C95.4923 252.271 95.5988 252.363 95.7302 252.413C95.8616 252.462 96.0072 252.487 96.167 252.487C96.2877 252.487 96.3978 252.478 96.4972 252.461C96.6002 252.443 96.6784 252.427 96.7316 252.413L97.0566 253.92C96.9536 253.956 96.8062 253.995 96.6144 254.037C96.4262 254.08 96.1954 254.105 95.922 254.112C95.439 254.126 95.004 254.053 94.6169 253.893C94.2298 253.73 93.9227 253.478 93.6954 253.137C93.4717 252.796 93.3616 252.37 93.3651 251.859V243.858ZM108.255 246.09C108.205 245.625 107.995 245.262 107.626 245.003C107.26 244.744 106.784 244.614 106.199 244.614C105.787 244.614 105.433 244.676 105.138 244.801C104.844 244.925 104.618 245.094 104.462 245.307C104.306 245.52 104.226 245.763 104.222 246.037C104.222 246.264 104.274 246.461 104.377 246.628C104.483 246.795 104.627 246.937 104.808 247.054C104.989 247.168 105.19 247.263 105.41 247.342C105.63 247.42 105.852 247.485 106.076 247.539L107.099 247.794C107.511 247.89 107.907 248.02 108.287 248.183C108.67 248.347 109.013 248.553 109.315 248.801C109.62 249.05 109.862 249.35 110.039 249.701C110.217 250.053 110.305 250.465 110.305 250.937C110.305 251.576 110.142 252.139 109.815 252.626C109.489 253.109 109.016 253.487 108.398 253.76C107.784 254.03 107.04 254.165 106.167 254.165C105.318 254.165 104.581 254.034 103.956 253.771C103.335 253.508 102.848 253.125 102.496 252.62C102.148 252.116 101.96 251.502 101.932 250.777H103.876C103.904 251.157 104.022 251.473 104.228 251.725C104.434 251.978 104.702 252.166 105.032 252.29C105.366 252.414 105.739 252.477 106.151 252.477C106.58 252.477 106.957 252.413 107.28 252.285C107.607 252.153 107.862 251.972 108.047 251.741C108.232 251.507 108.326 251.234 108.329 250.921C108.326 250.637 108.242 250.403 108.079 250.218C107.915 250.03 107.686 249.874 107.392 249.749C107.1 249.621 106.76 249.508 106.369 249.408L105.128 249.089C104.229 248.858 103.519 248.508 102.997 248.039C102.479 247.567 102.219 246.94 102.219 246.159C102.219 245.516 102.393 244.953 102.741 244.471C103.093 243.988 103.571 243.613 104.174 243.347C104.778 243.077 105.462 242.942 106.225 242.942C106.999 242.942 107.678 243.077 108.26 243.347C108.846 243.613 109.306 243.984 109.64 244.46C109.973 244.932 110.146 245.475 110.156 246.09H108.255ZM114.336 254.165C113.818 254.165 113.351 254.073 112.935 253.888C112.524 253.7 112.197 253.423 111.955 253.057C111.717 252.691 111.598 252.24 111.598 251.704C111.598 251.243 111.684 250.861 111.854 250.559C112.025 250.257 112.257 250.016 112.552 249.835C112.847 249.653 113.179 249.517 113.548 249.424C113.921 249.328 114.306 249.259 114.704 249.217C115.183 249.167 115.572 249.123 115.87 249.083C116.169 249.041 116.385 248.977 116.52 248.892C116.659 248.803 116.728 248.666 116.728 248.482V248.45C116.728 248.048 116.609 247.738 116.371 247.517C116.133 247.297 115.791 247.187 115.343 247.187C114.871 247.187 114.496 247.29 114.219 247.496C113.946 247.702 113.761 247.945 113.665 248.226L111.865 247.97C112.007 247.473 112.241 247.058 112.568 246.724C112.895 246.386 113.294 246.134 113.766 245.967C114.239 245.797 114.761 245.712 115.332 245.712C115.727 245.712 116.119 245.758 116.51 245.85C116.9 245.942 117.257 246.095 117.58 246.308C117.903 246.518 118.163 246.804 118.358 247.166C118.557 247.528 118.656 247.981 118.656 248.524V254H116.803V252.876H116.739C116.622 253.103 116.456 253.316 116.243 253.515C116.034 253.711 115.769 253.869 115.45 253.989C115.134 254.107 114.763 254.165 114.336 254.165ZM114.837 252.748C115.224 252.748 115.56 252.672 115.844 252.519C116.128 252.363 116.346 252.157 116.499 251.901C116.655 251.646 116.733 251.367 116.733 251.065V250.101C116.673 250.151 116.57 250.197 116.424 250.239C116.282 250.282 116.123 250.319 115.945 250.351C115.767 250.383 115.592 250.412 115.418 250.436C115.244 250.461 115.093 250.483 114.965 250.5C114.677 250.539 114.42 250.603 114.193 250.692C113.965 250.781 113.786 250.905 113.655 251.065C113.523 251.221 113.457 251.424 113.457 251.672C113.457 252.027 113.587 252.295 113.846 252.477C114.106 252.658 114.436 252.748 114.837 252.748ZM122.524 243.091V254H120.595V243.091H122.524ZM126.861 254.165C126.342 254.165 125.875 254.073 125.46 253.888C125.048 253.7 124.721 253.423 124.48 253.057C124.242 252.691 124.123 252.24 124.123 251.704C124.123 251.243 124.208 250.861 124.379 250.559C124.549 250.257 124.782 250.016 125.076 249.835C125.371 249.653 125.703 249.517 126.072 249.424C126.445 249.328 126.831 249.259 127.228 249.217C127.708 249.167 128.097 249.123 128.395 249.083C128.693 249.041 128.91 248.977 129.045 248.892C129.183 248.803 129.252 248.666 129.252 248.482V248.45C129.252 248.048 129.134 247.738 128.896 247.517C128.658 247.297 128.315 247.187 127.868 247.187C127.395 247.187 127.021 247.29 126.744 247.496C126.47 247.702 126.286 247.945 126.19 248.226L124.389 247.97C124.531 247.473 124.766 247.058 125.092 246.724C125.419 246.386 125.819 246.134 126.291 245.967C126.763 245.797 127.285 245.712 127.857 245.712C128.251 245.712 128.643 245.758 129.034 245.85C129.425 245.942 129.782 246.095 130.105 246.308C130.428 246.518 130.687 246.804 130.882 247.166C131.081 247.528 131.181 247.981 131.181 248.524V254H129.327V252.876H129.263C129.146 253.103 128.981 253.316 128.768 253.515C128.558 253.711 128.294 253.869 127.974 253.989C127.658 254.107 127.287 254.165 126.861 254.165ZM127.362 252.748C127.749 252.748 128.084 252.672 128.368 252.519C128.652 252.363 128.871 252.157 129.023 251.901C129.18 251.646 129.258 251.367 129.258 251.065V250.101C129.197 250.151 129.094 250.197 128.949 250.239C128.807 250.282 128.647 250.319 128.469 250.351C128.292 250.383 128.116 250.412 127.942 250.436C127.768 250.461 127.617 250.483 127.489 250.5C127.202 250.539 126.944 250.603 126.717 250.692C126.49 250.781 126.31 250.905 126.179 251.065C126.048 251.221 125.982 251.424 125.982 251.672C125.982 252.027 126.112 252.295 126.371 252.477C126.63 252.658 126.96 252.748 127.362 252.748ZM133.12 254V245.818H134.989V247.182H135.075C135.224 246.71 135.479 246.346 135.842 246.09C136.207 245.831 136.625 245.701 137.093 245.701C137.2 245.701 137.319 245.706 137.45 245.717C137.585 245.724 137.697 245.737 137.786 245.754V247.528C137.704 247.5 137.575 247.475 137.397 247.453C137.223 247.429 137.054 247.416 136.891 247.416C136.539 247.416 136.223 247.493 135.943 247.645C135.666 247.794 135.447 248.002 135.288 248.268C135.128 248.535 135.048 248.842 135.048 249.19V254H133.12ZM140.514 257.068C140.252 257.068 140.008 257.047 139.785 257.004C139.565 256.965 139.389 256.919 139.257 256.866L139.705 255.364C139.985 255.445 140.236 255.484 140.456 255.481C140.676 255.477 140.87 255.408 141.036 255.273C141.207 255.142 141.351 254.922 141.468 254.613L141.633 254.17L138.666 245.818H140.712L142.597 251.997H142.682L144.573 245.818H146.624L143.348 254.991C143.196 255.424 142.993 255.795 142.741 256.104C142.489 256.417 142.18 256.654 141.814 256.818C141.452 256.985 141.019 257.068 140.514 257.068Z" fill="#454444"/>
<path d="M233.596 155.229C232.338 155.229 231.219 155.025 230.239 154.616C229.264 154.202 228.499 153.639 227.944 152.925C227.388 152.212 227.111 151.404 227.111 150.5C227.111 149.803 227.269 149.163 227.585 148.58C227.906 147.992 228.341 147.505 228.891 147.118C229.441 146.726 230.057 146.476 230.737 146.367V146.252C229.844 146.073 229.12 145.64 228.565 144.954C228.009 144.262 227.732 143.459 227.732 142.544C227.732 141.679 227.985 140.908 228.491 140.233C228.998 139.552 229.692 139.019 230.574 138.632C231.461 138.24 232.469 138.044 233.596 138.044C234.723 138.044 235.728 138.24 236.61 138.632C237.497 139.024 238.194 139.56 238.701 140.241C239.207 140.916 239.463 141.684 239.468 142.544C239.463 143.465 239.18 144.268 238.619 144.954C238.058 145.64 237.339 146.073 236.463 146.252V146.367C237.132 146.476 237.74 146.726 238.284 147.118C238.834 147.505 239.27 147.992 239.591 148.58C239.918 149.163 240.084 149.803 240.089 150.5C240.084 151.404 239.803 152.212 239.248 152.925C238.692 153.639 237.925 154.202 236.945 154.616C235.97 155.025 234.854 155.229 233.596 155.229ZM233.596 152.631C234.157 152.631 234.647 152.531 235.066 152.329C235.485 152.122 235.812 151.839 236.046 151.48C236.286 151.115 236.406 150.696 236.406 150.222C236.406 149.737 236.283 149.31 236.038 148.94C235.793 148.564 235.461 148.27 235.042 148.058C234.622 147.84 234.14 147.731 233.596 147.731C233.057 147.731 232.575 147.84 232.15 148.058C231.725 148.27 231.391 148.564 231.146 148.94C230.906 149.31 230.786 149.737 230.786 150.222C230.786 150.696 230.903 151.115 231.137 151.48C231.372 151.839 231.701 152.122 232.126 152.329C232.55 152.531 233.04 152.631 233.596 152.631ZM233.596 145.158C234.064 145.158 234.481 145.063 234.846 144.872C235.21 144.682 235.496 144.417 235.703 144.08C235.91 143.742 236.013 143.353 236.013 142.912C236.013 142.476 235.91 142.095 235.703 141.768C235.496 141.436 235.213 141.178 234.854 140.993C234.494 140.802 234.075 140.707 233.596 140.707C233.122 140.707 232.703 140.802 232.338 140.993C231.973 141.178 231.687 141.436 231.48 141.768C231.279 142.095 231.178 142.476 231.178 142.912C231.178 143.353 231.282 143.742 231.489 144.08C231.696 144.417 231.981 144.682 232.346 144.872C232.711 145.063 233.128 145.158 233.596 145.158ZM247.523 155V138.273H251.06V152.084H258.231V155H247.523ZM263.855 155.237C263.055 155.237 262.341 155.098 261.715 154.82C261.089 154.537 260.593 154.121 260.229 153.571C259.869 153.015 259.69 152.324 259.69 151.496C259.69 150.799 259.817 150.214 260.073 149.74C260.329 149.266 260.678 148.885 261.119 148.597C261.56 148.308 262.061 148.09 262.622 147.943C263.188 147.796 263.782 147.693 264.402 147.633C265.132 147.557 265.72 147.486 266.166 147.42C266.613 147.35 266.937 147.246 267.138 147.11C267.34 146.974 267.441 146.772 267.441 146.506V146.457C267.441 145.939 267.277 145.539 266.951 145.256C266.629 144.973 266.172 144.831 265.578 144.831C264.952 144.831 264.454 144.97 264.084 145.248C263.713 145.52 263.468 145.863 263.349 146.277L260.131 146.016C260.294 145.253 260.615 144.594 261.094 144.039C261.574 143.478 262.192 143.048 262.948 142.749C263.711 142.444 264.593 142.291 265.595 142.291C266.292 142.291 266.959 142.373 267.596 142.536C268.238 142.7 268.807 142.953 269.303 143.296C269.804 143.639 270.199 144.08 270.487 144.619C270.776 145.153 270.92 145.792 270.92 146.538V155H267.62V153.26H267.522C267.321 153.652 267.051 153.998 266.714 154.298C266.376 154.592 265.97 154.823 265.497 154.992C265.023 155.155 264.476 155.237 263.855 155.237ZM264.851 152.836C265.363 152.836 265.815 152.735 266.207 152.533C266.599 152.326 266.907 152.049 267.13 151.7C267.353 151.352 267.465 150.957 267.465 150.516V149.185C267.356 149.255 267.206 149.321 267.016 149.381C266.831 149.435 266.621 149.487 266.387 149.536C266.153 149.579 265.919 149.62 265.685 149.658C265.45 149.691 265.238 149.721 265.047 149.748C264.639 149.808 264.282 149.903 263.978 150.034C263.673 150.165 263.436 150.342 263.267 150.565C263.098 150.783 263.014 151.055 263.014 151.382C263.014 151.855 263.185 152.218 263.528 152.468C263.877 152.713 264.318 152.836 264.851 152.836ZM276.542 151.39L276.55 147.216H277.057L281.075 142.455H285.069L279.67 148.76H278.845L276.542 151.39ZM273.389 155V138.273H276.869V155H273.389ZM281.23 155L277.539 149.536L279.858 147.077L285.306 155H281.23ZM290.026 147.747V155H286.546V138.273H289.928V144.668H290.075C290.358 143.927 290.815 143.348 291.447 142.928C292.078 142.504 292.871 142.291 293.823 142.291C294.695 142.291 295.454 142.482 296.102 142.863C296.756 143.239 297.262 143.78 297.621 144.488C297.986 145.191 298.166 146.032 298.16 147.012V155H294.681V147.633C294.686 146.86 294.49 146.258 294.093 145.828C293.701 145.398 293.151 145.183 292.443 145.183C291.969 145.183 291.55 145.283 291.185 145.485C290.826 145.686 290.543 145.98 290.336 146.367C290.134 146.748 290.031 147.208 290.026 147.747ZM311.107 146.032L307.921 146.228C307.867 145.956 307.75 145.711 307.57 145.493C307.391 145.27 307.154 145.093 306.86 144.962C306.571 144.826 306.225 144.758 305.822 144.758C305.283 144.758 304.829 144.872 304.458 145.101C304.088 145.324 303.903 145.624 303.903 145.999C303.903 146.299 304.023 146.552 304.262 146.759C304.502 146.966 304.913 147.132 305.496 147.257L307.766 147.714C308.986 147.965 309.895 148.368 310.494 148.923C311.093 149.479 311.393 150.208 311.393 151.112C311.393 151.934 311.15 152.656 310.666 153.277C310.187 153.897 309.528 154.382 308.689 154.73C307.856 155.074 306.895 155.245 305.806 155.245C304.145 155.245 302.822 154.899 301.837 154.208C300.857 153.511 300.282 152.563 300.113 151.365L303.535 151.186C303.639 151.692 303.889 152.079 304.287 152.346C304.684 152.607 305.194 152.738 305.814 152.738C306.424 152.738 306.914 152.621 307.284 152.386C307.66 152.147 307.851 151.839 307.856 151.463C307.851 151.148 307.717 150.889 307.456 150.688C307.195 150.481 306.792 150.323 306.247 150.214L304.075 149.781C302.849 149.536 301.937 149.111 301.338 148.507C300.745 147.902 300.448 147.132 300.448 146.195C300.448 145.389 300.666 144.695 301.102 144.113C301.543 143.53 302.161 143.081 302.956 142.765C303.756 142.449 304.693 142.291 305.765 142.291C307.35 142.291 308.597 142.626 309.506 143.296C310.421 143.966 310.954 144.878 311.107 146.032Z" fill="#3E3E3E"/>
<path d="M228.477 177H226.368L230.208 166.091H232.648L236.494 177H234.384L231.471 168.328H231.385L228.477 177ZM228.546 172.723H234.299V174.31H228.546V172.723ZM244.128 168.818L241.214 177H239.084L236.17 168.818H238.226L240.106 174.896H240.192L242.077 168.818H244.128ZM248.806 177.16C247.986 177.16 247.278 176.989 246.681 176.648C246.088 176.304 245.632 175.817 245.312 175.189C244.992 174.557 244.833 173.813 244.833 172.957C244.833 172.115 244.992 171.377 245.312 170.741C245.635 170.102 246.086 169.605 246.665 169.25C247.244 168.891 247.924 168.712 248.705 168.712C249.209 168.712 249.685 168.793 250.133 168.957C250.584 169.116 250.981 169.365 251.326 169.702C251.674 170.04 251.947 170.469 252.146 170.991C252.345 171.51 252.444 172.128 252.444 172.845V173.436H245.738V172.137H250.596C250.593 171.767 250.513 171.439 250.356 171.151C250.2 170.86 249.982 170.631 249.701 170.464C249.424 170.297 249.101 170.214 248.732 170.214C248.338 170.214 247.991 170.31 247.693 170.501C247.395 170.69 247.162 170.938 246.995 171.247C246.832 171.553 246.748 171.888 246.745 172.254V173.388C246.745 173.864 246.832 174.273 247.006 174.614C247.18 174.951 247.423 175.21 247.736 175.391C248.048 175.569 248.414 175.658 248.833 175.658C249.113 175.658 249.367 175.619 249.595 175.54C249.822 175.459 250.019 175.34 250.186 175.184C250.353 175.027 250.479 174.834 250.564 174.603L252.365 174.805C252.251 175.281 252.034 175.697 251.715 176.052C251.399 176.403 250.994 176.677 250.5 176.872C250.007 177.064 249.442 177.16 248.806 177.16ZM254.076 177V168.818H255.945V170.182H256.031C256.18 169.71 256.435 169.346 256.798 169.09C257.163 168.831 257.581 168.701 258.049 168.701C258.156 168.701 258.275 168.706 258.406 168.717C258.541 168.724 258.653 168.737 258.742 168.754V170.528C258.66 170.5 258.531 170.475 258.353 170.453C258.179 170.429 258.01 170.416 257.847 170.416C257.495 170.416 257.179 170.493 256.899 170.645C256.622 170.794 256.403 171.002 256.244 171.268C256.084 171.535 256.004 171.842 256.004 172.19V177H254.076ZM262.231 177.165C261.712 177.165 261.245 177.073 260.83 176.888C260.418 176.7 260.091 176.423 259.85 176.057C259.612 175.691 259.493 175.24 259.493 174.704C259.493 174.243 259.578 173.861 259.749 173.559C259.919 173.257 260.152 173.016 260.446 172.835C260.741 172.653 261.073 172.517 261.443 172.424C261.815 172.328 262.201 172.259 262.598 172.217C263.078 172.167 263.467 172.123 263.765 172.083C264.063 172.041 264.28 171.977 264.415 171.892C264.553 171.803 264.623 171.666 264.623 171.482V171.45C264.623 171.048 264.504 170.738 264.266 170.517C264.028 170.297 263.685 170.187 263.238 170.187C262.765 170.187 262.391 170.29 262.114 170.496C261.84 170.702 261.656 170.945 261.56 171.226L259.759 170.97C259.901 170.473 260.136 170.058 260.462 169.724C260.789 169.386 261.189 169.134 261.661 168.967C262.133 168.797 262.655 168.712 263.227 168.712C263.621 168.712 264.014 168.758 264.404 168.85C264.795 168.942 265.152 169.095 265.475 169.308C265.798 169.518 266.057 169.804 266.253 170.166C266.451 170.528 266.551 170.981 266.551 171.524V177H264.697V175.876H264.633C264.516 176.103 264.351 176.316 264.138 176.515C263.928 176.711 263.664 176.869 263.344 176.989C263.028 177.107 262.657 177.165 262.231 177.165ZM262.732 175.748C263.119 175.748 263.454 175.672 263.738 175.519C264.022 175.363 264.241 175.157 264.394 174.901C264.55 174.646 264.628 174.367 264.628 174.065V173.101C264.568 173.151 264.465 173.197 264.319 173.239C264.177 173.282 264.017 173.319 263.84 173.351C263.662 173.383 263.486 173.412 263.312 173.436C263.138 173.461 262.987 173.483 262.859 173.5C262.572 173.539 262.314 173.603 262.087 173.692C261.86 173.781 261.68 173.905 261.549 174.065C261.418 174.221 261.352 174.424 261.352 174.672C261.352 175.027 261.482 175.295 261.741 175.477C262 175.658 262.33 175.748 262.732 175.748ZM272.048 180.239C271.356 180.239 270.761 180.145 270.264 179.956C269.766 179.772 269.367 179.523 269.065 179.211C268.763 178.898 268.554 178.552 268.437 178.172L270.173 177.751C270.251 177.911 270.365 178.069 270.514 178.225C270.663 178.385 270.864 178.516 271.116 178.619C271.372 178.726 271.693 178.779 272.08 178.779C272.627 178.779 273.08 178.646 273.438 178.38C273.797 178.117 273.976 177.684 273.976 177.08V175.53H273.88C273.781 175.729 273.635 175.933 273.444 176.142C273.255 176.352 273.005 176.528 272.693 176.67C272.384 176.812 271.995 176.883 271.526 176.883C270.897 176.883 270.328 176.735 269.816 176.441C269.308 176.142 268.903 175.699 268.602 175.109C268.303 174.516 268.154 173.774 268.154 172.882C268.154 171.984 268.303 171.226 268.602 170.608C268.903 169.987 269.31 169.516 269.821 169.196C270.333 168.873 270.903 168.712 271.531 168.712C272.011 168.712 272.405 168.793 272.714 168.957C273.026 169.116 273.275 169.31 273.46 169.537C273.644 169.761 273.785 169.972 273.88 170.171H273.987V168.818H275.889V177.133C275.889 177.833 275.722 178.412 275.388 178.87C275.054 179.328 274.598 179.67 274.019 179.898C273.44 180.125 272.783 180.239 272.048 180.239ZM272.064 175.37C272.472 175.37 272.82 175.271 273.108 175.072C273.396 174.873 273.614 174.587 273.763 174.214C273.912 173.841 273.987 173.394 273.987 172.872C273.987 172.357 273.912 171.906 273.763 171.519C273.618 171.132 273.401 170.832 273.113 170.619C272.829 170.402 272.479 170.294 272.064 170.294C271.634 170.294 271.276 170.406 270.988 170.629C270.7 170.853 270.484 171.16 270.338 171.551C270.193 171.938 270.12 172.378 270.12 172.872C270.12 173.373 270.193 173.811 270.338 174.188C270.487 174.56 270.706 174.852 270.993 175.061C271.285 175.267 271.641 175.37 272.064 175.37ZM281.487 177.16C280.667 177.16 279.958 176.989 279.362 176.648C278.769 176.304 278.312 175.817 277.993 175.189C277.673 174.557 277.513 173.813 277.513 172.957C277.513 172.115 277.673 171.377 277.993 170.741C278.316 170.102 278.767 169.605 279.346 169.25C279.924 168.891 280.604 168.712 281.386 168.712C281.89 168.712 282.366 168.793 282.813 168.957C283.264 169.116 283.662 169.365 284.006 169.702C284.354 170.04 284.628 170.469 284.827 170.991C285.026 171.51 285.125 172.128 285.125 172.845V173.436H278.419V172.137H283.277C283.273 171.767 283.193 171.439 283.037 171.151C282.881 170.86 282.662 170.631 282.382 170.464C282.105 170.297 281.782 170.214 281.412 170.214C281.018 170.214 280.672 170.31 280.374 170.501C280.075 170.69 279.843 170.938 279.676 171.247C279.513 171.553 279.429 171.888 279.426 172.254V173.388C279.426 173.864 279.513 174.273 279.687 174.614C279.861 174.951 280.104 175.21 280.416 175.391C280.729 175.569 281.095 175.658 281.514 175.658C281.794 175.658 282.048 175.619 282.275 175.54C282.503 175.459 282.7 175.34 282.867 175.184C283.033 175.027 283.16 174.834 283.245 174.603L285.045 174.805C284.932 175.281 284.715 175.697 284.395 176.052C284.079 176.403 283.674 176.677 283.181 176.872C282.687 177.064 282.123 177.16 281.487 177.16ZM296.491 169.09C296.441 168.625 296.232 168.262 295.862 168.003C295.497 167.744 295.021 167.614 294.435 167.614C294.023 167.614 293.67 167.676 293.375 167.801C293.08 167.925 292.855 168.094 292.698 168.307C292.542 168.52 292.462 168.763 292.459 169.037C292.459 169.264 292.51 169.461 292.613 169.628C292.72 169.795 292.863 169.937 293.045 170.054C293.226 170.168 293.426 170.263 293.646 170.342C293.867 170.42 294.089 170.485 294.312 170.539L295.335 170.794C295.747 170.89 296.143 171.02 296.523 171.183C296.906 171.347 297.249 171.553 297.551 171.801C297.856 172.05 298.098 172.35 298.275 172.701C298.453 173.053 298.542 173.465 298.542 173.937C298.542 174.576 298.378 175.139 298.052 175.626C297.725 176.109 297.253 176.487 296.635 176.76C296.02 177.03 295.276 177.165 294.403 177.165C293.554 177.165 292.817 177.034 292.192 176.771C291.571 176.508 291.084 176.125 290.733 175.62C290.385 175.116 290.197 174.502 290.168 173.777H292.112C292.141 174.157 292.258 174.473 292.464 174.725C292.67 174.978 292.938 175.166 293.268 175.29C293.602 175.414 293.975 175.477 294.387 175.477C294.817 175.477 295.193 175.413 295.516 175.285C295.843 175.153 296.099 174.972 296.283 174.741C296.468 174.507 296.562 174.234 296.566 173.921C296.562 173.637 296.479 173.403 296.315 173.218C296.152 173.03 295.923 172.874 295.628 172.749C295.337 172.621 294.996 172.508 294.605 172.408L293.364 172.089C292.466 171.858 291.756 171.508 291.233 171.039C290.715 170.567 290.456 169.94 290.456 169.159C290.456 168.516 290.63 167.953 290.978 167.471C291.329 166.988 291.807 166.613 292.411 166.347C293.014 166.077 293.698 165.942 294.461 165.942C295.236 165.942 295.914 166.077 296.496 166.347C297.082 166.613 297.542 166.984 297.876 167.46C298.21 167.932 298.382 168.475 298.393 169.09H296.491ZM302.573 177.165C302.054 177.165 301.587 177.073 301.172 176.888C300.76 176.7 300.433 176.423 300.192 176.057C299.954 175.691 299.835 175.24 299.835 174.704C299.835 174.243 299.92 173.861 300.09 173.559C300.261 173.257 300.494 173.016 300.788 172.835C301.083 172.653 301.415 172.517 301.784 172.424C302.157 172.328 302.543 172.259 302.94 172.217C303.42 172.167 303.809 172.123 304.107 172.083C304.405 172.041 304.622 171.977 304.757 171.892C304.895 171.803 304.964 171.666 304.964 171.482V171.45C304.964 171.048 304.845 170.738 304.608 170.517C304.37 170.297 304.027 170.187 303.579 170.187C303.107 170.187 302.733 170.29 302.456 170.496C302.182 170.702 301.997 170.945 301.902 171.226L300.101 170.97C300.243 170.473 300.478 170.058 300.804 169.724C301.131 169.386 301.53 169.134 302.003 168.967C302.475 168.797 302.997 168.712 303.569 168.712C303.963 168.712 304.355 168.758 304.746 168.85C305.137 168.942 305.494 169.095 305.817 169.308C306.14 169.518 306.399 169.804 306.594 170.166C306.793 170.528 306.893 170.981 306.893 171.524V177H305.039V175.876H304.975C304.858 176.103 304.693 176.316 304.48 176.515C304.27 176.711 304.006 176.869 303.686 176.989C303.37 177.107 302.999 177.165 302.573 177.165ZM303.073 175.748C303.46 175.748 303.796 175.672 304.08 175.519C304.364 175.363 304.583 175.157 304.735 174.901C304.892 174.646 304.97 174.367 304.97 174.065V173.101C304.909 173.151 304.806 173.197 304.661 173.239C304.519 173.282 304.359 173.319 304.181 173.351C304.004 173.383 303.828 173.412 303.654 173.436C303.48 173.461 303.329 173.483 303.201 173.5C302.914 173.539 302.656 173.603 302.429 173.692C302.202 173.781 302.022 173.905 301.891 174.065C301.759 174.221 301.694 174.424 301.694 174.672C301.694 175.027 301.823 175.295 302.083 175.477C302.342 175.658 302.672 175.748 303.073 175.748ZM310.76 166.091V177H308.832V166.091H310.76ZM315.097 177.165C314.579 177.165 314.112 177.073 313.696 176.888C313.284 176.7 312.958 176.423 312.716 176.057C312.478 175.691 312.359 175.24 312.359 174.704C312.359 174.243 312.444 173.861 312.615 173.559C312.785 173.257 313.018 173.016 313.313 172.835C313.607 172.653 313.939 172.517 314.309 172.424C314.682 172.328 315.067 172.259 315.465 172.217C315.944 172.167 316.333 172.123 316.631 172.083C316.93 172.041 317.146 171.977 317.281 171.892C317.42 171.803 317.489 171.666 317.489 171.482V171.45C317.489 171.048 317.37 170.738 317.132 170.517C316.894 170.297 316.551 170.187 316.104 170.187C315.632 170.187 315.257 170.29 314.98 170.496C314.706 170.702 314.522 170.945 314.426 171.226L312.626 170.97C312.768 170.473 313.002 170.058 313.329 169.724C313.655 169.386 314.055 169.134 314.527 168.967C314.999 168.797 315.521 168.712 316.093 168.712C316.487 168.712 316.88 168.758 317.27 168.85C317.661 168.942 318.018 169.095 318.341 169.308C318.664 169.518 318.923 169.804 319.119 170.166C319.318 170.528 319.417 170.981 319.417 171.524V177H317.563V175.876H317.499C317.382 176.103 317.217 176.316 317.004 176.515C316.795 176.711 316.53 176.869 316.21 176.989C315.894 177.107 315.523 177.165 315.097 177.165ZM315.598 175.748C315.985 175.748 316.32 175.672 316.605 175.519C316.889 175.363 317.107 175.157 317.26 174.901C317.416 174.646 317.494 174.367 317.494 174.065V173.101C317.434 173.151 317.331 173.197 317.185 173.239C317.043 173.282 316.883 173.319 316.706 173.351C316.528 173.383 316.352 173.412 316.178 173.436C316.004 173.461 315.854 173.483 315.726 173.5C315.438 173.539 315.181 173.603 314.953 173.692C314.726 173.781 314.547 173.905 314.415 174.065C314.284 174.221 314.218 174.424 314.218 174.672C314.218 175.027 314.348 175.295 314.607 175.477C314.866 175.658 315.197 175.748 315.598 175.748ZM321.356 177V168.818H323.226V170.182H323.311C323.46 169.71 323.716 169.346 324.078 169.09C324.444 168.831 324.861 168.701 325.33 168.701C325.436 168.701 325.555 168.706 325.687 168.717C325.822 168.724 325.933 168.737 326.022 168.754V170.528C325.941 170.5 325.811 170.475 325.633 170.453C325.459 170.429 325.291 170.416 325.127 170.416C324.776 170.416 324.46 170.493 324.179 170.645C323.902 170.794 323.684 171.002 323.524 171.268C323.364 171.535 323.284 171.842 323.284 172.19V177H321.356ZM328.751 180.068C328.488 180.068 328.245 180.047 328.021 180.004C327.801 179.965 327.625 179.919 327.494 179.866L327.941 178.364C328.222 178.445 328.472 178.484 328.692 178.481C328.912 178.477 329.106 178.408 329.273 178.273C329.443 178.142 329.587 177.922 329.704 177.613L329.869 177.17L326.902 168.818H328.948L330.834 174.997H330.919L332.81 168.818H334.861L331.585 177.991C331.432 178.424 331.229 178.795 330.977 179.104C330.725 179.417 330.416 179.654 330.051 179.818C329.688 179.985 329.255 180.068 328.751 180.068Z" fill="#454444"/>
<path d="M421.103 64.0597V61.2745L428.086 50.2727H430.487V54.1278H429.066L424.664 61.0948V61.2255H434.587V64.0597H421.103ZM429.131 67V63.2102L429.197 61.9769V50.2727H432.513V67H429.131ZM443.272 67.3675C441.867 67.3621 440.659 67.0163 439.646 66.3303C438.639 65.6442 437.863 64.6504 437.318 63.3491C436.779 62.0477 436.512 60.4822 436.518 58.6527C436.518 56.8286 436.787 55.274 437.326 53.989C437.871 52.704 438.647 51.7266 439.654 51.0568C440.667 50.3816 441.873 50.044 443.272 50.044C444.672 50.044 445.875 50.3816 446.882 51.0568C447.895 51.732 448.674 52.7121 449.218 53.9972C449.763 55.2768 450.032 56.8286 450.027 58.6527C450.027 60.4877 449.755 62.0559 449.21 63.3572C448.671 64.6586 447.898 65.6523 446.891 66.3384C445.883 67.0245 444.677 67.3675 443.272 67.3675ZM443.272 64.4354C444.231 64.4354 444.996 63.9535 445.567 62.9897C446.139 62.0259 446.422 60.5803 446.417 58.6527C446.417 57.384 446.286 56.3277 446.025 55.4837C445.769 54.6397 445.404 54.0053 444.93 53.5806C444.462 53.1559 443.909 52.9435 443.272 52.9435C442.319 52.9435 441.557 53.42 440.985 54.3729C440.414 55.3258 440.125 56.7524 440.12 58.6527C440.12 59.9377 440.248 61.0104 440.503 61.8707C440.765 62.7256 441.132 63.3681 441.606 63.7983C442.08 64.223 442.635 64.4354 443.272 64.4354ZM457.51 67V50.2727H461.047V64.0842H468.218V67H457.51ZM473.842 67.2369C473.041 67.2369 472.328 67.098 471.702 66.8203C471.076 66.5372 470.58 66.1206 470.215 65.5707C469.856 65.0153 469.676 64.3237 469.676 63.4961C469.676 62.7991 469.804 62.2138 470.06 61.7401C470.316 61.2663 470.665 60.8852 471.106 60.5966C471.547 60.308 472.048 60.0902 472.608 59.9432C473.175 59.7962 473.768 59.6927 474.389 59.6328C475.119 59.5566 475.707 59.4858 476.153 59.4205C476.6 59.3497 476.924 59.2462 477.125 59.1101C477.327 58.974 477.427 58.7725 477.427 58.5057V58.4567C477.427 57.9394 477.264 57.5392 476.937 57.256C476.616 56.9729 476.159 56.8313 475.565 56.8313C474.939 56.8313 474.441 56.9702 474.071 57.2479C473.7 57.5201 473.455 57.8632 473.335 58.277L470.117 58.0156C470.281 57.2533 470.602 56.5945 471.081 56.0391C471.56 55.4782 472.178 55.0481 472.935 54.7486C473.698 54.4437 474.58 54.2912 475.582 54.2912C476.278 54.2912 476.946 54.3729 477.583 54.5362C478.225 54.6996 478.794 54.9528 479.29 55.2958C479.791 55.6388 480.185 56.0799 480.474 56.619C480.763 57.1526 480.907 57.7924 480.907 58.5384V67H477.607V65.2603H477.509C477.308 65.6523 477.038 65.9981 476.7 66.2976C476.363 66.5916 475.957 66.823 475.483 66.9918C475.01 67.1552 474.463 67.2369 473.842 67.2369ZM474.838 64.8356C475.35 64.8356 475.802 64.7348 476.194 64.5334C476.586 64.3265 476.894 64.0488 477.117 63.7003C477.34 63.3518 477.452 62.957 477.452 62.516V61.1847C477.343 61.2554 477.193 61.3208 477.003 61.3807C476.818 61.4351 476.608 61.4869 476.374 61.5359C476.14 61.5794 475.905 61.6203 475.671 61.6584C475.437 61.6911 475.225 61.721 475.034 61.7482C474.626 61.8081 474.269 61.9034 473.964 62.0341C473.659 62.1648 473.423 62.3417 473.254 62.565C473.085 62.7828 473.001 63.055 473.001 63.3817C473.001 63.8555 473.172 64.2176 473.515 64.468C473.864 64.7131 474.305 64.8356 474.838 64.8356ZM486.529 63.3899L486.537 59.2163H487.043L491.062 54.4545H495.056L489.657 60.7599H488.832L486.529 63.3899ZM483.376 67V50.2727H486.856V67H483.376ZM491.217 67L487.525 61.5359L489.845 59.0774L495.293 67H491.217ZM500.012 59.7472V67H496.533V50.2727H499.914V56.668H500.061C500.344 55.9274 500.802 55.3475 501.433 54.9283C502.065 54.5036 502.857 54.2912 503.81 54.2912C504.681 54.2912 505.441 54.4818 506.089 54.8629C506.742 55.2386 507.249 55.7804 507.608 56.4883C507.973 57.1907 508.153 58.032 508.147 59.0121V67H504.668V59.6328C504.673 58.8596 504.477 58.2579 504.08 57.8278C503.688 57.3976 503.138 57.1825 502.43 57.1825C501.956 57.1825 501.537 57.2833 501.172 57.4847C500.813 57.6862 500.53 57.9802 500.323 58.3668C500.121 58.748 500.018 59.2081 500.012 59.7472ZM521.094 58.032L517.908 58.228C517.854 57.9557 517.737 57.7107 517.557 57.4929C517.377 57.2696 517.141 57.0927 516.846 56.962C516.558 56.8259 516.212 56.7578 515.809 56.7578C515.27 56.7578 514.815 56.8722 514.445 57.1009C514.075 57.3241 513.89 57.6236 513.89 57.9993C513.89 58.2988 514.01 58.552 514.249 58.7589C514.489 58.9658 514.9 59.1319 515.483 59.2571L517.753 59.7145C518.973 59.965 519.882 60.3679 520.481 60.9233C521.08 61.4787 521.38 62.2083 521.38 63.1122C521.38 63.9344 521.137 64.6559 520.653 65.2766C520.173 65.8974 519.515 66.382 518.676 66.7305C517.843 67.0735 516.882 67.245 515.793 67.245C514.132 67.245 512.809 66.8993 511.823 66.2077C510.843 65.5108 510.269 64.5633 510.1 63.3654L513.522 63.1857C513.626 63.6921 513.876 64.0787 514.274 64.3455C514.671 64.6069 515.18 64.7376 515.801 64.7376C516.411 64.7376 516.901 64.6205 517.271 64.3864C517.647 64.1468 517.838 63.8391 517.843 63.4634C517.838 63.1476 517.704 62.889 517.443 62.6875C517.181 62.4806 516.778 62.3227 516.234 62.2138L514.061 61.7809C512.836 61.5359 511.924 61.1112 511.325 60.5067C510.732 59.9023 510.435 59.1319 510.435 58.1953C510.435 57.3894 510.653 56.6952 511.088 56.1126C511.529 55.5299 512.147 55.0807 512.942 54.7649C513.743 54.4491 514.679 54.2912 515.752 54.2912C517.337 54.2912 518.583 54.6261 519.493 55.2958C520.408 55.9656 520.941 56.8776 521.094 58.032Z" fill="#3E3E3E"/>
<path d="M421.076 89V78.0909H423.052V82.7092H428.107V78.0909H430.089V89H428.107V84.3658H423.052V89H421.076ZM432.153 89V80.8182H434.081V89H432.153ZM433.122 79.657C432.817 79.657 432.554 79.5558 432.334 79.3533C432.114 79.1474 432.004 78.9006 432.004 78.6129C432.004 78.3217 432.114 78.0749 432.334 77.8725C432.554 77.6665 432.817 77.5636 433.122 77.5636C433.431 77.5636 433.694 77.6665 433.911 77.8725C434.131 78.0749 434.241 78.3217 434.241 78.6129C434.241 78.9006 434.131 79.1474 433.911 79.3533C433.694 79.5558 433.431 79.657 433.122 79.657ZM439.622 92.2386C438.93 92.2386 438.335 92.1445 437.838 91.9563C437.341 91.7717 436.941 91.5231 436.639 91.2106C436.337 90.8981 436.128 90.5518 436.011 90.1719L437.747 89.7511C437.825 89.9109 437.939 90.0689 438.088 90.2251C438.237 90.3849 438.438 90.5163 438.69 90.6193C438.946 90.7259 439.267 90.7791 439.654 90.7791C440.201 90.7791 440.654 90.646 441.013 90.3796C441.371 90.1168 441.551 89.6836 441.551 89.0799V87.5298H441.455C441.355 87.7287 441.21 87.9329 441.018 88.1424C440.83 88.3519 440.579 88.5277 440.267 88.6697C439.958 88.8118 439.569 88.8828 439.1 88.8828C438.472 88.8828 437.902 88.7354 437.39 88.4407C436.883 88.1424 436.478 87.6985 436.176 87.109C435.878 86.516 435.728 85.7738 435.728 84.8825C435.728 83.984 435.878 83.2259 436.176 82.608C436.478 81.9865 436.884 81.516 437.396 81.1964C437.907 80.8732 438.477 80.7116 439.106 80.7116C439.585 80.7116 439.979 80.7933 440.288 80.9567C440.601 81.1165 440.849 81.31 441.034 81.5373C441.218 81.761 441.359 81.9723 441.455 82.1712H441.561V80.8182H443.463V89.1332C443.463 89.8327 443.296 90.4116 442.962 90.8697C442.628 91.3278 442.172 91.6705 441.593 91.8977C441.014 92.125 440.357 92.2386 439.622 92.2386ZM439.638 87.37C440.047 87.37 440.395 87.2706 440.682 87.0717C440.97 86.8729 441.188 86.587 441.337 86.2141C441.487 85.8413 441.561 85.3938 441.561 84.8718C441.561 84.3569 441.487 83.9059 441.337 83.5188C441.192 83.1317 440.975 82.8317 440.688 82.6186C440.403 82.402 440.054 82.2937 439.638 82.2937C439.209 82.2937 438.85 82.4055 438.562 82.6293C438.275 82.853 438.058 83.1602 437.912 83.5508C437.767 83.9379 437.694 84.3782 437.694 84.8718C437.694 85.3725 437.767 85.8111 437.912 86.1875C438.062 86.5604 438.28 86.8516 438.568 87.0611C438.859 87.267 439.216 87.37 439.638 87.37ZM447.367 84.206V89H445.439V78.0909H447.325V82.2085H447.421C447.612 81.7468 447.909 81.3828 448.31 81.1165C448.715 80.8466 449.23 80.7116 449.855 80.7116C450.423 80.7116 450.918 80.8306 451.341 81.0685C451.764 81.3065 452.09 81.6545 452.321 82.1126C452.555 82.5707 452.673 83.13 452.673 83.7905V89H450.744V84.0888C450.744 83.5384 450.602 83.1104 450.318 82.805C450.038 82.4961 449.644 82.3416 449.136 82.3416C448.795 82.3416 448.489 82.4162 448.22 82.5653C447.953 82.7109 447.744 82.9222 447.591 83.1992C447.442 83.4762 447.367 83.8118 447.367 84.206ZM458.26 89.1598C457.44 89.1598 456.732 88.9893 456.135 88.6484C455.542 88.304 455.086 87.8175 454.766 87.1889C454.446 86.5568 454.287 85.8129 454.287 84.957C454.287 84.1154 454.446 83.3768 454.766 82.7411C455.089 82.1019 455.54 81.6048 456.119 81.2496C456.698 80.891 457.378 80.7116 458.159 80.7116C458.663 80.7116 459.139 80.7933 459.587 80.9567C460.038 81.1165 460.435 81.3651 460.78 81.7024C461.128 82.0398 461.401 82.4695 461.6 82.9915C461.799 83.5099 461.899 84.1278 461.899 84.8452V85.4364H455.192V84.1367H460.05C460.047 83.7674 459.967 83.4389 459.81 83.1513C459.654 82.8601 459.436 82.631 459.155 82.4641C458.878 82.2972 458.555 82.2138 458.186 82.2138C457.792 82.2138 457.445 82.3097 457.147 82.5014C456.849 82.6896 456.616 82.9382 456.449 83.2472C456.286 83.5526 456.203 83.8881 456.199 84.2539V85.3885C456.199 85.8643 456.286 86.2727 456.46 86.6136C456.634 86.951 456.877 87.2102 457.19 87.3913C457.502 87.5689 457.868 87.6577 458.287 87.6577C458.568 87.6577 458.821 87.6186 459.049 87.5405C459.276 87.4588 459.473 87.3398 459.64 87.1836C459.807 87.0273 459.933 86.8338 460.018 86.603L461.819 86.8054C461.705 87.2812 461.488 87.6967 461.169 88.0518C460.853 88.4034 460.448 88.6768 459.954 88.8722C459.461 89.0639 458.896 89.1598 458.26 89.1598ZM469.996 82.9808L468.239 83.1726C468.189 82.995 468.102 82.8281 467.978 82.6719C467.857 82.5156 467.694 82.3896 467.488 82.2937C467.282 82.1978 467.029 82.1499 466.731 82.1499C466.33 82.1499 465.993 82.2369 465.719 82.4109C465.449 82.5849 465.316 82.8104 465.32 83.0874C465.316 83.3253 465.403 83.5188 465.581 83.668C465.762 83.8171 466.06 83.9396 466.475 84.0355L467.871 84.3338C468.645 84.5007 469.221 84.7653 469.597 85.1275C469.977 85.4897 470.169 85.9638 470.172 86.5497C470.169 87.0646 470.018 87.5192 469.719 87.9134C469.425 88.304 469.015 88.6094 468.489 88.8295C467.963 89.0497 467.36 89.1598 466.678 89.1598C465.676 89.1598 464.87 88.9503 464.26 88.5312C463.649 88.1087 463.285 87.521 463.168 86.7681L465.048 86.587C465.133 86.9563 465.314 87.2351 465.591 87.4233C465.868 87.6115 466.229 87.7056 466.673 87.7056C467.131 87.7056 467.498 87.6115 467.775 87.4233C468.056 87.2351 468.196 87.0025 468.196 86.7255C468.196 86.4911 468.105 86.2976 467.924 86.1449C467.747 85.9922 467.47 85.875 467.093 85.7933L465.698 85.5004C464.913 85.337 464.332 85.0618 463.956 84.6747C463.58 84.2841 463.393 83.7905 463.397 83.1939C463.393 82.6896 463.53 82.2528 463.807 81.8835C464.087 81.5107 464.476 81.223 464.973 81.0206C465.474 80.8146 466.051 80.7116 466.705 80.7116C467.663 80.7116 468.418 80.9158 468.968 81.3242C469.522 81.7326 469.865 82.2848 469.996 82.9808ZM475.848 80.8182V82.3097H471.144V80.8182H475.848ZM472.306 78.858H474.234V86.5391C474.234 86.7983 474.273 86.9972 474.351 87.1357C474.433 87.2706 474.539 87.3629 474.671 87.4126C474.802 87.4624 474.948 87.4872 475.107 87.4872C475.228 87.4872 475.338 87.4783 475.438 87.4606C475.541 87.4428 475.619 87.4268 475.672 87.4126L475.997 88.9201C475.894 88.9556 475.747 88.9947 475.555 89.0373C475.367 89.0799 475.136 89.1048 474.862 89.1119C474.379 89.1261 473.944 89.0533 473.557 88.8935C473.17 88.7301 472.863 88.478 472.636 88.1371C472.412 87.7962 472.302 87.37 472.306 86.8587V78.858ZM487.195 81.0898C487.145 80.6246 486.936 80.2624 486.566 80.0032C486.201 79.744 485.725 79.6143 485.139 79.6143C484.727 79.6143 484.374 79.6765 484.079 79.8008C483.784 79.9251 483.559 80.0937 483.402 80.3068C483.246 80.5199 483.166 80.7631 483.163 81.0366C483.163 81.2638 483.214 81.4609 483.317 81.6278C483.424 81.7947 483.568 81.9368 483.749 82.054C483.93 82.1676 484.13 82.2635 484.351 82.3416C484.571 82.4197 484.793 82.4854 485.016 82.5387L486.039 82.7944C486.451 82.8903 486.847 83.0199 487.227 83.1832C487.611 83.3466 487.953 83.5526 488.255 83.8011C488.56 84.0497 488.802 84.3498 488.979 84.7013C489.157 85.0529 489.246 85.4648 489.246 85.9371C489.246 86.5763 489.082 87.1392 488.756 87.6257C488.429 88.1087 487.957 88.4869 487.339 88.7603C486.725 89.0302 485.981 89.1651 485.107 89.1651C484.258 89.1651 483.521 89.0337 482.896 88.771C482.275 88.5082 481.788 88.1246 481.437 87.6204C481.089 87.1161 480.901 86.5018 480.872 85.7773H482.816C482.845 86.1573 482.962 86.4734 483.168 86.7255C483.374 86.9776 483.642 87.1658 483.972 87.2901C484.306 87.4144 484.679 87.4766 485.091 87.4766C485.521 87.4766 485.897 87.4126 486.22 87.2848C486.547 87.1534 486.803 86.9723 486.987 86.7415C487.172 86.5071 487.266 86.2337 487.27 85.9212C487.266 85.6371 487.183 85.4027 487.019 85.218C486.856 85.0298 486.627 84.8736 486.332 84.7493C486.041 84.6214 485.7 84.5078 485.309 84.4084L484.068 84.0888C483.17 83.858 482.46 83.5082 481.938 83.0394C481.419 82.5671 481.16 81.9403 481.16 81.1591C481.16 80.5163 481.334 79.9535 481.682 79.4705C482.033 78.9876 482.511 78.6129 483.115 78.3466C483.718 78.0767 484.402 77.9418 485.166 77.9418C485.94 77.9418 486.618 78.0767 487.2 78.3466C487.786 78.6129 488.246 78.984 488.58 79.4599C488.914 79.9322 489.086 80.4755 489.097 81.0898H487.195ZM493.277 89.1651C492.758 89.1651 492.291 89.0728 491.876 88.8881C491.464 88.6999 491.137 88.4229 490.896 88.0572C490.658 87.6914 490.539 87.2404 490.539 86.7042C490.539 86.2425 490.624 85.8608 490.795 85.5589C490.965 85.2571 491.198 85.0156 491.492 84.8345C491.787 84.6534 492.119 84.5167 492.488 84.4244C492.861 84.3285 493.247 84.2592 493.644 84.2166C494.124 84.1669 494.513 84.1225 494.811 84.0835C495.109 84.0408 495.326 83.9769 495.461 83.8917C495.599 83.8029 495.669 83.6662 495.669 83.4815V83.4496C495.669 83.0483 495.55 82.7376 495.312 82.5174C495.074 82.2972 494.731 82.1871 494.284 82.1871C493.811 82.1871 493.437 82.2901 493.16 82.4961C492.886 82.7021 492.702 82.9453 492.606 83.2259L490.805 82.9702C490.947 82.473 491.182 82.0575 491.508 81.7237C491.835 81.3864 492.235 81.1342 492.707 80.9673C493.179 80.7969 493.701 80.7116 494.273 80.7116C494.667 80.7116 495.059 80.7578 495.45 80.8501C495.841 80.9425 496.198 81.0952 496.521 81.3082C496.844 81.5178 497.103 81.8036 497.298 82.1658C497.497 82.5281 497.597 82.9808 497.597 83.5241V89H495.743V87.8761H495.679C495.562 88.1033 495.397 88.3164 495.184 88.5153C494.974 88.7106 494.71 88.8686 494.39 88.9893C494.074 89.1065 493.703 89.1651 493.277 89.1651ZM493.778 87.7482C494.165 87.7482 494.5 87.6719 494.784 87.5192C495.068 87.3629 495.287 87.157 495.439 86.9013C495.596 86.6456 495.674 86.3668 495.674 86.065V85.1009C495.613 85.1506 495.51 85.1967 495.365 85.2393C495.223 85.282 495.063 85.3192 494.885 85.3512C494.708 85.3832 494.532 85.4116 494.358 85.4364C494.184 85.4613 494.033 85.4826 493.905 85.5004C493.618 85.5394 493.36 85.6033 493.133 85.6921C492.906 85.7809 492.726 85.9052 492.595 86.065C492.464 86.2212 492.398 86.4237 492.398 86.6722C492.398 87.0273 492.528 87.2955 492.787 87.4766C493.046 87.6577 493.376 87.7482 493.778 87.7482ZM501.464 78.0909V89H499.536V78.0909H501.464ZM505.801 89.1651C505.283 89.1651 504.816 89.0728 504.4 88.8881C503.988 88.6999 503.662 88.4229 503.42 88.0572C503.182 87.6914 503.063 87.2404 503.063 86.7042C503.063 86.2425 503.149 85.8608 503.319 85.5589C503.489 85.2571 503.722 85.0156 504.017 84.8345C504.312 84.6534 504.644 84.5167 505.013 84.4244C505.386 84.3285 505.771 84.2592 506.169 84.2166C506.648 84.1669 507.037 84.1225 507.335 84.0835C507.634 84.0408 507.85 83.9769 507.985 83.8917C508.124 83.8029 508.193 83.6662 508.193 83.4815V83.4496C508.193 83.0483 508.074 82.7376 507.836 82.5174C507.598 82.2972 507.255 82.1871 506.808 82.1871C506.336 82.1871 505.961 82.2901 505.684 82.4961C505.411 82.7021 505.226 82.9453 505.13 83.2259L503.33 82.9702C503.472 82.473 503.706 82.0575 504.033 81.7237C504.359 81.3864 504.759 81.1342 505.231 80.9673C505.704 80.7969 506.226 80.7116 506.797 80.7116C507.191 80.7116 507.584 80.7578 507.975 80.8501C508.365 80.9425 508.722 81.0952 509.045 81.3082C509.368 81.5178 509.628 81.8036 509.823 82.1658C510.022 82.5281 510.121 82.9808 510.121 83.5241V89H508.267V87.8761H508.204C508.086 88.1033 507.921 88.3164 507.708 88.5153C507.499 88.7106 507.234 88.8686 506.915 88.9893C506.598 89.1065 506.227 89.1651 505.801 89.1651ZM506.302 87.7482C506.689 87.7482 507.025 87.6719 507.309 87.5192C507.593 87.3629 507.811 87.157 507.964 86.9013C508.12 86.6456 508.198 86.3668 508.198 86.065V85.1009C508.138 85.1506 508.035 85.1967 507.889 85.2393C507.747 85.282 507.587 85.3192 507.41 85.3512C507.232 85.3832 507.057 85.4116 506.883 85.4364C506.709 85.4613 506.558 85.4826 506.43 85.5004C506.142 85.5394 505.885 85.6033 505.657 85.6921C505.43 85.7809 505.251 85.9052 505.119 86.065C504.988 86.2212 504.922 86.4237 504.922 86.6722C504.922 87.0273 505.052 87.2955 505.311 87.4766C505.57 87.6577 505.901 87.7482 506.302 87.7482ZM512.06 89V80.8182H513.93V82.1818H514.015C514.164 81.7095 514.42 81.3455 514.782 81.0898C515.148 80.8306 515.565 80.701 516.034 80.701C516.14 80.701 516.259 80.7063 516.391 80.717C516.526 80.7241 516.638 80.7365 516.726 80.7543V82.5281C516.645 82.4996 516.515 82.4748 516.337 82.4535C516.163 82.4286 515.995 82.4162 515.831 82.4162C515.48 82.4162 515.164 82.4925 514.883 82.6452C514.606 82.7944 514.388 83.0021 514.228 83.2685C514.068 83.5348 513.988 83.842 513.988 84.19V89H512.06ZM519.455 92.0682C519.192 92.0682 518.949 92.0469 518.725 92.0043C518.505 91.9652 518.329 91.919 518.198 91.8658L518.645 90.3636C518.926 90.4453 519.176 90.4844 519.396 90.4808C519.616 90.4773 519.81 90.408 519.977 90.2731C520.147 90.1417 520.291 89.9215 520.408 89.6126L520.574 89.1705L517.607 80.8182H519.652L521.538 86.9972H521.623L523.514 80.8182H525.565L522.289 89.9908C522.136 90.424 521.934 90.7951 521.681 91.104C521.429 91.4165 521.12 91.6545 520.755 91.8178C520.392 91.9847 519.959 92.0682 519.455 92.0682Z" fill="#454444"/>
</svg>
