<svg xmlns="http://www.w3.org/2000/svg" fill="none" viewBox="1.28 1.28 61.44 61.44">
<path d="M1.28003 11.2793C1.28003 5.75646 5.75718 1.2793 11.28 1.2793H52.72C58.2429 1.2793 62.72 5.75645 62.72 11.2793V52.7193C62.72 58.2421 58.2429 62.7193 52.72 62.7193H11.28C5.75719 62.7193 1.28003 58.2421 1.28003 52.7193V11.2793Z" fill="#F39E00"/>
<path d="M62.72 31.0927L47.8112 16.1852C47.752 16.1259 47.6817 16.0788 47.6043 16.0467C47.5268 16.0146 47.4438 15.998 47.36 15.998C47.2762 15.998 47.1932 16.0146 47.1158 16.0467C47.0384 16.0788 46.968 16.1259 46.9088 16.1852L42.7744 20.326L41.8656 19.4172C39.1456 17.2796 35.7216 15.9996 31.9968 15.9996C23.1776 15.9996 15.9968 23.174 15.9968 31.9996C15.9968 36.7356 18.064 40.9852 21.3408 43.9228L40.1383 62.7196H62.72V31.0927Z" fill="#C05600"/>
<path d="M40.6598 26.0551C41.8669 27.8023 42.5127 29.8758 42.5114 31.9994C42.5114 37.7946 37.7958 42.5095 32.0006 42.5095C26.2054 42.5095 21.4912 37.7946 21.4912 31.9994C21.4912 26.2042 26.2054 21.4893 32 21.4893C34.2054 21.4893 36.2522 22.1748 37.9443 23.3402L41.8656 19.4189C39.0547 17.2032 35.5792 15.9995 32 16.002C23.1808 16.002 16 23.1764 16 32.002C16 40.8212 23.1808 48.002 32 48.002C40.8256 48.002 48 40.8212 48 32.002C48 28.2797 46.72 24.8544 44.5824 22.1332L40.6598 26.0551Z" fill="white"/>
<path d="M37.0208 24.2646C35.5283 23.2887 33.7837 22.7691 32.0006 22.7695C26.9113 22.7695 22.7705 26.9103 22.7705 31.9996C22.7705 37.0889 26.9113 41.2297 31.9999 41.2297C37.0886 41.2297 41.2307 37.0889 41.2307 31.9996C41.2307 30.1481 40.6771 28.4259 39.735 26.9795L36.1567 30.5583C36.3142 31.0102 36.4038 31.494 36.4038 31.9996C36.4038 34.4278 34.4281 36.4028 32.0006 36.4028C29.5731 36.4028 27.5961 34.4278 27.5961 31.9996C27.5961 29.5715 29.5718 27.5958 31.9999 27.5958C32.5055 27.5958 32.9894 27.6854 33.4419 27.8428L37.0208 24.2646Z" fill="white"/>
<path d="M32.3718 28.9128C32.249 28.8974 32.128 28.875 32.0006 28.875C30.2784 28.875 28.8774 30.2766 28.8774 31.9982C28.8774 33.7198 30.2784 35.1233 32 35.1233C33.7216 35.1233 35.1238 33.7217 35.1238 31.9995C35.1238 31.8721 35.1014 31.7512 35.0867 31.6283L33.3574 33.3569C32.9952 33.7198 32.5126 33.9195 32.0006 33.9195C31.4886 33.9195 31.0054 33.7198 30.6426 33.3569C30.2797 32.9947 30.08 32.5121 30.08 31.9995C30.08 31.4868 30.2797 31.0043 30.6432 30.642L32.3712 28.9134L32.3718 28.9128Z" fill="white"/>
<path d="M31.5482 32.4506C31.6075 32.5102 31.678 32.5575 31.7557 32.5898C31.8333 32.6221 31.9166 32.6388 32.0007 32.6388C32.0848 32.6388 32.1681 32.6221 32.2457 32.5898C32.3234 32.5575 32.3939 32.5102 32.4532 32.4506L47.8132 17.0906C47.8743 17.0315 47.9231 16.9609 47.9566 16.8828C47.9901 16.8048 48.0078 16.7208 48.0085 16.6358C48.0093 16.5508 47.9931 16.4665 47.9609 16.3879C47.9287 16.3092 47.8812 16.2378 47.8211 16.1777C47.761 16.1176 47.6896 16.0701 47.6109 16.0379C47.5323 16.0057 47.448 15.9895 47.363 15.9903C47.278 15.991 47.194 16.0087 47.116 16.0422C47.0379 16.0757 46.9673 16.1245 46.9082 16.1856L31.5482 31.5456C31.4282 31.6656 31.3608 31.8284 31.3608 31.9981C31.3608 32.1678 31.4282 32.3306 31.5482 32.4506Z" fill="white"/>
</svg>