<svg xmlns="http://www.w3.org/2000/svg" fill="none" viewBox="1.99 1.49 61.01 61.02">
<path d="M49.7203 23.6353C49.7203 25.5377 48.1783 27.0792 46.2764 27.0792C44.3745 27.0792 42.8325 25.5377 42.8325 23.6353C42.8325 21.7334 44.3745 20.1914 46.2764 20.1914C48.1783 20.1914 49.7203 21.7334 49.7203 23.6353Z" fill="black"/>
<path d="M40.3726 31.0142V37.9023H52.1802V31.0142C52.1802 29.9703 51.7657 28.9693 51.0274 28.231C50.2896 27.4932 49.2881 27.0781 48.2441 27.0781H44.3081C43.2647 27.0781 42.2633 27.4932 41.5254 28.231C40.7871 28.9692 40.3726 29.9702 40.3726 31.0142Z" fill="black"/>
<path d="M35.4511 14.2876C35.4511 15.9179 34.1299 17.2397 32.4995 17.2397C30.8691 17.2397 29.5474 15.9179 29.5474 14.2876C29.5474 12.6572 30.8691 11.3359 32.4995 11.3359C34.1299 11.3359 35.4511 12.6572 35.4511 14.2876Z" fill="black"/>
<path d="M27.5801 20.1924V26.0961H37.4205V20.1924C37.4205 19.4092 37.1094 18.6586 36.5557 18.105C36.002 17.5513 35.2515 17.2402 34.4683 17.2402H30.5323C29.7496 17.2402 28.9986 17.5513 28.445 18.105C27.8912 18.6587 27.5801 19.4092 27.5801 20.1924Z" fill="black"/>
<path d="M36.9278 33.4746C36.9278 35.9204 34.9454 37.9029 32.5 37.9029C30.0543 37.9029 28.0718 35.9205 28.0718 33.4746C28.0718 31.0294 30.0542 29.0469 32.5 29.0469C34.9453 29.0469 36.9278 31.0292 36.9278 33.4746Z" fill="black"/>
<path d="M24.6277 42.8242V52.6645H40.3714V42.8242C40.3714 41.5194 39.8529 40.268 38.9301 39.3452C38.0077 38.4228 36.7562 37.9043 35.4511 37.9043H29.5473C28.2426 37.9043 26.9912 38.4228 26.0683 39.3452C25.1455 40.268 24.6274 41.5195 24.6274 42.8242H24.6277Z" fill="black"/>
<path d="M22.1675 23.6353C22.1675 25.5377 20.6255 27.0792 18.7232 27.0792C16.8213 27.0792 15.2793 25.5377 15.2793 23.6353C15.2793 21.7334 16.8213 20.1914 18.7232 20.1914C20.6255 20.1914 22.1675 21.7334 22.1675 23.6353Z" fill="black"/>
<path d="M12.8199 31.0142V37.9023H24.628V31.0142C24.628 29.9703 24.213 28.9693 23.4752 28.231C22.7369 27.4932 21.7359 27.0781 20.6919 27.0781H16.7559C15.712 27.0781 14.711 27.4932 13.9727 28.231C13.2344 28.9692 12.8199 29.9702 12.8199 31.0142Z" fill="black"/>
<path d="M32.5001 60.5352C25.4312 60.5362 18.6138 57.9136 13.3688 53.1744C8.12371 48.4356 4.82446 41.9185 4.11058 34.8856C3.39672 27.8529 5.31908 20.8056 9.50558 15.1094L11.9841 17.3115L12.8698 9.70898L5.42407 11.48L8.02757 13.795C3.77607 19.5074 1.65745 26.5275 2.03832 33.6387C2.4192 40.75 5.27557 47.5025 10.1131 52.7287C14.9504 57.9549 21.4637 61.3235 28.5243 62.2512C35.5843 63.179 42.7468 61.6077 48.7706 57.8089L47.7198 56.1439L47.7193 56.1443C43.1646 59.0188 37.8873 60.5418 32.5006 60.536L32.5001 60.5352Z" fill="black"/>
<path d="M32.5 1.49452C26.7412 1.48768 21.0991 3.11702 16.23 6.19227L17.2808 7.85727C22.9029 4.31427 29.585 2.84502 36.1745 3.70202C42.7644 4.55895 48.8483 7.68889 53.377 12.5521C57.9058 17.4149 60.5958 23.7055 60.982 30.3396C61.3687 36.9734 59.4283 43.5334 55.4951 48.8896L53.0161 46.6855L52.1304 54.288L59.5761 52.517L56.9731 50.2025C61.497 44.1234 63.5961 36.5775 62.8613 29.035C62.1264 21.4925 58.6103 14.495 52.9975 9.40377C47.3848 4.31252 40.0775 1.49264 32.5 1.49414L32.5 1.49452Z" fill="black"/>
</svg>