<svg xmlns="http://www.w3.org/2000/svg" fill="none" viewBox="4.52 2.52 55.97 59.96">
<path d="M28.7099 13.3978C25.0943 14.9332 22.5066 18.6014 22.5066 22.9347V24.832C22.5066 27.3953 24.5081 29.4762 27.0213 29.497H37.9715C40.4848 29.4762 42.4862 27.3953 42.4862 24.832V22.9347C42.4862 18.6014 39.8985 14.9332 36.2829 13.3978C35.1929 14.101 33.8846 14.5106 32.4962 14.5106C31.1081 14.5106 29.7999 14.101 28.7099 13.3978Z" fill="#FF9F2A"/>
<path d="M32.5001 2.51953C29.7558 2.51953 27.5053 4.74121 27.5053 7.51234C27.5053 10.284 29.7616 12.5111 32.5001 12.5111C35.2386 12.5111 37.495 10.284 37.495 7.51234C37.495 4.74121 35.2441 2.51953 32.5001 2.51953Z" fill="#FF9F2A"/>
<path d="M47.5688 12.7517C45.5529 13.557 43.9308 15.2005 43.1145 17.2059C44.0007 18.9396 44.4887 20.8742 44.4887 22.9347V24.832L44.4887 24.86C44.4887 24.9548 44.4888 25.0559 44.4847 25.1484C44.9479 25.3785 45.4537 25.5035 46.0091 25.5035H54.9723C56.9247 25.5035 58.4838 23.8937 58.4838 21.9022V20.3758C58.4838 16.8821 56.3777 13.9413 53.4067 12.7517C52.5448 13.2327 51.5505 13.5104 50.4868 13.5109C49.428 13.5104 48.4281 13.2282 47.5688 12.7517Z" fill="#FF9F2A"/>
<path d="M50.4868 3.51731C48.2904 3.5183 46.4893 5.29414 46.4893 7.5129C46.4893 9.73166 48.2865 11.5114 50.4868 11.5124C52.6872 11.5114 54.4843 9.73217 54.4843 7.5129C54.4843 5.29414 52.6831 3.51832 50.4868 3.51731Z" fill="#FF9F2A"/>
<path d="M11.5928 12.7517C8.62187 13.9413 6.51571 16.8821 6.51571 20.3758V21.9022C6.51571 23.8938 8.07432 25.5035 10.0272 25.5035H18.9904C19.5458 25.5035 20.0516 25.3785 20.5148 25.1484C20.5108 25.0559 20.5108 24.9552 20.5109 24.8602L20.5109 24.832V22.9347C20.5109 20.8742 20.9988 18.9391 21.885 17.2059C21.0682 15.2004 19.4466 13.557 17.4307 12.7516C16.5713 13.2282 15.5711 13.5104 14.5128 13.5109C13.4491 13.5104 12.4547 13.2327 11.5928 12.7517Z" fill="#FF9F2A"/>
<path d="M14.5134 3.51731C12.317 3.5183 10.5159 5.29414 10.5159 7.5129C10.5159 9.73166 12.313 11.5114 14.5134 11.5124C16.7137 11.5114 18.5109 9.73217 18.5109 7.5129C18.5109 5.29414 16.7097 3.51832 14.5134 3.51731Z" fill="#FF9F2A"/>
<path d="M60.4825 35.4936L49.4737 35.4991C49.3349 40.9492 48.0312 46.237 45.7122 51.0381C47.8431 52.0865 49.8457 53.3962 51.6538 54.8988C57.1187 49.7756 60.2231 42.7623 60.4825 35.4936Z" fill="#57C5EE"/>
<path fill-rule="evenodd" clip-rule="evenodd" d="M39.4895 7.41121C39.49 7.42661 39.4912 7.44181 39.4924 7.45703C39.4939 7.47613 39.4955 7.49526 39.4955 7.51486C39.4955 7.91952 39.4588 8.31526 39.3918 8.70158C40.7774 10.2003 42.0355 11.8005 43.1553 13.4876C43.9334 12.6257 44.838 11.8858 45.8685 11.3383C45.3949 10.7655 45.0393 10.0965 44.8027 9.37494C43.0874 8.53536 41.3081 7.87942 39.4895 7.41121ZM25.5044 7.4132C23.6869 7.88134 21.908 8.53694 20.1931 9.375C19.9571 10.097 19.5995 10.7655 19.1254 11.3388C20.1619 11.8888 21.0714 12.6336 21.8524 13.5015C22.9727 11.8164 24.2174 10.2077 25.602 8.70952C25.5345 8.32122 25.4983 7.92201 25.4983 7.51486C25.4983 7.49696 25.4998 7.47934 25.5014 7.4617C25.5027 7.44561 25.5041 7.42952 25.5044 7.4132ZM26.3672 10.8563C25.0368 12.3813 23.8401 14.0063 22.7912 15.7206C23.909 14.1441 25.3859 12.8468 27.1032 11.9532C26.824 11.614 26.58 11.2446 26.3672 10.8563ZM38.6351 10.8583C38.4233 11.2446 38.1809 11.6111 37.9031 11.9493C39.445 12.7507 40.7879 13.8729 41.8556 15.2422L41.8671 15.2227L41.8737 15.2115L41.8809 15.1991C40.9133 13.6766 39.8292 12.227 38.6351 10.8583ZM59.0479 25.6597C58.0407 26.7879 56.5911 27.504 54.9745 27.504H48.8415C49.2075 29.4688 49.4222 31.4718 49.4738 33.4981L60.4825 33.504C60.3873 30.8271 59.888 28.1858 59.0479 25.6597ZM5.94976 25.6657C5.11067 28.1904 4.6123 30.8296 4.51709 33.5045L15.5258 33.4986C15.5774 31.4723 15.7921 29.4693 16.1581 27.504H10.0197C8.40497 27.504 6.957 26.7908 5.94976 25.6657ZM20.9074 27.1509C20.3034 27.3795 19.6607 27.504 18.9828 27.504H18.1943C17.808 29.4658 17.5793 31.4687 17.5248 33.4981C20.7774 33.5039 24.0281 33.5026 27.2787 33.5012C28.6874 33.5006 30.096 33.5 31.5049 33.5V31.5016L27.0486 31.4996C24.2631 31.4996 21.8798 29.6925 20.9074 27.1509ZM44.0865 27.1509C43.1636 29.6889 40.7639 31.5016 37.9397 31.5016H33.4953V33.5001C38.1569 33.5035 42.812 33.5011 47.4754 33.4981C47.4208 31.4689 47.1917 29.4658 46.8059 27.504H46.0114C45.333 27.504 44.69 27.3795 44.0865 27.1509ZM4.51773 35.4936C4.7766 42.7622 7.88147 49.7758 13.3464 54.8997C15.1545 53.3971 17.1565 52.0874 19.288 51.039C16.969 46.2382 15.6654 40.9497 15.5265 35.5L4.51773 35.4936ZM27.2787 35.4964C24.028 35.495 20.777 35.4937 17.5241 35.4996C17.6629 40.6669 18.9021 45.6722 21.1095 50.2185C24.3309 48.8944 27.8346 48.1154 31.4998 47.9953L31.5042 35.4976C30.0957 35.4976 28.6872 35.497 27.2787 35.4964ZM31.5002 49.9944C28.1627 50.1109 24.9765 50.8116 22.0373 51.9968C24.2376 55.9516 27.1883 59.4985 30.7837 62.4179C30.7837 62.4179 31.2355 62.4823 31.5038 62.4823L31.5002 49.9944ZM33.4987 49.9944L33.4947 62.4829C33.7744 62.4829 34.2148 62.4184 34.2148 62.4184C37.8101 59.4985 40.7613 55.9522 42.9612 51.9973C40.0229 50.8116 36.8362 50.1109 33.4987 49.9944ZM20.2067 52.8131C18.3014 53.7464 16.5043 54.9078 14.8721 56.233C15.1132 56.4284 15.3571 56.6203 15.6061 56.8087C19.1295 59.4768 23.127 61.198 27.261 61.985C24.4363 59.2893 22.0599 56.1843 20.2067 52.8131ZM44.7925 52.8131C42.9392 56.1849 40.5634 59.2892 37.7382 61.985C41.872 61.1975 45.8697 59.4766 49.3931 56.8087C49.6421 56.6202 49.8861 56.4283 50.1271 56.2329C48.4951 54.9078 46.6978 53.7465 44.7925 52.8131Z" fill="#57C5EE"/>
<path d="M33.4953 35.4976L33.4993 47.9955C37.1645 48.1155 40.6682 48.8951 43.8891 50.2187C46.0964 45.6717 47.3356 40.6665 47.475 35.4985C42.812 35.4955 38.1569 35.493 33.4949 35.4965L33.4953 35.4976Z" fill="#57C5EE"/>
</svg>