<svg xmlns="http://www.w3.org/2000/svg" fill="none" viewBox="4.45 4.95 55.11 55.1">
<path d="M20.0539 14.8152C19.0343 14.8899 18.2232 15.7186 18.2232 16.7556V22.6594C18.2232 23.7458 19.1031 24.6271 20.191 24.6271H43.8072C44.0553 24.6271 44.2892 24.57 44.506 24.4855C45.9366 25.3395 47.2731 25.6252 48.4025 25.6252C48.9537 25.6252 49.4552 25.5583 49.8961 25.4616C51.3287 25.1466 52.6177 24.4088 53.7555 23.4698C55.2057 25.9258 55.6271 28.7321 55.633 28.7696C55.7687 29.7535 56.6129 30.4678 57.5792 30.4678C57.6695 30.4678 57.7604 30.462 57.8526 30.4503C58.9293 30.3008 59.6808 29.3067 59.5314 28.2305C59.4977 27.9981 58.8976 23.9224 56.5104 20.5143C58.191 18.2589 59.1969 16.0114 59.3918 15.5606C59.821 14.5631 59.3561 13.4078 58.3605 12.9786C57.363 12.548 56.2058 13.0162 55.775 14.0099C55.4405 14.7853 54.6808 16.2238 53.6871 17.6505C53.4943 17.5167 53.3092 17.3771 53.1027 17.255C50.9318 15.962 48.4328 15.6016 45.6539 16.1549C45.4137 15.4108 44.7565 14.8716 43.9498 14.8086C44.607 13.9034 45.2213 12.8268 45.6739 11.4726C46.2662 9.69964 46.0655 7.87502 45.1407 6.59177C44.3761 5.5317 43.2032 4.94727 41.8395 4.94727C39.6451 4.94727 38.6866 6.85839 38.1158 7.99952C38.0392 8.15284 37.9445 8.3418 37.8502 8.51514C37.7853 8.42481 37.7223 8.33399 37.6632 8.25342C36.7936 7.01563 35.3331 4.94729 31.9996 4.94729C28.6656 4.94729 27.2056 7.01567 26.3336 8.25342C26.2765 8.33594 26.2115 8.4248 26.1466 8.51514C26.0523 8.3418 25.9576 8.15284 25.8809 7.99952C25.3121 6.8584 24.3536 4.94727 22.1593 4.94727C20.7956 4.94727 19.6227 5.53174 18.8571 6.59227C17.9323 7.87552 17.7335 9.70164 18.3239 11.4731C18.7765 12.8291 19.3942 13.9096 20.0539 14.8149L20.0539 14.8152ZM45.7751 20.2171C47.822 19.678 49.5617 19.7684 51.0061 20.5989C50.3762 21.0872 49.7229 21.471 49.0501 21.6185C47.9793 21.8528 46.909 21.4847 45.7752 20.5599L45.7751 20.2171Z" fill="black"/>
<path d="M47.1714 27.0186C46.5947 26.5386 46.0278 26.066 45.4829 25.5996C45.1401 26.1841 44.5342 26.5952 43.8076 26.5952H20.1914C19.4653 26.5952 18.8589 26.1841 18.5166 25.6016C17.9717 26.0679 17.4048 26.5405 16.8281 27.0206C11.3115 31.6118 4.44727 37.3267 4.44727 46.2681C4.44727 55.4151 13.7163 60.0518 31.9998 60.0518C50.2823 60.0518 59.5523 55.4151 59.5523 46.2681C59.5518 37.3272 52.6875 31.6118 47.1714 27.0193V27.0186ZM32.0001 54.1474C24.9054 54.1474 19.1314 48.3735 19.1314 41.2786C19.1314 34.1859 24.9053 28.4136 32.0001 28.4136C39.095 28.4136 44.8689 34.1856 44.8689 41.2786C44.8689 48.3729 39.0945 54.1474 32.0001 54.1474Z" fill="black"/>
<path d="M32 32.3496C27.0743 32.3496 23.0674 36.3545 23.0674 41.2784C23.0669 46.2046 27.0738 50.2115 32 50.2115C36.9258 50.2115 40.9326 46.2046 40.9326 41.2789C40.9326 36.3545 36.9258 32.3496 32 32.3496ZM32.9522 47.7746V49.9352H30.872V47.9221C29.4512 47.8591 28.0718 47.4753 27.2685 47.009L27.9023 44.5275C28.7939 45.0138 30.0454 45.4621 31.4253 45.4621C32.6338 45.4621 33.4624 44.9958 33.4624 44.1476C33.4624 43.341 32.7813 42.8312 31.2129 42.3013C28.9439 41.5377 27.3951 40.4732 27.3951 38.4186C27.3951 36.551 28.7114 35.0866 30.9786 34.6398V32.6267H33.0587V34.4905C34.4796 34.5574 35.4362 34.8528 36.1348 35.1892L35.5186 37.5881C34.9693 37.3556 33.9912 36.8698 32.4644 36.8698C31.085 36.8698 30.6382 37.464 30.6382 38.0583C30.6382 38.757 31.3824 39.2018 33.1846 39.8805C35.7115 40.7721 36.7271 41.9392 36.7271 43.8522C36.7291 45.7379 35.3945 47.3497 32.9522 47.7746Z" fill="black"/>
</svg>