<svg xmlns="http://www.w3.org/2000/svg" fill="none" viewBox="5.02 5.02 55.97 55.97">
<path d="M20.8669 15.0378C19.8314 15.1137 19.0077 15.9552 19.0077 17.0085V23.0045C19.0077 24.1079 19.9013 25.003 21.0062 25.003H44.9914C45.2433 25.003 45.4809 24.9449 45.701 24.8591C47.154 25.7265 48.5114 26.0166 49.6584 26.0166C50.2183 26.0166 50.7276 25.9487 51.1754 25.8505C52.6304 25.5306 53.9395 24.7813 55.0951 23.8276C56.568 26.322 56.9959 29.1721 57.0019 29.2102C57.1398 30.2094 57.9972 30.9349 58.9786 30.9349C59.0703 30.9349 59.1625 30.929 59.2563 30.9171C60.3498 30.7654 61.113 29.7557 60.9613 28.6627C60.927 28.4266 60.3176 24.2872 57.8931 20.8258C59.5999 18.5352 60.6215 16.2526 60.8195 15.7948C61.2554 14.7817 60.7832 13.6083 59.7721 13.1725C58.7589 12.7351 57.5837 13.2107 57.1462 14.2198C56.8065 15.0073 56.0349 16.4683 55.0257 17.9174C54.8298 17.7815 54.6419 17.6396 54.4321 17.5157C52.2273 16.2025 49.6892 15.8364 46.8669 16.3984C46.623 15.6426 45.9555 15.0951 45.1362 15.0311C45.8037 14.1117 46.4276 13.0182 46.8873 11.643C47.4888 9.84226 47.285 7.98912 46.3457 6.68582C45.5691 5.6092 44.378 5.01562 42.9929 5.01562C40.7642 5.01562 39.7908 6.95661 39.2111 8.11557C39.1332 8.27129 39.037 8.4632 38.9413 8.63925C38.8754 8.5475 38.8114 8.45527 38.7514 8.37343C37.8682 7.11631 36.3848 5.01565 32.9993 5.01565C29.6132 5.01565 28.1304 7.11634 27.2447 8.37343C27.1867 8.45724 27.1207 8.5475 27.0548 8.63925C26.9591 8.4632 26.8629 8.27129 26.785 8.11557C26.2073 6.95662 25.2338 5.01562 23.0052 5.01562C21.6202 5.01562 20.429 5.60923 19.6514 6.68633C18.7121 7.98963 18.5103 9.84429 19.1099 11.6435C19.5696 13.0207 20.1969 14.118 20.8669 15.0374L20.8669 15.0378ZM46.99 20.5241C49.0689 19.9766 50.8358 20.0683 52.3028 20.9119C51.663 21.4078 50.9995 21.7976 50.3162 21.9473C49.2287 22.1854 48.1416 21.8114 46.9902 20.8722L46.99 20.5241Z" fill="#A45412"/>
<path d="M48.4083 27.4314C47.8226 26.9439 47.2469 26.4639 46.6934 25.9902C46.3453 26.5838 45.7299 27.0014 44.992 27.0014H21.0067C20.2693 27.0014 19.6534 26.5838 19.3058 25.9922C18.7524 26.4658 18.1766 26.9458 17.5909 27.4334C11.9881 32.0964 5.0166 37.9005 5.0166 46.9816C5.0166 56.2716 14.4304 60.9807 32.9996 60.9807C51.5678 60.9807 60.9826 56.2716 60.9826 46.9816C60.9821 37.9011 54.0106 32.0964 48.4083 27.4321V27.4314ZM33 54.984C25.7944 54.984 19.9302 49.12 19.9302 41.9142C19.9302 34.7106 25.7943 28.8482 33 28.8482C40.2057 28.8482 46.0698 34.7104 46.0698 41.9142C46.0698 49.1193 40.2052 54.984 33 54.984Z" fill="#A45412"/>
<path d="M32.9999 32.8477C27.9972 32.8477 23.9277 36.9151 23.9277 41.9159C23.9272 46.9191 27.9967 50.9886 32.9999 50.9886C38.0026 50.9886 42.0721 46.9191 42.0721 41.9164C42.0721 36.9151 38.0026 32.8477 32.9999 32.8477ZM33.967 48.5137V50.7081H31.8543V48.6635C30.4113 48.5995 29.0103 48.2097 28.1945 47.7361L28.8382 45.2158C29.7437 45.7098 31.0148 46.165 32.4163 46.165C33.6436 46.165 34.4852 45.6914 34.4852 44.83C34.4852 44.0107 33.7934 43.493 32.2006 42.9549C29.8961 42.1793 28.323 41.0982 28.323 39.0115C28.323 37.1147 29.66 35.6274 31.9625 35.1737V33.1291H34.0752V35.022C35.5182 35.0899 36.4898 35.3899 37.1993 35.7316L36.5735 38.168C36.0156 37.9319 35.0223 37.4385 33.4715 37.4385C32.0706 37.4385 31.6169 38.042 31.6169 38.6455C31.6169 39.3552 32.3726 39.8069 34.203 40.4963C36.7694 41.4018 37.8009 42.587 37.8009 44.5299C37.8029 46.4452 36.4475 48.0822 33.967 48.5137Z" fill="#22AD1D"/>
</svg>