<svg xmlns="http://www.w3.org/2000/svg" fill="none" viewBox="0 0 65 65">
<path fill-rule="evenodd" clip-rule="evenodd" d="M4.05058 8.68221L4.65359 8.6481C5.44007 8.61694 5.44133 8.67162 5.44133 8.67162C6.61792 8.67162 8.64113 9.62422 9.26535 11.0872L9.36554 11.3677L15.869 26.4799L35.0668 24.0683C36.6711 26.181 38.7682 27.9346 41.2021 29.1883L41.8176 29.4911L18.4263 32.43L20.9241 38.2279L51.7102 34.6586C53.4298 34.6586 54.8374 35.8876 54.9738 37.4494L54.9851 37.6987L49.3719 50.7505C48.4596 52.8903 47.2749 53.3348 45.608 53.3743L45.3413 53.3772H43.7426L40.325 60.6939C43.1253 60.9938 45.4835 62.5191 46.8373 64.6572L47.0426 65H15.5945C15.9984 64.2844 16.5137 63.6258 17.1324 63.0437C18.6622 61.6065 20.7004 60.7586 22.8488 60.6521L23.3109 60.6404H32.6423L32.6955 60.491L32.76 60.3422L36.0124 53.377H15.8591C14.1854 53.3858 12.7752 52.2033 12.5955 50.638C12.4528 50.4381 12.3332 50.2188 12.2418 49.9842L11.6375 48.1336L0.108866 12.6001C-0.113426 11.8192 0.00805005 10.9853 0.442616 10.2874C0.877805 9.58883 1.59166 9.08254 2.427 8.87908L3.67749 8.71972C3.81525 8.70385 3.94425 8.69032 4.05006 8.68092L4.05058 8.68221ZM50.0061 0C58.288 0 65 6.30302 65 14.0802C65 21.8574 58.288 28.1622 50.0061 28.1622C41.7223 28.1622 35.0103 21.8574 35.0103 14.0802C35.0103 6.30302 41.7223 0 50.0061 0ZM55.8959 8.87324L47.6492 16.6175L44.1143 13.2992L41.7593 15.5107L47.6492 21.0435L58.2529 11.0859L55.8959 8.87324Z" fill="black"/>
</svg>