<svg xmlns="http://www.w3.org/2000/svg" fill="none" viewBox="0.5 0 80 80">
<path fill-rule="evenodd" clip-rule="evenodd" d="M62.046 0C72.239 0 80.5 7.75756 80.5 17.3295C80.5 26.9014 72.239 34.6612 62.046 34.6612C51.8505 34.6612 43.5896 26.9014 43.5896 17.3295C43.5896 7.75756 51.8505 0 62.046 0ZM59.1451 20.4523L69.295 10.9209L72.1958 13.6442L59.1451 25.8997L51.8961 19.0901L54.7946 16.3683L59.1451 20.4523Z" fill="#6BF168"/>
<path d="M5.48533 10.6858L6.2275 10.6438C7.19547 10.6055 7.19702 10.6728 7.19702 10.6728C8.64513 10.6728 11.1352 11.8452 11.9035 13.6458L12.0268 13.9911L20.0311 32.5906L43.6592 29.6225C45.6337 32.2228 48.2147 34.3811 51.2103 35.924L51.9678 36.2967L23.1785 39.9138L26.2528 47.0498L64.1433 42.6568C66.2597 42.6568 67.9922 44.1694 68.1601 46.0916L68.174 46.3984L61.2655 62.4621C60.1426 65.0958 58.6844 65.6429 56.633 65.6914L56.3046 65.695H54.3371L50.1307 74.7002C53.5773 75.0693 56.4797 76.9466 58.1459 79.5781L58.3986 80H19.6932C20.1903 79.1192 20.8246 78.3087 21.586 77.5922C23.4688 75.8234 25.9774 74.7798 28.6216 74.6488L29.1904 74.6343H40.6751L40.7406 74.4505L40.82 74.2674L44.8229 65.6948H20.019C17.959 65.7056 16.2234 64.2502 16.0022 62.3237C15.8265 62.0777 15.6793 61.8077 15.5668 61.519L14.8231 59.2414L0.633989 15.5078C0.360399 14.5467 0.509908 13.5203 1.04476 12.6614C1.58038 11.8016 2.45897 11.1785 3.48708 10.9281L5.02614 10.732C5.19569 10.7124 5.35446 10.6958 5.48469 10.6842L5.48533 10.6858Z" fill="#A85817"/>
</svg>