<svg xmlns="http://www.w3.org/2000/svg" fill="none" viewBox="0 0 64 64">
<g clip-path="url(#clip0_672_1502)">
<path d="M28.4587 48.1643C28.4587 50.9335 26.7887 53.1782 24.7291 53.1782C22.6695 53.1782 21 50.9335 21 48.1643C21 45.3951 22.6695 43.1504 24.7291 43.1504C26.7887 43.1504 28.4587 45.3951 28.4587 48.1643Z" fill="#A50C0F"/>
<path d="M44.4587 48.1643C44.4587 50.9335 42.7892 53.1782 40.7291 53.1782C38.6695 53.1782 37 50.9335 37 48.1643C37 45.3951 38.6695 43.1504 40.7291 43.1504C42.7892 43.1504 44.4587 45.3951 44.4587 48.1643Z" fill="#A50C0F"/>
<path d="M60.4318 48.1643C60.4318 50.9335 58.7623 53.1782 56.7027 53.1782C54.6431 53.1782 52.9736 50.9335 52.9736 48.1643C52.9736 45.3951 54.6431 43.1504 56.7027 43.1504C58.7623 43.1504 60.4318 45.3951 60.4318 48.1643Z" fill="#A50C0F"/>
<path d="M44.2045 56.6787C42.2691 55.1218 40.0508 55.1204 38.1212 56.673C36.3626 58.089 34.9687 60.6157 34 63.9993H48.3506C47.3741 60.6248 45.9723 58.1002 44.2047 56.6786L44.2045 56.6787Z" fill="#A50C0F"/>
<path d="M59.8524 55.8955C57.9176 54.3386 55.6998 54.3372 53.7697 55.8898C52.0111 57.3058 50.6172 59.8325 49.6479 63.2161H63.9999C63.0223 59.8416 61.6201 57.317 59.8525 55.8954L59.8524 55.8955Z" fill="#A50C0F"/>
<path d="M27.205 56.6787C25.2702 55.1218 23.0519 55.1204 21.1217 56.673C19.3631 58.089 17.9687 60.615 17 63.9993H31.352C30.3749 60.6248 28.9731 58.1002 27.2057 56.6786L27.205 56.6787Z" fill="#A50C0F"/>
<path d="M13.4577 6.00537C13.4577 8.77458 11.7886 11.0193 9.7291 11.0193C7.6695 11.0193 6 8.77458 6 6.00537C6 3.23689 7.6695 0.992188 9.7291 0.992188C11.7887 0.992188 13.4577 3.23689 13.4577 6.00537Z" fill="#0E16AA"/>
<path d="M18.9506 35.0939H62.3058C63.1933 35.0939 63.9145 34.1241 63.9145 32.9302V2.16369C63.9145 0.970465 63.1932 0 62.3058 0L18.9506 0.000704796C18.0631 0.000704796 17.3414 0.971206 17.3414 2.16439V20.2829C17.5956 20.6945 17.8367 20.9892 18.0375 21.0434C18.0695 21.0519 18.1077 21.0568 18.1518 21.0568C18.211 21.0568 18.298 21.0484 18.4144 21.0173L18.4149 2.16264C18.4149 1.76443 18.6555 1.44163 18.9512 1.44163H62.305C62.6012 1.44163 62.8412 1.76514 62.8412 2.16264V32.9292C62.8412 33.3267 62.6012 33.6502 62.305 33.6502H18.9498C18.6542 33.6502 18.4136 33.3267 18.4136 32.9292L18.4141 27.8961C18.3265 27.9018 18.239 27.9053 18.152 27.9053C17.8794 27.9053 17.6079 27.8785 17.3411 27.8278V32.929C17.3411 34.1215 18.0629 35.092 18.9498 35.092L18.9506 35.0939Z" fill="#A46744"/>
<path d="M20.7336 26.627C20.8324 26.627 20.9324 26.6235 21.033 26.6178C22.5993 26.521 24.3356 25.6628 26.2983 24.0237C26.8468 23.5662 27.0887 22.7943 26.9767 22.0665L33.7479 16.2957C34.0209 16.0634 34.082 15.6136 33.8832 15.2937C33.7634 15.1 33.576 14.9975 33.3874 14.9975C33.2623 14.9975 33.136 15.0418 33.0276 15.1351L26.3343 20.8378C26.0391 20.5768 25.6805 20.4407 25.3188 20.4407C24.9806 20.4407 24.6399 20.5593 24.3429 20.8077C23.0251 21.9087 21.8983 22.5339 21.0324 22.6553C20.9288 22.6693 20.8283 22.6791 20.7325 22.6791C20.6013 22.6791 20.4768 22.6651 20.3606 22.637C20.1696 22.5928 19.9864 22.5044 19.8068 22.3823C18.9548 21.7985 18.2219 20.414 17.4549 18.9615C16.2126 16.61 14.8031 13.9435 12.1405 13.2488C12.0591 13.2271 11.9783 13.2158 11.8975 13.2088C11.2849 12.9941 10.6599 12.8867 10.0355 12.8867C8.84935 12.8867 7.66319 13.274 6.55745 14.0488C2.03166 17.2226 -0.39992 24.7169 0.0539313 36.101C0.096441 37.1578 0.841266 37.9831 1.73522 37.9831C1.76157 37.9831 1.78791 37.9824 1.81485 37.9803C2.74409 37.9291 3.46258 37.0049 3.41889 35.9159C3.20814 30.6355 3.65779 27.141 4.71875 23.547C4.86904 23.0382 5.0313 22.5541 5.20433 22.0923V37.8372H5.2181V61.0481C5.2181 62.3701 6.13237 63.4409 7.25975 63.4409C8.38717 63.4409 9.30139 62.3694 9.30139 61.0481L9.30259 37.8372H10.8048V61.032C10.8048 62.354 11.7191 63.4247 12.8465 63.4247C13.9739 63.4247 14.8881 62.3532 14.8881 61.032V37.8372H14.9037V22.2635L14.745 21.3316C15.9149 23.5385 17.2716 25.9356 19.696 26.5074C19.7325 26.5158 19.7702 26.5221 19.8073 26.5298C20.1097 26.593 20.4181 26.6266 20.7336 26.6266L20.7336 26.627Z" fill="#0E16AA"/>
<path d="M40.5732 18.0734C40.5732 18.4772 40.817 18.805 41.1168 18.805C41.4172 18.805 41.6604 18.4772 41.6604 18.0734C41.6604 17.6695 41.4167 17.3418 41.1168 17.3418C40.8165 17.3418 40.5732 17.6695 40.5732 18.0734Z" fill="#0D0D0D"/>
<path d="M51.5827 17.3613C51.2828 17.3613 51.0391 17.6891 51.0391 18.0922C51.0391 18.4961 51.2828 18.8231 51.5827 18.8231C51.883 18.8231 52.1262 18.4961 52.1262 18.0922C52.1268 17.6891 51.883 17.3613 51.5827 17.3613Z" fill="#0D0D0D"/>
<path d="M51.5894 12.1381H46.7511V6.71894H46.749C46.7301 6.23263 46.6997 5.8457 46.3181 5.8457C45.9244 5.8457 45.8862 6.2573 45.8862 6.76405C45.8862 6.78519 45.8872 6.80634 45.8883 6.82748V12.1382H41.0499L36.6572 25.8175C36.6572 25.8175 36.8391 29.0737 41.115 29.0737C45.3903 29.0737 45.5728 25.8175 45.5728 25.8175L41.6429 12.9867H50.9982L47.0683 25.8175C47.0683 25.8175 47.2502 29.0737 51.5256 29.0737C55.8009 29.0737 55.9834 25.8175 55.9834 25.8175L51.5894 12.1381ZM41.0154 25.8181L41.0149 23.328H41.2188V25.8181H41.0154ZM45.1088 25.8181H41.7204V23.3443H42.3909L41.6633 19.9768H41.7854L42.2053 21.8698C42.3054 22.3019 42.7248 22.1186 42.632 21.6753L42.1655 19.6137C42.1078 19.3818 41.9542 18.9611 41.5742 18.9611H40.6558C40.2726 18.9611 40.1195 19.379 40.0697 19.6137L39.6037 21.6775C39.5073 22.1208 39.9298 22.2906 40.0304 21.8769L40.4503 19.9768H40.563L39.8412 23.3443H40.5132V25.8175H37.0567L41.2093 12.9035L45.1088 25.8181ZM51.6854 25.8181H51.5501L51.5506 22.4761H51.6864L51.6854 25.8181ZM52.2955 25.8181L52.2966 19.986H52.4302V22.1701C52.4302 22.6098 52.8569 22.6098 52.8559 22.1701V19.9387C52.8559 19.4531 52.6441 18.9774 52.2216 18.9774L51.0024 18.9767C50.6171 18.9767 50.3759 19.3988 50.3759 19.9253L50.3765 22.1707C50.3765 22.607 50.8052 22.607 50.8052 22.1707V19.9859H50.9415L50.941 25.8181H47.5411L51.4594 12.9041L55.4899 25.8181L52.2955 25.8181Z" fill="#0D0D0D"/>
</g>
<defs>
<clipPath id="clip0_672_1502">
<rect width="64" height="64" fill="white"/>
</clipPath>
</defs>
</svg>