<svg xmlns="http://www.w3.org/2000/svg" fill="none" viewBox="9.16 5.59 45.68 52.82">
<path d="M54.2264 24.0845C54.0296 24.2749 53.8265 24.4473 53.6112 24.6196C52.2582 25.6772 50.5609 26.3046 48.7157 26.3046L36.5512 26.3041V27.7001C36.5512 28.309 36.0531 28.8071 35.4442 28.8071L28.5561 28.8076C27.9472 28.8076 27.4492 28.3095 27.4492 27.7006V26.3046L15.2847 26.3041C13.4394 26.3041 11.7422 25.6708 10.3892 24.6191C10.1738 24.4531 9.97119 24.2749 9.77393 24.084C9.55859 23.875 9.34962 23.6533 9.15869 23.4199L9.15918 45.0374C9.15918 46.384 10.2539 47.4729 11.5947 47.4729H18.9623V47.2146C18.9623 47.0857 18.9623 46.9685 18.9687 46.8577V46.8391V46.784C18.975 46.5994 18.9872 46.4212 18.9994 46.2429C19.2333 43.0574 20.6108 40.0989 22.9233 37.8606C25.371 35.4866 28.5937 34.1764 32.0009 34.1764C35.1684 34.1764 38.1694 35.3019 40.5434 37.3619L41.8593 36.0461L41.226 32.6637L43.0405 32.3253L43.6494 35.5666L46.8832 36.1808L46.5449 37.9953L43.1625 37.362L41.8466 38.6779C43.6919 40.7995 44.7924 43.4382 45.0014 46.2545C45.0136 46.4328 45.0258 46.6173 45.0321 46.7955V46.8507V46.8693C45.0321 46.9801 45.0385 47.0905 45.0385 47.2262V47.4845H52.4061C53.7527 47.4845 54.8416 46.3898 54.8416 45.049L54.8411 23.4265C54.6443 23.654 54.4417 23.8752 54.2264 24.0847L54.2264 24.0845ZM49.4047 35.1298L44.9213 34.2871L44.0785 29.8037L45.893 29.4653L46.5019 32.7066L49.7431 33.3155L49.4047 35.1298Z" fill="#8B4113"/>
<path d="M52.4002 12.9102H40.2724V7.86717C40.2724 6.6128 39.2514 5.5918 37.997 5.5918H26.0044C24.75 5.5918 23.729 6.6128 23.729 7.86717V12.9102H11.6011C10.3404 12.9102 9.29498 13.8755 9.17773 15.1054L9.17822 18.3467C9.17822 19.2939 9.39356 20.1919 9.78076 20.9912C9.95312 21.3481 10.1621 21.686 10.396 22.0058C11.5093 23.4941 13.2925 24.4599 15.2915 24.4599H27.4497V22.5043C27.4497 21.8954 27.9478 21.3974 28.5567 21.3974L35.4448 21.3969C36.0537 21.3969 36.5517 21.8949 36.5517 22.5038V24.4595H48.7105C50.709 24.4595 52.4928 23.4941 53.606 22.0053C53.8399 21.6919 54.0489 21.3535 54.2212 20.9907C54.6089 20.1914 54.8238 19.2934 54.8238 18.3462V15.1049C54.7066 13.8754 53.6612 12.9101 52.4004 12.9101L52.4002 12.9102ZM36.6377 12.9102H27.3639V9.22605H36.6382L36.6377 12.9102Z" fill="#8B4113"/>
<path d="M36.7052 47.2144C36.7052 49.8096 34.5958 51.919 32.0005 51.919C29.4053 51.919 27.2959 49.8096 27.2959 47.2144C27.2959 44.625 29.4053 42.5156 32.0005 42.5156C32.9659 42.5156 33.8638 42.8047 34.6079 43.3091L31.3486 46.5683L32.6524 47.8721L35.9116 44.6128C36.4097 45.357 36.7052 46.2491 36.7052 47.2144Z" fill="#DC0004"/>
<path d="M43.1929 47.2149C43.1929 53.3834 38.1744 58.4078 32 58.4078C25.8253 58.4078 20.8071 53.3893 20.8071 47.2149C20.8071 47.0918 20.8071 46.9874 20.8135 46.8887V46.8516C21.0039 40.7755 25.918 36.0215 32.0005 36.0215C34.7681 36.0215 37.3017 37.0117 39.2515 38.6596L35.9307 41.9804C34.835 41.1571 33.4697 40.6712 32.0001 40.6712C28.3902 40.6712 25.4504 43.6112 25.4504 47.2147C25.4504 50.8246 28.3903 53.7645 32.0001 53.7645C35.6098 53.7645 38.5499 50.8245 38.5499 47.2147C38.5499 45.745 38.0577 44.3797 37.234 43.285L40.5547 39.9642C42.129 41.8216 43.107 44.2137 43.1871 46.8524V46.8895C43.1866 46.9871 43.193 47.0916 43.193 47.2147L43.1929 47.2149Z" fill="#DC0004"/>
</svg>