<svg xmlns="http://www.w3.org/2000/svg" fill="none" viewBox="8.68 4.03 48.79 55.03">
<path d="M54.6791 27.5523C55.3739 27.5128 56.0561 27.7486 56.5776 28.2096C57.0991 28.67 57.4174 29.318 57.4638 30.0123V32.7969C57.4189 33.4927 57.1015 34.1422 56.58 34.6051C56.058 35.0675 55.3754 35.3053 54.6791 35.2667H42.832C42.9761 32.6837 42.8008 30.0923 42.3105 27.5523L54.6791 27.5523Z" fill="#1B0D5E"/>
<path d="M57.4637 39.695V42.4601C57.4271 43.1588 57.1117 43.8136 56.5882 44.2775C56.0648 44.7418 55.3773 44.9767 54.6791 44.9298H42.832V37.2349H54.6791C55.3739 37.1949 56.0561 37.4312 56.5776 37.8922C57.0991 38.3526 57.4173 39.0006 57.4637 39.695Z" fill="#1B0D5E"/>
<path d="M57.4637 49.3678V52.1427C57.4261 52.8117 57.1317 53.4406 56.6424 53.8986C56.1536 54.3566 55.5067 54.6086 54.8368 54.6027H42.8319V46.8976H54.679C55.3753 46.859 56.0579 47.0973 56.5799 47.5597C57.1014 48.0221 57.4188 48.672 57.4637 49.3678Z" fill="#1B0D5E"/>
<path d="M46.4914 21.487C47.6374 20.5129 49.0837 19.9635 50.5877 19.9304C50.6531 21.4475 50.0794 22.923 49.0057 23.9978C47.9325 25.072 46.4578 25.6477 44.9407 25.5842C44.9744 24.0817 45.5217 22.6354 46.4914 21.487Z" fill="#17AC2E"/>
<path d="M40.8444 21.7965C39.8708 20.65 39.3204 19.2027 39.2863 17.6989C40.8044 17.6349 42.2799 18.2101 43.3547 19.2849C44.4289 20.3591 45.0041 21.8346 44.9407 23.3532C43.4368 23.32 41.9908 22.7706 40.8444 21.7965Z" fill="#17AC2E"/>
<path d="M18.3691 4.26859C18.4804 4.11966 18.6557 4.03178 18.8417 4.03178C19.0278 4.03178 19.2031 4.11967 19.3144 4.26859L21.0483 6.40584C21.2367 6.63386 21.517 6.76619 21.8124 6.76619C22.1083 6.76619 22.3881 6.63386 22.5766 6.40584L24.3046 4.27646C24.4174 4.12851 24.5927 4.0416 24.7787 4.0416C24.9647 4.0416 25.14 4.12852 25.2528 4.27646L26.9828 6.40584C27.1757 6.62557 27.454 6.75154 27.7465 6.75154C28.039 6.75154 28.3173 6.62557 28.5102 6.40584L30.2363 4.27646C30.3515 4.13291 30.5259 4.0499 30.7104 4.0499C30.8945 4.0499 31.0688 4.13291 31.1846 4.27646L32.3467 5.71884L29.5572 9.31846H19.9829L17.1934 5.72034L18.3691 4.26859Z" fill="#47A445"/>
<path fill-rule="evenodd" clip-rule="evenodd" d="M39.3552 39.9041C39.4856 29.1233 27.4431 21.8653 17.9814 27.0266C9.39694 31.3581 7.50582 43.5728 14.4556 50.2603C23.5498 59.4396 39.4389 52.8143 39.3552 39.9041ZM33.1267 32.9681C34.5534 34.6604 35.4226 36.7522 35.6159 38.9573L37.3385 38.9573C37.1364 36.2972 36.0877 33.7708 34.3459 31.7498L33.1267 32.9681ZM13.9181 40.9251H12.1959L12.1974 40.9256C12.4021 43.6443 13.4904 46.2215 15.2961 48.264L16.7228 47.2703C15.1148 45.5222 14.128 43.2913 13.9181 40.9251ZM16.4054 32.9753C14.9791 34.6648 14.1105 36.7546 13.9186 38.9573H12.1965C12.3976 36.2986 13.4447 33.7744 15.1845 31.7535L15.1832 31.7522L15.1852 31.7527L15.1845 31.7535L16.4054 32.9753ZM23.7803 50.7879C21.7588 50.6058 19.8302 49.8577 18.2144 48.6297L16.7247 49.6658C18.7222 51.3279 21.1886 52.326 23.7803 52.5198V50.7879ZM31.7369 48.3069C30.0426 49.7288 27.9518 50.5941 25.7482 50.7874L25.7481 52.5194C28.4112 52.323 30.9405 51.2766 32.964 49.534L31.7369 48.3069ZM25.4269 48.8163C28.0119 48.6253 30.3888 47.3274 31.9474 45.2562C36.3361 39.5316 31.9543 30.8999 24.7643 31.0283C16.9128 30.9596 12.8449 40.7538 18.4538 46.2533C20.2999 48.0731 22.8414 49.0072 25.4269 48.8163ZM25.7482 29.1046C27.9485 29.3008 30.0368 30.1637 31.7331 31.5787L32.9542 30.3579C30.9347 28.6138 28.4088 27.564 25.7482 27.3628V29.1046ZM23.78 27.3756C22.0743 27.4996 20.4127 27.9727 18.8981 28.7662C18.0636 29.2037 17.2819 29.7355 16.5681 30.3503L17.8058 31.5871C19.4913 30.1632 21.5802 29.3028 23.78 29.1271V27.3756ZM34.3465 48.1324C34.7542 47.6588 35.1282 47.1563 35.4656 46.6299C36.549 44.9107 37.1955 42.9523 37.3489 40.926H35.6199C35.4285 43.132 34.5594 45.2252 33.1321 46.9186L34.3465 48.1324Z" fill="#38C635"/>
<path fill-rule="evenodd" clip-rule="evenodd" d="M35.6536 59.0603H13.8748C12.4964 59.0584 11.1751 58.5101 10.2004 57.5355C9.22582 56.5609 8.67745 55.2391 8.67657 53.8607V31.862C8.66974 28.4591 9.74396 25.1417 11.7439 22.3883C13.7439 19.635 16.5667 17.5881 19.8054 16.5421C20.5354 16.3297 20.513 15.5333 20.4856 14.9176H29.055C29.0267 15.5416 29.0076 16.3277 29.7352 16.5421C34.6317 18.1383 38.471 21.9776 40.0672 26.8741C40.9173 29.0767 40.8914 32.1213 40.8694 34.7127L40.8694 34.7164C40.8691 34.7487 40.8689 34.7811 40.8686 34.8133C40.8644 35.3117 40.8608 35.7926 40.864 36.2466V53.8516C40.8621 55.233 40.3128 56.5567 39.3357 57.5332C38.3591 58.5093 37.0349 59.0588 35.6536 59.0603ZM17.9814 27.0266C27.4431 21.8653 39.4856 29.1233 39.3552 39.9041C39.4389 52.8143 23.5498 59.4396 14.4556 50.2603C7.50582 43.5728 9.39694 31.3581 17.9814 27.0266Z" fill="#47A445"/>
<path fill-rule="evenodd" clip-rule="evenodd" d="M25.75 39.0149V35.5295C26.4257 35.6316 26.9628 36.1501 27.0883 36.8215H27.0961C27.0961 36.8308 27.0999 36.8394 27.1038 36.8482C27.1065 36.8543 27.1092 36.8604 27.1108 36.8669H27.0883C27.0883 37.4104 27.5288 37.8508 28.0722 37.8508C28.6157 37.8508 29.0561 37.4104 29.0561 36.8669C28.999 36.0061 28.6328 35.1945 28.0258 34.5813C27.4184 33.9685 26.6103 33.595 25.75 33.529V32.9348C25.75 32.3913 25.3095 31.9509 24.7661 31.9509C24.2226 31.9509 23.7822 32.3913 23.7822 32.9348V33.5252C22.559 33.6521 21.4789 34.3787 20.9013 35.4641C20.3237 36.5496 20.3237 37.8514 20.9013 38.9368C21.4789 40.0222 22.5591 40.7493 23.7822 40.8758V44.3523C23.0869 44.2566 22.5424 43.7068 22.4536 43.011C22.4536 42.4676 22.0131 42.0271 21.4697 42.0271C20.9262 42.0271 20.4858 42.4676 20.4858 43.011C20.5414 43.8709 20.9052 44.6819 21.5112 45.2948C22.1166 45.9076 22.9228 46.2816 23.7822 46.348V46.9471C23.7822 47.4906 24.2226 47.931 24.7661 47.931C25.3095 47.931 25.7499 47.4906 25.7499 46.9471V46.349C26.9785 46.2332 28.0673 45.5101 28.6503 44.4227C29.2333 43.3353 29.2333 42.0287 28.6503 40.9412C28.0673 39.8538 26.9785 39.1306 25.75 39.0149ZM22.4536 37.53V36.7912C22.5903 36.1345 23.1191 35.6306 23.7822 35.5256V38.8937C23.0835 38.7888 22.54 38.2312 22.4536 37.53ZM25.75 44.3533V41.0075C26.4482 41.1037 26.9961 41.655 27.0883 42.3538V43.0701C26.955 43.7361 26.4209 44.2482 25.75 44.3533ZM15.1832 31.7522L15.1845 31.7535L15.1852 31.7527L15.1832 31.7522Z" fill="#3DC23B"/>
<path d="M19.5004 11.2862L31.1216 11.2867C31.5806 11.2847 31.9541 11.6543 31.958 12.1133C31.9319 12.9967 31.1086 12.9733 30.4233 12.9538C30.2873 12.9499 30.1568 12.9462 30.039 12.9498H19.5004C19.37 12.9435 19.2193 12.9483 19.0602 12.9534C18.3579 12.9757 17.4903 13.0033 17.4736 12.1128C17.5026 11.2319 18.3554 11.2596 19.0555 11.2823C19.2157 11.2875 19.3679 11.2925 19.5004 11.2862Z" fill="#47A445"/>
</svg>