<svg xmlns="http://www.w3.org/2000/svg" fill="none" viewBox="11.34 2.05 41.5 59.8">
<path d="M50.8925 35.8413C50.4515 32.5664 48.9403 30.4883 46.0433 30.4883H43.2093C42.7684 30.4883 42.3905 30.6772 42.0756 30.9292C39.4305 33.3852 35.9037 34.8964 32.0624 34.8964C28.2212 34.8964 24.6943 33.3852 22.0493 30.9292C21.7344 30.6143 21.3564 30.4883 20.9155 30.4883H18.0815C15.1845 30.4883 13.5474 32.5034 13.2324 35.8413C12.8545 39.1792 11.3433 54.4188 11.3433 54.4188C11.4692 56.8119 13.0435 58.89 15.3105 59.6458C19.6558 61.094 27.0869 61.8499 32.0618 61.8499C36.9739 61.8499 44.468 61.0311 48.813 59.6458C51.0801 58.8899 52.7173 56.8118 52.8433 54.4188C52.7812 54.4188 51.27 39.115 50.8921 35.8413H50.8925Z" fill="#951313"/>
<path d="M33.3224 19.2793C32.8815 19.4052 32.4406 19.4682 32.0002 19.4682C31.5593 19.4682 31.1183 19.4052 30.6779 19.2793L22.05 16.6973C21.4202 18.0825 21.1052 19.5943 21.1052 21.1685C21.1052 27.2144 25.9543 32.0635 32.0002 32.0635C37.9831 32.0635 42.8952 27.2144 42.8952 21.1685C42.8952 19.5943 42.5803 18.0825 41.9504 16.6973L33.3224 19.2793Z" fill="#FFE58C"/>
<path d="M16.0675 7.50264L21.4205 9.07689V14.9338C21.4205 15.0597 21.5464 15.1857 21.6724 15.2487L31.0557 18.0197C31.6856 18.2087 32.3779 18.2087 32.9448 18.0197L42.328 15.2487C42.454 15.1857 42.58 15.0597 42.58 14.9338V9.07689L45.8549 8.13207V13.4851C45.6029 13.5481 45.414 13.8 45.414 14.115V14.6189C45.414 14.8708 45.6029 15.1228 45.8549 15.2487L45.099 17.0119C45.036 17.2008 45.162 17.3898 45.351 17.4528L45.9808 17.5158H46.3588L46.9887 17.4528C47.1776 17.4528 47.3036 17.2008 47.2406 17.0119L46.4847 15.2487C46.7367 15.1858 46.9257 14.9338 46.9257 14.6189V14.115C46.9257 13.863 46.7367 13.6111 46.4847 13.4851V7.88007L47.933 7.43916C48.3109 7.31318 48.3109 6.74628 47.933 6.68329L32.5667 2.14917C32.1888 2.02319 31.8109 2.02319 31.433 2.14917L16.0667 6.68329C15.6893 6.87274 15.6893 7.37666 16.0672 7.50263L16.0675 7.50264Z" fill="black"/>
</svg>