<svg xmlns="http://www.w3.org/2000/svg" fill="none" viewBox="0 0.5 120 109.92">
<rect y="0.5" width="120" height="109.921" rx="6" fill="white"/>
<path d="M58.5005 70.8627L76.9905 52.3727C73.88 51.0733 71.0549 49.1757 68.6755 46.7877C66.2864 44.4079 64.3879 41.5819 63.088 38.4702L44.598 56.9602C43.1555 58.4027 42.433 59.1252 41.813 59.9202C41.0815 60.8589 40.4537 61.874 39.9405 62.9477C39.508 63.8577 39.1855 64.8277 38.5405 66.7627L35.1355 76.9702C34.9788 77.4376 34.9556 77.9394 35.0684 78.4193C35.1812 78.8991 35.4257 79.338 35.7742 79.6866C36.1228 80.0351 36.5616 80.2796 37.0415 80.3924C37.5214 80.5052 38.0232 80.482 38.4905 80.3252L48.698 76.9202C50.6355 76.2752 51.603 75.9527 52.513 75.5202C53.5914 75.0069 54.6005 74.3827 55.5405 73.6477C56.3355 73.0277 57.058 72.3052 58.5005 70.8627ZM82.1205 47.2427C83.9641 45.3992 84.9998 42.8987 84.9998 40.2915C84.9998 37.6843 83.9641 35.1838 82.1205 33.3402C80.2769 31.4967 77.7765 30.4609 75.1693 30.4609C72.5621 30.4609 70.0616 31.4967 68.218 33.3402L66.0005 35.5577L66.0955 35.8352C67.188 38.9622 68.9763 41.8002 71.3255 44.1352C73.7304 46.5548 76.6678 48.3783 79.903 49.4602L82.1205 47.2427Z" fill="#2B2B2D"/>
</svg>