<svg xmlns="http://www.w3.org/2000/svg" fill="none" viewBox="0 0 120 109.92">
<rect width="120" height="109.921" rx="6" fill="white"/>
<path d="M58.25 30.3157L43.25 35.9407C41.3 36.6907 40 38.5407 40 40.6407V52.4157C40 65.0407 48.525 76.8157 60 79.6907C71.475 76.8157 80 65.0407 80 52.4157V40.6407C79.9982 39.6233 79.6861 38.6307 79.1054 37.7954C78.5247 36.9601 77.703 36.3218 76.75 35.9657L61.75 30.3407C60.625 29.8907 59.375 29.8907 58.25 30.3157ZM55.575 61.7407L50.275 56.4407C50.0435 56.2092 49.8599 55.9345 49.7347 55.6321C49.6094 55.3296 49.5449 55.0055 49.5449 54.6782C49.5449 54.3509 49.6094 54.0267 49.7347 53.7243C49.8599 53.4219 50.0435 53.1471 50.275 52.9157C50.5065 52.6842 50.7812 52.5006 51.0836 52.3754C51.3861 52.2501 51.7102 52.1856 52.0375 52.1856C52.3648 52.1856 52.6889 52.2501 52.9914 52.3754C53.2938 52.5006 53.5685 52.6842 53.8 52.9157L57.325 56.4407L66.175 47.5907C66.4065 47.3592 66.6812 47.1756 66.9836 47.0504C67.2861 46.9251 67.6102 46.8606 67.9375 46.8606C68.2648 46.8606 68.5889 46.9251 68.8914 47.0504C69.1938 47.1756 69.4685 47.3592 69.7 47.5907C69.9315 47.8221 70.1151 48.0969 70.2403 48.3993C70.3656 48.7017 70.43 49.0259 70.43 49.3532C70.43 49.6805 70.3656 50.0046 70.2403 50.307C70.1151 50.6095 69.9315 50.8842 69.7 51.1157L59.1 61.7157C58.15 62.7157 56.55 62.7157 55.575 61.7407Z" fill="#2B2B2D"/>
</svg>