<svg xmlns="http://www.w3.org/2000/svg" fill="none" viewBox="0 0.04 120 109.92">
<rect y="0.0400391" width="120" height="109.921" rx="6" fill="white"/>
<path d="M42 80.0791C40.625 80.0791 39.4483 79.5899 38.47 78.6116C37.4917 77.6333 37.0017 76.4558 37 75.0791V40.0791C37 38.7041 37.49 37.5274 38.47 36.5491C39.45 35.5708 40.6267 35.0808 42 35.0791H52.5C53.0417 33.5791 53.9483 32.3708 55.22 31.4541C56.4917 30.5374 57.9183 30.0791 59.5 30.0791C61.0817 30.0791 62.5092 30.5374 63.7825 31.4541C65.0558 32.3708 65.9617 33.5791 66.5 35.0791H77C78.375 35.0791 79.5525 35.5691 80.5325 36.5491C81.5125 37.5291 82.0017 38.7058 82 40.0791V75.0791C82 76.4541 81.5108 77.6316 80.5325 78.6116C79.5542 79.5916 78.3767 80.0808 77 80.0791H42ZM47 70.0791H64.5V65.0791H47V70.0791ZM47 60.0791H72V55.0791H47V60.0791ZM47 50.0791H72V45.0791H47V50.0791ZM59.5 38.2041C60.0417 38.2041 60.49 38.0266 60.845 37.6716C61.2 37.3166 61.3767 36.8691 61.375 36.3291C61.3733 35.7891 61.1958 35.3416 60.8425 34.9866C60.4892 34.6316 60.0417 34.4541 59.5 34.4541C58.9583 34.4541 58.5108 34.6316 58.1575 34.9866C57.8042 35.3416 57.6267 35.7891 57.625 36.3291C57.6233 36.8691 57.8008 37.3174 58.1575 37.6741C58.5142 38.0308 58.9617 38.2074 59.5 38.2041Z" fill="#2B2B2D"/>
</svg>