<svg xmlns="http://www.w3.org/2000/svg" fill="none" viewBox="0 0.04 120 109.92">
<rect y="0.0400391" width="120" height="109.921" rx="6" fill="white"/>
<path d="M60 30.0791C46.215 30.0791 35 41.2941 35 55.0791V65.4366C35 67.9966 37.2425 70.0791 40 70.0791H42.5C43.163 70.0791 43.7989 69.8157 44.2678 69.3469C44.7366 68.878 45 68.2421 45 67.5791V54.7216C45 54.0586 44.7366 53.4227 44.2678 52.9538C43.7989 52.485 43.163 52.2216 42.5 52.2216H40.23C41.62 42.5466 49.945 35.0791 60 35.0791C70.055 35.0791 78.38 42.5466 79.77 52.2216H77.5C76.837 52.2216 76.2011 52.485 75.7322 52.9538C75.2634 53.4227 75 54.0586 75 54.7216V70.0791C75 72.8366 72.7575 75.0791 70 75.0791H65V72.5791H55V80.0791H70C75.515 80.0791 80 75.5941 80 70.0791C82.7575 70.0791 85 67.9966 85 65.4366V55.0791C85 41.2941 73.785 30.0791 60 30.0791Z" fill="#2B2B2D"/>
</svg>