<svg xmlns="http://www.w3.org/2000/svg" fill="none" viewBox="0 0 180 180">
<rect width="180" height="180" rx="6" fill="white"/>
<path d="M141.569 131.448C150.236 131.448 157.262 127.392 157.262 122.388C157.262 117.384 150.236 113.328 141.569 113.328C132.903 113.328 125.877 117.384 125.877 122.388C125.877 127.392 132.903 131.448 141.569 131.448Z" fill="#E0E0E0"/>
<path d="M41.4004 128.811L111.593 169.338L143.764 150.764L73.557 110.229L41.4004 128.811Z" fill="#E0E0E0"/>
<path d="M28.9219 136.804L14.3952 128.416C13.9646 128.168 13.9646 127.765 14.3952 127.516L65.4806 98.0222C65.9112 97.7738 66.6089 97.7738 67.0394 98.0222L81.5658 106.41C81.9963 106.658 81.9963 107.061 81.5658 107.31L30.4807 136.804C30.0501 137.052 29.3521 137.052 28.9219 136.804Z" fill="#E0E0E0"/>
<path d="M74.8457 8.88085L31.7281 33.7713C30.8648 34.2727 30.1621 35.4895 30.1621 36.4885V133.726C30.1621 134.725 30.8652 135.132 31.7281 134.631L74.8457 109.74C75.7089 109.238 76.4117 108.022 76.4117 107.023V9.78517C76.412 8.78617 75.7089 8.37937 74.8457 8.88085ZM74.1548 98.0633C74.1548 98.9183 73.5547 99.4633 72.8106 99.891L33.6066 122.525C32.8668 122.952 32.2623 122.607 32.2623 121.748V45.5775C32.2623 44.7185 32.8664 43.6785 33.6066 43.2468L72.811 20.6172C73.5547 20.1856 74.1552 20.5351 74.1552 21.3901V98.0633H74.1548Z" fill="#37474F"/>
<path d="M31.5329 134.729C30.6635 135.129 29.3977 135.094 28.5902 134.632L26.7967 133.595C25.9273 133.095 25.2246 131.884 25.2246 130.878V33.6468C25.2246 33.2663 25.3254 32.8627 25.4964 32.4743C25.5508 32.3461 25.6131 32.2219 25.6829 32.0977C25.6869 32.0977 25.6868 32.0938 25.6868 32.0938L30.6206 34.9432H30.6246C30.5198 35.1296 30.4266 35.3237 30.3528 35.5177C30.2326 35.8439 30.1627 36.1776 30.1627 36.4883V133.728C30.1627 134.648 30.7603 135.067 31.5329 134.729Z" fill="#263238"/>
<path d="M53.659 113.639C55.0262 112.849 56.1343 113.49 56.1343 115.068C56.1343 116.647 55.0262 118.566 53.659 119.356C52.2917 120.145 51.1836 119.505 51.1836 117.927C51.1836 116.348 52.2917 114.428 53.659 113.639Z" fill="#FBCC04"/>
<path d="M53.2875 23.4228C53.8682 23.0877 54.3387 23.3595 54.3387 24.0298C54.3387 24.7001 53.8682 25.5152 53.2875 25.8503C52.7068 26.1855 52.2363 25.9137 52.2363 25.2434C52.236 24.5734 52.7068 23.758 53.2875 23.4228Z" fill="black"/>
<path d="M49.2285 29.8164L57.3444 25.1307C57.8286 24.8509 58.221 25.0497 58.221 25.5742C58.221 26.0987 57.8286 26.7507 57.3444 27.03L49.2282 31.7158C48.744 31.9955 48.3516 31.7968 48.3516 31.2723C48.3519 30.7477 48.7447 30.0958 49.2285 29.8164Z" fill="black"/>
<path d="M74.1542 97.9828C74.1542 98.8378 73.5541 99.3828 72.81 99.8105L33.606 122.444C32.8662 122.871 32.2617 122.526 32.2617 121.667V45.497C32.2617 44.6376 32.8658 43.5976 33.606 43.1663L72.8103 20.5367C73.5541 20.1051 74.1546 20.4546 74.1546 21.3096V97.9828H74.1542Z" fill="#FBCC04" stroke="white" stroke-miterlimit="10"/>
<path d="M76.3975 9.53549C76.2848 8.72045 75.6328 8.42525 74.8487 8.87957L31.7276 33.7703C31.2967 34.0187 30.9046 34.4497 30.6213 34.9429L25.6875 32.0935C25.9748 31.6003 26.3629 31.1773 26.7977 30.9289L69.911 6.03377C70.7728 5.53301 72.1779 5.53301 73.0477 6.03377L74.8487 7.06625C75.6404 7.52849 76.2967 8.58833 76.3975 9.53549Z" fill="#455A64"/>
<path d="M43.9485 55.7952C44.3974 55.536 44.8078 55.402 45.1786 55.393C45.5491 55.3848 45.8698 55.4881 46.1402 55.7023C46.4102 55.9176 46.6219 56.2387 46.7749 56.6664C46.9279 57.094 47.0139 57.6078 47.0333 58.2075C47.0405 58.4142 47.0434 58.6053 47.0434 58.7806C47.0434 58.956 47.0434 59.1241 47.0434 59.2843C47.0434 59.4445 47.0434 59.6097 47.0434 59.7804C47.0434 59.951 47.0402 60.1382 47.0333 60.3423C47.0139 60.9752 46.9293 61.5897 46.7799 62.1873C46.6301 62.7846 46.4235 63.3454 46.16 63.8678C45.8965 64.3909 45.5818 64.8607 45.2175 65.2761C44.8532 65.6919 44.4464 66.0296 43.9971 66.2888L41.3612 67.8112C41.2899 67.8523 41.228 67.848 41.1758 67.7979C41.1236 67.7479 41.0977 67.668 41.0977 67.5574V57.8472C41.0977 57.737 41.1236 57.6272 41.1758 57.5167C41.228 57.4062 41.2895 57.3306 41.3612 57.2895L43.9485 55.7952ZM45.2272 59.1907C45.1883 58.0606 44.7455 57.7402 43.8995 58.2288L42.9041 58.8037V64.5151L43.9485 63.9121C44.7682 63.4387 45.1948 62.6164 45.2272 61.4454C45.2337 61.2308 45.2369 61.0314 45.2369 60.8456C45.2369 60.6606 45.2369 60.4798 45.2369 60.3049C45.2369 60.1292 45.2369 59.9514 45.2369 59.7714C45.2369 59.5906 45.2333 59.3973 45.2272 59.1907Z" fill="white"/>
<path d="M51.5925 51.382C51.7225 51.3072 51.8219 51.305 51.8903 51.3756C51.9583 51.4465 52.0055 51.5296 52.0321 51.6243L54.1601 59.8651C54.186 59.9504 54.1989 60.0184 54.1989 60.0681C54.1989 60.1581 54.1777 60.2481 54.1356 60.3374C54.0935 60.4274 54.0427 60.489 53.9844 60.5228L52.7543 61.2331C52.6239 61.3083 52.5311 61.3191 52.476 61.2662C52.4209 61.2133 52.3867 61.1503 52.3737 61.0776L52.1001 59.9878L49.5035 61.4873L49.2299 62.8923C49.2169 62.9802 49.1827 63.0828 49.1273 63.1998C49.0718 63.3171 48.9793 63.4129 48.849 63.4881L47.6192 64.1984C47.5605 64.2322 47.5101 64.2294 47.4677 64.1883C47.4255 64.148 47.4043 64.0821 47.4043 63.9918C47.4043 63.9417 47.4173 63.8593 47.4432 63.7441L49.5715 53.046C49.5971 52.921 49.6446 52.7835 49.713 52.6338C49.7814 52.484 49.8807 52.3713 50.0107 52.2961L51.5925 51.382ZM50.0111 58.8636L51.5929 57.9506L50.8023 54.7995L50.0111 58.8636Z" fill="white"/>
<path d="M59.3249 46.9186C59.3962 46.8776 59.4581 46.8815 59.5107 46.9316C59.5625 46.982 59.5888 47.0619 59.5888 47.172V48.7654C59.5888 48.8759 59.5625 48.9861 59.5107 49.0962C59.4581 49.2068 59.3966 49.2824 59.3249 49.3238L57.607 50.3159V58.0264C57.607 58.1369 57.5807 58.2471 57.5285 58.3572C57.4763 58.4674 57.4148 58.5434 57.3431 58.5848L56.064 59.3231C55.9924 59.3645 55.9305 59.3598 55.8783 59.3098C55.8261 59.2598 55.8005 59.1798 55.8005 59.0693V51.3588L54.0822 52.351C54.0106 52.392 53.9487 52.3877 53.8965 52.3377C53.8443 52.2876 53.8184 52.2077 53.8184 52.0972V50.5038C53.8184 50.3933 53.8439 50.2835 53.8965 50.173C53.9487 50.0628 54.0102 49.9869 54.0822 49.9455L59.3249 46.9186Z" fill="white"/>
<path d="M63.3953 44.5676C63.5252 44.4928 63.6246 44.4906 63.693 44.5608C63.761 44.6317 63.8082 44.7149 63.8348 44.8096L65.9628 53.0503C65.9887 53.1356 66.0017 53.2037 66.0017 53.2534C66.0017 53.3434 65.9808 53.4334 65.9383 53.5226C65.8962 53.6126 65.8454 53.6742 65.7871 53.708L64.557 54.4183C64.4267 54.4936 64.3338 54.5044 64.2787 54.4514C64.2236 54.3985 64.1894 54.3355 64.1765 54.2628L63.9029 53.1731L61.3062 54.6725L61.0326 56.0776C61.0196 56.1654 60.9854 56.268 60.93 56.385C60.8745 56.5024 60.782 56.5981 60.6521 56.6734L59.422 57.3836C59.3633 57.4175 59.3129 57.4146 59.2704 57.3736C59.2283 57.3332 59.207 57.2674 59.207 57.177C59.207 57.127 59.22 57.0445 59.2459 56.9293L61.3742 46.2312C61.3998 46.1063 61.4473 45.9688 61.5157 45.819C61.5841 45.6692 61.6835 45.5566 61.8134 45.4813L63.3953 44.5676ZM61.8138 52.0492L63.3956 51.1362L62.6051 47.9851L61.8138 52.0492Z" fill="white"/>
<path d="M139.462 45.8828C137.176 45.9901 136.392 46.4261 135.195 47.8358C134.026 49.2121 128.387 59.6633 128.387 59.6633C128.387 59.6633 129.445 62.6297 131.76 62.3773L136.09 55.3955L139.462 45.8828Z" fill="#FFA8A7"/>
<path d="M139.766 45.8881C139.766 45.8881 138.124 45.6739 136.952 46.0976C135.781 46.5214 135.195 47.3692 134.389 48.6011C133.764 49.554 131.578 53.5115 131.578 53.5115C131.578 53.5115 132.643 56.4736 135.672 56.4736L139.766 45.8881Z" fill="#E0E0E0"/>
<path d="M147.599 120.208V119.712C147.404 120.294 146.497 122.796 145.123 124.05C144.03 125.047 142.539 126.198 142.159 127.31C141.765 128.465 144.234 128.854 145.255 128.673C146.442 128.463 147.977 127.79 148.812 126.763C149.4 126.041 149.774 125.186 150.193 124.618C150.613 124.051 151.58 123.417 151.806 122.76C151.931 122.399 151.783 121.609 151.608 120.941C151.447 120.328 151.273 119.655 151.064 119.712C151.064 119.787 151.064 120.09 151.064 120.09C150.813 120.369 150.117 120.646 149.332 120.675C148.825 120.695 147.595 120.594 147.599 120.208Z" fill="#263238"/>
<path d="M144.133 124.926C144.472 124.623 144.813 124.328 145.123 124.046C146.083 123.169 146.815 121.684 147.236 120.669C147.476 120.091 147.6 119.473 147.6 118.846V116.871H151.065V120.086V120.086V120.172L151.047 120.181C150.88 120.901 149.29 122.816 148.387 124.065C147.781 124.902 146.631 125.967 145.255 126.15C143.953 126.325 143.287 125.914 144.133 124.926Z" fill="#FFA8A7"/>
<path d="M135.369 116.792V116.297C135.173 116.878 134.267 119.38 132.892 120.634C131.799 121.631 130.308 122.782 129.929 123.894C129.534 125.049 132.004 125.438 133.025 125.257C134.212 125.047 135.747 124.373 136.582 123.347C137.169 122.625 137.543 121.77 137.963 121.202C138.382 120.634 139.349 120.001 139.576 119.344C139.701 118.983 139.553 118.193 139.378 117.525C139.217 116.912 139.043 116.239 138.834 116.296C138.833 116.371 138.834 116.674 138.834 116.674C138.582 116.953 137.886 117.23 137.101 117.26C136.594 117.279 135.364 117.179 135.369 116.792Z" fill="#263238"/>
<path d="M131.903 121.509C132.242 121.207 132.583 120.911 132.892 120.629C133.853 119.753 134.585 118.267 135.005 117.253C135.245 116.675 135.369 116.057 135.369 115.43V113.455H138.834V116.67V116.67V116.756L138.816 116.764C138.65 117.484 137.059 119.4 136.156 120.648C135.55 121.486 134.4 122.55 133.025 122.734C131.722 122.908 131.056 122.498 131.903 121.509Z" fill="#FFA8A7"/>
<path d="M150.375 66.3582C153.062 72.2252 150.278 92.8924 150.278 92.8924C150.359 93.8446 151.448 95.718 151.853 99.9081C152.333 104.859 151.101 117.291 151.101 117.291C151.101 117.291 149.497 118.34 147.6 117.431C147.6 117.431 144.297 98.7071 143.676 93.7845C143.135 89.4882 142.094 80.0418 142.094 80.0418L140.423 93.7611C140.423 93.7611 141.182 96.1677 141.359 98.0012C141.639 100.897 138.834 114.379 138.834 114.379C138.834 114.379 137.638 114.817 135.369 114.483C135.369 114.483 134.376 96.5921 134.115 93.1041C133.676 87.2462 133.947 68.9675 135.022 65.5L150.375 66.3582Z" fill="#455A64"/>
<path d="M142.095 80.0407L141.222 74.5914C141.222 74.5914 137.533 73.8271 135.859 72.2539C135.859 72.2539 137.615 74.4377 140.223 75.153L141.202 79.3484L140.535 92.8455L142.095 80.0407Z" fill="#37474F"/>
<path d="M145.636 45.9761C146.657 46.0463 146.998 46.0214 147.74 46.0974C149.22 46.2497 149.577 48.4154 150.183 49.6949C150.839 51.0798 150.846 52.6854 150.346 54.1337L147.946 61.0763C147.946 61.0763 149.069 63.7925 150.374 66.3585C144.352 69.7199 136.832 67.953 135.02 65.4999C134.944 64.9797 135.409 60.9121 135.696 58.2549C134.635 55.5942 134.355 53.9076 134.803 52.1486C135.633 48.8838 138.61 45.8799 139.462 45.8828L145.636 45.9761Z" fill="#F0F0F0"/>
<path d="M150.785 32.7979L149.539 32.6896C149.689 32.6039 149.819 32.4808 149.91 32.3173C150.18 31.827 150.001 31.1931 149.51 30.9015L148.706 32.3609C147.377 30.0825 144.856 28.6065 142.041 28.7566L141.398 28.7908C137.389 29.0043 134.313 32.4271 134.526 36.4357C134.747 40.5772 134.99 45.2097 134.99 45.2097L142.469 44.8115C146.712 44.5858 149.968 40.9638 149.742 36.7216L149.686 35.6286C149.649 34.9295 149.509 34.261 149.29 33.631C149.399 33.6875 149.521 33.7257 149.652 33.7372C150.21 33.7851 150.717 33.3649 150.785 32.7979Z" fill="#455A64"/>
<path d="M135.867 36.9224C135.816 37.7511 135.845 38.2047 135.929 39.3042C136.214 43.0309 137.473 43.888 138.094 44.1217C138.715 44.3549 139.878 44.131 141.006 43.8808L141.006 46.0844C141.006 46.0844 139.649 48.0316 139.803 49.0533C139.957 50.075 142.143 50.2017 143.562 49.1203C144.981 48.0388 145.557 46.1992 145.557 46.1992L145.556 41.0483C145.556 41.0483 146.379 42.034 147.592 41.1319C148.805 40.2297 148.742 38.1608 147.972 37.4577C147.202 36.7546 145.609 37.0527 145.37 38.0935C145.37 38.0935 142.745 37.8735 142.411 33.5488C139.971 36.7305 136.022 34.4359 135.867 36.9224Z" fill="#FFA8A7"/>
<path d="M145.356 37.8044L145.455 39.6508C144.761 39.6879 144.168 39.1551 144.131 38.461L144.021 36.4004L145.356 37.8044Z" fill="#455A64"/>
<path d="M140.537 38.0298C140.538 38.2994 140.749 38.5168 141.008 38.5154C141.268 38.514 141.477 38.294 141.477 38.0244C141.476 37.7547 141.265 37.5373 141.005 37.5391C140.746 37.5405 140.536 37.7601 140.537 38.0298Z" fill="#263238"/>
<path d="M140.506 41.3359L139.25 41.8115C139.376 42.1715 139.759 42.3573 140.106 42.2259C140.452 42.0945 140.632 41.6959 140.506 41.3359Z" fill="#F28F8F"/>
<path d="M141.051 35.9222L142.152 36.2775C142.262 35.9747 142.105 35.65 141.801 35.5517C141.497 35.4535 141.161 35.6194 141.051 35.9222Z" fill="#455A64"/>
<path d="M136.504 38.2329C136.505 38.5025 136.716 38.72 136.975 38.7182C137.235 38.7167 137.444 38.4968 137.444 38.2275C137.443 37.9578 137.232 37.7408 136.972 37.7422C136.713 37.7436 136.503 37.9632 136.504 38.2329Z" fill="#263238"/>
<path d="M139.246 37.834L139.322 40.6625L137.811 40.2813L139.246 37.834Z" fill="#F28F8F"/>
<path d="M141.008 43.8807C142.199 43.6593 144.63 42.8187 144.963 41.8223C144.963 41.8223 144.868 42.4425 144.164 43.1136C143.46 43.785 141.008 44.6274 141.008 44.6274V43.8807Z" fill="#F28F8F"/>
<path d="M144.095 67.0095C146.073 66.5412 146.449 65.796 145.927 63.8315C145.907 63.7569 145.887 63.6929 145.865 63.6421C145.478 62.7108 143.933 63.2645 143.933 63.2645C143.933 63.2645 144.565 62.4761 145.275 61.4713C145.985 60.4665 146.303 58.8044 146.398 57.6387C146.493 56.4731 146.683 54.1377 146.683 54.1377C146.683 54.1377 148.221 53.2169 147.621 51.5321L149.998 50.0723C149.998 50.0723 150.171 50.1932 150.445 50.3833C150.822 51.5958 150.765 52.9195 150.346 54.1338L147.946 61.0764C147.946 61.0764 149.364 63.573 150.374 66.3587C145.936 68.8358 140.686 68.5266 137.506 67.2111C140.018 67.6003 142.346 67.4239 144.095 67.0095Z" fill="#E6E6E6"/>
<path d="M145.779 37.4484L143.059 37.5931C142.878 36.9138 142.241 36.4281 141.511 36.467L141.277 36.4796C140.645 36.5131 140.125 36.9307 139.926 37.4934C139.707 37.2839 139.381 37.1543 139.02 37.155C138.705 37.1557 138.438 37.2565 138.25 37.43C137.966 36.9771 137.457 36.6827 136.887 36.7133L136.653 36.7259C135.816 36.7705 135.173 37.4869 135.217 38.3232C135.262 39.1595 135.978 39.8035 136.814 39.7589L137.048 39.7463C137.885 39.7016 138.529 38.9852 138.484 38.1489C138.475 37.9797 138.432 37.8217 138.373 37.6723C138.509 37.5103 138.745 37.4113 139.021 37.4106C139.368 37.4099 139.691 37.5531 139.844 37.776L139.856 37.7677C139.841 37.8681 139.835 37.9711 139.841 38.0762C139.885 38.9125 140.602 39.5565 141.438 39.5119L141.672 39.4993C142.508 39.4547 143.152 38.7383 143.108 37.902C143.107 37.8829 143.101 37.8656 143.099 37.8465L145.532 37.7169C145.631 37.5783 145.726 37.4905 145.779 37.4484ZM137.035 39.4907L136.801 39.5033C136.105 39.5403 135.51 39.005 135.473 38.3095C135.436 37.6143 135.972 37.0185 136.666 36.9818L136.901 36.9692C137.596 36.9321 138.192 37.4675 138.229 38.1626C138.266 38.8581 137.73 39.4536 137.035 39.4907ZM141.659 39.2444L141.424 39.257C140.729 39.2941 140.134 38.7588 140.097 38.0633C140.06 37.3681 140.595 36.7723 141.29 36.7356L141.525 36.723C142.22 36.6859 142.816 37.2212 142.853 37.9167C142.89 38.6119 142.354 39.2077 141.659 39.2444Z" fill="#263238"/>
<path d="M123.4 57.4551L135.563 60.6587L138.911 74.4201L127.348 71.0616L123.4 57.4551Z" fill="#FBCC04"/>
<path opacity="0.25" d="M123.4 57.4551L135.563 60.6587L138.911 74.4201L127.348 71.0616L123.4 57.4551Z" fill="black"/>
<path opacity="0.2" d="M131.596 68.8223C131.673 69.5667 132.195 70.4286 133.715 71.1543C135.234 71.8801 138.195 71.4747 138.195 71.4747L137.783 69.7813L131.596 68.8223Z" fill="black"/>
<g opacity="0.2">
<path d="M128.896 67.1992C128.783 67.5077 128.238 68.551 126.656 68.6785L126.533 68.2544L128.896 67.1992Z" fill="black"/>
</g>
<g opacity="0.1">
<path d="M127.064 59.6402C127.064 59.6402 127.019 59.4325 126.964 59.1761C126.909 58.9198 127.622 58.909 128.558 59.1517L130.35 59.6164C131.286 59.8591 132.09 60.2637 132.145 60.5197L132.246 60.9837L127.064 59.6402Z" fill="black"/>
</g>
<path d="M126.13 57.8966C126.095 57.7364 126.384 57.6947 126.776 57.8027L127.485 57.9985C127.485 57.9985 127.274 56.9952 128.848 57.3458C130.423 57.6965 130.767 58.8355 130.767 58.8355C130.767 58.8355 131.106 58.932 131.524 59.0508C131.943 59.1696 132.322 59.3953 132.372 59.5548L132.461 59.8435L126.196 58.194C126.196 58.194 126.165 58.0568 126.13 57.8966Z" fill="#37474F"/>
<path d="M126.993 58.3915C127.567 58.5301 127.805 58.606 127.891 59.0009C127.989 59.452 128.029 59.7832 128.029 59.7832L130.802 60.5162C130.802 60.5162 130.668 59.9449 130.625 59.7224C130.583 59.4999 130.677 59.3656 131.118 59.4823L131.156 59.3055L126.811 58.1992L126.993 58.3915Z" fill="#37474F"/>
<path d="M126.898 59.6832C126.898 59.6832 126.853 59.4754 126.798 59.2191C126.743 58.9628 127.456 58.952 128.392 59.1946L130.184 59.6594C131.12 59.902 131.924 60.3067 131.979 60.563L132.08 61.027L126.898 59.6832Z" fill="#37474F"/>
<path d="M124.682 61.873C124.682 61.873 125.137 63.4289 125.241 63.7997C125.345 64.1705 126.708 64.8372 127.602 65.0827C128.496 65.3282 129.474 65.6195 129.051 66.8694C128.66 68.0221 127.189 68.2853 126.44 68.2525C125.691 68.2201 124.666 67.5041 124.262 66.3499C123.747 64.8779 124.024 63.3058 123.82 62.4457C123.615 61.5864 124.234 61.3603 124.682 61.873Z" fill="#FFA8A7"/>
<path d="M147.465 46.0723C149.042 46.1723 150.672 47.0263 150.919 48.9206C151.167 50.8149 152.701 60.7862 152.099 61.9087C150.707 64.5046 141.526 69.4409 140.614 69.8632C139.702 70.2855 138.186 70.9792 136.378 70.9994C134.947 71.0152 133.042 70.9684 132.078 69.6739C131.224 68.5255 130.741 66.4054 132.672 66.7701C134.603 67.1348 137.097 66.9645 137.097 66.9645L136.872 66.0397C136.872 66.0397 137.382 65.9939 138.345 66.2801C139.309 66.5663 140.184 65.7391 141.885 64.6882C144.079 63.3328 147.418 60.4672 147.418 60.4672L146.056 52.1415C146.057 52.1415 146.012 48.5422 147.465 46.0723Z" fill="#FFA8A7"/>
<path d="M147.178 46.0728C147.178 46.0728 148.022 45.8787 148.949 46.2315C149.876 46.5847 150.699 47.0545 151.084 48.9211C151.469 50.7877 152.23 57.6126 152.23 57.6126C152.23 57.6126 150.21 59.0727 146.921 58.379L145.739 52.1863C145.739 52.1863 144.819 47.8515 147.178 46.0728Z" fill="#E0E0E0"/>
<path d="M34.7816 79.0395L73.267 56.8203L73.2678 62.1526L34.7812 84.3729L34.7816 79.0395Z" fill="#455A64"/>
<path d="M36.3223 79.9289V81.7059L71.729 61.264V59.4863L36.3223 79.9289Z" fill="#263238"/>
<path d="M34.7819 79.04L33.2422 78.1516L71.7284 55.9316L73.2673 56.8208L34.7819 79.04Z" fill="#37474F"/>
<path d="M33.2422 78.1523L34.7819 79.0408L34.7815 84.3742L33.2426 83.485L33.2422 78.1523Z" fill="#263238"/>
<path d="M145.623 148.375L111.752 167.918V167.05L145.619 147.508L145.623 148.375Z" fill="#37474F"/>
<path d="M79.4254 94.957L71.9651 99.2644L67.3795 101.91C67.2315 101.986 67.0875 102.069 66.9475 102.16C65.2382 103.214 64.0333 105.09 64.0333 107.39L64.0293 128.828C64.0293 130.912 63.0364 132.656 61.5698 133.747C60.5125 134.539 59.2085 134.994 57.8596 134.994C56.8365 134.994 55.7867 134.732 54.7939 134.16C49.0789 130.859 45.5581 124.761 45.5581 118.163V95.9257C45.5581 92.6249 44.6789 89.449 43.0834 86.6899C41.4879 83.9273 39.1799 81.5776 36.3223 79.9288L70.1893 60.375C73.0505 62.0274 75.3585 64.3847 76.954 67.1434C78.5495 69.906 79.4287 73.0783 79.4287 76.3792V86.066C79.429 88.8362 79.4254 94.957 79.4254 94.957Z" fill="#F5F5F5"/>
<path d="M91.7421 155.495C86.0271 152.198 82.5063 146.101 82.5063 139.502L82.5045 118.051C82.5045 115.542 81.9965 113.113 81.053 110.877C80.7538 110.168 80.4125 109.482 80.0299 108.815C78.4343 106.056 76.1264 103.707 73.2691 102.058C69.1636 99.6904 64.0343 102.655 64.0369 107.394L64.0379 109.579L64.0333 107.39L64.0293 128.828L64.03 124.368V128.821C64.03 133.561 58.9015 136.526 54.7935 134.161C49.0785 130.86 45.5577 124.762 45.5577 118.164V95.9266C45.5577 92.6258 44.6786 89.4499 43.0831 86.6908C41.4875 83.9282 39.1796 81.5785 36.3223 79.9297V80.8164C41.5635 84.0225 44.7999 89.7642 44.7999 95.9263V118.164C44.7999 125.012 48.4834 131.39 54.4144 134.816C56.5784 136.067 59.1632 136.067 61.3307 134.816C61.4632 134.741 61.5921 134.661 61.721 134.574L61.7325 134.566C63.6538 133.281 64.7871 131.167 64.7871 128.828L64.7911 107.39C64.7911 105.439 65.7991 103.688 67.4893 102.714C69.1795 101.736 71.1994 101.736 72.8896 102.714C76.3042 104.684 78.9117 107.72 80.3859 111.26C81.269 113.382 81.7463 115.686 81.7463 118.051L81.7467 123.029L81.7481 139.502C81.7481 146.347 85.432 152.729 91.363 156.155L111.752 167.92V167.052L91.7421 155.495Z" fill="#455A64"/>
<path d="M145.619 147.507L111.751 167.05L91.7415 155.494C86.0265 152.196 82.5057 146.099 82.5057 139.501L82.5039 118.049C82.5039 115.54 81.996 113.111 81.0524 110.875C80.7529 110.166 80.412 109.481 80.0293 108.814C78.4338 106.054 76.1258 103.705 73.2681 102.056C71.3166 100.927 69.1335 101.007 67.3789 101.908L71.9646 99.2631L81.1907 93.9361L100.939 82.5364L100.989 82.5061C102.781 81.4715 105.085 81.3275 107.136 82.5097C109.993 84.1582 112.301 86.5079 113.897 89.2709C115.492 92.0335 116.371 95.2095 116.371 98.5067L116.373 119.954C116.373 126.552 119.894 132.65 125.609 135.951L145.619 147.507Z" fill="#FAFAFA"/>
<path d="M81.7476 118.049C81.7476 115.684 81.2703 113.38 80.3872 111.258C78.913 107.718 76.3055 104.682 72.8909 102.712C71.2007 101.734 69.1807 101.734 67.4905 102.712C65.8003 103.686 64.7924 105.437 64.7924 107.389L64.7884 128.827C64.7884 131.165 63.6551 133.28 61.7338 134.564L61.7223 134.572C61.5934 134.659 61.4645 134.739 61.332 134.814L81.748 123.027L81.7476 118.049Z" fill="#E0E0E0"/>
<path opacity="0.15" d="M81.7476 118.049C81.7476 115.684 81.2703 113.38 80.3872 111.258C78.913 107.718 76.3055 104.682 72.8909 102.712C71.2007 101.734 69.1807 101.734 67.4905 102.712C65.8003 103.686 64.7924 105.437 64.7924 107.389L64.7884 128.827C64.7884 131.165 63.6551 133.28 61.7338 134.564L61.7223 134.572C61.5934 134.659 61.4645 134.739 61.332 134.814L81.748 123.027L81.7476 118.049Z" fill="black"/>
<mask id="mask0_526_8396" style="mask-type:luminance" maskUnits="userSpaceOnUse" x="36" y="60" width="44" height="75">
<path d="M79.4254 94.957L71.9651 99.2644L67.3795 101.91C67.2315 101.986 67.0875 102.069 66.9475 102.16C65.2382 103.214 64.0333 105.09 64.0333 107.39L64.0293 128.828C64.0293 130.912 63.0364 132.656 61.5698 133.747C60.5125 134.539 59.2085 134.994 57.8596 134.994C56.8365 134.994 55.7867 134.732 54.7939 134.16C49.0789 130.859 45.5581 124.761 45.5581 118.163V95.9257C45.5581 92.6249 44.6789 89.449 43.0834 86.6899C41.4879 83.9273 39.1799 81.5776 36.3223 79.9288L70.1893 60.375C73.0505 62.0274 75.3585 64.3847 76.954 67.1434C78.5495 69.906 79.4287 73.0783 79.4287 76.3792V86.066C79.429 88.8362 79.4254 94.957 79.4254 94.957Z" fill="white"/>
</mask>
<g mask="url(#mask0_526_8396)">
<path d="M42.3376 80.0344C43.0504 80.6435 44.3068 80.7742 45.2133 80.2511L69.3801 66.2982C70.2866 65.7748 70.5004 64.796 69.7912 64.1847C69.082 63.5734 67.7234 63.563 66.8169 64.086L42.6382 78.0461C41.7318 78.5696 41.6248 79.4253 42.3376 80.0344Z" fill="#FBCC04"/>
<path opacity="0.4" d="M61.8219 74.7564C61.729 74.7564 61.6386 74.7082 61.589 74.6221C61.5144 74.4936 61.5587 74.3295 61.6869 74.2553L72.9862 67.7314C73.1151 67.6572 73.2792 67.7011 73.353 67.8293C73.4276 67.9578 73.3833 68.122 73.2551 68.1961L61.9558 74.7201C61.9137 74.7445 61.8672 74.7564 61.8219 74.7564Z" fill="black"/>
<path opacity="0.4" d="M62.6949 76.211C62.602 76.211 62.5117 76.1628 62.462 76.0768C62.3875 75.9482 62.4318 75.7841 62.5599 75.7099L73.8592 69.1864C73.9878 69.1122 74.1523 69.1565 74.2261 69.2843C74.3006 69.4128 74.2563 69.577 74.1282 69.6511L62.8288 76.1747C62.7867 76.1992 62.7403 76.211 62.6949 76.211Z" fill="black"/>
<path opacity="0.4" d="M63.4273 77.7271C63.3345 77.7271 63.2441 77.6789 63.1944 77.5928C63.1199 77.4643 63.1642 77.3002 63.2923 77.226L74.5917 70.7021C74.7205 70.6279 74.8847 70.6718 74.9585 70.8C75.033 70.9285 74.9887 71.0927 74.8606 71.1668L63.5613 77.6911C63.5191 77.7156 63.4731 77.7271 63.4273 77.7271Z" fill="black"/>
<path opacity="0.4" d="M64.0152 79.3026C63.9224 79.3026 63.832 79.2544 63.7823 79.1683C63.7078 79.0398 63.7521 78.8756 63.8802 78.8015L75.1792 72.2779C75.3081 72.2045 75.4719 72.2477 75.546 72.3758C75.6206 72.5044 75.5763 72.6685 75.4481 72.7427L64.1492 79.2662C64.107 79.2907 64.0606 79.3026 64.0152 79.3026Z" fill="black"/>
<path opacity="0.4" d="M64.4449 80.8478C64.352 80.8478 64.2617 80.7996 64.212 80.7136C64.1375 80.585 64.1818 80.4209 64.3099 80.3467L75.6089 73.8232C75.7374 73.749 75.9016 73.7929 75.9757 73.9211C76.0502 74.0496 76.006 74.2138 75.8778 74.2879L64.5788 80.8115C64.5364 80.836 64.4903 80.8478 64.4449 80.8478Z" fill="black"/>
<path opacity="0.4" d="M64.7359 82.5062C64.6431 82.5062 64.5527 82.4579 64.503 82.3719C64.4285 82.2434 64.4728 82.0792 64.6009 82.0051L75.8999 75.4811C76.0288 75.4073 76.1929 75.4513 76.2667 75.5791C76.3413 75.7076 76.297 75.8717 76.1688 75.9459L64.8699 82.4698C64.8277 82.4943 64.7813 82.5062 64.7359 82.5062Z" fill="black"/>
<path opacity="0.4" d="M64.8941 84.2775C64.8013 84.2775 64.7109 84.2293 64.6612 84.1432C64.5867 84.0147 64.631 83.8506 64.7591 83.7764L76.0585 77.2528C76.187 77.1787 76.3511 77.2226 76.4253 77.3511C76.4998 77.4796 76.4555 77.6438 76.327 77.718L65.0277 84.2415C64.9856 84.2656 64.9395 84.2775 64.8941 84.2775Z" fill="black"/>
<path opacity="0.4" d="M48.7832 96.908C48.718 96.908 48.6539 96.8738 48.6194 96.8133C48.5668 96.7226 48.5978 96.6067 48.6885 96.5545L76.1054 80.7249C76.1957 80.6723 76.312 80.7029 76.3642 80.794C76.4168 80.8847 76.3858 81.0007 76.2951 81.0529L48.8782 96.8824C48.848 96.8997 48.8152 96.908 48.7832 96.908Z" fill="black"/>
<path opacity="0.4" d="M48.7832 98.5999C48.718 98.5999 48.6539 98.5657 48.6194 98.5052C48.5668 98.4145 48.5978 98.2986 48.6885 98.2464L76.1054 82.4165C76.1957 82.3635 76.312 82.3945 76.3642 82.4856C76.4168 82.5763 76.3858 82.6922 76.2951 82.7444L48.8782 98.5744C48.848 98.592 48.8152 98.5999 48.7832 98.5999Z" fill="black"/>
<path opacity="0.4" d="M48.7832 100.293C48.718 100.293 48.6539 100.259 48.6194 100.198C48.5668 100.107 48.5978 99.9915 48.6885 99.9393L76.1054 84.1097C76.1957 84.0568 76.312 84.0881 76.3642 84.1789C76.4168 84.2696 76.3858 84.3855 76.2951 84.4377L48.8782 100.267C48.848 100.285 48.8152 100.293 48.7832 100.293Z" fill="black"/>
<path opacity="0.4" d="M48.7832 101.984C48.718 101.984 48.6539 101.95 48.6194 101.89C48.5668 101.799 48.5978 101.683 48.6885 101.631L76.1054 85.8012C76.1957 85.7482 76.312 85.7796 76.3642 85.8703C76.4168 85.961 76.3858 86.0769 76.2951 86.1291L48.8782 101.959C48.848 101.976 48.8152 101.984 48.7832 101.984Z" fill="black"/>
<path opacity="0.4" d="M48.7832 94.4495C48.718 94.4495 48.6539 94.4153 48.6194 94.3548C48.5668 94.2641 48.5978 94.1481 48.6885 94.0959L63.2033 85.7151C63.2937 85.6626 63.41 85.6932 63.4622 85.7843C63.5147 85.875 63.4837 85.9909 63.393 86.0431L48.8782 94.4239C48.848 94.4412 48.8152 94.4495 48.7832 94.4495Z" fill="black"/>
<path d="M48.3749 84.7312C48.9502 85.8788 49.4207 87.0229 49.7191 88.1612C50.0449 89.2045 50.2347 90.4915 50.3477 91.9157C50.3686 92.1767 50.5659 92.2822 50.7923 92.1511L51.5994 91.6853C51.8259 91.5546 51.9987 91.2367 51.9789 90.9757C51.8784 89.6534 51.6588 88.3636 51.2995 87.1118C50.9097 85.8644 50.4859 84.7279 50.0007 83.7926C49.8801 83.5604 49.5895 83.4834 49.3631 83.6144L48.5697 84.0727C48.3425 84.203 48.2575 84.4972 48.3749 84.7312Z" fill="#FBCC04"/>
<path d="M50.7684 81.3804C51.5057 82.5263 52.1555 83.9012 52.7109 85.5212C53.1584 86.8222 53.4529 88.3252 53.5778 90.0525C53.5965 90.3135 53.7913 90.4193 54.0177 90.2887L54.8245 89.8228C55.0509 89.6921 55.2255 89.3739 55.2072 89.1129C55.0974 87.5735 54.7961 86.0673 54.3248 84.5898C53.8197 83.0685 53.1721 81.7026 52.3956 80.4768C52.2556 80.2558 51.9513 80.1834 51.7227 80.3105L50.9199 80.7569C50.6906 80.8836 50.6265 81.1605 50.7684 81.3804Z" fill="#FBCC04"/>
<path d="M57.1393 82.9646L56.3463 83.4225C56.1198 83.5532 56.0057 83.8595 56.0824 84.1097C56.4481 85.3042 56.6922 86.6596 56.8027 88.1911C56.8215 88.4521 57.0159 88.5575 57.2427 88.4269L58.0494 87.961C58.2759 87.8303 58.4505 87.5117 58.4321 87.2507C58.3335 85.8687 58.0807 84.5129 57.6887 83.1809C57.6145 82.93 57.3658 82.8339 57.1393 82.9646Z" fill="#FBCC04"/>
<path d="M60.3668 79.7451C60.27 79.5021 60.0014 79.4121 59.7743 79.5414L58.9751 79.9961C58.7475 80.1253 58.6467 80.4252 58.7439 80.6682C58.8887 81.0303 59.028 81.4065 59.1619 81.7971C59.6094 83.0982 59.9039 84.6012 60.0288 86.3285C60.0475 86.5895 60.2423 86.6953 60.4687 86.5646L61.2755 86.0988C61.5019 85.9681 61.6765 85.6495 61.6581 85.3885C61.5483 83.8495 61.2474 82.3429 60.7758 80.8655C60.6484 80.4824 60.5119 80.1091 60.3668 79.7451Z" fill="#FBCC04"/>
<path opacity="0.4" d="M49.3409 91.1982C49.3038 91.1334 49.2214 91.1118 49.1577 91.1488L48.82 91.3436C48.7462 90.8778 48.6591 90.4166 48.5532 89.963L49.0097 89.6995C49.0742 89.6624 49.0961 89.5803 49.059 89.5162C49.022 89.4514 48.9388 89.4295 48.8758 89.4669L48.4848 89.6926C48.3711 89.2358 48.244 88.784 48.0978 88.3408L48.532 88.0903C48.5964 88.0532 48.6184 87.9711 48.5813 87.907C48.5439 87.8419 48.4614 87.8206 48.3981 87.8577L48.0068 88.0834C47.857 87.6518 47.6961 87.2252 47.5154 86.8076C47.5103 86.7961 47.5049 86.7846 47.5002 86.7734L47.9312 86.5246C47.9956 86.4876 48.0175 86.4055 47.9805 86.3414C47.9434 86.2762 47.861 86.2546 47.7972 86.2921L47.3908 86.5268C47.2032 86.1049 46.9955 85.6851 46.768 85.2682L47.1978 85.0198C47.2623 84.9828 47.2842 84.9007 47.2472 84.8366C47.2097 84.7718 47.1273 84.7502 47.0639 84.7873L46.638 85.0332C46.4102 84.631 46.1632 84.2322 45.8993 83.8372L46.3828 83.5582C46.4472 83.5212 46.4692 83.4391 46.4321 83.375C46.395 83.3098 46.3119 83.2886 46.2489 83.3257L45.7488 83.6144C45.4641 83.2004 45.162 82.7904 44.8384 82.3861C44.793 82.3285 44.7077 82.3191 44.6498 82.3652C44.5922 82.4113 44.5828 82.4959 44.6289 82.5538C44.9439 82.9473 45.238 83.3462 45.5156 83.7487L45.0548 84.0147C44.9903 84.0518 44.9684 84.1339 45.0054 84.198C45.0303 84.2412 45.0753 84.2653 45.1217 84.2653C45.1448 84.2653 45.1674 84.2595 45.1887 84.2473L45.666 83.9715C45.9306 84.3668 46.1779 84.7653 46.4055 85.1674L45.8698 85.4767C45.8054 85.5138 45.7838 85.5958 45.8205 85.6599C45.8453 85.7031 45.8903 85.7272 45.9368 85.7272C45.9598 85.7272 45.9825 85.7215 46.0037 85.7092L46.5351 85.4025C46.763 85.8194 46.97 86.2392 47.1572 86.6614L46.6031 86.9811C46.5387 87.0182 46.5167 87.1003 46.5538 87.1644C46.5786 87.2076 46.6236 87.2317 46.6701 87.2317C46.6931 87.2317 46.7158 87.2259 46.737 87.2137L47.2666 86.908C47.2673 86.9098 47.268 86.9113 47.2688 86.9131C47.4538 87.3404 47.6187 87.7774 47.7706 88.2199L47.204 88.5471C47.1395 88.5842 47.1176 88.6663 47.1546 88.7304C47.1795 88.7736 47.2245 88.7977 47.2709 88.7977C47.294 88.7977 47.317 88.7919 47.3379 88.7797L47.8613 88.4776C48.0064 88.9215 48.1313 89.3744 48.2436 89.8323L47.6817 90.1567C47.6172 90.1938 47.5953 90.2758 47.6324 90.3399C47.6572 90.3831 47.7022 90.4072 47.7486 90.4072C47.7717 90.4072 47.7944 90.4015 47.8156 90.3892L48.3117 90.103C48.4161 90.5581 48.5 91.0207 48.572 91.4876L47.9639 91.8386C47.8995 91.8757 47.8779 91.9578 47.9146 92.0218C47.9394 92.065 47.9844 92.0892 48.0309 92.0892C48.0539 92.0892 48.077 92.083 48.0978 92.0712L48.6173 91.7713C48.6958 92.3379 48.7502 92.9125 48.7808 93.4946C48.7844 93.5662 48.8438 93.622 48.9147 93.622C48.9168 93.622 48.919 93.622 48.9219 93.6217C48.996 93.6181 49.0529 93.5547 49.049 93.4806C49.0162 92.8542 48.9539 92.2364 48.8664 91.6276L49.2927 91.3818C49.356 91.3443 49.378 91.2622 49.3409 91.1982Z" fill="black"/>
<g opacity="0.15">
<path d="M50.716 117.509C50.6044 116.498 50.563 115.473 50.5939 114.457C50.7041 114.066 52.3392 108.454 55.3474 106.705C55.5612 106.579 55.7603 106.496 55.9403 106.457C56.0274 106.437 56.1095 106.428 56.1865 106.428C56.9839 106.428 57.3414 107.538 57.6877 108.611C57.8317 109.058 57.9808 109.52 58.1626 109.901C58.3674 110.332 58.7166 110.906 59.3801 110.906C59.6332 110.906 59.9028 110.823 60.2045 110.651C61.6506 109.828 62.0664 107.596 62.5067 105.233C62.7051 104.167 62.9106 103.065 63.217 102.104C63.6555 100.725 64.2243 99.8714 65.0076 99.4175C65.2593 99.2724 65.4843 99.1986 65.6769 99.1986C66.5153 99.1986 66.8325 100.692 67.1392 102.136C67.3073 102.927 67.4808 103.745 67.7483 104.348C68.0539 105.044 68.4561 105.382 68.9759 105.382C69.2412 105.382 69.5253 105.293 69.8431 105.11C71.6179 104.085 72.1551 102.349 72.6745 100.669C73.1155 99.2429 73.5321 97.8961 74.7028 97.215C75.0135 97.0332 75.3065 96.9414 75.5733 96.9414C75.7054 96.9414 75.8343 96.9641 75.9563 97.0091C76.0121 97.4695 76.0128 97.8094 76.0128 97.813L76.0319 101.214C76.0636 101.863 76.1071 102.375 76.1669 102.814L50.716 117.509Z" fill="#FBCC04"/>
<path d="M76.3729 102.914C76.297 102.406 76.2516 101.83 76.2214 101.212L76.2023 97.8129C76.2023 97.8129 76.2023 97.4111 76.1303 96.8769C75.9611 96.7969 75.7753 96.752 75.573 96.752C75.2857 96.752 74.9646 96.8423 74.6068 97.0511C71.9957 98.5707 72.9922 103.073 69.7482 104.945C69.453 105.115 69.1981 105.192 68.976 105.192C68.4922 105.192 68.1657 104.827 67.9212 104.271C67.1577 102.548 67.1785 99.0088 65.6766 99.0088C65.457 99.0088 65.2043 99.0844 64.9123 99.2529C63.9839 99.7911 63.4266 100.818 63.0364 102.046C62.0701 105.078 62.1267 109.338 60.1107 110.486C59.8302 110.645 59.5894 110.716 59.3799 110.716C58.9003 110.716 58.5839 110.346 58.3333 109.819C57.7095 108.511 57.4902 106.238 56.1867 106.238C56.0967 106.238 56.0013 106.249 55.9005 106.272C55.7071 106.314 55.4911 106.401 55.2525 106.541C52.0463 108.405 50.4054 114.427 50.4054 114.427C50.3691 115.584 50.4245 116.713 50.5617 117.816L50.9332 117.602C50.9137 117.497 50.8957 117.405 50.8749 117.198C50.7877 116.298 50.7568 115.388 50.7831 114.485C50.935 113.954 52.5424 108.555 55.4447 106.868C55.6409 106.752 55.8213 106.677 55.9843 106.642C56.056 106.625 56.124 106.617 56.187 106.617C56.8462 106.617 57.1824 107.66 57.5075 108.668C57.6537 109.121 57.8045 109.59 57.9913 109.982C58.122 110.257 58.5202 111.095 59.3802 111.095C59.6671 111.095 59.9674 111.003 60.2986 110.815C61.821 109.948 62.2447 107.675 62.6933 105.268C62.8909 104.208 63.0954 103.111 63.3982 102.161C63.8215 100.83 64.363 100.01 65.1021 99.5815C65.3249 99.453 65.5182 99.3879 65.677 99.3879C66.3617 99.3879 66.6763 100.869 66.9539 102.175C67.1238 102.975 67.2999 103.803 67.5749 104.423C67.9097 105.185 68.3813 105.571 68.9764 105.571C69.2759 105.571 69.5902 105.474 69.9379 105.274C71.7772 104.212 72.3503 102.359 72.8557 100.724C73.2852 99.335 73.6913 98.0224 74.7979 97.3783C75.0791 97.2142 75.3401 97.1307 75.573 97.1307C75.645 97.1307 75.7145 97.1382 75.7818 97.1541C75.8225 97.5382 75.8232 97.81 75.8232 97.8147L75.8427 101.231C75.8715 101.817 75.91 102.296 75.9625 102.713C75.9863 102.894 76.0111 103.031 76.0356 103.108L76.3729 102.914Z" fill="black"/>
</g>
<g opacity="0.4">
<path d="M50.4069 112.711V114.427C50.373 115.6 50.4213 116.712 50.5617 117.816L76.3715 102.914C76.297 102.407 76.2502 101.83 76.2196 101.21L76.2012 97.8129C76.2012 97.8129 76.2012 92.7358 72.9756 94.5981C69.5851 96.5554 70.5442 102.771 68.1372 104.161C65.709 105.563 66.5244 100.015 63.2992 101.878C60.0736 103.74 61.6864 107.886 58.4608 109.748C55.2352 111.611 56.848 102.218 53.6224 104.08C50.3968 105.942 50.3971 110.567 50.4069 112.711Z" fill="#FBCC04"/>
</g>
<path opacity="0.4" d="M49.2242 120.435C49.1774 120.435 49.1324 120.41 49.1075 120.367C49.0708 120.303 49.0931 120.221 49.1576 120.184L76.6101 104.465C76.6745 104.428 76.7566 104.45 76.7933 104.515C76.83 104.579 76.8077 104.661 76.7433 104.698L49.2908 120.417C49.2695 120.429 49.2468 120.435 49.2242 120.435Z" fill="black"/>
<path d="M53.6206 104.984C53.5464 104.984 53.4863 104.924 53.4863 104.85L53.4867 104.582C53.4867 104.507 53.5472 104.447 53.621 104.447C53.6948 104.447 53.7552 104.508 53.7552 104.582L53.7549 104.85C53.7549 104.924 53.6948 104.984 53.6206 104.984Z" fill="white"/>
<path d="M53.6986 115.31C53.6298 115.31 53.5711 115.258 53.565 115.188C53.5492 115.017 53.5359 114.844 53.5251 114.67C53.5204 114.596 53.5765 114.532 53.6507 114.528C53.7385 114.518 53.7886 114.58 53.7933 114.653C53.8041 114.824 53.8174 114.995 53.8325 115.164C53.8397 115.238 53.785 115.303 53.7112 115.31C53.7069 115.31 53.7025 115.31 53.6986 115.31ZM53.6356 114.28C53.5621 114.28 53.5024 114.221 53.5013 114.148C53.4991 113.999 53.4973 113.826 53.4955 113.631C53.4952 113.556 53.5549 113.496 53.6287 113.495C53.7094 113.481 53.7634 113.555 53.7641 113.628C53.7655 113.823 53.7673 113.996 53.7695 114.144C53.7706 114.219 53.7115 114.279 53.637 114.28C53.6374 114.28 53.6363 114.28 53.6356 114.28ZM53.6269 113.248C53.5531 113.248 53.4934 113.188 53.4927 113.114L53.4901 112.597C53.4898 112.523 53.5495 112.463 53.6241 112.462C53.6982 112.462 53.7583 112.523 53.7587 112.596L53.7612 113.113C53.7616 113.187 53.7018 113.247 53.6277 113.248C53.6277 113.248 53.6273 113.248 53.6269 113.248ZM53.6219 112.215C53.5477 112.215 53.488 112.155 53.4876 112.081L53.4865 111.565C53.4865 111.49 53.5467 111.43 53.6205 111.43C53.6946 111.43 53.7547 111.49 53.7551 111.564L53.7562 112.08C53.7562 112.155 53.6961 112.214 53.6219 112.215ZM53.6197 111.182C53.5456 111.182 53.4855 111.121 53.4855 111.048L53.4851 110.531C53.4851 110.457 53.5456 110.397 53.6194 110.397C53.6935 110.397 53.7537 110.458 53.7537 110.531L53.754 111.048C53.754 111.121 53.6939 111.182 53.6197 111.182ZM53.6187 110.149C53.5445 110.149 53.4844 110.089 53.4844 110.015V109.499C53.4844 109.424 53.5449 109.364 53.6187 109.364C53.6928 109.364 53.7529 109.425 53.7529 109.499V110.015C53.7529 110.089 53.6928 110.149 53.6187 110.149ZM53.6187 109.116C53.5445 109.116 53.4844 109.056 53.4844 108.982V108.466C53.4844 108.392 53.5449 108.331 53.6187 108.331C53.6928 108.331 53.7529 108.392 53.7529 108.466V108.982C53.7529 109.056 53.6928 109.116 53.6187 109.116ZM53.6187 108.083H53.6183C53.5441 108.083 53.4844 108.023 53.4844 107.949L53.4847 107.433C53.4847 107.359 53.5452 107.299 53.619 107.299C53.6928 107.299 53.7533 107.359 53.7533 107.433L53.7529 107.949C53.7526 108.023 53.6928 108.083 53.6187 108.083ZM53.6194 107.051C53.5449 107.051 53.4851 106.99 53.4851 106.916L53.4855 106.4C53.4855 106.326 53.5456 106.266 53.6197 106.266C53.6939 106.266 53.754 106.326 53.754 106.4L53.7537 106.917C53.7533 106.991 53.6935 107.051 53.6194 107.051ZM53.6201 106.018C53.5459 106.018 53.4858 105.958 53.4858 105.884L53.4865 105.369C53.4869 105.295 53.547 105.234 53.6208 105.234C53.6208 105.234 53.6208 105.234 53.6212 105.234C53.6953 105.235 53.7551 105.293 53.7551 105.368L53.7544 105.884C53.7544 105.958 53.6943 106.018 53.6201 106.018Z" fill="white"/>
<path d="M53.7852 116.087C53.719 116.087 53.6614 116.038 53.652 115.97C53.6401 115.881 53.6286 115.791 53.6182 115.702C53.6092 115.629 53.6621 115.562 53.7359 115.554C53.8101 115.546 53.8767 115.597 53.8846 115.671C53.895 115.759 53.9065 115.847 53.9181 115.935C53.9278 116.008 53.8763 116.076 53.8025 116.086C53.7971 116.087 53.791 116.087 53.7852 116.087Z" fill="white"/>
<path d="M72.978 95.002C72.9039 95.002 72.8438 94.9415 72.8438 94.8677L72.8441 94.5984C72.8445 94.5246 72.9046 94.4648 72.9784 94.4648C73.0529 94.4652 73.113 94.5257 73.1127 94.5995L73.1123 94.8677C73.1123 94.9415 73.0522 95.002 72.978 95.002Z" fill="white"/>
<path d="M73.056 105.327C72.9872 105.327 72.9286 105.275 72.9224 105.205C72.9066 105.034 72.8933 104.861 72.8825 104.687C72.8778 104.613 72.934 104.549 73.0078 104.544C73.0909 104.54 73.1453 104.597 73.1503 104.67C73.1611 104.841 73.1744 105.012 73.1896 105.181C73.1968 105.255 73.142 105.32 73.0682 105.327C73.0643 105.327 73.06 105.327 73.056 105.327ZM72.993 104.298C72.9196 104.298 72.8598 104.239 72.8587 104.165C72.8566 104.016 72.8548 103.843 72.8533 103.648C72.853 103.573 72.9127 103.513 72.9865 103.512H72.9876C73.061 103.512 73.1212 103.572 73.1219 103.646C73.1233 103.84 73.1251 104.013 73.1273 104.161C73.1284 104.236 73.0693 104.296 72.9948 104.298C72.9948 104.298 72.9937 104.298 72.993 104.298ZM72.984 103.264C72.9102 103.264 72.8504 103.205 72.8497 103.131L72.8472 102.614C72.8468 102.54 72.9066 102.48 72.9811 102.479H72.9815C73.0556 102.479 73.1154 102.539 73.1158 102.613L73.1183 103.129C73.1186 103.203 73.0589 103.264 72.9847 103.264H72.984ZM72.9793 102.231C72.9052 102.231 72.8454 102.171 72.845 102.097L72.844 101.581C72.844 101.506 72.9041 101.447 72.9779 101.446H72.9782C73.0524 101.446 73.1122 101.506 73.1125 101.58L73.1136 102.096C73.1136 102.171 73.0538 102.231 72.9797 102.231H72.9793ZM72.9772 101.199C72.903 101.199 72.8429 101.138 72.8429 101.064L72.8425 100.548C72.8425 100.474 72.9026 100.414 72.9768 100.414C73.051 100.414 73.1111 100.474 73.1111 100.548L73.1114 101.064C73.1114 101.139 73.0513 101.199 72.9772 101.199ZM72.9761 100.166C72.9019 100.166 72.8418 100.105 72.8418 100.032V99.5153C72.8418 99.4411 72.9023 99.381 72.9761 99.381C73.0502 99.381 73.1104 99.4415 73.1104 99.5153V100.032C73.1104 100.105 73.0502 100.166 72.9761 100.166ZM72.9761 99.1337C72.9019 99.1337 72.8418 99.0732 72.8418 98.9994V98.4832C72.8418 98.409 72.9023 98.3489 72.9761 98.3489C73.0502 98.3489 73.1104 98.4094 73.1104 98.4832V98.9994C73.1104 99.0732 73.0502 99.1337 72.9761 99.1337ZM72.9761 98.1001C72.9016 98.0998 72.8418 98.0396 72.8418 97.9655L72.8422 97.4496C72.8422 97.3754 72.9026 97.3153 72.9764 97.3153C73.0502 97.3153 73.1107 97.3758 73.1107 97.4496L73.1104 97.9662C73.11 98.0404 73.0502 98.1001 72.9761 98.1001ZM72.9764 97.0676H72.9761C72.9019 97.0673 72.8422 97.0072 72.8422 96.933L72.8425 96.4168C72.8425 96.3426 72.9026 96.2825 72.9768 96.2825C73.051 96.2825 73.1111 96.343 73.1111 96.4168L73.1107 96.9337C73.1104 97.0079 73.0506 97.0676 72.9764 97.0676ZM72.9775 96.0352C72.903 96.0348 72.8432 95.9747 72.8432 95.9005L72.8436 95.3843C72.8436 95.3101 72.9041 95.25 72.9779 95.25C73.0517 95.25 73.1122 95.3105 73.1122 95.3843L73.1118 95.9012C73.1114 95.975 73.0517 96.0352 72.9775 96.0352Z" fill="white"/>
<path d="M73.143 106.105C73.0768 106.105 73.0192 106.056 73.0098 105.989C72.9979 105.9 72.9864 105.81 72.9756 105.721C72.9666 105.647 73.0192 105.58 73.0926 105.572C73.1715 105.561 73.2334 105.615 73.242 105.689C73.2528 105.777 73.2643 105.865 73.2762 105.953C73.2859 106.027 73.2345 106.094 73.1607 106.104C73.1549 106.105 73.1488 106.105 73.143 106.105Z" fill="white"/>
<path d="M63.3003 102.746C63.2261 102.746 63.166 102.686 63.166 102.612V102.343C63.166 102.269 63.2265 102.209 63.3003 102.209C63.3745 102.209 63.4346 102.269 63.4346 102.343V102.612C63.4346 102.686 63.3741 102.746 63.3003 102.746Z" fill="white"/>
<path d="M63.3775 109.795C63.3088 109.795 63.2501 109.742 63.244 109.673C63.2281 109.505 63.2152 109.336 63.2044 109.167C63.1997 109.093 63.2559 109.029 63.33 109.024C63.4164 109.018 63.4679 109.076 63.4726 109.149C63.4834 109.316 63.4963 109.482 63.5115 109.648C63.5187 109.722 63.4639 109.787 63.3905 109.794C63.3855 109.794 63.3815 109.795 63.3775 109.795ZM63.3138 108.789C63.2404 108.789 63.1806 108.73 63.1795 108.656L63.1738 108.152C63.1731 108.078 63.2325 108.017 63.3066 108.017C63.3073 108.017 63.3077 108.017 63.3081 108.017C63.3819 108.017 63.4416 108.076 63.4423 108.149L63.4481 108.653C63.4488 108.727 63.3894 108.788 63.3153 108.789C63.3149 108.789 63.3142 108.789 63.3138 108.789ZM63.3037 107.782C63.2303 107.782 63.1702 107.722 63.1695 107.649L63.1669 107.145C63.1666 107.07 63.2263 107.01 63.3005 107.01C63.3009 107.01 63.3012 107.01 63.3012 107.01C63.3754 107.01 63.4351 107.07 63.4355 107.143L63.438 107.647C63.4384 107.721 63.379 107.781 63.3045 107.782C63.3045 107.782 63.3041 107.782 63.3037 107.782ZM63.2998 106.775C63.2256 106.775 63.1659 106.714 63.1655 106.641L63.1644 106.137C63.1644 106.062 63.2245 106.003 63.2983 106.002C63.3725 106.002 63.4326 106.062 63.433 106.136L63.4341 106.64C63.4341 106.714 63.3736 106.774 63.2998 106.775ZM63.2983 105.768C63.2242 105.768 63.1641 105.707 63.1641 105.633V105.129C63.1641 105.055 63.2245 104.995 63.2983 104.995C63.3721 104.995 63.4326 105.056 63.4326 105.129V105.633C63.4326 105.707 63.3721 105.768 63.2983 105.768ZM63.2983 104.76H63.298C63.2238 104.76 63.1641 104.699 63.1641 104.625L63.1644 104.122C63.1644 104.048 63.2245 103.988 63.2987 103.988C63.3729 103.988 63.433 104.048 63.433 104.122L63.4326 104.626C63.4323 104.7 63.3721 104.76 63.2983 104.76ZM63.2991 103.753H63.2987C63.2245 103.752 63.1648 103.693 63.1648 103.618L63.1651 103.115C63.1651 103.041 63.2256 102.98 63.2994 102.98C63.3732 102.98 63.4337 103.041 63.4337 103.115L63.4333 103.619C63.433 103.693 63.3729 103.753 63.2991 103.753Z" fill="white"/>
<path d="M63.4633 110.563C63.3971 110.563 63.3395 110.513 63.3301 110.446C63.3182 110.357 63.3067 110.268 63.2959 110.178C63.2869 110.104 63.3395 110.037 63.4133 110.029C63.4856 110.018 63.5537 110.072 63.5623 110.146C63.5731 110.235 63.5846 110.323 63.5965 110.411C63.6062 110.484 63.5548 110.552 63.481 110.562C63.4752 110.562 63.4694 110.563 63.4633 110.563Z" fill="white"/>
<path opacity="0.4" d="M53.6203 103.549C53.8766 103.401 54.0843 103.499 54.0843 103.769C54.0843 104.038 53.8766 104.376 53.6203 104.524C53.364 104.672 53.1563 104.574 53.1563 104.304C53.1559 104.035 53.364 103.697 53.6203 103.549Z" fill="black"/>
<path opacity="0.4" d="M63.298 101.309C63.5543 101.161 63.7621 101.259 63.7621 101.528C63.7621 101.797 63.5543 102.135 63.298 102.283C63.0417 102.431 62.834 102.333 62.834 102.064C62.834 101.796 63.0417 101.458 63.298 101.309Z" fill="black"/>
<path opacity="0.4" d="M72.9758 94.1119C73.2321 93.964 73.4398 94.0619 73.4398 94.3308C73.4398 94.5997 73.2321 94.9378 72.9758 95.0857C72.7194 95.2337 72.5117 95.1358 72.5117 94.8665C72.5117 94.5979 72.7194 94.2599 72.9758 94.1119Z" fill="black"/>
<path opacity="0.4" d="M49.4034 106.675C49.4679 106.638 49.4898 106.556 49.4528 106.492C49.4153 106.427 49.3329 106.405 49.2695 106.443L48.9185 106.646V105.26L49.4038 104.979C49.4682 104.942 49.4902 104.86 49.4531 104.796C49.4157 104.731 49.3332 104.709 49.2699 104.747L48.9185 104.95V103.49C48.9185 103.416 48.858 103.355 48.7842 103.355C48.7101 103.355 48.65 103.416 48.65 103.49V105.105L48.1636 105.386C48.0992 105.423 48.0772 105.505 48.1143 105.569C48.1391 105.612 48.1841 105.636 48.2306 105.636C48.2536 105.636 48.2763 105.63 48.2975 105.618L48.65 105.415V106.801L48.1632 107.081C48.0988 107.119 48.0768 107.201 48.1139 107.265C48.1388 107.308 48.1838 107.332 48.2302 107.332C48.2532 107.332 48.2763 107.326 48.2972 107.314L48.65 107.111V108.497L48.1629 108.778C48.0984 108.815 48.0765 108.897 48.1136 108.961C48.1384 109.004 48.1834 109.028 48.2298 109.028C48.2529 109.028 48.2759 109.022 48.2968 109.01L48.65 108.807V110.192L48.1625 110.474C48.0981 110.511 48.0765 110.593 48.1132 110.657C48.138 110.7 48.183 110.724 48.2295 110.724C48.2525 110.724 48.2756 110.719 48.2964 110.706L48.65 110.502V111.888L48.1622 112.17C48.0977 112.207 48.0758 112.289 48.1128 112.353C48.1377 112.396 48.1827 112.42 48.2291 112.42C48.2522 112.42 48.2748 112.415 48.2961 112.402L48.65 112.198V113.584L48.1618 113.866C48.0974 113.903 48.0754 113.985 48.1125 114.049C48.1373 114.092 48.1823 114.117 48.2288 114.117C48.2518 114.117 48.2745 114.11 48.2957 114.099L48.65 113.894V115.28L48.1614 115.562C48.097 115.599 48.075 115.681 48.1121 115.745C48.137 115.788 48.182 115.813 48.2284 115.813C48.2514 115.813 48.2745 115.807 48.2954 115.795L48.6474 115.591C48.6392 116.052 48.6435 116.511 48.6633 116.968L48.1611 117.258C48.0966 117.295 48.0747 117.377 48.1118 117.441C48.1366 117.484 48.1816 117.508 48.228 117.508C48.2511 117.508 48.2738 117.502 48.295 117.49L48.6798 117.268C48.7086 117.772 48.7518 118.273 48.8145 118.767C48.8231 118.835 48.8811 118.884 48.9477 118.884C48.9531 118.884 48.9588 118.884 48.9646 118.883C49.038 118.874 49.0902 118.807 49.0809 118.733C49.0132 118.202 48.9668 117.663 48.939 117.119L49.4013 116.852C49.4657 116.815 49.4877 116.733 49.4506 116.669C49.4132 116.604 49.3307 116.582 49.2674 116.619L48.9279 116.815C48.911 116.357 48.9063 115.897 48.9178 115.435L49.4016 115.156C49.4661 115.118 49.488 115.036 49.451 114.972C49.4135 114.907 49.3311 114.886 49.2677 114.923L48.9189 115.125V113.739L49.4024 113.46C49.4668 113.423 49.4888 113.341 49.4517 113.277C49.4142 113.212 49.3322 113.19 49.2684 113.227L48.9192 113.429V112.043L49.4031 111.764C49.4675 111.727 49.4895 111.645 49.4524 111.581C49.415 111.516 49.3325 111.494 49.2692 111.531L48.9196 111.733V110.347L49.4038 110.068C49.4682 110.031 49.4902 109.949 49.4531 109.884C49.4157 109.819 49.3332 109.798 49.2699 109.835L48.92 110.037V108.652L49.4045 108.372C49.469 108.335 49.4909 108.253 49.4538 108.189C49.4164 108.124 49.3343 108.102 49.2706 108.14L48.92 108.342V106.956L49.4034 106.675Z" fill="black"/>
<path d="M83.0393 114.988L57.254 129.875C56.3475 130.399 55.0339 130.337 54.3844 129.668C53.735 129.001 54.0007 127.982 54.9071 127.459L80.6849 112.576C81.5914 112.052 82.7967 112.222 83.4479 112.888C84.0999 113.555 83.9458 114.465 83.0393 114.988Z" fill="#FBCC04"/>
<path opacity="0.4" d="M49.7011 122.23C49.636 122.23 49.5719 122.196 49.5373 122.136C49.4848 122.045 49.5157 121.929 49.6064 121.877L78.6502 105.108C78.7405 105.055 78.8568 105.086 78.909 105.177C78.9616 105.268 78.9306 105.384 78.8399 105.436L49.7962 122.205C49.7659 122.222 49.7335 122.23 49.7011 122.23Z" fill="black"/>
<path opacity="0.4" d="M50.2952 123.801C50.2301 123.801 50.166 123.767 50.1311 123.707C50.0785 123.616 50.1095 123.5 50.2002 123.448L79.2482 106.676C79.3386 106.623 79.4549 106.654 79.5071 106.745C79.5596 106.836 79.5287 106.952 79.4379 107.004L50.3899 123.776C50.36 123.793 50.3276 123.801 50.2952 123.801Z" fill="black"/>
<path opacity="0.4" d="M51.0273 125.305C50.9621 125.305 50.8981 125.271 50.8635 125.21C50.8109 125.12 50.8419 125.004 50.9326 124.952L79.9846 108.178C80.0753 108.125 80.1916 108.156 80.2435 108.247C80.296 108.338 80.2651 108.454 80.1743 108.506L51.1223 125.28C51.0921 125.297 51.0593 125.305 51.0273 125.305Z" fill="black"/>
<path opacity="0.4" d="M51.8929 126.739C51.8277 126.739 51.7636 126.705 51.7287 126.645C51.6762 126.554 51.7071 126.438 51.7978 126.386L80.8538 109.61C80.9442 109.557 81.0608 109.588 81.1126 109.679C81.1652 109.77 81.1342 109.886 81.0435 109.938L51.9876 126.714C51.9577 126.731 51.9253 126.739 51.8929 126.739Z" fill="black"/>
</g>
<path d="M77.2486 98.9641L101.148 85.1678C102.055 84.6447 103.498 84.334 104.311 84.662C105.123 84.99 104.968 85.8392 104.061 86.3626L79.8835 100.319C78.977 100.842 77.6878 100.897 76.9657 100.507C76.2439 100.118 76.3425 99.4872 77.2486 98.9641Z" fill="#FBCC04"/>
<path opacity="0.4" d="M80.0198 102.757C79.9547 102.757 79.8906 102.723 79.8557 102.663C79.8031 102.572 79.8341 102.456 79.9248 102.404L107.472 86.5023C107.563 86.4494 107.679 86.4807 107.731 86.5714C107.784 86.6622 107.753 86.7781 107.662 86.8303L80.1145 102.732C80.0846 102.749 80.0519 102.757 80.0198 102.757Z" fill="black"/>
<path opacity="0.4" d="M81.1621 103.988C81.0969 103.988 81.0328 103.954 80.9983 103.894C80.9457 103.803 80.9767 103.687 81.0674 103.635L108.657 87.7093C108.748 87.6567 108.864 87.6873 108.916 87.7784C108.969 87.8691 108.938 87.985 108.847 88.0372L81.2571 103.963C81.2269 103.98 81.1945 103.988 81.1621 103.988Z" fill="black"/>
<path opacity="0.4" d="M85.7293 118.073C85.6547 118.073 85.595 118.013 85.595 117.939L85.6 116.477C85.6043 115.376 85.6043 115.376 85.5727 114.632L85.5669 114.509C85.4621 112.726 85.1317 111.049 84.5855 109.528C84.1057 108.083 83.2935 106.665 82.1023 105.189C82.0555 105.132 82.0645 105.047 82.1221 105.001C82.1797 104.954 82.2646 104.963 82.3107 105.021C83.5232 106.522 84.3501 107.968 84.839 109.441C85.393 110.983 85.7285 112.685 85.8355 114.496L85.8409 114.622C85.8729 115.372 85.8729 115.372 85.8682 116.479L85.8635 117.94C85.8632 118.013 85.8031 118.073 85.7293 118.073Z" fill="black"/>
<path d="M85.4535 106.576C85.3311 106.361 85.1986 106.149 85.0575 105.941C84.911 105.724 84.9675 105.448 85.1939 105.317L95.7203 99.2404C95.9468 99.1097 96.2542 99.176 96.391 99.3992C96.5177 99.6065 96.6376 99.8243 96.755 100.053C96.8745 100.285 96.7816 100.583 96.5552 100.714L86.0871 106.757C85.8603 106.888 85.5831 106.804 85.4535 106.576Z" fill="#FBCC04"/>
<path d="M86.4774 109.001C86.5562 109.243 86.6286 109.482 86.6941 109.719C86.764 109.971 86.9972 110.071 87.224 109.94L112.198 95.5245C112.425 95.3939 112.558 95.0817 112.488 94.8294C112.42 94.5795 112.349 94.3394 112.275 94.109C112.196 93.8599 111.941 93.7659 111.714 93.897L86.7355 108.316C86.5087 108.446 86.3964 108.752 86.4774 109.001Z" fill="#FBCC04"/>
<path opacity="0.7" d="M86.4774 109.001C86.5562 109.243 86.6286 109.482 86.6941 109.719C86.764 109.971 86.9972 110.071 87.224 109.94L112.198 95.5245C112.425 95.3939 112.558 95.0817 112.488 94.8294C112.42 94.5795 112.349 94.3394 112.275 94.109C112.196 93.8599 111.941 93.7659 111.714 93.897L86.7355 108.316C86.5087 108.446 86.3964 108.752 86.4774 109.001Z" fill="white"/>
<path d="M87.2053 112.325C87.2377 112.591 87.2647 112.85 87.2852 113.101C87.3065 113.361 87.4991 113.467 87.7259 113.337L104.644 103.571C104.871 103.44 105.044 103.122 105.022 102.861C105.001 102.602 104.975 102.344 104.943 102.088C104.91 101.828 104.695 101.725 104.468 101.855L87.5545 111.619C87.3277 111.75 87.1736 112.065 87.2053 112.325Z" fill="#FBCC04"/>
<path opacity="0.15" d="M87.2053 112.325C87.2377 112.591 87.2647 112.85 87.2852 113.101C87.3065 113.361 87.4991 113.467 87.7259 113.337L104.644 103.571C104.871 103.44 105.044 103.122 105.022 102.861C105.001 102.602 104.975 102.344 104.943 102.088C104.91 101.828 104.695 101.725 104.468 101.855L87.5545 111.619C87.3277 111.75 87.1736 112.065 87.2053 112.325Z" fill="black"/>
<path d="M87.3418 115.774V116.535C87.3418 116.797 87.5254 116.902 87.7522 116.772L94.9954 112.591C95.2218 112.46 95.4058 112.142 95.4058 111.88V111.119C95.4058 110.857 95.2222 110.751 94.9954 110.882L87.7522 115.064C87.5254 115.195 87.3418 115.513 87.3418 115.774Z" fill="#FBCC04"/>
<path opacity="0.5" d="M87.3418 115.774V116.535C87.3418 116.797 87.5254 116.902 87.7522 116.772L94.9954 112.591C95.2218 112.46 95.4058 112.142 95.4058 111.88V111.119C95.4058 110.857 95.2222 110.751 94.9954 110.882L87.7522 115.064C87.5254 115.195 87.3418 115.513 87.3418 115.774Z" fill="white"/>
<path opacity="0.4" d="M113.146 103.746C113.071 103.746 113.011 103.807 113.011 103.88V104.532L111.081 105.646V105.158C111.081 105.084 111.02 105.024 110.947 105.024C110.873 105.024 110.812 105.084 110.812 105.158V105.801L108.882 106.915V106.436C108.882 106.362 108.822 106.302 108.748 106.302C108.674 106.302 108.613 106.363 108.613 106.436V107.07L106.683 108.184V107.714C106.683 107.64 106.623 107.58 106.549 107.58C106.475 107.58 106.415 107.64 106.415 107.714V108.339L104.484 109.454V108.993C104.484 108.919 104.423 108.858 104.35 108.858C104.276 108.858 104.215 108.919 104.215 108.993V109.609L102.285 110.723V110.271C102.285 110.197 102.225 110.136 102.151 110.136C102.077 110.136 102.016 110.197 102.016 110.271V110.878L100.086 111.993V111.548C100.086 111.474 100.026 111.414 99.9519 111.414C99.8777 111.414 99.8176 111.475 99.8176 111.548V112.147L97.8873 113.262V112.826C97.8873 112.752 97.8268 112.692 97.753 112.692C97.6792 112.692 97.6187 112.752 97.6187 112.826V113.416L95.6884 114.531V114.104C95.6884 114.03 95.6279 113.97 95.5541 113.97C95.4803 113.97 95.4199 114.03 95.4199 114.104V114.685L93.4895 115.8V115.382C93.4895 115.307 93.4291 115.247 93.3553 115.247C93.2815 115.247 93.221 115.308 93.221 115.382V115.954L91.2907 117.069V116.659C91.2907 116.585 91.2305 116.525 91.1564 116.525C91.0822 116.525 91.0221 116.585 91.0221 116.659V117.224L89.0914 118.338V117.938C89.0914 117.864 89.0309 117.804 88.9571 117.804C88.883 117.804 88.8229 117.864 88.8229 117.938V118.493L87.1474 119.46C87.083 119.498 87.061 119.58 87.0981 119.644C87.1229 119.687 87.1679 119.711 87.2144 119.711C87.2374 119.711 87.2601 119.705 87.2813 119.693L88.8229 118.803V119.348C88.8229 119.423 88.8833 119.483 88.9571 119.483C89.0313 119.483 89.0914 119.422 89.0914 119.348V118.648L91.0221 117.534V118.07C91.0221 118.145 91.0826 118.205 91.1564 118.205C91.2305 118.205 91.2907 118.144 91.2907 118.07V117.379L93.221 116.264V116.793C93.221 116.867 93.2815 116.927 93.3553 116.927C93.4291 116.927 93.4895 116.866 93.4895 116.793V116.109L95.4199 114.995V115.514C95.4199 115.589 95.4803 115.649 95.5541 115.649C95.6283 115.649 95.6884 115.588 95.6884 115.514V114.84L97.6187 113.726V114.236C97.6187 114.31 97.6789 114.37 97.753 114.37C97.8272 114.37 97.8873 114.31 97.8873 114.236V113.57L99.8176 112.456V112.958C99.8176 113.032 99.8781 113.092 99.9519 113.092C100.026 113.092 100.086 113.032 100.086 112.958V112.301L102.016 111.187V111.68C102.016 111.754 102.077 111.814 102.151 111.814C102.225 111.814 102.285 111.754 102.285 111.68V111.032L104.215 109.918V110.402C104.215 110.476 104.276 110.536 104.35 110.536C104.424 110.536 104.484 110.476 104.484 110.402V109.762L106.415 108.648V109.124C106.415 109.198 106.475 109.258 106.549 109.258C106.623 109.258 106.683 109.198 106.683 109.124V108.493L108.613 107.378V107.846C108.613 107.92 108.674 107.98 108.748 107.98C108.822 107.98 108.882 107.92 108.882 107.846V107.223L110.812 106.109V106.568C110.812 106.642 110.873 106.702 110.947 106.702C111.021 106.702 111.081 106.642 111.081 106.568V105.954L113.011 104.84V105.289C113.011 105.364 113.072 105.424 113.146 105.424C113.219 105.424 113.28 105.363 113.28 105.289V103.879C113.28 103.807 113.22 103.746 113.146 103.746Z" fill="black"/>
<path d="M91.9784 121.457C91.5348 121.552 91.0611 121.737 90.5722 122.025C87.9003 123.594 85.7363 127.521 85.7363 130.795C85.7363 130.882 85.7363 130.966 85.7399 131.049L90.5682 128.84L91.9784 121.457Z" fill="#FBCC04"/>
<path d="M91.9781 121.456L90.5684 128.839L95.3549 126.061C95.3891 125.761 95.4078 125.462 95.4078 125.167C95.4078 122.472 93.9639 121.039 91.9781 121.456Z" fill="#FBCC04"/>
<path d="M94.7483 128.55C95.0554 127.728 95.2674 126.883 95.3549 126.061L90.5684 128.838L94.7483 128.55Z" fill="#FBCC04"/>
<path d="M85.7402 131.048C85.85 134.144 87.9726 135.437 90.5722 133.936C92.357 132.905 93.9148 130.813 94.7485 128.551L90.5685 128.839L85.7402 131.048Z" fill="#FBCC04"/>
<path opacity="0.7" d="M91.9781 121.456L90.5684 128.839L95.3549 126.061C95.3891 125.761 95.4078 125.462 95.4078 125.167C95.4078 122.472 93.9639 121.039 91.9781 121.456Z" fill="white"/>
<path opacity="0.15" d="M94.7483 128.55C95.0554 127.728 95.2674 126.883 95.3549 126.061L90.5684 128.838L94.7483 128.55Z" fill="black"/>
<path opacity="0.5" d="M85.7402 131.048C85.85 134.144 87.9726 135.437 90.5722 133.936C92.357 132.905 93.9148 130.813 94.7485 128.551L90.5685 128.839L85.7402 131.048Z" fill="white"/>
<path d="M91.9784 121.457C91.5348 121.552 91.0611 121.737 90.5722 122.025C87.9003 123.594 85.7363 127.521 85.7363 130.795C85.7363 130.882 85.7363 130.966 85.7399 131.049L90.5682 128.84L91.9784 121.457Z" stroke="white" stroke-width="1.0527" stroke-miterlimit="10" stroke-linecap="round" stroke-linejoin="round"/>
<path d="M91.9781 121.456L90.5684 128.839L95.3549 126.061C95.3891 125.761 95.4078 125.462 95.4078 125.167C95.4078 122.472 93.9639 121.039 91.9781 121.456Z" stroke="white" stroke-width="1.0527" stroke-miterlimit="10" stroke-linecap="round" stroke-linejoin="round"/>
<path d="M94.7483 128.55C95.0554 127.728 95.2674 126.883 95.3549 126.061L90.5684 128.838L94.7483 128.55Z" stroke="white" stroke-width="1.0527" stroke-miterlimit="10" stroke-linecap="round" stroke-linejoin="round"/>
<path d="M85.7402 131.048C85.85 134.144 87.9726 135.437 90.5722 133.936C92.357 132.905 93.9148 130.813 94.7485 128.551L90.5685 128.839L85.7402 131.048Z" stroke="white" stroke-width="1.0527" stroke-miterlimit="10" stroke-linecap="round" stroke-linejoin="round"/>
<path d="M106.122 113.646C104.549 115.542 103.473 118.187 103.473 120.513C103.473 121.571 103.696 122.439 104.083 123.075L108.309 117.717L106.122 113.646Z" fill="#FBCC04"/>
<path d="M110.491 111.11C109.835 111.08 109.093 111.277 108.308 111.732C107.519 112.187 106.777 112.85 106.121 113.646L108.308 117.716L110.491 111.11Z" fill="#FBCC04"/>
<path d="M112.697 112.658C112.239 111.702 111.458 111.157 110.492 111.111L108.309 117.717L112.697 112.658Z" fill="#FBCC04"/>
<path d="M112.696 112.656L108.308 117.716L104.082 123.074C104.912 124.424 106.492 124.749 108.308 123.7C110.98 122.157 113.147 118.227 113.147 114.919C113.148 114.017 112.984 113.255 112.696 112.656Z" fill="#FBCC04"/>
<path opacity="0.7" d="M110.491 111.11C109.835 111.08 109.093 111.277 108.308 111.732C107.519 112.187 106.777 112.85 106.121 113.646L108.308 117.716L110.491 111.11Z" fill="white"/>
<path opacity="0.15" d="M112.697 112.658C112.239 111.702 111.458 111.157 110.492 111.111L108.309 117.717L112.697 112.658Z" fill="black"/>
<path opacity="0.5" d="M112.696 112.656L108.308 117.716L104.082 123.074C104.912 124.424 106.492 124.749 108.308 123.7C110.98 122.157 113.147 118.227 113.147 114.919C113.148 114.017 112.984 113.255 112.696 112.656Z" fill="white"/>
<path d="M106.122 113.646C104.549 115.542 103.473 118.187 103.473 120.513C103.473 121.571 103.696 122.439 104.083 123.075L108.309 117.717L106.122 113.646Z" stroke="white" stroke-width="1.0527" stroke-miterlimit="10" stroke-linecap="round" stroke-linejoin="round"/>
<path d="M110.491 111.11C109.835 111.08 109.093 111.277 108.308 111.732C107.519 112.187 106.777 112.85 106.121 113.646L108.308 117.716L110.491 111.11Z" stroke="white" stroke-width="1.0527" stroke-miterlimit="10" stroke-linecap="round" stroke-linejoin="round"/>
<path d="M112.697 112.658C112.239 111.702 111.458 111.157 110.492 111.111L108.309 117.717L112.697 112.658Z" stroke="white" stroke-width="1.0527" stroke-miterlimit="10" stroke-linecap="round" stroke-linejoin="round"/>
<path d="M112.696 112.656L108.308 117.716L104.082 123.074C104.912 124.424 106.492 124.749 108.308 123.7C110.98 122.157 113.147 118.227 113.147 114.919C113.148 114.017 112.984 113.255 112.696 112.656Z" stroke="white" stroke-width="1.0527" stroke-miterlimit="10" stroke-linecap="round" stroke-linejoin="round"/>
<path d="M97.4296 118.025L98.2216 117.568C98.448 117.437 98.632 117.543 98.632 117.805V118.565C98.632 118.827 98.4484 119.145 98.2219 119.276L97.4299 119.733C97.2035 119.864 97.0195 119.758 97.0195 119.496V118.736C97.0192 118.474 97.2031 118.156 97.4296 118.025Z" fill="#FBCC04"/>
<path d="M97.4296 121.439L98.2216 120.982C98.448 120.851 98.632 120.957 98.632 121.219V121.979C98.632 122.241 98.4484 122.559 98.2219 122.69L97.4299 123.147C97.2035 123.278 97.0195 123.172 97.0195 122.91V122.15C97.0192 121.888 97.2031 121.57 97.4296 121.439Z" fill="#FBCC04"/>
<path opacity="0.7" d="M97.4296 121.439L98.2216 120.982C98.448 120.851 98.632 120.957 98.632 121.219V121.979C98.632 122.241 98.4484 122.559 98.2219 122.69L97.4299 123.147C97.2035 123.278 97.0195 123.172 97.0195 122.91V122.15C97.0192 121.888 97.2031 121.57 97.4296 121.439Z" fill="white"/>
<path d="M97.4296 124.853L98.2216 124.396C98.448 124.265 98.632 124.371 98.632 124.633V125.394C98.632 125.655 98.4484 125.973 98.2219 126.104L97.4299 126.562C97.2035 126.692 97.0195 126.586 97.0195 126.325V125.564C97.0192 125.302 97.2031 124.984 97.4296 124.853Z" fill="#FBCC04"/>
<path opacity="0.15" d="M97.4296 124.853L98.2216 124.396C98.448 124.265 98.632 124.371 98.632 124.633V125.394C98.632 125.655 98.4484 125.973 98.2219 126.104L97.4299 126.562C97.2035 126.692 97.0195 126.586 97.0195 126.325V125.564C97.0192 125.302 97.2031 124.984 97.4296 124.853Z" fill="black"/>
<path d="M97.4296 128.267L98.2216 127.81C98.448 127.679 98.632 127.785 98.632 128.047V128.807C98.632 129.069 98.4484 129.387 98.2219 129.518L97.4299 129.975C97.2035 130.106 97.0195 130 97.0195 129.738V128.978C97.0192 128.716 97.2031 128.398 97.4296 128.267Z" fill="#FBCC04"/>
<path opacity="0.5" d="M97.4296 128.267L98.2216 127.81C98.448 127.679 98.632 127.785 98.632 128.047V128.807C98.632 129.069 98.4484 129.387 98.2219 129.518L97.4299 129.975C97.2035 130.106 97.0195 130 97.0195 129.738V128.978C97.0192 128.716 97.2031 128.398 97.4296 128.267Z" fill="white"/>
<path opacity="0.4" d="M99.4469 117.947C99.354 117.947 99.2636 117.898 99.214 117.812C99.1394 117.684 99.1837 117.52 99.3119 117.445L101.723 116.054C101.851 115.979 102.016 116.023 102.09 116.152C102.164 116.28 102.12 116.444 101.992 116.518L99.5808 117.91C99.5387 117.935 99.4926 117.947 99.4469 117.947Z" fill="black"/>
<path opacity="0.4" d="M99.4098 121.395C99.3169 121.395 99.2265 121.347 99.1768 121.261C99.1023 121.133 99.1466 120.968 99.2748 120.894L101.686 119.503C101.815 119.429 101.979 119.473 102.053 119.601C102.127 119.729 102.083 119.893 101.955 119.968L99.5437 121.359C99.5016 121.383 99.4555 121.395 99.4098 121.395Z" fill="black"/>
<path opacity="0.4" d="M99.3726 124.842C99.2798 124.842 99.1894 124.794 99.1397 124.708C99.0652 124.58 99.1095 124.416 99.238 124.341L101.649 122.95C101.778 122.876 101.942 122.92 102.016 123.048C102.09 123.176 102.046 123.341 101.918 123.415L99.5069 124.806C99.4644 124.831 99.418 124.842 99.3726 124.842Z" fill="black"/>
<path opacity="0.4" d="M99.3357 128.291C99.2428 128.291 99.1524 128.243 99.1024 128.157C99.0282 128.028 99.0725 127.864 99.2007 127.79L101.612 126.399C101.741 126.326 101.904 126.369 101.979 126.497C102.053 126.626 102.009 126.79 101.88 126.864L99.4696 128.255C99.4271 128.279 99.381 128.291 99.3357 128.291Z" fill="black"/>
<path opacity="0.4" d="M86.0367 140.422C85.9438 140.422 85.8535 140.374 85.8038 140.288C85.7293 140.159 85.7736 139.995 85.9017 139.92L97.1906 133.405C97.3202 133.331 97.4833 133.375 97.5578 133.503C97.632 133.631 97.5877 133.796 97.4595 133.87L86.1706 140.386C86.1282 140.41 86.0821 140.422 86.0367 140.422Z" fill="black"/>
<path opacity="0.4" d="M86.4001 142.094C86.3072 142.094 86.2169 142.046 86.1668 141.959C86.0927 141.831 86.1369 141.667 86.2651 141.592L97.554 135.077C97.6839 135.003 97.847 135.047 97.9208 135.175C97.9953 135.303 97.9511 135.468 97.8229 135.542L86.534 142.058C86.4912 142.082 86.4455 142.094 86.4001 142.094Z" fill="black"/>
<path opacity="0.4" d="M86.9215 143.709C86.8286 143.709 86.7382 143.661 86.6886 143.575C86.614 143.446 86.6583 143.282 86.7865 143.208L98.0757 136.692C98.2057 136.618 98.3684 136.662 98.4429 136.79C98.5171 136.919 98.4728 137.083 98.3446 137.157L87.0554 143.673C87.0129 143.697 86.9668 143.709 86.9215 143.709Z" fill="black"/>
<path opacity="0.4" d="M103.756 130.195C103.663 130.195 103.572 130.147 103.522 130.061C103.448 129.933 103.492 129.768 103.621 129.694L114.909 123.178C115.039 123.105 115.202 123.148 115.276 123.277C115.351 123.405 115.307 123.569 115.178 123.644L103.889 130.159C103.847 130.183 103.801 130.195 103.756 130.195Z" fill="black"/>
<path opacity="0.4" d="M104.119 131.865C104.026 131.865 103.936 131.817 103.886 131.731C103.811 131.603 103.856 131.438 103.984 131.364L115.273 124.849C115.403 124.774 115.566 124.818 115.64 124.946C115.714 125.075 115.67 125.239 115.542 125.314L104.253 131.829C104.21 131.853 104.165 131.865 104.119 131.865Z" fill="black"/>
<path opacity="0.4" d="M104.64 133.482C104.547 133.482 104.457 133.434 104.407 133.348C104.333 133.22 104.377 133.055 104.505 132.981L115.795 126.466C115.925 126.392 116.088 126.436 116.161 126.564C116.236 126.692 116.192 126.856 116.063 126.931L104.774 133.446C104.732 133.471 104.686 133.482 104.64 133.482Z" fill="black"/>
<path d="M90.0201 145.542L115.757 130.689C116.664 130.166 117.783 130.397 118.336 131.151C118.888 131.905 118.662 132.892 117.756 133.415L92.0101 148.273C91.1037 148.796 89.857 148.659 89.3065 147.904C88.7554 147.149 89.1136 146.065 90.0201 145.542Z" fill="#FBCC04"/>
<path opacity="0.4" d="M94.2653 152.821C94.1725 152.821 94.0821 152.773 94.0321 152.687C93.9579 152.558 94.0022 152.394 94.1303 152.319L105.418 145.805C105.548 145.732 105.711 145.775 105.785 145.903C105.86 146.032 105.815 146.196 105.687 146.27L94.3993 152.785C94.3564 152.809 94.3107 152.821 94.2653 152.821Z" fill="black"/>
<path opacity="0.4" d="M92.8532 151.825C92.7604 151.825 92.67 151.776 92.6199 151.69C92.5458 151.562 92.5901 151.398 92.7182 151.323L104.006 144.809C104.136 144.736 104.299 144.779 104.373 144.907C104.447 145.036 104.403 145.2 104.275 145.274L92.9875 151.789C92.9447 151.813 92.899 151.825 92.8532 151.825Z" fill="black"/>
<path opacity="0.4" d="M95.7497 153.7C95.6568 153.7 95.5665 153.652 95.5164 153.566C95.4423 153.437 95.4866 153.273 95.6147 153.198L106.903 146.684C107.033 146.611 107.196 146.654 107.27 146.782C107.345 146.911 107.3 147.075 107.172 147.149L95.8836 153.664C95.8412 153.688 95.7951 153.7 95.7497 153.7Z" fill="black"/>
<path opacity="0.4" d="M110.383 143.52C110.29 143.52 110.199 143.472 110.149 143.386C110.075 143.257 110.119 143.093 110.248 143.019L121.536 136.504C121.666 136.431 121.829 136.474 121.903 136.603C121.977 136.731 121.933 136.895 121.805 136.97L110.516 143.484C110.474 143.508 110.428 143.52 110.383 143.52Z" fill="black"/>
<path opacity="0.4" d="M108.97 142.524C108.878 142.524 108.787 142.476 108.737 142.39C108.663 142.261 108.707 142.097 108.835 142.022L120.123 135.508C120.253 135.435 120.416 135.478 120.49 135.606C120.565 135.735 120.52 135.899 120.392 135.974L109.104 142.488C109.062 142.512 109.016 142.524 108.97 142.524Z" fill="black"/>
<path opacity="0.4" d="M111.867 144.399C111.774 144.399 111.684 144.351 111.634 144.265C111.559 144.136 111.604 143.972 111.732 143.898L123.02 137.383C123.15 137.31 123.313 137.354 123.388 137.481C123.462 137.61 123.417 137.774 123.289 137.849L112.001 144.363C111.958 144.387 111.913 144.399 111.867 144.399Z" fill="black"/>
<path d="M112.036 152.52C109.585 151.104 105.432 151.207 102.76 152.748C100.088 154.29 99.909 156.688 102.36 158.103C104.811 159.519 108.964 159.416 111.636 157.874C114.308 156.333 114.487 153.935 112.036 152.52ZM110.368 157.142C108.459 158.244 105.493 158.317 103.742 157.306C101.992 156.295 102.119 154.582 104.028 153.481C105.936 152.379 108.903 152.306 110.654 153.317C112.404 154.329 112.276 156.041 110.368 157.142Z" fill="#FBCC04"/>
<path d="M105.296 154.213C106.442 153.553 108.221 153.509 109.272 154.115C110.322 154.722 110.246 155.749 109.101 156.41C107.955 157.071 106.176 157.115 105.125 156.508C104.075 155.902 104.151 154.874 105.296 154.213Z" fill="#FBCC04"/>
<path opacity="0.5" d="M105.296 154.213C106.442 153.553 108.221 153.509 109.272 154.115C110.322 154.722 110.246 155.749 109.101 156.41C107.955 157.071 106.176 157.115 105.125 156.508C104.075 155.902 104.151 154.874 105.296 154.213Z" fill="black"/>
<path opacity="0.15" d="M112.036 152.52C109.585 151.104 105.432 151.207 102.76 152.748C100.088 154.29 99.909 156.688 102.36 158.103C104.811 159.519 108.964 159.416 111.636 157.874C114.308 156.333 114.487 153.935 112.036 152.52ZM110.368 157.142C108.459 158.244 105.493 158.317 103.742 157.306C101.992 156.295 102.119 154.582 104.028 153.481C105.936 152.379 108.903 152.306 110.654 153.317C112.404 154.329 112.276 156.041 110.368 157.142Z" fill="black"/>
<path d="M105.232 151.81L105.793 152.811C106.871 152.563 108.04 152.54 109.077 152.749L109.833 151.725C108.381 151.431 106.743 151.463 105.232 151.81Z" fill="#FBCC04"/>
<path opacity="0.7" d="M105.232 151.81L105.793 152.811C106.871 152.563 108.04 152.54 109.077 152.749L109.833 151.725C108.381 151.431 106.743 151.463 105.232 151.81Z" fill="white"/>
<path opacity="0.4" d="M107.534 151.314C107.529 151.314 107.524 151.314 107.518 151.313C107.37 151.305 107.257 151.177 107.266 151.029L107.339 149.796L112.302 146.932C112.432 146.859 112.594 146.902 112.669 147.03C112.743 147.159 112.699 147.323 112.571 147.397L107.858 150.117L107.802 151.061C107.794 151.204 107.675 151.314 107.534 151.314Z" fill="black"/>
<path d="M126.548 144.15C124.097 142.735 119.944 142.837 117.272 144.379C114.6 145.921 114.421 148.319 116.872 149.734C119.323 151.15 123.476 151.047 126.148 149.505C128.819 147.963 128.998 145.566 126.548 144.15ZM124.879 148.773C122.971 149.874 120.004 149.947 118.254 148.936C116.503 147.925 116.631 146.213 118.54 145.111C120.448 144.01 123.415 143.937 125.166 144.948C126.916 145.959 126.788 147.672 124.879 148.773Z" fill="#FBCC04"/>
<path d="M119.808 145.844C120.953 145.183 122.733 145.139 123.784 145.746C124.834 146.353 124.757 147.38 123.612 148.041C122.467 148.702 120.687 148.746 119.637 148.14C118.586 147.532 118.663 146.505 119.808 145.844Z" fill="#FBCC04"/>
<path opacity="0.5" d="M119.808 145.842C120.953 145.181 122.733 145.137 123.784 145.744C124.834 146.351 124.757 147.378 123.612 148.039C122.467 148.7 120.687 148.744 119.637 148.138C118.586 147.53 118.663 146.503 119.808 145.842Z" fill="black"/>
<path opacity="0.15" d="M126.548 144.15C124.097 142.735 119.944 142.837 117.272 144.379C114.6 145.921 114.421 148.319 116.872 149.734C119.323 151.15 123.476 151.047 126.148 149.505C128.819 147.963 128.998 145.566 126.548 144.15ZM124.879 148.773C122.971 149.874 120.004 149.947 118.254 148.936C116.503 147.925 116.631 146.213 118.54 145.111C120.448 144.01 123.415 143.937 125.166 144.948C126.916 145.959 126.788 147.672 124.879 148.773Z" fill="black"/>
<path d="M126.548 144.15C124.477 142.954 121.194 142.846 118.613 143.77L119.499 144.676C121.342 144.016 123.687 144.094 125.166 144.948C125.437 145.104 125.657 145.279 125.838 145.464L127.491 144.873C127.236 144.613 126.927 144.369 126.548 144.15Z" fill="#FBCC04"/>
<path opacity="0.7" d="M126.548 144.15C124.477 142.954 121.194 142.846 118.613 143.77L119.499 144.676C121.342 144.016 123.687 144.094 125.166 144.948C125.437 145.104 125.657 145.279 125.838 145.464L127.491 144.873C127.236 144.613 126.927 144.369 126.548 144.15Z" fill="white"/>
<path opacity="0.4" d="M122.087 142.917C122.082 142.917 122.076 142.917 122.071 142.916C121.923 142.908 121.81 142.781 121.819 142.632L121.892 141.399L126.855 138.535C126.985 138.463 127.148 138.505 127.222 138.633C127.296 138.762 127.252 138.926 127.124 139.001L122.411 141.72L122.355 142.664C122.346 142.807 122.228 142.917 122.087 142.917Z" fill="black"/>
<path opacity="0.4" d="M109.064 161.386C108.971 161.386 108.881 161.338 108.831 161.252C108.757 161.124 108.801 160.959 108.929 160.885L136.345 145.065C136.475 144.992 136.638 145.035 136.712 145.163C136.786 145.291 136.742 145.456 136.614 145.53L109.198 161.35C109.156 161.375 109.11 161.386 109.064 161.386Z" fill="black"/>
<path opacity="0.4" d="M110.547 162.238C110.454 162.238 110.363 162.19 110.313 162.104C110.239 161.975 110.283 161.811 110.412 161.737L137.827 145.916C137.957 145.843 138.12 145.886 138.195 146.015C138.269 146.143 138.224 146.307 138.096 146.382L110.681 162.202C110.638 162.226 110.592 162.238 110.547 162.238Z" fill="black"/>
<path opacity="0.4" d="M112.027 163.093C111.934 163.093 111.844 163.045 111.794 162.959C111.72 162.831 111.764 162.667 111.892 162.592L139.308 146.772C139.438 146.699 139.601 146.742 139.675 146.87C139.749 146.999 139.705 147.163 139.577 147.237L112.161 163.057C112.118 163.082 112.072 163.093 112.027 163.093Z" fill="black"/>
</svg>