<svg xmlns="http://www.w3.org/2000/svg" fill="none" viewBox="0 0 180 180">
<g clip-path="url(#clip0_642_1685)">
<path d="M174 0H6C2.68629 0 0 2.6863 0 6.00001V174C0 177.314 2.6863 180 6.00001 180H174C177.314 180 180 177.314 180 174V6C180 2.68629 177.314 0 174 0Z" fill="white"/>
<path d="M62.0283 58.9465C61.97 58.9465 61.9164 58.9152 61.8872 58.8651L60.35 56.204C60.3208 56.1536 60.3208 56.0913 60.35 56.0409L61.8872 53.3802C61.916 53.3298 61.97 53.2988 62.0283 53.2988C62.0866 53.2988 62.1403 53.3298 62.1694 53.3798L63.7102 56.0406C63.7394 56.0913 63.7394 56.1536 63.7102 56.204L62.1694 58.8651C62.1403 58.9155 62.0863 58.9465 62.0283 58.9465ZM60.679 56.1223L62.0287 58.458L63.3808 56.1223L62.0287 53.787L60.679 56.1223Z" fill="#25292B"/>
<path d="M57.7546 55.7589C57.2427 55.7589 56.8262 55.3423 56.8262 54.8304C56.8262 54.3185 57.2427 53.9023 57.7546 53.9023C58.2665 53.9023 58.6827 54.3185 58.6827 54.8304C58.6827 55.3423 58.2665 55.7589 57.7546 55.7589ZM57.7546 54.2281C57.4223 54.2281 57.152 54.4985 57.152 54.8304C57.152 55.1627 57.4223 55.4331 57.7546 55.4331C58.0865 55.4331 58.3569 55.1627 58.3569 54.8304C58.3569 54.4985 58.0865 54.2281 57.7546 54.2281Z" fill="#25292B"/>
<path d="M60.4908 52.3445C60.0436 52.3445 59.6797 51.9805 59.6797 51.5334C59.6797 51.0866 60.0436 50.7227 60.4908 50.7227C60.9379 50.7227 61.3018 51.0866 61.3018 51.5334C61.3018 51.9809 60.9382 52.3445 60.4908 52.3445ZM60.4908 51.0488C60.2233 51.0488 60.0058 51.2663 60.0058 51.5337C60.0058 51.8012 60.2236 52.0187 60.4908 52.0187C60.7582 52.0187 60.9757 51.8009 60.9757 51.5337C60.976 51.2663 60.7582 51.0488 60.4908 51.0488Z" fill="#25292B"/>
<path d="M56.9888 52.7182C56.6579 52.7182 56.3887 52.4489 56.3887 52.1181C56.3887 51.7872 56.6579 51.5176 56.9888 51.5176C57.3196 51.5176 57.5889 51.7872 57.5889 52.1181C57.5889 52.4489 57.3196 52.7182 56.9888 52.7182ZM56.9888 51.8434C56.8376 51.8434 56.7145 51.9665 56.7145 52.1181C56.7145 52.2693 56.8376 52.3924 56.9888 52.3924C57.14 52.3924 57.2631 52.2693 57.2631 52.1181C57.2631 51.9665 57.14 51.8434 56.9888 51.8434Z" fill="#25292B"/>
<path d="M121.503 47.2634C121.445 47.2634 121.391 47.2324 121.362 47.182L120.186 45.1458C120.157 45.0954 120.157 45.0332 120.186 44.9828L121.362 42.9466C121.391 42.8962 121.445 42.8652 121.503 42.8652C121.561 42.8652 121.615 42.8962 121.644 42.9466L122.823 44.9828C122.852 45.0332 122.852 45.0954 122.823 45.1462L121.644 47.1824C121.615 47.232 121.561 47.2634 121.503 47.2634ZM120.515 45.0641L121.504 46.7748L122.494 45.0641L121.504 43.3534L120.515 45.0641Z" fill="#25292B"/>
<path d="M118.721 44.2065C118.209 44.2065 117.793 43.79 117.793 43.2781C117.793 42.7661 118.209 42.3496 118.721 42.3496C119.233 42.3496 119.649 42.7661 119.649 43.2781C119.649 43.79 119.233 44.2065 118.721 44.2065ZM118.721 42.6758C118.389 42.6758 118.119 42.9461 118.119 43.2784C118.119 43.6107 118.389 43.8807 118.721 43.8807C119.053 43.8807 119.324 43.6103 119.324 43.2784C119.324 42.9461 119.053 42.6758 118.721 42.6758Z" fill="#25292B"/>
<path d="M121.458 41.9109C121.01 41.9109 120.646 41.5469 120.646 41.0998C120.646 40.6527 121.01 40.2891 121.458 40.2891C121.905 40.2891 122.269 40.653 122.269 41.0998C122.269 41.5473 121.905 41.9109 121.458 41.9109ZM121.458 40.6149C121.19 40.6149 120.973 40.8323 120.973 41.0998C120.973 41.3673 121.19 41.5847 121.458 41.5847C121.725 41.5847 121.942 41.3673 121.942 41.0998C121.943 40.8327 121.725 40.6149 121.458 40.6149Z" fill="#25292B"/>
<path d="M118.721 41.0522C118.39 41.0522 118.121 40.7829 118.121 40.452C118.121 40.1212 118.39 39.8516 118.721 39.8516C119.052 39.8516 119.321 40.1208 119.321 40.452C119.321 40.7832 119.052 41.0522 118.721 41.0522ZM118.721 40.1774C118.57 40.1774 118.447 40.3005 118.447 40.452C118.447 40.6036 118.57 40.7264 118.721 40.7264C118.872 40.7264 118.996 40.6032 118.996 40.452C118.996 40.3008 118.872 40.1774 118.721 40.1774Z" fill="#25292B"/>
<path d="M146.058 121.786C145.999 121.786 145.946 121.755 145.916 121.705L144.379 119.044C144.35 118.993 144.35 118.931 144.379 118.881L145.916 116.22C145.946 116.17 145.999 116.139 146.058 116.139C146.116 116.139 146.17 116.17 146.199 116.22L147.74 118.88C147.769 118.931 147.769 118.993 147.74 119.044L146.199 121.705C146.17 121.756 146.116 121.786 146.058 121.786ZM144.709 118.963L146.058 121.298L147.41 118.963L146.058 116.627L144.709 118.963Z" fill="#25292B"/>
<path d="M149.829 123.292C149.317 123.292 148.9 122.876 148.9 122.364C148.9 121.852 149.317 121.436 149.829 121.436C150.341 121.436 150.757 121.852 150.757 122.364C150.757 122.876 150.341 123.292 149.829 123.292ZM149.829 121.761C149.497 121.761 149.226 122.032 149.226 122.364C149.226 122.696 149.497 122.966 149.829 122.966C150.161 122.966 150.431 122.696 150.431 122.364C150.431 122.032 150.161 121.761 149.829 121.761Z" fill="#25292B"/>
<path d="M144.606 115.184C144.159 115.184 143.795 114.82 143.795 114.374C143.795 113.926 144.159 113.562 144.606 113.562C145.053 113.562 145.417 113.926 145.417 114.374C145.417 114.821 145.053 115.184 144.606 115.184ZM144.606 113.889C144.338 113.889 144.121 114.106 144.121 114.374C144.121 114.641 144.338 114.858 144.606 114.858C144.873 114.858 145.091 114.641 145.091 114.374C145.091 114.106 144.873 113.889 144.606 113.889Z" fill="#25292B"/>
<path d="M149.229 118.241C148.898 118.241 148.629 117.972 148.629 117.641C148.629 117.31 148.898 117.041 149.229 117.041C149.56 117.041 149.83 117.31 149.83 117.641C149.83 117.972 149.56 118.241 149.229 118.241ZM149.229 117.367C149.078 117.367 148.955 117.49 148.955 117.641C148.955 117.792 149.078 117.915 149.229 117.915C149.38 117.915 149.504 117.792 149.504 117.641C149.504 117.49 149.381 117.367 149.229 117.367Z" fill="#25292B"/>
<path d="M149.414 115.184C149.355 115.184 149.302 115.152 149.273 115.102L148.307 113.431C148.278 113.381 148.278 113.319 148.307 113.268L149.273 111.597C149.302 111.547 149.355 111.516 149.414 111.516C149.472 111.516 149.526 111.547 149.555 111.597L150.522 113.268C150.552 113.319 150.552 113.381 150.522 113.431L149.555 115.102C149.526 115.153 149.472 115.184 149.414 115.184ZM148.636 113.35L149.414 114.695L150.193 113.35L149.414 112.004L148.636 113.35Z" fill="#25292B"/>
<path d="M141.055 121.442C140.724 121.442 140.455 121.173 140.455 120.842C140.455 120.511 140.724 120.242 141.055 120.242C141.386 120.242 141.656 120.511 141.656 120.842C141.656 121.173 141.386 121.442 141.055 121.442ZM141.055 120.568C140.904 120.568 140.781 120.691 140.781 120.842C140.781 120.994 140.904 121.117 141.055 121.117C141.206 121.117 141.33 120.994 141.33 120.842C141.33 120.691 141.206 120.568 141.055 120.568Z" fill="#25292B"/>
<path d="M56.2771 89.9258C56.2771 89.9258 58.7881 149.255 58.5631 159.012H45.6531L39.041 90.4226L56.2771 89.9258Z" fill="#25292B"/>
<path d="M26.4554 90.6234L24.7206 122.383L15.4805 159.011H29.3243L43.253 122.233L49.1714 90.2598L26.4554 90.6234Z" fill="#25292B"/>
<path d="M42.5382 124.295L42.1699 124.22C44.2806 113.835 46.0529 103.231 47.4364 92.7034L47.4562 92.5536L51.8582 92.1738L51.8906 92.5486L47.7895 92.9021C46.4075 103.389 44.641 113.95 42.5382 124.295Z" fill="#F2E9DA"/>
<path d="M16.543 159.049H27.5428L30.4476 161.614C30.4476 161.614 39.0556 161.371 39.0556 167.666H16.543V159.049Z" fill="#FBCC04"/>
<path d="M17.3025 166.94H17.3421L38.5173 166.86C38.6001 166.86 38.667 166.792 38.6667 166.71C38.6663 166.627 38.5993 166.561 38.5169 166.561L17.3017 166.64C17.2189 166.64 17.152 166.708 17.1523 166.791C17.1531 166.873 17.22 166.94 17.3025 166.94Z" fill="#25292B"/>
<path d="M23.2396 162.597C22.4695 162.515 22.0001 162.211 21.9169 161.741C21.8093 161.134 22.4105 160.698 22.958 160.509C24.6706 159.919 26.6549 160.284 28.0643 161.41C28.4599 160.122 29.1608 158.938 30.1019 157.971C30.396 157.669 30.7589 157.348 31.2233 157.259C31.6956 157.168 32.2806 157.409 32.4005 157.912C32.5146 158.391 32.1722 158.816 31.8608 159.133C30.823 160.191 29.6782 161.159 28.4592 162.01C28.416 162.04 28.3616 162.044 28.3148 162.025C28.2997 162.039 28.2814 162.05 28.2605 162.057C27.0516 162.457 25.7671 162.663 24.488 162.663C24.0701 162.663 23.6532 162.641 23.2396 162.597ZM27.9926 161.74C26.6563 160.602 24.7199 160.219 23.0552 160.792C22.7042 160.913 22.1318 161.238 22.2118 161.689C22.2928 162.147 22.9793 162.268 23.2709 162.299C24.866 162.468 26.5127 162.3 28.0412 161.813C28.0182 161.794 28.0013 161.768 27.9926 161.74ZM31.2794 157.553C30.8964 157.627 30.5774 157.911 30.3161 158.18C29.3783 159.144 28.6874 160.332 28.313 161.623C28.3386 161.646 28.3638 161.67 28.389 161.694C29.555 160.871 30.6505 159.94 31.647 158.924C31.904 158.662 32.1888 158.318 32.1089 157.982C32.0412 157.698 31.7226 157.54 31.426 157.54C31.3759 157.54 31.3266 157.544 31.2794 157.553Z" fill="#25292B"/>
<path d="M46.6562 158.959H57.656L60.5609 161.524C60.5609 161.524 69.1688 161.281 69.1688 167.576H46.6562V158.959Z" fill="#FBCC04"/>
<path d="M47.4177 166.85H47.4181H47.4573L68.6325 166.77C68.7153 166.77 68.7823 166.703 68.7819 166.62C68.7815 166.537 68.7146 166.471 68.6321 166.471L47.417 166.55C47.3342 166.551 47.2672 166.618 47.2676 166.701C47.2683 166.783 47.3353 166.85 47.4177 166.85Z" fill="#25292B"/>
<path d="M53.3528 162.507C52.5828 162.425 52.1134 162.121 52.0302 161.652C51.9226 161.044 52.5238 160.608 53.0713 160.419C54.7838 159.829 56.7681 160.194 58.1775 161.32C58.5732 160.033 59.2741 158.848 60.2152 157.882C60.5093 157.579 60.8722 157.258 61.3366 157.169C61.8089 157.078 62.3939 157.319 62.5137 157.822C62.6279 158.301 62.2855 158.727 61.9741 159.043C60.9362 160.101 59.7914 161.069 58.5725 161.92C58.5293 161.95 58.4749 161.954 58.4281 161.935C58.413 161.949 58.3946 161.96 58.3737 161.967C57.1649 162.368 55.8804 162.573 54.6013 162.573C54.1837 162.573 53.7665 162.551 53.3528 162.507ZM58.1063 161.65C56.77 160.512 54.8335 160.129 53.1689 160.703C52.8179 160.823 52.2455 161.148 52.3254 161.599C52.4064 162.057 53.0929 162.178 53.3845 162.209C54.9797 162.378 56.6263 162.21 58.1549 161.723C58.1315 161.704 58.1146 161.679 58.1063 161.65ZM61.3931 157.463C61.01 157.537 60.6911 157.822 60.4297 158.09C59.4919 159.054 58.8011 160.242 58.4267 161.533C58.4522 161.556 58.4774 161.58 58.5026 161.604C59.6687 160.781 60.7642 159.85 61.7606 158.834C62.0177 158.572 62.3024 158.228 62.2225 157.892C62.1548 157.608 61.8362 157.45 61.5396 157.45C61.4896 157.45 61.4399 157.454 61.3931 157.463Z" fill="#25292B"/>
<path d="M54.5097 75.9832L56.2773 89.926L54.5421 97.0324L49.1709 90.2608L41.4669 97.0324L26.4549 90.6244L26.6349 84.7888C22.2321 85.6888 18.1533 82.222 18.3297 77.7328L20.1737 56.2236C20.2925 53.2212 22.4967 48.7366 25.3875 47.9266L35.2857 44.998L43.9077 46.5748L49.7685 48.3748C52.3533 49.1704 54.2397 51.3952 54.5961 54.0736L56.3097 66.8896L64.3845 68.9776L64.6833 75.9832H54.5097Z" fill="#FBCC04"/>
<path d="M29.3248 73.6585C29.3186 73.6585 29.3125 73.6581 29.306 73.6578C29.2074 73.6477 29.1354 73.5591 29.1455 73.4601L30.6132 59.1825C30.6236 59.0839 30.7108 59.0151 30.8108 59.022C30.9095 59.032 30.9815 59.1206 30.9714 59.2196L29.5037 73.4972C29.4943 73.5897 29.4162 73.6585 29.3248 73.6585Z" fill="#25292B"/>
<path d="M27.1894 84.8014C27.1131 84.8014 27.0422 84.7525 27.0177 84.6758C26.9878 84.5807 27.04 84.4799 27.1347 84.4497L44.8345 78.8315L42.7767 71.4832L24.7522 74.6573C24.6536 74.6757 24.5607 74.6095 24.5438 74.5115C24.5265 74.4136 24.5917 74.3204 24.6896 74.3031L42.875 71.1005C42.9672 71.084 43.0546 71.1401 43.0795 71.2291L45.2283 78.9017C45.2546 78.9953 45.202 79.0925 45.1095 79.1217L27.2442 84.7928C27.2258 84.7989 27.2074 84.8014 27.1894 84.8014Z" fill="#25292B"/>
<path d="M52.0084 68.3895C51.9184 68.3895 51.8407 68.3221 51.8299 68.2307L50.4954 56.9551C50.4839 56.8565 50.5544 56.7672 50.653 56.7553C50.7513 56.7427 50.841 56.8144 50.8529 56.913L52.1874 68.1886C52.1989 68.2872 52.1283 68.3765 52.0297 68.3884C52.0225 68.3891 52.0156 68.3895 52.0084 68.3895Z" fill="#25292B"/>
<path d="M43.3346 53.5112C43.2964 53.5112 43.2579 53.499 43.2255 53.4741L40.0197 51.0211C39.7083 51.0272 38.2146 51.1543 37.9079 52.9939C37.8968 53.0605 37.8496 53.1148 37.7859 53.1357C37.7222 53.1573 37.6516 53.14 37.6041 53.0925C37.5706 53.0594 34.2629 49.733 34.5488 45.48C34.5556 45.381 34.6409 45.31 34.7406 45.3126C34.8396 45.3194 34.9149 45.4051 34.908 45.5044C34.6773 48.9388 36.8956 51.758 37.6278 52.5882C38.1581 50.61 40.0694 50.6632 40.0881 50.6614C40.1252 50.6629 40.1612 50.6758 40.1903 50.6985L43.444 53.1886C43.5228 53.2491 43.538 53.3618 43.4775 53.441C43.4426 53.4871 43.3889 53.5112 43.3346 53.5112Z" fill="#25292B"/>
<path d="M44.2016 53.5108C44.193 53.5108 44.1843 53.5105 44.1753 53.509C44.077 53.4946 44.009 53.4032 44.0234 53.3049L44.4054 50.7028C44.4122 50.6557 44.4378 50.6128 44.4763 50.5844C44.5148 50.5559 44.5638 50.5448 44.6102 50.5509C44.6509 50.557 45.3774 50.6708 45.8508 51.0405C45.8083 50.0635 45.5595 47.9585 44.2354 47.0758C44.1526 47.0207 44.1303 46.9088 44.1854 46.8263C44.2401 46.7435 44.3517 46.7212 44.4349 46.7763C46.3486 48.0521 46.2223 51.4279 46.2162 51.5708C46.2122 51.6568 46.1485 51.7281 46.0632 51.7407C45.9789 51.7526 45.8958 51.7043 45.867 51.6237C45.7305 51.2428 45.1099 51.0272 44.7344 50.9411L44.3798 53.3567C44.3661 53.4464 44.2894 53.5108 44.2016 53.5108Z" fill="#25292B"/>
<path d="M62.3392 69.6692L57.202 70.2992L58.6276 71.4116C59.1496 71.8184 59.2432 72.5744 58.8364 73.0964C58.5988 73.3988 58.246 73.5572 57.8896 73.5572C57.8536 73.5572 57.814 73.5572 57.778 73.5536C57.9076 73.9244 57.8572 74.36 57.5944 74.6948C57.3568 74.9972 57.0004 75.1556 56.644 75.1556C56.518 75.1556 56.3884 75.134 56.266 75.0944C56.4136 75.476 56.3596 75.9188 56.0932 76.2608C55.8556 76.5632 55.5028 76.7216 55.1428 76.7216C54.8872 76.7216 54.628 76.6424 54.4084 76.4732L53.3284 75.6308L53.1844 75.8468C50.6824 78.9644 47.554 77.7008 47.554 77.7008L45.1024 78.41L43.252 71.9696L48.2164 70.8932L52.4032 68.132C52.9108 67.7972 53.5084 67.6172 54.1168 67.6172H62.3392V69.6692Z" fill="#F2E9DA"/>
<path d="M56.2652 75.2747C56.2252 75.2747 56.1849 75.2614 56.1514 75.234L54.0447 73.5111C53.9677 73.4481 53.9562 73.3347 54.0192 73.2576C54.0822 73.1806 54.1956 73.1691 54.2726 73.2321L56.3793 74.955C56.4564 75.018 56.4679 75.1314 56.4049 75.2085C56.3692 75.2524 56.3174 75.2747 56.2652 75.2747Z" fill="#25292B"/>
<path d="M57.7774 73.7331C57.7371 73.7331 57.6961 73.7195 57.6626 73.6914L55.5199 71.908C55.4435 71.8442 55.4331 71.7308 55.4968 71.6545C55.5602 71.5785 55.6736 71.5678 55.7503 71.6315L57.893 73.4149C57.9693 73.4786 57.9797 73.592 57.916 73.6684C57.8804 73.7108 57.8293 73.7331 57.7774 73.7331Z" fill="#25292B"/>
<path d="M78.6479 59.6615L68.0027 78.4931C67.7255 78.9827 67.2071 79.2851 66.6419 79.2851H56.6159C55.4207 79.2851 54.6719 77.9963 55.2587 76.9559L65.9039 58.1279C66.1811 57.6383 66.6995 57.3359 67.2611 57.3359H77.2907C78.4859 57.3359 79.2347 58.6211 78.6479 59.6615Z" fill="#25292B"/>
<path d="M74.1015 69.9992C73.9323 70.3304 73.6227 70.5428 73.2807 70.6004C73.4319 70.7516 73.5399 70.9352 73.6047 71.1332C73.7091 71.4608 73.6911 71.828 73.5219 72.1556C73.2663 72.6596 72.7263 72.9296 72.1935 72.8756C72.3303 73.0196 72.4275 73.1924 72.4887 73.376C72.5931 73.7072 72.5751 74.0744 72.4059 74.402C72.1791 74.8448 71.7363 75.1076 71.2683 75.1256C71.3295 75.2156 71.3799 75.3092 71.4195 75.4064C71.5599 75.752 71.5635 76.1264 71.3943 76.4576C71.0559 77.1128 70.1595 77.3324 69.3999 76.9436L67.7104 76.1361C67.3288 75.9417 67.0552 75.6285 66.9148 75.2829C66.7744 74.9373 66.7744 74.5593 66.94 74.2317C67.1452 73.8285 67.5664 73.5909 68.0344 73.5621C67.9516 73.4469 67.8868 73.3173 67.8436 73.1841C67.7356 72.8565 67.7572 72.4893 67.9228 72.1617C68.182 71.6577 68.722 71.3841 69.2548 71.4381C69.118 71.2941 69.0172 71.1213 68.9596 70.9377C68.8516 70.6101 68.8696 70.2429 69.0388 69.9153C69.3016 69.3969 69.8596 69.1269 70.4068 69.1953C70.378 69.1413 70.3564 69.0873 70.3384 69.0297C70.2484 68.7525 70.2628 68.4393 70.4068 68.1621C70.6912 67.6041 71.3824 67.3809 71.9404 67.6689L73.6047 68.4656C73.8855 68.6096 74.0799 68.8544 74.1699 69.1316C74.2599 69.4088 74.2419 69.722 74.1015 69.9992Z" fill="#F2E9DA"/>
<path d="M71.2672 75.3062C71.2409 75.3062 71.2143 75.3004 71.1891 75.2882L67.9552 73.7247C67.8656 73.6815 67.8281 73.5739 67.8717 73.4842C67.9152 73.3953 68.0225 73.3575 68.1122 73.4007L71.346 74.9642C71.4357 75.0074 71.4731 75.115 71.4296 75.2047C71.3983 75.2687 71.3342 75.3062 71.2672 75.3062Z" fill="#25292B"/>
<path d="M72.1927 73.0553C72.166 73.0553 72.1394 73.0495 72.1138 73.0369L69.1751 71.5994C69.0859 71.5555 69.0488 71.4479 69.0927 71.3586C69.1366 71.2693 69.2443 71.2326 69.3335 71.2761L72.2722 72.7136C72.3615 72.7575 72.3986 72.8652 72.3547 72.9545C72.3233 73.0182 72.2593 73.0553 72.1927 73.0553Z" fill="#25292B"/>
<path d="M73.2802 70.7807C73.2536 70.7807 73.2269 70.7749 73.2014 70.7623L70.3275 69.3572C70.2382 69.3137 70.2011 69.2057 70.245 69.1164C70.289 69.0271 70.3966 68.9904 70.4859 69.0339L73.3598 70.439C73.449 70.4826 73.4861 70.5906 73.4422 70.6799C73.4109 70.7436 73.3468 70.7807 73.2802 70.7807Z" fill="#25292B"/>
<path d="M33.9256 36.7737C34.3169 38.3631 35.2972 39.3631 36.7728 39.1792L35.1168 45.2549L43.3932 52.429L44.1971 44.8567C44.1971 44.8567 45.2343 44.6292 46.459 43.5751C47.6837 42.5247 49.7379 39.9283 49.8984 37.4793L50.2195 32.6481C48.2053 32.6347 45.6058 32.0793 43.615 31.5641C41.8618 31.1091 40.5805 30.6875 40.5805 30.6875C40.5503 30.9118 40.4801 31.1425 40.3797 31.3733C39.8375 32.6279 38.4425 33.8793 38.4425 33.8793L38.4393 33.9027C38.436 33.8994 38.436 33.8958 38.4324 33.8958C38.4223 33.8857 38.4123 33.8757 38.4058 33.8656C37.9342 33.3504 37.3117 33.0023 36.6457 32.8986C36.2944 32.845 35.9297 32.8583 35.5683 32.9454C33.9925 33.3375 33.504 35.0709 33.9256 36.7737Z" fill="#F2E9DA"/>
<path d="M49.5054 36.683C49.5376 36.1962 49.207 35.7779 48.767 35.7488C48.327 35.7196 47.9442 36.0907 47.9119 36.5775C47.8797 37.0643 48.2102 37.4826 48.6502 37.5118C49.0903 37.5409 49.4731 37.1699 49.5054 36.683Z" fill="#25292B"/>
<path d="M44.3765 35.7959C44.5308 35.333 44.3168 34.8447 43.8984 34.7052C43.48 34.5657 43.0158 34.8279 42.8615 35.2908C42.7071 35.7537 42.9212 36.242 43.3396 36.3815C43.7579 36.521 44.2222 36.2588 44.3765 35.7959Z" fill="#25292B"/>
<path d="M48.1832 34.5241C48.8013 34.3718 49.4756 34.5241 49.9411 34.9694C50.0336 35.058 50.0656 35.212 49.9724 35.3146C49.8881 35.4075 49.7261 35.4406 49.6271 35.346C49.5814 35.302 49.5339 35.2606 49.4832 35.2228C49.4583 35.2041 49.4331 35.1865 49.4075 35.1692C49.4047 35.1674 49.4018 35.1656 49.3986 35.1638C49.3849 35.1559 49.3712 35.1476 49.3575 35.14C49.3024 35.1091 49.2455 35.0814 49.1872 35.0569C49.1581 35.0446 49.1285 35.0335 49.0987 35.0227C49.0933 35.0209 49.0882 35.0191 49.0843 35.0176C49.0677 35.0126 49.0511 35.0079 49.0346 35.0036C48.9734 34.9874 48.9115 34.9744 48.8488 34.9651C48.8175 34.9604 48.7862 34.9568 48.7545 34.9539C48.7387 34.9525 48.7232 34.9514 48.7074 34.9503C48.7066 34.9503 48.707 34.9503 48.7063 34.9503C48.7045 34.9503 48.7056 34.9503 48.702 34.9503C48.6386 34.95 48.5756 34.9518 48.5126 34.9582C48.4813 34.9615 48.45 34.9654 48.4186 34.9708C48.4032 34.9734 48.3877 34.9762 48.3718 34.9791C48.3675 34.9798 48.3657 34.9802 48.3639 34.9806C48.3607 34.9813 48.3592 34.9816 48.3549 34.9827C48.2311 35.0133 48.0835 34.9755 48.0392 34.8398C48.0028 34.726 48.05 34.5568 48.1832 34.5241Z" fill="#25292B"/>
<path d="M45.0024 34.1729C44.9098 34.282 44.759 34.2611 44.656 34.1859C44.6528 34.1834 44.651 34.1823 44.6485 34.1805C44.647 34.1798 44.6452 34.1787 44.6416 34.1762C44.6283 34.1675 44.615 34.1589 44.6017 34.1506C44.5747 34.1341 44.5473 34.1182 44.5196 34.1035C44.4638 34.0736 44.4062 34.048 44.3475 34.0246C44.3443 34.0232 44.3454 34.0235 44.3436 34.0228C44.3428 34.0225 44.3436 34.0228 44.3425 34.0225C44.3274 34.0174 44.3126 34.0124 44.2975 34.0081C44.2672 33.9987 44.2366 33.9904 44.206 33.9829C44.1445 33.9677 44.0822 33.9562 44.0196 33.9483C44.0023 33.9461 43.9854 33.9443 43.9681 33.9425C43.9641 33.9422 43.9587 33.9418 43.953 33.9418C43.9213 33.9407 43.8896 33.9397 43.8583 33.94C43.7949 33.9404 43.7319 33.9447 43.6693 33.9526C43.6534 33.9544 43.638 33.9569 43.6225 33.9591C43.6192 33.9595 43.6156 33.9602 43.6124 33.9609C43.5822 33.967 43.5519 33.9739 43.522 33.9818C43.4608 33.998 43.4011 34.0181 43.342 34.0415C43.2146 34.0916 43.0774 33.9994 43.0346 33.8817C42.9871 33.7514 43.0753 33.6211 43.1944 33.5743C43.7938 33.3381 44.4757 33.4522 44.9901 33.827C45.1003 33.9073 45.0798 34.0815 45.0024 34.1729Z" fill="#25292B"/>
<path d="M43.1669 41.1866C42.7209 40.9871 42.4242 40.6927 42.286 40.3118C42.0531 39.671 42.3613 39.0259 42.3746 38.9989C42.4109 38.9243 42.4999 38.8923 42.5751 38.9247L45.3496 40.1278C45.3885 40.1447 45.4184 40.1764 45.4331 40.216C45.4475 40.2556 45.4454 40.2995 45.427 40.3373C45.4209 40.3496 44.9154 41.3587 43.9114 41.3587C43.6882 41.3587 43.4398 41.309 43.1669 41.1866ZM42.5989 39.2721C42.533 39.4683 42.4455 39.8441 42.5769 40.2063C42.6856 40.5055 42.9265 40.7402 43.2933 40.9043C44.2772 41.3446 44.8625 40.6556 45.067 40.3424L42.5989 39.2721Z" fill="#25292B"/>
<path d="M36.4284 38.4405C36.3945 38.4405 36.3607 38.4315 36.3297 38.4128C35.7602 38.0661 35.4524 37.3421 35.5982 36.6916C35.7343 36.0821 36.2581 35.5839 36.869 35.4651C36.9659 35.1249 36.9392 34.7703 36.7931 34.4981C36.6199 34.1756 36.2693 33.974 35.9427 34.0096C35.6123 34.0449 35.3279 34.3556 35.3462 34.6619C35.3527 34.767 35.2728 34.857 35.1677 34.8632C35.0625 34.8729 34.9725 34.7897 34.9664 34.6846C34.9355 34.1709 35.3639 33.6885 35.9024 33.6312C36.3837 33.5787 36.8841 33.8631 37.1282 34.3181C37.3431 34.7181 37.3665 35.2221 37.1923 35.7005C37.1675 35.7686 37.1059 35.8168 37.0339 35.8247C36.5281 35.8791 36.0806 36.2787 35.9694 36.7748C35.8581 37.2712 36.0932 37.8234 36.5277 38.0877C36.6174 38.1424 36.6458 38.2594 36.5915 38.3494C36.5551 38.4077 36.4925 38.4401 36.4284 38.4405Z" fill="#25292B"/>
<path d="M43.3099 45.0674C43.1587 45.0674 43.0169 45.0522 42.8905 45.017C41.9984 44.7689 40.7852 43.3365 40.7341 43.2756C40.6664 43.1954 40.6769 43.0751 40.7572 43.0074C40.8382 42.9398 40.958 42.9506 41.0254 43.0305C41.0372 43.0445 42.2137 44.4338 42.9928 44.6505C43.6303 44.8283 44.9569 44.3286 45.4141 44.1209C45.5102 44.0781 45.6226 44.1202 45.6658 44.2156C45.7093 44.3114 45.6668 44.424 45.5714 44.4672C45.5088 44.4957 44.238 45.0674 43.3099 45.0674Z" fill="#25292B"/>
<path d="M43.3896 37.9044C43.0008 37.9044 42.6063 37.8309 42.224 37.6761C41.4536 37.3637 40.8509 36.77 40.5269 36.0047C40.2029 35.2389 40.1968 34.3929 40.5089 33.6225C40.821 32.8521 41.415 32.2495 42.1804 31.9255C42.9454 31.6015 43.7918 31.595 44.5625 31.9075C46.153 32.5523 46.9223 34.3706 46.2776 35.9611C45.788 37.17 44.6205 37.9044 43.3896 37.9044ZM43.3932 32.0583C43.0322 32.0583 42.6714 32.1311 42.3291 32.2758C41.657 32.5602 41.136 33.0894 40.8617 33.7655C40.5874 34.4419 40.5932 35.1842 40.8772 35.8563C41.1616 36.5285 41.6908 37.0494 42.3669 37.3237C43.7622 37.8896 45.3592 37.2143 45.9251 35.8185C46.491 34.4225 45.8157 32.8266 44.4196 32.2607C44.0884 32.1257 43.7406 32.0583 43.3932 32.0583Z" fill="#FBCC04"/>
<path d="M50.2139 39.8518C49.8251 39.8518 49.4305 39.7787 49.0486 39.6239C47.4581 38.9791 46.6888 37.1604 47.3335 35.5699C47.646 34.7995 48.2397 34.1969 49.005 33.8729C49.77 33.5485 50.6164 33.5424 51.3871 33.8549C52.9776 34.4997 53.7469 36.318 53.1022 37.9085C52.6126 39.1174 51.4444 39.8518 50.2139 39.8518ZM50.2175 34.0057C49.8564 34.0057 49.4957 34.0785 49.1533 34.2232C48.4812 34.5076 47.9603 35.0368 47.686 35.7129C47.1201 37.1089 47.7951 38.7048 49.1915 39.2711C50.5865 39.837 52.1838 39.162 52.7497 37.7656C53.3157 36.3695 52.6403 34.7736 51.2442 34.2077C50.9127 34.0731 50.5653 34.0057 50.2175 34.0057Z" fill="#FBCC04"/>
<path d="M37.4981 31.843L37.3066 32.1719L40.5229 34.0446L40.7144 33.7158L37.4981 31.843Z" fill="#FBCC04"/>
<path d="M46.1772 35.7127L46.0273 36.0625L47.2415 36.5828L47.3913 36.233L46.1772 35.7127Z" fill="#FBCC04"/>
<path d="M35.5678 32.9464C35.9292 32.8593 36.2939 32.846 36.6452 32.8996C37.3109 33.0033 37.9333 33.3514 38.4053 33.8666L38.442 33.8799C38.442 33.8799 39.8374 32.6285 40.3792 31.3739C40.4796 31.1432 40.5498 30.9121 40.58 30.6881C40.58 30.6881 41.8616 31.1097 43.6145 31.5647C45.6053 32.0799 48.2048 32.6354 50.219 32.6487C51.497 32.6588 52.541 32.4514 53.0429 31.879C55.3145 29.2827 53.6585 26.6061 51.1525 26.857C48.7502 27.1011 47.1277 27.0579 44.5044 25.4015C41.8814 23.7419 39.121 24.0199 38.3149 26.1442C38.3149 26.1442 33.982 26.2785 35.5678 32.9464Z" fill="#25292B"/>
<path d="M47.5034 40.028C47.4832 40.028 47.4634 40.0247 47.4436 40.0186L45.0701 39.2353C44.9704 39.2021 44.916 39.0945 44.9492 38.9951C44.9823 38.8954 45.0903 38.8414 45.1893 38.8742L47.2913 39.5679L46.9835 35.6054C46.9756 35.5006 47.0537 35.4092 47.1585 35.4009C47.2643 35.3933 47.3547 35.4711 47.363 35.5759L47.6931 39.8235C47.6981 39.8869 47.6708 39.9488 47.6207 39.988C47.5869 40.0143 47.5455 40.028 47.5034 40.028Z" fill="#25292B"/>
<path d="M114.292 108.508H70.7645C69.7871 108.508 68.9922 107.713 68.9922 106.736V80.3937C68.9922 79.4163 69.7871 78.6211 70.7645 78.6211H114.292C115.27 78.6211 116.065 79.4163 116.065 80.3937V106.736C116.065 107.713 115.269 108.508 114.292 108.508ZM70.7645 78.8871C69.9336 78.8871 69.2575 79.5632 69.2575 80.3941V106.736C69.2575 107.567 69.9332 108.243 70.7645 108.243H114.292C115.123 108.243 115.799 107.567 115.799 106.736V80.3941C115.799 79.5632 115.124 78.8871 114.292 78.8871H70.7645Z" fill="#25292B"/>
<path d="M115.932 82.1548H69.125V80.3937C69.125 79.4879 69.859 78.7539 70.7648 78.7539H114.292C115.198 78.7539 115.932 79.4879 115.932 80.3937V82.1548Z" fill="#25292B"/>
<path d="M72.0939 90.1113L78.9512 90.1113L78.9512 83.254L72.0939 83.254L72.0939 90.1113Z" fill="#F2E9DA"/>
<path d="M72.0939 98.3906L78.9512 98.3906L78.9512 91.5333L72.0939 91.5333L72.0939 98.3906Z" fill="#F2E9DA"/>
<path d="M72.0939 106.43L78.9512 106.43L78.9512 99.5724L72.0939 99.5724L72.0939 106.43Z" fill="#F2E9DA"/>
<path d="M74.8594 88.936L72.4082 86.4844L73.6563 85.2359L74.8594 86.439L77.3902 83.9082L78.6387 85.1567L74.8594 88.936Z" fill="#FBCC04"/>
<path d="M74.8594 97.4747L72.4082 95.0231L73.6563 93.7749L74.8594 94.9777L77.3902 92.4473L78.6384 93.6954L74.8594 97.4747Z" fill="#FBCC04"/>
<path d="M74.8594 105.293L72.4082 102.842L73.6563 101.594L74.8594 102.796L77.3902 100.266L78.6387 101.514L74.8594 105.293Z" fill="#FBCC04"/>
<path d="M80.1008 85.043L113.006 85.043L113.006 83.6876L80.1008 83.6876L80.1008 85.043Z" fill="#F2E9DA"/>
<path d="M80.1008 87.6133L113.006 87.6133L113.006 86.2579L80.1008 86.2579L80.1008 87.6133Z" fill="#F2E9DA"/>
<path d="M80.0993 90.1348L94.9043 90.1348L94.9043 88.7794L80.0993 88.7794L80.0993 90.1348Z" fill="#F2E9DA"/>
<path d="M80.1008 93.0937L113.006 93.0938L113.006 91.7384L80.1008 91.7384L80.1008 93.0937Z" fill="#F2E9DA"/>
<path d="M80.1008 95.6641L113.006 95.6641L113.006 94.3087L80.1008 94.3087L80.1008 95.6641Z" fill="#F2E9DA"/>
<path d="M80.0993 98.1855L94.9043 98.1855L94.9043 96.8301L80.0993 96.8301L80.0993 98.1855Z" fill="#F2E9DA"/>
<path d="M80.1008 101.285L113.006 101.285L113.006 99.9298L80.1008 99.9298L80.1008 101.285Z" fill="#F2E9DA"/>
<path d="M80.1008 103.855L113.006 103.855L113.006 102.5L80.1008 102.5L80.1008 103.855Z" fill="#F2E9DA"/>
<path d="M80.0993 106.377L94.9043 106.377L94.9043 105.022L80.0993 105.022L80.0993 106.377Z" fill="#F2E9DA"/>
<path d="M154.364 92.8741L152.005 99.9308C148.777 109.582 138.109 112.187 130.796 105.109L125.452 99.9333C116.529 91.2955 119.215 75.3334 130.039 72.691L137.742 70.81C148.562 68.1683 158.302 81.0963 154.364 92.8741Z" fill="#F2E9DA"/>
<path d="M135.55 79.1724C141.171 77.8001 145.291 74.9001 144.752 72.695C144.214 70.49 139.221 69.8149 133.601 71.1871C127.98 72.5594 123.86 75.4594 124.399 77.6645C124.937 79.8696 129.93 80.5447 135.55 79.1724Z" fill="#25292B"/>
<path d="M149.68 64.6298C149.68 72.4656 141.992 75.0522 132.507 75.0522C123.023 75.0522 115.334 72.4656 115.334 64.6298C115.334 56.794 123.023 49.4414 132.507 49.4414C141.992 49.4418 149.68 56.7944 149.68 64.6298Z" fill="#F2E9DA"/>
<path d="M125.161 69.2589C125.161 69.2589 117.531 69.1657 115.344 65.0574C115.337 64.9173 115.334 64.7741 115.334 64.6272C115.334 60.7291 117.241 56.9473 120.326 54.1328H139.531C139.531 54.1328 146.296 69.2589 125.161 69.2589Z" fill="#FBCC04"/>
<path d="M120.32 62.5707C121.725 62.5707 122.864 61.2764 122.864 59.6799C122.864 58.0833 121.725 56.7891 120.32 56.7891C118.914 56.7891 117.775 58.0833 117.775 59.6799C117.775 61.2764 118.914 62.5707 120.32 62.5707Z" fill="#F2E9DA"/>
<path d="M129.228 62.5707C130.633 62.5707 131.772 61.2764 131.772 59.6799C131.772 58.0833 130.633 56.7891 129.228 56.7891C127.823 56.7891 126.684 58.0833 126.684 59.6799C126.684 61.2764 127.823 62.5707 129.228 62.5707Z" fill="#F2E9DA"/>
<path d="M123.895 65.5296C121.527 65.5296 121.489 63.3952 121.488 63.3736C121.488 63.3088 121.54 63.2562 121.605 63.2559H121.605C121.669 63.2559 121.722 63.3077 121.722 63.3718C121.723 63.4503 121.763 65.2953 123.894 65.2953C126.025 65.2953 126.065 63.4503 126.066 63.3718C126.066 63.3077 126.119 63.2559 126.183 63.2559H126.184C126.248 63.2562 126.3 63.3088 126.3 63.3736C126.3 63.3952 126.262 65.5296 123.895 65.5296Z" fill="#25292B"/>
<path d="M143.762 72.6296C143.743 72.6296 143.724 72.625 143.706 72.6156C143.649 72.585 143.628 72.5141 143.659 72.4572C145.324 69.3626 146.03 65.7342 145.645 62.2408C145.261 58.747 143.782 55.3597 141.482 52.7018C141.44 52.6529 141.445 52.5791 141.494 52.5366C141.542 52.4941 141.616 52.4992 141.659 52.5485C143.989 55.2416 145.488 58.6746 145.878 62.2148C146.268 65.7551 145.553 69.4321 143.864 72.5681C143.844 72.6073 143.804 72.6296 143.762 72.6296Z" fill="#25292B"/>
<path d="M133.107 51.2689C133.085 51.2689 133.063 51.2624 133.043 51.2495C132.989 51.2138 132.974 51.1415 133.01 51.0871C134.787 48.3911 135.271 44.9415 134.304 41.8607C134.285 41.7991 134.319 41.7332 134.381 41.7141C134.442 41.6954 134.508 41.7293 134.527 41.7908C135.515 44.9383 135.021 48.462 133.205 51.2163C133.183 51.2502 133.145 51.2689 133.107 51.2689Z" fill="#25292B"/>
<path d="M134.406 44.3694C136.211 44.3694 137.674 42.9064 137.674 41.1017C137.674 39.297 136.211 37.834 134.406 37.834C132.602 37.834 131.139 39.297 131.139 41.1017C131.139 42.9064 132.602 44.3694 134.406 44.3694Z" fill="#FBCC04"/>
<path d="M146.914 91.0603C149.662 91.0603 151.889 88.2381 151.889 84.7567C151.889 81.2753 149.662 78.4531 146.914 78.4531C144.167 78.4531 141.939 81.2753 141.939 84.7567C141.939 88.2381 144.167 91.0603 146.914 91.0603Z" fill="#FBCC04"/>
<path d="M129.955 94.3966C125.682 94.3966 121.411 93.4027 117.589 91.481C116.107 90.7361 115.509 88.9304 116.254 87.4483C116.999 85.9662 118.804 85.3682 120.287 86.1138C124.323 88.142 128.998 88.8472 133.452 88.0995C137.907 87.3514 142.096 85.1583 145.247 81.9234C146.405 80.735 148.306 80.7102 149.495 81.8683C150.683 83.0257 150.708 84.9275 149.55 86.1159C145.515 90.2581 140.151 93.0664 134.447 94.0244C132.962 94.2735 131.458 94.3966 129.955 94.3966Z" fill="#25292B"/>
<path d="M86.6711 72.3411C87.3702 72.2284 88.0978 72.2201 88.8343 72.3303C90.7006 72.6093 92.3465 73.5982 93.4693 75.1152C94.5918 76.6323 95.0562 78.4956 94.7772 80.3619L94.73 80.6765C94.6012 81.5394 93.7973 82.1352 92.934 82.0056C92.0711 81.8767 91.476 81.0725 91.6049 80.2096L91.652 79.895C91.8061 78.8636 91.5494 77.8336 90.9292 76.9951C90.3089 76.1567 89.3992 75.6099 88.3674 75.4558C86.2376 75.1375 84.2465 76.611 83.9282 78.7404L83.8811 79.0554C83.7518 79.9184 82.9476 80.5127 82.0847 80.3842C81.2218 80.2549 80.6267 79.4507 80.7559 78.5878L80.8031 78.2731C81.2686 75.157 83.7144 72.8174 86.6711 72.3411Z" fill="#FBCC04"/>
<path d="M118.865 85.8372C118.842 86.4927 118.719 87.1551 118.487 87.8053C117.899 89.4516 116.705 90.7699 115.125 91.5183C113.545 92.2664 111.769 92.3546 110.122 91.7664L109.845 91.6674C109.084 91.3956 108.686 90.5582 108.959 89.7968C109.231 89.0358 110.068 88.639 110.83 88.9108L111.107 89.0098C112.017 89.3349 112.999 89.286 113.872 88.8727C114.745 88.459 115.405 87.7304 115.73 86.8207C116.401 84.9422 115.419 82.8686 113.541 82.1976L113.263 82.0982C112.502 81.826 112.106 80.9887 112.378 80.2273C112.65 79.4662 113.487 79.0695 114.249 79.3417L114.526 79.4407C117.274 80.4228 118.962 83.0648 118.865 85.8372Z" fill="#FBCC04"/>
<path d="M92.5596 118.582H71.8438V139.298H92.5596V118.582Z" fill="#FBCC04"/>
<path d="M138.192 115.819H69.125V112.441C69.125 111.535 69.859 110.801 70.7648 110.801H136.552C137.458 110.801 138.192 111.535 138.192 112.441L138.192 115.819Z" fill="#FBCC04"/>
<path d="M136.552 154.705H70.7653C69.753 154.705 68.9297 153.882 68.9297 152.869V112.441C68.9297 111.429 69.7534 110.605 70.7653 110.605H136.553C137.565 110.605 138.389 111.429 138.389 112.441V152.87C138.388 153.882 137.565 154.705 136.552 154.705ZM70.7653 110.997C69.9694 110.997 69.3217 111.645 69.3217 112.441V152.87C69.3217 153.666 69.9694 154.314 70.7653 154.314H136.553C137.349 154.314 137.997 153.666 137.997 152.87V112.441C137.997 111.645 137.349 110.997 136.553 110.997H70.7653Z" fill="#25292B"/>
<path d="M135.672 113.29C135.672 113.513 135.582 113.719 135.434 113.866C135.287 114.014 135.081 114.104 134.858 114.104H130.905C130.459 114.104 130.092 113.74 130.092 113.29C130.092 113.067 130.185 112.862 130.329 112.714C130.481 112.567 130.682 112.477 130.905 112.477H134.858C135.308 112.477 135.672 112.84 135.672 113.29Z" fill="#F2E9DA"/>
<path d="M129.098 113.29C129.098 113.513 129.008 113.719 128.856 113.866C128.712 114.014 128.507 114.104 128.284 114.104H124.331C123.881 114.104 123.518 113.74 123.518 113.29C123.518 113.067 123.608 112.862 123.755 112.714C123.903 112.567 124.104 112.477 124.331 112.477H128.284C128.73 112.477 129.098 112.84 129.098 113.29Z" fill="#25292B"/>
<path d="M122.412 113.29C122.412 113.513 122.322 113.719 122.171 113.866C122.027 114.014 121.822 114.104 121.598 114.104H117.646C117.196 114.104 116.832 113.74 116.832 113.29C116.832 113.067 116.922 112.862 117.07 112.714C117.217 112.567 117.419 112.477 117.646 112.477H121.598C122.045 112.477 122.412 112.84 122.412 113.29Z" fill="black"/>
<path d="M79.6935 136.625L72.8672 129.799L76.1291 126.537L79.6935 130.101L88.5387 121.256L91.8007 124.518L79.6935 136.625Z" fill="#F2E9DA"/>
<path d="M134.538 143.324H72.3107C72.0536 143.324 71.8438 143.113 71.8438 142.857V142.594C71.8438 142.337 72.054 142.127 72.3107 142.127H134.538C134.795 142.127 135.005 142.337 135.005 142.594V142.857C135.005 143.114 134.795 143.324 134.538 143.324Z" fill="#F2E9DA"/>
<path d="M134.605 147.556H72.3771C72.12 147.556 71.9102 147.346 71.9102 147.089V146.826C71.9102 146.569 72.1204 146.359 72.3771 146.359H134.605C134.862 146.359 135.071 146.57 135.071 146.826V147.089C135.071 147.346 134.861 147.556 134.605 147.556Z" fill="#F2E9DA"/>
<path d="M115.757 151.531H72.3439C72.0868 151.531 71.877 151.32 71.877 151.064V150.801C71.877 150.544 72.0872 150.334 72.3439 150.334H115.757C116.014 150.334 116.224 150.544 116.224 150.801V151.064C116.224 151.32 116.014 151.531 115.757 151.531Z" fill="#F2E9DA"/>
<path d="M121.056 135.08C118.922 135.08 117.187 133.345 117.187 131.211V122.943C117.187 121.217 115.783 119.813 114.057 119.813C112.332 119.813 110.928 121.217 110.928 122.943V129.711C110.928 131.589 109.4 133.118 107.521 133.118H107.401C105.522 133.118 103.994 131.589 103.994 129.711V122.225C103.994 120.666 102.725 119.397 101.166 119.397C99.6069 119.397 98.3386 120.666 98.3386 122.225V136.243C98.3386 136.403 98.2094 136.533 98.0492 136.533C97.889 136.533 97.7598 136.403 97.7598 136.243V122.225C97.7598 120.347 99.2876 118.818 101.166 118.818C103.045 118.818 104.573 120.347 104.573 122.225V129.711C104.573 131.27 105.841 132.539 107.401 132.539H107.521C109.081 132.539 110.349 131.27 110.349 129.711V122.943C110.349 120.898 112.012 119.235 114.057 119.235C116.101 119.235 117.765 120.898 117.765 122.943V131.211C117.765 133.026 119.241 134.502 121.055 134.502C122.87 134.502 124.345 133.026 124.345 131.211V129.222C124.345 127.147 126.033 125.46 128.107 125.46C130.182 125.46 131.869 127.147 131.869 129.222V137.356C131.869 137.516 131.74 137.645 131.58 137.645C131.42 137.645 131.291 137.516 131.291 137.356V129.222C131.291 127.467 129.863 126.039 128.107 126.039C126.352 126.039 124.924 127.466 124.924 129.222V131.211C124.925 133.344 123.189 135.08 121.056 135.08Z" fill="#F2E9DA"/>
<path d="M100.917 120.832C101.897 120.832 102.691 120.038 102.691 119.058C102.691 118.078 101.897 117.283 100.917 117.283C99.937 117.283 99.1426 118.078 99.1426 119.058C99.1426 120.038 99.937 120.832 100.917 120.832Z" fill="#FBCC04"/>
<path d="M110.478 127.934C111.458 127.934 112.252 127.139 112.252 126.159C112.252 125.179 111.458 124.385 110.478 124.385C109.498 124.385 108.703 125.179 108.703 126.159C108.703 127.139 109.498 127.934 110.478 127.934Z" fill="#FBCC04"/>
<path d="M117.767 124.141C118.747 124.141 119.541 123.346 119.541 122.366C119.541 121.386 118.747 120.592 117.767 120.592C116.787 120.592 115.992 121.386 115.992 122.366C115.992 123.346 116.787 124.141 117.767 124.141Z" fill="#FBCC04"/>
<path d="M120.882 136.34C121.862 136.34 122.656 135.545 122.656 134.565C122.656 133.585 121.862 132.791 120.882 132.791C119.902 132.791 119.107 133.585 119.107 134.565C119.107 135.545 119.902 136.34 120.882 136.34Z" fill="#FBCC04"/>
<path d="M131.581 138.57C132.561 138.57 133.356 137.776 133.356 136.796C133.356 135.816 132.561 135.021 131.581 135.021C130.601 135.021 129.807 135.816 129.807 136.796C129.807 137.776 130.601 138.57 131.581 138.57Z" fill="#FBCC04"/>
<path d="M98.0362 138.135C99.0161 138.135 99.8106 137.34 99.8106 136.36C99.8106 135.38 99.0161 134.586 98.0362 134.586C97.0562 134.586 96.2617 135.38 96.2617 136.36C96.2617 137.34 97.0562 138.135 98.0362 138.135Z" fill="#FBCC04"/>
<path d="M70.723 56.9687C70.6236 56.9687 70.543 56.8881 70.543 56.7887V54.6287C70.543 54.5294 70.6236 54.4487 70.723 54.4487C70.8223 54.4487 70.903 54.5294 70.903 54.6287V56.7887C70.903 56.8881 70.8223 56.9687 70.723 56.9687ZM106.415 54.8433C106.318 54.8433 106.238 54.7669 106.235 54.6694C106.232 54.57 106.309 54.4869 106.409 54.4833C107.112 54.4588 107.785 54.286 108.409 53.9699C108.498 53.9238 108.606 53.9606 108.651 54.0491C108.696 54.138 108.66 54.246 108.572 54.291C107.901 54.6312 107.177 54.817 106.421 54.8433C106.419 54.8433 106.417 54.8433 106.415 54.8433ZM104.284 54.5837C104.265 54.5837 104.245 54.5808 104.226 54.5744C103.524 54.3364 102.867 53.9393 102.327 53.4256C102.255 53.3572 102.252 53.2434 102.32 53.1711C102.388 53.0991 102.502 53.0958 102.575 53.1646C103.078 53.6423 103.689 54.012 104.342 54.2331C104.436 54.2651 104.487 54.3673 104.455 54.4613C104.429 54.5365 104.359 54.5837 104.284 54.5837ZM110.149 52.9544C110.11 52.9544 110.071 52.9418 110.037 52.9155C109.96 52.8536 109.946 52.7405 110.008 52.6624C110.445 52.1112 110.749 51.4863 110.913 50.8059C110.936 50.709 111.033 50.6486 111.13 50.6727C111.227 50.6957 111.286 50.7929 111.263 50.8898C111.087 51.6216 110.76 52.293 110.291 52.8856C110.255 52.9309 110.202 52.9544 110.149 52.9544ZM70.723 52.6487C70.6236 52.6487 70.543 52.5681 70.543 52.4687V50.3087C70.543 50.2094 70.6236 50.1287 70.723 50.1287C70.8223 50.1287 70.903 50.2094 70.903 50.3087V52.4687C70.903 52.5681 70.8223 52.6487 70.723 52.6487ZM101.249 51.7008C101.178 51.7008 101.11 51.658 101.082 51.5874C100.841 50.9805 100.718 50.3386 100.718 49.6798V49.4055C100.718 49.3061 100.799 49.2255 100.898 49.2255C100.998 49.2255 101.078 49.3061 101.078 49.4055V49.6798C101.078 50.2929 101.192 50.8901 101.417 51.4546C101.453 51.5468 101.408 51.6515 101.316 51.6882C101.294 51.6969 101.271 51.7008 101.249 51.7008ZM85.8509 51.3307H85.6831C85.1554 51.3307 84.6344 51.2515 84.1358 51.0949C84.0408 51.0651 83.9882 50.9643 84.0178 50.8696C84.0473 50.7746 84.1477 50.7209 84.2431 50.7515C84.7072 50.897 85.1917 50.9707 85.6831 50.9707H85.8509C86.005 50.9707 86.1576 50.9635 86.3081 50.9491C86.4064 50.9405 86.4949 51.0129 86.5039 51.1119C86.5129 51.2109 86.4402 51.2987 86.3412 51.3077C86.1799 51.3232 86.0161 51.3307 85.8509 51.3307ZM88.3644 50.6522C88.3025 50.6522 88.2424 50.6205 88.2089 50.5629C88.1588 50.4772 88.1876 50.367 88.2733 50.3166C88.8702 49.9678 89.3954 49.4836 89.7922 48.9162C89.849 48.8345 89.9614 48.8147 90.0427 48.872C90.1241 48.9288 90.1439 49.0412 90.087 49.1225C89.6608 49.732 89.0966 50.2522 88.4551 50.6273C88.4267 50.6442 88.3954 50.6522 88.3644 50.6522ZM82.3312 50.0365C82.288 50.0365 82.2448 50.0211 82.2102 49.9898C81.6587 49.489 81.2137 48.8633 80.9243 48.18C80.8854 48.0886 80.9283 47.9828 81.0197 47.9439C81.1111 47.9054 81.2166 47.9478 81.2558 48.0393C81.5255 48.675 81.9388 49.2572 82.4521 49.723C82.5259 49.79 82.5313 49.9037 82.4644 49.9772C82.4291 50.0164 82.3801 50.0365 82.3312 50.0365ZM111.225 48.8795C111.126 48.8795 111.045 48.7989 111.045 48.6995V46.5395C111.045 46.4402 111.126 46.3595 111.225 46.3595C111.325 46.3595 111.405 46.4402 111.405 46.5395V48.6995C111.405 48.7989 111.325 48.8795 111.225 48.8795ZM70.723 48.3287C70.6236 48.3287 70.543 48.2481 70.543 48.1487V45.9887C70.543 45.8893 70.6236 45.8087 70.723 45.8087C70.8223 45.8087 70.903 45.8893 70.903 45.9887V48.1487C70.903 48.2481 70.8223 48.3287 70.723 48.3287ZM100.898 47.4255C100.799 47.4255 100.718 47.3448 100.718 47.2455V45.0855C100.718 44.9861 100.799 44.9055 100.898 44.9055C100.998 44.9055 101.078 44.9861 101.078 45.0855V47.2455C101.078 47.3452 100.998 47.4255 100.898 47.4255ZM90.7609 47.2203C90.7505 47.2203 90.74 47.2196 90.7292 47.2174C90.6313 47.2001 90.5662 47.1065 90.5834 47.0086C90.6328 46.731 90.6576 46.447 90.6572 46.164V44.885C90.6572 44.7856 90.7379 44.705 90.8372 44.705C90.9366 44.705 91.0172 44.7856 91.0172 44.885V46.1637C91.0172 46.4679 90.9906 46.7731 90.9377 47.0712C90.9226 47.1591 90.8466 47.2203 90.7609 47.2203ZM80.6964 46.1831C80.597 46.1831 80.5164 46.1025 80.5164 46.0031V43.8431C80.5164 43.7437 80.597 43.6631 80.6964 43.6631C80.7958 43.6631 80.8764 43.7437 80.8764 43.8431V46.0031C80.8764 46.1025 80.7958 46.1831 80.6964 46.1831ZM111.225 44.5595C111.126 44.5595 111.045 44.4789 111.045 44.3795V42.2195C111.045 42.1202 111.126 42.0395 111.225 42.0395C111.325 42.0395 111.405 42.1202 111.405 42.2195V44.3795C111.405 44.4789 111.325 44.5595 111.225 44.5595ZM70.723 44.0087C70.6236 44.0087 70.543 43.9281 70.543 43.8287V41.6687C70.543 41.5693 70.6236 41.4887 70.723 41.4887C70.8223 41.4887 70.903 41.5693 70.903 41.6687V43.8287C70.903 43.9281 70.8223 44.0087 70.723 44.0087ZM100.898 43.1055C100.799 43.1055 100.718 43.0248 100.718 42.9255V40.7655C100.718 40.6661 100.799 40.5855 100.898 40.5855C100.998 40.5855 101.078 40.6661 101.078 40.7655V42.9255C101.078 43.0252 100.998 43.1055 100.898 43.1055ZM90.8372 42.9053C90.7379 42.9053 90.6572 42.8247 90.6572 42.7253V40.5653C90.6572 40.466 90.7379 40.3853 90.8372 40.3853C90.9366 40.3853 91.0172 40.466 91.0172 40.5653V42.7253C91.0172 42.8247 90.937 42.9053 90.8372 42.9053ZM80.6964 41.8631C80.597 41.8631 80.5164 41.7825 80.5164 41.6831V39.5231C80.5164 39.4237 80.597 39.3431 80.6964 39.3431C80.7958 39.3431 80.8764 39.4237 80.8764 39.5231V41.6831C80.8764 41.7825 80.7958 41.8631 80.6964 41.8631ZM111.225 40.2395C111.126 40.2395 111.045 40.1589 111.045 40.0595V37.8995C111.045 37.8002 111.126 37.7195 111.225 37.7195C111.325 37.7195 111.405 37.8002 111.405 37.8995V40.0595C111.405 40.1589 111.325 40.2395 111.225 40.2395ZM70.723 39.6887C70.6236 39.6887 70.543 39.6081 70.543 39.5087V37.3487C70.543 37.2493 70.6236 37.1687 70.723 37.1687C70.8223 37.1687 70.903 37.2493 70.903 37.3487V39.5087C70.903 39.6081 70.8223 39.6887 70.723 39.6887ZM100.898 38.7855C100.799 38.7855 100.718 38.7048 100.718 38.6055V36.6651C100.718 36.5942 100.717 36.5236 100.713 36.4534C100.709 36.354 100.786 36.2702 100.886 36.2658C100.985 36.2633 101.069 36.3385 101.073 36.4379C101.076 36.5131 101.078 36.5891 101.078 36.6651V38.6055C101.078 38.7052 100.998 38.7855 100.898 38.7855ZM90.8372 38.5853C90.7379 38.5853 90.6572 38.5047 90.6572 38.4053V36.6654C90.6572 36.5193 90.6634 36.3742 90.6753 36.2309C90.6832 36.1319 90.771 36.0581 90.8696 36.0668C90.9686 36.075 91.0421 36.1622 91.0338 36.2612C91.0226 36.3944 91.0172 36.5294 91.0172 36.6654V38.4053C91.0172 38.5047 90.937 38.5853 90.8372 38.5853ZM80.6964 37.5431C80.597 37.5431 80.5164 37.4625 80.5164 37.3631V35.2031C80.5164 35.1037 80.597 35.0231 80.6964 35.0231C80.7958 35.0231 80.8764 35.1037 80.8764 35.2031V37.3631C80.8764 37.4625 80.7958 37.5431 80.6964 37.5431ZM111.225 35.9195C111.126 35.9195 111.045 35.8389 111.045 35.7395V33.5795C111.045 33.4802 111.126 33.3995 111.225 33.3995C111.325 33.3995 111.405 33.4802 111.405 33.5795V35.7395C111.405 35.8389 111.325 35.9195 111.225 35.9195ZM70.723 35.3687C70.6236 35.3687 70.543 35.2881 70.543 35.1887V33.0287C70.543 32.9293 70.6236 32.8487 70.723 32.8487C70.8223 32.8487 70.903 32.9293 70.903 33.0287V35.1887C70.903 35.2881 70.8223 35.3687 70.723 35.3687ZM132.687 35.3201C132.627 35.3201 132.569 35.2906 132.535 35.2366C132.172 34.6635 131.585 34.2549 130.924 34.1159C130.826 34.0954 130.764 34 130.785 33.9028C130.805 33.8056 130.901 33.7437 130.998 33.7638C131.753 33.9226 132.424 34.3891 132.839 35.044C132.892 35.1279 132.867 35.2391 132.783 35.2924C132.753 35.3111 132.72 35.3201 132.687 35.3201ZM100.342 34.5555C100.277 34.5555 100.215 34.5198 100.182 34.4583C99.865 33.8448 99.4085 33.2958 98.8617 32.8703C98.7832 32.8095 98.7691 32.6961 98.8303 32.6176C98.8912 32.5391 99.0046 32.5244 99.083 32.5863C99.6706 33.0438 100.161 33.6339 100.502 34.2927C100.548 34.3812 100.513 34.4896 100.425 34.5353C100.398 34.549 100.37 34.5555 100.342 34.5555ZM91.4888 34.3791C91.4586 34.3791 91.428 34.3715 91.3999 34.3557C91.3135 34.3064 91.2833 34.1966 91.3326 34.1102C91.7005 33.465 92.2146 32.8948 92.8194 32.4617C92.9004 32.4034 93.0127 32.4225 93.0703 32.5031C93.1283 32.5837 93.1096 32.6964 93.0289 32.754C92.4662 33.1572 91.9874 33.6879 91.6454 34.2883C91.612 34.3467 91.5511 34.3791 91.4888 34.3791ZM128.805 34.0616H126.645C126.546 34.0616 126.465 33.9809 126.465 33.8816C126.465 33.7822 126.546 33.7016 126.645 33.7016H128.805C128.904 33.7016 128.985 33.7822 128.985 33.8816C128.985 33.9809 128.905 34.0616 128.805 34.0616ZM124.546 33.6378C124.521 33.6378 124.496 33.6328 124.472 33.622C123.795 33.3146 123.184 32.8487 122.706 32.2745C122.642 32.1982 122.653 32.0848 122.729 32.0211C122.805 31.9574 122.919 31.9682 122.982 32.0441C123.426 32.5766 123.992 33.0089 124.621 33.2937C124.711 33.3347 124.751 33.4416 124.71 33.532C124.68 33.5986 124.615 33.6378 124.546 33.6378ZM80.6964 33.2231C80.597 33.2231 80.5164 33.1425 80.5164 33.0431V32.232C80.5164 31.7957 80.4577 31.3637 80.3429 30.9479C80.3162 30.8521 80.3728 30.7528 80.4685 30.7265C80.5636 30.7013 80.6637 30.7564 80.6899 30.8521C80.8134 31.2989 80.8764 31.7633 80.8764 32.232V33.0431C80.8764 33.1425 80.7958 33.2231 80.6964 33.2231ZM97.0383 31.9862C97.0249 31.9862 97.0113 31.9847 96.9976 31.9815C96.6441 31.8998 96.2787 31.8583 95.9115 31.8583H95.8243C95.5226 31.8583 95.2206 31.8864 94.9272 31.9419C94.8307 31.9602 94.7357 31.8961 94.717 31.7986C94.6986 31.701 94.7627 31.6067 94.8602 31.5883C95.1756 31.5286 95.5 31.4983 95.824 31.4983H95.9111C96.3053 31.4983 96.698 31.543 97.0782 31.6308C97.175 31.6535 97.2355 31.75 97.2132 31.8468C97.1941 31.93 97.12 31.9862 97.0383 31.9862ZM111.225 31.5995C111.126 31.5995 111.045 31.5189 111.045 31.4195V29.2595C111.045 29.1602 111.126 29.0795 111.225 29.0795C111.325 29.0795 111.405 29.1602 111.405 29.2595V31.4195C111.405 31.5189 111.325 31.5995 111.225 31.5995ZM70.9069 31.0656C70.8907 31.0656 70.8745 31.0635 70.8583 31.0588C70.7626 31.0321 70.7068 30.9328 70.7334 30.837C70.9361 30.1123 71.2878 29.4535 71.7788 28.8786C71.8436 28.803 71.9574 28.7944 72.0326 28.8585C72.1082 28.9233 72.1172 29.0367 72.0528 29.1123C71.596 29.6472 71.2687 30.26 71.0801 30.9342C71.0581 31.0138 70.9854 31.0656 70.9069 31.0656ZM121.878 30.4281C121.797 30.4281 121.723 30.373 121.703 30.2909C121.609 29.9054 121.561 29.5065 121.561 29.1058C121.561 28.7818 121.527 28.4585 121.46 28.145C121.439 28.0478 121.501 27.952 121.599 27.9315C121.695 27.911 121.791 27.9729 121.812 28.0701C121.884 28.4081 121.92 28.757 121.92 29.1058C121.92 29.4777 121.965 29.8478 122.052 30.2052C122.076 30.3017 122.017 30.3993 121.921 30.4227C121.906 30.4266 121.892 30.4281 121.878 30.4281ZM79.5127 29.1868C79.4616 29.1868 79.4112 29.1652 79.3756 29.1234C78.927 28.5949 78.3589 28.1619 77.7329 27.871C77.6429 27.8289 77.6037 27.722 77.6454 27.6316C77.6872 27.5416 77.7941 27.502 77.8848 27.5441C78.5576 27.857 79.1679 28.3224 79.6503 28.8902C79.7147 28.9658 79.7053 29.0795 79.6294 29.1439C79.5952 29.1727 79.5541 29.1868 79.5127 29.1868ZM73.6235 27.8814C73.5554 27.8814 73.4903 27.8429 73.4597 27.7767C73.4179 27.6863 73.4575 27.5794 73.5479 27.5376C74.2279 27.2241 74.9551 27.065 75.7097 27.065C75.8091 27.065 75.8929 27.1456 75.8929 27.245C75.8929 27.3443 75.8159 27.425 75.7165 27.425C75.0077 27.425 74.3309 27.5729 73.6987 27.8645C73.6742 27.8764 73.6487 27.8814 73.6235 27.8814ZM111.639 27.3382C111.615 27.3382 111.59 27.3331 111.566 27.3227C111.475 27.282 111.434 27.1755 111.475 27.0848C111.779 26.4054 112.241 25.7924 112.813 25.3114C112.889 25.2477 113.002 25.2574 113.067 25.3333C113.131 25.4093 113.121 25.5231 113.045 25.5871C112.515 26.0332 112.086 26.602 111.804 27.232C111.774 27.2986 111.708 27.3382 111.639 27.3382ZM120.73 26.3475C120.676 26.3475 120.623 26.3237 120.588 26.2783C120.161 25.7326 119.608 25.2829 118.989 24.9784C118.899 24.9345 118.863 24.8268 118.906 24.7375C118.95 24.6483 119.057 24.6112 119.147 24.6555C119.815 24.9838 120.412 25.4684 120.871 26.0566C120.933 26.1351 120.918 26.2481 120.84 26.3093C120.808 26.3349 120.769 26.3475 120.73 26.3475ZM114.835 24.6533C114.755 24.6533 114.681 24.5989 114.661 24.5172C114.637 24.4207 114.695 24.3232 114.792 24.2991C115.184 24.2004 115.591 24.1504 115.999 24.1504C116 24.1504 116.001 24.1504 116.001 24.1504H116.965C117.064 24.1504 117.154 24.231 117.154 24.3304C117.154 24.4298 117.083 24.5104 116.983 24.5104H116.001C116 24.5104 115.999 24.5104 115.999 24.5104C115.62 24.5104 115.243 24.5568 114.879 24.6483C114.864 24.6515 114.85 24.6533 114.835 24.6533Z" fill="#25292B"/>
<path d="M95.88 37.7132C99.2127 37.7132 101.914 35.0115 101.914 31.6788C101.914 28.3462 99.2127 25.6445 95.88 25.6445C92.5474 25.6445 89.8457 28.3462 89.8457 31.6788C89.8457 35.0115 92.5474 37.7132 95.88 37.7132Z" fill="#FBCC04"/>
<path d="M93.6696 34.3025C93.5968 34.3025 93.5238 34.2787 93.4626 34.2298L90.5761 31.9243C90.4973 31.8613 90.4512 31.7656 90.4512 31.6648C90.4512 31.564 90.4973 31.4682 90.5761 31.4052L93.4255 29.1293C93.5688 29.0148 93.7779 29.0382 93.8924 29.1815C94.0069 29.3248 93.9835 29.5339 93.8402 29.6484L91.3159 31.6648L93.8773 33.7106C94.0206 33.8251 94.044 34.0343 93.9295 34.1776C93.864 34.2596 93.7671 34.3025 93.6696 34.3025Z" fill="#F2E9DA"/>
<path d="M98.0904 34.3025C97.9928 34.3025 97.8963 34.2596 97.8304 34.1776C97.716 34.0343 97.7394 33.8251 97.8826 33.7106L100.444 31.6648L97.9197 29.6484C97.7764 29.5339 97.753 29.3248 97.8675 29.1815C97.982 29.0382 98.1912 29.0148 98.3345 29.1293L101.184 31.4052C101.263 31.4682 101.309 31.564 101.309 31.6648C101.309 31.7656 101.263 31.8613 101.184 31.9243L98.2974 34.2298C98.2365 34.2787 98.1631 34.3025 98.0904 34.3025Z" fill="#F2E9DA"/>
<path d="M95.2308 34.9122C95.1844 34.9187 95.1361 34.9151 95.0883 34.9003C94.9129 34.8463 94.8143 34.6606 94.8683 34.4849L96.6546 28.6781C96.7086 28.5028 96.8944 28.4041 97.0701 28.4581C97.2454 28.5121 97.344 28.6979 97.29 28.8736L95.5037 34.6804C95.4644 34.8085 95.355 34.8953 95.2308 34.9122Z" fill="#F2E9DA"/>
<path d="M97.2387 61.8895H98.1715C98.1715 61.1094 97.9937 60.3239 97.6538 59.6183L96.814 60.0237C96.5321 59.439 96.1217 58.9282 95.6198 58.5282L96.2016 57.7999C95.8956 57.5559 95.5633 57.3463 95.2102 57.1746C94.8574 57.0058 94.4847 56.8755 94.1024 56.7891L93.8961 57.6973C93.5891 57.6271 93.2687 57.5904 92.9396 57.5904C92.6106 57.5904 92.2898 57.6271 91.9824 57.6981L91.7761 56.7891C91.3938 56.8755 91.0212 57.0058 90.6684 57.1746C90.3163 57.3463 89.983 57.5562 89.677 57.7999L90.2587 58.5282C89.7565 58.9282 89.3465 59.439 89.0646 60.0237L88.2247 59.6183C87.8856 60.3243 87.7078 61.1098 87.707 61.8895H88.6405C88.6405 62.5577 88.7932 63.1909 89.065 63.7554L88.2251 64.1608C88.5685 64.8646 89.0642 65.4935 89.6777 65.9791L90.2594 65.2501C90.7562 65.6472 91.3419 65.9363 91.9831 66.0814L91.7768 66.9904C92.5418 67.1653 93.3382 67.1653 94.1035 66.9904L93.8972 66.0821C94.5384 65.9363 95.1241 65.6476 95.6209 65.2501L96.2027 65.9791C96.8158 65.4935 97.3126 64.8646 97.6553 64.1608L96.8154 63.7554C97.0861 63.1909 97.2387 62.5581 97.2387 61.8895ZM92.9385 64.839C91.3463 64.839 90.0553 63.5481 90.0553 61.9551C90.0553 60.3628 91.3463 59.0718 92.9385 59.0718C94.5315 59.0718 95.8225 60.3628 95.8225 61.9551C95.8222 63.5481 94.5312 64.839 92.9385 64.839Z" fill="#FBCC04"/>
<path d="M110.852 70.0257H112.663C112.66 69.6052 112.628 69.1837 112.563 68.7654C112.498 68.3478 112.397 67.9352 112.268 67.5327C112.14 67.1291 111.973 66.7382 111.782 66.3616C111.589 65.9858 111.37 65.6229 111.119 65.2827L109.657 66.3469C108.888 65.2906 107.797 64.4842 106.527 64.0728L107.086 62.3512C105.472 61.8256 103.713 61.8256 102.099 62.3512L102.659 64.0728C101.389 64.4842 100.297 65.2906 99.5287 66.348L98.066 65.2827C97.8162 65.6229 97.5959 65.9858 97.4044 66.3616C97.2121 66.7386 97.0462 67.1291 96.9184 67.5327C96.7884 67.9352 96.6872 68.3481 96.6217 68.7654C96.5584 69.184 96.5256 69.6052 96.5234 70.0257H98.3335C98.3335 71.4013 98.7767 72.6728 99.5287 73.7053L98.066 74.7694C99.055 76.1389 100.488 77.1786 102.099 77.7009L102.659 75.9801C103.268 76.1774 103.917 76.2847 104.593 76.2847C105.268 76.2847 105.919 76.1774 106.528 75.979L107.086 77.7005C108.698 77.1778 110.131 76.1385 111.12 74.7691L109.657 73.7049C110.409 72.6728 110.852 71.4013 110.852 70.0257ZM104.594 73.4054C102.618 73.4054 101.017 71.8037 101.017 69.8281C101.017 67.8524 102.617 66.2508 104.594 66.2508C106.57 66.2508 108.17 67.8524 108.17 69.8281C108.17 71.8037 106.57 73.4054 104.594 73.4054Z" fill="#FBCC04"/>
<path d="M100.784 61.0716C101.966 61.0716 102.925 60.1129 102.925 58.9303C102.925 57.7477 101.966 56.7891 100.784 56.7891C99.6013 56.7891 98.6426 57.7477 98.6426 58.9303C98.6426 60.1129 99.6013 61.0716 100.784 61.0716Z" fill="#FBCC04"/>
</g>
<defs>
<clipPath id="clip0_642_1685">
<rect width="180" height="180" fill="white"/>
</clipPath>
</defs>
</svg>