<svg xmlns="http://www.w3.org/2000/svg" fill="none" viewBox="0 0.92 120 109.92">
<rect y="0.920898" width="120" height="109.921" rx="6" fill="white"/>
<path d="M82 52.5V70C82 71.3261 81.4732 72.5979 80.5355 73.5355C79.5979 74.4732 78.3261 75 77 75H42C40.6739 75 39.4021 74.4732 38.4645 73.5355C37.5268 72.5979 37 71.3261 37 70V52.5H82ZM69.5 30C70.163 30 70.7989 30.2634 71.2678 30.7322C71.7366 31.2011 72 31.837 72 32.5V35H77C78.3261 35 79.5979 35.5268 80.5355 36.4645C81.4732 37.4021 82 38.6739 82 40V47.5H37V40C37 38.6739 37.5268 37.4021 38.4645 36.4645C39.4021 35.5268 40.6739 35 42 35H47V32.5C47 31.837 47.2634 31.2011 47.7322 30.7322C48.2011 30.2634 48.837 30 49.5 30C50.163 30 50.7989 30.2634 51.2678 30.7322C51.7366 31.2011 52 31.837 52 32.5V35H67V32.5C67 31.837 67.2634 31.2011 67.7322 30.7322C68.2011 30.2634 68.837 30 69.5 30Z" fill="#263838"/>
</svg>