<svg xmlns="http://www.w3.org/2000/svg" fill="none" viewBox="0 0.92 120 109.92">
<rect y="0.920898" width="120" height="109.921" rx="6" fill="white"/>
<path d="M96 78.4167V83H23V28H27.5625V78.4167H96ZM91.4375 33.7292V49.3053C91.4375 49.8066 91.2058 50.1587 90.7424 50.3617C90.2791 50.5646 89.8573 50.475 89.4771 50.0931L85.1641 45.7604L62.6011 68.4264C62.3634 68.6651 62.0902 68.7845 61.7812 68.7845C61.4723 68.7845 61.1991 68.6651 60.9614 68.4264L52.6562 60.0833L37.8281 74.9792L30.9844 68.1042L51.8364 47.1569C52.0741 46.9182 52.3473 46.7988 52.6562 46.7988C52.9652 46.7988 53.2384 46.9182 53.4761 47.1569L61.7812 55.5L78.3203 38.8854L74.0073 34.5527C73.6271 34.1708 73.538 33.7471 73.74 33.2816C73.942 32.8161 74.2925 32.5833 74.7915 32.5833H90.2969C90.6296 32.5833 90.9028 32.6908 91.1167 32.9056C91.3306 33.1204 91.4375 33.395 91.4375 33.7292Z" fill="#263838"/>
</svg>