<svg xmlns="http://www.w3.org/2000/svg" fill="none" viewBox="0 0.5 120 109.92">
<rect y="0.5" width="120" height="109.921" rx="6" fill="white"/>
<path d="M60.6331 40.6167C64.4623 40.6167 66.3768 42.0867 67.078 44.4278C67.4285 45.5983 68.588 46.3333 69.8015 46.3333H69.9633C71.8509 46.3333 73.2531 44.4006 72.579 42.6311C71.3925 39.5006 68.7768 36.9689 64.678 35.9617V34.0833C64.678 31.8239 62.8713 30 60.6331 30C58.395 30 56.5883 31.8239 56.5883 34.0833V35.88C55.5366 36.0978 54.5658 36.4517 53.622 36.86L57.6939 40.9706C58.5568 40.7528 59.5545 40.6167 60.6331 40.6167ZM39.7886 34.41C39.5386 34.6618 39.3403 34.961 39.205 35.2903C39.0697 35.6196 39 35.9726 39 36.3292C39 36.6857 39.0697 37.0387 39.205 37.368C39.3403 37.6973 39.5386 37.9965 39.7886 38.2483L47.1503 45.7072C47.1503 51.3694 51.3569 54.4728 57.6939 56.3511L67.1588 65.9061C66.242 67.24 64.3274 68.3833 60.6331 68.3833C56.1838 68.3833 53.8917 66.7772 53.0018 64.4906C52.5973 63.4289 51.6805 62.6667 50.5749 62.6667H50.1165C48.175 62.6667 46.7727 64.6811 47.5547 66.4506C49.1457 70.0711 52.6513 72.2217 56.6152 73.0928V74.9167C56.6152 77.1761 58.4219 79 60.6601 79C62.8983 79 64.705 77.1761 64.705 74.9167V73.1472C67.2937 72.6572 69.6397 71.65 71.3385 70.0983L75.4104 74.2089C75.66 74.4609 75.9564 74.6608 76.2826 74.7972C76.6088 74.9336 76.9584 75.0038 77.3115 75.0038C77.6645 75.0038 78.0141 74.9336 78.3403 74.7972C78.6665 74.6608 78.9629 74.4609 79.2125 74.2089C79.4622 73.9569 79.6602 73.6577 79.7953 73.3284C79.9305 72.9991 80 72.6461 80 72.2897C80 71.9333 79.9305 71.5804 79.7953 71.2511C79.6602 70.9218 79.4622 70.6226 79.2125 70.3706L43.5908 34.41C43.3413 34.1576 43.045 33.9574 42.7188 33.8208C42.3925 33.6842 42.0429 33.6139 41.6897 33.6139C41.3365 33.6139 40.9868 33.6842 40.6606 33.8208C40.3344 33.9574 40.0381 34.1576 39.7886 34.41Z" fill="#263838"/>
</svg>