<svg xmlns="http://www.w3.org/2000/svg" fill="none" viewBox="0 0 120 109.92">
<rect width="120" height="109.921" rx="6" fill="white"/>
<path d="M60 28C73.8075 28 85 39.1925 85 53C85 66.8075 73.8075 78 60 78C46.1925 78 35 66.8075 35 53C35 39.1925 46.1925 28 60 28ZM60 38C59.337 38 58.7011 38.2634 58.2322 38.7322C57.7634 39.2011 57.5 39.837 57.5 40.5V53C57.5001 53.663 57.7636 54.2988 58.2325 54.7675L65.7325 62.2675C66.204 62.7229 66.8355 62.9749 67.491 62.9692C68.1465 62.9635 68.7735 62.7006 69.237 62.237C69.7006 61.7735 69.9635 61.1465 69.9692 60.491C69.9749 59.8355 69.7229 59.204 69.2675 58.7325L62.5 51.965V40.5C62.5 39.837 62.2366 39.2011 61.7678 38.7322C61.2989 38.2634 60.663 38 60 38Z" fill="#263838"/>
</svg>