<svg xmlns="http://www.w3.org/2000/svg" fill="none" viewBox="0 0 180 180">
<rect width="180" height="180" rx="6" fill="white"/>
<path d="M180 137.664H0V137.754H180V137.664Z" fill="#EBEBEB"/>
<path d="M154.695 140.115H119.561V140.205H154.695V140.115Z" fill="#EBEBEB"/>
<path d="M120.839 142.195H104.039V142.285H120.839V142.195Z" fill="#EBEBEB"/>
<path d="M161.964 143.459H155.055V143.549H161.964V143.459Z" fill="#EBEBEB"/>
<path d="M78.841 142.24H45.5312V142.33H78.841V142.24Z" fill="#EBEBEB"/>
<path d="M42.3252 142.24H35.1602V142.33H42.3252V142.24Z" fill="#EBEBEB"/>
<path d="M32.635 140.721H20.8047V140.811H32.635V140.721Z" fill="#EBEBEB"/>
<path d="M85.3244 121.608H15.8088C14.6759 121.608 13.7539 120.687 13.7539 119.554V21.8381C13.7539 20.7052 14.6759 19.7832 15.8088 19.7832H85.3244C86.457 19.7832 87.3789 20.7052 87.3789 21.8381V119.554C87.3789 120.687 86.457 121.608 85.3244 121.608ZM15.8088 19.8736C14.7252 19.8736 13.8439 20.7548 13.8439 21.8384V119.554C13.8439 120.638 14.7252 121.519 15.8088 121.519H85.3244C86.4077 121.519 87.2889 120.638 87.2889 119.554V21.8381C87.2889 20.7548 86.4077 19.8732 85.3244 19.8732L15.8088 19.8736Z" fill="#EBEBEB"/>
<path d="M163.191 121.608H93.6756C92.5427 121.608 91.6211 120.687 91.6211 119.554V21.8381C91.6211 20.7052 92.5431 19.7832 93.6756 19.7832H163.191C164.324 19.7832 165.246 20.7052 165.246 21.8381V119.554C165.246 120.687 164.324 121.608 163.191 121.608ZM93.6756 19.8736C92.5924 19.8736 91.7111 20.7548 91.7111 21.8384V119.554C91.7111 120.638 92.5924 121.519 93.6756 121.519H163.191C164.274 121.519 165.156 120.638 165.156 119.554V21.8381C165.156 20.7548 164.274 19.8732 163.191 19.8732L93.6756 19.8736Z" fill="#EBEBEB"/>
<path d="M140.786 134.35H32.0523L25.5684 60.5918H134.302L140.786 134.35Z" fill="#F0F0F0"/>
<path d="M30.1311 136.7L32.0524 134.35L25.5685 60.5918L23.6504 62.9775L30.1311 136.7Z" fill="#E0E0E0"/>
<path d="M33.4893 131.551L27.5165 63.6074C27.4535 62.8913 28.0176 62.2754 28.7366 62.2754H131.646C132.28 62.2754 132.81 62.7603 132.866 63.3928L138.839 131.336C138.902 132.052 138.337 132.668 137.619 132.668H34.7093C34.0746 132.668 33.5451 132.183 33.4893 131.551Z" fill="#FAFAFA"/>
<path d="M47.3359 134.35H30.9534L29.7949 137.663H46.1774L47.3359 134.35Z" fill="#E0E0E0"/>
<path d="M47.3343 134.35H155.055L153.896 137.663H46.1758L47.3343 134.35Z" fill="#F5F5F5"/>
<path d="M91.6928 134.35H112.342L112.12 136.519H91.4707L91.6928 134.35Z" fill="#E0E0E0"/>
<path d="M122.983 55.752H149.072C151.234 70.0641 141.236 81.8412 126.924 81.8412C122.345 81.8412 117.663 80.6355 113.352 78.3459L122.983 55.752Z" fill="#E0E0E0"/>
<path d="M122.982 55.751L136.733 35.7656C140.022 38.2143 142.83 41.2729 144.962 44.7253C147.093 48.1777 148.496 51.9415 149.071 55.751H122.982Z" fill="#EBEBEB"/>
<path d="M122.982 55.7513L119.041 29.6621C122.084 29.6621 125.185 30.1946 128.202 31.2353C131.219 32.2761 134.106 33.8093 136.732 35.7656L122.982 55.7513Z" fill="#E6E6E6"/>
<path d="M122.983 55.7513L113.351 78.3449C104.586 73.6905 98.2998 65.0602 96.8936 55.7513C94.7318 41.4392 104.73 29.6621 119.042 29.6621L122.983 55.7513Z" fill="#F0F0F0"/>
<path d="M90.7773 102.309H113.92C114.226 104.331 114.264 106.345 114.036 108.298C113.808 110.252 113.314 112.128 112.567 113.88L90.7773 102.309Z" fill="#EBEBEB"/>
<path d="M90.7773 102.308L91.3533 79.5176C96.8531 80.4622 102.132 83.2659 106.258 87.4329C110.384 91.5999 113.098 96.8692 113.92 102.309H90.7773V102.308Z" fill="#E0E0E0"/>
<path d="M90.7765 102.309L70.2251 110.224C68.9187 107.687 68.0417 105.008 67.6339 102.309C65.7161 89.6129 74.5851 79.166 87.2809 79.166C88.628 79.166 89.9906 79.2837 91.3528 79.5177L90.7765 102.309Z" fill="#F0F0F0"/>
<path d="M90.7756 102.309L112.566 113.88C109.517 121.031 102.529 125.451 94.2715 125.451C84.5652 125.451 74.9219 119.345 70.2246 110.224L90.7756 102.309Z" fill="white"/>
<path d="M89.9993 153.922C128.549 153.922 159.799 152.097 159.799 149.846C159.799 147.595 128.549 145.77 89.9993 145.77C51.4498 145.77 20.1992 147.595 20.1992 149.846C20.1992 152.097 51.4498 153.922 89.9993 153.922Z" fill="#F5F5F5"/>
<path d="M86.613 86.1797H54.1859C52.1282 86.1797 50.3073 84.496 50.1396 82.4383L48.5163 62.4993C48.3489 60.4415 49.8955 58.7578 51.9532 58.7578H84.3802C86.438 58.7578 88.2589 60.4415 88.4263 62.4993L90.0495 82.4383C90.2176 84.496 88.6707 86.1797 86.613 86.1797Z" fill="white"/>
<path d="M86.6125 86.3352H54.1855C52.0431 86.3352 50.1582 84.5928 49.9839 82.4508L48.3607 62.5119C48.2761 61.47 48.6058 60.4883 49.2895 59.7464C49.9702 59.008 50.9163 58.6016 51.9531 58.6016H84.3801C86.5225 58.6016 88.4071 60.3443 88.5817 62.4863L90.2049 82.4253C90.2895 83.4668 89.9598 84.4485 89.2761 85.1904C88.5954 85.9288 87.6496 86.3352 86.6125 86.3352ZM51.9531 58.9137C51.0042 58.9137 50.1394 59.2848 49.5188 59.958C48.8949 60.6352 48.594 61.533 48.6714 62.4867L50.2946 82.4256C50.4562 84.4096 52.2015 86.0238 54.1855 86.0238H86.6125C87.5614 86.0238 88.4262 85.6527 89.0468 84.9795C89.6707 84.3023 89.9716 83.4045 89.8942 82.4512L88.271 62.5122C88.1094 60.5279 86.3641 58.9137 84.3801 58.9137H51.9531Z" fill="#FBCC04"/>
<path d="M77.811 80.3574C76.5395 81.742 74.8961 82.7363 73.0446 83.2446L72.5078 81.7074C76.5002 80.6163 79.2031 76.8932 78.8427 72.4688C78.6278 69.8278 77.3635 67.4363 75.4922 65.7058L76.5261 64.5801C81.2069 68.9084 81.7865 76.0299 77.811 80.3574Z" fill="#E0E0E0"/>
<path d="M76.527 64.5802L75.4931 65.7059C73.6218 63.9754 71.1432 62.9059 68.5022 62.9059C65.8613 62.9059 63.5573 63.9783 61.9708 65.7088L60.75 64.5802C62.672 62.4879 65.4167 61.3125 68.3726 61.3125C71.3315 61.3125 74.2648 62.4879 76.527 64.5802Z" fill="#263838"/>
<path d="M73.0456 83.2443C69.2847 84.2732 65.0792 83.1694 62.0347 80.3571C57.3576 76.0292 56.7779 68.908 60.7502 64.5801L61.971 65.7087C60.3812 67.4392 59.5064 69.8274 59.7213 72.4684C60.1512 77.7471 64.7804 82.0282 70.0594 82.0282C70.9137 82.0282 71.737 81.9159 72.5089 81.7071L73.0456 83.2443Z" fill="#FBCC04"/>
<path d="M42.4398 26.5273H39.8398V26.8387H42.4398V26.5273Z" fill="#FBCC04"/>
<path d="M37.3202 26.5273H31.4004V26.8387H37.3202V26.5273Z" fill="#FBCC04"/>
<path d="M64.8532 55.1856H32.4262C30.3684 55.1856 28.5475 53.5019 28.3798 51.4441L26.7565 31.5052C26.5891 29.4474 28.1357 27.7637 30.1935 27.7637H62.6205C64.6782 27.7637 66.4991 29.4474 66.6665 31.5052L68.2897 51.4441C68.4575 53.5019 66.9109 55.1856 64.8532 55.1856Z" fill="white"/>
<path d="M64.8528 55.3415H32.4255C30.2831 55.3415 28.3981 53.5987 28.2239 51.4567L26.601 31.5177C26.5161 30.4763 26.8458 29.4942 27.5298 28.7526C28.2106 28.0139 29.1566 27.6074 30.1934 27.6074H62.6205C64.7628 27.6074 66.6478 29.3502 66.822 31.4922L68.4453 51.4311C68.5299 52.473 68.2001 53.4547 67.5165 54.1967C66.8357 54.935 65.8896 55.3415 64.8528 55.3415ZM30.1931 27.9192C29.2441 27.9192 28.3798 28.2903 27.7588 28.9639C27.1349 29.6407 26.8339 30.5385 26.9117 31.4922L28.5349 51.4311C28.6966 53.4155 30.4419 55.0297 32.4258 55.0297H64.8532C65.8018 55.0297 66.6665 54.6589 67.2875 53.9853C67.9114 53.3082 68.2123 52.4103 68.1346 51.4563L66.5113 31.5174C66.3497 29.5331 64.6041 27.9188 62.6205 27.9188L30.1931 27.9192Z" fill="#FBCC04"/>
<path d="M29.689 33.4845H46.8725L46.7343 31.7871H29.5508L29.689 33.4845Z" fill="#E0E0E0"/>
<path d="M64.0561 33.4845H46.8726L46.7344 31.7871H63.9179L64.0561 33.4845Z" fill="#FBCC04"/>
<path d="M30.0484 37.9048H34.9505L34.8123 36.207H29.9102L30.0484 37.9048Z" fill="#E0E0E0"/>
<path d="M64.4157 37.9048H34.9507L34.8125 36.207H64.2774L64.4157 37.9048Z" fill="#FBCC04"/>
<path d="M30.4078 42.3224H45.7035L45.5652 40.625H30.2695L30.4078 42.3224Z" fill="#E0E0E0"/>
<path d="M64.7764 42.3224H45.7046L45.5664 40.625H64.6381L64.7764 42.3224Z" fill="#FBCC04"/>
<path d="M30.7691 46.7427H56.8734L56.7352 45.0449H30.6309L30.7691 46.7427Z" fill="#E0E0E0"/>
<path d="M65.1353 46.7427H56.8726L56.7344 45.0449H64.9971L65.1353 46.7427Z" fill="#FBCC04"/>
<path d="M31.1285 51.1603H43.2022L43.0639 49.4629H30.9902L31.1285 51.1603Z" fill="#E0E0E0"/>
<path d="M65.4941 51.1603H43.2007L43.0625 49.4629H65.3559L65.4941 51.1603Z" fill="#FBCC04"/>
<path d="M109.183 55.1856H76.7559C74.6981 55.1856 72.8773 53.5019 72.7099 51.4441L71.0866 31.5052C70.9192 29.4474 72.4658 27.7637 74.5235 27.7637H106.951C109.008 27.7637 110.829 29.4474 110.997 31.5052L112.62 51.4441C112.788 53.5019 111.241 55.1856 109.183 55.1856Z" fill="white"/>
<path d="M109.183 55.3415H76.7558C74.6134 55.3415 72.7285 53.5987 72.5542 51.4567L70.931 31.5177C70.8464 30.4763 71.1761 29.4942 71.8598 28.7522C72.5405 28.0139 73.4863 27.6074 74.5231 27.6074H106.95C109.093 27.6074 110.977 29.3502 111.152 31.4922L112.775 51.4311C112.86 52.4726 112.53 53.4547 111.846 54.1963C111.166 54.935 110.22 55.3415 109.183 55.3415ZM74.5231 27.9192C73.5745 27.9192 72.7097 28.29 72.0887 28.9635C71.4649 29.6407 71.1639 30.5385 71.2413 31.4922L72.8645 51.4311C73.0262 53.4155 74.7718 55.0297 76.7554 55.0297H109.182C110.131 55.0297 110.996 54.6585 111.617 53.985C112.241 53.3082 112.542 52.4103 112.464 51.4567L110.841 31.5177C110.679 29.5334 108.934 27.9192 106.95 27.9192H74.5231Z" fill="#FBCC04"/>
<path d="M92.9273 51.1612H92.3549L90.7773 31.7871H91.3497L92.9273 51.1612Z" fill="#E0E0E0"/>
<path d="M93.7923 43.1107H90.1808L89.5645 35.541H93.176L93.7923 43.1107Z" fill="#FBCC04"/>
<path d="M85.8195 51.1612H85.2471L83.6699 31.7871H84.2423L85.8195 51.1612Z" fill="#E0E0E0"/>
<path d="M86.8218 44.7914H83.2103L82.6699 38.1562H86.2814L86.8218 44.7914Z" fill="#FBCC04"/>
<path d="M78.7121 51.1612H78.1397L76.5625 31.7871H77.1345L78.7121 51.1612Z" fill="#E0E0E0"/>
<path d="M79.2694 39.3328H75.6579L75.2871 34.7773H78.8986L79.2694 39.3328Z" fill="#263838"/>
<path d="M100.036 51.1612H99.4639L97.8867 31.7871H98.4591L100.036 51.1612Z" fill="#E0E0E0"/>
<path d="M101.249 47.4077H97.6378L96.6719 35.541H100.283L101.249 47.4077Z" fill="#263838"/>
<path d="M107.144 51.1612H106.571L104.994 31.7871H105.567L107.144 51.1612Z" fill="#E0E0E0"/>
<path d="M108.473 48.8298H104.862L104.088 39.3262H107.699L108.473 48.8298Z" fill="#FBCC04"/>
<path d="M74.4817 116.918H42.0547C39.997 116.918 38.1761 115.234 38.0087 113.177L36.3855 93.2376C36.2181 91.1798 37.7646 89.4961 39.8224 89.4961H72.2494C74.3071 89.4961 76.128 91.1798 76.2954 93.2376L77.9187 113.177C78.0864 115.234 76.5395 116.918 74.4817 116.918Z" fill="white"/>
<path d="M74.4816 117.074H42.0546C39.9123 117.074 38.0273 115.331 37.8531 113.189L36.2298 93.2502C36.1452 92.2087 36.475 91.2266 37.1586 90.4846C37.8394 89.7463 38.7855 89.3398 39.8223 89.3398H72.2493C74.3916 89.3398 76.2762 91.0826 76.4508 93.2246L78.0741 113.164C78.159 114.205 77.8293 115.187 77.1456 115.929C76.4649 116.667 75.5188 117.074 74.4816 117.074ZM39.8223 89.6516C38.8733 89.6516 38.0086 90.0228 37.3879 90.696C36.7641 91.3731 36.4631 92.271 36.5405 93.2246L38.1637 113.164C38.3254 115.148 40.071 116.762 42.0546 116.762H74.4816C75.4306 116.762 76.2953 116.391 76.9159 115.717C77.5398 115.04 77.8408 114.142 77.763 113.189L76.1398 93.2502C75.9781 91.2658 74.2329 89.6516 72.2489 89.6516H39.8223Z" fill="#FBCC04"/>
<path d="M44.2099 102.731L51.1989 110.806L59.2136 98.4434L64.1701 104.832L65.3793 102.966L73.4808 112.676L42.3652 112.664L44.2099 102.731Z" fill="#FBCC04"/>
<path d="M67.5408 103.233L64.2925 110.188L53.932 93.7383L49.0533 104.185L47.4902 101.703L42.3652 112.676L73.479 112.661L67.5408 103.233Z" fill="#E0E0E0"/>
<path d="M134.237 57.2612C135.104 58.8888 135.85 60.4973 136.551 62.1727C137.235 63.8489 137.868 65.5517 138.362 67.351C138.488 67.7974 138.598 68.2578 138.702 68.7204C138.743 68.8774 138.845 69.3785 138.844 69.6967C138.861 70.0502 138.834 70.3688 138.79 70.6734C138.595 71.8704 138.176 72.7877 137.719 73.6546C136.786 75.3707 135.662 76.7927 134.354 78.1358C133.961 78.5387 133.317 78.5473 132.914 78.1549C132.585 77.8345 132.519 77.346 132.719 76.9583L132.745 76.9097C133.517 75.4196 134.281 73.8475 134.797 72.3557C135.046 71.6166 135.243 70.8602 135.242 70.3033C135.238 70.1705 135.234 70.0481 135.214 69.9631C135.205 69.9188 135.197 69.8789 135.183 69.8569L135.116 69.6452C134.996 69.2575 134.873 68.8694 134.729 68.4785C134.184 66.9154 133.51 65.3458 132.809 63.7888C132.112 62.2364 131.362 60.6578 130.62 59.1574L130.604 59.1268C130.105 58.1159 130.519 56.8912 131.53 56.3911C132.521 55.9008 133.72 56.2928 134.237 57.2612Z" fill="#FBCC04"/>
<path d="M133.11 76.7561L131.393 77.2971L133.415 79.6649C133.415 79.6649 134.195 78.978 134.476 77.9837C134.571 77.6481 134.432 77.2892 134.15 77.0851L133.863 76.8777C133.646 76.7204 133.366 76.6754 133.11 76.7561Z" fill="#7F3E3B"/>
<path d="M129.025 78.7583L131.192 80.4776L133.415 79.6662L131.392 77.2988L129.025 78.7583Z" fill="#7F3E3B"/>
<path d="M121.627 45.2217C121.584 45.4348 121.436 45.5842 121.297 45.5561C121.158 45.5277 121.08 45.3322 121.123 45.1191C121.167 44.906 121.315 44.7566 121.454 44.7846C121.593 44.8134 121.671 45.0089 121.627 45.2217Z" fill="#263838"/>
<path d="M121.454 45.5879C121.454 45.5879 120.72 46.7183 120.066 47.2028C120.372 47.6312 121.045 47.6007 121.045 47.6007L121.454 45.5879Z" fill="#630F0F"/>
<path d="M122.647 44.1962C122.678 44.1962 122.71 44.1851 122.734 44.1624C122.786 44.1145 122.789 44.0339 122.741 43.982C122.262 43.4633 121.68 43.5554 121.655 43.5597C121.586 43.5716 121.539 43.6375 121.551 43.707C121.563 43.7765 121.629 43.8225 121.698 43.8114C121.717 43.8085 122.171 43.7415 122.554 44.1552C122.579 44.1825 122.613 44.1962 122.647 44.1962Z" fill="#263838"/>
<path d="M127.541 49.0977C127.155 51.069 126.922 53.8 128.301 55.1154C128.301 55.1154 127.762 57.1149 124.099 57.1149C120.071 57.1149 122.161 55.3599 122.161 55.3599C123.835 54.8404 123.821 52.9331 123.438 51.4017L127.541 49.0977Z" fill="#7F3E3B"/>
<path d="M121.455 55.0523C121.455 55.0523 122.042 53.6606 122.642 53.4208C123.242 53.1807 127.062 52.5528 127.942 53.1069C128.822 53.6609 129.416 55.4411 129.416 55.4411L121.455 55.0523Z" fill="#FBCC04"/>
<path d="M125.493 147.233C125.147 147.233 124.813 147.186 124.701 147.03C124.662 146.976 124.631 146.884 124.706 146.751C124.748 146.677 124.816 146.627 124.909 146.602C125.357 146.48 126.299 147.017 126.339 147.04C126.362 147.053 126.374 147.079 126.37 147.105C126.366 147.132 126.345 147.152 126.319 147.157C126.147 147.192 125.815 147.233 125.493 147.233ZM125.065 146.711C125.02 146.711 124.979 146.715 124.942 146.725C124.883 146.741 124.842 146.771 124.817 146.815C124.772 146.894 124.788 146.933 124.805 146.956C124.93 147.13 125.611 147.134 126.112 147.063C125.862 146.935 125.38 146.711 125.065 146.711Z" fill="#FBCC04"/>
<path d="M126.307 147.158C126.298 147.158 126.289 147.156 126.28 147.152C125.955 147.006 125.311 146.423 125.36 146.119C125.372 146.047 125.422 145.958 125.598 145.94C125.729 145.927 125.847 145.964 125.952 146.05C126.294 146.331 126.367 147.057 126.37 147.088C126.372 147.111 126.362 147.132 126.344 147.146C126.333 147.154 126.32 147.158 126.307 147.158ZM125.649 146.065C125.637 146.065 125.624 146.066 125.611 146.067C125.496 146.079 125.489 146.124 125.486 146.139C125.457 146.322 125.895 146.78 126.227 146.979C126.192 146.767 126.096 146.333 125.871 146.148C125.803 146.092 125.73 146.065 125.649 146.065Z" fill="#FBCC04"/>
<path d="M129.27 147.094H126.575L126.307 140.854H129.001L129.27 147.094Z" fill="#7F3E3B"/>
<path d="M126.593 146.783H129.536C129.646 146.783 129.741 146.86 129.765 146.967L130.298 149.362C130.353 149.611 130.164 149.846 129.91 149.841C128.848 149.823 127.315 149.761 125.98 149.761C124.421 149.761 124.232 149.846 122.402 149.846C121.296 149.846 120.989 148.728 121.452 148.626C123.56 148.165 124.123 148.116 125.944 146.993C126.142 146.871 126.361 146.783 126.593 146.783Z" fill="#263838"/>
<path d="M133.126 55.1253C135.651 55.7042 137.317 62.5197 137.317 62.5197L133.101 65.6873C133.101 65.6873 130.8 64.2621 129.972 61.0372C129.104 57.6579 130.544 54.5334 133.126 55.1253Z" fill="#263838"/>
<path opacity="0.2" d="M130.96 59.8652C132.332 61.2224 133.219 63.3648 133.325 65.514L133.101 65.6864C133.101 65.6864 130.799 64.259 129.97 61.0352C129.919 60.8336 129.875 60.6317 129.838 60.4337L130.96 59.8652Z" fill="black"/>
<path d="M142.205 65.266L121.748 73.4414L127.828 88.6556L148.285 80.4801L142.205 65.266Z" fill="#FBCC04"/>
<path opacity="0.5" d="M141.905 65.3841L121.748 73.4395L127.828 88.6536L147.985 80.5983L141.905 65.3841Z" fill="white"/>
<g opacity="0.5">
<path d="M125.442 73.5264L123.533 74.2891L124.074 75.6416L125.982 74.8789L125.442 73.5264Z" fill="#FBCC04"/>
<path d="M128.592 72.2666L126.684 73.0293L127.224 74.3819L129.133 73.6192L128.592 72.2666Z" fill="#FBCC04"/>
<path d="M131.744 71.0088L129.836 71.7715L130.376 73.124L132.285 72.3613L131.744 71.0088Z" fill="#FBCC04"/>
<path d="M134.895 69.749L132.986 70.5117L133.527 71.8643L135.435 71.1016L134.895 69.749Z" fill="#FBCC04"/>
<path d="M138.047 68.4893L136.139 69.252L136.679 70.6045L138.588 69.8418L138.047 68.4893Z" fill="#FBCC04"/>
<path d="M141.198 67.2314L139.289 67.9941L139.83 69.3467L141.738 68.584L141.198 67.2314Z" fill="#FBCC04"/>
<path d="M126.334 75.7588L124.426 76.5215L124.966 77.8744L126.875 77.1117L126.334 75.7588Z" fill="#FBCC04"/>
<path d="M129.485 74.501L127.576 75.2637L128.117 76.6166L130.025 75.8539L129.485 74.501Z" fill="#FBCC04"/>
<path d="M132.637 73.2412L130.729 74.0039L131.269 75.3568L133.178 74.5941L132.637 73.2412Z" fill="#FBCC04"/>
<path d="M135.787 71.9814L133.879 72.7441L134.419 74.0967L136.328 73.334L135.787 71.9814Z" fill="#FBCC04"/>
<path d="M138.938 70.7236L137.029 71.4863L137.57 72.8392L139.478 72.0765L138.938 70.7236Z" fill="#FBCC04"/>
<path d="M142.09 69.4639L140.182 70.2266L140.722 71.5791L142.631 70.8164L142.09 69.4639Z" fill="#FBCC04"/>
<path d="M127.227 77.9932L125.318 78.7559L125.859 80.1084L127.767 79.3457L127.227 77.9932Z" fill="#FBCC04"/>
<path d="M130.379 76.7334L128.471 77.4961L129.011 78.8487L130.92 78.086L130.379 76.7334Z" fill="#FBCC04"/>
<path d="M133.53 75.4756L131.621 76.2383L132.162 77.5908L134.07 76.8281L133.53 75.4756Z" fill="#FBCC04"/>
<path d="M136.68 74.2158L134.771 74.9785L135.312 76.3311L137.221 75.5684L136.68 74.2158Z" fill="#FBCC04"/>
<path d="M139.83 72.958L137.922 73.7207L138.462 75.0733L140.371 74.3106L139.83 72.958Z" fill="#FBCC04"/>
<path d="M142.983 71.7002L141.074 72.4629L141.615 73.8158L143.523 73.0531L142.983 71.7002Z" fill="#FBCC04"/>
<path d="M128.119 80.2275L126.211 80.9902L126.752 82.3431L128.66 81.5804L128.119 80.2275Z" fill="#FBCC04"/>
<path d="M131.27 78.9678L129.361 79.7305L129.902 81.0834L131.81 80.3207L131.27 78.9678Z" fill="#FBCC04"/>
<path d="M134.422 77.708L132.514 78.4707L133.054 79.8233L134.963 79.0606L134.422 77.708Z" fill="#FBCC04"/>
<path d="M137.573 76.4502L135.664 77.2129L136.205 78.5658L138.113 77.8031L137.573 76.4502Z" fill="#FBCC04"/>
<path d="M140.723 75.1904L138.814 75.9531L139.355 77.3057L141.263 76.543L140.723 75.1904Z" fill="#FBCC04"/>
<path d="M143.875 73.9307L141.967 74.6934L142.507 76.0459L144.416 75.2832L143.875 73.9307Z" fill="#FBCC04"/>
<path d="M129.012 82.46L127.104 83.2227L127.644 84.5752L129.553 83.8125L129.012 82.46Z" fill="#FBCC04"/>
<path d="M132.162 81.2021L130.254 81.9648L130.794 83.3174L132.703 82.5547L132.162 81.2021Z" fill="#FBCC04"/>
<path d="M135.315 79.9424L133.406 80.7051L133.947 82.0576L135.855 81.2949L135.315 79.9424Z" fill="#FBCC04"/>
<path d="M138.465 78.6846L136.557 79.4473L137.097 80.7998L139.006 80.0371L138.465 78.6846Z" fill="#FBCC04"/>
<path d="M141.616 77.4268L139.707 78.1895L140.248 79.5423L142.156 78.7797L141.616 77.4268Z" fill="#FBCC04"/>
<path d="M144.768 76.165L142.859 76.9277L143.4 78.2806L145.309 77.5179L144.768 76.165Z" fill="#FBCC04"/>
<path d="M129.905 84.6943L127.996 85.457L128.537 86.8099L130.445 86.0472L129.905 84.6943Z" fill="#FBCC04"/>
<path d="M133.055 83.4346L131.146 84.1973L131.687 85.5502L133.596 84.7875L133.055 83.4346Z" fill="#FBCC04"/>
<path d="M136.207 82.1768L134.299 82.9395L134.839 84.2923L136.748 83.5297L136.207 82.1768Z" fill="#FBCC04"/>
<path d="M139.358 80.917L137.449 81.6797L137.99 83.0323L139.898 82.2695L139.358 80.917Z" fill="#FBCC04"/>
<path d="M142.51 79.6572L140.602 80.4199L141.142 81.7725L143.051 81.0098L142.51 79.6572Z" fill="#FBCC04"/>
<path d="M145.66 78.3975L143.752 79.1602L144.292 80.5127L146.201 79.75L145.66 78.3975Z" fill="#FBCC04"/>
</g>
<path d="M140.514 70.0915C140.397 69.7988 140.539 69.4665 140.832 69.3495C141.124 69.2325 141.457 69.3751 141.574 69.6677C141.691 69.9604 141.548 70.2927 141.256 70.4097C140.963 70.5267 140.631 70.3845 140.514 70.0915Z" fill="white"/>
<path d="M140.039 78.0524C139.922 77.7597 140.065 77.4274 140.357 77.3104C140.65 77.1934 140.982 77.336 141.099 77.6287C141.216 77.9214 141.074 78.2536 140.781 78.3706C140.488 78.4876 140.156 78.3451 140.039 78.0524Z" fill="white"/>
<path d="M132.846 78.3356C132.729 78.0429 132.871 77.7106 133.164 77.5936C133.457 77.4766 133.789 77.6192 133.906 77.9119C134.023 78.2046 133.88 78.5368 133.588 78.6538C133.295 78.7712 132.963 78.6286 132.846 78.3356Z" fill="white"/>
<path d="M128.328 85.3219C128.211 85.0292 128.354 84.697 128.646 84.58C128.939 84.463 129.271 84.6055 129.388 84.8982C129.505 85.1909 129.363 85.5232 129.07 85.6402C128.777 85.7572 128.445 85.6146 128.328 85.3219Z" fill="white"/>
<path d="M128.858 85.3224C128.819 85.3224 128.779 85.3116 128.743 85.2882C128.645 85.2248 128.617 85.0938 128.681 84.9955L133.198 78.0097C133.235 77.9521 133.298 77.9157 133.367 77.9132L140.37 77.6357L140.832 69.8669C140.839 69.7506 140.942 69.6635 141.056 69.6681C141.172 69.6753 141.261 69.7754 141.254 69.8921L140.781 77.852C140.775 77.9607 140.687 78.0464 140.578 78.0507L133.493 78.3315L129.036 85.2252C128.996 85.2882 128.928 85.3224 128.858 85.3224Z" fill="white"/>
<path d="M117.167 57.8267C116.616 60.7376 116.272 66.7158 117.871 78.554H132.283C132.023 76.5009 130.992 65.5494 133.126 55.1249C133.126 55.1249 130.656 54.6291 128.302 54.5157C126.46 54.4268 123.794 54.3681 122.175 54.5161C121.499 54.5777 120.836 54.6752 120.245 54.78C118.686 55.0554 117.461 56.2715 117.167 57.8267Z" fill="#263838"/>
<path opacity="0.2" d="M119.432 62.3086L116.725 62.5246C116.628 66.0274 116.869 71.1394 117.87 78.5518H117.999C119.623 73.213 121.776 65.581 119.432 62.3086Z" fill="black"/>
<path opacity="0.2" d="M126.307 140.855L126.445 144.072H129.14L129.002 140.855H126.307Z" fill="black"/>
<path d="M128.822 46.2129C128.13 48.7959 127.856 50.3432 126.262 51.4171C123.864 53.0328 120.879 51.1784 120.786 48.4406C120.701 45.9764 121.848 42.1662 124.62 41.6456C127.351 41.1326 129.514 43.6299 128.822 46.2129Z" fill="#7F3E3B"/>
<path d="M122.775 46.2305L121.375 46.5944L122.678 43.2155C122.537 42.9577 122.166 41.7834 122.558 40.6091C122.661 40.2995 122.946 40.0899 123.272 40.0835C126.174 40.0269 129.207 41.6563 130.736 42.8879C131.031 43.1251 131.103 43.5431 130.906 43.8656C130.571 44.4135 130.138 44.8329 129.592 45.3888C129.563 46.3349 128.018 50.6099 127.163 51.0897C126.308 51.5696 124.673 51.3749 124.238 50.5947C123.803 49.8153 122.333 48.7803 122.775 46.2305Z" fill="#263838"/>
<path d="M124.07 46.2847C123.913 46.9673 123.484 47.562 123.027 47.9216C122.34 48.4623 121.803 47.9634 121.831 47.1685C121.857 46.4532 122.244 45.3102 123.012 45.0776C123.768 44.8483 124.25 45.5042 124.07 46.2847Z" fill="#7F3E3B"/>
<path d="M148.709 146.303C148.707 145.957 148.752 145.623 148.907 145.51C148.961 145.471 149.054 145.439 149.186 145.514C149.261 145.556 149.311 145.623 149.337 145.715C149.461 146.163 148.931 147.108 148.908 147.148C148.895 147.171 148.869 147.184 148.843 147.18C148.816 147.176 148.795 147.156 148.79 147.13C148.754 146.958 148.711 146.626 148.709 146.303ZM149.229 145.873C149.229 145.828 149.224 145.786 149.213 145.75C149.197 145.691 149.168 145.65 149.123 145.625C149.044 145.581 149.005 145.597 148.982 145.614C148.809 145.74 148.809 146.421 148.883 146.922C149.01 146.671 149.231 146.188 149.229 145.873Z" fill="#FBCC04"/>
<path d="M148.789 147.116C148.789 147.107 148.791 147.098 148.794 147.089C148.938 146.763 149.517 146.115 149.822 146.163C149.894 146.174 149.983 146.224 150.002 146.399C150.016 146.53 149.98 146.649 149.895 146.754C149.615 147.098 148.89 147.176 148.859 147.179C148.837 147.181 148.815 147.171 148.801 147.153C148.793 147.141 148.789 147.129 148.789 147.116ZM149.877 146.451C149.877 146.438 149.877 146.425 149.875 146.413C149.863 146.298 149.818 146.291 149.802 146.289C149.62 146.26 149.164 146.701 148.967 147.034C149.179 146.998 149.612 146.9 149.796 146.673C149.851 146.605 149.878 146.532 149.877 146.451Z" fill="#FBCC04"/>
<path d="M148.831 147.134L146.202 147.32L144.725 141.03L147.354 140.844L148.831 147.134Z" fill="#7F3E3B"/>
<path d="M148.821 146.53L145.89 146.27C145.78 146.261 145.678 146.328 145.645 146.434L144.904 148.772C144.827 149.015 144.994 149.266 145.247 149.284C146.306 149.36 147.84 149.433 149.168 149.55C150.722 149.688 149.716 149.684 151.538 149.846C152.64 149.943 153.045 148.856 152.592 148.714C150.533 148.069 150.161 147.624 149.449 146.796C149.297 146.62 149.052 146.551 148.821 146.53Z" fill="#263838"/>
<path opacity="0.2" d="M144.725 141.032L145.485 144.274L148.116 144.088L147.355 140.846L144.725 141.032Z" fill="black"/>
<path d="M122.982 78.5527C122.982 78.5527 129.181 99.2502 131.532 106.933C134.108 115.347 143.906 143.258 143.906 143.258L148.657 142.214C148.657 142.214 141.945 118.233 139.162 106.5C137.024 97.4869 132.282 78.5527 132.282 78.5527H122.982Z" fill="#FBCC04"/>
<path d="M143.073 141.79C143.051 141.793 143.54 143.646 143.54 143.646L149.255 143.032L149.229 141.334L143.073 141.79Z" fill="#263838"/>
<path opacity="0.3" d="M126.416 88.1466C129.846 88.5988 131.212 100.551 131.725 107.565C131.66 107.343 131.592 107.132 131.532 106.933C130.249 102.738 127.818 94.6551 125.875 88.1848C126.036 88.1315 126.219 88.12 126.416 88.1466Z" fill="black"/>
<path d="M117.871 78.5527C117.871 78.5527 119.95 98.7102 120.845 106.916C121.777 115.452 125.273 143.449 125.273 143.449H129.838C129.838 143.449 129.285 115.963 129.101 107.569C128.9 98.4179 127.345 78.5527 127.345 78.5527H117.871Z" fill="#FBCC04"/>
<path d="M124.562 141.631C124.54 141.631 124.819 143.526 124.819 143.526H130.372L130.522 141.835L124.562 141.631Z" fill="#263838"/>
<path d="M98.3762 97.518C100.755 101.292 105.744 102.422 109.518 100.043C113.291 97.6635 114.422 92.6757 112.043 88.9022C109.663 85.1286 104.675 83.9972 100.902 86.376C97.1281 88.7549 95.9974 93.7442 98.3762 97.518ZM110.961 89.5836C112.964 92.7599 112.012 96.9586 108.836 98.9613C105.659 100.964 101.46 100.012 99.4577 96.8362C97.4546 93.6588 98.4065 89.4602 101.583 87.4571C104.76 85.4548 108.958 86.4063 110.961 89.5836Z" fill="#263838"/>
<path opacity="0.2" d="M111.286 94.5873C110.525 97.9432 107.188 100.047 103.832 99.2864C100.476 98.5257 98.3714 95.1881 99.132 91.8322C99.8927 88.4756 103.23 86.3714 106.587 87.132C109.943 87.8931 112.047 91.2307 111.286 94.5873Z" fill="#FBCC04"/>
<path d="M112.265 87.9226L113.023 89.1239C113.138 89.3064 113.083 89.5476 112.901 89.6625C112.718 89.7773 112.477 89.723 112.362 89.5404L111.605 88.3391C111.49 88.1566 111.545 87.9154 111.727 87.8006C111.909 87.6854 112.15 87.7401 112.265 87.9226Z" fill="#263838"/>
<path d="M117.163 84.5086C116.288 85.1062 115.419 85.715 114.561 86.3403C113.704 86.9663 112.853 87.6043 112.028 88.2814C111.843 88.4333 111.777 88.6969 111.882 88.924C112.008 89.1926 112.328 89.3081 112.596 89.1825C113.563 88.73 114.505 88.2379 115.44 87.7342C116.374 87.2295 117.297 86.7082 118.214 86.1761C118.994 85.7225 119.768 85.2589 120.538 84.7891C120.759 84.6537 120.827 84.3621 120.688 84.1425L120.065 83.1532C119.926 82.9336 119.634 82.8692 119.416 83.0107C118.661 83.5021 117.909 84.0003 117.163 84.5086Z" fill="#263838"/>
<path d="M121.177 58.8343C120.736 60.9954 120.263 63.1489 119.772 65.2974L118.279 71.7252C117.797 73.8204 117.383 75.9459 117.004 78.1008L115.871 84.5826L115.869 84.5974C115.772 85.1503 115.245 85.5201 114.692 85.4236C114.21 85.3393 113.868 84.9279 113.852 84.4577C113.774 82.2077 113.809 79.9825 113.935 77.743C114.069 75.5106 114.275 73.2577 114.643 71.0175C114.994 68.8146 115.388 66.637 115.81 64.4615C116.231 62.2871 116.688 60.1217 117.187 57.9657C117.441 56.8666 118.537 56.1819 119.636 56.4357C120.716 56.6855 121.396 57.754 121.177 58.8343Z" fill="#FBCC04"/>
<path d="M115.563 83.9973C115.381 83.8047 115.107 83.7244 114.849 83.786L114.264 83.9257C113.964 83.9973 113.739 84.2464 113.699 84.5521L113.53 85.8517C113.481 86.2239 113.561 86.6019 113.755 86.9234L114.558 88.2532C114.77 88.5333 115.124 88.6654 115.467 88.5927L116.306 88.4149C116.831 88.3033 117.144 87.7618 116.979 87.251L116.759 86.5735C116.759 86.5735 116.746 85.2483 115.563 83.9973Z" fill="#7F3E3B"/>
<path d="M123.982 57.5851C125.292 61.0606 120.761 66.0167 120.761 66.0167L115.027 64.1202C115.027 64.1202 115.466 59.3783 117.456 56.7049C119.915 53.4027 122.985 54.9399 123.982 57.5851Z" fill="#263838"/>
</svg>